G04 #@! TF.FileFunction,Copper,L1,Top,Signal*
%FSLAX46Y46*%
G04 Gerber Fmt 4.6, Leading zero omitted, Abs format (unit mm)*
G04 Created by KiCad (PCBNEW 4.0.4+e1-6308~48~ubuntu15.10.1-stable) date Fri Feb 24 14:21:57 2017*
%MOMM*%
%LPD*%
G01*
G04 APERTURE LIST*
%ADD10C,0.100000*%
%ADD11C,1.400000*%
%ADD12C,6.400000*%
%ADD13C,0.508000*%
%ADD14C,0.254000*%
G04 APERTURE END LIST*
D10*
D11*
X112395000Y-92075000D03*
X114935000Y-92075000D03*
X112395000Y-80645000D03*
X114935000Y-80645000D03*
D12*
X99695000Y-80645000D03*
X99695000Y-103505000D03*
X137795000Y-80645000D03*
X137795000Y-103505000D03*
X106245000Y-92075000D03*
X131245000Y-92075000D03*
X122555000Y-92075000D03*
D13*
X112395000Y-80645000D02*
X112395000Y-92075000D01*
X114935000Y-80645000D02*
X114935000Y-92075000D01*
D14*
G36*
X140895000Y-106605000D02*
X140117832Y-106605000D01*
X140895000Y-105829188D01*
X140895000Y-106605000D01*
X140895000Y-106605000D01*
G37*
X140895000Y-106605000D02*
X140117832Y-106605000D01*
X140895000Y-105829188D01*
X140895000Y-106605000D01*
G36*
X97370812Y-106605000D02*
X96595000Y-106605000D01*
X96595000Y-105827832D01*
X97370812Y-106605000D01*
X97370812Y-106605000D01*
G37*
X97370812Y-106605000D02*
X96595000Y-106605000D01*
X96595000Y-105827832D01*
X97370812Y-106605000D01*
G36*
X134583026Y-78432591D02*
X134558657Y-78450640D01*
X134554076Y-78461490D01*
X134545741Y-78469811D01*
X134257533Y-79163893D01*
X133965264Y-79856171D01*
X133965184Y-79867947D01*
X133960667Y-79878825D01*
X133960011Y-80630352D01*
X133954913Y-81381793D01*
X133959346Y-81392705D01*
X133959336Y-81404482D01*
X134246304Y-82098998D01*
X134529181Y-82795246D01*
X134541778Y-82814099D01*
X134541950Y-82814515D01*
X134542271Y-82814836D01*
X134558657Y-82839360D01*
X134589714Y-82862363D01*
X135582591Y-83856974D01*
X135600640Y-83881343D01*
X135611490Y-83885924D01*
X135619811Y-83894259D01*
X136313893Y-84182467D01*
X137006171Y-84474736D01*
X137017947Y-84474816D01*
X137028825Y-84479333D01*
X137780352Y-84479989D01*
X138531793Y-84485087D01*
X138542705Y-84480654D01*
X138554482Y-84480664D01*
X139248998Y-84193696D01*
X139945246Y-83910819D01*
X139964099Y-83898222D01*
X139964515Y-83898050D01*
X139964836Y-83897729D01*
X139989360Y-83881343D01*
X140012363Y-83850286D01*
X140895000Y-82969188D01*
X140895000Y-101182168D01*
X140007409Y-100293026D01*
X139989360Y-100268657D01*
X139978510Y-100264076D01*
X139970189Y-100255741D01*
X139276107Y-99967533D01*
X138583829Y-99675264D01*
X138572053Y-99675184D01*
X138561175Y-99670667D01*
X137809648Y-99670011D01*
X137058207Y-99664913D01*
X137047295Y-99669346D01*
X137035518Y-99669336D01*
X136341002Y-99956304D01*
X135644754Y-100239181D01*
X135625901Y-100251778D01*
X135625485Y-100251950D01*
X135625164Y-100252271D01*
X135600640Y-100268657D01*
X135577637Y-100299714D01*
X134583026Y-101292591D01*
X134558657Y-101310640D01*
X134554076Y-101321490D01*
X134545741Y-101329811D01*
X134257533Y-102023893D01*
X133965264Y-102716171D01*
X133965184Y-102727947D01*
X133960667Y-102738825D01*
X133960011Y-103490352D01*
X133954913Y-104241793D01*
X133959346Y-104252705D01*
X133959336Y-104264482D01*
X134246304Y-104958998D01*
X134529181Y-105655246D01*
X134541778Y-105674099D01*
X134541950Y-105674515D01*
X134542271Y-105674836D01*
X134558657Y-105699360D01*
X134589714Y-105722363D01*
X135470812Y-106605000D01*
X102017832Y-106605000D01*
X102906974Y-105717409D01*
X102931343Y-105699360D01*
X102935924Y-105688510D01*
X102944259Y-105680189D01*
X103232467Y-104986107D01*
X103524736Y-104293829D01*
X103524816Y-104282053D01*
X103529333Y-104271175D01*
X103529989Y-103519648D01*
X103535087Y-102768207D01*
X103530654Y-102757295D01*
X103530664Y-102745518D01*
X103243696Y-102051002D01*
X102960819Y-101354754D01*
X102948222Y-101335901D01*
X102948050Y-101335485D01*
X102947729Y-101335164D01*
X102931343Y-101310640D01*
X102900286Y-101287637D01*
X101907409Y-100293026D01*
X101889360Y-100268657D01*
X101878510Y-100264076D01*
X101870189Y-100255741D01*
X101176107Y-99967533D01*
X100483829Y-99675264D01*
X100472053Y-99675184D01*
X100461175Y-99670667D01*
X99709648Y-99670011D01*
X98958207Y-99664913D01*
X98947295Y-99669346D01*
X98935518Y-99669336D01*
X98241002Y-99956304D01*
X97544754Y-100239181D01*
X97525901Y-100251778D01*
X97525485Y-100251950D01*
X97525164Y-100252271D01*
X97500640Y-100268657D01*
X97477637Y-100299714D01*
X96595000Y-101180812D01*
X96595000Y-92811793D01*
X102404913Y-92811793D01*
X102409346Y-92822705D01*
X102409336Y-92834482D01*
X102696304Y-93528998D01*
X102979181Y-94225246D01*
X102991778Y-94244099D01*
X102991950Y-94244515D01*
X102992271Y-94244836D01*
X103008657Y-94269360D01*
X103039714Y-94292363D01*
X104032591Y-95286974D01*
X104050640Y-95311343D01*
X104061490Y-95315924D01*
X104069811Y-95324259D01*
X104763893Y-95612467D01*
X105456171Y-95904736D01*
X105467947Y-95904816D01*
X105478825Y-95909333D01*
X106230352Y-95909989D01*
X106981793Y-95915087D01*
X106992705Y-95910654D01*
X107004482Y-95910664D01*
X107698998Y-95623696D01*
X108395246Y-95340819D01*
X108414099Y-95328222D01*
X108414515Y-95328050D01*
X108414836Y-95327729D01*
X108439360Y-95311343D01*
X108462363Y-95280286D01*
X109456974Y-94287409D01*
X109481343Y-94269360D01*
X109485924Y-94258510D01*
X109494259Y-94250189D01*
X109782467Y-93556107D01*
X110074736Y-92863829D01*
X110074816Y-92852053D01*
X110079333Y-92841175D01*
X110079989Y-92089648D01*
X110085087Y-91338207D01*
X110080654Y-91327295D01*
X110080664Y-91315518D01*
X109793696Y-90621002D01*
X109510819Y-89924754D01*
X109498222Y-89905901D01*
X109498050Y-89905485D01*
X109497729Y-89905164D01*
X109481343Y-89880640D01*
X109450286Y-89857637D01*
X108457409Y-88863026D01*
X108439360Y-88838657D01*
X108428510Y-88834076D01*
X108420189Y-88825741D01*
X107726107Y-88537533D01*
X107033829Y-88245264D01*
X107022053Y-88245184D01*
X107011175Y-88240667D01*
X106259648Y-88240011D01*
X105508207Y-88234913D01*
X105497295Y-88239346D01*
X105485518Y-88239336D01*
X104791002Y-88526304D01*
X104094754Y-88809181D01*
X104075901Y-88821778D01*
X104075485Y-88821950D01*
X104075164Y-88822271D01*
X104050640Y-88838657D01*
X104027637Y-88869714D01*
X103033026Y-89862591D01*
X103008657Y-89880640D01*
X103004076Y-89891490D01*
X102995741Y-89899811D01*
X102707533Y-90593893D01*
X102415264Y-91286171D01*
X102415184Y-91297947D01*
X102410667Y-91308825D01*
X102410011Y-92060352D01*
X102404913Y-92811793D01*
X96595000Y-92811793D01*
X96595000Y-82967832D01*
X97482591Y-83856974D01*
X97500640Y-83881343D01*
X97511490Y-83885924D01*
X97519811Y-83894259D01*
X98213893Y-84182467D01*
X98906171Y-84474736D01*
X98917947Y-84474816D01*
X98928825Y-84479333D01*
X99680352Y-84479989D01*
X100431793Y-84485087D01*
X100442705Y-84480654D01*
X100454482Y-84480664D01*
X101148998Y-84193696D01*
X101845246Y-83910819D01*
X101864099Y-83898222D01*
X101864515Y-83898050D01*
X101864836Y-83897729D01*
X101889360Y-83881343D01*
X101912363Y-83850286D01*
X102906974Y-82857409D01*
X102931343Y-82839360D01*
X102935924Y-82828510D01*
X102944259Y-82820189D01*
X103232467Y-82126107D01*
X103524736Y-81433829D01*
X103524816Y-81422053D01*
X103529333Y-81411175D01*
X103529771Y-80909383D01*
X111059769Y-80909383D01*
X111262582Y-81400229D01*
X111506000Y-81644072D01*
X111506000Y-91076120D01*
X111263902Y-91317796D01*
X111060232Y-91808287D01*
X111059769Y-92339383D01*
X111262582Y-92830229D01*
X111637796Y-93206098D01*
X112128287Y-93409768D01*
X112659383Y-93410231D01*
X113150229Y-93207418D01*
X113526098Y-92832204D01*
X113665091Y-92497473D01*
X113802582Y-92830229D01*
X114177796Y-93206098D01*
X114668287Y-93409768D01*
X115199383Y-93410231D01*
X115690229Y-93207418D01*
X116066098Y-92832204D01*
X116269768Y-92341713D01*
X116270231Y-91810617D01*
X116067418Y-91319771D01*
X115824000Y-91075928D01*
X115824000Y-86995000D01*
X117348000Y-86995000D01*
X117348000Y-97155000D01*
X117356685Y-97201159D01*
X117383965Y-97243553D01*
X117425590Y-97271994D01*
X117475000Y-97282000D01*
X127635000Y-97282000D01*
X127681159Y-97273315D01*
X127723553Y-97246035D01*
X127751994Y-97204410D01*
X127762000Y-97155000D01*
X127762000Y-93690696D01*
X127979181Y-94225246D01*
X127991778Y-94244099D01*
X127991950Y-94244515D01*
X127992271Y-94244836D01*
X128008657Y-94269360D01*
X128039714Y-94292363D01*
X129032591Y-95286974D01*
X129050640Y-95311343D01*
X129061490Y-95315924D01*
X129069811Y-95324259D01*
X129763893Y-95612467D01*
X130456171Y-95904736D01*
X130467947Y-95904816D01*
X130478825Y-95909333D01*
X131230352Y-95909989D01*
X131981793Y-95915087D01*
X131992705Y-95910654D01*
X132004482Y-95910664D01*
X132698998Y-95623696D01*
X133395246Y-95340819D01*
X133414099Y-95328222D01*
X133414515Y-95328050D01*
X133414836Y-95327729D01*
X133439360Y-95311343D01*
X133462363Y-95280286D01*
X134456974Y-94287409D01*
X134481343Y-94269360D01*
X134485924Y-94258510D01*
X134494259Y-94250189D01*
X134782467Y-93556107D01*
X135074736Y-92863829D01*
X135074816Y-92852053D01*
X135079333Y-92841175D01*
X135079989Y-92089648D01*
X135085087Y-91338207D01*
X135080654Y-91327295D01*
X135080664Y-91315518D01*
X134793696Y-90621002D01*
X134510819Y-89924754D01*
X134498222Y-89905901D01*
X134498050Y-89905485D01*
X134497729Y-89905164D01*
X134481343Y-89880640D01*
X134450286Y-89857637D01*
X133457409Y-88863026D01*
X133439360Y-88838657D01*
X133428510Y-88834076D01*
X133420189Y-88825741D01*
X132726107Y-88537533D01*
X132033829Y-88245264D01*
X132022053Y-88245184D01*
X132011175Y-88240667D01*
X131259648Y-88240011D01*
X130508207Y-88234913D01*
X130497295Y-88239346D01*
X130485518Y-88239336D01*
X129791002Y-88526304D01*
X129094754Y-88809181D01*
X129075901Y-88821778D01*
X129075485Y-88821950D01*
X129075164Y-88822271D01*
X129050640Y-88838657D01*
X129027637Y-88869714D01*
X128033026Y-89862591D01*
X128008657Y-89880640D01*
X128004076Y-89891490D01*
X127995741Y-89899811D01*
X127762000Y-90462722D01*
X127762000Y-86995000D01*
X127753315Y-86948841D01*
X127726035Y-86906447D01*
X127684410Y-86878006D01*
X127635000Y-86868000D01*
X117475000Y-86868000D01*
X117428841Y-86876685D01*
X117386447Y-86903965D01*
X117358006Y-86945590D01*
X117348000Y-86995000D01*
X115824000Y-86995000D01*
X115824000Y-81643880D01*
X116066098Y-81402204D01*
X116269768Y-80911713D01*
X116270231Y-80380617D01*
X116067418Y-79889771D01*
X115692204Y-79513902D01*
X115201713Y-79310232D01*
X114670617Y-79309769D01*
X114179771Y-79512582D01*
X113803902Y-79887796D01*
X113664909Y-80222527D01*
X113527418Y-79889771D01*
X113152204Y-79513902D01*
X112661713Y-79310232D01*
X112130617Y-79309769D01*
X111639771Y-79512582D01*
X111263902Y-79887796D01*
X111060232Y-80378287D01*
X111059769Y-80909383D01*
X103529771Y-80909383D01*
X103529989Y-80659648D01*
X103535087Y-79908207D01*
X103530654Y-79897295D01*
X103530664Y-79885518D01*
X103243696Y-79191002D01*
X102960819Y-78494754D01*
X102948222Y-78475901D01*
X102948050Y-78475485D01*
X102947729Y-78475164D01*
X102931343Y-78450640D01*
X102900286Y-78427637D01*
X102019188Y-77545000D01*
X135472168Y-77545000D01*
X134583026Y-78432591D01*
X134583026Y-78432591D01*
G37*
X134583026Y-78432591D02*
X134558657Y-78450640D01*
X134554076Y-78461490D01*
X134545741Y-78469811D01*
X134257533Y-79163893D01*
X133965264Y-79856171D01*
X133965184Y-79867947D01*
X133960667Y-79878825D01*
X133960011Y-80630352D01*
X133954913Y-81381793D01*
X133959346Y-81392705D01*
X133959336Y-81404482D01*
X134246304Y-82098998D01*
X134529181Y-82795246D01*
X134541778Y-82814099D01*
X134541950Y-82814515D01*
X134542271Y-82814836D01*
X134558657Y-82839360D01*
X134589714Y-82862363D01*
X135582591Y-83856974D01*
X135600640Y-83881343D01*
X135611490Y-83885924D01*
X135619811Y-83894259D01*
X136313893Y-84182467D01*
X137006171Y-84474736D01*
X137017947Y-84474816D01*
X137028825Y-84479333D01*
X137780352Y-84479989D01*
X138531793Y-84485087D01*
X138542705Y-84480654D01*
X138554482Y-84480664D01*
X139248998Y-84193696D01*
X139945246Y-83910819D01*
X139964099Y-83898222D01*
X139964515Y-83898050D01*
X139964836Y-83897729D01*
X139989360Y-83881343D01*
X140012363Y-83850286D01*
X140895000Y-82969188D01*
X140895000Y-101182168D01*
X140007409Y-100293026D01*
X139989360Y-100268657D01*
X139978510Y-100264076D01*
X139970189Y-100255741D01*
X139276107Y-99967533D01*
X138583829Y-99675264D01*
X138572053Y-99675184D01*
X138561175Y-99670667D01*
X137809648Y-99670011D01*
X137058207Y-99664913D01*
X137047295Y-99669346D01*
X137035518Y-99669336D01*
X136341002Y-99956304D01*
X135644754Y-100239181D01*
X135625901Y-100251778D01*
X135625485Y-100251950D01*
X135625164Y-100252271D01*
X135600640Y-100268657D01*
X135577637Y-100299714D01*
X134583026Y-101292591D01*
X134558657Y-101310640D01*
X134554076Y-101321490D01*
X134545741Y-101329811D01*
X134257533Y-102023893D01*
X133965264Y-102716171D01*
X133965184Y-102727947D01*
X133960667Y-102738825D01*
X133960011Y-103490352D01*
X133954913Y-104241793D01*
X133959346Y-104252705D01*
X133959336Y-104264482D01*
X134246304Y-104958998D01*
X134529181Y-105655246D01*
X134541778Y-105674099D01*
X134541950Y-105674515D01*
X134542271Y-105674836D01*
X134558657Y-105699360D01*
X134589714Y-105722363D01*
X135470812Y-106605000D01*
X102017832Y-106605000D01*
X102906974Y-105717409D01*
X102931343Y-105699360D01*
X102935924Y-105688510D01*
X102944259Y-105680189D01*
X103232467Y-104986107D01*
X103524736Y-104293829D01*
X103524816Y-104282053D01*
X103529333Y-104271175D01*
X103529989Y-103519648D01*
X103535087Y-102768207D01*
X103530654Y-102757295D01*
X103530664Y-102745518D01*
X103243696Y-102051002D01*
X102960819Y-101354754D01*
X102948222Y-101335901D01*
X102948050Y-101335485D01*
X102947729Y-101335164D01*
X102931343Y-101310640D01*
X102900286Y-101287637D01*
X101907409Y-100293026D01*
X101889360Y-100268657D01*
X101878510Y-100264076D01*
X101870189Y-100255741D01*
X101176107Y-99967533D01*
X100483829Y-99675264D01*
X100472053Y-99675184D01*
X100461175Y-99670667D01*
X99709648Y-99670011D01*
X98958207Y-99664913D01*
X98947295Y-99669346D01*
X98935518Y-99669336D01*
X98241002Y-99956304D01*
X97544754Y-100239181D01*
X97525901Y-100251778D01*
X97525485Y-100251950D01*
X97525164Y-100252271D01*
X97500640Y-100268657D01*
X97477637Y-100299714D01*
X96595000Y-101180812D01*
X96595000Y-92811793D01*
X102404913Y-92811793D01*
X102409346Y-92822705D01*
X102409336Y-92834482D01*
X102696304Y-93528998D01*
X102979181Y-94225246D01*
X102991778Y-94244099D01*
X102991950Y-94244515D01*
X102992271Y-94244836D01*
X103008657Y-94269360D01*
X103039714Y-94292363D01*
X104032591Y-95286974D01*
X104050640Y-95311343D01*
X104061490Y-95315924D01*
X104069811Y-95324259D01*
X104763893Y-95612467D01*
X105456171Y-95904736D01*
X105467947Y-95904816D01*
X105478825Y-95909333D01*
X106230352Y-95909989D01*
X106981793Y-95915087D01*
X106992705Y-95910654D01*
X107004482Y-95910664D01*
X107698998Y-95623696D01*
X108395246Y-95340819D01*
X108414099Y-95328222D01*
X108414515Y-95328050D01*
X108414836Y-95327729D01*
X108439360Y-95311343D01*
X108462363Y-95280286D01*
X109456974Y-94287409D01*
X109481343Y-94269360D01*
X109485924Y-94258510D01*
X109494259Y-94250189D01*
X109782467Y-93556107D01*
X110074736Y-92863829D01*
X110074816Y-92852053D01*
X110079333Y-92841175D01*
X110079989Y-92089648D01*
X110085087Y-91338207D01*
X110080654Y-91327295D01*
X110080664Y-91315518D01*
X109793696Y-90621002D01*
X109510819Y-89924754D01*
X109498222Y-89905901D01*
X109498050Y-89905485D01*
X109497729Y-89905164D01*
X109481343Y-89880640D01*
X109450286Y-89857637D01*
X108457409Y-88863026D01*
X108439360Y-88838657D01*
X108428510Y-88834076D01*
X108420189Y-88825741D01*
X107726107Y-88537533D01*
X107033829Y-88245264D01*
X107022053Y-88245184D01*
X107011175Y-88240667D01*
X106259648Y-88240011D01*
X105508207Y-88234913D01*
X105497295Y-88239346D01*
X105485518Y-88239336D01*
X104791002Y-88526304D01*
X104094754Y-88809181D01*
X104075901Y-88821778D01*
X104075485Y-88821950D01*
X104075164Y-88822271D01*
X104050640Y-88838657D01*
X104027637Y-88869714D01*
X103033026Y-89862591D01*
X103008657Y-89880640D01*
X103004076Y-89891490D01*
X102995741Y-89899811D01*
X102707533Y-90593893D01*
X102415264Y-91286171D01*
X102415184Y-91297947D01*
X102410667Y-91308825D01*
X102410011Y-92060352D01*
X102404913Y-92811793D01*
X96595000Y-92811793D01*
X96595000Y-82967832D01*
X97482591Y-83856974D01*
X97500640Y-83881343D01*
X97511490Y-83885924D01*
X97519811Y-83894259D01*
X98213893Y-84182467D01*
X98906171Y-84474736D01*
X98917947Y-84474816D01*
X98928825Y-84479333D01*
X99680352Y-84479989D01*
X100431793Y-84485087D01*
X100442705Y-84480654D01*
X100454482Y-84480664D01*
X101148998Y-84193696D01*
X101845246Y-83910819D01*
X101864099Y-83898222D01*
X101864515Y-83898050D01*
X101864836Y-83897729D01*
X101889360Y-83881343D01*
X101912363Y-83850286D01*
X102906974Y-82857409D01*
X102931343Y-82839360D01*
X102935924Y-82828510D01*
X102944259Y-82820189D01*
X103232467Y-82126107D01*
X103524736Y-81433829D01*
X103524816Y-81422053D01*
X103529333Y-81411175D01*
X103529771Y-80909383D01*
X111059769Y-80909383D01*
X111262582Y-81400229D01*
X111506000Y-81644072D01*
X111506000Y-91076120D01*
X111263902Y-91317796D01*
X111060232Y-91808287D01*
X111059769Y-92339383D01*
X111262582Y-92830229D01*
X111637796Y-93206098D01*
X112128287Y-93409768D01*
X112659383Y-93410231D01*
X113150229Y-93207418D01*
X113526098Y-92832204D01*
X113665091Y-92497473D01*
X113802582Y-92830229D01*
X114177796Y-93206098D01*
X114668287Y-93409768D01*
X115199383Y-93410231D01*
X115690229Y-93207418D01*
X116066098Y-92832204D01*
X116269768Y-92341713D01*
X116270231Y-91810617D01*
X116067418Y-91319771D01*
X115824000Y-91075928D01*
X115824000Y-86995000D01*
X117348000Y-86995000D01*
X117348000Y-97155000D01*
X117356685Y-97201159D01*
X117383965Y-97243553D01*
X117425590Y-97271994D01*
X117475000Y-97282000D01*
X127635000Y-97282000D01*
X127681159Y-97273315D01*
X127723553Y-97246035D01*
X127751994Y-97204410D01*
X127762000Y-97155000D01*
X127762000Y-93690696D01*
X127979181Y-94225246D01*
X127991778Y-94244099D01*
X127991950Y-94244515D01*
X127992271Y-94244836D01*
X128008657Y-94269360D01*
X128039714Y-94292363D01*
X129032591Y-95286974D01*
X129050640Y-95311343D01*
X129061490Y-95315924D01*
X129069811Y-95324259D01*
X129763893Y-95612467D01*
X130456171Y-95904736D01*
X130467947Y-95904816D01*
X130478825Y-95909333D01*
X131230352Y-95909989D01*
X131981793Y-95915087D01*
X131992705Y-95910654D01*
X132004482Y-95910664D01*
X132698998Y-95623696D01*
X133395246Y-95340819D01*
X133414099Y-95328222D01*
X133414515Y-95328050D01*
X133414836Y-95327729D01*
X133439360Y-95311343D01*
X133462363Y-95280286D01*
X134456974Y-94287409D01*
X134481343Y-94269360D01*
X134485924Y-94258510D01*
X134494259Y-94250189D01*
X134782467Y-93556107D01*
X135074736Y-92863829D01*
X135074816Y-92852053D01*
X135079333Y-92841175D01*
X135079989Y-92089648D01*
X135085087Y-91338207D01*
X135080654Y-91327295D01*
X135080664Y-91315518D01*
X134793696Y-90621002D01*
X134510819Y-89924754D01*
X134498222Y-89905901D01*
X134498050Y-89905485D01*
X134497729Y-89905164D01*
X134481343Y-89880640D01*
X134450286Y-89857637D01*
X133457409Y-88863026D01*
X133439360Y-88838657D01*
X133428510Y-88834076D01*
X133420189Y-88825741D01*
X132726107Y-88537533D01*
X132033829Y-88245264D01*
X132022053Y-88245184D01*
X132011175Y-88240667D01*
X131259648Y-88240011D01*
X130508207Y-88234913D01*
X130497295Y-88239346D01*
X130485518Y-88239336D01*
X129791002Y-88526304D01*
X129094754Y-88809181D01*
X129075901Y-88821778D01*
X129075485Y-88821950D01*
X129075164Y-88822271D01*
X129050640Y-88838657D01*
X129027637Y-88869714D01*
X128033026Y-89862591D01*
X128008657Y-89880640D01*
X128004076Y-89891490D01*
X127995741Y-89899811D01*
X127762000Y-90462722D01*
X127762000Y-86995000D01*
X127753315Y-86948841D01*
X127726035Y-86906447D01*
X127684410Y-86878006D01*
X127635000Y-86868000D01*
X117475000Y-86868000D01*
X117428841Y-86876685D01*
X117386447Y-86903965D01*
X117358006Y-86945590D01*
X117348000Y-86995000D01*
X115824000Y-86995000D01*
X115824000Y-81643880D01*
X116066098Y-81402204D01*
X116269768Y-80911713D01*
X116270231Y-80380617D01*
X116067418Y-79889771D01*
X115692204Y-79513902D01*
X115201713Y-79310232D01*
X114670617Y-79309769D01*
X114179771Y-79512582D01*
X113803902Y-79887796D01*
X113664909Y-80222527D01*
X113527418Y-79889771D01*
X113152204Y-79513902D01*
X112661713Y-79310232D01*
X112130617Y-79309769D01*
X111639771Y-79512582D01*
X111263902Y-79887796D01*
X111060232Y-80378287D01*
X111059769Y-80909383D01*
X103529771Y-80909383D01*
X103529989Y-80659648D01*
X103535087Y-79908207D01*
X103530654Y-79897295D01*
X103530664Y-79885518D01*
X103243696Y-79191002D01*
X102960819Y-78494754D01*
X102948222Y-78475901D01*
X102948050Y-78475485D01*
X102947729Y-78475164D01*
X102931343Y-78450640D01*
X102900286Y-78427637D01*
X102019188Y-77545000D01*
X135472168Y-77545000D01*
X134583026Y-78432591D01*
G36*
X113802582Y-81400229D02*
X114046000Y-81644072D01*
X114046000Y-91076120D01*
X113803902Y-91317796D01*
X113664909Y-91652527D01*
X113527418Y-91319771D01*
X113284000Y-91075928D01*
X113284000Y-81643880D01*
X113526098Y-81402204D01*
X113665091Y-81067473D01*
X113802582Y-81400229D01*
X113802582Y-81400229D01*
G37*
X113802582Y-81400229D02*
X114046000Y-81644072D01*
X114046000Y-91076120D01*
X113803902Y-91317796D01*
X113664909Y-91652527D01*
X113527418Y-91319771D01*
X113284000Y-91075928D01*
X113284000Y-81643880D01*
X113526098Y-81402204D01*
X113665091Y-81067473D01*
X113802582Y-81400229D01*
G36*
X140895000Y-78322168D02*
X140119188Y-77545000D01*
X140895000Y-77545000D01*
X140895000Y-78322168D01*
X140895000Y-78322168D01*
G37*
X140895000Y-78322168D02*
X140119188Y-77545000D01*
X140895000Y-77545000D01*
X140895000Y-78322168D01*
G36*
X96595000Y-78320812D02*
X96595000Y-77545000D01*
X97372168Y-77545000D01*
X96595000Y-78320812D01*
X96595000Y-78320812D01*
G37*
X96595000Y-78320812D02*
X96595000Y-77545000D01*
X97372168Y-77545000D01*
X96595000Y-78320812D01*
M02*
