G04 #@! TF.FileFunction,Legend,Top*
%FSLAX46Y46*%
G04 Gerber Fmt 4.6, Leading zero omitted, Abs format (unit mm)*
G04 Created by KiCad (PCBNEW 4.0.4+e1-6308~48~ubuntu15.10.1-stable) date Tue Feb  7 13:57:39 2017*
%MOMM*%
%LPD*%
G01*
G04 APERTURE LIST*
%ADD10C,0.100000*%
%ADD11C,0.150000*%
%ADD12C,0.120000*%
G04 APERTURE END LIST*
D10*
D11*
X125730000Y-45720000D02*
X123190000Y-45720000D01*
X125730000Y-44450000D02*
X125730000Y-50800000D01*
X125730000Y-50800000D02*
X123825000Y-50800000D01*
X123825000Y-50800000D02*
X123190000Y-50800000D01*
X123190000Y-50800000D02*
X123190000Y-44450000D01*
X130810000Y-45720000D02*
X128270000Y-45720000D01*
X130810000Y-44450000D02*
X130810000Y-50800000D01*
X130810000Y-50800000D02*
X128270000Y-50800000D01*
X128270000Y-50800000D02*
X128270000Y-44450000D01*
X135890000Y-45720000D02*
X133350000Y-45720000D01*
X135890000Y-44450000D02*
X135890000Y-50800000D01*
X135890000Y-50800000D02*
X133350000Y-50800000D01*
X133350000Y-50800000D02*
X133350000Y-44450000D01*
X137160000Y-54610000D02*
X137160000Y-44450000D01*
X121920000Y-54610000D02*
X121920000Y-44450000D01*
X121920000Y-52070000D02*
X137160000Y-52070000D01*
X137160000Y-54610000D02*
X121920000Y-54610000D01*
X121920000Y-44450000D02*
X137160000Y-44450000D01*
D12*
X92600000Y-105330000D02*
G75*
G03X92600000Y-105330000I-12590000J0D01*
G01*
X92560000Y-105330000D02*
X67460000Y-105330000D01*
X92560000Y-105370000D02*
X67460000Y-105370000D01*
X92560000Y-105410000D02*
X67460000Y-105410000D01*
X92560000Y-105450000D02*
X67460000Y-105450000D01*
X92559000Y-105490000D02*
X67461000Y-105490000D01*
X92559000Y-105530000D02*
X67461000Y-105530000D01*
X92558000Y-105570000D02*
X67462000Y-105570000D01*
X92557000Y-105610000D02*
X67463000Y-105610000D01*
X92556000Y-105650000D02*
X67464000Y-105650000D01*
X92555000Y-105690000D02*
X67465000Y-105690000D01*
X92554000Y-105730000D02*
X67466000Y-105730000D01*
X92553000Y-105770000D02*
X67467000Y-105770000D01*
X92551000Y-105810000D02*
X67469000Y-105810000D01*
X92550000Y-105850000D02*
X67470000Y-105850000D01*
X92548000Y-105890000D02*
X67472000Y-105890000D01*
X92546000Y-105930000D02*
X67474000Y-105930000D01*
X92544000Y-105970000D02*
X67476000Y-105970000D01*
X92542000Y-106010000D02*
X67478000Y-106010000D01*
X92540000Y-106051000D02*
X67480000Y-106051000D01*
X92538000Y-106091000D02*
X67482000Y-106091000D01*
X92535000Y-106131000D02*
X67485000Y-106131000D01*
X92532000Y-106171000D02*
X67488000Y-106171000D01*
X92530000Y-106211000D02*
X67490000Y-106211000D01*
X92527000Y-106251000D02*
X67493000Y-106251000D01*
X92524000Y-106291000D02*
X67496000Y-106291000D01*
X92521000Y-106331000D02*
X67499000Y-106331000D01*
X92517000Y-106371000D02*
X67503000Y-106371000D01*
X92514000Y-106411000D02*
X67506000Y-106411000D01*
X92511000Y-106451000D02*
X67509000Y-106451000D01*
X92507000Y-106491000D02*
X67513000Y-106491000D01*
X92503000Y-106531000D02*
X67517000Y-106531000D01*
X92499000Y-106571000D02*
X67521000Y-106571000D01*
X92495000Y-106611000D02*
X67525000Y-106611000D01*
X92491000Y-106651000D02*
X67529000Y-106651000D01*
X92487000Y-106691000D02*
X67533000Y-106691000D01*
X92482000Y-106731000D02*
X67538000Y-106731000D01*
X92478000Y-106771000D02*
X67542000Y-106771000D01*
X92473000Y-106811000D02*
X67547000Y-106811000D01*
X92468000Y-106851000D02*
X67552000Y-106851000D01*
X92463000Y-106891000D02*
X67557000Y-106891000D01*
X92458000Y-106931000D02*
X67562000Y-106931000D01*
X92453000Y-106971000D02*
X67567000Y-106971000D01*
X92448000Y-107011000D02*
X67572000Y-107011000D01*
X92442000Y-107051000D02*
X67578000Y-107051000D01*
X92437000Y-107091000D02*
X67583000Y-107091000D01*
X92431000Y-107131000D02*
X67589000Y-107131000D01*
X92425000Y-107171000D02*
X67595000Y-107171000D01*
X92419000Y-107211000D02*
X67601000Y-107211000D01*
X92413000Y-107251000D02*
X67607000Y-107251000D01*
X92407000Y-107291000D02*
X67613000Y-107291000D01*
X92401000Y-107331000D02*
X67619000Y-107331000D01*
X92394000Y-107371000D02*
X67626000Y-107371000D01*
X92387000Y-107411000D02*
X67633000Y-107411000D01*
X92381000Y-107451000D02*
X67639000Y-107451000D01*
X92374000Y-107491000D02*
X67646000Y-107491000D01*
X92367000Y-107531000D02*
X67653000Y-107531000D01*
X92360000Y-107571000D02*
X67660000Y-107571000D01*
X92352000Y-107611000D02*
X67668000Y-107611000D01*
X92345000Y-107651000D02*
X67675000Y-107651000D01*
X92337000Y-107691000D02*
X67683000Y-107691000D01*
X92330000Y-107731000D02*
X67690000Y-107731000D01*
X92322000Y-107771000D02*
X67698000Y-107771000D01*
X92314000Y-107811000D02*
X67706000Y-107811000D01*
X92306000Y-107851000D02*
X67714000Y-107851000D01*
X92297000Y-107891000D02*
X67723000Y-107891000D01*
X92289000Y-107931000D02*
X67731000Y-107931000D01*
X92281000Y-107971000D02*
X67739000Y-107971000D01*
X92272000Y-108011000D02*
X67748000Y-108011000D01*
X92263000Y-108051000D02*
X67757000Y-108051000D01*
X92254000Y-108091000D02*
X67766000Y-108091000D01*
X92245000Y-108131000D02*
X67775000Y-108131000D01*
X92236000Y-108171000D02*
X82190000Y-108171000D01*
X77830000Y-108171000D02*
X67784000Y-108171000D01*
X92227000Y-108211000D02*
X82190000Y-108211000D01*
X77830000Y-108211000D02*
X67793000Y-108211000D01*
X92217000Y-108251000D02*
X82190000Y-108251000D01*
X77830000Y-108251000D02*
X67803000Y-108251000D01*
X92208000Y-108291000D02*
X82190000Y-108291000D01*
X77830000Y-108291000D02*
X67812000Y-108291000D01*
X92198000Y-108331000D02*
X82190000Y-108331000D01*
X77830000Y-108331000D02*
X67822000Y-108331000D01*
X92188000Y-108371000D02*
X82190000Y-108371000D01*
X77830000Y-108371000D02*
X67832000Y-108371000D01*
X92178000Y-108411000D02*
X82190000Y-108411000D01*
X77830000Y-108411000D02*
X67842000Y-108411000D01*
X92168000Y-108451000D02*
X82190000Y-108451000D01*
X77830000Y-108451000D02*
X67852000Y-108451000D01*
X92157000Y-108491000D02*
X82190000Y-108491000D01*
X77830000Y-108491000D02*
X67863000Y-108491000D01*
X92147000Y-108531000D02*
X82190000Y-108531000D01*
X77830000Y-108531000D02*
X67873000Y-108531000D01*
X92136000Y-108571000D02*
X82190000Y-108571000D01*
X77830000Y-108571000D02*
X67884000Y-108571000D01*
X92126000Y-108611000D02*
X82190000Y-108611000D01*
X77830000Y-108611000D02*
X67894000Y-108611000D01*
X92115000Y-108651000D02*
X82190000Y-108651000D01*
X77830000Y-108651000D02*
X67905000Y-108651000D01*
X92104000Y-108691000D02*
X82190000Y-108691000D01*
X77830000Y-108691000D02*
X67916000Y-108691000D01*
X92093000Y-108731000D02*
X82190000Y-108731000D01*
X77830000Y-108731000D02*
X67927000Y-108731000D01*
X92081000Y-108771000D02*
X82190000Y-108771000D01*
X77830000Y-108771000D02*
X67939000Y-108771000D01*
X92070000Y-108811000D02*
X82190000Y-108811000D01*
X77830000Y-108811000D02*
X67950000Y-108811000D01*
X92058000Y-108851000D02*
X82190000Y-108851000D01*
X77830000Y-108851000D02*
X67962000Y-108851000D01*
X92047000Y-108891000D02*
X82190000Y-108891000D01*
X77830000Y-108891000D02*
X67973000Y-108891000D01*
X92035000Y-108931000D02*
X82190000Y-108931000D01*
X77830000Y-108931000D02*
X67985000Y-108931000D01*
X92023000Y-108971000D02*
X82190000Y-108971000D01*
X77830000Y-108971000D02*
X67997000Y-108971000D01*
X92011000Y-109011000D02*
X82190000Y-109011000D01*
X77830000Y-109011000D02*
X68009000Y-109011000D01*
X91998000Y-109051000D02*
X82190000Y-109051000D01*
X77830000Y-109051000D02*
X68022000Y-109051000D01*
X91986000Y-109091000D02*
X82190000Y-109091000D01*
X77830000Y-109091000D02*
X68034000Y-109091000D01*
X91973000Y-109131000D02*
X82190000Y-109131000D01*
X77830000Y-109131000D02*
X68047000Y-109131000D01*
X91961000Y-109171000D02*
X82190000Y-109171000D01*
X77830000Y-109171000D02*
X68059000Y-109171000D01*
X91948000Y-109211000D02*
X82190000Y-109211000D01*
X77830000Y-109211000D02*
X68072000Y-109211000D01*
X91935000Y-109251000D02*
X82190000Y-109251000D01*
X77830000Y-109251000D02*
X68085000Y-109251000D01*
X91922000Y-109291000D02*
X82190000Y-109291000D01*
X77830000Y-109291000D02*
X68098000Y-109291000D01*
X91908000Y-109331000D02*
X82190000Y-109331000D01*
X77830000Y-109331000D02*
X68112000Y-109331000D01*
X91895000Y-109371000D02*
X82190000Y-109371000D01*
X77830000Y-109371000D02*
X68125000Y-109371000D01*
X91881000Y-109411000D02*
X82190000Y-109411000D01*
X77830000Y-109411000D02*
X68139000Y-109411000D01*
X91867000Y-109451000D02*
X82190000Y-109451000D01*
X77830000Y-109451000D02*
X68153000Y-109451000D01*
X91853000Y-109491000D02*
X82190000Y-109491000D01*
X77830000Y-109491000D02*
X68167000Y-109491000D01*
X91839000Y-109531000D02*
X82190000Y-109531000D01*
X77830000Y-109531000D02*
X68181000Y-109531000D01*
X91825000Y-109571000D02*
X82190000Y-109571000D01*
X77830000Y-109571000D02*
X68195000Y-109571000D01*
X91811000Y-109611000D02*
X82190000Y-109611000D01*
X77830000Y-109611000D02*
X68209000Y-109611000D01*
X91796000Y-109651000D02*
X82190000Y-109651000D01*
X77830000Y-109651000D02*
X68224000Y-109651000D01*
X91781000Y-109691000D02*
X82190000Y-109691000D01*
X77830000Y-109691000D02*
X68239000Y-109691000D01*
X91767000Y-109731000D02*
X82190000Y-109731000D01*
X77830000Y-109731000D02*
X68253000Y-109731000D01*
X91752000Y-109771000D02*
X82190000Y-109771000D01*
X77830000Y-109771000D02*
X68268000Y-109771000D01*
X91736000Y-109811000D02*
X82190000Y-109811000D01*
X77830000Y-109811000D02*
X68284000Y-109811000D01*
X91721000Y-109851000D02*
X82190000Y-109851000D01*
X77830000Y-109851000D02*
X68299000Y-109851000D01*
X91706000Y-109891000D02*
X82190000Y-109891000D01*
X77830000Y-109891000D02*
X68314000Y-109891000D01*
X91690000Y-109931000D02*
X82190000Y-109931000D01*
X77830000Y-109931000D02*
X68330000Y-109931000D01*
X91674000Y-109971000D02*
X82190000Y-109971000D01*
X77830000Y-109971000D02*
X68346000Y-109971000D01*
X91658000Y-110011000D02*
X82190000Y-110011000D01*
X77830000Y-110011000D02*
X68362000Y-110011000D01*
X91642000Y-110051000D02*
X82190000Y-110051000D01*
X77830000Y-110051000D02*
X68378000Y-110051000D01*
X91626000Y-110091000D02*
X82190000Y-110091000D01*
X77830000Y-110091000D02*
X68394000Y-110091000D01*
X91610000Y-110131000D02*
X82190000Y-110131000D01*
X77830000Y-110131000D02*
X68410000Y-110131000D01*
X91593000Y-110171000D02*
X82190000Y-110171000D01*
X77830000Y-110171000D02*
X68427000Y-110171000D01*
X91576000Y-110211000D02*
X82190000Y-110211000D01*
X77830000Y-110211000D02*
X68444000Y-110211000D01*
X91559000Y-110251000D02*
X82190000Y-110251000D01*
X77830000Y-110251000D02*
X68461000Y-110251000D01*
X91542000Y-110291000D02*
X82190000Y-110291000D01*
X77830000Y-110291000D02*
X68478000Y-110291000D01*
X91525000Y-110331000D02*
X82190000Y-110331000D01*
X77830000Y-110331000D02*
X68495000Y-110331000D01*
X91508000Y-110371000D02*
X82190000Y-110371000D01*
X77830000Y-110371000D02*
X68512000Y-110371000D01*
X91490000Y-110411000D02*
X82190000Y-110411000D01*
X77830000Y-110411000D02*
X68530000Y-110411000D01*
X91472000Y-110451000D02*
X82190000Y-110451000D01*
X77830000Y-110451000D02*
X68548000Y-110451000D01*
X91455000Y-110491000D02*
X82190000Y-110491000D01*
X77830000Y-110491000D02*
X68565000Y-110491000D01*
X91436000Y-110531000D02*
X82190000Y-110531000D01*
X77830000Y-110531000D02*
X68584000Y-110531000D01*
X91418000Y-110571000D02*
X82190000Y-110571000D01*
X77830000Y-110571000D02*
X68602000Y-110571000D01*
X91400000Y-110611000D02*
X82190000Y-110611000D01*
X77830000Y-110611000D02*
X68620000Y-110611000D01*
X91381000Y-110651000D02*
X82190000Y-110651000D01*
X77830000Y-110651000D02*
X68639000Y-110651000D01*
X91363000Y-110691000D02*
X82190000Y-110691000D01*
X77830000Y-110691000D02*
X68657000Y-110691000D01*
X91344000Y-110731000D02*
X82190000Y-110731000D01*
X77830000Y-110731000D02*
X68676000Y-110731000D01*
X91325000Y-110771000D02*
X82190000Y-110771000D01*
X77830000Y-110771000D02*
X68695000Y-110771000D01*
X91305000Y-110811000D02*
X82190000Y-110811000D01*
X77830000Y-110811000D02*
X68715000Y-110811000D01*
X91286000Y-110851000D02*
X82190000Y-110851000D01*
X77830000Y-110851000D02*
X68734000Y-110851000D01*
X91266000Y-110891000D02*
X82190000Y-110891000D01*
X77830000Y-110891000D02*
X68754000Y-110891000D01*
X91246000Y-110931000D02*
X82190000Y-110931000D01*
X77830000Y-110931000D02*
X68774000Y-110931000D01*
X91227000Y-110971000D02*
X82190000Y-110971000D01*
X77830000Y-110971000D02*
X68793000Y-110971000D01*
X91206000Y-111011000D02*
X82190000Y-111011000D01*
X77830000Y-111011000D02*
X68814000Y-111011000D01*
X91186000Y-111051000D02*
X82190000Y-111051000D01*
X77830000Y-111051000D02*
X68834000Y-111051000D01*
X91166000Y-111091000D02*
X82190000Y-111091000D01*
X77830000Y-111091000D02*
X68854000Y-111091000D01*
X91145000Y-111131000D02*
X82190000Y-111131000D01*
X77830000Y-111131000D02*
X68875000Y-111131000D01*
X91124000Y-111171000D02*
X82190000Y-111171000D01*
X77830000Y-111171000D02*
X68896000Y-111171000D01*
X91103000Y-111211000D02*
X82190000Y-111211000D01*
X77830000Y-111211000D02*
X68917000Y-111211000D01*
X91082000Y-111251000D02*
X82190000Y-111251000D01*
X77830000Y-111251000D02*
X68938000Y-111251000D01*
X91060000Y-111291000D02*
X82190000Y-111291000D01*
X77830000Y-111291000D02*
X68960000Y-111291000D01*
X91039000Y-111331000D02*
X82190000Y-111331000D01*
X77830000Y-111331000D02*
X68981000Y-111331000D01*
X91017000Y-111371000D02*
X82190000Y-111371000D01*
X77830000Y-111371000D02*
X69003000Y-111371000D01*
X90995000Y-111411000D02*
X82190000Y-111411000D01*
X77830000Y-111411000D02*
X69025000Y-111411000D01*
X90973000Y-111451000D02*
X82190000Y-111451000D01*
X77830000Y-111451000D02*
X69047000Y-111451000D01*
X90951000Y-111491000D02*
X82190000Y-111491000D01*
X77830000Y-111491000D02*
X69069000Y-111491000D01*
X90928000Y-111531000D02*
X82190000Y-111531000D01*
X77830000Y-111531000D02*
X69092000Y-111531000D01*
X90905000Y-111571000D02*
X82190000Y-111571000D01*
X77830000Y-111571000D02*
X69115000Y-111571000D01*
X90882000Y-111611000D02*
X82190000Y-111611000D01*
X77830000Y-111611000D02*
X69138000Y-111611000D01*
X90859000Y-111651000D02*
X82190000Y-111651000D01*
X77830000Y-111651000D02*
X69161000Y-111651000D01*
X90836000Y-111691000D02*
X82190000Y-111691000D01*
X77830000Y-111691000D02*
X69184000Y-111691000D01*
X90812000Y-111731000D02*
X82190000Y-111731000D01*
X77830000Y-111731000D02*
X69208000Y-111731000D01*
X90789000Y-111771000D02*
X82190000Y-111771000D01*
X77830000Y-111771000D02*
X69231000Y-111771000D01*
X90765000Y-111811000D02*
X82190000Y-111811000D01*
X77830000Y-111811000D02*
X69255000Y-111811000D01*
X90741000Y-111851000D02*
X82190000Y-111851000D01*
X77830000Y-111851000D02*
X69279000Y-111851000D01*
X90716000Y-111891000D02*
X82190000Y-111891000D01*
X77830000Y-111891000D02*
X69304000Y-111891000D01*
X90692000Y-111931000D02*
X82190000Y-111931000D01*
X77830000Y-111931000D02*
X69328000Y-111931000D01*
X90667000Y-111971000D02*
X82190000Y-111971000D01*
X77830000Y-111971000D02*
X69353000Y-111971000D01*
X90642000Y-112011000D02*
X82190000Y-112011000D01*
X77830000Y-112011000D02*
X69378000Y-112011000D01*
X90617000Y-112051000D02*
X82190000Y-112051000D01*
X77830000Y-112051000D02*
X69403000Y-112051000D01*
X90592000Y-112091000D02*
X82190000Y-112091000D01*
X77830000Y-112091000D02*
X69428000Y-112091000D01*
X90566000Y-112131000D02*
X82190000Y-112131000D01*
X77830000Y-112131000D02*
X69454000Y-112131000D01*
X90540000Y-112171000D02*
X82190000Y-112171000D01*
X77830000Y-112171000D02*
X69480000Y-112171000D01*
X90514000Y-112211000D02*
X82190000Y-112211000D01*
X77830000Y-112211000D02*
X69506000Y-112211000D01*
X90488000Y-112251000D02*
X82190000Y-112251000D01*
X77830000Y-112251000D02*
X69532000Y-112251000D01*
X90462000Y-112291000D02*
X82190000Y-112291000D01*
X77830000Y-112291000D02*
X69558000Y-112291000D01*
X90435000Y-112331000D02*
X82190000Y-112331000D01*
X77830000Y-112331000D02*
X69585000Y-112331000D01*
X90408000Y-112371000D02*
X82190000Y-112371000D01*
X77830000Y-112371000D02*
X69612000Y-112371000D01*
X90381000Y-112411000D02*
X82190000Y-112411000D01*
X77830000Y-112411000D02*
X69639000Y-112411000D01*
X90354000Y-112451000D02*
X82190000Y-112451000D01*
X77830000Y-112451000D02*
X69666000Y-112451000D01*
X90326000Y-112491000D02*
X82190000Y-112491000D01*
X77830000Y-112491000D02*
X69694000Y-112491000D01*
X90299000Y-112531000D02*
X69721000Y-112531000D01*
X90271000Y-112571000D02*
X69749000Y-112571000D01*
X90242000Y-112611000D02*
X69778000Y-112611000D01*
X90214000Y-112651000D02*
X69806000Y-112651000D01*
X90185000Y-112691000D02*
X69835000Y-112691000D01*
X90156000Y-112731000D02*
X69864000Y-112731000D01*
X90127000Y-112771000D02*
X69893000Y-112771000D01*
X90098000Y-112811000D02*
X69922000Y-112811000D01*
X90068000Y-112851000D02*
X69952000Y-112851000D01*
X90038000Y-112891000D02*
X69982000Y-112891000D01*
X90008000Y-112931000D02*
X70012000Y-112931000D01*
X89977000Y-112971000D02*
X70043000Y-112971000D01*
X89947000Y-113011000D02*
X70073000Y-113011000D01*
X89916000Y-113051000D02*
X70104000Y-113051000D01*
X89885000Y-113091000D02*
X70135000Y-113091000D01*
X89853000Y-113131000D02*
X70167000Y-113131000D01*
X89822000Y-113171000D02*
X70198000Y-113171000D01*
X89790000Y-113211000D02*
X70230000Y-113211000D01*
X89757000Y-113251000D02*
X70263000Y-113251000D01*
X89725000Y-113291000D02*
X70295000Y-113291000D01*
X89692000Y-113331000D02*
X70328000Y-113331000D01*
X89659000Y-113371000D02*
X70361000Y-113371000D01*
X89626000Y-113411000D02*
X70394000Y-113411000D01*
X89592000Y-113451000D02*
X70428000Y-113451000D01*
X89558000Y-113491000D02*
X70462000Y-113491000D01*
X89524000Y-113530000D02*
X70496000Y-113530000D01*
X89489000Y-113570000D02*
X70531000Y-113570000D01*
X89455000Y-113610000D02*
X70565000Y-113610000D01*
X89420000Y-113650000D02*
X70600000Y-113650000D01*
X89384000Y-113690000D02*
X70636000Y-113690000D01*
X89349000Y-113730000D02*
X70671000Y-113730000D01*
X89313000Y-113770000D02*
X70707000Y-113770000D01*
X89276000Y-113810000D02*
X70744000Y-113810000D01*
X89240000Y-113850000D02*
X70780000Y-113850000D01*
X89203000Y-113890000D02*
X70817000Y-113890000D01*
X89166000Y-113930000D02*
X70854000Y-113930000D01*
X89128000Y-113970000D02*
X70892000Y-113970000D01*
X89090000Y-114010000D02*
X70930000Y-114010000D01*
X89052000Y-114050000D02*
X70968000Y-114050000D01*
X89013000Y-114090000D02*
X71007000Y-114090000D01*
X88974000Y-114130000D02*
X71046000Y-114130000D01*
X88935000Y-114170000D02*
X71085000Y-114170000D01*
X88895000Y-114210000D02*
X71125000Y-114210000D01*
X88855000Y-114250000D02*
X71165000Y-114250000D01*
X88815000Y-114290000D02*
X71205000Y-114290000D01*
X88774000Y-114330000D02*
X71246000Y-114330000D01*
X88733000Y-114370000D02*
X71287000Y-114370000D01*
X88692000Y-114410000D02*
X71328000Y-114410000D01*
X88650000Y-114450000D02*
X71370000Y-114450000D01*
X88608000Y-114490000D02*
X71412000Y-114490000D01*
X88565000Y-114530000D02*
X71455000Y-114530000D01*
X88522000Y-114570000D02*
X71498000Y-114570000D01*
X88479000Y-114610000D02*
X71541000Y-114610000D01*
X88435000Y-114650000D02*
X71585000Y-114650000D01*
X88391000Y-114690000D02*
X71629000Y-114690000D01*
X88346000Y-114730000D02*
X71674000Y-114730000D01*
X88301000Y-114770000D02*
X71719000Y-114770000D01*
X88255000Y-114810000D02*
X71765000Y-114810000D01*
X88209000Y-114850000D02*
X71811000Y-114850000D01*
X88163000Y-114890000D02*
X71857000Y-114890000D01*
X88116000Y-114930000D02*
X71904000Y-114930000D01*
X88069000Y-114970000D02*
X71951000Y-114970000D01*
X88021000Y-115010000D02*
X71999000Y-115010000D01*
X87972000Y-115050000D02*
X72048000Y-115050000D01*
X87924000Y-115090000D02*
X72096000Y-115090000D01*
X87874000Y-115130000D02*
X72146000Y-115130000D01*
X87824000Y-115170000D02*
X72196000Y-115170000D01*
X87774000Y-115210000D02*
X72246000Y-115210000D01*
X87723000Y-115250000D02*
X72297000Y-115250000D01*
X87672000Y-115290000D02*
X72348000Y-115290000D01*
X87620000Y-115330000D02*
X72400000Y-115330000D01*
X87567000Y-115370000D02*
X72453000Y-115370000D01*
X87514000Y-115410000D02*
X72506000Y-115410000D01*
X87460000Y-115450000D02*
X72560000Y-115450000D01*
X87406000Y-115490000D02*
X72614000Y-115490000D01*
X87351000Y-115530000D02*
X72669000Y-115530000D01*
X87295000Y-115570000D02*
X72725000Y-115570000D01*
X87239000Y-115610000D02*
X72781000Y-115610000D01*
X87182000Y-115650000D02*
X72838000Y-115650000D01*
X87124000Y-115690000D02*
X72896000Y-115690000D01*
X87066000Y-115730000D02*
X72954000Y-115730000D01*
X87007000Y-115770000D02*
X73013000Y-115770000D01*
X86947000Y-115810000D02*
X73073000Y-115810000D01*
X86887000Y-115850000D02*
X73133000Y-115850000D01*
X86826000Y-115890000D02*
X73194000Y-115890000D01*
X86764000Y-115930000D02*
X73256000Y-115930000D01*
X86701000Y-115970000D02*
X73319000Y-115970000D01*
X86637000Y-116010000D02*
X73383000Y-116010000D01*
X86573000Y-116050000D02*
X73447000Y-116050000D01*
X86507000Y-116090000D02*
X73513000Y-116090000D01*
X86441000Y-116130000D02*
X73579000Y-116130000D01*
X86374000Y-116170000D02*
X73646000Y-116170000D01*
X86306000Y-116210000D02*
X73714000Y-116210000D01*
X86236000Y-116250000D02*
X73784000Y-116250000D01*
X86166000Y-116290000D02*
X73854000Y-116290000D01*
X86095000Y-116330000D02*
X73925000Y-116330000D01*
X86022000Y-116370000D02*
X73998000Y-116370000D01*
X85949000Y-116410000D02*
X74071000Y-116410000D01*
X85874000Y-116450000D02*
X74146000Y-116450000D01*
X85798000Y-116490000D02*
X74222000Y-116490000D01*
X85721000Y-116530000D02*
X74299000Y-116530000D01*
X85642000Y-116570000D02*
X74378000Y-116570000D01*
X85562000Y-116610000D02*
X74458000Y-116610000D01*
X85481000Y-116650000D02*
X74539000Y-116650000D01*
X85398000Y-116690000D02*
X74622000Y-116690000D01*
X85314000Y-116730000D02*
X74706000Y-116730000D01*
X85227000Y-116770000D02*
X74793000Y-116770000D01*
X85139000Y-116810000D02*
X74881000Y-116810000D01*
X85050000Y-116850000D02*
X74970000Y-116850000D01*
X84958000Y-116890000D02*
X75062000Y-116890000D01*
X84864000Y-116930000D02*
X75156000Y-116930000D01*
X84768000Y-116970000D02*
X75252000Y-116970000D01*
X84670000Y-117010000D02*
X75350000Y-117010000D01*
X84569000Y-117050000D02*
X75451000Y-117050000D01*
X84466000Y-117090000D02*
X75554000Y-117090000D01*
X84360000Y-117130000D02*
X75660000Y-117130000D01*
X84251000Y-117170000D02*
X75769000Y-117170000D01*
X84139000Y-117210000D02*
X75881000Y-117210000D01*
X84023000Y-117250000D02*
X75997000Y-117250000D01*
X83903000Y-117290000D02*
X76117000Y-117290000D01*
X83779000Y-117330000D02*
X76241000Y-117330000D01*
X83651000Y-117370000D02*
X76369000Y-117370000D01*
X83518000Y-117410000D02*
X76502000Y-117410000D01*
X83378000Y-117450000D02*
X76642000Y-117450000D01*
X83233000Y-117490000D02*
X76787000Y-117490000D01*
X83080000Y-117530000D02*
X76940000Y-117530000D01*
X82918000Y-117570000D02*
X77102000Y-117570000D01*
X82747000Y-117610000D02*
X77273000Y-117610000D01*
X82564000Y-117650000D02*
X77456000Y-117650000D01*
X82366000Y-117690000D02*
X77654000Y-117690000D01*
X82150000Y-117730000D02*
X77870000Y-117730000D01*
X81908000Y-117770000D02*
X78112000Y-117770000D01*
X81631000Y-117810000D02*
X78389000Y-117810000D01*
X81296000Y-117850000D02*
X78724000Y-117850000D01*
X80839000Y-117890000D02*
X79181000Y-117890000D01*
X80010000Y-95130000D02*
X80010000Y-98130000D01*
X81510000Y-96630000D02*
X78510000Y-96630000D01*
X119270000Y-105330000D02*
G75*
G03X119270000Y-105330000I-12590000J0D01*
G01*
X119230000Y-105330000D02*
X94130000Y-105330000D01*
X119230000Y-105370000D02*
X94130000Y-105370000D01*
X119230000Y-105410000D02*
X94130000Y-105410000D01*
X119230000Y-105450000D02*
X94130000Y-105450000D01*
X119229000Y-105490000D02*
X94131000Y-105490000D01*
X119229000Y-105530000D02*
X94131000Y-105530000D01*
X119228000Y-105570000D02*
X94132000Y-105570000D01*
X119227000Y-105610000D02*
X94133000Y-105610000D01*
X119226000Y-105650000D02*
X94134000Y-105650000D01*
X119225000Y-105690000D02*
X94135000Y-105690000D01*
X119224000Y-105730000D02*
X94136000Y-105730000D01*
X119223000Y-105770000D02*
X94137000Y-105770000D01*
X119221000Y-105810000D02*
X94139000Y-105810000D01*
X119220000Y-105850000D02*
X94140000Y-105850000D01*
X119218000Y-105890000D02*
X94142000Y-105890000D01*
X119216000Y-105930000D02*
X94144000Y-105930000D01*
X119214000Y-105970000D02*
X94146000Y-105970000D01*
X119212000Y-106010000D02*
X94148000Y-106010000D01*
X119210000Y-106051000D02*
X94150000Y-106051000D01*
X119208000Y-106091000D02*
X94152000Y-106091000D01*
X119205000Y-106131000D02*
X94155000Y-106131000D01*
X119202000Y-106171000D02*
X94158000Y-106171000D01*
X119200000Y-106211000D02*
X94160000Y-106211000D01*
X119197000Y-106251000D02*
X94163000Y-106251000D01*
X119194000Y-106291000D02*
X94166000Y-106291000D01*
X119191000Y-106331000D02*
X94169000Y-106331000D01*
X119187000Y-106371000D02*
X94173000Y-106371000D01*
X119184000Y-106411000D02*
X94176000Y-106411000D01*
X119181000Y-106451000D02*
X94179000Y-106451000D01*
X119177000Y-106491000D02*
X94183000Y-106491000D01*
X119173000Y-106531000D02*
X94187000Y-106531000D01*
X119169000Y-106571000D02*
X94191000Y-106571000D01*
X119165000Y-106611000D02*
X94195000Y-106611000D01*
X119161000Y-106651000D02*
X94199000Y-106651000D01*
X119157000Y-106691000D02*
X94203000Y-106691000D01*
X119152000Y-106731000D02*
X94208000Y-106731000D01*
X119148000Y-106771000D02*
X94212000Y-106771000D01*
X119143000Y-106811000D02*
X94217000Y-106811000D01*
X119138000Y-106851000D02*
X94222000Y-106851000D01*
X119133000Y-106891000D02*
X94227000Y-106891000D01*
X119128000Y-106931000D02*
X94232000Y-106931000D01*
X119123000Y-106971000D02*
X94237000Y-106971000D01*
X119118000Y-107011000D02*
X94242000Y-107011000D01*
X119112000Y-107051000D02*
X94248000Y-107051000D01*
X119107000Y-107091000D02*
X94253000Y-107091000D01*
X119101000Y-107131000D02*
X94259000Y-107131000D01*
X119095000Y-107171000D02*
X94265000Y-107171000D01*
X119089000Y-107211000D02*
X94271000Y-107211000D01*
X119083000Y-107251000D02*
X94277000Y-107251000D01*
X119077000Y-107291000D02*
X94283000Y-107291000D01*
X119071000Y-107331000D02*
X94289000Y-107331000D01*
X119064000Y-107371000D02*
X94296000Y-107371000D01*
X119057000Y-107411000D02*
X94303000Y-107411000D01*
X119051000Y-107451000D02*
X94309000Y-107451000D01*
X119044000Y-107491000D02*
X94316000Y-107491000D01*
X119037000Y-107531000D02*
X94323000Y-107531000D01*
X119030000Y-107571000D02*
X94330000Y-107571000D01*
X119022000Y-107611000D02*
X94338000Y-107611000D01*
X119015000Y-107651000D02*
X94345000Y-107651000D01*
X119007000Y-107691000D02*
X94353000Y-107691000D01*
X119000000Y-107731000D02*
X94360000Y-107731000D01*
X118992000Y-107771000D02*
X94368000Y-107771000D01*
X118984000Y-107811000D02*
X94376000Y-107811000D01*
X118976000Y-107851000D02*
X94384000Y-107851000D01*
X118967000Y-107891000D02*
X94393000Y-107891000D01*
X118959000Y-107931000D02*
X94401000Y-107931000D01*
X118951000Y-107971000D02*
X94409000Y-107971000D01*
X118942000Y-108011000D02*
X94418000Y-108011000D01*
X118933000Y-108051000D02*
X94427000Y-108051000D01*
X118924000Y-108091000D02*
X94436000Y-108091000D01*
X118915000Y-108131000D02*
X94445000Y-108131000D01*
X118906000Y-108171000D02*
X108860000Y-108171000D01*
X104500000Y-108171000D02*
X94454000Y-108171000D01*
X118897000Y-108211000D02*
X108860000Y-108211000D01*
X104500000Y-108211000D02*
X94463000Y-108211000D01*
X118887000Y-108251000D02*
X108860000Y-108251000D01*
X104500000Y-108251000D02*
X94473000Y-108251000D01*
X118878000Y-108291000D02*
X108860000Y-108291000D01*
X104500000Y-108291000D02*
X94482000Y-108291000D01*
X118868000Y-108331000D02*
X108860000Y-108331000D01*
X104500000Y-108331000D02*
X94492000Y-108331000D01*
X118858000Y-108371000D02*
X108860000Y-108371000D01*
X104500000Y-108371000D02*
X94502000Y-108371000D01*
X118848000Y-108411000D02*
X108860000Y-108411000D01*
X104500000Y-108411000D02*
X94512000Y-108411000D01*
X118838000Y-108451000D02*
X108860000Y-108451000D01*
X104500000Y-108451000D02*
X94522000Y-108451000D01*
X118827000Y-108491000D02*
X108860000Y-108491000D01*
X104500000Y-108491000D02*
X94533000Y-108491000D01*
X118817000Y-108531000D02*
X108860000Y-108531000D01*
X104500000Y-108531000D02*
X94543000Y-108531000D01*
X118806000Y-108571000D02*
X108860000Y-108571000D01*
X104500000Y-108571000D02*
X94554000Y-108571000D01*
X118796000Y-108611000D02*
X108860000Y-108611000D01*
X104500000Y-108611000D02*
X94564000Y-108611000D01*
X118785000Y-108651000D02*
X108860000Y-108651000D01*
X104500000Y-108651000D02*
X94575000Y-108651000D01*
X118774000Y-108691000D02*
X108860000Y-108691000D01*
X104500000Y-108691000D02*
X94586000Y-108691000D01*
X118763000Y-108731000D02*
X108860000Y-108731000D01*
X104500000Y-108731000D02*
X94597000Y-108731000D01*
X118751000Y-108771000D02*
X108860000Y-108771000D01*
X104500000Y-108771000D02*
X94609000Y-108771000D01*
X118740000Y-108811000D02*
X108860000Y-108811000D01*
X104500000Y-108811000D02*
X94620000Y-108811000D01*
X118728000Y-108851000D02*
X108860000Y-108851000D01*
X104500000Y-108851000D02*
X94632000Y-108851000D01*
X118717000Y-108891000D02*
X108860000Y-108891000D01*
X104500000Y-108891000D02*
X94643000Y-108891000D01*
X118705000Y-108931000D02*
X108860000Y-108931000D01*
X104500000Y-108931000D02*
X94655000Y-108931000D01*
X118693000Y-108971000D02*
X108860000Y-108971000D01*
X104500000Y-108971000D02*
X94667000Y-108971000D01*
X118681000Y-109011000D02*
X108860000Y-109011000D01*
X104500000Y-109011000D02*
X94679000Y-109011000D01*
X118668000Y-109051000D02*
X108860000Y-109051000D01*
X104500000Y-109051000D02*
X94692000Y-109051000D01*
X118656000Y-109091000D02*
X108860000Y-109091000D01*
X104500000Y-109091000D02*
X94704000Y-109091000D01*
X118643000Y-109131000D02*
X108860000Y-109131000D01*
X104500000Y-109131000D02*
X94717000Y-109131000D01*
X118631000Y-109171000D02*
X108860000Y-109171000D01*
X104500000Y-109171000D02*
X94729000Y-109171000D01*
X118618000Y-109211000D02*
X108860000Y-109211000D01*
X104500000Y-109211000D02*
X94742000Y-109211000D01*
X118605000Y-109251000D02*
X108860000Y-109251000D01*
X104500000Y-109251000D02*
X94755000Y-109251000D01*
X118592000Y-109291000D02*
X108860000Y-109291000D01*
X104500000Y-109291000D02*
X94768000Y-109291000D01*
X118578000Y-109331000D02*
X108860000Y-109331000D01*
X104500000Y-109331000D02*
X94782000Y-109331000D01*
X118565000Y-109371000D02*
X108860000Y-109371000D01*
X104500000Y-109371000D02*
X94795000Y-109371000D01*
X118551000Y-109411000D02*
X108860000Y-109411000D01*
X104500000Y-109411000D02*
X94809000Y-109411000D01*
X118537000Y-109451000D02*
X108860000Y-109451000D01*
X104500000Y-109451000D02*
X94823000Y-109451000D01*
X118523000Y-109491000D02*
X108860000Y-109491000D01*
X104500000Y-109491000D02*
X94837000Y-109491000D01*
X118509000Y-109531000D02*
X108860000Y-109531000D01*
X104500000Y-109531000D02*
X94851000Y-109531000D01*
X118495000Y-109571000D02*
X108860000Y-109571000D01*
X104500000Y-109571000D02*
X94865000Y-109571000D01*
X118481000Y-109611000D02*
X108860000Y-109611000D01*
X104500000Y-109611000D02*
X94879000Y-109611000D01*
X118466000Y-109651000D02*
X108860000Y-109651000D01*
X104500000Y-109651000D02*
X94894000Y-109651000D01*
X118451000Y-109691000D02*
X108860000Y-109691000D01*
X104500000Y-109691000D02*
X94909000Y-109691000D01*
X118437000Y-109731000D02*
X108860000Y-109731000D01*
X104500000Y-109731000D02*
X94923000Y-109731000D01*
X118422000Y-109771000D02*
X108860000Y-109771000D01*
X104500000Y-109771000D02*
X94938000Y-109771000D01*
X118406000Y-109811000D02*
X108860000Y-109811000D01*
X104500000Y-109811000D02*
X94954000Y-109811000D01*
X118391000Y-109851000D02*
X108860000Y-109851000D01*
X104500000Y-109851000D02*
X94969000Y-109851000D01*
X118376000Y-109891000D02*
X108860000Y-109891000D01*
X104500000Y-109891000D02*
X94984000Y-109891000D01*
X118360000Y-109931000D02*
X108860000Y-109931000D01*
X104500000Y-109931000D02*
X95000000Y-109931000D01*
X118344000Y-109971000D02*
X108860000Y-109971000D01*
X104500000Y-109971000D02*
X95016000Y-109971000D01*
X118328000Y-110011000D02*
X108860000Y-110011000D01*
X104500000Y-110011000D02*
X95032000Y-110011000D01*
X118312000Y-110051000D02*
X108860000Y-110051000D01*
X104500000Y-110051000D02*
X95048000Y-110051000D01*
X118296000Y-110091000D02*
X108860000Y-110091000D01*
X104500000Y-110091000D02*
X95064000Y-110091000D01*
X118280000Y-110131000D02*
X108860000Y-110131000D01*
X104500000Y-110131000D02*
X95080000Y-110131000D01*
X118263000Y-110171000D02*
X108860000Y-110171000D01*
X104500000Y-110171000D02*
X95097000Y-110171000D01*
X118246000Y-110211000D02*
X108860000Y-110211000D01*
X104500000Y-110211000D02*
X95114000Y-110211000D01*
X118229000Y-110251000D02*
X108860000Y-110251000D01*
X104500000Y-110251000D02*
X95131000Y-110251000D01*
X118212000Y-110291000D02*
X108860000Y-110291000D01*
X104500000Y-110291000D02*
X95148000Y-110291000D01*
X118195000Y-110331000D02*
X108860000Y-110331000D01*
X104500000Y-110331000D02*
X95165000Y-110331000D01*
X118178000Y-110371000D02*
X108860000Y-110371000D01*
X104500000Y-110371000D02*
X95182000Y-110371000D01*
X118160000Y-110411000D02*
X108860000Y-110411000D01*
X104500000Y-110411000D02*
X95200000Y-110411000D01*
X118142000Y-110451000D02*
X108860000Y-110451000D01*
X104500000Y-110451000D02*
X95218000Y-110451000D01*
X118125000Y-110491000D02*
X108860000Y-110491000D01*
X104500000Y-110491000D02*
X95235000Y-110491000D01*
X118106000Y-110531000D02*
X108860000Y-110531000D01*
X104500000Y-110531000D02*
X95254000Y-110531000D01*
X118088000Y-110571000D02*
X108860000Y-110571000D01*
X104500000Y-110571000D02*
X95272000Y-110571000D01*
X118070000Y-110611000D02*
X108860000Y-110611000D01*
X104500000Y-110611000D02*
X95290000Y-110611000D01*
X118051000Y-110651000D02*
X108860000Y-110651000D01*
X104500000Y-110651000D02*
X95309000Y-110651000D01*
X118033000Y-110691000D02*
X108860000Y-110691000D01*
X104500000Y-110691000D02*
X95327000Y-110691000D01*
X118014000Y-110731000D02*
X108860000Y-110731000D01*
X104500000Y-110731000D02*
X95346000Y-110731000D01*
X117995000Y-110771000D02*
X108860000Y-110771000D01*
X104500000Y-110771000D02*
X95365000Y-110771000D01*
X117975000Y-110811000D02*
X108860000Y-110811000D01*
X104500000Y-110811000D02*
X95385000Y-110811000D01*
X117956000Y-110851000D02*
X108860000Y-110851000D01*
X104500000Y-110851000D02*
X95404000Y-110851000D01*
X117936000Y-110891000D02*
X108860000Y-110891000D01*
X104500000Y-110891000D02*
X95424000Y-110891000D01*
X117916000Y-110931000D02*
X108860000Y-110931000D01*
X104500000Y-110931000D02*
X95444000Y-110931000D01*
X117897000Y-110971000D02*
X108860000Y-110971000D01*
X104500000Y-110971000D02*
X95463000Y-110971000D01*
X117876000Y-111011000D02*
X108860000Y-111011000D01*
X104500000Y-111011000D02*
X95484000Y-111011000D01*
X117856000Y-111051000D02*
X108860000Y-111051000D01*
X104500000Y-111051000D02*
X95504000Y-111051000D01*
X117836000Y-111091000D02*
X108860000Y-111091000D01*
X104500000Y-111091000D02*
X95524000Y-111091000D01*
X117815000Y-111131000D02*
X108860000Y-111131000D01*
X104500000Y-111131000D02*
X95545000Y-111131000D01*
X117794000Y-111171000D02*
X108860000Y-111171000D01*
X104500000Y-111171000D02*
X95566000Y-111171000D01*
X117773000Y-111211000D02*
X108860000Y-111211000D01*
X104500000Y-111211000D02*
X95587000Y-111211000D01*
X117752000Y-111251000D02*
X108860000Y-111251000D01*
X104500000Y-111251000D02*
X95608000Y-111251000D01*
X117730000Y-111291000D02*
X108860000Y-111291000D01*
X104500000Y-111291000D02*
X95630000Y-111291000D01*
X117709000Y-111331000D02*
X108860000Y-111331000D01*
X104500000Y-111331000D02*
X95651000Y-111331000D01*
X117687000Y-111371000D02*
X108860000Y-111371000D01*
X104500000Y-111371000D02*
X95673000Y-111371000D01*
X117665000Y-111411000D02*
X108860000Y-111411000D01*
X104500000Y-111411000D02*
X95695000Y-111411000D01*
X117643000Y-111451000D02*
X108860000Y-111451000D01*
X104500000Y-111451000D02*
X95717000Y-111451000D01*
X117621000Y-111491000D02*
X108860000Y-111491000D01*
X104500000Y-111491000D02*
X95739000Y-111491000D01*
X117598000Y-111531000D02*
X108860000Y-111531000D01*
X104500000Y-111531000D02*
X95762000Y-111531000D01*
X117575000Y-111571000D02*
X108860000Y-111571000D01*
X104500000Y-111571000D02*
X95785000Y-111571000D01*
X117552000Y-111611000D02*
X108860000Y-111611000D01*
X104500000Y-111611000D02*
X95808000Y-111611000D01*
X117529000Y-111651000D02*
X108860000Y-111651000D01*
X104500000Y-111651000D02*
X95831000Y-111651000D01*
X117506000Y-111691000D02*
X108860000Y-111691000D01*
X104500000Y-111691000D02*
X95854000Y-111691000D01*
X117482000Y-111731000D02*
X108860000Y-111731000D01*
X104500000Y-111731000D02*
X95878000Y-111731000D01*
X117459000Y-111771000D02*
X108860000Y-111771000D01*
X104500000Y-111771000D02*
X95901000Y-111771000D01*
X117435000Y-111811000D02*
X108860000Y-111811000D01*
X104500000Y-111811000D02*
X95925000Y-111811000D01*
X117411000Y-111851000D02*
X108860000Y-111851000D01*
X104500000Y-111851000D02*
X95949000Y-111851000D01*
X117386000Y-111891000D02*
X108860000Y-111891000D01*
X104500000Y-111891000D02*
X95974000Y-111891000D01*
X117362000Y-111931000D02*
X108860000Y-111931000D01*
X104500000Y-111931000D02*
X95998000Y-111931000D01*
X117337000Y-111971000D02*
X108860000Y-111971000D01*
X104500000Y-111971000D02*
X96023000Y-111971000D01*
X117312000Y-112011000D02*
X108860000Y-112011000D01*
X104500000Y-112011000D02*
X96048000Y-112011000D01*
X117287000Y-112051000D02*
X108860000Y-112051000D01*
X104500000Y-112051000D02*
X96073000Y-112051000D01*
X117262000Y-112091000D02*
X108860000Y-112091000D01*
X104500000Y-112091000D02*
X96098000Y-112091000D01*
X117236000Y-112131000D02*
X108860000Y-112131000D01*
X104500000Y-112131000D02*
X96124000Y-112131000D01*
X117210000Y-112171000D02*
X108860000Y-112171000D01*
X104500000Y-112171000D02*
X96150000Y-112171000D01*
X117184000Y-112211000D02*
X108860000Y-112211000D01*
X104500000Y-112211000D02*
X96176000Y-112211000D01*
X117158000Y-112251000D02*
X108860000Y-112251000D01*
X104500000Y-112251000D02*
X96202000Y-112251000D01*
X117132000Y-112291000D02*
X108860000Y-112291000D01*
X104500000Y-112291000D02*
X96228000Y-112291000D01*
X117105000Y-112331000D02*
X108860000Y-112331000D01*
X104500000Y-112331000D02*
X96255000Y-112331000D01*
X117078000Y-112371000D02*
X108860000Y-112371000D01*
X104500000Y-112371000D02*
X96282000Y-112371000D01*
X117051000Y-112411000D02*
X108860000Y-112411000D01*
X104500000Y-112411000D02*
X96309000Y-112411000D01*
X117024000Y-112451000D02*
X108860000Y-112451000D01*
X104500000Y-112451000D02*
X96336000Y-112451000D01*
X116996000Y-112491000D02*
X108860000Y-112491000D01*
X104500000Y-112491000D02*
X96364000Y-112491000D01*
X116969000Y-112531000D02*
X96391000Y-112531000D01*
X116941000Y-112571000D02*
X96419000Y-112571000D01*
X116912000Y-112611000D02*
X96448000Y-112611000D01*
X116884000Y-112651000D02*
X96476000Y-112651000D01*
X116855000Y-112691000D02*
X96505000Y-112691000D01*
X116826000Y-112731000D02*
X96534000Y-112731000D01*
X116797000Y-112771000D02*
X96563000Y-112771000D01*
X116768000Y-112811000D02*
X96592000Y-112811000D01*
X116738000Y-112851000D02*
X96622000Y-112851000D01*
X116708000Y-112891000D02*
X96652000Y-112891000D01*
X116678000Y-112931000D02*
X96682000Y-112931000D01*
X116647000Y-112971000D02*
X96713000Y-112971000D01*
X116617000Y-113011000D02*
X96743000Y-113011000D01*
X116586000Y-113051000D02*
X96774000Y-113051000D01*
X116555000Y-113091000D02*
X96805000Y-113091000D01*
X116523000Y-113131000D02*
X96837000Y-113131000D01*
X116492000Y-113171000D02*
X96868000Y-113171000D01*
X116460000Y-113211000D02*
X96900000Y-113211000D01*
X116427000Y-113251000D02*
X96933000Y-113251000D01*
X116395000Y-113291000D02*
X96965000Y-113291000D01*
X116362000Y-113331000D02*
X96998000Y-113331000D01*
X116329000Y-113371000D02*
X97031000Y-113371000D01*
X116296000Y-113411000D02*
X97064000Y-113411000D01*
X116262000Y-113451000D02*
X97098000Y-113451000D01*
X116228000Y-113491000D02*
X97132000Y-113491000D01*
X116194000Y-113530000D02*
X97166000Y-113530000D01*
X116159000Y-113570000D02*
X97201000Y-113570000D01*
X116125000Y-113610000D02*
X97235000Y-113610000D01*
X116090000Y-113650000D02*
X97270000Y-113650000D01*
X116054000Y-113690000D02*
X97306000Y-113690000D01*
X116019000Y-113730000D02*
X97341000Y-113730000D01*
X115983000Y-113770000D02*
X97377000Y-113770000D01*
X115946000Y-113810000D02*
X97414000Y-113810000D01*
X115910000Y-113850000D02*
X97450000Y-113850000D01*
X115873000Y-113890000D02*
X97487000Y-113890000D01*
X115836000Y-113930000D02*
X97524000Y-113930000D01*
X115798000Y-113970000D02*
X97562000Y-113970000D01*
X115760000Y-114010000D02*
X97600000Y-114010000D01*
X115722000Y-114050000D02*
X97638000Y-114050000D01*
X115683000Y-114090000D02*
X97677000Y-114090000D01*
X115644000Y-114130000D02*
X97716000Y-114130000D01*
X115605000Y-114170000D02*
X97755000Y-114170000D01*
X115565000Y-114210000D02*
X97795000Y-114210000D01*
X115525000Y-114250000D02*
X97835000Y-114250000D01*
X115485000Y-114290000D02*
X97875000Y-114290000D01*
X115444000Y-114330000D02*
X97916000Y-114330000D01*
X115403000Y-114370000D02*
X97957000Y-114370000D01*
X115362000Y-114410000D02*
X97998000Y-114410000D01*
X115320000Y-114450000D02*
X98040000Y-114450000D01*
X115278000Y-114490000D02*
X98082000Y-114490000D01*
X115235000Y-114530000D02*
X98125000Y-114530000D01*
X115192000Y-114570000D02*
X98168000Y-114570000D01*
X115149000Y-114610000D02*
X98211000Y-114610000D01*
X115105000Y-114650000D02*
X98255000Y-114650000D01*
X115061000Y-114690000D02*
X98299000Y-114690000D01*
X115016000Y-114730000D02*
X98344000Y-114730000D01*
X114971000Y-114770000D02*
X98389000Y-114770000D01*
X114925000Y-114810000D02*
X98435000Y-114810000D01*
X114879000Y-114850000D02*
X98481000Y-114850000D01*
X114833000Y-114890000D02*
X98527000Y-114890000D01*
X114786000Y-114930000D02*
X98574000Y-114930000D01*
X114739000Y-114970000D02*
X98621000Y-114970000D01*
X114691000Y-115010000D02*
X98669000Y-115010000D01*
X114642000Y-115050000D02*
X98718000Y-115050000D01*
X114594000Y-115090000D02*
X98766000Y-115090000D01*
X114544000Y-115130000D02*
X98816000Y-115130000D01*
X114494000Y-115170000D02*
X98866000Y-115170000D01*
X114444000Y-115210000D02*
X98916000Y-115210000D01*
X114393000Y-115250000D02*
X98967000Y-115250000D01*
X114342000Y-115290000D02*
X99018000Y-115290000D01*
X114290000Y-115330000D02*
X99070000Y-115330000D01*
X114237000Y-115370000D02*
X99123000Y-115370000D01*
X114184000Y-115410000D02*
X99176000Y-115410000D01*
X114130000Y-115450000D02*
X99230000Y-115450000D01*
X114076000Y-115490000D02*
X99284000Y-115490000D01*
X114021000Y-115530000D02*
X99339000Y-115530000D01*
X113965000Y-115570000D02*
X99395000Y-115570000D01*
X113909000Y-115610000D02*
X99451000Y-115610000D01*
X113852000Y-115650000D02*
X99508000Y-115650000D01*
X113794000Y-115690000D02*
X99566000Y-115690000D01*
X113736000Y-115730000D02*
X99624000Y-115730000D01*
X113677000Y-115770000D02*
X99683000Y-115770000D01*
X113617000Y-115810000D02*
X99743000Y-115810000D01*
X113557000Y-115850000D02*
X99803000Y-115850000D01*
X113496000Y-115890000D02*
X99864000Y-115890000D01*
X113434000Y-115930000D02*
X99926000Y-115930000D01*
X113371000Y-115970000D02*
X99989000Y-115970000D01*
X113307000Y-116010000D02*
X100053000Y-116010000D01*
X113243000Y-116050000D02*
X100117000Y-116050000D01*
X113177000Y-116090000D02*
X100183000Y-116090000D01*
X113111000Y-116130000D02*
X100249000Y-116130000D01*
X113044000Y-116170000D02*
X100316000Y-116170000D01*
X112976000Y-116210000D02*
X100384000Y-116210000D01*
X112906000Y-116250000D02*
X100454000Y-116250000D01*
X112836000Y-116290000D02*
X100524000Y-116290000D01*
X112765000Y-116330000D02*
X100595000Y-116330000D01*
X112692000Y-116370000D02*
X100668000Y-116370000D01*
X112619000Y-116410000D02*
X100741000Y-116410000D01*
X112544000Y-116450000D02*
X100816000Y-116450000D01*
X112468000Y-116490000D02*
X100892000Y-116490000D01*
X112391000Y-116530000D02*
X100969000Y-116530000D01*
X112312000Y-116570000D02*
X101048000Y-116570000D01*
X112232000Y-116610000D02*
X101128000Y-116610000D01*
X112151000Y-116650000D02*
X101209000Y-116650000D01*
X112068000Y-116690000D02*
X101292000Y-116690000D01*
X111984000Y-116730000D02*
X101376000Y-116730000D01*
X111897000Y-116770000D02*
X101463000Y-116770000D01*
X111809000Y-116810000D02*
X101551000Y-116810000D01*
X111720000Y-116850000D02*
X101640000Y-116850000D01*
X111628000Y-116890000D02*
X101732000Y-116890000D01*
X111534000Y-116930000D02*
X101826000Y-116930000D01*
X111438000Y-116970000D02*
X101922000Y-116970000D01*
X111340000Y-117010000D02*
X102020000Y-117010000D01*
X111239000Y-117050000D02*
X102121000Y-117050000D01*
X111136000Y-117090000D02*
X102224000Y-117090000D01*
X111030000Y-117130000D02*
X102330000Y-117130000D01*
X110921000Y-117170000D02*
X102439000Y-117170000D01*
X110809000Y-117210000D02*
X102551000Y-117210000D01*
X110693000Y-117250000D02*
X102667000Y-117250000D01*
X110573000Y-117290000D02*
X102787000Y-117290000D01*
X110449000Y-117330000D02*
X102911000Y-117330000D01*
X110321000Y-117370000D02*
X103039000Y-117370000D01*
X110188000Y-117410000D02*
X103172000Y-117410000D01*
X110048000Y-117450000D02*
X103312000Y-117450000D01*
X109903000Y-117490000D02*
X103457000Y-117490000D01*
X109750000Y-117530000D02*
X103610000Y-117530000D01*
X109588000Y-117570000D02*
X103772000Y-117570000D01*
X109417000Y-117610000D02*
X103943000Y-117610000D01*
X109234000Y-117650000D02*
X104126000Y-117650000D01*
X109036000Y-117690000D02*
X104324000Y-117690000D01*
X108820000Y-117730000D02*
X104540000Y-117730000D01*
X108578000Y-117770000D02*
X104782000Y-117770000D01*
X108301000Y-117810000D02*
X105059000Y-117810000D01*
X107966000Y-117850000D02*
X105394000Y-117850000D01*
X107509000Y-117890000D02*
X105851000Y-117890000D01*
X106680000Y-95130000D02*
X106680000Y-98130000D01*
X108180000Y-96630000D02*
X105180000Y-96630000D01*
X154590000Y-111160000D02*
X155290000Y-111160000D01*
X155290000Y-112360000D02*
X154590000Y-112360000D01*
X138780000Y-112360000D02*
X138080000Y-112360000D01*
X138080000Y-111160000D02*
X138780000Y-111160000D01*
X115479194Y-91271525D02*
G75*
G03X115480000Y-81368667I-1179194J4951525D01*
G01*
X113120806Y-91271525D02*
G75*
G02X113120000Y-81368667I1179194J4951525D01*
G01*
X113120806Y-91271525D02*
G75*
G03X115480000Y-91271333I1179194J4951525D01*
G01*
X119350000Y-86320000D02*
X109250000Y-86320000D01*
X119350000Y-86360000D02*
X109250000Y-86360000D01*
X119350000Y-86400000D02*
X109250000Y-86400000D01*
X119349000Y-86440000D02*
X109251000Y-86440000D01*
X119348000Y-86480000D02*
X109252000Y-86480000D01*
X119347000Y-86520000D02*
X109253000Y-86520000D01*
X119345000Y-86560000D02*
X109255000Y-86560000D01*
X119343000Y-86600000D02*
X109257000Y-86600000D01*
X119340000Y-86640000D02*
X109260000Y-86640000D01*
X119338000Y-86680000D02*
X109262000Y-86680000D01*
X119335000Y-86720000D02*
X109265000Y-86720000D01*
X119331000Y-86760000D02*
X109269000Y-86760000D01*
X119328000Y-86800000D02*
X109272000Y-86800000D01*
X119324000Y-86840000D02*
X109276000Y-86840000D01*
X119320000Y-86880000D02*
X109280000Y-86880000D01*
X119315000Y-86920000D02*
X109285000Y-86920000D01*
X119310000Y-86960000D02*
X109290000Y-86960000D01*
X119305000Y-87000000D02*
X109295000Y-87000000D01*
X119299000Y-87041000D02*
X109301000Y-87041000D01*
X119293000Y-87081000D02*
X109307000Y-87081000D01*
X119287000Y-87121000D02*
X109313000Y-87121000D01*
X119281000Y-87161000D02*
X109319000Y-87161000D01*
X119274000Y-87201000D02*
X109326000Y-87201000D01*
X119267000Y-87241000D02*
X109333000Y-87241000D01*
X119259000Y-87281000D02*
X109341000Y-87281000D01*
X119251000Y-87321000D02*
X109349000Y-87321000D01*
X119243000Y-87361000D02*
X109357000Y-87361000D01*
X119235000Y-87401000D02*
X109365000Y-87401000D01*
X119226000Y-87441000D02*
X109374000Y-87441000D01*
X119217000Y-87481000D02*
X109383000Y-87481000D01*
X119207000Y-87521000D02*
X109393000Y-87521000D01*
X119197000Y-87561000D02*
X109403000Y-87561000D01*
X119187000Y-87601000D02*
X109413000Y-87601000D01*
X119176000Y-87641000D02*
X115481000Y-87641000D01*
X113119000Y-87641000D02*
X109424000Y-87641000D01*
X119165000Y-87681000D02*
X115481000Y-87681000D01*
X113119000Y-87681000D02*
X109435000Y-87681000D01*
X119154000Y-87721000D02*
X115481000Y-87721000D01*
X113119000Y-87721000D02*
X109446000Y-87721000D01*
X119143000Y-87761000D02*
X115481000Y-87761000D01*
X113119000Y-87761000D02*
X109457000Y-87761000D01*
X119131000Y-87801000D02*
X115481000Y-87801000D01*
X113119000Y-87801000D02*
X109469000Y-87801000D01*
X119118000Y-87841000D02*
X115481000Y-87841000D01*
X113119000Y-87841000D02*
X109482000Y-87841000D01*
X119106000Y-87881000D02*
X115481000Y-87881000D01*
X113119000Y-87881000D02*
X109494000Y-87881000D01*
X119092000Y-87921000D02*
X115481000Y-87921000D01*
X113119000Y-87921000D02*
X109508000Y-87921000D01*
X119079000Y-87961000D02*
X115481000Y-87961000D01*
X113119000Y-87961000D02*
X109521000Y-87961000D01*
X119065000Y-88001000D02*
X115481000Y-88001000D01*
X113119000Y-88001000D02*
X109535000Y-88001000D01*
X119051000Y-88041000D02*
X115481000Y-88041000D01*
X113119000Y-88041000D02*
X109549000Y-88041000D01*
X119037000Y-88081000D02*
X115481000Y-88081000D01*
X113119000Y-88081000D02*
X109563000Y-88081000D01*
X119022000Y-88121000D02*
X115481000Y-88121000D01*
X113119000Y-88121000D02*
X109578000Y-88121000D01*
X119006000Y-88161000D02*
X115481000Y-88161000D01*
X113119000Y-88161000D02*
X109594000Y-88161000D01*
X118991000Y-88201000D02*
X115481000Y-88201000D01*
X113119000Y-88201000D02*
X109609000Y-88201000D01*
X118974000Y-88241000D02*
X115481000Y-88241000D01*
X113119000Y-88241000D02*
X109626000Y-88241000D01*
X118958000Y-88281000D02*
X115481000Y-88281000D01*
X113119000Y-88281000D02*
X109642000Y-88281000D01*
X118941000Y-88321000D02*
X115481000Y-88321000D01*
X113119000Y-88321000D02*
X109659000Y-88321000D01*
X118924000Y-88361000D02*
X115481000Y-88361000D01*
X113119000Y-88361000D02*
X109676000Y-88361000D01*
X118906000Y-88401000D02*
X115481000Y-88401000D01*
X113119000Y-88401000D02*
X109694000Y-88401000D01*
X118888000Y-88441000D02*
X115481000Y-88441000D01*
X113119000Y-88441000D02*
X109712000Y-88441000D01*
X118869000Y-88481000D02*
X115481000Y-88481000D01*
X113119000Y-88481000D02*
X109731000Y-88481000D01*
X118850000Y-88521000D02*
X115481000Y-88521000D01*
X113119000Y-88521000D02*
X109750000Y-88521000D01*
X118831000Y-88561000D02*
X115481000Y-88561000D01*
X113119000Y-88561000D02*
X109769000Y-88561000D01*
X118811000Y-88601000D02*
X115481000Y-88601000D01*
X113119000Y-88601000D02*
X109789000Y-88601000D01*
X118791000Y-88641000D02*
X115481000Y-88641000D01*
X113119000Y-88641000D02*
X109809000Y-88641000D01*
X118770000Y-88681000D02*
X115481000Y-88681000D01*
X113119000Y-88681000D02*
X109830000Y-88681000D01*
X118749000Y-88721000D02*
X115481000Y-88721000D01*
X113119000Y-88721000D02*
X109851000Y-88721000D01*
X118728000Y-88761000D02*
X115481000Y-88761000D01*
X113119000Y-88761000D02*
X109872000Y-88761000D01*
X118705000Y-88801000D02*
X115481000Y-88801000D01*
X113119000Y-88801000D02*
X109895000Y-88801000D01*
X118683000Y-88841000D02*
X115481000Y-88841000D01*
X113119000Y-88841000D02*
X109917000Y-88841000D01*
X118660000Y-88881000D02*
X115481000Y-88881000D01*
X113119000Y-88881000D02*
X109940000Y-88881000D01*
X118636000Y-88921000D02*
X115481000Y-88921000D01*
X113119000Y-88921000D02*
X109964000Y-88921000D01*
X118612000Y-88961000D02*
X115481000Y-88961000D01*
X113119000Y-88961000D02*
X109988000Y-88961000D01*
X118588000Y-89001000D02*
X115481000Y-89001000D01*
X113119000Y-89001000D02*
X110012000Y-89001000D01*
X118563000Y-89041000D02*
X115481000Y-89041000D01*
X113119000Y-89041000D02*
X110037000Y-89041000D01*
X118537000Y-89081000D02*
X115481000Y-89081000D01*
X113119000Y-89081000D02*
X110063000Y-89081000D01*
X118511000Y-89121000D02*
X115481000Y-89121000D01*
X113119000Y-89121000D02*
X110089000Y-89121000D01*
X118485000Y-89161000D02*
X115481000Y-89161000D01*
X113119000Y-89161000D02*
X110115000Y-89161000D01*
X118457000Y-89201000D02*
X115481000Y-89201000D01*
X113119000Y-89201000D02*
X110143000Y-89201000D01*
X118430000Y-89241000D02*
X115481000Y-89241000D01*
X113119000Y-89241000D02*
X110170000Y-89241000D01*
X118401000Y-89281000D02*
X115481000Y-89281000D01*
X113119000Y-89281000D02*
X110199000Y-89281000D01*
X118372000Y-89321000D02*
X115481000Y-89321000D01*
X113119000Y-89321000D02*
X110228000Y-89321000D01*
X118343000Y-89361000D02*
X115481000Y-89361000D01*
X113119000Y-89361000D02*
X110257000Y-89361000D01*
X118313000Y-89401000D02*
X115481000Y-89401000D01*
X113119000Y-89401000D02*
X110287000Y-89401000D01*
X118282000Y-89441000D02*
X115481000Y-89441000D01*
X113119000Y-89441000D02*
X110318000Y-89441000D01*
X118251000Y-89481000D02*
X115481000Y-89481000D01*
X113119000Y-89481000D02*
X110349000Y-89481000D01*
X118219000Y-89521000D02*
X115481000Y-89521000D01*
X113119000Y-89521000D02*
X110381000Y-89521000D01*
X118186000Y-89561000D02*
X115481000Y-89561000D01*
X113119000Y-89561000D02*
X110414000Y-89561000D01*
X118153000Y-89601000D02*
X115481000Y-89601000D01*
X113119000Y-89601000D02*
X110447000Y-89601000D01*
X118119000Y-89641000D02*
X115481000Y-89641000D01*
X113119000Y-89641000D02*
X110481000Y-89641000D01*
X118084000Y-89681000D02*
X115481000Y-89681000D01*
X113119000Y-89681000D02*
X110516000Y-89681000D01*
X118048000Y-89721000D02*
X115481000Y-89721000D01*
X113119000Y-89721000D02*
X110552000Y-89721000D01*
X118012000Y-89761000D02*
X115481000Y-89761000D01*
X113119000Y-89761000D02*
X110588000Y-89761000D01*
X117975000Y-89801000D02*
X115481000Y-89801000D01*
X113119000Y-89801000D02*
X110625000Y-89801000D01*
X117937000Y-89841000D02*
X115481000Y-89841000D01*
X113119000Y-89841000D02*
X110663000Y-89841000D01*
X117898000Y-89881000D02*
X115481000Y-89881000D01*
X113119000Y-89881000D02*
X110702000Y-89881000D01*
X117859000Y-89921000D02*
X115481000Y-89921000D01*
X113119000Y-89921000D02*
X110741000Y-89921000D01*
X117818000Y-89961000D02*
X115481000Y-89961000D01*
X113119000Y-89961000D02*
X110782000Y-89961000D01*
X117777000Y-90001000D02*
X110823000Y-90001000D01*
X117735000Y-90041000D02*
X110865000Y-90041000D01*
X117691000Y-90081000D02*
X110909000Y-90081000D01*
X117647000Y-90121000D02*
X110953000Y-90121000D01*
X117602000Y-90161000D02*
X110998000Y-90161000D01*
X117555000Y-90201000D02*
X111045000Y-90201000D01*
X117507000Y-90241000D02*
X111093000Y-90241000D01*
X117458000Y-90281000D02*
X111142000Y-90281000D01*
X117408000Y-90321000D02*
X111192000Y-90321000D01*
X117357000Y-90361000D02*
X111243000Y-90361000D01*
X117304000Y-90401000D02*
X111296000Y-90401000D01*
X117249000Y-90441000D02*
X111351000Y-90441000D01*
X117194000Y-90481000D02*
X111406000Y-90481000D01*
X117136000Y-90521000D02*
X111464000Y-90521000D01*
X117077000Y-90561000D02*
X111523000Y-90561000D01*
X117015000Y-90601000D02*
X111585000Y-90601000D01*
X116952000Y-90641000D02*
X111648000Y-90641000D01*
X116887000Y-90681000D02*
X111713000Y-90681000D01*
X116819000Y-90721000D02*
X111781000Y-90721000D01*
X116749000Y-90761000D02*
X111851000Y-90761000D01*
X116677000Y-90801000D02*
X111923000Y-90801000D01*
X116601000Y-90841000D02*
X111999000Y-90841000D01*
X116522000Y-90881000D02*
X112078000Y-90881000D01*
X116440000Y-90921000D02*
X112160000Y-90921000D01*
X116353000Y-90961000D02*
X112247000Y-90961000D01*
X116262000Y-91001000D02*
X112338000Y-91001000D01*
X116166000Y-91041000D02*
X112434000Y-91041000D01*
X116063000Y-91081000D02*
X112537000Y-91081000D01*
X115954000Y-91121000D02*
X112646000Y-91121000D01*
X115836000Y-91161000D02*
X112764000Y-91161000D01*
X115707000Y-91201000D02*
X112893000Y-91201000D01*
X115565000Y-91241000D02*
X113035000Y-91241000D01*
X115404000Y-91281000D02*
X113196000Y-91281000D01*
X115213000Y-91321000D02*
X113387000Y-91321000D01*
X114972000Y-91361000D02*
X113628000Y-91361000D01*
X114579000Y-91401000D02*
X114021000Y-91401000D01*
X114300000Y-81120000D02*
X114300000Y-82620000D01*
X115050000Y-81870000D02*
X113550000Y-81870000D01*
X94580000Y-87280000D02*
X94580000Y-87980000D01*
X93380000Y-87980000D02*
X93380000Y-87280000D01*
X102581400Y-79846863D02*
G75*
G03X102580000Y-75052564I-981400J2396863D01*
G01*
X100618600Y-79846863D02*
G75*
G02X100620000Y-75052564I981400J2396863D01*
G01*
X100618600Y-79846863D02*
G75*
G03X102580000Y-79847436I981400J2396863D01*
G01*
X104150000Y-77450000D02*
X99050000Y-77450000D01*
X104150000Y-77490000D02*
X99050000Y-77490000D01*
X104149000Y-77530000D02*
X99051000Y-77530000D01*
X104148000Y-77570000D02*
X99052000Y-77570000D01*
X104146000Y-77610000D02*
X99054000Y-77610000D01*
X104143000Y-77650000D02*
X99057000Y-77650000D01*
X104139000Y-77690000D02*
X99061000Y-77690000D01*
X104135000Y-77730000D02*
X102580000Y-77730000D01*
X100620000Y-77730000D02*
X99065000Y-77730000D01*
X104131000Y-77770000D02*
X102580000Y-77770000D01*
X100620000Y-77770000D02*
X99069000Y-77770000D01*
X104125000Y-77810000D02*
X102580000Y-77810000D01*
X100620000Y-77810000D02*
X99075000Y-77810000D01*
X104119000Y-77850000D02*
X102580000Y-77850000D01*
X100620000Y-77850000D02*
X99081000Y-77850000D01*
X104113000Y-77890000D02*
X102580000Y-77890000D01*
X100620000Y-77890000D02*
X99087000Y-77890000D01*
X104106000Y-77930000D02*
X102580000Y-77930000D01*
X100620000Y-77930000D02*
X99094000Y-77930000D01*
X104098000Y-77970000D02*
X102580000Y-77970000D01*
X100620000Y-77970000D02*
X99102000Y-77970000D01*
X104089000Y-78010000D02*
X102580000Y-78010000D01*
X100620000Y-78010000D02*
X99111000Y-78010000D01*
X104080000Y-78050000D02*
X102580000Y-78050000D01*
X100620000Y-78050000D02*
X99120000Y-78050000D01*
X104070000Y-78090000D02*
X102580000Y-78090000D01*
X100620000Y-78090000D02*
X99130000Y-78090000D01*
X104060000Y-78130000D02*
X102580000Y-78130000D01*
X100620000Y-78130000D02*
X99140000Y-78130000D01*
X104048000Y-78171000D02*
X102580000Y-78171000D01*
X100620000Y-78171000D02*
X99152000Y-78171000D01*
X104036000Y-78211000D02*
X102580000Y-78211000D01*
X100620000Y-78211000D02*
X99164000Y-78211000D01*
X104024000Y-78251000D02*
X102580000Y-78251000D01*
X100620000Y-78251000D02*
X99176000Y-78251000D01*
X104010000Y-78291000D02*
X102580000Y-78291000D01*
X100620000Y-78291000D02*
X99190000Y-78291000D01*
X103996000Y-78331000D02*
X102580000Y-78331000D01*
X100620000Y-78331000D02*
X99204000Y-78331000D01*
X103982000Y-78371000D02*
X102580000Y-78371000D01*
X100620000Y-78371000D02*
X99218000Y-78371000D01*
X103966000Y-78411000D02*
X102580000Y-78411000D01*
X100620000Y-78411000D02*
X99234000Y-78411000D01*
X103950000Y-78451000D02*
X102580000Y-78451000D01*
X100620000Y-78451000D02*
X99250000Y-78451000D01*
X103933000Y-78491000D02*
X102580000Y-78491000D01*
X100620000Y-78491000D02*
X99267000Y-78491000D01*
X103915000Y-78531000D02*
X102580000Y-78531000D01*
X100620000Y-78531000D02*
X99285000Y-78531000D01*
X103896000Y-78571000D02*
X102580000Y-78571000D01*
X100620000Y-78571000D02*
X99304000Y-78571000D01*
X103876000Y-78611000D02*
X102580000Y-78611000D01*
X100620000Y-78611000D02*
X99324000Y-78611000D01*
X103856000Y-78651000D02*
X102580000Y-78651000D01*
X100620000Y-78651000D02*
X99344000Y-78651000D01*
X103834000Y-78691000D02*
X102580000Y-78691000D01*
X100620000Y-78691000D02*
X99366000Y-78691000D01*
X103812000Y-78731000D02*
X102580000Y-78731000D01*
X100620000Y-78731000D02*
X99388000Y-78731000D01*
X103789000Y-78771000D02*
X102580000Y-78771000D01*
X100620000Y-78771000D02*
X99411000Y-78771000D01*
X103765000Y-78811000D02*
X102580000Y-78811000D01*
X100620000Y-78811000D02*
X99435000Y-78811000D01*
X103740000Y-78851000D02*
X102580000Y-78851000D01*
X100620000Y-78851000D02*
X99460000Y-78851000D01*
X103713000Y-78891000D02*
X102580000Y-78891000D01*
X100620000Y-78891000D02*
X99487000Y-78891000D01*
X103686000Y-78931000D02*
X102580000Y-78931000D01*
X100620000Y-78931000D02*
X99514000Y-78931000D01*
X103658000Y-78971000D02*
X102580000Y-78971000D01*
X100620000Y-78971000D02*
X99542000Y-78971000D01*
X103628000Y-79011000D02*
X102580000Y-79011000D01*
X100620000Y-79011000D02*
X99572000Y-79011000D01*
X103597000Y-79051000D02*
X102580000Y-79051000D01*
X100620000Y-79051000D02*
X99603000Y-79051000D01*
X103565000Y-79091000D02*
X102580000Y-79091000D01*
X100620000Y-79091000D02*
X99635000Y-79091000D01*
X103532000Y-79131000D02*
X102580000Y-79131000D01*
X100620000Y-79131000D02*
X99668000Y-79131000D01*
X103497000Y-79171000D02*
X102580000Y-79171000D01*
X100620000Y-79171000D02*
X99703000Y-79171000D01*
X103461000Y-79211000D02*
X102580000Y-79211000D01*
X100620000Y-79211000D02*
X99739000Y-79211000D01*
X103423000Y-79251000D02*
X102580000Y-79251000D01*
X100620000Y-79251000D02*
X99777000Y-79251000D01*
X103383000Y-79291000D02*
X102580000Y-79291000D01*
X100620000Y-79291000D02*
X99817000Y-79291000D01*
X103342000Y-79331000D02*
X102580000Y-79331000D01*
X100620000Y-79331000D02*
X99858000Y-79331000D01*
X103299000Y-79371000D02*
X102580000Y-79371000D01*
X100620000Y-79371000D02*
X99901000Y-79371000D01*
X103254000Y-79411000D02*
X102580000Y-79411000D01*
X100620000Y-79411000D02*
X99946000Y-79411000D01*
X103206000Y-79451000D02*
X102580000Y-79451000D01*
X100620000Y-79451000D02*
X99994000Y-79451000D01*
X103156000Y-79491000D02*
X102580000Y-79491000D01*
X100620000Y-79491000D02*
X100044000Y-79491000D01*
X103104000Y-79531000D02*
X102580000Y-79531000D01*
X100620000Y-79531000D02*
X100096000Y-79531000D01*
X103048000Y-79571000D02*
X102580000Y-79571000D01*
X100620000Y-79571000D02*
X100152000Y-79571000D01*
X102990000Y-79611000D02*
X102580000Y-79611000D01*
X100620000Y-79611000D02*
X100210000Y-79611000D01*
X102927000Y-79651000D02*
X102580000Y-79651000D01*
X100620000Y-79651000D02*
X100273000Y-79651000D01*
X102861000Y-79691000D02*
X100339000Y-79691000D01*
X102789000Y-79731000D02*
X100411000Y-79731000D01*
X102712000Y-79771000D02*
X100488000Y-79771000D01*
X102628000Y-79811000D02*
X100572000Y-79811000D01*
X102534000Y-79851000D02*
X100666000Y-79851000D01*
X102429000Y-79891000D02*
X100771000Y-79891000D01*
X102307000Y-79931000D02*
X100893000Y-79931000D01*
X102159000Y-79971000D02*
X101041000Y-79971000D01*
X101954000Y-80011000D02*
X101246000Y-80011000D01*
X101600000Y-74000000D02*
X101600000Y-75200000D01*
X102250000Y-74600000D02*
X100950000Y-74600000D01*
X110201400Y-79846863D02*
G75*
G03X110200000Y-75052564I-981400J2396863D01*
G01*
X108238600Y-79846863D02*
G75*
G02X108240000Y-75052564I981400J2396863D01*
G01*
X108238600Y-79846863D02*
G75*
G03X110200000Y-79847436I981400J2396863D01*
G01*
X111770000Y-77450000D02*
X106670000Y-77450000D01*
X111770000Y-77490000D02*
X106670000Y-77490000D01*
X111769000Y-77530000D02*
X106671000Y-77530000D01*
X111768000Y-77570000D02*
X106672000Y-77570000D01*
X111766000Y-77610000D02*
X106674000Y-77610000D01*
X111763000Y-77650000D02*
X106677000Y-77650000D01*
X111759000Y-77690000D02*
X106681000Y-77690000D01*
X111755000Y-77730000D02*
X110200000Y-77730000D01*
X108240000Y-77730000D02*
X106685000Y-77730000D01*
X111751000Y-77770000D02*
X110200000Y-77770000D01*
X108240000Y-77770000D02*
X106689000Y-77770000D01*
X111745000Y-77810000D02*
X110200000Y-77810000D01*
X108240000Y-77810000D02*
X106695000Y-77810000D01*
X111739000Y-77850000D02*
X110200000Y-77850000D01*
X108240000Y-77850000D02*
X106701000Y-77850000D01*
X111733000Y-77890000D02*
X110200000Y-77890000D01*
X108240000Y-77890000D02*
X106707000Y-77890000D01*
X111726000Y-77930000D02*
X110200000Y-77930000D01*
X108240000Y-77930000D02*
X106714000Y-77930000D01*
X111718000Y-77970000D02*
X110200000Y-77970000D01*
X108240000Y-77970000D02*
X106722000Y-77970000D01*
X111709000Y-78010000D02*
X110200000Y-78010000D01*
X108240000Y-78010000D02*
X106731000Y-78010000D01*
X111700000Y-78050000D02*
X110200000Y-78050000D01*
X108240000Y-78050000D02*
X106740000Y-78050000D01*
X111690000Y-78090000D02*
X110200000Y-78090000D01*
X108240000Y-78090000D02*
X106750000Y-78090000D01*
X111680000Y-78130000D02*
X110200000Y-78130000D01*
X108240000Y-78130000D02*
X106760000Y-78130000D01*
X111668000Y-78171000D02*
X110200000Y-78171000D01*
X108240000Y-78171000D02*
X106772000Y-78171000D01*
X111656000Y-78211000D02*
X110200000Y-78211000D01*
X108240000Y-78211000D02*
X106784000Y-78211000D01*
X111644000Y-78251000D02*
X110200000Y-78251000D01*
X108240000Y-78251000D02*
X106796000Y-78251000D01*
X111630000Y-78291000D02*
X110200000Y-78291000D01*
X108240000Y-78291000D02*
X106810000Y-78291000D01*
X111616000Y-78331000D02*
X110200000Y-78331000D01*
X108240000Y-78331000D02*
X106824000Y-78331000D01*
X111602000Y-78371000D02*
X110200000Y-78371000D01*
X108240000Y-78371000D02*
X106838000Y-78371000D01*
X111586000Y-78411000D02*
X110200000Y-78411000D01*
X108240000Y-78411000D02*
X106854000Y-78411000D01*
X111570000Y-78451000D02*
X110200000Y-78451000D01*
X108240000Y-78451000D02*
X106870000Y-78451000D01*
X111553000Y-78491000D02*
X110200000Y-78491000D01*
X108240000Y-78491000D02*
X106887000Y-78491000D01*
X111535000Y-78531000D02*
X110200000Y-78531000D01*
X108240000Y-78531000D02*
X106905000Y-78531000D01*
X111516000Y-78571000D02*
X110200000Y-78571000D01*
X108240000Y-78571000D02*
X106924000Y-78571000D01*
X111496000Y-78611000D02*
X110200000Y-78611000D01*
X108240000Y-78611000D02*
X106944000Y-78611000D01*
X111476000Y-78651000D02*
X110200000Y-78651000D01*
X108240000Y-78651000D02*
X106964000Y-78651000D01*
X111454000Y-78691000D02*
X110200000Y-78691000D01*
X108240000Y-78691000D02*
X106986000Y-78691000D01*
X111432000Y-78731000D02*
X110200000Y-78731000D01*
X108240000Y-78731000D02*
X107008000Y-78731000D01*
X111409000Y-78771000D02*
X110200000Y-78771000D01*
X108240000Y-78771000D02*
X107031000Y-78771000D01*
X111385000Y-78811000D02*
X110200000Y-78811000D01*
X108240000Y-78811000D02*
X107055000Y-78811000D01*
X111360000Y-78851000D02*
X110200000Y-78851000D01*
X108240000Y-78851000D02*
X107080000Y-78851000D01*
X111333000Y-78891000D02*
X110200000Y-78891000D01*
X108240000Y-78891000D02*
X107107000Y-78891000D01*
X111306000Y-78931000D02*
X110200000Y-78931000D01*
X108240000Y-78931000D02*
X107134000Y-78931000D01*
X111278000Y-78971000D02*
X110200000Y-78971000D01*
X108240000Y-78971000D02*
X107162000Y-78971000D01*
X111248000Y-79011000D02*
X110200000Y-79011000D01*
X108240000Y-79011000D02*
X107192000Y-79011000D01*
X111217000Y-79051000D02*
X110200000Y-79051000D01*
X108240000Y-79051000D02*
X107223000Y-79051000D01*
X111185000Y-79091000D02*
X110200000Y-79091000D01*
X108240000Y-79091000D02*
X107255000Y-79091000D01*
X111152000Y-79131000D02*
X110200000Y-79131000D01*
X108240000Y-79131000D02*
X107288000Y-79131000D01*
X111117000Y-79171000D02*
X110200000Y-79171000D01*
X108240000Y-79171000D02*
X107323000Y-79171000D01*
X111081000Y-79211000D02*
X110200000Y-79211000D01*
X108240000Y-79211000D02*
X107359000Y-79211000D01*
X111043000Y-79251000D02*
X110200000Y-79251000D01*
X108240000Y-79251000D02*
X107397000Y-79251000D01*
X111003000Y-79291000D02*
X110200000Y-79291000D01*
X108240000Y-79291000D02*
X107437000Y-79291000D01*
X110962000Y-79331000D02*
X110200000Y-79331000D01*
X108240000Y-79331000D02*
X107478000Y-79331000D01*
X110919000Y-79371000D02*
X110200000Y-79371000D01*
X108240000Y-79371000D02*
X107521000Y-79371000D01*
X110874000Y-79411000D02*
X110200000Y-79411000D01*
X108240000Y-79411000D02*
X107566000Y-79411000D01*
X110826000Y-79451000D02*
X110200000Y-79451000D01*
X108240000Y-79451000D02*
X107614000Y-79451000D01*
X110776000Y-79491000D02*
X110200000Y-79491000D01*
X108240000Y-79491000D02*
X107664000Y-79491000D01*
X110724000Y-79531000D02*
X110200000Y-79531000D01*
X108240000Y-79531000D02*
X107716000Y-79531000D01*
X110668000Y-79571000D02*
X110200000Y-79571000D01*
X108240000Y-79571000D02*
X107772000Y-79571000D01*
X110610000Y-79611000D02*
X110200000Y-79611000D01*
X108240000Y-79611000D02*
X107830000Y-79611000D01*
X110547000Y-79651000D02*
X110200000Y-79651000D01*
X108240000Y-79651000D02*
X107893000Y-79651000D01*
X110481000Y-79691000D02*
X107959000Y-79691000D01*
X110409000Y-79731000D02*
X108031000Y-79731000D01*
X110332000Y-79771000D02*
X108108000Y-79771000D01*
X110248000Y-79811000D02*
X108192000Y-79811000D01*
X110154000Y-79851000D02*
X108286000Y-79851000D01*
X110049000Y-79891000D02*
X108391000Y-79891000D01*
X109927000Y-79931000D02*
X108513000Y-79931000D01*
X109779000Y-79971000D02*
X108661000Y-79971000D01*
X109574000Y-80011000D02*
X108866000Y-80011000D01*
X109220000Y-74000000D02*
X109220000Y-75200000D01*
X109870000Y-74600000D02*
X108570000Y-74600000D01*
X126909194Y-79841525D02*
G75*
G03X126910000Y-69938667I-1179194J4951525D01*
G01*
X124550806Y-79841525D02*
G75*
G02X124550000Y-69938667I1179194J4951525D01*
G01*
X124550806Y-79841525D02*
G75*
G03X126910000Y-79841333I1179194J4951525D01*
G01*
X130780000Y-74890000D02*
X120680000Y-74890000D01*
X130780000Y-74930000D02*
X120680000Y-74930000D01*
X130780000Y-74970000D02*
X120680000Y-74970000D01*
X130779000Y-75010000D02*
X120681000Y-75010000D01*
X130778000Y-75050000D02*
X120682000Y-75050000D01*
X130777000Y-75090000D02*
X120683000Y-75090000D01*
X130775000Y-75130000D02*
X120685000Y-75130000D01*
X130773000Y-75170000D02*
X120687000Y-75170000D01*
X130770000Y-75210000D02*
X120690000Y-75210000D01*
X130768000Y-75250000D02*
X120692000Y-75250000D01*
X130765000Y-75290000D02*
X120695000Y-75290000D01*
X130761000Y-75330000D02*
X120699000Y-75330000D01*
X130758000Y-75370000D02*
X120702000Y-75370000D01*
X130754000Y-75410000D02*
X120706000Y-75410000D01*
X130750000Y-75450000D02*
X120710000Y-75450000D01*
X130745000Y-75490000D02*
X120715000Y-75490000D01*
X130740000Y-75530000D02*
X120720000Y-75530000D01*
X130735000Y-75570000D02*
X120725000Y-75570000D01*
X130729000Y-75611000D02*
X120731000Y-75611000D01*
X130723000Y-75651000D02*
X120737000Y-75651000D01*
X130717000Y-75691000D02*
X120743000Y-75691000D01*
X130711000Y-75731000D02*
X120749000Y-75731000D01*
X130704000Y-75771000D02*
X120756000Y-75771000D01*
X130697000Y-75811000D02*
X120763000Y-75811000D01*
X130689000Y-75851000D02*
X120771000Y-75851000D01*
X130681000Y-75891000D02*
X120779000Y-75891000D01*
X130673000Y-75931000D02*
X120787000Y-75931000D01*
X130665000Y-75971000D02*
X120795000Y-75971000D01*
X130656000Y-76011000D02*
X120804000Y-76011000D01*
X130647000Y-76051000D02*
X120813000Y-76051000D01*
X130637000Y-76091000D02*
X120823000Y-76091000D01*
X130627000Y-76131000D02*
X120833000Y-76131000D01*
X130617000Y-76171000D02*
X120843000Y-76171000D01*
X130606000Y-76211000D02*
X126911000Y-76211000D01*
X124549000Y-76211000D02*
X120854000Y-76211000D01*
X130595000Y-76251000D02*
X126911000Y-76251000D01*
X124549000Y-76251000D02*
X120865000Y-76251000D01*
X130584000Y-76291000D02*
X126911000Y-76291000D01*
X124549000Y-76291000D02*
X120876000Y-76291000D01*
X130573000Y-76331000D02*
X126911000Y-76331000D01*
X124549000Y-76331000D02*
X120887000Y-76331000D01*
X130561000Y-76371000D02*
X126911000Y-76371000D01*
X124549000Y-76371000D02*
X120899000Y-76371000D01*
X130548000Y-76411000D02*
X126911000Y-76411000D01*
X124549000Y-76411000D02*
X120912000Y-76411000D01*
X130536000Y-76451000D02*
X126911000Y-76451000D01*
X124549000Y-76451000D02*
X120924000Y-76451000D01*
X130522000Y-76491000D02*
X126911000Y-76491000D01*
X124549000Y-76491000D02*
X120938000Y-76491000D01*
X130509000Y-76531000D02*
X126911000Y-76531000D01*
X124549000Y-76531000D02*
X120951000Y-76531000D01*
X130495000Y-76571000D02*
X126911000Y-76571000D01*
X124549000Y-76571000D02*
X120965000Y-76571000D01*
X130481000Y-76611000D02*
X126911000Y-76611000D01*
X124549000Y-76611000D02*
X120979000Y-76611000D01*
X130467000Y-76651000D02*
X126911000Y-76651000D01*
X124549000Y-76651000D02*
X120993000Y-76651000D01*
X130452000Y-76691000D02*
X126911000Y-76691000D01*
X124549000Y-76691000D02*
X121008000Y-76691000D01*
X130436000Y-76731000D02*
X126911000Y-76731000D01*
X124549000Y-76731000D02*
X121024000Y-76731000D01*
X130421000Y-76771000D02*
X126911000Y-76771000D01*
X124549000Y-76771000D02*
X121039000Y-76771000D01*
X130404000Y-76811000D02*
X126911000Y-76811000D01*
X124549000Y-76811000D02*
X121056000Y-76811000D01*
X130388000Y-76851000D02*
X126911000Y-76851000D01*
X124549000Y-76851000D02*
X121072000Y-76851000D01*
X130371000Y-76891000D02*
X126911000Y-76891000D01*
X124549000Y-76891000D02*
X121089000Y-76891000D01*
X130354000Y-76931000D02*
X126911000Y-76931000D01*
X124549000Y-76931000D02*
X121106000Y-76931000D01*
X130336000Y-76971000D02*
X126911000Y-76971000D01*
X124549000Y-76971000D02*
X121124000Y-76971000D01*
X130318000Y-77011000D02*
X126911000Y-77011000D01*
X124549000Y-77011000D02*
X121142000Y-77011000D01*
X130299000Y-77051000D02*
X126911000Y-77051000D01*
X124549000Y-77051000D02*
X121161000Y-77051000D01*
X130280000Y-77091000D02*
X126911000Y-77091000D01*
X124549000Y-77091000D02*
X121180000Y-77091000D01*
X130261000Y-77131000D02*
X126911000Y-77131000D01*
X124549000Y-77131000D02*
X121199000Y-77131000D01*
X130241000Y-77171000D02*
X126911000Y-77171000D01*
X124549000Y-77171000D02*
X121219000Y-77171000D01*
X130221000Y-77211000D02*
X126911000Y-77211000D01*
X124549000Y-77211000D02*
X121239000Y-77211000D01*
X130200000Y-77251000D02*
X126911000Y-77251000D01*
X124549000Y-77251000D02*
X121260000Y-77251000D01*
X130179000Y-77291000D02*
X126911000Y-77291000D01*
X124549000Y-77291000D02*
X121281000Y-77291000D01*
X130158000Y-77331000D02*
X126911000Y-77331000D01*
X124549000Y-77331000D02*
X121302000Y-77331000D01*
X130135000Y-77371000D02*
X126911000Y-77371000D01*
X124549000Y-77371000D02*
X121325000Y-77371000D01*
X130113000Y-77411000D02*
X126911000Y-77411000D01*
X124549000Y-77411000D02*
X121347000Y-77411000D01*
X130090000Y-77451000D02*
X126911000Y-77451000D01*
X124549000Y-77451000D02*
X121370000Y-77451000D01*
X130066000Y-77491000D02*
X126911000Y-77491000D01*
X124549000Y-77491000D02*
X121394000Y-77491000D01*
X130042000Y-77531000D02*
X126911000Y-77531000D01*
X124549000Y-77531000D02*
X121418000Y-77531000D01*
X130018000Y-77571000D02*
X126911000Y-77571000D01*
X124549000Y-77571000D02*
X121442000Y-77571000D01*
X129993000Y-77611000D02*
X126911000Y-77611000D01*
X124549000Y-77611000D02*
X121467000Y-77611000D01*
X129967000Y-77651000D02*
X126911000Y-77651000D01*
X124549000Y-77651000D02*
X121493000Y-77651000D01*
X129941000Y-77691000D02*
X126911000Y-77691000D01*
X124549000Y-77691000D02*
X121519000Y-77691000D01*
X129915000Y-77731000D02*
X126911000Y-77731000D01*
X124549000Y-77731000D02*
X121545000Y-77731000D01*
X129887000Y-77771000D02*
X126911000Y-77771000D01*
X124549000Y-77771000D02*
X121573000Y-77771000D01*
X129860000Y-77811000D02*
X126911000Y-77811000D01*
X124549000Y-77811000D02*
X121600000Y-77811000D01*
X129831000Y-77851000D02*
X126911000Y-77851000D01*
X124549000Y-77851000D02*
X121629000Y-77851000D01*
X129802000Y-77891000D02*
X126911000Y-77891000D01*
X124549000Y-77891000D02*
X121658000Y-77891000D01*
X129773000Y-77931000D02*
X126911000Y-77931000D01*
X124549000Y-77931000D02*
X121687000Y-77931000D01*
X129743000Y-77971000D02*
X126911000Y-77971000D01*
X124549000Y-77971000D02*
X121717000Y-77971000D01*
X129712000Y-78011000D02*
X126911000Y-78011000D01*
X124549000Y-78011000D02*
X121748000Y-78011000D01*
X129681000Y-78051000D02*
X126911000Y-78051000D01*
X124549000Y-78051000D02*
X121779000Y-78051000D01*
X129649000Y-78091000D02*
X126911000Y-78091000D01*
X124549000Y-78091000D02*
X121811000Y-78091000D01*
X129616000Y-78131000D02*
X126911000Y-78131000D01*
X124549000Y-78131000D02*
X121844000Y-78131000D01*
X129583000Y-78171000D02*
X126911000Y-78171000D01*
X124549000Y-78171000D02*
X121877000Y-78171000D01*
X129549000Y-78211000D02*
X126911000Y-78211000D01*
X124549000Y-78211000D02*
X121911000Y-78211000D01*
X129514000Y-78251000D02*
X126911000Y-78251000D01*
X124549000Y-78251000D02*
X121946000Y-78251000D01*
X129478000Y-78291000D02*
X126911000Y-78291000D01*
X124549000Y-78291000D02*
X121982000Y-78291000D01*
X129442000Y-78331000D02*
X126911000Y-78331000D01*
X124549000Y-78331000D02*
X122018000Y-78331000D01*
X129405000Y-78371000D02*
X126911000Y-78371000D01*
X124549000Y-78371000D02*
X122055000Y-78371000D01*
X129367000Y-78411000D02*
X126911000Y-78411000D01*
X124549000Y-78411000D02*
X122093000Y-78411000D01*
X129328000Y-78451000D02*
X126911000Y-78451000D01*
X124549000Y-78451000D02*
X122132000Y-78451000D01*
X129289000Y-78491000D02*
X126911000Y-78491000D01*
X124549000Y-78491000D02*
X122171000Y-78491000D01*
X129248000Y-78531000D02*
X126911000Y-78531000D01*
X124549000Y-78531000D02*
X122212000Y-78531000D01*
X129207000Y-78571000D02*
X122253000Y-78571000D01*
X129165000Y-78611000D02*
X122295000Y-78611000D01*
X129121000Y-78651000D02*
X122339000Y-78651000D01*
X129077000Y-78691000D02*
X122383000Y-78691000D01*
X129032000Y-78731000D02*
X122428000Y-78731000D01*
X128985000Y-78771000D02*
X122475000Y-78771000D01*
X128937000Y-78811000D02*
X122523000Y-78811000D01*
X128888000Y-78851000D02*
X122572000Y-78851000D01*
X128838000Y-78891000D02*
X122622000Y-78891000D01*
X128787000Y-78931000D02*
X122673000Y-78931000D01*
X128734000Y-78971000D02*
X122726000Y-78971000D01*
X128679000Y-79011000D02*
X122781000Y-79011000D01*
X128624000Y-79051000D02*
X122836000Y-79051000D01*
X128566000Y-79091000D02*
X122894000Y-79091000D01*
X128507000Y-79131000D02*
X122953000Y-79131000D01*
X128445000Y-79171000D02*
X123015000Y-79171000D01*
X128382000Y-79211000D02*
X123078000Y-79211000D01*
X128317000Y-79251000D02*
X123143000Y-79251000D01*
X128249000Y-79291000D02*
X123211000Y-79291000D01*
X128179000Y-79331000D02*
X123281000Y-79331000D01*
X128107000Y-79371000D02*
X123353000Y-79371000D01*
X128031000Y-79411000D02*
X123429000Y-79411000D01*
X127952000Y-79451000D02*
X123508000Y-79451000D01*
X127870000Y-79491000D02*
X123590000Y-79491000D01*
X127783000Y-79531000D02*
X123677000Y-79531000D01*
X127692000Y-79571000D02*
X123768000Y-79571000D01*
X127596000Y-79611000D02*
X123864000Y-79611000D01*
X127493000Y-79651000D02*
X123967000Y-79651000D01*
X127384000Y-79691000D02*
X124076000Y-79691000D01*
X127266000Y-79731000D02*
X124194000Y-79731000D01*
X127137000Y-79771000D02*
X124323000Y-79771000D01*
X126995000Y-79811000D02*
X124465000Y-79811000D01*
X126834000Y-79851000D02*
X124626000Y-79851000D01*
X126643000Y-79891000D02*
X124817000Y-79891000D01*
X126402000Y-79931000D02*
X125058000Y-79931000D01*
X126009000Y-79971000D02*
X125451000Y-79971000D01*
X125730000Y-69690000D02*
X125730000Y-71190000D01*
X126480000Y-70440000D02*
X124980000Y-70440000D01*
X126909194Y-91271525D02*
G75*
G03X126910000Y-81368667I-1179194J4951525D01*
G01*
X124550806Y-91271525D02*
G75*
G02X124550000Y-81368667I1179194J4951525D01*
G01*
X124550806Y-91271525D02*
G75*
G03X126910000Y-91271333I1179194J4951525D01*
G01*
X130780000Y-86320000D02*
X120680000Y-86320000D01*
X130780000Y-86360000D02*
X120680000Y-86360000D01*
X130780000Y-86400000D02*
X120680000Y-86400000D01*
X130779000Y-86440000D02*
X120681000Y-86440000D01*
X130778000Y-86480000D02*
X120682000Y-86480000D01*
X130777000Y-86520000D02*
X120683000Y-86520000D01*
X130775000Y-86560000D02*
X120685000Y-86560000D01*
X130773000Y-86600000D02*
X120687000Y-86600000D01*
X130770000Y-86640000D02*
X120690000Y-86640000D01*
X130768000Y-86680000D02*
X120692000Y-86680000D01*
X130765000Y-86720000D02*
X120695000Y-86720000D01*
X130761000Y-86760000D02*
X120699000Y-86760000D01*
X130758000Y-86800000D02*
X120702000Y-86800000D01*
X130754000Y-86840000D02*
X120706000Y-86840000D01*
X130750000Y-86880000D02*
X120710000Y-86880000D01*
X130745000Y-86920000D02*
X120715000Y-86920000D01*
X130740000Y-86960000D02*
X120720000Y-86960000D01*
X130735000Y-87000000D02*
X120725000Y-87000000D01*
X130729000Y-87041000D02*
X120731000Y-87041000D01*
X130723000Y-87081000D02*
X120737000Y-87081000D01*
X130717000Y-87121000D02*
X120743000Y-87121000D01*
X130711000Y-87161000D02*
X120749000Y-87161000D01*
X130704000Y-87201000D02*
X120756000Y-87201000D01*
X130697000Y-87241000D02*
X120763000Y-87241000D01*
X130689000Y-87281000D02*
X120771000Y-87281000D01*
X130681000Y-87321000D02*
X120779000Y-87321000D01*
X130673000Y-87361000D02*
X120787000Y-87361000D01*
X130665000Y-87401000D02*
X120795000Y-87401000D01*
X130656000Y-87441000D02*
X120804000Y-87441000D01*
X130647000Y-87481000D02*
X120813000Y-87481000D01*
X130637000Y-87521000D02*
X120823000Y-87521000D01*
X130627000Y-87561000D02*
X120833000Y-87561000D01*
X130617000Y-87601000D02*
X120843000Y-87601000D01*
X130606000Y-87641000D02*
X126911000Y-87641000D01*
X124549000Y-87641000D02*
X120854000Y-87641000D01*
X130595000Y-87681000D02*
X126911000Y-87681000D01*
X124549000Y-87681000D02*
X120865000Y-87681000D01*
X130584000Y-87721000D02*
X126911000Y-87721000D01*
X124549000Y-87721000D02*
X120876000Y-87721000D01*
X130573000Y-87761000D02*
X126911000Y-87761000D01*
X124549000Y-87761000D02*
X120887000Y-87761000D01*
X130561000Y-87801000D02*
X126911000Y-87801000D01*
X124549000Y-87801000D02*
X120899000Y-87801000D01*
X130548000Y-87841000D02*
X126911000Y-87841000D01*
X124549000Y-87841000D02*
X120912000Y-87841000D01*
X130536000Y-87881000D02*
X126911000Y-87881000D01*
X124549000Y-87881000D02*
X120924000Y-87881000D01*
X130522000Y-87921000D02*
X126911000Y-87921000D01*
X124549000Y-87921000D02*
X120938000Y-87921000D01*
X130509000Y-87961000D02*
X126911000Y-87961000D01*
X124549000Y-87961000D02*
X120951000Y-87961000D01*
X130495000Y-88001000D02*
X126911000Y-88001000D01*
X124549000Y-88001000D02*
X120965000Y-88001000D01*
X130481000Y-88041000D02*
X126911000Y-88041000D01*
X124549000Y-88041000D02*
X120979000Y-88041000D01*
X130467000Y-88081000D02*
X126911000Y-88081000D01*
X124549000Y-88081000D02*
X120993000Y-88081000D01*
X130452000Y-88121000D02*
X126911000Y-88121000D01*
X124549000Y-88121000D02*
X121008000Y-88121000D01*
X130436000Y-88161000D02*
X126911000Y-88161000D01*
X124549000Y-88161000D02*
X121024000Y-88161000D01*
X130421000Y-88201000D02*
X126911000Y-88201000D01*
X124549000Y-88201000D02*
X121039000Y-88201000D01*
X130404000Y-88241000D02*
X126911000Y-88241000D01*
X124549000Y-88241000D02*
X121056000Y-88241000D01*
X130388000Y-88281000D02*
X126911000Y-88281000D01*
X124549000Y-88281000D02*
X121072000Y-88281000D01*
X130371000Y-88321000D02*
X126911000Y-88321000D01*
X124549000Y-88321000D02*
X121089000Y-88321000D01*
X130354000Y-88361000D02*
X126911000Y-88361000D01*
X124549000Y-88361000D02*
X121106000Y-88361000D01*
X130336000Y-88401000D02*
X126911000Y-88401000D01*
X124549000Y-88401000D02*
X121124000Y-88401000D01*
X130318000Y-88441000D02*
X126911000Y-88441000D01*
X124549000Y-88441000D02*
X121142000Y-88441000D01*
X130299000Y-88481000D02*
X126911000Y-88481000D01*
X124549000Y-88481000D02*
X121161000Y-88481000D01*
X130280000Y-88521000D02*
X126911000Y-88521000D01*
X124549000Y-88521000D02*
X121180000Y-88521000D01*
X130261000Y-88561000D02*
X126911000Y-88561000D01*
X124549000Y-88561000D02*
X121199000Y-88561000D01*
X130241000Y-88601000D02*
X126911000Y-88601000D01*
X124549000Y-88601000D02*
X121219000Y-88601000D01*
X130221000Y-88641000D02*
X126911000Y-88641000D01*
X124549000Y-88641000D02*
X121239000Y-88641000D01*
X130200000Y-88681000D02*
X126911000Y-88681000D01*
X124549000Y-88681000D02*
X121260000Y-88681000D01*
X130179000Y-88721000D02*
X126911000Y-88721000D01*
X124549000Y-88721000D02*
X121281000Y-88721000D01*
X130158000Y-88761000D02*
X126911000Y-88761000D01*
X124549000Y-88761000D02*
X121302000Y-88761000D01*
X130135000Y-88801000D02*
X126911000Y-88801000D01*
X124549000Y-88801000D02*
X121325000Y-88801000D01*
X130113000Y-88841000D02*
X126911000Y-88841000D01*
X124549000Y-88841000D02*
X121347000Y-88841000D01*
X130090000Y-88881000D02*
X126911000Y-88881000D01*
X124549000Y-88881000D02*
X121370000Y-88881000D01*
X130066000Y-88921000D02*
X126911000Y-88921000D01*
X124549000Y-88921000D02*
X121394000Y-88921000D01*
X130042000Y-88961000D02*
X126911000Y-88961000D01*
X124549000Y-88961000D02*
X121418000Y-88961000D01*
X130018000Y-89001000D02*
X126911000Y-89001000D01*
X124549000Y-89001000D02*
X121442000Y-89001000D01*
X129993000Y-89041000D02*
X126911000Y-89041000D01*
X124549000Y-89041000D02*
X121467000Y-89041000D01*
X129967000Y-89081000D02*
X126911000Y-89081000D01*
X124549000Y-89081000D02*
X121493000Y-89081000D01*
X129941000Y-89121000D02*
X126911000Y-89121000D01*
X124549000Y-89121000D02*
X121519000Y-89121000D01*
X129915000Y-89161000D02*
X126911000Y-89161000D01*
X124549000Y-89161000D02*
X121545000Y-89161000D01*
X129887000Y-89201000D02*
X126911000Y-89201000D01*
X124549000Y-89201000D02*
X121573000Y-89201000D01*
X129860000Y-89241000D02*
X126911000Y-89241000D01*
X124549000Y-89241000D02*
X121600000Y-89241000D01*
X129831000Y-89281000D02*
X126911000Y-89281000D01*
X124549000Y-89281000D02*
X121629000Y-89281000D01*
X129802000Y-89321000D02*
X126911000Y-89321000D01*
X124549000Y-89321000D02*
X121658000Y-89321000D01*
X129773000Y-89361000D02*
X126911000Y-89361000D01*
X124549000Y-89361000D02*
X121687000Y-89361000D01*
X129743000Y-89401000D02*
X126911000Y-89401000D01*
X124549000Y-89401000D02*
X121717000Y-89401000D01*
X129712000Y-89441000D02*
X126911000Y-89441000D01*
X124549000Y-89441000D02*
X121748000Y-89441000D01*
X129681000Y-89481000D02*
X126911000Y-89481000D01*
X124549000Y-89481000D02*
X121779000Y-89481000D01*
X129649000Y-89521000D02*
X126911000Y-89521000D01*
X124549000Y-89521000D02*
X121811000Y-89521000D01*
X129616000Y-89561000D02*
X126911000Y-89561000D01*
X124549000Y-89561000D02*
X121844000Y-89561000D01*
X129583000Y-89601000D02*
X126911000Y-89601000D01*
X124549000Y-89601000D02*
X121877000Y-89601000D01*
X129549000Y-89641000D02*
X126911000Y-89641000D01*
X124549000Y-89641000D02*
X121911000Y-89641000D01*
X129514000Y-89681000D02*
X126911000Y-89681000D01*
X124549000Y-89681000D02*
X121946000Y-89681000D01*
X129478000Y-89721000D02*
X126911000Y-89721000D01*
X124549000Y-89721000D02*
X121982000Y-89721000D01*
X129442000Y-89761000D02*
X126911000Y-89761000D01*
X124549000Y-89761000D02*
X122018000Y-89761000D01*
X129405000Y-89801000D02*
X126911000Y-89801000D01*
X124549000Y-89801000D02*
X122055000Y-89801000D01*
X129367000Y-89841000D02*
X126911000Y-89841000D01*
X124549000Y-89841000D02*
X122093000Y-89841000D01*
X129328000Y-89881000D02*
X126911000Y-89881000D01*
X124549000Y-89881000D02*
X122132000Y-89881000D01*
X129289000Y-89921000D02*
X126911000Y-89921000D01*
X124549000Y-89921000D02*
X122171000Y-89921000D01*
X129248000Y-89961000D02*
X126911000Y-89961000D01*
X124549000Y-89961000D02*
X122212000Y-89961000D01*
X129207000Y-90001000D02*
X122253000Y-90001000D01*
X129165000Y-90041000D02*
X122295000Y-90041000D01*
X129121000Y-90081000D02*
X122339000Y-90081000D01*
X129077000Y-90121000D02*
X122383000Y-90121000D01*
X129032000Y-90161000D02*
X122428000Y-90161000D01*
X128985000Y-90201000D02*
X122475000Y-90201000D01*
X128937000Y-90241000D02*
X122523000Y-90241000D01*
X128888000Y-90281000D02*
X122572000Y-90281000D01*
X128838000Y-90321000D02*
X122622000Y-90321000D01*
X128787000Y-90361000D02*
X122673000Y-90361000D01*
X128734000Y-90401000D02*
X122726000Y-90401000D01*
X128679000Y-90441000D02*
X122781000Y-90441000D01*
X128624000Y-90481000D02*
X122836000Y-90481000D01*
X128566000Y-90521000D02*
X122894000Y-90521000D01*
X128507000Y-90561000D02*
X122953000Y-90561000D01*
X128445000Y-90601000D02*
X123015000Y-90601000D01*
X128382000Y-90641000D02*
X123078000Y-90641000D01*
X128317000Y-90681000D02*
X123143000Y-90681000D01*
X128249000Y-90721000D02*
X123211000Y-90721000D01*
X128179000Y-90761000D02*
X123281000Y-90761000D01*
X128107000Y-90801000D02*
X123353000Y-90801000D01*
X128031000Y-90841000D02*
X123429000Y-90841000D01*
X127952000Y-90881000D02*
X123508000Y-90881000D01*
X127870000Y-90921000D02*
X123590000Y-90921000D01*
X127783000Y-90961000D02*
X123677000Y-90961000D01*
X127692000Y-91001000D02*
X123768000Y-91001000D01*
X127596000Y-91041000D02*
X123864000Y-91041000D01*
X127493000Y-91081000D02*
X123967000Y-91081000D01*
X127384000Y-91121000D02*
X124076000Y-91121000D01*
X127266000Y-91161000D02*
X124194000Y-91161000D01*
X127137000Y-91201000D02*
X124323000Y-91201000D01*
X126995000Y-91241000D02*
X124465000Y-91241000D01*
X126834000Y-91281000D02*
X124626000Y-91281000D01*
X126643000Y-91321000D02*
X124817000Y-91321000D01*
X126402000Y-91361000D02*
X125058000Y-91361000D01*
X126009000Y-91401000D02*
X125451000Y-91401000D01*
X125730000Y-81120000D02*
X125730000Y-82620000D01*
X126480000Y-81870000D02*
X124980000Y-81870000D01*
X154590000Y-113700000D02*
X155290000Y-113700000D01*
X155290000Y-114900000D02*
X154590000Y-114900000D01*
X138780000Y-114900000D02*
X138080000Y-114900000D01*
X138080000Y-113700000D02*
X138780000Y-113700000D01*
X104049194Y-91271525D02*
G75*
G03X104050000Y-81368667I-1179194J4951525D01*
G01*
X101690806Y-91271525D02*
G75*
G02X101690000Y-81368667I1179194J4951525D01*
G01*
X101690806Y-91271525D02*
G75*
G03X104050000Y-91271333I1179194J4951525D01*
G01*
X107920000Y-86320000D02*
X97820000Y-86320000D01*
X107920000Y-86360000D02*
X97820000Y-86360000D01*
X107920000Y-86400000D02*
X97820000Y-86400000D01*
X107919000Y-86440000D02*
X97821000Y-86440000D01*
X107918000Y-86480000D02*
X97822000Y-86480000D01*
X107917000Y-86520000D02*
X97823000Y-86520000D01*
X107915000Y-86560000D02*
X97825000Y-86560000D01*
X107913000Y-86600000D02*
X97827000Y-86600000D01*
X107910000Y-86640000D02*
X97830000Y-86640000D01*
X107908000Y-86680000D02*
X97832000Y-86680000D01*
X107905000Y-86720000D02*
X97835000Y-86720000D01*
X107901000Y-86760000D02*
X97839000Y-86760000D01*
X107898000Y-86800000D02*
X97842000Y-86800000D01*
X107894000Y-86840000D02*
X97846000Y-86840000D01*
X107890000Y-86880000D02*
X97850000Y-86880000D01*
X107885000Y-86920000D02*
X97855000Y-86920000D01*
X107880000Y-86960000D02*
X97860000Y-86960000D01*
X107875000Y-87000000D02*
X97865000Y-87000000D01*
X107869000Y-87041000D02*
X97871000Y-87041000D01*
X107863000Y-87081000D02*
X97877000Y-87081000D01*
X107857000Y-87121000D02*
X97883000Y-87121000D01*
X107851000Y-87161000D02*
X97889000Y-87161000D01*
X107844000Y-87201000D02*
X97896000Y-87201000D01*
X107837000Y-87241000D02*
X97903000Y-87241000D01*
X107829000Y-87281000D02*
X97911000Y-87281000D01*
X107821000Y-87321000D02*
X97919000Y-87321000D01*
X107813000Y-87361000D02*
X97927000Y-87361000D01*
X107805000Y-87401000D02*
X97935000Y-87401000D01*
X107796000Y-87441000D02*
X97944000Y-87441000D01*
X107787000Y-87481000D02*
X97953000Y-87481000D01*
X107777000Y-87521000D02*
X97963000Y-87521000D01*
X107767000Y-87561000D02*
X97973000Y-87561000D01*
X107757000Y-87601000D02*
X97983000Y-87601000D01*
X107746000Y-87641000D02*
X104051000Y-87641000D01*
X101689000Y-87641000D02*
X97994000Y-87641000D01*
X107735000Y-87681000D02*
X104051000Y-87681000D01*
X101689000Y-87681000D02*
X98005000Y-87681000D01*
X107724000Y-87721000D02*
X104051000Y-87721000D01*
X101689000Y-87721000D02*
X98016000Y-87721000D01*
X107713000Y-87761000D02*
X104051000Y-87761000D01*
X101689000Y-87761000D02*
X98027000Y-87761000D01*
X107701000Y-87801000D02*
X104051000Y-87801000D01*
X101689000Y-87801000D02*
X98039000Y-87801000D01*
X107688000Y-87841000D02*
X104051000Y-87841000D01*
X101689000Y-87841000D02*
X98052000Y-87841000D01*
X107676000Y-87881000D02*
X104051000Y-87881000D01*
X101689000Y-87881000D02*
X98064000Y-87881000D01*
X107662000Y-87921000D02*
X104051000Y-87921000D01*
X101689000Y-87921000D02*
X98078000Y-87921000D01*
X107649000Y-87961000D02*
X104051000Y-87961000D01*
X101689000Y-87961000D02*
X98091000Y-87961000D01*
X107635000Y-88001000D02*
X104051000Y-88001000D01*
X101689000Y-88001000D02*
X98105000Y-88001000D01*
X107621000Y-88041000D02*
X104051000Y-88041000D01*
X101689000Y-88041000D02*
X98119000Y-88041000D01*
X107607000Y-88081000D02*
X104051000Y-88081000D01*
X101689000Y-88081000D02*
X98133000Y-88081000D01*
X107592000Y-88121000D02*
X104051000Y-88121000D01*
X101689000Y-88121000D02*
X98148000Y-88121000D01*
X107576000Y-88161000D02*
X104051000Y-88161000D01*
X101689000Y-88161000D02*
X98164000Y-88161000D01*
X107561000Y-88201000D02*
X104051000Y-88201000D01*
X101689000Y-88201000D02*
X98179000Y-88201000D01*
X107544000Y-88241000D02*
X104051000Y-88241000D01*
X101689000Y-88241000D02*
X98196000Y-88241000D01*
X107528000Y-88281000D02*
X104051000Y-88281000D01*
X101689000Y-88281000D02*
X98212000Y-88281000D01*
X107511000Y-88321000D02*
X104051000Y-88321000D01*
X101689000Y-88321000D02*
X98229000Y-88321000D01*
X107494000Y-88361000D02*
X104051000Y-88361000D01*
X101689000Y-88361000D02*
X98246000Y-88361000D01*
X107476000Y-88401000D02*
X104051000Y-88401000D01*
X101689000Y-88401000D02*
X98264000Y-88401000D01*
X107458000Y-88441000D02*
X104051000Y-88441000D01*
X101689000Y-88441000D02*
X98282000Y-88441000D01*
X107439000Y-88481000D02*
X104051000Y-88481000D01*
X101689000Y-88481000D02*
X98301000Y-88481000D01*
X107420000Y-88521000D02*
X104051000Y-88521000D01*
X101689000Y-88521000D02*
X98320000Y-88521000D01*
X107401000Y-88561000D02*
X104051000Y-88561000D01*
X101689000Y-88561000D02*
X98339000Y-88561000D01*
X107381000Y-88601000D02*
X104051000Y-88601000D01*
X101689000Y-88601000D02*
X98359000Y-88601000D01*
X107361000Y-88641000D02*
X104051000Y-88641000D01*
X101689000Y-88641000D02*
X98379000Y-88641000D01*
X107340000Y-88681000D02*
X104051000Y-88681000D01*
X101689000Y-88681000D02*
X98400000Y-88681000D01*
X107319000Y-88721000D02*
X104051000Y-88721000D01*
X101689000Y-88721000D02*
X98421000Y-88721000D01*
X107298000Y-88761000D02*
X104051000Y-88761000D01*
X101689000Y-88761000D02*
X98442000Y-88761000D01*
X107275000Y-88801000D02*
X104051000Y-88801000D01*
X101689000Y-88801000D02*
X98465000Y-88801000D01*
X107253000Y-88841000D02*
X104051000Y-88841000D01*
X101689000Y-88841000D02*
X98487000Y-88841000D01*
X107230000Y-88881000D02*
X104051000Y-88881000D01*
X101689000Y-88881000D02*
X98510000Y-88881000D01*
X107206000Y-88921000D02*
X104051000Y-88921000D01*
X101689000Y-88921000D02*
X98534000Y-88921000D01*
X107182000Y-88961000D02*
X104051000Y-88961000D01*
X101689000Y-88961000D02*
X98558000Y-88961000D01*
X107158000Y-89001000D02*
X104051000Y-89001000D01*
X101689000Y-89001000D02*
X98582000Y-89001000D01*
X107133000Y-89041000D02*
X104051000Y-89041000D01*
X101689000Y-89041000D02*
X98607000Y-89041000D01*
X107107000Y-89081000D02*
X104051000Y-89081000D01*
X101689000Y-89081000D02*
X98633000Y-89081000D01*
X107081000Y-89121000D02*
X104051000Y-89121000D01*
X101689000Y-89121000D02*
X98659000Y-89121000D01*
X107055000Y-89161000D02*
X104051000Y-89161000D01*
X101689000Y-89161000D02*
X98685000Y-89161000D01*
X107027000Y-89201000D02*
X104051000Y-89201000D01*
X101689000Y-89201000D02*
X98713000Y-89201000D01*
X107000000Y-89241000D02*
X104051000Y-89241000D01*
X101689000Y-89241000D02*
X98740000Y-89241000D01*
X106971000Y-89281000D02*
X104051000Y-89281000D01*
X101689000Y-89281000D02*
X98769000Y-89281000D01*
X106942000Y-89321000D02*
X104051000Y-89321000D01*
X101689000Y-89321000D02*
X98798000Y-89321000D01*
X106913000Y-89361000D02*
X104051000Y-89361000D01*
X101689000Y-89361000D02*
X98827000Y-89361000D01*
X106883000Y-89401000D02*
X104051000Y-89401000D01*
X101689000Y-89401000D02*
X98857000Y-89401000D01*
X106852000Y-89441000D02*
X104051000Y-89441000D01*
X101689000Y-89441000D02*
X98888000Y-89441000D01*
X106821000Y-89481000D02*
X104051000Y-89481000D01*
X101689000Y-89481000D02*
X98919000Y-89481000D01*
X106789000Y-89521000D02*
X104051000Y-89521000D01*
X101689000Y-89521000D02*
X98951000Y-89521000D01*
X106756000Y-89561000D02*
X104051000Y-89561000D01*
X101689000Y-89561000D02*
X98984000Y-89561000D01*
X106723000Y-89601000D02*
X104051000Y-89601000D01*
X101689000Y-89601000D02*
X99017000Y-89601000D01*
X106689000Y-89641000D02*
X104051000Y-89641000D01*
X101689000Y-89641000D02*
X99051000Y-89641000D01*
X106654000Y-89681000D02*
X104051000Y-89681000D01*
X101689000Y-89681000D02*
X99086000Y-89681000D01*
X106618000Y-89721000D02*
X104051000Y-89721000D01*
X101689000Y-89721000D02*
X99122000Y-89721000D01*
X106582000Y-89761000D02*
X104051000Y-89761000D01*
X101689000Y-89761000D02*
X99158000Y-89761000D01*
X106545000Y-89801000D02*
X104051000Y-89801000D01*
X101689000Y-89801000D02*
X99195000Y-89801000D01*
X106507000Y-89841000D02*
X104051000Y-89841000D01*
X101689000Y-89841000D02*
X99233000Y-89841000D01*
X106468000Y-89881000D02*
X104051000Y-89881000D01*
X101689000Y-89881000D02*
X99272000Y-89881000D01*
X106429000Y-89921000D02*
X104051000Y-89921000D01*
X101689000Y-89921000D02*
X99311000Y-89921000D01*
X106388000Y-89961000D02*
X104051000Y-89961000D01*
X101689000Y-89961000D02*
X99352000Y-89961000D01*
X106347000Y-90001000D02*
X99393000Y-90001000D01*
X106305000Y-90041000D02*
X99435000Y-90041000D01*
X106261000Y-90081000D02*
X99479000Y-90081000D01*
X106217000Y-90121000D02*
X99523000Y-90121000D01*
X106172000Y-90161000D02*
X99568000Y-90161000D01*
X106125000Y-90201000D02*
X99615000Y-90201000D01*
X106077000Y-90241000D02*
X99663000Y-90241000D01*
X106028000Y-90281000D02*
X99712000Y-90281000D01*
X105978000Y-90321000D02*
X99762000Y-90321000D01*
X105927000Y-90361000D02*
X99813000Y-90361000D01*
X105874000Y-90401000D02*
X99866000Y-90401000D01*
X105819000Y-90441000D02*
X99921000Y-90441000D01*
X105764000Y-90481000D02*
X99976000Y-90481000D01*
X105706000Y-90521000D02*
X100034000Y-90521000D01*
X105647000Y-90561000D02*
X100093000Y-90561000D01*
X105585000Y-90601000D02*
X100155000Y-90601000D01*
X105522000Y-90641000D02*
X100218000Y-90641000D01*
X105457000Y-90681000D02*
X100283000Y-90681000D01*
X105389000Y-90721000D02*
X100351000Y-90721000D01*
X105319000Y-90761000D02*
X100421000Y-90761000D01*
X105247000Y-90801000D02*
X100493000Y-90801000D01*
X105171000Y-90841000D02*
X100569000Y-90841000D01*
X105092000Y-90881000D02*
X100648000Y-90881000D01*
X105010000Y-90921000D02*
X100730000Y-90921000D01*
X104923000Y-90961000D02*
X100817000Y-90961000D01*
X104832000Y-91001000D02*
X100908000Y-91001000D01*
X104736000Y-91041000D02*
X101004000Y-91041000D01*
X104633000Y-91081000D02*
X101107000Y-91081000D01*
X104524000Y-91121000D02*
X101216000Y-91121000D01*
X104406000Y-91161000D02*
X101334000Y-91161000D01*
X104277000Y-91201000D02*
X101463000Y-91201000D01*
X104135000Y-91241000D02*
X101605000Y-91241000D01*
X103974000Y-91281000D02*
X101766000Y-91281000D01*
X103783000Y-91321000D02*
X101957000Y-91321000D01*
X103542000Y-91361000D02*
X102198000Y-91361000D01*
X103149000Y-91401000D02*
X102591000Y-91401000D01*
X102870000Y-81120000D02*
X102870000Y-82620000D01*
X103620000Y-81870000D02*
X102120000Y-81870000D01*
X154520000Y-55920000D02*
X152820000Y-55920000D01*
X152820000Y-55970000D02*
X152820000Y-60020000D01*
X154520000Y-55970000D02*
X154520000Y-60020000D01*
X150710000Y-55920000D02*
X149010000Y-55920000D01*
X149010000Y-55970000D02*
X149010000Y-60020000D01*
X150710000Y-55970000D02*
X150710000Y-60020000D01*
X146900000Y-55920000D02*
X145200000Y-55920000D01*
X145200000Y-55970000D02*
X145200000Y-60020000D01*
X146900000Y-55970000D02*
X146900000Y-60020000D01*
X143090000Y-55920000D02*
X141390000Y-55920000D01*
X141390000Y-55970000D02*
X141390000Y-60020000D01*
X143090000Y-55970000D02*
X143090000Y-60020000D01*
X139820000Y-119520000D02*
X139820000Y-116700000D01*
X139820000Y-116700000D02*
X134500000Y-116700000D01*
X134500000Y-116700000D02*
X134500000Y-119520000D01*
X134500000Y-119520000D02*
X139820000Y-119520000D01*
X140960000Y-118110000D02*
X139820000Y-118110000D01*
X133360000Y-118110000D02*
X134500000Y-118110000D01*
X138980000Y-119520000D02*
X138980000Y-116700000D01*
D11*
X154570000Y-64240000D02*
X154570000Y-67840000D01*
X154570000Y-67840000D02*
X154070000Y-68340000D01*
X154070000Y-68340000D02*
X153270000Y-68340000D01*
X153270000Y-68340000D02*
X152770000Y-67840000D01*
X152770000Y-67840000D02*
X152770000Y-64240000D01*
X152770000Y-64240000D02*
X153270000Y-63740000D01*
X153270000Y-63740000D02*
X154070000Y-63740000D01*
X154070000Y-63740000D02*
X154570000Y-64240000D01*
X150760000Y-64240000D02*
X150760000Y-67840000D01*
X150760000Y-67840000D02*
X150260000Y-68340000D01*
X150260000Y-68340000D02*
X149460000Y-68340000D01*
X149460000Y-68340000D02*
X148960000Y-67840000D01*
X148960000Y-67840000D02*
X148960000Y-64240000D01*
X148960000Y-64240000D02*
X149460000Y-63740000D01*
X149460000Y-63740000D02*
X150260000Y-63740000D01*
X150260000Y-63740000D02*
X150760000Y-64240000D01*
X120280000Y-47730000D02*
X120280000Y-51330000D01*
X120280000Y-51330000D02*
X119780000Y-51830000D01*
X119780000Y-51830000D02*
X118980000Y-51830000D01*
X118980000Y-51830000D02*
X118480000Y-51330000D01*
X118480000Y-51330000D02*
X118480000Y-47730000D01*
X118480000Y-47730000D02*
X118980000Y-47230000D01*
X118980000Y-47230000D02*
X119780000Y-47230000D01*
X119780000Y-47230000D02*
X120280000Y-47730000D01*
X146950000Y-64240000D02*
X146950000Y-67840000D01*
X146950000Y-67840000D02*
X146450000Y-68340000D01*
X146450000Y-68340000D02*
X145650000Y-68340000D01*
X145650000Y-68340000D02*
X145150000Y-67840000D01*
X145150000Y-67840000D02*
X145150000Y-64240000D01*
X145150000Y-64240000D02*
X145650000Y-63740000D01*
X145650000Y-63740000D02*
X146450000Y-63740000D01*
X146450000Y-63740000D02*
X146950000Y-64240000D01*
X143140000Y-64240000D02*
X143140000Y-67840000D01*
X143140000Y-67840000D02*
X142640000Y-68340000D01*
X142640000Y-68340000D02*
X141840000Y-68340000D01*
X141840000Y-68340000D02*
X141340000Y-67840000D01*
X141340000Y-67840000D02*
X141340000Y-64240000D01*
X141340000Y-64240000D02*
X141840000Y-63740000D01*
X141840000Y-63740000D02*
X142640000Y-63740000D01*
X142640000Y-63740000D02*
X143140000Y-64240000D01*
D12*
X157360000Y-72390000D02*
X157360000Y-75050000D01*
X157360000Y-75050000D02*
X162680000Y-75050000D01*
X162680000Y-75050000D02*
X162680000Y-69730000D01*
X162680000Y-69730000D02*
X160020000Y-69730000D01*
X160020000Y-69730000D02*
X160020000Y-72390000D01*
X160020000Y-72390000D02*
X157360000Y-72390000D01*
X157360000Y-71120000D02*
X157360000Y-69730000D01*
X157360000Y-69730000D02*
X158750000Y-69730000D01*
X157360000Y-64770000D02*
X157360000Y-69970000D01*
X157360000Y-69970000D02*
X162680000Y-69970000D01*
X162680000Y-69970000D02*
X162680000Y-62110000D01*
X162680000Y-62110000D02*
X160020000Y-62110000D01*
X160020000Y-62110000D02*
X160020000Y-64770000D01*
X160020000Y-64770000D02*
X157360000Y-64770000D01*
X157360000Y-63500000D02*
X157360000Y-62110000D01*
X157360000Y-62110000D02*
X158750000Y-62110000D01*
D11*
X154745000Y-49800000D02*
X154745000Y-51800000D01*
X152595000Y-51800000D02*
X152595000Y-49800000D01*
X150935000Y-49800000D02*
X150935000Y-51800000D01*
X148785000Y-51800000D02*
X148785000Y-49800000D01*
X147125000Y-49800000D02*
X147125000Y-51800000D01*
X144975000Y-51800000D02*
X144975000Y-49800000D01*
X143315000Y-49800000D02*
X143315000Y-51800000D01*
X141165000Y-51800000D02*
X141165000Y-49800000D01*
X152670000Y-106875000D02*
X154670000Y-106875000D01*
X154670000Y-109025000D02*
X152670000Y-109025000D01*
X138160000Y-109025000D02*
X136160000Y-109025000D01*
X136160000Y-106875000D02*
X138160000Y-106875000D01*
X122428000Y-103886000D02*
X123698000Y-103886000D01*
X123177300Y-103098600D02*
X122923300Y-103136700D01*
X122923300Y-103136700D02*
X122643900Y-103314500D01*
X122643900Y-103314500D02*
X122428000Y-103632000D01*
X122428000Y-103632000D02*
X122415300Y-104076500D01*
X122415300Y-104076500D02*
X122618500Y-104432100D01*
X122618500Y-104432100D02*
X122910600Y-104609900D01*
X122910600Y-104609900D02*
X123228100Y-104660700D01*
X123228100Y-104660700D02*
X123634500Y-104559100D01*
X123634500Y-104559100D02*
X123888500Y-104216200D01*
X123888500Y-104216200D02*
X123977400Y-104038400D01*
X126238000Y-95504000D02*
X126238000Y-105156000D01*
X123190000Y-105156000D02*
X121920000Y-105156000D01*
X121920000Y-105156000D02*
X121920000Y-95504000D01*
X121920000Y-95504000D02*
X127000000Y-95504000D01*
X127000000Y-105156000D02*
X124460000Y-105156000D01*
X124460000Y-105156000D02*
X123190000Y-105156000D01*
X122428000Y-115316000D02*
X123698000Y-115316000D01*
X123177300Y-114528600D02*
X122923300Y-114566700D01*
X122923300Y-114566700D02*
X122643900Y-114744500D01*
X122643900Y-114744500D02*
X122428000Y-115062000D01*
X122428000Y-115062000D02*
X122415300Y-115506500D01*
X122415300Y-115506500D02*
X122618500Y-115862100D01*
X122618500Y-115862100D02*
X122910600Y-116039900D01*
X122910600Y-116039900D02*
X123228100Y-116090700D01*
X123228100Y-116090700D02*
X123634500Y-115989100D01*
X123634500Y-115989100D02*
X123888500Y-115646200D01*
X123888500Y-115646200D02*
X123977400Y-115468400D01*
X126238000Y-106934000D02*
X126238000Y-116586000D01*
X123190000Y-116586000D02*
X121920000Y-116586000D01*
X121920000Y-116586000D02*
X121920000Y-106934000D01*
X121920000Y-106934000D02*
X127000000Y-106934000D01*
X127000000Y-116586000D02*
X124460000Y-116586000D01*
X124460000Y-116586000D02*
X123190000Y-116586000D01*
X87570000Y-57295000D02*
X67370000Y-57295000D01*
X87570000Y-91295000D02*
X87570000Y-57295000D01*
X87370000Y-91295000D02*
X87570000Y-91295000D01*
X67370000Y-91295000D02*
X87370000Y-91295000D01*
X67370000Y-57295000D02*
X67370000Y-91295000D01*
X159766000Y-101219000D02*
X159766000Y-104648000D01*
X150114000Y-101219000D02*
X150114000Y-104648000D01*
X160274000Y-100076000D02*
X149606000Y-100076000D01*
X156718000Y-101092000D02*
X156718000Y-99822000D01*
X153162000Y-101092000D02*
X153162000Y-99822000D01*
X149606000Y-101219000D02*
X160274000Y-101219000D01*
X160274000Y-104648000D02*
X149606000Y-104648000D01*
X149606000Y-99822000D02*
X149606000Y-104648000D01*
X160274000Y-99822000D02*
X160274000Y-104648000D01*
X160274000Y-99822000D02*
X149606000Y-99822000D01*
X143256000Y-101219000D02*
X143256000Y-104648000D01*
X133604000Y-101219000D02*
X133604000Y-104648000D01*
X143764000Y-100076000D02*
X133096000Y-100076000D01*
X140208000Y-101092000D02*
X140208000Y-99822000D01*
X136652000Y-101092000D02*
X136652000Y-99822000D01*
X133096000Y-101219000D02*
X143764000Y-101219000D01*
X143764000Y-104648000D02*
X133096000Y-104648000D01*
X133096000Y-99822000D02*
X133096000Y-104648000D01*
X143764000Y-99822000D02*
X143764000Y-104648000D01*
X143764000Y-99822000D02*
X133096000Y-99822000D01*
D12*
X144150000Y-79610000D02*
X144150000Y-78350000D01*
X144150000Y-72790000D02*
X144150000Y-74050000D01*
X140390000Y-79610000D02*
X144150000Y-79610000D01*
X138140000Y-72790000D02*
X144150000Y-72790000D01*
X144150000Y-89770000D02*
X144150000Y-88510000D01*
X144150000Y-82950000D02*
X144150000Y-84210000D01*
X140390000Y-89770000D02*
X144150000Y-89770000D01*
X138140000Y-82950000D02*
X144150000Y-82950000D01*
D11*
X82550000Y-45720000D02*
X80010000Y-45720000D01*
X82550000Y-44450000D02*
X82550000Y-50800000D01*
X82550000Y-50800000D02*
X80645000Y-50800000D01*
X80645000Y-50800000D02*
X80010000Y-50800000D01*
X80010000Y-50800000D02*
X80010000Y-44450000D01*
X87630000Y-45720000D02*
X85090000Y-45720000D01*
X87630000Y-44450000D02*
X87630000Y-50800000D01*
X87630000Y-50800000D02*
X85090000Y-50800000D01*
X85090000Y-50800000D02*
X85090000Y-44450000D01*
X92710000Y-45720000D02*
X90170000Y-45720000D01*
X92710000Y-44450000D02*
X92710000Y-50800000D01*
X92710000Y-50800000D02*
X90170000Y-50800000D01*
X90170000Y-50800000D02*
X90170000Y-44450000D01*
X93980000Y-54610000D02*
X93980000Y-44450000D01*
X78740000Y-54610000D02*
X78740000Y-44450000D01*
X78740000Y-52070000D02*
X93980000Y-52070000D01*
X93980000Y-54610000D02*
X78740000Y-54610000D01*
X78740000Y-44450000D02*
X93980000Y-44450000D01*
X97790000Y-45720000D02*
X95250000Y-45720000D01*
X97790000Y-44450000D02*
X97790000Y-50800000D01*
X97790000Y-50800000D02*
X95885000Y-50800000D01*
X95885000Y-50800000D02*
X95250000Y-50800000D01*
X95250000Y-50800000D02*
X95250000Y-44450000D01*
X102870000Y-45720000D02*
X100330000Y-45720000D01*
X102870000Y-44450000D02*
X102870000Y-50800000D01*
X102870000Y-50800000D02*
X100330000Y-50800000D01*
X100330000Y-50800000D02*
X100330000Y-44450000D01*
X107950000Y-45720000D02*
X105410000Y-45720000D01*
X107950000Y-44450000D02*
X107950000Y-50800000D01*
X107950000Y-50800000D02*
X105410000Y-50800000D01*
X105410000Y-50800000D02*
X105410000Y-44450000D01*
X109220000Y-54610000D02*
X109220000Y-44450000D01*
X93980000Y-54610000D02*
X93980000Y-44450000D01*
X93980000Y-52070000D02*
X109220000Y-52070000D01*
X109220000Y-54610000D02*
X93980000Y-54610000D01*
X93980000Y-44450000D02*
X109220000Y-44450000D01*
X93980000Y-63500000D02*
X96520000Y-64770000D01*
X95250000Y-67310000D02*
X95250000Y-68580000D01*
X95250000Y-68580000D02*
X93980000Y-68580000D01*
X93980000Y-60960000D02*
X95250000Y-60960000D01*
X95250000Y-60960000D02*
X95250000Y-62230000D01*
X95250000Y-62230000D02*
X96520000Y-62230000D01*
X96520000Y-62230000D02*
X96520000Y-67310000D01*
X96520000Y-67310000D02*
X93980000Y-67310000D01*
X93980000Y-67310000D02*
X93980000Y-62230000D01*
X93980000Y-62230000D02*
X95250000Y-62230000D01*
X89535000Y-59055000D02*
X111125000Y-59055000D01*
X111125000Y-59055000D02*
X111125000Y-70485000D01*
X111125000Y-70485000D02*
X89535000Y-70485000D01*
X89535000Y-70485000D02*
X89535000Y-59055000D01*
D12*
X91230000Y-81760000D02*
X89110000Y-81760000D01*
X89110000Y-81760000D02*
X89110000Y-85880000D01*
X89110000Y-85880000D02*
X91230000Y-85880000D01*
X91230000Y-85880000D02*
X91230000Y-81760000D01*
X90170000Y-79720000D02*
X90170000Y-81760000D01*
X90170000Y-87920000D02*
X90170000Y-85880000D01*
X91230000Y-82420000D02*
X89110000Y-82420000D01*
X156330000Y-96660000D02*
X156330000Y-93840000D01*
X156330000Y-93840000D02*
X151010000Y-93840000D01*
X151010000Y-93840000D02*
X151010000Y-96660000D01*
X151010000Y-96660000D02*
X156330000Y-96660000D01*
X157470000Y-95250000D02*
X156330000Y-95250000D01*
X149870000Y-95250000D02*
X151010000Y-95250000D01*
X155490000Y-96660000D02*
X155490000Y-93840000D01*
X139820000Y-96660000D02*
X139820000Y-93840000D01*
X139820000Y-93840000D02*
X134500000Y-93840000D01*
X134500000Y-93840000D02*
X134500000Y-96660000D01*
X134500000Y-96660000D02*
X139820000Y-96660000D01*
X140960000Y-95250000D02*
X139820000Y-95250000D01*
X133360000Y-95250000D02*
X134500000Y-95250000D01*
X138980000Y-96660000D02*
X138980000Y-93840000D01*
X156330000Y-119520000D02*
X156330000Y-116700000D01*
X156330000Y-116700000D02*
X151010000Y-116700000D01*
X151010000Y-116700000D02*
X151010000Y-119520000D01*
X151010000Y-119520000D02*
X156330000Y-119520000D01*
X157470000Y-118110000D02*
X156330000Y-118110000D01*
X149870000Y-118110000D02*
X151010000Y-118110000D01*
X155490000Y-119520000D02*
X155490000Y-116700000D01*
D11*
X137795000Y-61595000D02*
X118745000Y-61595000D01*
X118745000Y-61595000D02*
X118745000Y-57785000D01*
X118745000Y-57785000D02*
X137795000Y-57785000D01*
X137795000Y-57785000D02*
X137795000Y-61595000D01*
X133985000Y-61595000D02*
X133985000Y-57785000D01*
D12*
X117821400Y-79846863D02*
G75*
G03X117820000Y-75052564I-981400J2396863D01*
G01*
X115858600Y-79846863D02*
G75*
G02X115860000Y-75052564I981400J2396863D01*
G01*
X115858600Y-79846863D02*
G75*
G03X117820000Y-79847436I981400J2396863D01*
G01*
X119390000Y-77450000D02*
X114290000Y-77450000D01*
X119390000Y-77490000D02*
X114290000Y-77490000D01*
X119389000Y-77530000D02*
X114291000Y-77530000D01*
X119388000Y-77570000D02*
X114292000Y-77570000D01*
X119386000Y-77610000D02*
X114294000Y-77610000D01*
X119383000Y-77650000D02*
X114297000Y-77650000D01*
X119379000Y-77690000D02*
X114301000Y-77690000D01*
X119375000Y-77730000D02*
X117820000Y-77730000D01*
X115860000Y-77730000D02*
X114305000Y-77730000D01*
X119371000Y-77770000D02*
X117820000Y-77770000D01*
X115860000Y-77770000D02*
X114309000Y-77770000D01*
X119365000Y-77810000D02*
X117820000Y-77810000D01*
X115860000Y-77810000D02*
X114315000Y-77810000D01*
X119359000Y-77850000D02*
X117820000Y-77850000D01*
X115860000Y-77850000D02*
X114321000Y-77850000D01*
X119353000Y-77890000D02*
X117820000Y-77890000D01*
X115860000Y-77890000D02*
X114327000Y-77890000D01*
X119346000Y-77930000D02*
X117820000Y-77930000D01*
X115860000Y-77930000D02*
X114334000Y-77930000D01*
X119338000Y-77970000D02*
X117820000Y-77970000D01*
X115860000Y-77970000D02*
X114342000Y-77970000D01*
X119329000Y-78010000D02*
X117820000Y-78010000D01*
X115860000Y-78010000D02*
X114351000Y-78010000D01*
X119320000Y-78050000D02*
X117820000Y-78050000D01*
X115860000Y-78050000D02*
X114360000Y-78050000D01*
X119310000Y-78090000D02*
X117820000Y-78090000D01*
X115860000Y-78090000D02*
X114370000Y-78090000D01*
X119300000Y-78130000D02*
X117820000Y-78130000D01*
X115860000Y-78130000D02*
X114380000Y-78130000D01*
X119288000Y-78171000D02*
X117820000Y-78171000D01*
X115860000Y-78171000D02*
X114392000Y-78171000D01*
X119276000Y-78211000D02*
X117820000Y-78211000D01*
X115860000Y-78211000D02*
X114404000Y-78211000D01*
X119264000Y-78251000D02*
X117820000Y-78251000D01*
X115860000Y-78251000D02*
X114416000Y-78251000D01*
X119250000Y-78291000D02*
X117820000Y-78291000D01*
X115860000Y-78291000D02*
X114430000Y-78291000D01*
X119236000Y-78331000D02*
X117820000Y-78331000D01*
X115860000Y-78331000D02*
X114444000Y-78331000D01*
X119222000Y-78371000D02*
X117820000Y-78371000D01*
X115860000Y-78371000D02*
X114458000Y-78371000D01*
X119206000Y-78411000D02*
X117820000Y-78411000D01*
X115860000Y-78411000D02*
X114474000Y-78411000D01*
X119190000Y-78451000D02*
X117820000Y-78451000D01*
X115860000Y-78451000D02*
X114490000Y-78451000D01*
X119173000Y-78491000D02*
X117820000Y-78491000D01*
X115860000Y-78491000D02*
X114507000Y-78491000D01*
X119155000Y-78531000D02*
X117820000Y-78531000D01*
X115860000Y-78531000D02*
X114525000Y-78531000D01*
X119136000Y-78571000D02*
X117820000Y-78571000D01*
X115860000Y-78571000D02*
X114544000Y-78571000D01*
X119116000Y-78611000D02*
X117820000Y-78611000D01*
X115860000Y-78611000D02*
X114564000Y-78611000D01*
X119096000Y-78651000D02*
X117820000Y-78651000D01*
X115860000Y-78651000D02*
X114584000Y-78651000D01*
X119074000Y-78691000D02*
X117820000Y-78691000D01*
X115860000Y-78691000D02*
X114606000Y-78691000D01*
X119052000Y-78731000D02*
X117820000Y-78731000D01*
X115860000Y-78731000D02*
X114628000Y-78731000D01*
X119029000Y-78771000D02*
X117820000Y-78771000D01*
X115860000Y-78771000D02*
X114651000Y-78771000D01*
X119005000Y-78811000D02*
X117820000Y-78811000D01*
X115860000Y-78811000D02*
X114675000Y-78811000D01*
X118980000Y-78851000D02*
X117820000Y-78851000D01*
X115860000Y-78851000D02*
X114700000Y-78851000D01*
X118953000Y-78891000D02*
X117820000Y-78891000D01*
X115860000Y-78891000D02*
X114727000Y-78891000D01*
X118926000Y-78931000D02*
X117820000Y-78931000D01*
X115860000Y-78931000D02*
X114754000Y-78931000D01*
X118898000Y-78971000D02*
X117820000Y-78971000D01*
X115860000Y-78971000D02*
X114782000Y-78971000D01*
X118868000Y-79011000D02*
X117820000Y-79011000D01*
X115860000Y-79011000D02*
X114812000Y-79011000D01*
X118837000Y-79051000D02*
X117820000Y-79051000D01*
X115860000Y-79051000D02*
X114843000Y-79051000D01*
X118805000Y-79091000D02*
X117820000Y-79091000D01*
X115860000Y-79091000D02*
X114875000Y-79091000D01*
X118772000Y-79131000D02*
X117820000Y-79131000D01*
X115860000Y-79131000D02*
X114908000Y-79131000D01*
X118737000Y-79171000D02*
X117820000Y-79171000D01*
X115860000Y-79171000D02*
X114943000Y-79171000D01*
X118701000Y-79211000D02*
X117820000Y-79211000D01*
X115860000Y-79211000D02*
X114979000Y-79211000D01*
X118663000Y-79251000D02*
X117820000Y-79251000D01*
X115860000Y-79251000D02*
X115017000Y-79251000D01*
X118623000Y-79291000D02*
X117820000Y-79291000D01*
X115860000Y-79291000D02*
X115057000Y-79291000D01*
X118582000Y-79331000D02*
X117820000Y-79331000D01*
X115860000Y-79331000D02*
X115098000Y-79331000D01*
X118539000Y-79371000D02*
X117820000Y-79371000D01*
X115860000Y-79371000D02*
X115141000Y-79371000D01*
X118494000Y-79411000D02*
X117820000Y-79411000D01*
X115860000Y-79411000D02*
X115186000Y-79411000D01*
X118446000Y-79451000D02*
X117820000Y-79451000D01*
X115860000Y-79451000D02*
X115234000Y-79451000D01*
X118396000Y-79491000D02*
X117820000Y-79491000D01*
X115860000Y-79491000D02*
X115284000Y-79491000D01*
X118344000Y-79531000D02*
X117820000Y-79531000D01*
X115860000Y-79531000D02*
X115336000Y-79531000D01*
X118288000Y-79571000D02*
X117820000Y-79571000D01*
X115860000Y-79571000D02*
X115392000Y-79571000D01*
X118230000Y-79611000D02*
X117820000Y-79611000D01*
X115860000Y-79611000D02*
X115450000Y-79611000D01*
X118167000Y-79651000D02*
X117820000Y-79651000D01*
X115860000Y-79651000D02*
X115513000Y-79651000D01*
X118101000Y-79691000D02*
X115579000Y-79691000D01*
X118029000Y-79731000D02*
X115651000Y-79731000D01*
X117952000Y-79771000D02*
X115728000Y-79771000D01*
X117868000Y-79811000D02*
X115812000Y-79811000D01*
X117774000Y-79851000D02*
X115906000Y-79851000D01*
X117669000Y-79891000D02*
X116011000Y-79891000D01*
X117547000Y-79931000D02*
X116133000Y-79931000D01*
X117399000Y-79971000D02*
X116281000Y-79971000D01*
X117194000Y-80011000D02*
X116486000Y-80011000D01*
X116840000Y-74000000D02*
X116840000Y-75200000D01*
X117490000Y-74600000D02*
X116190000Y-74600000D01*
X157360000Y-77470000D02*
X157360000Y-85210000D01*
X157360000Y-85210000D02*
X162680000Y-85210000D01*
X162680000Y-85210000D02*
X162680000Y-74810000D01*
X162680000Y-74810000D02*
X160020000Y-74810000D01*
X160020000Y-74810000D02*
X160020000Y-77470000D01*
X160020000Y-77470000D02*
X157360000Y-77470000D01*
X157360000Y-76200000D02*
X157360000Y-74810000D01*
X157360000Y-74810000D02*
X158750000Y-74810000D01*
X157360000Y-87630000D02*
X157360000Y-90290000D01*
X157360000Y-90290000D02*
X162680000Y-90290000D01*
X162680000Y-90290000D02*
X162680000Y-84970000D01*
X162680000Y-84970000D02*
X160020000Y-84970000D01*
X160020000Y-84970000D02*
X160020000Y-87630000D01*
X160020000Y-87630000D02*
X157360000Y-87630000D01*
X157360000Y-86360000D02*
X157360000Y-84970000D01*
X157360000Y-84970000D02*
X158750000Y-84970000D01*
X97790000Y-123070000D02*
X84970000Y-123070000D01*
X84970000Y-123070000D02*
X84970000Y-125850000D01*
X84970000Y-125850000D02*
X97790000Y-125850000D01*
X97790000Y-125850000D02*
X97790000Y-123070000D01*
X99060000Y-123070000D02*
X100450000Y-123070000D01*
X100450000Y-123070000D02*
X100450000Y-124460000D01*
D11*
X127849524Y-53792381D02*
X127849524Y-52792381D01*
X128230477Y-52792381D01*
X128325715Y-52840000D01*
X128373334Y-52887619D01*
X128420953Y-52982857D01*
X128420953Y-53125714D01*
X128373334Y-53220952D01*
X128325715Y-53268571D01*
X128230477Y-53316190D01*
X127849524Y-53316190D01*
X129373334Y-53792381D02*
X128801905Y-53792381D01*
X129087619Y-53792381D02*
X129087619Y-52792381D01*
X128992381Y-52935238D01*
X128897143Y-53030476D01*
X128801905Y-53078095D01*
X129992381Y-52792381D02*
X130087620Y-52792381D01*
X130182858Y-52840000D01*
X130230477Y-52887619D01*
X130278096Y-52982857D01*
X130325715Y-53173333D01*
X130325715Y-53411429D01*
X130278096Y-53601905D01*
X130230477Y-53697143D01*
X130182858Y-53744762D01*
X130087620Y-53792381D01*
X129992381Y-53792381D01*
X129897143Y-53744762D01*
X129849524Y-53697143D01*
X129801905Y-53601905D01*
X129754286Y-53411429D01*
X129754286Y-53173333D01*
X129801905Y-52982857D01*
X129849524Y-52887619D01*
X129897143Y-52840000D01*
X129992381Y-52792381D01*
X130706667Y-52887619D02*
X130754286Y-52840000D01*
X130849524Y-52792381D01*
X131087620Y-52792381D01*
X131182858Y-52840000D01*
X131230477Y-52887619D01*
X131278096Y-52982857D01*
X131278096Y-53078095D01*
X131230477Y-53220952D01*
X130659048Y-53792381D01*
X131278096Y-53792381D01*
X125516191Y-43537143D02*
X125468572Y-43584762D01*
X125325715Y-43632381D01*
X125230477Y-43632381D01*
X125087619Y-43584762D01*
X124992381Y-43489524D01*
X124944762Y-43394286D01*
X124897143Y-43203810D01*
X124897143Y-43060952D01*
X124944762Y-42870476D01*
X124992381Y-42775238D01*
X125087619Y-42680000D01*
X125230477Y-42632381D01*
X125325715Y-42632381D01*
X125468572Y-42680000D01*
X125516191Y-42727619D01*
X126135238Y-42632381D02*
X126325715Y-42632381D01*
X126420953Y-42680000D01*
X126516191Y-42775238D01*
X126563810Y-42965714D01*
X126563810Y-43299048D01*
X126516191Y-43489524D01*
X126420953Y-43584762D01*
X126325715Y-43632381D01*
X126135238Y-43632381D01*
X126040000Y-43584762D01*
X125944762Y-43489524D01*
X125897143Y-43299048D01*
X125897143Y-42965714D01*
X125944762Y-42775238D01*
X126040000Y-42680000D01*
X126135238Y-42632381D01*
X126992381Y-43632381D02*
X126992381Y-42632381D01*
X127563810Y-43632381D01*
X127563810Y-42632381D01*
X128040000Y-43632381D02*
X128040000Y-42632381D01*
X128611429Y-43632381D01*
X128611429Y-42632381D01*
X128849524Y-43727619D02*
X129611429Y-43727619D01*
X130040000Y-42632381D02*
X130135239Y-42632381D01*
X130230477Y-42680000D01*
X130278096Y-42727619D01*
X130325715Y-42822857D01*
X130373334Y-43013333D01*
X130373334Y-43251429D01*
X130325715Y-43441905D01*
X130278096Y-43537143D01*
X130230477Y-43584762D01*
X130135239Y-43632381D01*
X130040000Y-43632381D01*
X129944762Y-43584762D01*
X129897143Y-43537143D01*
X129849524Y-43441905D01*
X129801905Y-43251429D01*
X129801905Y-43013333D01*
X129849524Y-42822857D01*
X129897143Y-42727619D01*
X129944762Y-42680000D01*
X130040000Y-42632381D01*
X131325715Y-43632381D02*
X130754286Y-43632381D01*
X131040000Y-43632381D02*
X131040000Y-42632381D01*
X130944762Y-42775238D01*
X130849524Y-42870476D01*
X130754286Y-42918095D01*
X131659048Y-42632381D02*
X132325715Y-43632381D01*
X132325715Y-42632381D02*
X131659048Y-43632381D01*
X132897143Y-42632381D02*
X132992382Y-42632381D01*
X133087620Y-42680000D01*
X133135239Y-42727619D01*
X133182858Y-42822857D01*
X133230477Y-43013333D01*
X133230477Y-43251429D01*
X133182858Y-43441905D01*
X133135239Y-43537143D01*
X133087620Y-43584762D01*
X132992382Y-43632381D01*
X132897143Y-43632381D01*
X132801905Y-43584762D01*
X132754286Y-43537143D01*
X132706667Y-43441905D01*
X132659048Y-43251429D01*
X132659048Y-43013333D01*
X132706667Y-42822857D01*
X132754286Y-42727619D01*
X132801905Y-42680000D01*
X132897143Y-42632381D01*
X133563810Y-42632381D02*
X134182858Y-42632381D01*
X133849524Y-43013333D01*
X133992382Y-43013333D01*
X134087620Y-43060952D01*
X134135239Y-43108571D01*
X134182858Y-43203810D01*
X134182858Y-43441905D01*
X134135239Y-43537143D01*
X134087620Y-43584762D01*
X133992382Y-43632381D01*
X133706667Y-43632381D01*
X133611429Y-43584762D01*
X133563810Y-43537143D01*
X91797143Y-95099047D02*
X91844762Y-95146666D01*
X91892381Y-95289523D01*
X91892381Y-95384761D01*
X91844762Y-95527619D01*
X91749524Y-95622857D01*
X91654286Y-95670476D01*
X91463810Y-95718095D01*
X91320952Y-95718095D01*
X91130476Y-95670476D01*
X91035238Y-95622857D01*
X90940000Y-95527619D01*
X90892381Y-95384761D01*
X90892381Y-95289523D01*
X90940000Y-95146666D01*
X90987619Y-95099047D01*
X91892381Y-94146666D02*
X91892381Y-94718095D01*
X91892381Y-94432381D02*
X90892381Y-94432381D01*
X91035238Y-94527619D01*
X91130476Y-94622857D01*
X91178095Y-94718095D01*
X90892381Y-93527619D02*
X90892381Y-93432380D01*
X90940000Y-93337142D01*
X90987619Y-93289523D01*
X91082857Y-93241904D01*
X91273333Y-93194285D01*
X91511429Y-93194285D01*
X91701905Y-93241904D01*
X91797143Y-93289523D01*
X91844762Y-93337142D01*
X91892381Y-93432380D01*
X91892381Y-93527619D01*
X91844762Y-93622857D01*
X91797143Y-93670476D01*
X91701905Y-93718095D01*
X91511429Y-93765714D01*
X91273333Y-93765714D01*
X91082857Y-93718095D01*
X90987619Y-93670476D01*
X90940000Y-93622857D01*
X90892381Y-93527619D01*
X91225714Y-92337142D02*
X91892381Y-92337142D01*
X90844762Y-92575238D02*
X91559048Y-92813333D01*
X91559048Y-92194285D01*
X118467143Y-95099047D02*
X118514762Y-95146666D01*
X118562381Y-95289523D01*
X118562381Y-95384761D01*
X118514762Y-95527619D01*
X118419524Y-95622857D01*
X118324286Y-95670476D01*
X118133810Y-95718095D01*
X117990952Y-95718095D01*
X117800476Y-95670476D01*
X117705238Y-95622857D01*
X117610000Y-95527619D01*
X117562381Y-95384761D01*
X117562381Y-95289523D01*
X117610000Y-95146666D01*
X117657619Y-95099047D01*
X118562381Y-94146666D02*
X118562381Y-94718095D01*
X118562381Y-94432381D02*
X117562381Y-94432381D01*
X117705238Y-94527619D01*
X117800476Y-94622857D01*
X117848095Y-94718095D01*
X117562381Y-93527619D02*
X117562381Y-93432380D01*
X117610000Y-93337142D01*
X117657619Y-93289523D01*
X117752857Y-93241904D01*
X117943333Y-93194285D01*
X118181429Y-93194285D01*
X118371905Y-93241904D01*
X118467143Y-93289523D01*
X118514762Y-93337142D01*
X118562381Y-93432380D01*
X118562381Y-93527619D01*
X118514762Y-93622857D01*
X118467143Y-93670476D01*
X118371905Y-93718095D01*
X118181429Y-93765714D01*
X117943333Y-93765714D01*
X117752857Y-93718095D01*
X117657619Y-93670476D01*
X117610000Y-93622857D01*
X117562381Y-93527619D01*
X117562381Y-92289523D02*
X117562381Y-92765714D01*
X118038571Y-92813333D01*
X117990952Y-92765714D01*
X117943333Y-92670476D01*
X117943333Y-92432380D01*
X117990952Y-92337142D01*
X118038571Y-92289523D01*
X118133810Y-92241904D01*
X118371905Y-92241904D01*
X118467143Y-92289523D01*
X118514762Y-92337142D01*
X118562381Y-92432380D01*
X118562381Y-92670476D01*
X118514762Y-92765714D01*
X118467143Y-92813333D01*
X158265953Y-112117143D02*
X158218334Y-112164762D01*
X158075477Y-112212381D01*
X157980239Y-112212381D01*
X157837381Y-112164762D01*
X157742143Y-112069524D01*
X157694524Y-111974286D01*
X157646905Y-111783810D01*
X157646905Y-111640952D01*
X157694524Y-111450476D01*
X157742143Y-111355238D01*
X157837381Y-111260000D01*
X157980239Y-111212381D01*
X158075477Y-111212381D01*
X158218334Y-111260000D01*
X158265953Y-111307619D01*
X159218334Y-112212381D02*
X158646905Y-112212381D01*
X158932619Y-112212381D02*
X158932619Y-111212381D01*
X158837381Y-111355238D01*
X158742143Y-111450476D01*
X158646905Y-111498095D01*
X159837381Y-111212381D02*
X159932620Y-111212381D01*
X160027858Y-111260000D01*
X160075477Y-111307619D01*
X160123096Y-111402857D01*
X160170715Y-111593333D01*
X160170715Y-111831429D01*
X160123096Y-112021905D01*
X160075477Y-112117143D01*
X160027858Y-112164762D01*
X159932620Y-112212381D01*
X159837381Y-112212381D01*
X159742143Y-112164762D01*
X159694524Y-112117143D01*
X159646905Y-112021905D01*
X159599286Y-111831429D01*
X159599286Y-111593333D01*
X159646905Y-111402857D01*
X159694524Y-111307619D01*
X159742143Y-111260000D01*
X159837381Y-111212381D01*
X161027858Y-111212381D02*
X160837381Y-111212381D01*
X160742143Y-111260000D01*
X160694524Y-111307619D01*
X160599286Y-111450476D01*
X160551667Y-111640952D01*
X160551667Y-112021905D01*
X160599286Y-112117143D01*
X160646905Y-112164762D01*
X160742143Y-112212381D01*
X160932620Y-112212381D01*
X161027858Y-112164762D01*
X161075477Y-112117143D01*
X161123096Y-112021905D01*
X161123096Y-111783810D01*
X161075477Y-111688571D01*
X161027858Y-111640952D01*
X160932620Y-111593333D01*
X160742143Y-111593333D01*
X160646905Y-111640952D01*
X160599286Y-111688571D01*
X160551667Y-111783810D01*
X141755953Y-112117143D02*
X141708334Y-112164762D01*
X141565477Y-112212381D01*
X141470239Y-112212381D01*
X141327381Y-112164762D01*
X141232143Y-112069524D01*
X141184524Y-111974286D01*
X141136905Y-111783810D01*
X141136905Y-111640952D01*
X141184524Y-111450476D01*
X141232143Y-111355238D01*
X141327381Y-111260000D01*
X141470239Y-111212381D01*
X141565477Y-111212381D01*
X141708334Y-111260000D01*
X141755953Y-111307619D01*
X142708334Y-112212381D02*
X142136905Y-112212381D01*
X142422619Y-112212381D02*
X142422619Y-111212381D01*
X142327381Y-111355238D01*
X142232143Y-111450476D01*
X142136905Y-111498095D01*
X143327381Y-111212381D02*
X143422620Y-111212381D01*
X143517858Y-111260000D01*
X143565477Y-111307619D01*
X143613096Y-111402857D01*
X143660715Y-111593333D01*
X143660715Y-111831429D01*
X143613096Y-112021905D01*
X143565477Y-112117143D01*
X143517858Y-112164762D01*
X143422620Y-112212381D01*
X143327381Y-112212381D01*
X143232143Y-112164762D01*
X143184524Y-112117143D01*
X143136905Y-112021905D01*
X143089286Y-111831429D01*
X143089286Y-111593333D01*
X143136905Y-111402857D01*
X143184524Y-111307619D01*
X143232143Y-111260000D01*
X143327381Y-111212381D01*
X143994048Y-111212381D02*
X144660715Y-111212381D01*
X144232143Y-112212381D01*
X119737143Y-83034047D02*
X119784762Y-83081666D01*
X119832381Y-83224523D01*
X119832381Y-83319761D01*
X119784762Y-83462619D01*
X119689524Y-83557857D01*
X119594286Y-83605476D01*
X119403810Y-83653095D01*
X119260952Y-83653095D01*
X119070476Y-83605476D01*
X118975238Y-83557857D01*
X118880000Y-83462619D01*
X118832381Y-83319761D01*
X118832381Y-83224523D01*
X118880000Y-83081666D01*
X118927619Y-83034047D01*
X119832381Y-82081666D02*
X119832381Y-82653095D01*
X119832381Y-82367381D02*
X118832381Y-82367381D01*
X118975238Y-82462619D01*
X119070476Y-82557857D01*
X119118095Y-82653095D01*
X118832381Y-81462619D02*
X118832381Y-81367380D01*
X118880000Y-81272142D01*
X118927619Y-81224523D01*
X119022857Y-81176904D01*
X119213333Y-81129285D01*
X119451429Y-81129285D01*
X119641905Y-81176904D01*
X119737143Y-81224523D01*
X119784762Y-81272142D01*
X119832381Y-81367380D01*
X119832381Y-81462619D01*
X119784762Y-81557857D01*
X119737143Y-81605476D01*
X119641905Y-81653095D01*
X119451429Y-81700714D01*
X119213333Y-81700714D01*
X119022857Y-81653095D01*
X118927619Y-81605476D01*
X118880000Y-81557857D01*
X118832381Y-81462619D01*
X119832381Y-80176904D02*
X119832381Y-80748333D01*
X119832381Y-80462619D02*
X118832381Y-80462619D01*
X118975238Y-80557857D01*
X119070476Y-80653095D01*
X119118095Y-80748333D01*
X96237143Y-88749047D02*
X96284762Y-88796666D01*
X96332381Y-88939523D01*
X96332381Y-89034761D01*
X96284762Y-89177619D01*
X96189524Y-89272857D01*
X96094286Y-89320476D01*
X95903810Y-89368095D01*
X95760952Y-89368095D01*
X95570476Y-89320476D01*
X95475238Y-89272857D01*
X95380000Y-89177619D01*
X95332381Y-89034761D01*
X95332381Y-88939523D01*
X95380000Y-88796666D01*
X95427619Y-88749047D01*
X96332381Y-87796666D02*
X96332381Y-88368095D01*
X96332381Y-88082381D02*
X95332381Y-88082381D01*
X95475238Y-88177619D01*
X95570476Y-88272857D01*
X95618095Y-88368095D01*
X95332381Y-87177619D02*
X95332381Y-87082380D01*
X95380000Y-86987142D01*
X95427619Y-86939523D01*
X95522857Y-86891904D01*
X95713333Y-86844285D01*
X95951429Y-86844285D01*
X96141905Y-86891904D01*
X96237143Y-86939523D01*
X96284762Y-86987142D01*
X96332381Y-87082380D01*
X96332381Y-87177619D01*
X96284762Y-87272857D01*
X96237143Y-87320476D01*
X96141905Y-87368095D01*
X95951429Y-87415714D01*
X95713333Y-87415714D01*
X95522857Y-87368095D01*
X95427619Y-87320476D01*
X95380000Y-87272857D01*
X95332381Y-87177619D01*
X95427619Y-86463333D02*
X95380000Y-86415714D01*
X95332381Y-86320476D01*
X95332381Y-86082380D01*
X95380000Y-85987142D01*
X95427619Y-85939523D01*
X95522857Y-85891904D01*
X95618095Y-85891904D01*
X95760952Y-85939523D01*
X96332381Y-86510952D01*
X96332381Y-85891904D01*
X104497143Y-74779047D02*
X104544762Y-74826666D01*
X104592381Y-74969523D01*
X104592381Y-75064761D01*
X104544762Y-75207619D01*
X104449524Y-75302857D01*
X104354286Y-75350476D01*
X104163810Y-75398095D01*
X104020952Y-75398095D01*
X103830476Y-75350476D01*
X103735238Y-75302857D01*
X103640000Y-75207619D01*
X103592381Y-75064761D01*
X103592381Y-74969523D01*
X103640000Y-74826666D01*
X103687619Y-74779047D01*
X104592381Y-73826666D02*
X104592381Y-74398095D01*
X104592381Y-74112381D02*
X103592381Y-74112381D01*
X103735238Y-74207619D01*
X103830476Y-74302857D01*
X103878095Y-74398095D01*
X103592381Y-73207619D02*
X103592381Y-73112380D01*
X103640000Y-73017142D01*
X103687619Y-72969523D01*
X103782857Y-72921904D01*
X103973333Y-72874285D01*
X104211429Y-72874285D01*
X104401905Y-72921904D01*
X104497143Y-72969523D01*
X104544762Y-73017142D01*
X104592381Y-73112380D01*
X104592381Y-73207619D01*
X104544762Y-73302857D01*
X104497143Y-73350476D01*
X104401905Y-73398095D01*
X104211429Y-73445714D01*
X103973333Y-73445714D01*
X103782857Y-73398095D01*
X103687619Y-73350476D01*
X103640000Y-73302857D01*
X103592381Y-73207619D01*
X104020952Y-72302857D02*
X103973333Y-72398095D01*
X103925714Y-72445714D01*
X103830476Y-72493333D01*
X103782857Y-72493333D01*
X103687619Y-72445714D01*
X103640000Y-72398095D01*
X103592381Y-72302857D01*
X103592381Y-72112380D01*
X103640000Y-72017142D01*
X103687619Y-71969523D01*
X103782857Y-71921904D01*
X103830476Y-71921904D01*
X103925714Y-71969523D01*
X103973333Y-72017142D01*
X104020952Y-72112380D01*
X104020952Y-72302857D01*
X104068571Y-72398095D01*
X104116190Y-72445714D01*
X104211429Y-72493333D01*
X104401905Y-72493333D01*
X104497143Y-72445714D01*
X104544762Y-72398095D01*
X104592381Y-72302857D01*
X104592381Y-72112380D01*
X104544762Y-72017142D01*
X104497143Y-71969523D01*
X104401905Y-71921904D01*
X104211429Y-71921904D01*
X104116190Y-71969523D01*
X104068571Y-72017142D01*
X104020952Y-72112380D01*
X112117143Y-74779047D02*
X112164762Y-74826666D01*
X112212381Y-74969523D01*
X112212381Y-75064761D01*
X112164762Y-75207619D01*
X112069524Y-75302857D01*
X111974286Y-75350476D01*
X111783810Y-75398095D01*
X111640952Y-75398095D01*
X111450476Y-75350476D01*
X111355238Y-75302857D01*
X111260000Y-75207619D01*
X111212381Y-75064761D01*
X111212381Y-74969523D01*
X111260000Y-74826666D01*
X111307619Y-74779047D01*
X112212381Y-73826666D02*
X112212381Y-74398095D01*
X112212381Y-74112381D02*
X111212381Y-74112381D01*
X111355238Y-74207619D01*
X111450476Y-74302857D01*
X111498095Y-74398095D01*
X111212381Y-73207619D02*
X111212381Y-73112380D01*
X111260000Y-73017142D01*
X111307619Y-72969523D01*
X111402857Y-72921904D01*
X111593333Y-72874285D01*
X111831429Y-72874285D01*
X112021905Y-72921904D01*
X112117143Y-72969523D01*
X112164762Y-73017142D01*
X112212381Y-73112380D01*
X112212381Y-73207619D01*
X112164762Y-73302857D01*
X112117143Y-73350476D01*
X112021905Y-73398095D01*
X111831429Y-73445714D01*
X111593333Y-73445714D01*
X111402857Y-73398095D01*
X111307619Y-73350476D01*
X111260000Y-73302857D01*
X111212381Y-73207619D01*
X112212381Y-72398095D02*
X112212381Y-72207619D01*
X112164762Y-72112380D01*
X112117143Y-72064761D01*
X111974286Y-71969523D01*
X111783810Y-71921904D01*
X111402857Y-71921904D01*
X111307619Y-71969523D01*
X111260000Y-72017142D01*
X111212381Y-72112380D01*
X111212381Y-72302857D01*
X111260000Y-72398095D01*
X111307619Y-72445714D01*
X111402857Y-72493333D01*
X111640952Y-72493333D01*
X111736190Y-72445714D01*
X111783810Y-72398095D01*
X111831429Y-72302857D01*
X111831429Y-72112380D01*
X111783810Y-72017142D01*
X111736190Y-71969523D01*
X111640952Y-71921904D01*
X130532143Y-70969047D02*
X130579762Y-71016666D01*
X130627381Y-71159523D01*
X130627381Y-71254761D01*
X130579762Y-71397619D01*
X130484524Y-71492857D01*
X130389286Y-71540476D01*
X130198810Y-71588095D01*
X130055952Y-71588095D01*
X129865476Y-71540476D01*
X129770238Y-71492857D01*
X129675000Y-71397619D01*
X129627381Y-71254761D01*
X129627381Y-71159523D01*
X129675000Y-71016666D01*
X129722619Y-70969047D01*
X130627381Y-70016666D02*
X130627381Y-70588095D01*
X130627381Y-70302381D02*
X129627381Y-70302381D01*
X129770238Y-70397619D01*
X129865476Y-70492857D01*
X129913095Y-70588095D01*
X130627381Y-69064285D02*
X130627381Y-69635714D01*
X130627381Y-69350000D02*
X129627381Y-69350000D01*
X129770238Y-69445238D01*
X129865476Y-69540476D01*
X129913095Y-69635714D01*
X129627381Y-68445238D02*
X129627381Y-68349999D01*
X129675000Y-68254761D01*
X129722619Y-68207142D01*
X129817857Y-68159523D01*
X130008333Y-68111904D01*
X130246429Y-68111904D01*
X130436905Y-68159523D01*
X130532143Y-68207142D01*
X130579762Y-68254761D01*
X130627381Y-68349999D01*
X130627381Y-68445238D01*
X130579762Y-68540476D01*
X130532143Y-68588095D01*
X130436905Y-68635714D01*
X130246429Y-68683333D01*
X130008333Y-68683333D01*
X129817857Y-68635714D01*
X129722619Y-68588095D01*
X129675000Y-68540476D01*
X129627381Y-68445238D01*
X131167143Y-82399047D02*
X131214762Y-82446666D01*
X131262381Y-82589523D01*
X131262381Y-82684761D01*
X131214762Y-82827619D01*
X131119524Y-82922857D01*
X131024286Y-82970476D01*
X130833810Y-83018095D01*
X130690952Y-83018095D01*
X130500476Y-82970476D01*
X130405238Y-82922857D01*
X130310000Y-82827619D01*
X130262381Y-82684761D01*
X130262381Y-82589523D01*
X130310000Y-82446666D01*
X130357619Y-82399047D01*
X131262381Y-81446666D02*
X131262381Y-82018095D01*
X131262381Y-81732381D02*
X130262381Y-81732381D01*
X130405238Y-81827619D01*
X130500476Y-81922857D01*
X130548095Y-82018095D01*
X131262381Y-80494285D02*
X131262381Y-81065714D01*
X131262381Y-80780000D02*
X130262381Y-80780000D01*
X130405238Y-80875238D01*
X130500476Y-80970476D01*
X130548095Y-81065714D01*
X131262381Y-79541904D02*
X131262381Y-80113333D01*
X131262381Y-79827619D02*
X130262381Y-79827619D01*
X130405238Y-79922857D01*
X130500476Y-80018095D01*
X130548095Y-80113333D01*
X158265953Y-114657143D02*
X158218334Y-114704762D01*
X158075477Y-114752381D01*
X157980239Y-114752381D01*
X157837381Y-114704762D01*
X157742143Y-114609524D01*
X157694524Y-114514286D01*
X157646905Y-114323810D01*
X157646905Y-114180952D01*
X157694524Y-113990476D01*
X157742143Y-113895238D01*
X157837381Y-113800000D01*
X157980239Y-113752381D01*
X158075477Y-113752381D01*
X158218334Y-113800000D01*
X158265953Y-113847619D01*
X159218334Y-114752381D02*
X158646905Y-114752381D01*
X158932619Y-114752381D02*
X158932619Y-113752381D01*
X158837381Y-113895238D01*
X158742143Y-113990476D01*
X158646905Y-114038095D01*
X160170715Y-114752381D02*
X159599286Y-114752381D01*
X159885000Y-114752381D02*
X159885000Y-113752381D01*
X159789762Y-113895238D01*
X159694524Y-113990476D01*
X159599286Y-114038095D01*
X160551667Y-113847619D02*
X160599286Y-113800000D01*
X160694524Y-113752381D01*
X160932620Y-113752381D01*
X161027858Y-113800000D01*
X161075477Y-113847619D01*
X161123096Y-113942857D01*
X161123096Y-114038095D01*
X161075477Y-114180952D01*
X160504048Y-114752381D01*
X161123096Y-114752381D01*
X141755953Y-114657143D02*
X141708334Y-114704762D01*
X141565477Y-114752381D01*
X141470239Y-114752381D01*
X141327381Y-114704762D01*
X141232143Y-114609524D01*
X141184524Y-114514286D01*
X141136905Y-114323810D01*
X141136905Y-114180952D01*
X141184524Y-113990476D01*
X141232143Y-113895238D01*
X141327381Y-113800000D01*
X141470239Y-113752381D01*
X141565477Y-113752381D01*
X141708334Y-113800000D01*
X141755953Y-113847619D01*
X142708334Y-114752381D02*
X142136905Y-114752381D01*
X142422619Y-114752381D02*
X142422619Y-113752381D01*
X142327381Y-113895238D01*
X142232143Y-113990476D01*
X142136905Y-114038095D01*
X143660715Y-114752381D02*
X143089286Y-114752381D01*
X143375000Y-114752381D02*
X143375000Y-113752381D01*
X143279762Y-113895238D01*
X143184524Y-113990476D01*
X143089286Y-114038095D01*
X143994048Y-113752381D02*
X144613096Y-113752381D01*
X144279762Y-114133333D01*
X144422620Y-114133333D01*
X144517858Y-114180952D01*
X144565477Y-114228571D01*
X144613096Y-114323810D01*
X144613096Y-114561905D01*
X144565477Y-114657143D01*
X144517858Y-114704762D01*
X144422620Y-114752381D01*
X144136905Y-114752381D01*
X144041667Y-114704762D01*
X143994048Y-114657143D01*
X108307143Y-83034047D02*
X108354762Y-83081666D01*
X108402381Y-83224523D01*
X108402381Y-83319761D01*
X108354762Y-83462619D01*
X108259524Y-83557857D01*
X108164286Y-83605476D01*
X107973810Y-83653095D01*
X107830952Y-83653095D01*
X107640476Y-83605476D01*
X107545238Y-83557857D01*
X107450000Y-83462619D01*
X107402381Y-83319761D01*
X107402381Y-83224523D01*
X107450000Y-83081666D01*
X107497619Y-83034047D01*
X108402381Y-82081666D02*
X108402381Y-82653095D01*
X108402381Y-82367381D02*
X107402381Y-82367381D01*
X107545238Y-82462619D01*
X107640476Y-82557857D01*
X107688095Y-82653095D01*
X108402381Y-81129285D02*
X108402381Y-81700714D01*
X108402381Y-81415000D02*
X107402381Y-81415000D01*
X107545238Y-81510238D01*
X107640476Y-81605476D01*
X107688095Y-81700714D01*
X107735714Y-80272142D02*
X108402381Y-80272142D01*
X107354762Y-80510238D02*
X108069048Y-80748333D01*
X108069048Y-80129285D01*
X156027381Y-60110476D02*
X155027381Y-60110476D01*
X155027381Y-59872381D01*
X155075000Y-59729523D01*
X155170238Y-59634285D01*
X155265476Y-59586666D01*
X155455952Y-59539047D01*
X155598810Y-59539047D01*
X155789286Y-59586666D01*
X155884524Y-59634285D01*
X155979762Y-59729523D01*
X156027381Y-59872381D01*
X156027381Y-60110476D01*
X156027381Y-58586666D02*
X156027381Y-59158095D01*
X156027381Y-58872381D02*
X155027381Y-58872381D01*
X155170238Y-58967619D01*
X155265476Y-59062857D01*
X155313095Y-59158095D01*
X155027381Y-57967619D02*
X155027381Y-57872380D01*
X155075000Y-57777142D01*
X155122619Y-57729523D01*
X155217857Y-57681904D01*
X155408333Y-57634285D01*
X155646429Y-57634285D01*
X155836905Y-57681904D01*
X155932143Y-57729523D01*
X155979762Y-57777142D01*
X156027381Y-57872380D01*
X156027381Y-57967619D01*
X155979762Y-58062857D01*
X155932143Y-58110476D01*
X155836905Y-58158095D01*
X155646429Y-58205714D01*
X155408333Y-58205714D01*
X155217857Y-58158095D01*
X155122619Y-58110476D01*
X155075000Y-58062857D01*
X155027381Y-57967619D01*
X156027381Y-56681904D02*
X156027381Y-57253333D01*
X156027381Y-56967619D02*
X155027381Y-56967619D01*
X155170238Y-57062857D01*
X155265476Y-57158095D01*
X155313095Y-57253333D01*
X152217381Y-60110476D02*
X151217381Y-60110476D01*
X151217381Y-59872381D01*
X151265000Y-59729523D01*
X151360238Y-59634285D01*
X151455476Y-59586666D01*
X151645952Y-59539047D01*
X151788810Y-59539047D01*
X151979286Y-59586666D01*
X152074524Y-59634285D01*
X152169762Y-59729523D01*
X152217381Y-59872381D01*
X152217381Y-60110476D01*
X152217381Y-58586666D02*
X152217381Y-59158095D01*
X152217381Y-58872381D02*
X151217381Y-58872381D01*
X151360238Y-58967619D01*
X151455476Y-59062857D01*
X151503095Y-59158095D01*
X151217381Y-57967619D02*
X151217381Y-57872380D01*
X151265000Y-57777142D01*
X151312619Y-57729523D01*
X151407857Y-57681904D01*
X151598333Y-57634285D01*
X151836429Y-57634285D01*
X152026905Y-57681904D01*
X152122143Y-57729523D01*
X152169762Y-57777142D01*
X152217381Y-57872380D01*
X152217381Y-57967619D01*
X152169762Y-58062857D01*
X152122143Y-58110476D01*
X152026905Y-58158095D01*
X151836429Y-58205714D01*
X151598333Y-58205714D01*
X151407857Y-58158095D01*
X151312619Y-58110476D01*
X151265000Y-58062857D01*
X151217381Y-57967619D01*
X151312619Y-57253333D02*
X151265000Y-57205714D01*
X151217381Y-57110476D01*
X151217381Y-56872380D01*
X151265000Y-56777142D01*
X151312619Y-56729523D01*
X151407857Y-56681904D01*
X151503095Y-56681904D01*
X151645952Y-56729523D01*
X152217381Y-57300952D01*
X152217381Y-56681904D01*
X148407381Y-60110476D02*
X147407381Y-60110476D01*
X147407381Y-59872381D01*
X147455000Y-59729523D01*
X147550238Y-59634285D01*
X147645476Y-59586666D01*
X147835952Y-59539047D01*
X147978810Y-59539047D01*
X148169286Y-59586666D01*
X148264524Y-59634285D01*
X148359762Y-59729523D01*
X148407381Y-59872381D01*
X148407381Y-60110476D01*
X148407381Y-58586666D02*
X148407381Y-59158095D01*
X148407381Y-58872381D02*
X147407381Y-58872381D01*
X147550238Y-58967619D01*
X147645476Y-59062857D01*
X147693095Y-59158095D01*
X147407381Y-57967619D02*
X147407381Y-57872380D01*
X147455000Y-57777142D01*
X147502619Y-57729523D01*
X147597857Y-57681904D01*
X147788333Y-57634285D01*
X148026429Y-57634285D01*
X148216905Y-57681904D01*
X148312143Y-57729523D01*
X148359762Y-57777142D01*
X148407381Y-57872380D01*
X148407381Y-57967619D01*
X148359762Y-58062857D01*
X148312143Y-58110476D01*
X148216905Y-58158095D01*
X148026429Y-58205714D01*
X147788333Y-58205714D01*
X147597857Y-58158095D01*
X147502619Y-58110476D01*
X147455000Y-58062857D01*
X147407381Y-57967619D01*
X147407381Y-57300952D02*
X147407381Y-56681904D01*
X147788333Y-57015238D01*
X147788333Y-56872380D01*
X147835952Y-56777142D01*
X147883571Y-56729523D01*
X147978810Y-56681904D01*
X148216905Y-56681904D01*
X148312143Y-56729523D01*
X148359762Y-56777142D01*
X148407381Y-56872380D01*
X148407381Y-57158095D01*
X148359762Y-57253333D01*
X148312143Y-57300952D01*
X144597381Y-60110476D02*
X143597381Y-60110476D01*
X143597381Y-59872381D01*
X143645000Y-59729523D01*
X143740238Y-59634285D01*
X143835476Y-59586666D01*
X144025952Y-59539047D01*
X144168810Y-59539047D01*
X144359286Y-59586666D01*
X144454524Y-59634285D01*
X144549762Y-59729523D01*
X144597381Y-59872381D01*
X144597381Y-60110476D01*
X144597381Y-58586666D02*
X144597381Y-59158095D01*
X144597381Y-58872381D02*
X143597381Y-58872381D01*
X143740238Y-58967619D01*
X143835476Y-59062857D01*
X143883095Y-59158095D01*
X143597381Y-57967619D02*
X143597381Y-57872380D01*
X143645000Y-57777142D01*
X143692619Y-57729523D01*
X143787857Y-57681904D01*
X143978333Y-57634285D01*
X144216429Y-57634285D01*
X144406905Y-57681904D01*
X144502143Y-57729523D01*
X144549762Y-57777142D01*
X144597381Y-57872380D01*
X144597381Y-57967619D01*
X144549762Y-58062857D01*
X144502143Y-58110476D01*
X144406905Y-58158095D01*
X144216429Y-58205714D01*
X143978333Y-58205714D01*
X143787857Y-58158095D01*
X143692619Y-58110476D01*
X143645000Y-58062857D01*
X143597381Y-57967619D01*
X143930714Y-56777142D02*
X144597381Y-56777142D01*
X143549762Y-57015238D02*
X144264048Y-57253333D01*
X144264048Y-56634285D01*
X135469524Y-121102381D02*
X135469524Y-120102381D01*
X135707619Y-120102381D01*
X135850477Y-120150000D01*
X135945715Y-120245238D01*
X135993334Y-120340476D01*
X136040953Y-120530952D01*
X136040953Y-120673810D01*
X135993334Y-120864286D01*
X135945715Y-120959524D01*
X135850477Y-121054762D01*
X135707619Y-121102381D01*
X135469524Y-121102381D01*
X136993334Y-121102381D02*
X136421905Y-121102381D01*
X136707619Y-121102381D02*
X136707619Y-120102381D01*
X136612381Y-120245238D01*
X136517143Y-120340476D01*
X136421905Y-120388095D01*
X137612381Y-120102381D02*
X137707620Y-120102381D01*
X137802858Y-120150000D01*
X137850477Y-120197619D01*
X137898096Y-120292857D01*
X137945715Y-120483333D01*
X137945715Y-120721429D01*
X137898096Y-120911905D01*
X137850477Y-121007143D01*
X137802858Y-121054762D01*
X137707620Y-121102381D01*
X137612381Y-121102381D01*
X137517143Y-121054762D01*
X137469524Y-121007143D01*
X137421905Y-120911905D01*
X137374286Y-120721429D01*
X137374286Y-120483333D01*
X137421905Y-120292857D01*
X137469524Y-120197619D01*
X137517143Y-120150000D01*
X137612381Y-120102381D01*
X138421905Y-121102381D02*
X138612381Y-121102381D01*
X138707620Y-121054762D01*
X138755239Y-121007143D01*
X138850477Y-120864286D01*
X138898096Y-120673810D01*
X138898096Y-120292857D01*
X138850477Y-120197619D01*
X138802858Y-120150000D01*
X138707620Y-120102381D01*
X138517143Y-120102381D01*
X138421905Y-120150000D01*
X138374286Y-120197619D01*
X138326667Y-120292857D01*
X138326667Y-120530952D01*
X138374286Y-120626190D01*
X138421905Y-120673810D01*
X138517143Y-120721429D01*
X138707620Y-120721429D01*
X138802858Y-120673810D01*
X138850477Y-120626190D01*
X138898096Y-120530952D01*
X155122381Y-67825714D02*
X155836667Y-67825714D01*
X155979524Y-67873334D01*
X156074762Y-67968572D01*
X156122381Y-68111429D01*
X156122381Y-68206667D01*
X156122381Y-67349524D02*
X155122381Y-67349524D01*
X155122381Y-66968571D01*
X155170000Y-66873333D01*
X155217619Y-66825714D01*
X155312857Y-66778095D01*
X155455714Y-66778095D01*
X155550952Y-66825714D01*
X155598571Y-66873333D01*
X155646190Y-66968571D01*
X155646190Y-67349524D01*
X156122381Y-65825714D02*
X156122381Y-66397143D01*
X156122381Y-66111429D02*
X155122381Y-66111429D01*
X155265238Y-66206667D01*
X155360476Y-66301905D01*
X155408095Y-66397143D01*
X155122381Y-65206667D02*
X155122381Y-65111428D01*
X155170000Y-65016190D01*
X155217619Y-64968571D01*
X155312857Y-64920952D01*
X155503333Y-64873333D01*
X155741429Y-64873333D01*
X155931905Y-64920952D01*
X156027143Y-64968571D01*
X156074762Y-65016190D01*
X156122381Y-65111428D01*
X156122381Y-65206667D01*
X156074762Y-65301905D01*
X156027143Y-65349524D01*
X155931905Y-65397143D01*
X155741429Y-65444762D01*
X155503333Y-65444762D01*
X155312857Y-65397143D01*
X155217619Y-65349524D01*
X155170000Y-65301905D01*
X155122381Y-65206667D01*
X156122381Y-63920952D02*
X156122381Y-64492381D01*
X156122381Y-64206667D02*
X155122381Y-64206667D01*
X155265238Y-64301905D01*
X155360476Y-64397143D01*
X155408095Y-64492381D01*
X151312381Y-67825714D02*
X152026667Y-67825714D01*
X152169524Y-67873334D01*
X152264762Y-67968572D01*
X152312381Y-68111429D01*
X152312381Y-68206667D01*
X152312381Y-67349524D02*
X151312381Y-67349524D01*
X151312381Y-66968571D01*
X151360000Y-66873333D01*
X151407619Y-66825714D01*
X151502857Y-66778095D01*
X151645714Y-66778095D01*
X151740952Y-66825714D01*
X151788571Y-66873333D01*
X151836190Y-66968571D01*
X151836190Y-67349524D01*
X152312381Y-65825714D02*
X152312381Y-66397143D01*
X152312381Y-66111429D02*
X151312381Y-66111429D01*
X151455238Y-66206667D01*
X151550476Y-66301905D01*
X151598095Y-66397143D01*
X151312381Y-65206667D02*
X151312381Y-65111428D01*
X151360000Y-65016190D01*
X151407619Y-64968571D01*
X151502857Y-64920952D01*
X151693333Y-64873333D01*
X151931429Y-64873333D01*
X152121905Y-64920952D01*
X152217143Y-64968571D01*
X152264762Y-65016190D01*
X152312381Y-65111428D01*
X152312381Y-65206667D01*
X152264762Y-65301905D01*
X152217143Y-65349524D01*
X152121905Y-65397143D01*
X151931429Y-65444762D01*
X151693333Y-65444762D01*
X151502857Y-65397143D01*
X151407619Y-65349524D01*
X151360000Y-65301905D01*
X151312381Y-65206667D01*
X151407619Y-64492381D02*
X151360000Y-64444762D01*
X151312381Y-64349524D01*
X151312381Y-64111428D01*
X151360000Y-64016190D01*
X151407619Y-63968571D01*
X151502857Y-63920952D01*
X151598095Y-63920952D01*
X151740952Y-63968571D01*
X152312381Y-64540000D01*
X152312381Y-63920952D01*
X116292381Y-51315714D02*
X117006667Y-51315714D01*
X117149524Y-51363334D01*
X117244762Y-51458572D01*
X117292381Y-51601429D01*
X117292381Y-51696667D01*
X117292381Y-50839524D02*
X116292381Y-50839524D01*
X116292381Y-50458571D01*
X116340000Y-50363333D01*
X116387619Y-50315714D01*
X116482857Y-50268095D01*
X116625714Y-50268095D01*
X116720952Y-50315714D01*
X116768571Y-50363333D01*
X116816190Y-50458571D01*
X116816190Y-50839524D01*
X117292381Y-49315714D02*
X117292381Y-49887143D01*
X117292381Y-49601429D02*
X116292381Y-49601429D01*
X116435238Y-49696667D01*
X116530476Y-49791905D01*
X116578095Y-49887143D01*
X116292381Y-48696667D02*
X116292381Y-48601428D01*
X116340000Y-48506190D01*
X116387619Y-48458571D01*
X116482857Y-48410952D01*
X116673333Y-48363333D01*
X116911429Y-48363333D01*
X117101905Y-48410952D01*
X117197143Y-48458571D01*
X117244762Y-48506190D01*
X117292381Y-48601428D01*
X117292381Y-48696667D01*
X117244762Y-48791905D01*
X117197143Y-48839524D01*
X117101905Y-48887143D01*
X116911429Y-48934762D01*
X116673333Y-48934762D01*
X116482857Y-48887143D01*
X116387619Y-48839524D01*
X116340000Y-48791905D01*
X116292381Y-48696667D01*
X116625714Y-47506190D02*
X117292381Y-47506190D01*
X116244762Y-47744286D02*
X116959048Y-47982381D01*
X116959048Y-47363333D01*
X147502381Y-67825714D02*
X148216667Y-67825714D01*
X148359524Y-67873334D01*
X148454762Y-67968572D01*
X148502381Y-68111429D01*
X148502381Y-68206667D01*
X148502381Y-67349524D02*
X147502381Y-67349524D01*
X147502381Y-66968571D01*
X147550000Y-66873333D01*
X147597619Y-66825714D01*
X147692857Y-66778095D01*
X147835714Y-66778095D01*
X147930952Y-66825714D01*
X147978571Y-66873333D01*
X148026190Y-66968571D01*
X148026190Y-67349524D01*
X148502381Y-65825714D02*
X148502381Y-66397143D01*
X148502381Y-66111429D02*
X147502381Y-66111429D01*
X147645238Y-66206667D01*
X147740476Y-66301905D01*
X147788095Y-66397143D01*
X147502381Y-65206667D02*
X147502381Y-65111428D01*
X147550000Y-65016190D01*
X147597619Y-64968571D01*
X147692857Y-64920952D01*
X147883333Y-64873333D01*
X148121429Y-64873333D01*
X148311905Y-64920952D01*
X148407143Y-64968571D01*
X148454762Y-65016190D01*
X148502381Y-65111428D01*
X148502381Y-65206667D01*
X148454762Y-65301905D01*
X148407143Y-65349524D01*
X148311905Y-65397143D01*
X148121429Y-65444762D01*
X147883333Y-65444762D01*
X147692857Y-65397143D01*
X147597619Y-65349524D01*
X147550000Y-65301905D01*
X147502381Y-65206667D01*
X147502381Y-64540000D02*
X147502381Y-63920952D01*
X147883333Y-64254286D01*
X147883333Y-64111428D01*
X147930952Y-64016190D01*
X147978571Y-63968571D01*
X148073810Y-63920952D01*
X148311905Y-63920952D01*
X148407143Y-63968571D01*
X148454762Y-64016190D01*
X148502381Y-64111428D01*
X148502381Y-64397143D01*
X148454762Y-64492381D01*
X148407143Y-64540000D01*
X143692381Y-67825714D02*
X144406667Y-67825714D01*
X144549524Y-67873334D01*
X144644762Y-67968572D01*
X144692381Y-68111429D01*
X144692381Y-68206667D01*
X144692381Y-67349524D02*
X143692381Y-67349524D01*
X143692381Y-66968571D01*
X143740000Y-66873333D01*
X143787619Y-66825714D01*
X143882857Y-66778095D01*
X144025714Y-66778095D01*
X144120952Y-66825714D01*
X144168571Y-66873333D01*
X144216190Y-66968571D01*
X144216190Y-67349524D01*
X144692381Y-65825714D02*
X144692381Y-66397143D01*
X144692381Y-66111429D02*
X143692381Y-66111429D01*
X143835238Y-66206667D01*
X143930476Y-66301905D01*
X143978095Y-66397143D01*
X143692381Y-65206667D02*
X143692381Y-65111428D01*
X143740000Y-65016190D01*
X143787619Y-64968571D01*
X143882857Y-64920952D01*
X144073333Y-64873333D01*
X144311429Y-64873333D01*
X144501905Y-64920952D01*
X144597143Y-64968571D01*
X144644762Y-65016190D01*
X144692381Y-65111428D01*
X144692381Y-65206667D01*
X144644762Y-65301905D01*
X144597143Y-65349524D01*
X144501905Y-65397143D01*
X144311429Y-65444762D01*
X144073333Y-65444762D01*
X143882857Y-65397143D01*
X143787619Y-65349524D01*
X143740000Y-65301905D01*
X143692381Y-65206667D01*
X143692381Y-63968571D02*
X143692381Y-64444762D01*
X144168571Y-64492381D01*
X144120952Y-64444762D01*
X144073333Y-64349524D01*
X144073333Y-64111428D01*
X144120952Y-64016190D01*
X144168571Y-63968571D01*
X144263810Y-63920952D01*
X144501905Y-63920952D01*
X144597143Y-63968571D01*
X144644762Y-64016190D01*
X144692381Y-64111428D01*
X144692381Y-64349524D01*
X144644762Y-64444762D01*
X144597143Y-64492381D01*
X164282381Y-74080476D02*
X163282381Y-74080476D01*
X163282381Y-73699523D01*
X163330000Y-73604285D01*
X163377619Y-73556666D01*
X163472857Y-73509047D01*
X163615714Y-73509047D01*
X163710952Y-73556666D01*
X163758571Y-73604285D01*
X163806190Y-73699523D01*
X163806190Y-74080476D01*
X164282381Y-72556666D02*
X164282381Y-73128095D01*
X164282381Y-72842381D02*
X163282381Y-72842381D01*
X163425238Y-72937619D01*
X163520476Y-73032857D01*
X163568095Y-73128095D01*
X163282381Y-71937619D02*
X163282381Y-71842380D01*
X163330000Y-71747142D01*
X163377619Y-71699523D01*
X163472857Y-71651904D01*
X163663333Y-71604285D01*
X163901429Y-71604285D01*
X164091905Y-71651904D01*
X164187143Y-71699523D01*
X164234762Y-71747142D01*
X164282381Y-71842380D01*
X164282381Y-71937619D01*
X164234762Y-72032857D01*
X164187143Y-72080476D01*
X164091905Y-72128095D01*
X163901429Y-72175714D01*
X163663333Y-72175714D01*
X163472857Y-72128095D01*
X163377619Y-72080476D01*
X163330000Y-72032857D01*
X163282381Y-71937619D01*
X163282381Y-70699523D02*
X163282381Y-71175714D01*
X163758571Y-71223333D01*
X163710952Y-71175714D01*
X163663333Y-71080476D01*
X163663333Y-70842380D01*
X163710952Y-70747142D01*
X163758571Y-70699523D01*
X163853810Y-70651904D01*
X164091905Y-70651904D01*
X164187143Y-70699523D01*
X164234762Y-70747142D01*
X164282381Y-70842380D01*
X164282381Y-71080476D01*
X164234762Y-71175714D01*
X164187143Y-71223333D01*
X164282381Y-67730476D02*
X163282381Y-67730476D01*
X163282381Y-67349523D01*
X163330000Y-67254285D01*
X163377619Y-67206666D01*
X163472857Y-67159047D01*
X163615714Y-67159047D01*
X163710952Y-67206666D01*
X163758571Y-67254285D01*
X163806190Y-67349523D01*
X163806190Y-67730476D01*
X164282381Y-66206666D02*
X164282381Y-66778095D01*
X164282381Y-66492381D02*
X163282381Y-66492381D01*
X163425238Y-66587619D01*
X163520476Y-66682857D01*
X163568095Y-66778095D01*
X163282381Y-65587619D02*
X163282381Y-65492380D01*
X163330000Y-65397142D01*
X163377619Y-65349523D01*
X163472857Y-65301904D01*
X163663333Y-65254285D01*
X163901429Y-65254285D01*
X164091905Y-65301904D01*
X164187143Y-65349523D01*
X164234762Y-65397142D01*
X164282381Y-65492380D01*
X164282381Y-65587619D01*
X164234762Y-65682857D01*
X164187143Y-65730476D01*
X164091905Y-65778095D01*
X163901429Y-65825714D01*
X163663333Y-65825714D01*
X163472857Y-65778095D01*
X163377619Y-65730476D01*
X163330000Y-65682857D01*
X163282381Y-65587619D01*
X163282381Y-64920952D02*
X163282381Y-64254285D01*
X164282381Y-64682857D01*
X156027381Y-51919047D02*
X155551190Y-52252381D01*
X156027381Y-52490476D02*
X155027381Y-52490476D01*
X155027381Y-52109523D01*
X155075000Y-52014285D01*
X155122619Y-51966666D01*
X155217857Y-51919047D01*
X155360714Y-51919047D01*
X155455952Y-51966666D01*
X155503571Y-52014285D01*
X155551190Y-52109523D01*
X155551190Y-52490476D01*
X156027381Y-50966666D02*
X156027381Y-51538095D01*
X156027381Y-51252381D02*
X155027381Y-51252381D01*
X155170238Y-51347619D01*
X155265476Y-51442857D01*
X155313095Y-51538095D01*
X155027381Y-50347619D02*
X155027381Y-50252380D01*
X155075000Y-50157142D01*
X155122619Y-50109523D01*
X155217857Y-50061904D01*
X155408333Y-50014285D01*
X155646429Y-50014285D01*
X155836905Y-50061904D01*
X155932143Y-50109523D01*
X155979762Y-50157142D01*
X156027381Y-50252380D01*
X156027381Y-50347619D01*
X155979762Y-50442857D01*
X155932143Y-50490476D01*
X155836905Y-50538095D01*
X155646429Y-50585714D01*
X155408333Y-50585714D01*
X155217857Y-50538095D01*
X155122619Y-50490476D01*
X155075000Y-50442857D01*
X155027381Y-50347619D01*
X156027381Y-49061904D02*
X156027381Y-49633333D01*
X156027381Y-49347619D02*
X155027381Y-49347619D01*
X155170238Y-49442857D01*
X155265476Y-49538095D01*
X155313095Y-49633333D01*
X152217381Y-51919047D02*
X151741190Y-52252381D01*
X152217381Y-52490476D02*
X151217381Y-52490476D01*
X151217381Y-52109523D01*
X151265000Y-52014285D01*
X151312619Y-51966666D01*
X151407857Y-51919047D01*
X151550714Y-51919047D01*
X151645952Y-51966666D01*
X151693571Y-52014285D01*
X151741190Y-52109523D01*
X151741190Y-52490476D01*
X152217381Y-50966666D02*
X152217381Y-51538095D01*
X152217381Y-51252381D02*
X151217381Y-51252381D01*
X151360238Y-51347619D01*
X151455476Y-51442857D01*
X151503095Y-51538095D01*
X151217381Y-50347619D02*
X151217381Y-50252380D01*
X151265000Y-50157142D01*
X151312619Y-50109523D01*
X151407857Y-50061904D01*
X151598333Y-50014285D01*
X151836429Y-50014285D01*
X152026905Y-50061904D01*
X152122143Y-50109523D01*
X152169762Y-50157142D01*
X152217381Y-50252380D01*
X152217381Y-50347619D01*
X152169762Y-50442857D01*
X152122143Y-50490476D01*
X152026905Y-50538095D01*
X151836429Y-50585714D01*
X151598333Y-50585714D01*
X151407857Y-50538095D01*
X151312619Y-50490476D01*
X151265000Y-50442857D01*
X151217381Y-50347619D01*
X151312619Y-49633333D02*
X151265000Y-49585714D01*
X151217381Y-49490476D01*
X151217381Y-49252380D01*
X151265000Y-49157142D01*
X151312619Y-49109523D01*
X151407857Y-49061904D01*
X151503095Y-49061904D01*
X151645952Y-49109523D01*
X152217381Y-49680952D01*
X152217381Y-49061904D01*
X148407381Y-51919047D02*
X147931190Y-52252381D01*
X148407381Y-52490476D02*
X147407381Y-52490476D01*
X147407381Y-52109523D01*
X147455000Y-52014285D01*
X147502619Y-51966666D01*
X147597857Y-51919047D01*
X147740714Y-51919047D01*
X147835952Y-51966666D01*
X147883571Y-52014285D01*
X147931190Y-52109523D01*
X147931190Y-52490476D01*
X148407381Y-50966666D02*
X148407381Y-51538095D01*
X148407381Y-51252381D02*
X147407381Y-51252381D01*
X147550238Y-51347619D01*
X147645476Y-51442857D01*
X147693095Y-51538095D01*
X147407381Y-50347619D02*
X147407381Y-50252380D01*
X147455000Y-50157142D01*
X147502619Y-50109523D01*
X147597857Y-50061904D01*
X147788333Y-50014285D01*
X148026429Y-50014285D01*
X148216905Y-50061904D01*
X148312143Y-50109523D01*
X148359762Y-50157142D01*
X148407381Y-50252380D01*
X148407381Y-50347619D01*
X148359762Y-50442857D01*
X148312143Y-50490476D01*
X148216905Y-50538095D01*
X148026429Y-50585714D01*
X147788333Y-50585714D01*
X147597857Y-50538095D01*
X147502619Y-50490476D01*
X147455000Y-50442857D01*
X147407381Y-50347619D01*
X147407381Y-49680952D02*
X147407381Y-49061904D01*
X147788333Y-49395238D01*
X147788333Y-49252380D01*
X147835952Y-49157142D01*
X147883571Y-49109523D01*
X147978810Y-49061904D01*
X148216905Y-49061904D01*
X148312143Y-49109523D01*
X148359762Y-49157142D01*
X148407381Y-49252380D01*
X148407381Y-49538095D01*
X148359762Y-49633333D01*
X148312143Y-49680952D01*
X144597381Y-51919047D02*
X144121190Y-52252381D01*
X144597381Y-52490476D02*
X143597381Y-52490476D01*
X143597381Y-52109523D01*
X143645000Y-52014285D01*
X143692619Y-51966666D01*
X143787857Y-51919047D01*
X143930714Y-51919047D01*
X144025952Y-51966666D01*
X144073571Y-52014285D01*
X144121190Y-52109523D01*
X144121190Y-52490476D01*
X144597381Y-50966666D02*
X144597381Y-51538095D01*
X144597381Y-51252381D02*
X143597381Y-51252381D01*
X143740238Y-51347619D01*
X143835476Y-51442857D01*
X143883095Y-51538095D01*
X143597381Y-50347619D02*
X143597381Y-50252380D01*
X143645000Y-50157142D01*
X143692619Y-50109523D01*
X143787857Y-50061904D01*
X143978333Y-50014285D01*
X144216429Y-50014285D01*
X144406905Y-50061904D01*
X144502143Y-50109523D01*
X144549762Y-50157142D01*
X144597381Y-50252380D01*
X144597381Y-50347619D01*
X144549762Y-50442857D01*
X144502143Y-50490476D01*
X144406905Y-50538095D01*
X144216429Y-50585714D01*
X143978333Y-50585714D01*
X143787857Y-50538095D01*
X143692619Y-50490476D01*
X143645000Y-50442857D01*
X143597381Y-50347619D01*
X143930714Y-49157142D02*
X144597381Y-49157142D01*
X143549762Y-49395238D02*
X144264048Y-49633333D01*
X144264048Y-49014285D01*
X158265953Y-108402381D02*
X157932619Y-107926190D01*
X157694524Y-108402381D02*
X157694524Y-107402381D01*
X158075477Y-107402381D01*
X158170715Y-107450000D01*
X158218334Y-107497619D01*
X158265953Y-107592857D01*
X158265953Y-107735714D01*
X158218334Y-107830952D01*
X158170715Y-107878571D01*
X158075477Y-107926190D01*
X157694524Y-107926190D01*
X159218334Y-108402381D02*
X158646905Y-108402381D01*
X158932619Y-108402381D02*
X158932619Y-107402381D01*
X158837381Y-107545238D01*
X158742143Y-107640476D01*
X158646905Y-107688095D01*
X159837381Y-107402381D02*
X159932620Y-107402381D01*
X160027858Y-107450000D01*
X160075477Y-107497619D01*
X160123096Y-107592857D01*
X160170715Y-107783333D01*
X160170715Y-108021429D01*
X160123096Y-108211905D01*
X160075477Y-108307143D01*
X160027858Y-108354762D01*
X159932620Y-108402381D01*
X159837381Y-108402381D01*
X159742143Y-108354762D01*
X159694524Y-108307143D01*
X159646905Y-108211905D01*
X159599286Y-108021429D01*
X159599286Y-107783333D01*
X159646905Y-107592857D01*
X159694524Y-107497619D01*
X159742143Y-107450000D01*
X159837381Y-107402381D01*
X161075477Y-107402381D02*
X160599286Y-107402381D01*
X160551667Y-107878571D01*
X160599286Y-107830952D01*
X160694524Y-107783333D01*
X160932620Y-107783333D01*
X161027858Y-107830952D01*
X161075477Y-107878571D01*
X161123096Y-107973810D01*
X161123096Y-108211905D01*
X161075477Y-108307143D01*
X161027858Y-108354762D01*
X160932620Y-108402381D01*
X160694524Y-108402381D01*
X160599286Y-108354762D01*
X160551667Y-108307143D01*
X141755953Y-108402381D02*
X141422619Y-107926190D01*
X141184524Y-108402381D02*
X141184524Y-107402381D01*
X141565477Y-107402381D01*
X141660715Y-107450000D01*
X141708334Y-107497619D01*
X141755953Y-107592857D01*
X141755953Y-107735714D01*
X141708334Y-107830952D01*
X141660715Y-107878571D01*
X141565477Y-107926190D01*
X141184524Y-107926190D01*
X142708334Y-108402381D02*
X142136905Y-108402381D01*
X142422619Y-108402381D02*
X142422619Y-107402381D01*
X142327381Y-107545238D01*
X142232143Y-107640476D01*
X142136905Y-107688095D01*
X143327381Y-107402381D02*
X143422620Y-107402381D01*
X143517858Y-107450000D01*
X143565477Y-107497619D01*
X143613096Y-107592857D01*
X143660715Y-107783333D01*
X143660715Y-108021429D01*
X143613096Y-108211905D01*
X143565477Y-108307143D01*
X143517858Y-108354762D01*
X143422620Y-108402381D01*
X143327381Y-108402381D01*
X143232143Y-108354762D01*
X143184524Y-108307143D01*
X143136905Y-108211905D01*
X143089286Y-108021429D01*
X143089286Y-107783333D01*
X143136905Y-107592857D01*
X143184524Y-107497619D01*
X143232143Y-107450000D01*
X143327381Y-107402381D01*
X144517858Y-107402381D02*
X144327381Y-107402381D01*
X144232143Y-107450000D01*
X144184524Y-107497619D01*
X144089286Y-107640476D01*
X144041667Y-107830952D01*
X144041667Y-108211905D01*
X144089286Y-108307143D01*
X144136905Y-108354762D01*
X144232143Y-108402381D01*
X144422620Y-108402381D01*
X144517858Y-108354762D01*
X144565477Y-108307143D01*
X144613096Y-108211905D01*
X144613096Y-107973810D01*
X144565477Y-107878571D01*
X144517858Y-107830952D01*
X144422620Y-107783333D01*
X144232143Y-107783333D01*
X144136905Y-107830952D01*
X144089286Y-107878571D01*
X144041667Y-107973810D01*
X128087381Y-99337619D02*
X127611190Y-99670953D01*
X128087381Y-99909048D02*
X127087381Y-99909048D01*
X127087381Y-99528095D01*
X127135000Y-99432857D01*
X127182619Y-99385238D01*
X127277857Y-99337619D01*
X127420714Y-99337619D01*
X127515952Y-99385238D01*
X127563571Y-99432857D01*
X127611190Y-99528095D01*
X127611190Y-99909048D01*
X127087381Y-99051905D02*
X128087381Y-98718572D01*
X127087381Y-98385238D01*
X128087381Y-97528095D02*
X128087381Y-98099524D01*
X128087381Y-97813810D02*
X127087381Y-97813810D01*
X127230238Y-97909048D01*
X127325476Y-98004286D01*
X127373095Y-98099524D01*
X127087381Y-96909048D02*
X127087381Y-96813809D01*
X127135000Y-96718571D01*
X127182619Y-96670952D01*
X127277857Y-96623333D01*
X127468333Y-96575714D01*
X127706429Y-96575714D01*
X127896905Y-96623333D01*
X127992143Y-96670952D01*
X128039762Y-96718571D01*
X128087381Y-96813809D01*
X128087381Y-96909048D01*
X128039762Y-97004286D01*
X127992143Y-97051905D01*
X127896905Y-97099524D01*
X127706429Y-97147143D01*
X127468333Y-97147143D01*
X127277857Y-97099524D01*
X127182619Y-97051905D01*
X127135000Y-97004286D01*
X127087381Y-96909048D01*
X128087381Y-95623333D02*
X128087381Y-96194762D01*
X128087381Y-95909048D02*
X127087381Y-95909048D01*
X127230238Y-96004286D01*
X127325476Y-96099524D01*
X127373095Y-96194762D01*
X128087381Y-110767619D02*
X127611190Y-111100953D01*
X128087381Y-111339048D02*
X127087381Y-111339048D01*
X127087381Y-110958095D01*
X127135000Y-110862857D01*
X127182619Y-110815238D01*
X127277857Y-110767619D01*
X127420714Y-110767619D01*
X127515952Y-110815238D01*
X127563571Y-110862857D01*
X127611190Y-110958095D01*
X127611190Y-111339048D01*
X127087381Y-110481905D02*
X128087381Y-110148572D01*
X127087381Y-109815238D01*
X128087381Y-108958095D02*
X128087381Y-109529524D01*
X128087381Y-109243810D02*
X127087381Y-109243810D01*
X127230238Y-109339048D01*
X127325476Y-109434286D01*
X127373095Y-109529524D01*
X127087381Y-108339048D02*
X127087381Y-108243809D01*
X127135000Y-108148571D01*
X127182619Y-108100952D01*
X127277857Y-108053333D01*
X127468333Y-108005714D01*
X127706429Y-108005714D01*
X127896905Y-108053333D01*
X127992143Y-108100952D01*
X128039762Y-108148571D01*
X128087381Y-108243809D01*
X128087381Y-108339048D01*
X128039762Y-108434286D01*
X127992143Y-108481905D01*
X127896905Y-108529524D01*
X127706429Y-108577143D01*
X127468333Y-108577143D01*
X127277857Y-108529524D01*
X127182619Y-108481905D01*
X127135000Y-108434286D01*
X127087381Y-108339048D01*
X127182619Y-107624762D02*
X127135000Y-107577143D01*
X127087381Y-107481905D01*
X127087381Y-107243809D01*
X127135000Y-107148571D01*
X127182619Y-107100952D01*
X127277857Y-107053333D01*
X127373095Y-107053333D01*
X127515952Y-107100952D01*
X128087381Y-107672381D01*
X128087381Y-107053333D01*
X88352381Y-75374286D02*
X89161905Y-75374286D01*
X89257143Y-75326667D01*
X89304762Y-75279048D01*
X89352381Y-75183810D01*
X89352381Y-74993333D01*
X89304762Y-74898095D01*
X89257143Y-74850476D01*
X89161905Y-74802857D01*
X88352381Y-74802857D01*
X89352381Y-73802857D02*
X89352381Y-74374286D01*
X89352381Y-74088572D02*
X88352381Y-74088572D01*
X88495238Y-74183810D01*
X88590476Y-74279048D01*
X88638095Y-74374286D01*
X88352381Y-73183810D02*
X88352381Y-73088571D01*
X88400000Y-72993333D01*
X88447619Y-72945714D01*
X88542857Y-72898095D01*
X88733333Y-72850476D01*
X88971429Y-72850476D01*
X89161905Y-72898095D01*
X89257143Y-72945714D01*
X89304762Y-72993333D01*
X89352381Y-73088571D01*
X89352381Y-73183810D01*
X89304762Y-73279048D01*
X89257143Y-73326667D01*
X89161905Y-73374286D01*
X88971429Y-73421905D01*
X88733333Y-73421905D01*
X88542857Y-73374286D01*
X88447619Y-73326667D01*
X88400000Y-73279048D01*
X88352381Y-73183810D01*
X89352381Y-71898095D02*
X89352381Y-72469524D01*
X89352381Y-72183810D02*
X88352381Y-72183810D01*
X88495238Y-72279048D01*
X88590476Y-72374286D01*
X88638095Y-72469524D01*
X153225714Y-98512381D02*
X153225714Y-99321905D01*
X153273333Y-99417143D01*
X153320952Y-99464762D01*
X153416190Y-99512381D01*
X153606667Y-99512381D01*
X153701905Y-99464762D01*
X153749524Y-99417143D01*
X153797143Y-99321905D01*
X153797143Y-98512381D01*
X154797143Y-99512381D02*
X154225714Y-99512381D01*
X154511428Y-99512381D02*
X154511428Y-98512381D01*
X154416190Y-98655238D01*
X154320952Y-98750476D01*
X154225714Y-98798095D01*
X155416190Y-98512381D02*
X155511429Y-98512381D01*
X155606667Y-98560000D01*
X155654286Y-98607619D01*
X155701905Y-98702857D01*
X155749524Y-98893333D01*
X155749524Y-99131429D01*
X155701905Y-99321905D01*
X155654286Y-99417143D01*
X155606667Y-99464762D01*
X155511429Y-99512381D01*
X155416190Y-99512381D01*
X155320952Y-99464762D01*
X155273333Y-99417143D01*
X155225714Y-99321905D01*
X155178095Y-99131429D01*
X155178095Y-98893333D01*
X155225714Y-98702857D01*
X155273333Y-98607619D01*
X155320952Y-98560000D01*
X155416190Y-98512381D01*
X156082857Y-98512381D02*
X156701905Y-98512381D01*
X156368571Y-98893333D01*
X156511429Y-98893333D01*
X156606667Y-98940952D01*
X156654286Y-98988571D01*
X156701905Y-99083810D01*
X156701905Y-99321905D01*
X156654286Y-99417143D01*
X156606667Y-99464762D01*
X156511429Y-99512381D01*
X156225714Y-99512381D01*
X156130476Y-99464762D01*
X156082857Y-99417143D01*
X136715714Y-98512381D02*
X136715714Y-99321905D01*
X136763333Y-99417143D01*
X136810952Y-99464762D01*
X136906190Y-99512381D01*
X137096667Y-99512381D01*
X137191905Y-99464762D01*
X137239524Y-99417143D01*
X137287143Y-99321905D01*
X137287143Y-98512381D01*
X138287143Y-99512381D02*
X137715714Y-99512381D01*
X138001428Y-99512381D02*
X138001428Y-98512381D01*
X137906190Y-98655238D01*
X137810952Y-98750476D01*
X137715714Y-98798095D01*
X138906190Y-98512381D02*
X139001429Y-98512381D01*
X139096667Y-98560000D01*
X139144286Y-98607619D01*
X139191905Y-98702857D01*
X139239524Y-98893333D01*
X139239524Y-99131429D01*
X139191905Y-99321905D01*
X139144286Y-99417143D01*
X139096667Y-99464762D01*
X139001429Y-99512381D01*
X138906190Y-99512381D01*
X138810952Y-99464762D01*
X138763333Y-99417143D01*
X138715714Y-99321905D01*
X138668095Y-99131429D01*
X138668095Y-98893333D01*
X138715714Y-98702857D01*
X138763333Y-98607619D01*
X138810952Y-98560000D01*
X138906190Y-98512381D01*
X140096667Y-98845714D02*
X140096667Y-99512381D01*
X139858571Y-98464762D02*
X139620476Y-99179048D01*
X140239524Y-99179048D01*
X140525714Y-71152381D02*
X140525714Y-71961905D01*
X140573333Y-72057143D01*
X140620952Y-72104762D01*
X140716190Y-72152381D01*
X140906667Y-72152381D01*
X141001905Y-72104762D01*
X141049524Y-72057143D01*
X141097143Y-71961905D01*
X141097143Y-71152381D01*
X142097143Y-72152381D02*
X141525714Y-72152381D01*
X141811428Y-72152381D02*
X141811428Y-71152381D01*
X141716190Y-71295238D01*
X141620952Y-71390476D01*
X141525714Y-71438095D01*
X142716190Y-71152381D02*
X142811429Y-71152381D01*
X142906667Y-71200000D01*
X142954286Y-71247619D01*
X143001905Y-71342857D01*
X143049524Y-71533333D01*
X143049524Y-71771429D01*
X143001905Y-71961905D01*
X142954286Y-72057143D01*
X142906667Y-72104762D01*
X142811429Y-72152381D01*
X142716190Y-72152381D01*
X142620952Y-72104762D01*
X142573333Y-72057143D01*
X142525714Y-71961905D01*
X142478095Y-71771429D01*
X142478095Y-71533333D01*
X142525714Y-71342857D01*
X142573333Y-71247619D01*
X142620952Y-71200000D01*
X142716190Y-71152381D01*
X143430476Y-71247619D02*
X143478095Y-71200000D01*
X143573333Y-71152381D01*
X143811429Y-71152381D01*
X143906667Y-71200000D01*
X143954286Y-71247619D01*
X144001905Y-71342857D01*
X144001905Y-71438095D01*
X143954286Y-71580952D01*
X143382857Y-72152381D01*
X144001905Y-72152381D01*
X140525714Y-81312381D02*
X140525714Y-82121905D01*
X140573333Y-82217143D01*
X140620952Y-82264762D01*
X140716190Y-82312381D01*
X140906667Y-82312381D01*
X141001905Y-82264762D01*
X141049524Y-82217143D01*
X141097143Y-82121905D01*
X141097143Y-81312381D01*
X142097143Y-82312381D02*
X141525714Y-82312381D01*
X141811428Y-82312381D02*
X141811428Y-81312381D01*
X141716190Y-81455238D01*
X141620952Y-81550476D01*
X141525714Y-81598095D01*
X142716190Y-81312381D02*
X142811429Y-81312381D01*
X142906667Y-81360000D01*
X142954286Y-81407619D01*
X143001905Y-81502857D01*
X143049524Y-81693333D01*
X143049524Y-81931429D01*
X143001905Y-82121905D01*
X142954286Y-82217143D01*
X142906667Y-82264762D01*
X142811429Y-82312381D01*
X142716190Y-82312381D01*
X142620952Y-82264762D01*
X142573333Y-82217143D01*
X142525714Y-82121905D01*
X142478095Y-81931429D01*
X142478095Y-81693333D01*
X142525714Y-81502857D01*
X142573333Y-81407619D01*
X142620952Y-81360000D01*
X142716190Y-81312381D01*
X143954286Y-81312381D02*
X143478095Y-81312381D01*
X143430476Y-81788571D01*
X143478095Y-81740952D01*
X143573333Y-81693333D01*
X143811429Y-81693333D01*
X143906667Y-81740952D01*
X143954286Y-81788571D01*
X144001905Y-81883810D01*
X144001905Y-82121905D01*
X143954286Y-82217143D01*
X143906667Y-82264762D01*
X143811429Y-82312381D01*
X143573333Y-82312381D01*
X143478095Y-82264762D01*
X143430476Y-82217143D01*
X84669524Y-56332381D02*
X84669524Y-55332381D01*
X85050477Y-55332381D01*
X85145715Y-55380000D01*
X85193334Y-55427619D01*
X85240953Y-55522857D01*
X85240953Y-55665714D01*
X85193334Y-55760952D01*
X85145715Y-55808571D01*
X85050477Y-55856190D01*
X84669524Y-55856190D01*
X86193334Y-56332381D02*
X85621905Y-56332381D01*
X85907619Y-56332381D02*
X85907619Y-55332381D01*
X85812381Y-55475238D01*
X85717143Y-55570476D01*
X85621905Y-55618095D01*
X86812381Y-55332381D02*
X86907620Y-55332381D01*
X87002858Y-55380000D01*
X87050477Y-55427619D01*
X87098096Y-55522857D01*
X87145715Y-55713333D01*
X87145715Y-55951429D01*
X87098096Y-56141905D01*
X87050477Y-56237143D01*
X87002858Y-56284762D01*
X86907620Y-56332381D01*
X86812381Y-56332381D01*
X86717143Y-56284762D01*
X86669524Y-56237143D01*
X86621905Y-56141905D01*
X86574286Y-55951429D01*
X86574286Y-55713333D01*
X86621905Y-55522857D01*
X86669524Y-55427619D01*
X86717143Y-55380000D01*
X86812381Y-55332381D01*
X88098096Y-56332381D02*
X87526667Y-56332381D01*
X87812381Y-56332381D02*
X87812381Y-55332381D01*
X87717143Y-55475238D01*
X87621905Y-55570476D01*
X87526667Y-55618095D01*
X82336191Y-43537143D02*
X82288572Y-43584762D01*
X82145715Y-43632381D01*
X82050477Y-43632381D01*
X81907619Y-43584762D01*
X81812381Y-43489524D01*
X81764762Y-43394286D01*
X81717143Y-43203810D01*
X81717143Y-43060952D01*
X81764762Y-42870476D01*
X81812381Y-42775238D01*
X81907619Y-42680000D01*
X82050477Y-42632381D01*
X82145715Y-42632381D01*
X82288572Y-42680000D01*
X82336191Y-42727619D01*
X82955238Y-42632381D02*
X83145715Y-42632381D01*
X83240953Y-42680000D01*
X83336191Y-42775238D01*
X83383810Y-42965714D01*
X83383810Y-43299048D01*
X83336191Y-43489524D01*
X83240953Y-43584762D01*
X83145715Y-43632381D01*
X82955238Y-43632381D01*
X82860000Y-43584762D01*
X82764762Y-43489524D01*
X82717143Y-43299048D01*
X82717143Y-42965714D01*
X82764762Y-42775238D01*
X82860000Y-42680000D01*
X82955238Y-42632381D01*
X83812381Y-43632381D02*
X83812381Y-42632381D01*
X84383810Y-43632381D01*
X84383810Y-42632381D01*
X84860000Y-43632381D02*
X84860000Y-42632381D01*
X85431429Y-43632381D01*
X85431429Y-42632381D01*
X85669524Y-43727619D02*
X86431429Y-43727619D01*
X86860000Y-42632381D02*
X86955239Y-42632381D01*
X87050477Y-42680000D01*
X87098096Y-42727619D01*
X87145715Y-42822857D01*
X87193334Y-43013333D01*
X87193334Y-43251429D01*
X87145715Y-43441905D01*
X87098096Y-43537143D01*
X87050477Y-43584762D01*
X86955239Y-43632381D01*
X86860000Y-43632381D01*
X86764762Y-43584762D01*
X86717143Y-43537143D01*
X86669524Y-43441905D01*
X86621905Y-43251429D01*
X86621905Y-43013333D01*
X86669524Y-42822857D01*
X86717143Y-42727619D01*
X86764762Y-42680000D01*
X86860000Y-42632381D01*
X88145715Y-43632381D02*
X87574286Y-43632381D01*
X87860000Y-43632381D02*
X87860000Y-42632381D01*
X87764762Y-42775238D01*
X87669524Y-42870476D01*
X87574286Y-42918095D01*
X88479048Y-42632381D02*
X89145715Y-43632381D01*
X89145715Y-42632381D02*
X88479048Y-43632381D01*
X89717143Y-42632381D02*
X89812382Y-42632381D01*
X89907620Y-42680000D01*
X89955239Y-42727619D01*
X90002858Y-42822857D01*
X90050477Y-43013333D01*
X90050477Y-43251429D01*
X90002858Y-43441905D01*
X89955239Y-43537143D01*
X89907620Y-43584762D01*
X89812382Y-43632381D01*
X89717143Y-43632381D01*
X89621905Y-43584762D01*
X89574286Y-43537143D01*
X89526667Y-43441905D01*
X89479048Y-43251429D01*
X89479048Y-43013333D01*
X89526667Y-42822857D01*
X89574286Y-42727619D01*
X89621905Y-42680000D01*
X89717143Y-42632381D01*
X90383810Y-42632381D02*
X91002858Y-42632381D01*
X90669524Y-43013333D01*
X90812382Y-43013333D01*
X90907620Y-43060952D01*
X90955239Y-43108571D01*
X91002858Y-43203810D01*
X91002858Y-43441905D01*
X90955239Y-43537143D01*
X90907620Y-43584762D01*
X90812382Y-43632381D01*
X90526667Y-43632381D01*
X90431429Y-43584762D01*
X90383810Y-43537143D01*
X99909524Y-56332381D02*
X99909524Y-55332381D01*
X100290477Y-55332381D01*
X100385715Y-55380000D01*
X100433334Y-55427619D01*
X100480953Y-55522857D01*
X100480953Y-55665714D01*
X100433334Y-55760952D01*
X100385715Y-55808571D01*
X100290477Y-55856190D01*
X99909524Y-55856190D01*
X101433334Y-56332381D02*
X100861905Y-56332381D01*
X101147619Y-56332381D02*
X101147619Y-55332381D01*
X101052381Y-55475238D01*
X100957143Y-55570476D01*
X100861905Y-55618095D01*
X102052381Y-55332381D02*
X102147620Y-55332381D01*
X102242858Y-55380000D01*
X102290477Y-55427619D01*
X102338096Y-55522857D01*
X102385715Y-55713333D01*
X102385715Y-55951429D01*
X102338096Y-56141905D01*
X102290477Y-56237143D01*
X102242858Y-56284762D01*
X102147620Y-56332381D01*
X102052381Y-56332381D01*
X101957143Y-56284762D01*
X101909524Y-56237143D01*
X101861905Y-56141905D01*
X101814286Y-55951429D01*
X101814286Y-55713333D01*
X101861905Y-55522857D01*
X101909524Y-55427619D01*
X101957143Y-55380000D01*
X102052381Y-55332381D01*
X102719048Y-55332381D02*
X103338096Y-55332381D01*
X103004762Y-55713333D01*
X103147620Y-55713333D01*
X103242858Y-55760952D01*
X103290477Y-55808571D01*
X103338096Y-55903810D01*
X103338096Y-56141905D01*
X103290477Y-56237143D01*
X103242858Y-56284762D01*
X103147620Y-56332381D01*
X102861905Y-56332381D01*
X102766667Y-56284762D01*
X102719048Y-56237143D01*
X97576191Y-43537143D02*
X97528572Y-43584762D01*
X97385715Y-43632381D01*
X97290477Y-43632381D01*
X97147619Y-43584762D01*
X97052381Y-43489524D01*
X97004762Y-43394286D01*
X96957143Y-43203810D01*
X96957143Y-43060952D01*
X97004762Y-42870476D01*
X97052381Y-42775238D01*
X97147619Y-42680000D01*
X97290477Y-42632381D01*
X97385715Y-42632381D01*
X97528572Y-42680000D01*
X97576191Y-42727619D01*
X98195238Y-42632381D02*
X98385715Y-42632381D01*
X98480953Y-42680000D01*
X98576191Y-42775238D01*
X98623810Y-42965714D01*
X98623810Y-43299048D01*
X98576191Y-43489524D01*
X98480953Y-43584762D01*
X98385715Y-43632381D01*
X98195238Y-43632381D01*
X98100000Y-43584762D01*
X98004762Y-43489524D01*
X97957143Y-43299048D01*
X97957143Y-42965714D01*
X98004762Y-42775238D01*
X98100000Y-42680000D01*
X98195238Y-42632381D01*
X99052381Y-43632381D02*
X99052381Y-42632381D01*
X99623810Y-43632381D01*
X99623810Y-42632381D01*
X100100000Y-43632381D02*
X100100000Y-42632381D01*
X100671429Y-43632381D01*
X100671429Y-42632381D01*
X100909524Y-43727619D02*
X101671429Y-43727619D01*
X102100000Y-42632381D02*
X102195239Y-42632381D01*
X102290477Y-42680000D01*
X102338096Y-42727619D01*
X102385715Y-42822857D01*
X102433334Y-43013333D01*
X102433334Y-43251429D01*
X102385715Y-43441905D01*
X102338096Y-43537143D01*
X102290477Y-43584762D01*
X102195239Y-43632381D01*
X102100000Y-43632381D01*
X102004762Y-43584762D01*
X101957143Y-43537143D01*
X101909524Y-43441905D01*
X101861905Y-43251429D01*
X101861905Y-43013333D01*
X101909524Y-42822857D01*
X101957143Y-42727619D01*
X102004762Y-42680000D01*
X102100000Y-42632381D01*
X103385715Y-43632381D02*
X102814286Y-43632381D01*
X103100000Y-43632381D02*
X103100000Y-42632381D01*
X103004762Y-42775238D01*
X102909524Y-42870476D01*
X102814286Y-42918095D01*
X103719048Y-42632381D02*
X104385715Y-43632381D01*
X104385715Y-42632381D02*
X103719048Y-43632381D01*
X104957143Y-42632381D02*
X105052382Y-42632381D01*
X105147620Y-42680000D01*
X105195239Y-42727619D01*
X105242858Y-42822857D01*
X105290477Y-43013333D01*
X105290477Y-43251429D01*
X105242858Y-43441905D01*
X105195239Y-43537143D01*
X105147620Y-43584762D01*
X105052382Y-43632381D01*
X104957143Y-43632381D01*
X104861905Y-43584762D01*
X104814286Y-43537143D01*
X104766667Y-43441905D01*
X104719048Y-43251429D01*
X104719048Y-43013333D01*
X104766667Y-42822857D01*
X104814286Y-42727619D01*
X104861905Y-42680000D01*
X104957143Y-42632381D01*
X105623810Y-42632381D02*
X106242858Y-42632381D01*
X105909524Y-43013333D01*
X106052382Y-43013333D01*
X106147620Y-43060952D01*
X106195239Y-43108571D01*
X106242858Y-43203810D01*
X106242858Y-43441905D01*
X106195239Y-43537143D01*
X106147620Y-43584762D01*
X106052382Y-43632381D01*
X105766667Y-43632381D01*
X105671429Y-43584762D01*
X105623810Y-43537143D01*
X99909524Y-58237381D02*
X99909524Y-57237381D01*
X100480953Y-58237381D02*
X100052381Y-57665952D01*
X100480953Y-57237381D02*
X99909524Y-57808810D01*
X101433334Y-58237381D02*
X100861905Y-58237381D01*
X101147619Y-58237381D02*
X101147619Y-57237381D01*
X101052381Y-57380238D01*
X100957143Y-57475476D01*
X100861905Y-57523095D01*
X102052381Y-57237381D02*
X102147620Y-57237381D01*
X102242858Y-57285000D01*
X102290477Y-57332619D01*
X102338096Y-57427857D01*
X102385715Y-57618333D01*
X102385715Y-57856429D01*
X102338096Y-58046905D01*
X102290477Y-58142143D01*
X102242858Y-58189762D01*
X102147620Y-58237381D01*
X102052381Y-58237381D01*
X101957143Y-58189762D01*
X101909524Y-58142143D01*
X101861905Y-58046905D01*
X101814286Y-57856429D01*
X101814286Y-57618333D01*
X101861905Y-57427857D01*
X101909524Y-57332619D01*
X101957143Y-57285000D01*
X102052381Y-57237381D01*
X103338096Y-58237381D02*
X102766667Y-58237381D01*
X103052381Y-58237381D02*
X103052381Y-57237381D01*
X102957143Y-57380238D01*
X102861905Y-57475476D01*
X102766667Y-57523095D01*
X99361905Y-65222381D02*
X99361905Y-64222381D01*
X99600000Y-64222381D01*
X99742858Y-64270000D01*
X99838096Y-64365238D01*
X99885715Y-64460476D01*
X99933334Y-64650952D01*
X99933334Y-64793810D01*
X99885715Y-64984286D01*
X99838096Y-65079524D01*
X99742858Y-65174762D01*
X99600000Y-65222381D01*
X99361905Y-65222381D01*
X100314286Y-65174762D02*
X100457143Y-65222381D01*
X100695239Y-65222381D01*
X100790477Y-65174762D01*
X100838096Y-65127143D01*
X100885715Y-65031905D01*
X100885715Y-64936667D01*
X100838096Y-64841429D01*
X100790477Y-64793810D01*
X100695239Y-64746190D01*
X100504762Y-64698571D01*
X100409524Y-64650952D01*
X100361905Y-64603333D01*
X100314286Y-64508095D01*
X100314286Y-64412857D01*
X100361905Y-64317619D01*
X100409524Y-64270000D01*
X100504762Y-64222381D01*
X100742858Y-64222381D01*
X100885715Y-64270000D01*
X101314286Y-64841429D02*
X102076191Y-64841429D01*
X102885715Y-64698571D02*
X103028572Y-64746190D01*
X103076191Y-64793810D01*
X103123810Y-64889048D01*
X103123810Y-65031905D01*
X103076191Y-65127143D01*
X103028572Y-65174762D01*
X102933334Y-65222381D01*
X102552381Y-65222381D01*
X102552381Y-64222381D01*
X102885715Y-64222381D01*
X102980953Y-64270000D01*
X103028572Y-64317619D01*
X103076191Y-64412857D01*
X103076191Y-64508095D01*
X103028572Y-64603333D01*
X102980953Y-64650952D01*
X102885715Y-64698571D01*
X102552381Y-64698571D01*
X103409524Y-64222381D02*
X103980953Y-64222381D01*
X103695238Y-65222381D02*
X103695238Y-64222381D01*
X92682381Y-85510476D02*
X91682381Y-85510476D01*
X91682381Y-85272381D01*
X91730000Y-85129523D01*
X91825238Y-85034285D01*
X91920476Y-84986666D01*
X92110952Y-84939047D01*
X92253810Y-84939047D01*
X92444286Y-84986666D01*
X92539524Y-85034285D01*
X92634762Y-85129523D01*
X92682381Y-85272381D01*
X92682381Y-85510476D01*
X92682381Y-83986666D02*
X92682381Y-84558095D01*
X92682381Y-84272381D02*
X91682381Y-84272381D01*
X91825238Y-84367619D01*
X91920476Y-84462857D01*
X91968095Y-84558095D01*
X92682381Y-83034285D02*
X92682381Y-83605714D01*
X92682381Y-83320000D02*
X91682381Y-83320000D01*
X91825238Y-83415238D01*
X91920476Y-83510476D01*
X91968095Y-83605714D01*
X91682381Y-82415238D02*
X91682381Y-82319999D01*
X91730000Y-82224761D01*
X91777619Y-82177142D01*
X91872857Y-82129523D01*
X92063333Y-82081904D01*
X92301429Y-82081904D01*
X92491905Y-82129523D01*
X92587143Y-82177142D01*
X92634762Y-82224761D01*
X92682381Y-82319999D01*
X92682381Y-82415238D01*
X92634762Y-82510476D01*
X92587143Y-82558095D01*
X92491905Y-82605714D01*
X92301429Y-82653333D01*
X92063333Y-82653333D01*
X91872857Y-82605714D01*
X91777619Y-82558095D01*
X91730000Y-82510476D01*
X91682381Y-82415238D01*
X151979524Y-93162381D02*
X151979524Y-92162381D01*
X152217619Y-92162381D01*
X152360477Y-92210000D01*
X152455715Y-92305238D01*
X152503334Y-92400476D01*
X152550953Y-92590952D01*
X152550953Y-92733810D01*
X152503334Y-92924286D01*
X152455715Y-93019524D01*
X152360477Y-93114762D01*
X152217619Y-93162381D01*
X151979524Y-93162381D01*
X153503334Y-93162381D02*
X152931905Y-93162381D01*
X153217619Y-93162381D02*
X153217619Y-92162381D01*
X153122381Y-92305238D01*
X153027143Y-92400476D01*
X152931905Y-92448095D01*
X154122381Y-92162381D02*
X154217620Y-92162381D01*
X154312858Y-92210000D01*
X154360477Y-92257619D01*
X154408096Y-92352857D01*
X154455715Y-92543333D01*
X154455715Y-92781429D01*
X154408096Y-92971905D01*
X154360477Y-93067143D01*
X154312858Y-93114762D01*
X154217620Y-93162381D01*
X154122381Y-93162381D01*
X154027143Y-93114762D01*
X153979524Y-93067143D01*
X153931905Y-92971905D01*
X153884286Y-92781429D01*
X153884286Y-92543333D01*
X153931905Y-92352857D01*
X153979524Y-92257619D01*
X154027143Y-92210000D01*
X154122381Y-92162381D01*
X155312858Y-92162381D02*
X155122381Y-92162381D01*
X155027143Y-92210000D01*
X154979524Y-92257619D01*
X154884286Y-92400476D01*
X154836667Y-92590952D01*
X154836667Y-92971905D01*
X154884286Y-93067143D01*
X154931905Y-93114762D01*
X155027143Y-93162381D01*
X155217620Y-93162381D01*
X155312858Y-93114762D01*
X155360477Y-93067143D01*
X155408096Y-92971905D01*
X155408096Y-92733810D01*
X155360477Y-92638571D01*
X155312858Y-92590952D01*
X155217620Y-92543333D01*
X155027143Y-92543333D01*
X154931905Y-92590952D01*
X154884286Y-92638571D01*
X154836667Y-92733810D01*
X135469524Y-93162381D02*
X135469524Y-92162381D01*
X135707619Y-92162381D01*
X135850477Y-92210000D01*
X135945715Y-92305238D01*
X135993334Y-92400476D01*
X136040953Y-92590952D01*
X136040953Y-92733810D01*
X135993334Y-92924286D01*
X135945715Y-93019524D01*
X135850477Y-93114762D01*
X135707619Y-93162381D01*
X135469524Y-93162381D01*
X136993334Y-93162381D02*
X136421905Y-93162381D01*
X136707619Y-93162381D02*
X136707619Y-92162381D01*
X136612381Y-92305238D01*
X136517143Y-92400476D01*
X136421905Y-92448095D01*
X137612381Y-92162381D02*
X137707620Y-92162381D01*
X137802858Y-92210000D01*
X137850477Y-92257619D01*
X137898096Y-92352857D01*
X137945715Y-92543333D01*
X137945715Y-92781429D01*
X137898096Y-92971905D01*
X137850477Y-93067143D01*
X137802858Y-93114762D01*
X137707620Y-93162381D01*
X137612381Y-93162381D01*
X137517143Y-93114762D01*
X137469524Y-93067143D01*
X137421905Y-92971905D01*
X137374286Y-92781429D01*
X137374286Y-92543333D01*
X137421905Y-92352857D01*
X137469524Y-92257619D01*
X137517143Y-92210000D01*
X137612381Y-92162381D01*
X138279048Y-92162381D02*
X138945715Y-92162381D01*
X138517143Y-93162381D01*
X151979524Y-121102381D02*
X151979524Y-120102381D01*
X152217619Y-120102381D01*
X152360477Y-120150000D01*
X152455715Y-120245238D01*
X152503334Y-120340476D01*
X152550953Y-120530952D01*
X152550953Y-120673810D01*
X152503334Y-120864286D01*
X152455715Y-120959524D01*
X152360477Y-121054762D01*
X152217619Y-121102381D01*
X151979524Y-121102381D01*
X153503334Y-121102381D02*
X152931905Y-121102381D01*
X153217619Y-121102381D02*
X153217619Y-120102381D01*
X153122381Y-120245238D01*
X153027143Y-120340476D01*
X152931905Y-120388095D01*
X154122381Y-120102381D02*
X154217620Y-120102381D01*
X154312858Y-120150000D01*
X154360477Y-120197619D01*
X154408096Y-120292857D01*
X154455715Y-120483333D01*
X154455715Y-120721429D01*
X154408096Y-120911905D01*
X154360477Y-121007143D01*
X154312858Y-121054762D01*
X154217620Y-121102381D01*
X154122381Y-121102381D01*
X154027143Y-121054762D01*
X153979524Y-121007143D01*
X153931905Y-120911905D01*
X153884286Y-120721429D01*
X153884286Y-120483333D01*
X153931905Y-120292857D01*
X153979524Y-120197619D01*
X154027143Y-120150000D01*
X154122381Y-120102381D01*
X155027143Y-120530952D02*
X154931905Y-120483333D01*
X154884286Y-120435714D01*
X154836667Y-120340476D01*
X154836667Y-120292857D01*
X154884286Y-120197619D01*
X154931905Y-120150000D01*
X155027143Y-120102381D01*
X155217620Y-120102381D01*
X155312858Y-120150000D01*
X155360477Y-120197619D01*
X155408096Y-120292857D01*
X155408096Y-120340476D01*
X155360477Y-120435714D01*
X155312858Y-120483333D01*
X155217620Y-120530952D01*
X155027143Y-120530952D01*
X154931905Y-120578571D01*
X154884286Y-120626190D01*
X154836667Y-120721429D01*
X154836667Y-120911905D01*
X154884286Y-121007143D01*
X154931905Y-121054762D01*
X155027143Y-121102381D01*
X155217620Y-121102381D01*
X155312858Y-121054762D01*
X155360477Y-121007143D01*
X155408096Y-120911905D01*
X155408096Y-120721429D01*
X155360477Y-120626190D01*
X155312858Y-120578571D01*
X155217620Y-120530952D01*
X126579524Y-56967381D02*
X126579524Y-55967381D01*
X126817619Y-55967381D01*
X126960477Y-56015000D01*
X127055715Y-56110238D01*
X127103334Y-56205476D01*
X127150953Y-56395952D01*
X127150953Y-56538810D01*
X127103334Y-56729286D01*
X127055715Y-56824524D01*
X126960477Y-56919762D01*
X126817619Y-56967381D01*
X126579524Y-56967381D01*
X128103334Y-56967381D02*
X127531905Y-56967381D01*
X127817619Y-56967381D02*
X127817619Y-55967381D01*
X127722381Y-56110238D01*
X127627143Y-56205476D01*
X127531905Y-56253095D01*
X128722381Y-55967381D02*
X128817620Y-55967381D01*
X128912858Y-56015000D01*
X128960477Y-56062619D01*
X129008096Y-56157857D01*
X129055715Y-56348333D01*
X129055715Y-56586429D01*
X129008096Y-56776905D01*
X128960477Y-56872143D01*
X128912858Y-56919762D01*
X128817620Y-56967381D01*
X128722381Y-56967381D01*
X128627143Y-56919762D01*
X128579524Y-56872143D01*
X128531905Y-56776905D01*
X128484286Y-56586429D01*
X128484286Y-56348333D01*
X128531905Y-56157857D01*
X128579524Y-56062619D01*
X128627143Y-56015000D01*
X128722381Y-55967381D01*
X129960477Y-55967381D02*
X129484286Y-55967381D01*
X129436667Y-56443571D01*
X129484286Y-56395952D01*
X129579524Y-56348333D01*
X129817620Y-56348333D01*
X129912858Y-56395952D01*
X129960477Y-56443571D01*
X130008096Y-56538810D01*
X130008096Y-56776905D01*
X129960477Y-56872143D01*
X129912858Y-56919762D01*
X129817620Y-56967381D01*
X129579524Y-56967381D01*
X129484286Y-56919762D01*
X129436667Y-56872143D01*
X122135000Y-63317381D02*
X122135000Y-62317381D01*
X122373095Y-62317381D01*
X122515953Y-62365000D01*
X122611191Y-62460238D01*
X122658810Y-62555476D01*
X122706429Y-62745952D01*
X122706429Y-62888810D01*
X122658810Y-63079286D01*
X122611191Y-63174524D01*
X122515953Y-63269762D01*
X122373095Y-63317381D01*
X122135000Y-63317381D01*
X122896905Y-63412619D02*
X123658810Y-63412619D01*
X124230239Y-62793571D02*
X124373096Y-62841190D01*
X124420715Y-62888810D01*
X124468334Y-62984048D01*
X124468334Y-63126905D01*
X124420715Y-63222143D01*
X124373096Y-63269762D01*
X124277858Y-63317381D01*
X123896905Y-63317381D01*
X123896905Y-62317381D01*
X124230239Y-62317381D01*
X124325477Y-62365000D01*
X124373096Y-62412619D01*
X124420715Y-62507857D01*
X124420715Y-62603095D01*
X124373096Y-62698333D01*
X124325477Y-62745952D01*
X124230239Y-62793571D01*
X123896905Y-62793571D01*
X124896905Y-63317381D02*
X124896905Y-62650714D01*
X124896905Y-62841190D02*
X124944524Y-62745952D01*
X124992143Y-62698333D01*
X125087381Y-62650714D01*
X125182620Y-62650714D01*
X125515953Y-63317381D02*
X125515953Y-62650714D01*
X125515953Y-62317381D02*
X125468334Y-62365000D01*
X125515953Y-62412619D01*
X125563572Y-62365000D01*
X125515953Y-62317381D01*
X125515953Y-62412619D01*
X126420715Y-63317381D02*
X126420715Y-62317381D01*
X126420715Y-63269762D02*
X126325477Y-63317381D01*
X126135000Y-63317381D01*
X126039762Y-63269762D01*
X125992143Y-63222143D01*
X125944524Y-63126905D01*
X125944524Y-62841190D01*
X125992143Y-62745952D01*
X126039762Y-62698333D01*
X126135000Y-62650714D01*
X126325477Y-62650714D01*
X126420715Y-62698333D01*
X127325477Y-62650714D02*
X127325477Y-63460238D01*
X127277858Y-63555476D01*
X127230239Y-63603095D01*
X127135000Y-63650714D01*
X126992143Y-63650714D01*
X126896905Y-63603095D01*
X127325477Y-63269762D02*
X127230239Y-63317381D01*
X127039762Y-63317381D01*
X126944524Y-63269762D01*
X126896905Y-63222143D01*
X126849286Y-63126905D01*
X126849286Y-62841190D01*
X126896905Y-62745952D01*
X126944524Y-62698333D01*
X127039762Y-62650714D01*
X127230239Y-62650714D01*
X127325477Y-62698333D01*
X128182620Y-63269762D02*
X128087382Y-63317381D01*
X127896905Y-63317381D01*
X127801667Y-63269762D01*
X127754048Y-63174524D01*
X127754048Y-62793571D01*
X127801667Y-62698333D01*
X127896905Y-62650714D01*
X128087382Y-62650714D01*
X128182620Y-62698333D01*
X128230239Y-62793571D01*
X128230239Y-62888810D01*
X127754048Y-62984048D01*
X128420715Y-63412619D02*
X129182620Y-63412619D01*
X129420715Y-62936429D02*
X130182620Y-62936429D01*
X130611191Y-63031667D02*
X131087382Y-63031667D01*
X130515953Y-63317381D02*
X130849286Y-62317381D01*
X131182620Y-63317381D01*
X131515953Y-62936429D02*
X132277858Y-62936429D01*
X131896906Y-63317381D02*
X131896906Y-62555476D01*
X132706429Y-63031667D02*
X133182620Y-63031667D01*
X132611191Y-63317381D02*
X132944524Y-62317381D01*
X133277858Y-63317381D01*
X119737143Y-74779047D02*
X119784762Y-74826666D01*
X119832381Y-74969523D01*
X119832381Y-75064761D01*
X119784762Y-75207619D01*
X119689524Y-75302857D01*
X119594286Y-75350476D01*
X119403810Y-75398095D01*
X119260952Y-75398095D01*
X119070476Y-75350476D01*
X118975238Y-75302857D01*
X118880000Y-75207619D01*
X118832381Y-75064761D01*
X118832381Y-74969523D01*
X118880000Y-74826666D01*
X118927619Y-74779047D01*
X119832381Y-73826666D02*
X119832381Y-74398095D01*
X119832381Y-74112381D02*
X118832381Y-74112381D01*
X118975238Y-74207619D01*
X119070476Y-74302857D01*
X119118095Y-74398095D01*
X118832381Y-73207619D02*
X118832381Y-73112380D01*
X118880000Y-73017142D01*
X118927619Y-72969523D01*
X119022857Y-72921904D01*
X119213333Y-72874285D01*
X119451429Y-72874285D01*
X119641905Y-72921904D01*
X119737143Y-72969523D01*
X119784762Y-73017142D01*
X119832381Y-73112380D01*
X119832381Y-73207619D01*
X119784762Y-73302857D01*
X119737143Y-73350476D01*
X119641905Y-73398095D01*
X119451429Y-73445714D01*
X119213333Y-73445714D01*
X119022857Y-73398095D01*
X118927619Y-73350476D01*
X118880000Y-73302857D01*
X118832381Y-73207619D01*
X118832381Y-72540952D02*
X118832381Y-71921904D01*
X119213333Y-72255238D01*
X119213333Y-72112380D01*
X119260952Y-72017142D01*
X119308571Y-71969523D01*
X119403810Y-71921904D01*
X119641905Y-71921904D01*
X119737143Y-71969523D01*
X119784762Y-72017142D01*
X119832381Y-72112380D01*
X119832381Y-72398095D01*
X119784762Y-72493333D01*
X119737143Y-72540952D01*
X164282381Y-81700476D02*
X163282381Y-81700476D01*
X163282381Y-81319523D01*
X163330000Y-81224285D01*
X163377619Y-81176666D01*
X163472857Y-81129047D01*
X163615714Y-81129047D01*
X163710952Y-81176666D01*
X163758571Y-81224285D01*
X163806190Y-81319523D01*
X163806190Y-81700476D01*
X164282381Y-80176666D02*
X164282381Y-80748095D01*
X164282381Y-80462381D02*
X163282381Y-80462381D01*
X163425238Y-80557619D01*
X163520476Y-80652857D01*
X163568095Y-80748095D01*
X163282381Y-79557619D02*
X163282381Y-79462380D01*
X163330000Y-79367142D01*
X163377619Y-79319523D01*
X163472857Y-79271904D01*
X163663333Y-79224285D01*
X163901429Y-79224285D01*
X164091905Y-79271904D01*
X164187143Y-79319523D01*
X164234762Y-79367142D01*
X164282381Y-79462380D01*
X164282381Y-79557619D01*
X164234762Y-79652857D01*
X164187143Y-79700476D01*
X164091905Y-79748095D01*
X163901429Y-79795714D01*
X163663333Y-79795714D01*
X163472857Y-79748095D01*
X163377619Y-79700476D01*
X163330000Y-79652857D01*
X163282381Y-79557619D01*
X163615714Y-78367142D02*
X164282381Y-78367142D01*
X163234762Y-78605238D02*
X163949048Y-78843333D01*
X163949048Y-78224285D01*
X164282381Y-89320476D02*
X163282381Y-89320476D01*
X163282381Y-88939523D01*
X163330000Y-88844285D01*
X163377619Y-88796666D01*
X163472857Y-88749047D01*
X163615714Y-88749047D01*
X163710952Y-88796666D01*
X163758571Y-88844285D01*
X163806190Y-88939523D01*
X163806190Y-89320476D01*
X164282381Y-87796666D02*
X164282381Y-88368095D01*
X164282381Y-88082381D02*
X163282381Y-88082381D01*
X163425238Y-88177619D01*
X163520476Y-88272857D01*
X163568095Y-88368095D01*
X163282381Y-87177619D02*
X163282381Y-87082380D01*
X163330000Y-86987142D01*
X163377619Y-86939523D01*
X163472857Y-86891904D01*
X163663333Y-86844285D01*
X163901429Y-86844285D01*
X164091905Y-86891904D01*
X164187143Y-86939523D01*
X164234762Y-86987142D01*
X164282381Y-87082380D01*
X164282381Y-87177619D01*
X164234762Y-87272857D01*
X164187143Y-87320476D01*
X164091905Y-87368095D01*
X163901429Y-87415714D01*
X163663333Y-87415714D01*
X163472857Y-87368095D01*
X163377619Y-87320476D01*
X163330000Y-87272857D01*
X163282381Y-87177619D01*
X163282381Y-85987142D02*
X163282381Y-86177619D01*
X163330000Y-86272857D01*
X163377619Y-86320476D01*
X163520476Y-86415714D01*
X163710952Y-86463333D01*
X164091905Y-86463333D01*
X164187143Y-86415714D01*
X164234762Y-86368095D01*
X164282381Y-86272857D01*
X164282381Y-86082380D01*
X164234762Y-85987142D01*
X164187143Y-85939523D01*
X164091905Y-85891904D01*
X163853810Y-85891904D01*
X163758571Y-85939523D01*
X163710952Y-85987142D01*
X163663333Y-86082380D01*
X163663333Y-86272857D01*
X163710952Y-86368095D01*
X163758571Y-86415714D01*
X163853810Y-86463333D01*
X91019524Y-121737381D02*
X91019524Y-120737381D01*
X91400477Y-120737381D01*
X91495715Y-120785000D01*
X91543334Y-120832619D01*
X91590953Y-120927857D01*
X91590953Y-121070714D01*
X91543334Y-121165952D01*
X91495715Y-121213571D01*
X91400477Y-121261190D01*
X91019524Y-121261190D01*
X92543334Y-121737381D02*
X91971905Y-121737381D01*
X92257619Y-121737381D02*
X92257619Y-120737381D01*
X92162381Y-120880238D01*
X92067143Y-120975476D01*
X91971905Y-121023095D01*
X93162381Y-120737381D02*
X93257620Y-120737381D01*
X93352858Y-120785000D01*
X93400477Y-120832619D01*
X93448096Y-120927857D01*
X93495715Y-121118333D01*
X93495715Y-121356429D01*
X93448096Y-121546905D01*
X93400477Y-121642143D01*
X93352858Y-121689762D01*
X93257620Y-121737381D01*
X93162381Y-121737381D01*
X93067143Y-121689762D01*
X93019524Y-121642143D01*
X92971905Y-121546905D01*
X92924286Y-121356429D01*
X92924286Y-121118333D01*
X92971905Y-120927857D01*
X93019524Y-120832619D01*
X93067143Y-120785000D01*
X93162381Y-120737381D01*
X94067143Y-121165952D02*
X93971905Y-121118333D01*
X93924286Y-121070714D01*
X93876667Y-120975476D01*
X93876667Y-120927857D01*
X93924286Y-120832619D01*
X93971905Y-120785000D01*
X94067143Y-120737381D01*
X94257620Y-120737381D01*
X94352858Y-120785000D01*
X94400477Y-120832619D01*
X94448096Y-120927857D01*
X94448096Y-120975476D01*
X94400477Y-121070714D01*
X94352858Y-121118333D01*
X94257620Y-121165952D01*
X94067143Y-121165952D01*
X93971905Y-121213571D01*
X93924286Y-121261190D01*
X93876667Y-121356429D01*
X93876667Y-121546905D01*
X93924286Y-121642143D01*
X93971905Y-121689762D01*
X94067143Y-121737381D01*
X94257620Y-121737381D01*
X94352858Y-121689762D01*
X94400477Y-121642143D01*
X94448096Y-121546905D01*
X94448096Y-121356429D01*
X94400477Y-121261190D01*
X94352858Y-121213571D01*
X94257620Y-121165952D01*
M02*
