M48
;DRILL file {KiCad 4.0.4+e1-6308~48~ubuntu15.10.1-stable} date Wed Feb  8 22:58:39 2017
;FORMAT={-:-/ absolute / metric / decimal}
FMAT,2
METRIC,TZ
T1C0.400
T2C0.800
T3C0.813
T4C1.000
T5C1.100
T6C1.143
T7C1.300
T8C1.500
T9C2.000
T10C3.200
%
G90
G05
M71
T1
X93.98Y-91.44
X99.06Y-81.28
X99.695Y-120.65
X100.965Y-118.11
X106.045Y-86.995
X114.935Y-80.01
X123.19Y-88.9
X129.54Y-92.71
X130.81Y-88.9
X132.08Y-75.565
X132.08Y-83.82
X133.35Y-86.995
X134.62Y-110.49
X134.62Y-113.03
X136.525Y-81.28
X151.765Y-74.93
X151.765Y-81.915
X153.67Y-88.9
X155.575Y-74.93
X158.115Y-114.935
T2
X90.17Y-78.74
X90.17Y-88.9
X101.6Y-76.2
X101.6Y-78.7
X109.22Y-76.2
X109.22Y-78.7
X116.84Y-76.2
X116.84Y-78.7
T3
X119.38Y-48.26
X119.38Y-50.8
X124.46Y-97.79
X124.46Y-100.33
X124.46Y-102.87
X124.46Y-109.22
X124.46Y-111.76
X124.46Y-114.3
X142.24Y-64.77
X142.24Y-67.31
X146.05Y-64.77
X146.05Y-67.31
X149.86Y-64.77
X149.86Y-67.31
X153.67Y-64.77
X153.67Y-67.31
T4
X69.77Y-88.995
X74.97Y-59.595
X79.97Y-59.595
X85.17Y-88.995
X86.36Y-124.46
X88.9Y-124.46
X91.44Y-60.96
X91.44Y-68.58
X91.44Y-124.46
X93.98Y-124.46
X96.52Y-124.46
X99.06Y-60.96
X99.06Y-68.58
X99.06Y-124.46
X102.87Y-83.82
X102.87Y-88.82
X104.14Y-60.96
X104.14Y-68.58
X109.22Y-60.96
X109.22Y-68.58
X114.3Y-83.82
X114.3Y-88.82
X125.73Y-72.39
X125.73Y-77.39
X125.73Y-83.82
X125.73Y-88.82
X158.75Y-63.5
X158.75Y-66.04
X158.75Y-68.58
X158.75Y-71.12
X158.75Y-73.66
X158.75Y-76.2
X158.75Y-78.74
X158.75Y-81.28
X158.75Y-83.82
X158.75Y-86.36
X158.75Y-88.9
X161.29Y-63.5
X161.29Y-66.04
X161.29Y-68.58
X161.29Y-71.12
X161.29Y-73.66
X161.29Y-76.2
X161.29Y-78.74
X161.29Y-81.28
X161.29Y-83.82
X161.29Y-86.36
X161.29Y-88.9
T5
X132.08Y-95.25
X132.08Y-118.11
X142.24Y-95.25
X142.24Y-118.11
X148.59Y-95.25
X148.59Y-118.11
X158.75Y-95.25
X158.75Y-118.11
T6
X135.89Y-102.87
X138.43Y-102.87
X140.97Y-102.87
X152.4Y-102.87
X154.94Y-102.87
X157.48Y-102.87
T7
X120.65Y-59.69
X125.73Y-59.69
X130.81Y-59.69
X135.89Y-59.69
T8
X81.28Y-49.53
X86.36Y-49.53
X91.44Y-49.53
X96.52Y-49.53
X101.6Y-49.53
X106.68Y-49.53
X124.46Y-49.53
X129.54Y-49.53
X134.62Y-49.53
T9
X80.01Y-100.33
X80.01Y-110.33
X106.68Y-100.33
X106.68Y-110.33
T10
X69.85Y-48.26
X69.85Y-124.46
X113.03Y-120.65
X161.29Y-48.26
X161.29Y-124.46
T0
M30
