G04 #@! TF.FileFunction,Soldermask,Top*
%FSLAX46Y46*%
G04 Gerber Fmt 4.6, Leading zero omitted, Abs format (unit mm)*
G04 Created by KiCad (PCBNEW 4.0.4+e1-6308~48~ubuntu15.10.1-stable) date Wed Feb  8 22:58:30 2017*
%MOMM*%
%LPD*%
G01*
G04 APERTURE LIST*
%ADD10C,0.100000*%
%ADD11C,3.600000*%
%ADD12R,4.200000X4.200000*%
%ADD13C,4.200000*%
%ADD14R,1.400000X0.950000*%
%ADD15R,2.200000X2.200000*%
%ADD16C,2.200000*%
%ADD17R,0.950000X1.400000*%
%ADD18R,1.800000X1.800000*%
%ADD19C,1.800000*%
%ADD20R,1.700000X1.700000*%
%ADD21R,2.400000X2.400000*%
%ADD22O,2.400000X2.400000*%
%ADD23C,1.600000*%
%ADD24R,1.900000X1.900000*%
%ADD25O,1.900000X1.900000*%
%ADD26R,1.900000X2.200000*%
%ADD27R,2.200000X1.900000*%
%ADD28C,1.724000*%
%ADD29C,2.740000*%
%ADD30O,2.232000X2.740000*%
%ADD31R,2.200000X4.000000*%
%ADD32R,2.200000X1.700000*%
%ADD33O,1.800000X1.800000*%
%ADD34C,3.200000*%
%ADD35C,6.600000*%
G04 APERTURE END LIST*
D10*
D11*
X134620000Y-49530000D03*
X129540000Y-49530000D03*
X124460000Y-49530000D03*
D12*
X80010000Y-100330000D03*
D13*
X80010000Y-110330000D03*
D12*
X106680000Y-100330000D03*
D13*
X106680000Y-110330000D03*
D14*
X153990000Y-111760000D03*
X155890000Y-111760000D03*
X139380000Y-111760000D03*
X137480000Y-111760000D03*
D15*
X114300000Y-83820000D03*
D16*
X114300000Y-88820000D03*
D17*
X93980000Y-86680000D03*
X93980000Y-88580000D03*
D18*
X101600000Y-76200000D03*
D19*
X101600000Y-78700000D03*
D18*
X109220000Y-76200000D03*
D19*
X109220000Y-78700000D03*
D15*
X125730000Y-72390000D03*
D16*
X125730000Y-77390000D03*
D15*
X125730000Y-83820000D03*
D16*
X125730000Y-88820000D03*
D14*
X153990000Y-114300000D03*
X155890000Y-114300000D03*
X139380000Y-114300000D03*
X137480000Y-114300000D03*
D15*
X102870000Y-83820000D03*
D16*
X102870000Y-88820000D03*
D20*
X153670000Y-60070000D03*
X153670000Y-56770000D03*
X149860000Y-60070000D03*
X149860000Y-56770000D03*
X146050000Y-60070000D03*
X146050000Y-56770000D03*
X142240000Y-60070000D03*
X142240000Y-56770000D03*
D21*
X142240000Y-118110000D03*
D22*
X132080000Y-118110000D03*
D23*
X153670000Y-64770000D03*
X153670000Y-67310000D03*
X149860000Y-64770000D03*
X149860000Y-67310000D03*
X119380000Y-48260000D03*
X119380000Y-50800000D03*
X146050000Y-64770000D03*
X146050000Y-67310000D03*
X142240000Y-64770000D03*
X142240000Y-67310000D03*
D24*
X158750000Y-71120000D03*
D25*
X161290000Y-71120000D03*
X158750000Y-73660000D03*
X161290000Y-73660000D03*
D24*
X158750000Y-63500000D03*
D25*
X161290000Y-63500000D03*
X158750000Y-66040000D03*
X161290000Y-66040000D03*
X158750000Y-68580000D03*
X161290000Y-68580000D03*
D26*
X153670000Y-52800000D03*
X153670000Y-48800000D03*
X149860000Y-52800000D03*
X149860000Y-48800000D03*
X146050000Y-52800000D03*
X146050000Y-48800000D03*
X142240000Y-52800000D03*
X142240000Y-48800000D03*
D27*
X155670000Y-107950000D03*
X151670000Y-107950000D03*
X135160000Y-107950000D03*
X139160000Y-107950000D03*
D28*
X124460000Y-100330000D03*
X124460000Y-97790000D03*
X124460000Y-102870000D03*
X124460000Y-111760000D03*
X124460000Y-109220000D03*
X124460000Y-114300000D03*
D29*
X79970000Y-59595000D03*
X74970000Y-59595000D03*
X85170000Y-88995000D03*
X69770000Y-88995000D03*
D30*
X154940000Y-102870000D03*
X157480000Y-102870000D03*
X152400000Y-102870000D03*
X138430000Y-102870000D03*
X140970000Y-102870000D03*
X135890000Y-102870000D03*
D31*
X145390000Y-76200000D03*
D32*
X139090000Y-76200000D03*
X139090000Y-78500000D03*
X139090000Y-73900000D03*
D31*
X145390000Y-86360000D03*
D32*
X139090000Y-86360000D03*
X139090000Y-88660000D03*
X139090000Y-84060000D03*
D11*
X91440000Y-49530000D03*
X86360000Y-49530000D03*
X81280000Y-49530000D03*
X106680000Y-49530000D03*
X101600000Y-49530000D03*
X96520000Y-49530000D03*
D29*
X91440000Y-60960000D03*
X91440000Y-68580000D03*
X99060000Y-68580000D03*
X104140000Y-68580000D03*
X109220000Y-68580000D03*
X99060000Y-60960000D03*
X104140000Y-60960000D03*
X109220000Y-60960000D03*
D18*
X90170000Y-78740000D03*
D33*
X90170000Y-88900000D03*
D21*
X158750000Y-95250000D03*
D22*
X148590000Y-95250000D03*
D21*
X142240000Y-95250000D03*
D22*
X132080000Y-95250000D03*
D21*
X158750000Y-118110000D03*
D22*
X148590000Y-118110000D03*
D34*
X135890000Y-59690000D03*
X130810000Y-59690000D03*
X125730000Y-59690000D03*
X120650000Y-59690000D03*
D18*
X116840000Y-76200000D03*
D19*
X116840000Y-78700000D03*
D24*
X158750000Y-76200000D03*
D25*
X161290000Y-76200000D03*
X158750000Y-78740000D03*
X161290000Y-78740000D03*
X158750000Y-81280000D03*
X161290000Y-81280000D03*
X158750000Y-83820000D03*
X161290000Y-83820000D03*
D24*
X158750000Y-86360000D03*
D25*
X161290000Y-86360000D03*
X158750000Y-88900000D03*
X161290000Y-88900000D03*
D24*
X99060000Y-124460000D03*
D25*
X96520000Y-124460000D03*
X93980000Y-124460000D03*
X91440000Y-124460000D03*
X88900000Y-124460000D03*
X86360000Y-124460000D03*
D35*
X69850000Y-48260000D03*
X113030000Y-120650000D03*
X161290000Y-48260000D03*
X69850000Y-124460000D03*
X161290000Y-124460000D03*
M02*
