G04 #@! TF.FileFunction,Copper,L1,Top,Signal*
%FSLAX46Y46*%
G04 Gerber Fmt 4.6, Leading zero omitted, Abs format (unit mm)*
G04 Created by KiCad (PCBNEW 4.0.4+e1-6308~48~ubuntu15.10.1-stable) date Tue Feb  7 13:56:33 2017*
%MOMM*%
%LPD*%
G01*
G04 APERTURE LIST*
%ADD10C,0.100000*%
%ADD11C,2.000000*%
%ADD12R,1.143000X0.508000*%
%ADD13R,1.200000X0.750000*%
%ADD14R,1.600000X0.550000*%
%ADD15R,0.550000X1.600000*%
%ADD16C,1.400000*%
%ADD17R,1.700000X1.700000*%
%ADD18O,1.700000X1.700000*%
%ADD19R,1.700000X2.000000*%
%ADD20R,2.000000X0.600000*%
%ADD21R,3.000000X1.200000*%
%ADD22R,1.600000X1.600000*%
%ADD23C,1.600000*%
%ADD24R,2.000000X1.700000*%
%ADD25C,6.400000*%
%ADD26C,0.600000*%
%ADD27C,0.250000*%
%ADD28C,0.254000*%
G04 APERTURE END LIST*
D10*
D11*
X107950000Y-107950000D03*
X110490000Y-107950000D03*
X113030000Y-107950000D03*
D12*
X130175000Y-88900000D03*
X130175000Y-86360000D03*
X130175000Y-85090000D03*
X130175000Y-83820000D03*
X130175000Y-82550000D03*
X130175000Y-81280000D03*
X130175000Y-80010000D03*
X136525000Y-80010000D03*
X136525000Y-81280000D03*
X136525000Y-82550000D03*
X136525000Y-83820000D03*
X136525000Y-85090000D03*
X136525000Y-86360000D03*
X136525000Y-87630000D03*
X136525000Y-88900000D03*
X130175000Y-87630000D03*
D13*
X132400000Y-91440000D03*
X134300000Y-91440000D03*
D14*
X98620000Y-63240000D03*
X98620000Y-64040000D03*
X98620000Y-64840000D03*
X98620000Y-65640000D03*
X98620000Y-66440000D03*
X98620000Y-67240000D03*
X98620000Y-68040000D03*
X98620000Y-68840000D03*
D15*
X100070000Y-70290000D03*
X100870000Y-70290000D03*
X101670000Y-70290000D03*
X102470000Y-70290000D03*
X103270000Y-70290000D03*
X104070000Y-70290000D03*
X104870000Y-70290000D03*
X105670000Y-70290000D03*
D14*
X107120000Y-68840000D03*
X107120000Y-68040000D03*
X107120000Y-67240000D03*
X107120000Y-66440000D03*
X107120000Y-65640000D03*
X107120000Y-64840000D03*
X107120000Y-64040000D03*
X107120000Y-63240000D03*
D15*
X105670000Y-61790000D03*
X104870000Y-61790000D03*
X104070000Y-61790000D03*
X103270000Y-61790000D03*
X102470000Y-61790000D03*
X101670000Y-61790000D03*
X100870000Y-61790000D03*
X100070000Y-61790000D03*
D16*
X132080000Y-48260000D03*
X134620000Y-48260000D03*
X134620000Y-50800000D03*
X132080000Y-50800000D03*
D17*
X76200000Y-58420000D03*
D18*
X76200000Y-60960000D03*
D17*
X149860000Y-101600000D03*
D18*
X152400000Y-101600000D03*
X154940000Y-101600000D03*
D17*
X165100000Y-68580000D03*
D18*
X165100000Y-71120000D03*
X165100000Y-73660000D03*
X165100000Y-76200000D03*
X165100000Y-78740000D03*
X165100000Y-81280000D03*
X165100000Y-83820000D03*
X165100000Y-86360000D03*
X165100000Y-88900000D03*
X165100000Y-91440000D03*
D19*
X154940000Y-69310000D03*
X154940000Y-65310000D03*
X158750000Y-69310000D03*
X158750000Y-65310000D03*
D20*
X142620000Y-80010000D03*
X142620000Y-81280000D03*
X142620000Y-82550000D03*
X142620000Y-83820000D03*
X142620000Y-85090000D03*
X142620000Y-86360000D03*
X142620000Y-87630000D03*
X142620000Y-88900000D03*
X142620000Y-90170000D03*
X152020000Y-90170000D03*
X152020000Y-88900000D03*
X152020000Y-87630000D03*
X152020000Y-86360000D03*
X152020000Y-85090000D03*
X152020000Y-83820000D03*
X152020000Y-82550000D03*
X152020000Y-81280000D03*
X152020000Y-80010000D03*
X121030000Y-62230000D03*
X121030000Y-63500000D03*
X121030000Y-64770000D03*
X121030000Y-66040000D03*
X121030000Y-67310000D03*
X121030000Y-68580000D03*
X121030000Y-69850000D03*
X121030000Y-71120000D03*
X121030000Y-72390000D03*
X130430000Y-72390000D03*
X130430000Y-71120000D03*
X130430000Y-69850000D03*
X130430000Y-68580000D03*
X130430000Y-67310000D03*
X130430000Y-66040000D03*
X130430000Y-64770000D03*
X130430000Y-63500000D03*
X130430000Y-62230000D03*
D17*
X76200000Y-71120000D03*
D18*
X78740000Y-71120000D03*
X76200000Y-73660000D03*
X78740000Y-73660000D03*
X76200000Y-76200000D03*
X78740000Y-76200000D03*
D17*
X139700000Y-71120000D03*
D18*
X139700000Y-68580000D03*
X142240000Y-71120000D03*
X142240000Y-68580000D03*
X144780000Y-71120000D03*
X144780000Y-68580000D03*
X147320000Y-71120000D03*
X147320000Y-68580000D03*
D21*
X157510000Y-58420000D03*
X157510000Y-55880000D03*
X157510000Y-53340000D03*
X157510000Y-50800000D03*
X140710000Y-53340000D03*
X140710000Y-50800000D03*
X140710000Y-55880000D03*
X140710000Y-58420000D03*
D17*
X104140000Y-48260000D03*
D18*
X101600000Y-48260000D03*
X99060000Y-48260000D03*
X96520000Y-48260000D03*
X93980000Y-48260000D03*
X91440000Y-48260000D03*
D17*
X165100000Y-58420000D03*
D18*
X165100000Y-60960000D03*
X165100000Y-63500000D03*
X165100000Y-66040000D03*
D13*
X89220000Y-66040000D03*
X91120000Y-66040000D03*
D22*
X88900000Y-60960000D03*
D23*
X91400000Y-60960000D03*
D22*
X113030000Y-100330000D03*
D23*
X110530000Y-100330000D03*
D24*
X113760000Y-95250000D03*
X109760000Y-95250000D03*
D25*
X76200000Y-48260000D03*
X165100000Y-48260000D03*
X165100000Y-107950000D03*
X76200000Y-107950000D03*
D26*
X128270000Y-85090000D03*
X127000000Y-97790000D03*
X134620000Y-97790000D03*
X134620000Y-93345000D03*
X114935000Y-67945000D03*
X111125000Y-67945000D03*
X93345000Y-68580000D03*
X132080000Y-77470000D03*
X136525000Y-77470000D03*
X93345000Y-66040000D03*
X96774000Y-66421000D03*
X96901000Y-56769000D03*
X104089200Y-72390000D03*
X102489000Y-72390000D03*
X104076500Y-60325000D03*
X103251000Y-59690000D03*
X102489000Y-64770000D03*
X102489000Y-60325000D03*
X101600000Y-63500000D03*
X100838000Y-64135000D03*
X132715000Y-62230000D03*
X153035000Y-48260000D03*
X153035000Y-57150000D03*
D27*
X128270000Y-85090000D02*
X130175000Y-85090000D01*
X134620000Y-93345000D02*
X134300000Y-93025000D01*
X127000000Y-97790000D02*
X134620000Y-97790000D01*
X134300000Y-93025000D02*
X134300000Y-91440000D01*
X107120000Y-65640000D02*
X108820000Y-65640000D01*
X119380000Y-72390000D02*
X121030000Y-72390000D01*
X114935000Y-67945000D02*
X119380000Y-72390000D01*
X108820000Y-65640000D02*
X111125000Y-67945000D01*
X121030000Y-72390000D02*
X121030000Y-75945000D01*
X121030000Y-75945000D02*
X122555000Y-77470000D01*
X122555000Y-77470000D02*
X132080000Y-77470000D01*
X139700000Y-71120000D02*
X142240000Y-73660000D01*
X154305000Y-58420000D02*
X157510000Y-58420000D01*
X153035000Y-59690000D02*
X154305000Y-58420000D01*
X153035000Y-69850000D02*
X153035000Y-59690000D01*
X149225000Y-73660000D02*
X153035000Y-69850000D01*
X142240000Y-73660000D02*
X149225000Y-73660000D01*
X134300000Y-80010000D02*
X136525000Y-80010000D01*
X134300000Y-91440000D02*
X134300000Y-80010000D01*
X134300000Y-80010000D02*
X134300000Y-79695000D01*
X134300000Y-79695000D02*
X136525000Y-77470000D01*
X134300000Y-91440000D02*
X138430000Y-91440000D01*
X139700000Y-90170000D02*
X142620000Y-90170000D01*
X138430000Y-91440000D02*
X139700000Y-90170000D01*
X93345000Y-66040000D02*
X91120000Y-66040000D01*
X96793000Y-66440000D02*
X96774000Y-66421000D01*
X98620000Y-66440000D02*
X96793000Y-66440000D01*
X107120000Y-65640000D02*
X99949000Y-65640000D01*
X99949000Y-65640000D02*
X99949000Y-65659000D01*
X91440000Y-48260000D02*
X91440000Y-50165000D01*
X91400000Y-59650000D02*
X91400000Y-60960000D01*
X90170000Y-58420000D02*
X91400000Y-59650000D01*
X86995000Y-58420000D02*
X90170000Y-58420000D01*
X85725000Y-59690000D02*
X86995000Y-58420000D01*
X85725000Y-62230000D02*
X85725000Y-59690000D01*
X81915000Y-66040000D02*
X85725000Y-62230000D01*
X77470000Y-66040000D02*
X81915000Y-66040000D01*
X74930000Y-63500000D02*
X77470000Y-66040000D01*
X74930000Y-55880000D02*
X74930000Y-63500000D01*
X77470000Y-53340000D02*
X74930000Y-55880000D01*
X88265000Y-53340000D02*
X77470000Y-53340000D01*
X91440000Y-50165000D02*
X88265000Y-53340000D01*
X98620000Y-64840000D02*
X99638000Y-64840000D01*
X99638000Y-64840000D02*
X99949000Y-65151000D01*
X99949000Y-65151000D02*
X99949000Y-65659000D01*
X99676000Y-66440000D02*
X98620000Y-66440000D01*
X99949000Y-66167000D02*
X99676000Y-66440000D01*
X99949000Y-65659000D02*
X99949000Y-66167000D01*
X91400000Y-60960000D02*
X91120000Y-61240000D01*
X91120000Y-61240000D02*
X91120000Y-66040000D01*
X91120000Y-66040000D02*
X90805000Y-66040000D01*
X121030000Y-72390000D02*
X121920000Y-72390000D01*
X121030000Y-72390000D02*
X121285000Y-72390000D01*
X91400000Y-60960000D02*
X91440000Y-60960000D01*
X90805000Y-66040000D02*
X91120000Y-66040000D01*
X91440000Y-48260000D02*
X93980000Y-48260000D01*
X98620000Y-67240000D02*
X101530000Y-67240000D01*
X102330000Y-68040000D02*
X107120000Y-68040000D01*
X101530000Y-67240000D02*
X102330000Y-68040000D01*
X109760000Y-95250000D02*
X109760000Y-69120000D01*
X109760000Y-69120000D02*
X108680000Y-68040000D01*
X108680000Y-68040000D02*
X107120000Y-68040000D01*
X95885000Y-67240000D02*
X95885000Y-66040000D01*
X89154000Y-67240000D02*
X89154000Y-66106000D01*
X89154000Y-66106000D02*
X89220000Y-66040000D01*
X98620000Y-67240000D02*
X95885000Y-67240000D01*
X95885000Y-67240000D02*
X89154000Y-67240000D01*
X89154000Y-67240000D02*
X89097000Y-67240000D01*
X85217000Y-71120000D02*
X78740000Y-71120000D01*
X89097000Y-67240000D02*
X85217000Y-71120000D01*
X89220000Y-66040000D02*
X89220000Y-61280000D01*
X98620000Y-65640000D02*
X95885000Y-65640000D01*
X95885000Y-65640000D02*
X95885000Y-66040000D01*
X95885000Y-66040000D02*
X95885000Y-57785000D01*
X95885000Y-57785000D02*
X96901000Y-56769000D01*
X96901000Y-56769000D02*
X96901000Y-56769000D01*
X89220000Y-61280000D02*
X88900000Y-60960000D01*
X89220000Y-66040000D02*
X89535000Y-66040000D01*
X98620000Y-67240000D02*
X98425000Y-67310000D01*
X107315000Y-67945000D02*
X107120000Y-68040000D01*
X101600000Y-48260000D02*
X102870000Y-46990000D01*
X135890000Y-76200000D02*
X135890000Y-76200000D01*
X132400000Y-79690000D02*
X135890000Y-76200000D01*
X132400000Y-79690000D02*
X132400000Y-81280000D01*
X132400000Y-81280000D02*
X130175000Y-81280000D01*
X132400000Y-91440000D02*
X132400000Y-81280000D01*
X154940000Y-69310000D02*
X154940000Y-71755000D01*
X154940000Y-71755000D02*
X150495000Y-76200000D01*
X150495000Y-76200000D02*
X135890000Y-76200000D01*
X120650000Y-46990000D02*
X102870000Y-46990000D01*
X135890000Y-76200000D02*
X135890000Y-73660000D01*
X135890000Y-73660000D02*
X135890000Y-62230000D01*
X135890000Y-62230000D02*
X120650000Y-46990000D01*
X132400000Y-88900000D02*
X130175000Y-88900000D01*
X132400000Y-91440000D02*
X132400000Y-88900000D01*
X158750000Y-69310000D02*
X158750000Y-69215000D01*
X158750000Y-69215000D02*
X159385000Y-68580000D01*
X159385000Y-68580000D02*
X165100000Y-68580000D01*
X154940000Y-69310000D02*
X154940000Y-69215000D01*
X154940000Y-69215000D02*
X158750000Y-69215000D01*
X158750000Y-69215000D02*
X158750000Y-69310000D01*
X103505000Y-55245000D02*
X101600000Y-55245000D01*
X96520000Y-50165000D02*
X96520000Y-48260000D01*
X101600000Y-55245000D02*
X96520000Y-50165000D01*
X130430000Y-63500000D02*
X128905000Y-63500000D01*
X120650000Y-55245000D02*
X103505000Y-55245000D01*
X128905000Y-63500000D02*
X120650000Y-55245000D01*
X130175000Y-86360000D02*
X121285000Y-86360000D01*
X110395000Y-64040000D02*
X107120000Y-64040000D01*
X112395000Y-66040000D02*
X110395000Y-64040000D01*
X112395000Y-77470000D02*
X112395000Y-66040000D01*
X121285000Y-86360000D02*
X112395000Y-77470000D01*
X130175000Y-83820000D02*
X120015000Y-83820000D01*
X110865000Y-63240000D02*
X107120000Y-63240000D01*
X113030000Y-65405000D02*
X110865000Y-63240000D01*
X113030000Y-76835000D02*
X113030000Y-65405000D01*
X120015000Y-83820000D02*
X113030000Y-76835000D01*
X130175000Y-82550000D02*
X120015000Y-82550000D01*
X110685000Y-61790000D02*
X105670000Y-61790000D01*
X113665000Y-64770000D02*
X110685000Y-61790000D01*
X113665000Y-76200000D02*
X113665000Y-64770000D01*
X120015000Y-82550000D02*
X113665000Y-76200000D01*
X121030000Y-63500000D02*
X114935000Y-63500000D01*
X100070000Y-59950000D02*
X100070000Y-61790000D01*
X100965000Y-59055000D02*
X100070000Y-59950000D01*
X110490000Y-59055000D02*
X100965000Y-59055000D01*
X114935000Y-63500000D02*
X110490000Y-59055000D01*
X104870000Y-61790000D02*
X104870000Y-60865000D01*
X114935000Y-64770000D02*
X121030000Y-64770000D01*
X110490000Y-60325000D02*
X114935000Y-64770000D01*
X105410000Y-60325000D02*
X110490000Y-60325000D01*
X104870000Y-60865000D02*
X105410000Y-60325000D01*
X104070000Y-70290000D02*
X104070000Y-72370800D01*
X104070000Y-72370800D02*
X104089200Y-72390000D01*
X104070000Y-72370800D02*
X104089200Y-72390000D01*
X104019200Y-72320000D02*
X104089200Y-72390000D01*
X104870000Y-70290000D02*
X104870000Y-72930000D01*
X104140000Y-73660000D02*
X78740000Y-73660000D01*
X104870000Y-72930000D02*
X104140000Y-73660000D01*
X77470000Y-72390000D02*
X77470000Y-74295000D01*
X78105000Y-74930000D02*
X85090000Y-74930000D01*
X77470000Y-74295000D02*
X78105000Y-74930000D01*
X76200000Y-71120000D02*
X77470000Y-72390000D01*
X105670000Y-74035000D02*
X105670000Y-70290000D01*
X85090000Y-74930000D02*
X104775000Y-74930000D01*
X104775000Y-74930000D02*
X105670000Y-74035000D01*
X76200000Y-73660000D02*
X74930000Y-74930000D01*
X86360000Y-78740000D02*
X94615000Y-78740000D01*
X83185000Y-78740000D02*
X86360000Y-78740000D01*
X76200000Y-78740000D02*
X83185000Y-78740000D01*
X74930000Y-77470000D02*
X76200000Y-78740000D01*
X74930000Y-74930000D02*
X74930000Y-77470000D01*
X107120000Y-74490000D02*
X107120000Y-68840000D01*
X94615000Y-78740000D02*
X102870000Y-78740000D01*
X102870000Y-78740000D02*
X107120000Y-74490000D01*
X102470000Y-70290000D02*
X102470000Y-72371000D01*
X102470000Y-72371000D02*
X102489000Y-72390000D01*
X102470000Y-72371000D02*
X102489000Y-72390000D01*
X104070000Y-61790000D02*
X104070000Y-60331500D01*
X104070000Y-60331500D02*
X104076500Y-60325000D01*
X104076500Y-60325000D02*
X104006500Y-60395000D01*
X104070000Y-61790000D02*
X104140000Y-61595000D01*
X158750000Y-65405000D02*
X158750000Y-65310000D01*
X158750000Y-65310000D02*
X158750000Y-64135000D01*
X159385000Y-63500000D02*
X165100000Y-63500000D01*
X158750000Y-64135000D02*
X159385000Y-63500000D01*
X103270000Y-61790000D02*
X103270000Y-59925000D01*
X103251000Y-59690000D02*
X103251000Y-59690000D01*
X103270000Y-59925000D02*
X103251000Y-59690000D01*
X103270000Y-61790000D02*
X103270000Y-61014989D01*
X154940000Y-65310000D02*
X154940000Y-63500000D01*
X163195000Y-62865000D02*
X165100000Y-60960000D01*
X155575000Y-62865000D02*
X163195000Y-62865000D01*
X154940000Y-63500000D02*
X155575000Y-62865000D01*
X102470000Y-61790000D02*
X102470000Y-64751000D01*
X102470000Y-64751000D02*
X102489000Y-64770000D01*
X102470000Y-61790000D02*
X102470000Y-60344000D01*
X102470000Y-60344000D02*
X102489000Y-60325000D01*
X101600000Y-61860000D02*
X101600000Y-63500000D01*
X101600000Y-61860000D02*
X101670000Y-61790000D01*
X144780000Y-71120000D02*
X146050000Y-72390000D01*
X159385000Y-53340000D02*
X157510000Y-53340000D01*
X160020000Y-53975000D02*
X159385000Y-53340000D01*
X160020000Y-56515000D02*
X160020000Y-53975000D01*
X159385000Y-57150000D02*
X160020000Y-56515000D01*
X154305000Y-57150000D02*
X159385000Y-57150000D01*
X152400000Y-59055000D02*
X154305000Y-57150000D01*
X152400000Y-69215000D02*
X152400000Y-59055000D01*
X148590000Y-73025000D02*
X152400000Y-69215000D01*
X146685000Y-73025000D02*
X148590000Y-73025000D01*
X146050000Y-72390000D02*
X146685000Y-73025000D01*
X157510000Y-53340000D02*
X157480000Y-53340000D01*
X100870000Y-61790000D02*
X100870000Y-64103000D01*
X100870000Y-64103000D02*
X100838000Y-64135000D01*
X100743000Y-64040000D02*
X100838000Y-64135000D01*
X142240000Y-71120000D02*
X143510000Y-69850000D01*
X153035000Y-55880000D02*
X157510000Y-55880000D01*
X151130000Y-57785000D02*
X153035000Y-55880000D01*
X151130000Y-67945000D02*
X151130000Y-57785000D01*
X149225000Y-69850000D02*
X151130000Y-67945000D01*
X143510000Y-69850000D02*
X149225000Y-69850000D01*
X157510000Y-55880000D02*
X157480000Y-55880000D01*
X121030000Y-62230000D02*
X114935000Y-62230000D01*
X98620000Y-60130000D02*
X98620000Y-63240000D01*
X100330000Y-58420000D02*
X98620000Y-60130000D01*
X111125000Y-58420000D02*
X100330000Y-58420000D01*
X114935000Y-62230000D02*
X111125000Y-58420000D01*
X142240000Y-68580000D02*
X144780000Y-66040000D01*
X144780000Y-57785000D02*
X142875000Y-55880000D01*
X144780000Y-66040000D02*
X144780000Y-57785000D01*
X142875000Y-55880000D02*
X140710000Y-55880000D01*
X142240000Y-68580000D02*
X142240000Y-68580000D01*
X142875000Y-55880000D02*
X140710000Y-55880000D01*
X134620000Y-50800000D02*
X134620000Y-53340000D01*
X134620000Y-53340000D02*
X137160000Y-55880000D01*
X137160000Y-55880000D02*
X140710000Y-55880000D01*
X130430000Y-64770000D02*
X128905000Y-64770000D01*
X81280000Y-55880000D02*
X76200000Y-60960000D01*
X120015000Y-55880000D02*
X81280000Y-55880000D01*
X128905000Y-64770000D02*
X120015000Y-55880000D01*
X132715000Y-62230000D02*
X130430000Y-62230000D01*
X130430000Y-62230000D02*
X130175000Y-62230000D01*
X147320000Y-71120000D02*
X149225000Y-71120000D01*
X151765000Y-58420000D02*
X153035000Y-57150000D01*
X151765000Y-68580000D02*
X151765000Y-58420000D01*
X149225000Y-71120000D02*
X151765000Y-68580000D01*
X156845000Y-50800000D02*
X157510000Y-50800000D01*
X134620000Y-48260000D02*
X153035000Y-48260000D01*
X153035000Y-48260000D02*
X154970000Y-48260000D01*
X154970000Y-48260000D02*
X157510000Y-50800000D01*
X139700000Y-68580000D02*
X139700000Y-68580000D01*
X140710000Y-67570000D02*
X140710000Y-58420000D01*
X139700000Y-68580000D02*
X140710000Y-67570000D01*
X140710000Y-53340000D02*
X143510000Y-53340000D01*
X146050000Y-67310000D02*
X144780000Y-68580000D01*
X146050000Y-55880000D02*
X146050000Y-67310000D01*
X143510000Y-53340000D02*
X146050000Y-55880000D01*
X147320000Y-68580000D02*
X147320000Y-68580000D01*
X147320000Y-53975000D02*
X144145000Y-50800000D01*
X147320000Y-68580000D02*
X147320000Y-53975000D01*
X144145000Y-50800000D02*
X140710000Y-50800000D01*
X152020000Y-80010000D02*
X156210000Y-80010000D01*
X156210000Y-80010000D02*
X165100000Y-71120000D01*
X165100000Y-71120000D02*
X165100000Y-71120000D01*
X152020000Y-81280000D02*
X156210000Y-81280000D01*
X163830000Y-73660000D02*
X165100000Y-73660000D01*
X156210000Y-81280000D02*
X163830000Y-73660000D01*
X152020000Y-82550000D02*
X156210000Y-82550000D01*
X162560000Y-76200000D02*
X165100000Y-76200000D01*
X156210000Y-82550000D02*
X162560000Y-76200000D01*
X152020000Y-83820000D02*
X156210000Y-83820000D01*
X161290000Y-78740000D02*
X165100000Y-78740000D01*
X156210000Y-83820000D02*
X161290000Y-78740000D01*
X152020000Y-85090000D02*
X156210000Y-85090000D01*
X160020000Y-81280000D02*
X165100000Y-81280000D01*
X156210000Y-85090000D02*
X160020000Y-81280000D01*
X152020000Y-86360000D02*
X156210000Y-86360000D01*
X158750000Y-83820000D02*
X165100000Y-83820000D01*
X156210000Y-86360000D02*
X158750000Y-83820000D01*
X152020000Y-87630000D02*
X156210000Y-87630000D01*
X157480000Y-86360000D02*
X165100000Y-86360000D01*
X156210000Y-87630000D02*
X157480000Y-86360000D01*
X152020000Y-88900000D02*
X165100000Y-88900000D01*
X136525000Y-81280000D02*
X142620000Y-81280000D01*
X136525000Y-82550000D02*
X142620000Y-82550000D01*
X136525000Y-83820000D02*
X142620000Y-83820000D01*
X136525000Y-85090000D02*
X142620000Y-85090000D01*
X136525000Y-86360000D02*
X142620000Y-86360000D01*
X136525000Y-87630000D02*
X142620000Y-87630000D01*
X136525000Y-88900000D02*
X142620000Y-88900000D01*
X130175000Y-87630000D02*
X128905000Y-87630000D01*
X144145000Y-80010000D02*
X142620000Y-80010000D01*
X146050000Y-81915000D02*
X144145000Y-80010000D01*
X146050000Y-93345000D02*
X146050000Y-81915000D01*
X144145000Y-95250000D02*
X146050000Y-93345000D01*
X128905000Y-95250000D02*
X144145000Y-95250000D01*
X127000000Y-93345000D02*
X128905000Y-95250000D01*
X127000000Y-89535000D02*
X127000000Y-93345000D01*
X128905000Y-87630000D02*
X127000000Y-89535000D01*
X113030000Y-100330000D02*
X113030000Y-99060000D01*
X113760000Y-98330000D02*
X113760000Y-95250000D01*
X113030000Y-99060000D02*
X113760000Y-98330000D01*
X113030000Y-95980000D02*
X113760000Y-95250000D01*
D28*
G36*
X169470000Y-112320000D02*
X71830000Y-112320000D01*
X71830000Y-108709482D01*
X72364336Y-108709482D01*
X72946950Y-110119515D01*
X74024811Y-111199259D01*
X75433825Y-111784333D01*
X76959482Y-111785664D01*
X78369515Y-111203050D01*
X79449259Y-110125189D01*
X80034333Y-108716175D01*
X80034718Y-108273795D01*
X106314716Y-108273795D01*
X106563106Y-108874943D01*
X107022637Y-109335278D01*
X107623352Y-109584716D01*
X108273795Y-109585284D01*
X108874943Y-109336894D01*
X109109715Y-109102532D01*
X109517073Y-109102532D01*
X109615736Y-109369387D01*
X110225461Y-109595908D01*
X110875460Y-109571856D01*
X111364264Y-109369387D01*
X111462927Y-109102532D01*
X110490000Y-108129605D01*
X109517073Y-109102532D01*
X109109715Y-109102532D01*
X109302562Y-108910022D01*
X109337468Y-108922927D01*
X110310395Y-107950000D01*
X110669605Y-107950000D01*
X111642532Y-108922927D01*
X111677938Y-108909836D01*
X112102637Y-109335278D01*
X112703352Y-109584716D01*
X113353795Y-109585284D01*
X113954943Y-109336894D01*
X114415278Y-108877363D01*
X114484988Y-108709482D01*
X161264336Y-108709482D01*
X161846950Y-110119515D01*
X162924811Y-111199259D01*
X164333825Y-111784333D01*
X165859482Y-111785664D01*
X167269515Y-111203050D01*
X168349259Y-110125189D01*
X168934333Y-108716175D01*
X168935664Y-107190518D01*
X168353050Y-105780485D01*
X167275189Y-104700741D01*
X165866175Y-104115667D01*
X164340518Y-104114336D01*
X162930485Y-104696950D01*
X161850741Y-105774811D01*
X161265667Y-107183825D01*
X161264336Y-108709482D01*
X114484988Y-108709482D01*
X114664716Y-108276648D01*
X114665284Y-107626205D01*
X114416894Y-107025057D01*
X113957363Y-106564722D01*
X113356648Y-106315284D01*
X112706205Y-106314716D01*
X112105057Y-106563106D01*
X111677438Y-106989978D01*
X111642532Y-106977073D01*
X110669605Y-107950000D01*
X110310395Y-107950000D01*
X109337468Y-106977073D01*
X109302062Y-106990164D01*
X109109703Y-106797468D01*
X109517073Y-106797468D01*
X110490000Y-107770395D01*
X111462927Y-106797468D01*
X111364264Y-106530613D01*
X110754539Y-106304092D01*
X110104540Y-106328144D01*
X109615736Y-106530613D01*
X109517073Y-106797468D01*
X109109703Y-106797468D01*
X108877363Y-106564722D01*
X108276648Y-106315284D01*
X107626205Y-106314716D01*
X107025057Y-106563106D01*
X106564722Y-107022637D01*
X106315284Y-107623352D01*
X106314716Y-108273795D01*
X80034718Y-108273795D01*
X80035664Y-107190518D01*
X79453050Y-105780485D01*
X78375189Y-104700741D01*
X76966175Y-104115667D01*
X75440518Y-104114336D01*
X74030485Y-104696950D01*
X72950741Y-105774811D01*
X72365667Y-107183825D01*
X72364336Y-108709482D01*
X71830000Y-108709482D01*
X71830000Y-101337745D01*
X109701861Y-101337745D01*
X109775995Y-101583864D01*
X110313223Y-101776965D01*
X110883454Y-101749778D01*
X111284005Y-101583864D01*
X111358139Y-101337745D01*
X110530000Y-100509605D01*
X109701861Y-101337745D01*
X71830000Y-101337745D01*
X71830000Y-100113223D01*
X109083035Y-100113223D01*
X109110222Y-100683454D01*
X109276136Y-101084005D01*
X109522255Y-101158139D01*
X110350395Y-100330000D01*
X110709605Y-100330000D01*
X111537745Y-101158139D01*
X111585167Y-101143855D01*
X111626838Y-101365317D01*
X111765910Y-101581441D01*
X111978110Y-101726431D01*
X112230000Y-101777440D01*
X113830000Y-101777440D01*
X114065317Y-101733162D01*
X114281441Y-101594090D01*
X114426431Y-101381890D01*
X114477440Y-101130000D01*
X114477440Y-100750000D01*
X148362560Y-100750000D01*
X148362560Y-102450000D01*
X148406838Y-102685317D01*
X148545910Y-102901441D01*
X148758110Y-103046431D01*
X149010000Y-103097440D01*
X150710000Y-103097440D01*
X150945317Y-103053162D01*
X151161441Y-102914090D01*
X151306431Y-102701890D01*
X151320086Y-102634459D01*
X151349946Y-102679147D01*
X151831715Y-103001054D01*
X152400000Y-103114093D01*
X152968285Y-103001054D01*
X153450054Y-102679147D01*
X153670000Y-102349974D01*
X153889946Y-102679147D01*
X154371715Y-103001054D01*
X154940000Y-103114093D01*
X155508285Y-103001054D01*
X155990054Y-102679147D01*
X156311961Y-102197378D01*
X156425000Y-101629093D01*
X156425000Y-101570907D01*
X156311961Y-101002622D01*
X155990054Y-100520853D01*
X155508285Y-100198946D01*
X154940000Y-100085907D01*
X154371715Y-100198946D01*
X153889946Y-100520853D01*
X153670000Y-100850026D01*
X153450054Y-100520853D01*
X152968285Y-100198946D01*
X152400000Y-100085907D01*
X151831715Y-100198946D01*
X151349946Y-100520853D01*
X151322150Y-100562452D01*
X151313162Y-100514683D01*
X151174090Y-100298559D01*
X150961890Y-100153569D01*
X150710000Y-100102560D01*
X149010000Y-100102560D01*
X148774683Y-100146838D01*
X148558559Y-100285910D01*
X148413569Y-100498110D01*
X148362560Y-100750000D01*
X114477440Y-100750000D01*
X114477440Y-99530000D01*
X114433162Y-99294683D01*
X114294090Y-99078559D01*
X114170612Y-98994190D01*
X114297401Y-98867401D01*
X114462148Y-98620839D01*
X114520000Y-98330000D01*
X114520000Y-96747440D01*
X114760000Y-96747440D01*
X114995317Y-96703162D01*
X115211441Y-96564090D01*
X115356431Y-96351890D01*
X115407440Y-96100000D01*
X115407440Y-94400000D01*
X115363162Y-94164683D01*
X115224090Y-93948559D01*
X115011890Y-93803569D01*
X114760000Y-93752560D01*
X112760000Y-93752560D01*
X112524683Y-93796838D01*
X112308559Y-93935910D01*
X112163569Y-94148110D01*
X112112560Y-94400000D01*
X112112560Y-96100000D01*
X112156838Y-96335317D01*
X112295910Y-96551441D01*
X112508110Y-96696431D01*
X112760000Y-96747440D01*
X113000000Y-96747440D01*
X113000000Y-98015198D01*
X112492599Y-98522599D01*
X112327852Y-98769161D01*
X112305295Y-98882560D01*
X112230000Y-98882560D01*
X111994683Y-98926838D01*
X111778559Y-99065910D01*
X111633569Y-99278110D01*
X111585354Y-99516201D01*
X111537745Y-99501861D01*
X110709605Y-100330000D01*
X110350395Y-100330000D01*
X109522255Y-99501861D01*
X109276136Y-99575995D01*
X109083035Y-100113223D01*
X71830000Y-100113223D01*
X71830000Y-99322255D01*
X109701861Y-99322255D01*
X110530000Y-100150395D01*
X111358139Y-99322255D01*
X111284005Y-99076136D01*
X110746777Y-98883035D01*
X110176546Y-98910222D01*
X109775995Y-99076136D01*
X109701861Y-99322255D01*
X71830000Y-99322255D01*
X71830000Y-74930000D01*
X74170000Y-74930000D01*
X74170000Y-77470000D01*
X74227852Y-77760839D01*
X74392599Y-78007401D01*
X75662599Y-79277401D01*
X75909160Y-79442148D01*
X76200000Y-79500000D01*
X102870000Y-79500000D01*
X103160839Y-79442148D01*
X103407401Y-79277401D01*
X107657401Y-75027401D01*
X107822148Y-74780839D01*
X107880000Y-74490000D01*
X107880000Y-69762440D01*
X107920000Y-69762440D01*
X108155317Y-69718162D01*
X108371441Y-69579090D01*
X108516431Y-69366890D01*
X108567440Y-69115000D01*
X108567440Y-69002242D01*
X109000000Y-69434802D01*
X109000000Y-93752560D01*
X108760000Y-93752560D01*
X108524683Y-93796838D01*
X108308559Y-93935910D01*
X108163569Y-94148110D01*
X108112560Y-94400000D01*
X108112560Y-96100000D01*
X108156838Y-96335317D01*
X108295910Y-96551441D01*
X108508110Y-96696431D01*
X108760000Y-96747440D01*
X110760000Y-96747440D01*
X110995317Y-96703162D01*
X111211441Y-96564090D01*
X111356431Y-96351890D01*
X111407440Y-96100000D01*
X111407440Y-94400000D01*
X111363162Y-94164683D01*
X111224090Y-93948559D01*
X111011890Y-93803569D01*
X110760000Y-93752560D01*
X110520000Y-93752560D01*
X110520000Y-69120000D01*
X110462148Y-68829161D01*
X110297401Y-68582599D01*
X109217401Y-67502599D01*
X108970839Y-67337852D01*
X108680000Y-67280000D01*
X108567440Y-67280000D01*
X108567440Y-66965000D01*
X108543056Y-66835411D01*
X108567440Y-66715000D01*
X108567440Y-66165000D01*
X108547550Y-66059295D01*
X108555000Y-66041310D01*
X108555000Y-65925750D01*
X108458599Y-65829349D01*
X108384090Y-65713559D01*
X108276603Y-65640116D01*
X108371441Y-65579090D01*
X108460495Y-65448755D01*
X108555000Y-65354250D01*
X108555000Y-65238690D01*
X108546532Y-65218247D01*
X108567440Y-65115000D01*
X108567440Y-64800000D01*
X110080198Y-64800000D01*
X111635000Y-66354802D01*
X111635000Y-77470000D01*
X111692852Y-77760839D01*
X111857599Y-78007401D01*
X120747599Y-86897401D01*
X120994161Y-87062148D01*
X121285000Y-87120000D01*
X128340198Y-87120000D01*
X126462599Y-88997599D01*
X126297852Y-89244161D01*
X126240000Y-89535000D01*
X126240000Y-93345000D01*
X126297852Y-93635839D01*
X126462599Y-93882401D01*
X128367599Y-95787401D01*
X128614161Y-95952148D01*
X128905000Y-96010000D01*
X144145000Y-96010000D01*
X144435839Y-95952148D01*
X144682401Y-95787401D01*
X146587401Y-93882401D01*
X146752148Y-93635839D01*
X146810000Y-93345000D01*
X146810000Y-81915000D01*
X146752148Y-81624161D01*
X146587401Y-81377599D01*
X144682401Y-79472599D01*
X144435839Y-79307852D01*
X144145000Y-79250000D01*
X144071563Y-79250000D01*
X143871890Y-79113569D01*
X143620000Y-79062560D01*
X141620000Y-79062560D01*
X141384683Y-79106838D01*
X141168559Y-79245910D01*
X141023569Y-79458110D01*
X140972560Y-79710000D01*
X140972560Y-80310000D01*
X141012074Y-80520000D01*
X137677780Y-80520000D01*
X137731500Y-80390309D01*
X137731500Y-80295750D01*
X137572750Y-80137000D01*
X136652000Y-80137000D01*
X136652000Y-80157000D01*
X136398000Y-80157000D01*
X136398000Y-80137000D01*
X135477250Y-80137000D01*
X135318500Y-80295750D01*
X135318500Y-80390309D01*
X135415173Y-80623698D01*
X135441709Y-80650235D01*
X135357069Y-80774110D01*
X135306060Y-81026000D01*
X135306060Y-81534000D01*
X135350338Y-81769317D01*
X135444666Y-81915907D01*
X135357069Y-82044110D01*
X135306060Y-82296000D01*
X135306060Y-82804000D01*
X135350338Y-83039317D01*
X135444666Y-83185907D01*
X135357069Y-83314110D01*
X135306060Y-83566000D01*
X135306060Y-84074000D01*
X135350338Y-84309317D01*
X135444666Y-84455907D01*
X135357069Y-84584110D01*
X135306060Y-84836000D01*
X135306060Y-85344000D01*
X135350338Y-85579317D01*
X135444666Y-85725907D01*
X135357069Y-85854110D01*
X135306060Y-86106000D01*
X135306060Y-86614000D01*
X135350338Y-86849317D01*
X135444666Y-86995907D01*
X135357069Y-87124110D01*
X135306060Y-87376000D01*
X135306060Y-87884000D01*
X135350338Y-88119317D01*
X135444666Y-88265907D01*
X135357069Y-88394110D01*
X135306060Y-88646000D01*
X135306060Y-89154000D01*
X135350338Y-89389317D01*
X135489410Y-89605441D01*
X135701610Y-89750431D01*
X135953500Y-89801440D01*
X137096500Y-89801440D01*
X137331817Y-89757162D01*
X137482811Y-89660000D01*
X141019666Y-89660000D01*
X140985000Y-89743690D01*
X140985000Y-89884250D01*
X141143750Y-90043000D01*
X142493000Y-90043000D01*
X142493000Y-90023000D01*
X142747000Y-90023000D01*
X142747000Y-90043000D01*
X144096250Y-90043000D01*
X144255000Y-89884250D01*
X144255000Y-89743690D01*
X144165194Y-89526878D01*
X144216431Y-89451890D01*
X144267440Y-89200000D01*
X144267440Y-88600000D01*
X144223162Y-88364683D01*
X144159322Y-88265472D01*
X144216431Y-88181890D01*
X144267440Y-87930000D01*
X144267440Y-87330000D01*
X144223162Y-87094683D01*
X144159322Y-86995472D01*
X144216431Y-86911890D01*
X144267440Y-86660000D01*
X144267440Y-86060000D01*
X144223162Y-85824683D01*
X144159322Y-85725472D01*
X144216431Y-85641890D01*
X144267440Y-85390000D01*
X144267440Y-84790000D01*
X144223162Y-84554683D01*
X144159322Y-84455472D01*
X144216431Y-84371890D01*
X144267440Y-84120000D01*
X144267440Y-83520000D01*
X144223162Y-83284683D01*
X144159322Y-83185472D01*
X144216431Y-83101890D01*
X144267440Y-82850000D01*
X144267440Y-82250000D01*
X144223162Y-82014683D01*
X144159322Y-81915472D01*
X144216431Y-81831890D01*
X144267440Y-81580000D01*
X144267440Y-81207242D01*
X145290000Y-82229802D01*
X145290000Y-93030198D01*
X143830198Y-94490000D01*
X129219802Y-94490000D01*
X127760000Y-93030198D01*
X127760000Y-89849802D01*
X128956060Y-88653742D01*
X128956060Y-89154000D01*
X129000338Y-89389317D01*
X129139410Y-89605441D01*
X129351610Y-89750431D01*
X129603500Y-89801440D01*
X130746500Y-89801440D01*
X130981817Y-89757162D01*
X131132811Y-89660000D01*
X131640000Y-89660000D01*
X131640000Y-90447666D01*
X131564683Y-90461838D01*
X131348559Y-90600910D01*
X131203569Y-90813110D01*
X131152560Y-91065000D01*
X131152560Y-91815000D01*
X131196838Y-92050317D01*
X131335910Y-92266441D01*
X131548110Y-92411431D01*
X131800000Y-92462440D01*
X133000000Y-92462440D01*
X133235317Y-92418162D01*
X133338646Y-92351671D01*
X133340302Y-92353327D01*
X133573691Y-92450000D01*
X134014250Y-92450000D01*
X134173000Y-92291250D01*
X134173000Y-91567000D01*
X134427000Y-91567000D01*
X134427000Y-92291250D01*
X134585750Y-92450000D01*
X135026309Y-92450000D01*
X135259698Y-92353327D01*
X135438327Y-92174699D01*
X135535000Y-91941310D01*
X135535000Y-91725750D01*
X135376250Y-91567000D01*
X134427000Y-91567000D01*
X134173000Y-91567000D01*
X134153000Y-91567000D01*
X134153000Y-91313000D01*
X134173000Y-91313000D01*
X134173000Y-90588750D01*
X134427000Y-90588750D01*
X134427000Y-91313000D01*
X135376250Y-91313000D01*
X135535000Y-91154250D01*
X135535000Y-90938690D01*
X135438327Y-90705301D01*
X135259698Y-90526673D01*
X135088475Y-90455750D01*
X140985000Y-90455750D01*
X140985000Y-90596310D01*
X141081673Y-90829699D01*
X141260302Y-91008327D01*
X141493691Y-91105000D01*
X142334250Y-91105000D01*
X142493000Y-90946250D01*
X142493000Y-90297000D01*
X142747000Y-90297000D01*
X142747000Y-90946250D01*
X142905750Y-91105000D01*
X143746309Y-91105000D01*
X143979698Y-91008327D01*
X144158327Y-90829699D01*
X144255000Y-90596310D01*
X144255000Y-90455750D01*
X144096250Y-90297000D01*
X142747000Y-90297000D01*
X142493000Y-90297000D01*
X141143750Y-90297000D01*
X140985000Y-90455750D01*
X135088475Y-90455750D01*
X135026309Y-90430000D01*
X134585750Y-90430000D01*
X134427000Y-90588750D01*
X134173000Y-90588750D01*
X134014250Y-90430000D01*
X133573691Y-90430000D01*
X133340302Y-90526673D01*
X133338932Y-90528043D01*
X133251890Y-90468569D01*
X133160000Y-90449961D01*
X133160000Y-80004802D01*
X133535111Y-79629691D01*
X135318500Y-79629691D01*
X135318500Y-79724250D01*
X135477250Y-79883000D01*
X136398000Y-79883000D01*
X136398000Y-79279750D01*
X136652000Y-79279750D01*
X136652000Y-79883000D01*
X137572750Y-79883000D01*
X137731500Y-79724250D01*
X137731500Y-79629691D01*
X137634827Y-79396302D01*
X137456199Y-79217673D01*
X137222810Y-79121000D01*
X136810750Y-79121000D01*
X136652000Y-79279750D01*
X136398000Y-79279750D01*
X136239250Y-79121000D01*
X135827190Y-79121000D01*
X135593801Y-79217673D01*
X135415173Y-79396302D01*
X135318500Y-79629691D01*
X133535111Y-79629691D01*
X136204802Y-76960000D01*
X150495000Y-76960000D01*
X150785839Y-76902148D01*
X151032401Y-76737401D01*
X155477401Y-72292401D01*
X155642148Y-72045840D01*
X155700000Y-71755000D01*
X155700000Y-70957440D01*
X155790000Y-70957440D01*
X156025317Y-70913162D01*
X156241441Y-70774090D01*
X156386431Y-70561890D01*
X156437440Y-70310000D01*
X156437440Y-69975000D01*
X157252560Y-69975000D01*
X157252560Y-70310000D01*
X157296838Y-70545317D01*
X157435910Y-70761441D01*
X157648110Y-70906431D01*
X157900000Y-70957440D01*
X159600000Y-70957440D01*
X159835317Y-70913162D01*
X160051441Y-70774090D01*
X160196431Y-70561890D01*
X160247440Y-70310000D01*
X160247440Y-69340000D01*
X163602560Y-69340000D01*
X163602560Y-69430000D01*
X163646838Y-69665317D01*
X163785910Y-69881441D01*
X163998110Y-70026431D01*
X164065541Y-70040086D01*
X164020853Y-70069946D01*
X163698946Y-70551715D01*
X163585907Y-71120000D01*
X163658790Y-71486408D01*
X155895198Y-79250000D01*
X153471563Y-79250000D01*
X153271890Y-79113569D01*
X153020000Y-79062560D01*
X151020000Y-79062560D01*
X150784683Y-79106838D01*
X150568559Y-79245910D01*
X150423569Y-79458110D01*
X150372560Y-79710000D01*
X150372560Y-80310000D01*
X150416838Y-80545317D01*
X150480678Y-80644528D01*
X150423569Y-80728110D01*
X150372560Y-80980000D01*
X150372560Y-81580000D01*
X150416838Y-81815317D01*
X150480678Y-81914528D01*
X150423569Y-81998110D01*
X150372560Y-82250000D01*
X150372560Y-82850000D01*
X150416838Y-83085317D01*
X150480678Y-83184528D01*
X150423569Y-83268110D01*
X150372560Y-83520000D01*
X150372560Y-84120000D01*
X150416838Y-84355317D01*
X150480678Y-84454528D01*
X150423569Y-84538110D01*
X150372560Y-84790000D01*
X150372560Y-85390000D01*
X150416838Y-85625317D01*
X150480678Y-85724528D01*
X150423569Y-85808110D01*
X150372560Y-86060000D01*
X150372560Y-86660000D01*
X150416838Y-86895317D01*
X150480678Y-86994528D01*
X150423569Y-87078110D01*
X150372560Y-87330000D01*
X150372560Y-87930000D01*
X150416838Y-88165317D01*
X150480678Y-88264528D01*
X150423569Y-88348110D01*
X150372560Y-88600000D01*
X150372560Y-89200000D01*
X150416838Y-89435317D01*
X150480678Y-89534528D01*
X150423569Y-89618110D01*
X150372560Y-89870000D01*
X150372560Y-90470000D01*
X150416838Y-90705317D01*
X150555910Y-90921441D01*
X150768110Y-91066431D01*
X151020000Y-91117440D01*
X153020000Y-91117440D01*
X153255317Y-91073162D01*
X153471441Y-90934090D01*
X153616431Y-90721890D01*
X153667440Y-90470000D01*
X153667440Y-89870000D01*
X153627926Y-89660000D01*
X163827046Y-89660000D01*
X164020853Y-89950054D01*
X164350026Y-90170000D01*
X164020853Y-90389946D01*
X163698946Y-90871715D01*
X163585907Y-91440000D01*
X163698946Y-92008285D01*
X164020853Y-92490054D01*
X164502622Y-92811961D01*
X165070907Y-92925000D01*
X165129093Y-92925000D01*
X165697378Y-92811961D01*
X166179147Y-92490054D01*
X166501054Y-92008285D01*
X166614093Y-91440000D01*
X166501054Y-90871715D01*
X166179147Y-90389946D01*
X165849974Y-90170000D01*
X166179147Y-89950054D01*
X166501054Y-89468285D01*
X166614093Y-88900000D01*
X166501054Y-88331715D01*
X166179147Y-87849946D01*
X165849974Y-87630000D01*
X166179147Y-87410054D01*
X166501054Y-86928285D01*
X166614093Y-86360000D01*
X166501054Y-85791715D01*
X166179147Y-85309946D01*
X165849974Y-85090000D01*
X166179147Y-84870054D01*
X166501054Y-84388285D01*
X166614093Y-83820000D01*
X166501054Y-83251715D01*
X166179147Y-82769946D01*
X165849974Y-82550000D01*
X166179147Y-82330054D01*
X166501054Y-81848285D01*
X166614093Y-81280000D01*
X166501054Y-80711715D01*
X166179147Y-80229946D01*
X165849974Y-80010000D01*
X166179147Y-79790054D01*
X166501054Y-79308285D01*
X166614093Y-78740000D01*
X166501054Y-78171715D01*
X166179147Y-77689946D01*
X165849974Y-77470000D01*
X166179147Y-77250054D01*
X166501054Y-76768285D01*
X166614093Y-76200000D01*
X166501054Y-75631715D01*
X166179147Y-75149946D01*
X165849974Y-74930000D01*
X166179147Y-74710054D01*
X166501054Y-74228285D01*
X166614093Y-73660000D01*
X166501054Y-73091715D01*
X166179147Y-72609946D01*
X165849974Y-72390000D01*
X166179147Y-72170054D01*
X166501054Y-71688285D01*
X166614093Y-71120000D01*
X166501054Y-70551715D01*
X166179147Y-70069946D01*
X166137548Y-70042150D01*
X166185317Y-70033162D01*
X166401441Y-69894090D01*
X166546431Y-69681890D01*
X166597440Y-69430000D01*
X166597440Y-67730000D01*
X166553162Y-67494683D01*
X166414090Y-67278559D01*
X166201890Y-67133569D01*
X166134459Y-67119914D01*
X166179147Y-67090054D01*
X166501054Y-66608285D01*
X166614093Y-66040000D01*
X166501054Y-65471715D01*
X166179147Y-64989946D01*
X165849974Y-64770000D01*
X166179147Y-64550054D01*
X166501054Y-64068285D01*
X166614093Y-63500000D01*
X166501054Y-62931715D01*
X166179147Y-62449946D01*
X165849974Y-62230000D01*
X166179147Y-62010054D01*
X166501054Y-61528285D01*
X166614093Y-60960000D01*
X166501054Y-60391715D01*
X166179147Y-59909946D01*
X166137548Y-59882150D01*
X166185317Y-59873162D01*
X166401441Y-59734090D01*
X166546431Y-59521890D01*
X166597440Y-59270000D01*
X166597440Y-57570000D01*
X166553162Y-57334683D01*
X166414090Y-57118559D01*
X166201890Y-56973569D01*
X165950000Y-56922560D01*
X164250000Y-56922560D01*
X164014683Y-56966838D01*
X163798559Y-57105910D01*
X163653569Y-57318110D01*
X163602560Y-57570000D01*
X163602560Y-59270000D01*
X163646838Y-59505317D01*
X163785910Y-59721441D01*
X163998110Y-59866431D01*
X164065541Y-59880086D01*
X164020853Y-59909946D01*
X163698946Y-60391715D01*
X163585907Y-60960000D01*
X163658790Y-61326408D01*
X162880198Y-62105000D01*
X155575000Y-62105000D01*
X155284161Y-62162852D01*
X155037599Y-62327599D01*
X154402599Y-62962599D01*
X154237852Y-63209161D01*
X154180000Y-63500000D01*
X154180000Y-63662560D01*
X154090000Y-63662560D01*
X153854683Y-63706838D01*
X153638559Y-63845910D01*
X153493569Y-64058110D01*
X153442560Y-64310000D01*
X153442560Y-66310000D01*
X153486838Y-66545317D01*
X153625910Y-66761441D01*
X153838110Y-66906431D01*
X154090000Y-66957440D01*
X155790000Y-66957440D01*
X156025317Y-66913162D01*
X156241441Y-66774090D01*
X156386431Y-66561890D01*
X156437440Y-66310000D01*
X156437440Y-64310000D01*
X156393162Y-64074683D01*
X156254090Y-63858559D01*
X156041890Y-63713569D01*
X155841760Y-63673042D01*
X155889802Y-63625000D01*
X158194290Y-63625000D01*
X158169194Y-63662560D01*
X157900000Y-63662560D01*
X157664683Y-63706838D01*
X157448559Y-63845910D01*
X157303569Y-64058110D01*
X157252560Y-64310000D01*
X157252560Y-66310000D01*
X157296838Y-66545317D01*
X157435910Y-66761441D01*
X157648110Y-66906431D01*
X157900000Y-66957440D01*
X159600000Y-66957440D01*
X159835317Y-66913162D01*
X160051441Y-66774090D01*
X160196431Y-66561890D01*
X160247440Y-66310000D01*
X160247440Y-64310000D01*
X160238032Y-64260000D01*
X163827046Y-64260000D01*
X164020853Y-64550054D01*
X164350026Y-64770000D01*
X164020853Y-64989946D01*
X163698946Y-65471715D01*
X163585907Y-66040000D01*
X163698946Y-66608285D01*
X164020853Y-67090054D01*
X164062452Y-67117850D01*
X164014683Y-67126838D01*
X163798559Y-67265910D01*
X163653569Y-67478110D01*
X163602560Y-67730000D01*
X163602560Y-67820000D01*
X160007657Y-67820000D01*
X159851890Y-67713569D01*
X159600000Y-67662560D01*
X157900000Y-67662560D01*
X157664683Y-67706838D01*
X157448559Y-67845910D01*
X157303569Y-68058110D01*
X157252560Y-68310000D01*
X157252560Y-68455000D01*
X156437440Y-68455000D01*
X156437440Y-68310000D01*
X156393162Y-68074683D01*
X156254090Y-67858559D01*
X156041890Y-67713569D01*
X155790000Y-67662560D01*
X154090000Y-67662560D01*
X153854683Y-67706838D01*
X153638559Y-67845910D01*
X153493569Y-68058110D01*
X153442560Y-68310000D01*
X153442560Y-70310000D01*
X153486838Y-70545317D01*
X153625910Y-70761441D01*
X153838110Y-70906431D01*
X154090000Y-70957440D01*
X154180000Y-70957440D01*
X154180000Y-71440198D01*
X150180198Y-75440000D01*
X136650000Y-75440000D01*
X136650000Y-71405750D01*
X138215000Y-71405750D01*
X138215000Y-72096309D01*
X138311673Y-72329698D01*
X138490301Y-72508327D01*
X138723690Y-72605000D01*
X139414250Y-72605000D01*
X139573000Y-72446250D01*
X139573000Y-71247000D01*
X138373750Y-71247000D01*
X138215000Y-71405750D01*
X136650000Y-71405750D01*
X136650000Y-62230000D01*
X136592148Y-61939161D01*
X136427401Y-61692599D01*
X123259185Y-48524383D01*
X130744769Y-48524383D01*
X130947582Y-49015229D01*
X131322796Y-49391098D01*
X131657527Y-49530091D01*
X131324771Y-49667582D01*
X130948902Y-50042796D01*
X130745232Y-50533287D01*
X130744769Y-51064383D01*
X130947582Y-51555229D01*
X131322796Y-51931098D01*
X131813287Y-52134768D01*
X132344383Y-52135231D01*
X132835229Y-51932418D01*
X133211098Y-51557204D01*
X133350091Y-51222473D01*
X133487582Y-51555229D01*
X133860000Y-51928297D01*
X133860000Y-53340000D01*
X133917852Y-53630839D01*
X134082599Y-53877401D01*
X136622599Y-56417401D01*
X136869160Y-56582148D01*
X136917414Y-56591746D01*
X137160000Y-56640000D01*
X138592666Y-56640000D01*
X138606838Y-56715317D01*
X138745910Y-56931441D01*
X138958110Y-57076431D01*
X139210000Y-57127440D01*
X142210000Y-57127440D01*
X142445317Y-57083162D01*
X142661441Y-56944090D01*
X142743780Y-56823582D01*
X144020000Y-58099802D01*
X144020000Y-65725198D01*
X142606408Y-67138790D01*
X142240000Y-67065907D01*
X141671715Y-67178946D01*
X141470000Y-67313727D01*
X141470000Y-59667440D01*
X142210000Y-59667440D01*
X142445317Y-59623162D01*
X142661441Y-59484090D01*
X142806431Y-59271890D01*
X142857440Y-59020000D01*
X142857440Y-57820000D01*
X142813162Y-57584683D01*
X142674090Y-57368559D01*
X142461890Y-57223569D01*
X142210000Y-57172560D01*
X139210000Y-57172560D01*
X138974683Y-57216838D01*
X138758559Y-57355910D01*
X138613569Y-57568110D01*
X138562560Y-57820000D01*
X138562560Y-59020000D01*
X138606838Y-59255317D01*
X138745910Y-59471441D01*
X138958110Y-59616431D01*
X139210000Y-59667440D01*
X139950000Y-59667440D01*
X139950000Y-67115635D01*
X139700000Y-67065907D01*
X139131715Y-67178946D01*
X138649946Y-67500853D01*
X138328039Y-67982622D01*
X138215000Y-68550907D01*
X138215000Y-68609093D01*
X138328039Y-69177378D01*
X138649946Y-69659147D01*
X138655858Y-69663097D01*
X138490301Y-69731673D01*
X138311673Y-69910302D01*
X138215000Y-70143691D01*
X138215000Y-70834250D01*
X138373750Y-70993000D01*
X139573000Y-70993000D01*
X139573000Y-70973000D01*
X139827000Y-70973000D01*
X139827000Y-70993000D01*
X139847000Y-70993000D01*
X139847000Y-71247000D01*
X139827000Y-71247000D01*
X139827000Y-72446250D01*
X139985750Y-72605000D01*
X140676310Y-72605000D01*
X140909699Y-72508327D01*
X141088327Y-72329698D01*
X141160597Y-72155223D01*
X141189946Y-72199147D01*
X141671715Y-72521054D01*
X142240000Y-72634093D01*
X142808285Y-72521054D01*
X143290054Y-72199147D01*
X143510000Y-71869974D01*
X143729946Y-72199147D01*
X144211715Y-72521054D01*
X144780000Y-72634093D01*
X145146408Y-72561210D01*
X146147599Y-73562401D01*
X146394161Y-73727148D01*
X146685000Y-73785000D01*
X148590000Y-73785000D01*
X148880839Y-73727148D01*
X149127401Y-73562401D01*
X152937401Y-69752401D01*
X153102148Y-69505839D01*
X153160000Y-69215000D01*
X153160000Y-59369802D01*
X153824052Y-58705750D01*
X155375000Y-58705750D01*
X155375000Y-59146310D01*
X155471673Y-59379699D01*
X155650302Y-59558327D01*
X155883691Y-59655000D01*
X157224250Y-59655000D01*
X157383000Y-59496250D01*
X157383000Y-58547000D01*
X157637000Y-58547000D01*
X157637000Y-59496250D01*
X157795750Y-59655000D01*
X159136309Y-59655000D01*
X159369698Y-59558327D01*
X159548327Y-59379699D01*
X159645000Y-59146310D01*
X159645000Y-58705750D01*
X159486250Y-58547000D01*
X157637000Y-58547000D01*
X157383000Y-58547000D01*
X155533750Y-58547000D01*
X155375000Y-58705750D01*
X153824052Y-58705750D01*
X154619802Y-57910000D01*
X155375000Y-57910000D01*
X155375000Y-58134250D01*
X155533750Y-58293000D01*
X157383000Y-58293000D01*
X157383000Y-58273000D01*
X157637000Y-58273000D01*
X157637000Y-58293000D01*
X159486250Y-58293000D01*
X159645000Y-58134250D01*
X159645000Y-57858282D01*
X159675839Y-57852148D01*
X159922401Y-57687401D01*
X160557401Y-57052401D01*
X160722148Y-56805839D01*
X160780000Y-56515000D01*
X160780000Y-53975000D01*
X160722148Y-53684161D01*
X160557401Y-53437599D01*
X159922401Y-52802599D01*
X159675839Y-52637852D01*
X159636757Y-52630078D01*
X159613162Y-52504683D01*
X159474090Y-52288559D01*
X159261890Y-52143569D01*
X159010000Y-52092560D01*
X156010000Y-52092560D01*
X155774683Y-52136838D01*
X155558559Y-52275910D01*
X155413569Y-52488110D01*
X155362560Y-52740000D01*
X155362560Y-53940000D01*
X155406838Y-54175317D01*
X155545910Y-54391441D01*
X155758110Y-54536431D01*
X156010000Y-54587440D01*
X159010000Y-54587440D01*
X159245317Y-54543162D01*
X159260000Y-54533714D01*
X159260000Y-54683186D01*
X159010000Y-54632560D01*
X156010000Y-54632560D01*
X155774683Y-54676838D01*
X155558559Y-54815910D01*
X155413569Y-55028110D01*
X155394961Y-55120000D01*
X153035000Y-55120000D01*
X152744161Y-55177852D01*
X152497599Y-55342599D01*
X150592599Y-57247599D01*
X150427852Y-57494161D01*
X150370000Y-57785000D01*
X150370000Y-67630198D01*
X148910198Y-69090000D01*
X148709342Y-69090000D01*
X148805000Y-68609093D01*
X148805000Y-68550907D01*
X148691961Y-67982622D01*
X148370054Y-67500853D01*
X148080000Y-67307046D01*
X148080000Y-53975000D01*
X148022148Y-53684161D01*
X147857401Y-53437599D01*
X144682401Y-50262599D01*
X144435839Y-50097852D01*
X144145000Y-50040000D01*
X142827334Y-50040000D01*
X142813162Y-49964683D01*
X142674090Y-49748559D01*
X142461890Y-49603569D01*
X142210000Y-49552560D01*
X139210000Y-49552560D01*
X138974683Y-49596838D01*
X138758559Y-49735910D01*
X138613569Y-49948110D01*
X138562560Y-50200000D01*
X138562560Y-51400000D01*
X138606838Y-51635317D01*
X138745910Y-51851441D01*
X138958110Y-51996431D01*
X139210000Y-52047440D01*
X142210000Y-52047440D01*
X142445317Y-52003162D01*
X142661441Y-51864090D01*
X142806431Y-51651890D01*
X142825039Y-51560000D01*
X143830198Y-51560000D01*
X146560000Y-54289802D01*
X146560000Y-55315198D01*
X144047401Y-52802599D01*
X143800839Y-52637852D01*
X143510000Y-52580000D01*
X142827334Y-52580000D01*
X142813162Y-52504683D01*
X142674090Y-52288559D01*
X142461890Y-52143569D01*
X142210000Y-52092560D01*
X139210000Y-52092560D01*
X138974683Y-52136838D01*
X138758559Y-52275910D01*
X138613569Y-52488110D01*
X138562560Y-52740000D01*
X138562560Y-53940000D01*
X138606838Y-54175317D01*
X138745910Y-54391441D01*
X138958110Y-54536431D01*
X139210000Y-54587440D01*
X142210000Y-54587440D01*
X142445317Y-54543162D01*
X142661441Y-54404090D01*
X142806431Y-54191890D01*
X142825039Y-54100000D01*
X143195198Y-54100000D01*
X145290000Y-56194802D01*
X145290000Y-57220198D01*
X143412401Y-55342599D01*
X143165839Y-55177852D01*
X142875000Y-55120000D01*
X142827334Y-55120000D01*
X142813162Y-55044683D01*
X142674090Y-54828559D01*
X142461890Y-54683569D01*
X142210000Y-54632560D01*
X139210000Y-54632560D01*
X138974683Y-54676838D01*
X138758559Y-54815910D01*
X138613569Y-55028110D01*
X138594961Y-55120000D01*
X137474802Y-55120000D01*
X135380000Y-53025198D01*
X135380000Y-51927655D01*
X135751098Y-51557204D01*
X135954768Y-51066713D01*
X135955231Y-50535617D01*
X135752418Y-50044771D01*
X135377204Y-49668902D01*
X135042473Y-49529909D01*
X135375229Y-49392418D01*
X135748297Y-49020000D01*
X152472537Y-49020000D01*
X152504673Y-49052192D01*
X152848201Y-49194838D01*
X153220167Y-49195162D01*
X153563943Y-49053117D01*
X153597118Y-49020000D01*
X154655198Y-49020000D01*
X155482469Y-49847271D01*
X155413569Y-49948110D01*
X155362560Y-50200000D01*
X155362560Y-51400000D01*
X155406838Y-51635317D01*
X155545910Y-51851441D01*
X155758110Y-51996431D01*
X156010000Y-52047440D01*
X159010000Y-52047440D01*
X159245317Y-52003162D01*
X159461441Y-51864090D01*
X159606431Y-51651890D01*
X159657440Y-51400000D01*
X159657440Y-50200000D01*
X159613162Y-49964683D01*
X159474090Y-49748559D01*
X159261890Y-49603569D01*
X159010000Y-49552560D01*
X157337362Y-49552560D01*
X156804284Y-49019482D01*
X161264336Y-49019482D01*
X161846950Y-50429515D01*
X162924811Y-51509259D01*
X164333825Y-52094333D01*
X165859482Y-52095664D01*
X167269515Y-51513050D01*
X168349259Y-50435189D01*
X168934333Y-49026175D01*
X168935664Y-47500518D01*
X168353050Y-46090485D01*
X167275189Y-45010741D01*
X165866175Y-44425667D01*
X164340518Y-44424336D01*
X162930485Y-45006950D01*
X161850741Y-46084811D01*
X161265667Y-47493825D01*
X161264336Y-49019482D01*
X156804284Y-49019482D01*
X155507401Y-47722599D01*
X155260839Y-47557852D01*
X154970000Y-47500000D01*
X153597463Y-47500000D01*
X153565327Y-47467808D01*
X153221799Y-47325162D01*
X152849833Y-47324838D01*
X152506057Y-47466883D01*
X152472882Y-47500000D01*
X135747655Y-47500000D01*
X135377204Y-47128902D01*
X134886713Y-46925232D01*
X134355617Y-46924769D01*
X133864771Y-47127582D01*
X133488902Y-47502796D01*
X133349909Y-47837527D01*
X133212418Y-47504771D01*
X132837204Y-47128902D01*
X132346713Y-46925232D01*
X131815617Y-46924769D01*
X131324771Y-47127582D01*
X130948902Y-47502796D01*
X130745232Y-47993287D01*
X130744769Y-48524383D01*
X123259185Y-48524383D01*
X121187401Y-46452599D01*
X120940839Y-46287852D01*
X120650000Y-46230000D01*
X102870000Y-46230000D01*
X102579160Y-46287852D01*
X102332599Y-46452599D01*
X101966408Y-46818790D01*
X101600000Y-46745907D01*
X101031715Y-46858946D01*
X100549946Y-47180853D01*
X100330000Y-47510026D01*
X100110054Y-47180853D01*
X99628285Y-46858946D01*
X99060000Y-46745907D01*
X98491715Y-46858946D01*
X98009946Y-47180853D01*
X97790000Y-47510026D01*
X97570054Y-47180853D01*
X97088285Y-46858946D01*
X96520000Y-46745907D01*
X95951715Y-46858946D01*
X95469946Y-47180853D01*
X95242298Y-47521553D01*
X95175183Y-47378642D01*
X94746924Y-46988355D01*
X94336890Y-46818524D01*
X94107000Y-46939845D01*
X94107000Y-48133000D01*
X94127000Y-48133000D01*
X94127000Y-48387000D01*
X94107000Y-48387000D01*
X94107000Y-49580155D01*
X94336890Y-49701476D01*
X94746924Y-49531645D01*
X95175183Y-49141358D01*
X95242298Y-48998447D01*
X95469946Y-49339147D01*
X95760000Y-49532954D01*
X95760000Y-50165000D01*
X95817852Y-50455839D01*
X95982599Y-50702401D01*
X100400198Y-55120000D01*
X81280000Y-55120000D01*
X80989161Y-55177852D01*
X80742599Y-55342599D01*
X77697440Y-58387758D01*
X77697440Y-57570000D01*
X77653162Y-57334683D01*
X77514090Y-57118559D01*
X77301890Y-56973569D01*
X77050000Y-56922560D01*
X75350000Y-56922560D01*
X75114683Y-56966838D01*
X74898559Y-57105910D01*
X74753569Y-57318110D01*
X74702560Y-57570000D01*
X74702560Y-59270000D01*
X74746838Y-59505317D01*
X74885910Y-59721441D01*
X75098110Y-59866431D01*
X75165541Y-59880086D01*
X75120853Y-59909946D01*
X74798946Y-60391715D01*
X74685907Y-60960000D01*
X74798946Y-61528285D01*
X75120853Y-62010054D01*
X75602622Y-62331961D01*
X76170907Y-62445000D01*
X76229093Y-62445000D01*
X76797378Y-62331961D01*
X77279147Y-62010054D01*
X77601054Y-61528285D01*
X77714093Y-60960000D01*
X77641210Y-60593592D01*
X81594802Y-56640000D01*
X95955198Y-56640000D01*
X95347599Y-57247599D01*
X95182852Y-57494161D01*
X95125000Y-57785000D01*
X95125000Y-66480000D01*
X92355000Y-66480000D01*
X92355000Y-66325750D01*
X92196250Y-66167000D01*
X91247000Y-66167000D01*
X91247000Y-66187000D01*
X90993000Y-66187000D01*
X90993000Y-66167000D01*
X90973000Y-66167000D01*
X90973000Y-65913000D01*
X90993000Y-65913000D01*
X90993000Y-65188750D01*
X91247000Y-65188750D01*
X91247000Y-65913000D01*
X92196250Y-65913000D01*
X92355000Y-65754250D01*
X92355000Y-65538690D01*
X92258327Y-65305301D01*
X92079698Y-65126673D01*
X91846309Y-65030000D01*
X91405750Y-65030000D01*
X91247000Y-65188750D01*
X90993000Y-65188750D01*
X90834250Y-65030000D01*
X90393691Y-65030000D01*
X90160302Y-65126673D01*
X90158932Y-65128043D01*
X90071890Y-65068569D01*
X89980000Y-65049961D01*
X89980000Y-62334409D01*
X90151441Y-62224090D01*
X90296431Y-62011890D01*
X90305370Y-61967745D01*
X90571861Y-61967745D01*
X90645995Y-62213864D01*
X91183223Y-62406965D01*
X91753454Y-62379778D01*
X92154005Y-62213864D01*
X92228139Y-61967745D01*
X91400000Y-61139605D01*
X90571861Y-61967745D01*
X90305370Y-61967745D01*
X90344646Y-61773799D01*
X90392255Y-61788139D01*
X91220395Y-60960000D01*
X91579605Y-60960000D01*
X92407745Y-61788139D01*
X92653864Y-61714005D01*
X92846965Y-61176777D01*
X92819778Y-60606546D01*
X92653864Y-60205995D01*
X92407745Y-60131861D01*
X91579605Y-60960000D01*
X91220395Y-60960000D01*
X90392255Y-60131861D01*
X90344833Y-60146145D01*
X90308351Y-59952255D01*
X90571861Y-59952255D01*
X91400000Y-60780395D01*
X92228139Y-59952255D01*
X92154005Y-59706136D01*
X91616777Y-59513035D01*
X91046546Y-59540222D01*
X90645995Y-59706136D01*
X90571861Y-59952255D01*
X90308351Y-59952255D01*
X90303162Y-59924683D01*
X90164090Y-59708559D01*
X89951890Y-59563569D01*
X89700000Y-59512560D01*
X88100000Y-59512560D01*
X87864683Y-59556838D01*
X87648559Y-59695910D01*
X87503569Y-59908110D01*
X87452560Y-60160000D01*
X87452560Y-61760000D01*
X87496838Y-61995317D01*
X87635910Y-62211441D01*
X87848110Y-62356431D01*
X88100000Y-62407440D01*
X88460000Y-62407440D01*
X88460000Y-65047666D01*
X88384683Y-65061838D01*
X88168559Y-65200910D01*
X88023569Y-65413110D01*
X87972560Y-65665000D01*
X87972560Y-66415000D01*
X88016838Y-66650317D01*
X88155910Y-66866441D01*
X88298399Y-66963799D01*
X84902198Y-70360000D01*
X80012954Y-70360000D01*
X79819147Y-70069946D01*
X79337378Y-69748039D01*
X78769093Y-69635000D01*
X78710907Y-69635000D01*
X78142622Y-69748039D01*
X77660853Y-70069946D01*
X77660029Y-70071179D01*
X77653162Y-70034683D01*
X77514090Y-69818559D01*
X77301890Y-69673569D01*
X77050000Y-69622560D01*
X75350000Y-69622560D01*
X75114683Y-69666838D01*
X74898559Y-69805910D01*
X74753569Y-70018110D01*
X74702560Y-70270000D01*
X74702560Y-71970000D01*
X74746838Y-72205317D01*
X74885910Y-72421441D01*
X75098110Y-72566431D01*
X75165541Y-72580086D01*
X75120853Y-72609946D01*
X74798946Y-73091715D01*
X74685907Y-73660000D01*
X74758790Y-74026408D01*
X74392599Y-74392599D01*
X74227852Y-74639161D01*
X74170000Y-74930000D01*
X71830000Y-74930000D01*
X71830000Y-49019482D01*
X72364336Y-49019482D01*
X72946950Y-50429515D01*
X74024811Y-51509259D01*
X75433825Y-52094333D01*
X76959482Y-52095664D01*
X78369515Y-51513050D01*
X79449259Y-50435189D01*
X80034333Y-49026175D01*
X80034690Y-48616892D01*
X89998514Y-48616892D01*
X90244817Y-49141358D01*
X90673076Y-49531645D01*
X91083110Y-49701476D01*
X91313000Y-49580155D01*
X91313000Y-48387000D01*
X91567000Y-48387000D01*
X91567000Y-49580155D01*
X91796890Y-49701476D01*
X92206924Y-49531645D01*
X92635183Y-49141358D01*
X92710000Y-48982046D01*
X92784817Y-49141358D01*
X93213076Y-49531645D01*
X93623110Y-49701476D01*
X93853000Y-49580155D01*
X93853000Y-48387000D01*
X91567000Y-48387000D01*
X91313000Y-48387000D01*
X90119181Y-48387000D01*
X89998514Y-48616892D01*
X80034690Y-48616892D01*
X80035312Y-47903108D01*
X89998514Y-47903108D01*
X90119181Y-48133000D01*
X91313000Y-48133000D01*
X91313000Y-46939845D01*
X91567000Y-46939845D01*
X91567000Y-48133000D01*
X93853000Y-48133000D01*
X93853000Y-46939845D01*
X93623110Y-46818524D01*
X93213076Y-46988355D01*
X92784817Y-47378642D01*
X92710000Y-47537954D01*
X92635183Y-47378642D01*
X92206924Y-46988355D01*
X91796890Y-46818524D01*
X91567000Y-46939845D01*
X91313000Y-46939845D01*
X91083110Y-46818524D01*
X90673076Y-46988355D01*
X90244817Y-47378642D01*
X89998514Y-47903108D01*
X80035312Y-47903108D01*
X80035664Y-47500518D01*
X79453050Y-46090485D01*
X78375189Y-45010741D01*
X76966175Y-44425667D01*
X75440518Y-44424336D01*
X74030485Y-45006950D01*
X72950741Y-46084811D01*
X72365667Y-47493825D01*
X72364336Y-49019482D01*
X71830000Y-49019482D01*
X71830000Y-43890000D01*
X169470000Y-43890000D01*
X169470000Y-112320000D01*
X169470000Y-112320000D01*
G37*
X169470000Y-112320000D02*
X71830000Y-112320000D01*
X71830000Y-108709482D01*
X72364336Y-108709482D01*
X72946950Y-110119515D01*
X74024811Y-111199259D01*
X75433825Y-111784333D01*
X76959482Y-111785664D01*
X78369515Y-111203050D01*
X79449259Y-110125189D01*
X80034333Y-108716175D01*
X80034718Y-108273795D01*
X106314716Y-108273795D01*
X106563106Y-108874943D01*
X107022637Y-109335278D01*
X107623352Y-109584716D01*
X108273795Y-109585284D01*
X108874943Y-109336894D01*
X109109715Y-109102532D01*
X109517073Y-109102532D01*
X109615736Y-109369387D01*
X110225461Y-109595908D01*
X110875460Y-109571856D01*
X111364264Y-109369387D01*
X111462927Y-109102532D01*
X110490000Y-108129605D01*
X109517073Y-109102532D01*
X109109715Y-109102532D01*
X109302562Y-108910022D01*
X109337468Y-108922927D01*
X110310395Y-107950000D01*
X110669605Y-107950000D01*
X111642532Y-108922927D01*
X111677938Y-108909836D01*
X112102637Y-109335278D01*
X112703352Y-109584716D01*
X113353795Y-109585284D01*
X113954943Y-109336894D01*
X114415278Y-108877363D01*
X114484988Y-108709482D01*
X161264336Y-108709482D01*
X161846950Y-110119515D01*
X162924811Y-111199259D01*
X164333825Y-111784333D01*
X165859482Y-111785664D01*
X167269515Y-111203050D01*
X168349259Y-110125189D01*
X168934333Y-108716175D01*
X168935664Y-107190518D01*
X168353050Y-105780485D01*
X167275189Y-104700741D01*
X165866175Y-104115667D01*
X164340518Y-104114336D01*
X162930485Y-104696950D01*
X161850741Y-105774811D01*
X161265667Y-107183825D01*
X161264336Y-108709482D01*
X114484988Y-108709482D01*
X114664716Y-108276648D01*
X114665284Y-107626205D01*
X114416894Y-107025057D01*
X113957363Y-106564722D01*
X113356648Y-106315284D01*
X112706205Y-106314716D01*
X112105057Y-106563106D01*
X111677438Y-106989978D01*
X111642532Y-106977073D01*
X110669605Y-107950000D01*
X110310395Y-107950000D01*
X109337468Y-106977073D01*
X109302062Y-106990164D01*
X109109703Y-106797468D01*
X109517073Y-106797468D01*
X110490000Y-107770395D01*
X111462927Y-106797468D01*
X111364264Y-106530613D01*
X110754539Y-106304092D01*
X110104540Y-106328144D01*
X109615736Y-106530613D01*
X109517073Y-106797468D01*
X109109703Y-106797468D01*
X108877363Y-106564722D01*
X108276648Y-106315284D01*
X107626205Y-106314716D01*
X107025057Y-106563106D01*
X106564722Y-107022637D01*
X106315284Y-107623352D01*
X106314716Y-108273795D01*
X80034718Y-108273795D01*
X80035664Y-107190518D01*
X79453050Y-105780485D01*
X78375189Y-104700741D01*
X76966175Y-104115667D01*
X75440518Y-104114336D01*
X74030485Y-104696950D01*
X72950741Y-105774811D01*
X72365667Y-107183825D01*
X72364336Y-108709482D01*
X71830000Y-108709482D01*
X71830000Y-101337745D01*
X109701861Y-101337745D01*
X109775995Y-101583864D01*
X110313223Y-101776965D01*
X110883454Y-101749778D01*
X111284005Y-101583864D01*
X111358139Y-101337745D01*
X110530000Y-100509605D01*
X109701861Y-101337745D01*
X71830000Y-101337745D01*
X71830000Y-100113223D01*
X109083035Y-100113223D01*
X109110222Y-100683454D01*
X109276136Y-101084005D01*
X109522255Y-101158139D01*
X110350395Y-100330000D01*
X110709605Y-100330000D01*
X111537745Y-101158139D01*
X111585167Y-101143855D01*
X111626838Y-101365317D01*
X111765910Y-101581441D01*
X111978110Y-101726431D01*
X112230000Y-101777440D01*
X113830000Y-101777440D01*
X114065317Y-101733162D01*
X114281441Y-101594090D01*
X114426431Y-101381890D01*
X114477440Y-101130000D01*
X114477440Y-100750000D01*
X148362560Y-100750000D01*
X148362560Y-102450000D01*
X148406838Y-102685317D01*
X148545910Y-102901441D01*
X148758110Y-103046431D01*
X149010000Y-103097440D01*
X150710000Y-103097440D01*
X150945317Y-103053162D01*
X151161441Y-102914090D01*
X151306431Y-102701890D01*
X151320086Y-102634459D01*
X151349946Y-102679147D01*
X151831715Y-103001054D01*
X152400000Y-103114093D01*
X152968285Y-103001054D01*
X153450054Y-102679147D01*
X153670000Y-102349974D01*
X153889946Y-102679147D01*
X154371715Y-103001054D01*
X154940000Y-103114093D01*
X155508285Y-103001054D01*
X155990054Y-102679147D01*
X156311961Y-102197378D01*
X156425000Y-101629093D01*
X156425000Y-101570907D01*
X156311961Y-101002622D01*
X155990054Y-100520853D01*
X155508285Y-100198946D01*
X154940000Y-100085907D01*
X154371715Y-100198946D01*
X153889946Y-100520853D01*
X153670000Y-100850026D01*
X153450054Y-100520853D01*
X152968285Y-100198946D01*
X152400000Y-100085907D01*
X151831715Y-100198946D01*
X151349946Y-100520853D01*
X151322150Y-100562452D01*
X151313162Y-100514683D01*
X151174090Y-100298559D01*
X150961890Y-100153569D01*
X150710000Y-100102560D01*
X149010000Y-100102560D01*
X148774683Y-100146838D01*
X148558559Y-100285910D01*
X148413569Y-100498110D01*
X148362560Y-100750000D01*
X114477440Y-100750000D01*
X114477440Y-99530000D01*
X114433162Y-99294683D01*
X114294090Y-99078559D01*
X114170612Y-98994190D01*
X114297401Y-98867401D01*
X114462148Y-98620839D01*
X114520000Y-98330000D01*
X114520000Y-96747440D01*
X114760000Y-96747440D01*
X114995317Y-96703162D01*
X115211441Y-96564090D01*
X115356431Y-96351890D01*
X115407440Y-96100000D01*
X115407440Y-94400000D01*
X115363162Y-94164683D01*
X115224090Y-93948559D01*
X115011890Y-93803569D01*
X114760000Y-93752560D01*
X112760000Y-93752560D01*
X112524683Y-93796838D01*
X112308559Y-93935910D01*
X112163569Y-94148110D01*
X112112560Y-94400000D01*
X112112560Y-96100000D01*
X112156838Y-96335317D01*
X112295910Y-96551441D01*
X112508110Y-96696431D01*
X112760000Y-96747440D01*
X113000000Y-96747440D01*
X113000000Y-98015198D01*
X112492599Y-98522599D01*
X112327852Y-98769161D01*
X112305295Y-98882560D01*
X112230000Y-98882560D01*
X111994683Y-98926838D01*
X111778559Y-99065910D01*
X111633569Y-99278110D01*
X111585354Y-99516201D01*
X111537745Y-99501861D01*
X110709605Y-100330000D01*
X110350395Y-100330000D01*
X109522255Y-99501861D01*
X109276136Y-99575995D01*
X109083035Y-100113223D01*
X71830000Y-100113223D01*
X71830000Y-99322255D01*
X109701861Y-99322255D01*
X110530000Y-100150395D01*
X111358139Y-99322255D01*
X111284005Y-99076136D01*
X110746777Y-98883035D01*
X110176546Y-98910222D01*
X109775995Y-99076136D01*
X109701861Y-99322255D01*
X71830000Y-99322255D01*
X71830000Y-74930000D01*
X74170000Y-74930000D01*
X74170000Y-77470000D01*
X74227852Y-77760839D01*
X74392599Y-78007401D01*
X75662599Y-79277401D01*
X75909160Y-79442148D01*
X76200000Y-79500000D01*
X102870000Y-79500000D01*
X103160839Y-79442148D01*
X103407401Y-79277401D01*
X107657401Y-75027401D01*
X107822148Y-74780839D01*
X107880000Y-74490000D01*
X107880000Y-69762440D01*
X107920000Y-69762440D01*
X108155317Y-69718162D01*
X108371441Y-69579090D01*
X108516431Y-69366890D01*
X108567440Y-69115000D01*
X108567440Y-69002242D01*
X109000000Y-69434802D01*
X109000000Y-93752560D01*
X108760000Y-93752560D01*
X108524683Y-93796838D01*
X108308559Y-93935910D01*
X108163569Y-94148110D01*
X108112560Y-94400000D01*
X108112560Y-96100000D01*
X108156838Y-96335317D01*
X108295910Y-96551441D01*
X108508110Y-96696431D01*
X108760000Y-96747440D01*
X110760000Y-96747440D01*
X110995317Y-96703162D01*
X111211441Y-96564090D01*
X111356431Y-96351890D01*
X111407440Y-96100000D01*
X111407440Y-94400000D01*
X111363162Y-94164683D01*
X111224090Y-93948559D01*
X111011890Y-93803569D01*
X110760000Y-93752560D01*
X110520000Y-93752560D01*
X110520000Y-69120000D01*
X110462148Y-68829161D01*
X110297401Y-68582599D01*
X109217401Y-67502599D01*
X108970839Y-67337852D01*
X108680000Y-67280000D01*
X108567440Y-67280000D01*
X108567440Y-66965000D01*
X108543056Y-66835411D01*
X108567440Y-66715000D01*
X108567440Y-66165000D01*
X108547550Y-66059295D01*
X108555000Y-66041310D01*
X108555000Y-65925750D01*
X108458599Y-65829349D01*
X108384090Y-65713559D01*
X108276603Y-65640116D01*
X108371441Y-65579090D01*
X108460495Y-65448755D01*
X108555000Y-65354250D01*
X108555000Y-65238690D01*
X108546532Y-65218247D01*
X108567440Y-65115000D01*
X108567440Y-64800000D01*
X110080198Y-64800000D01*
X111635000Y-66354802D01*
X111635000Y-77470000D01*
X111692852Y-77760839D01*
X111857599Y-78007401D01*
X120747599Y-86897401D01*
X120994161Y-87062148D01*
X121285000Y-87120000D01*
X128340198Y-87120000D01*
X126462599Y-88997599D01*
X126297852Y-89244161D01*
X126240000Y-89535000D01*
X126240000Y-93345000D01*
X126297852Y-93635839D01*
X126462599Y-93882401D01*
X128367599Y-95787401D01*
X128614161Y-95952148D01*
X128905000Y-96010000D01*
X144145000Y-96010000D01*
X144435839Y-95952148D01*
X144682401Y-95787401D01*
X146587401Y-93882401D01*
X146752148Y-93635839D01*
X146810000Y-93345000D01*
X146810000Y-81915000D01*
X146752148Y-81624161D01*
X146587401Y-81377599D01*
X144682401Y-79472599D01*
X144435839Y-79307852D01*
X144145000Y-79250000D01*
X144071563Y-79250000D01*
X143871890Y-79113569D01*
X143620000Y-79062560D01*
X141620000Y-79062560D01*
X141384683Y-79106838D01*
X141168559Y-79245910D01*
X141023569Y-79458110D01*
X140972560Y-79710000D01*
X140972560Y-80310000D01*
X141012074Y-80520000D01*
X137677780Y-80520000D01*
X137731500Y-80390309D01*
X137731500Y-80295750D01*
X137572750Y-80137000D01*
X136652000Y-80137000D01*
X136652000Y-80157000D01*
X136398000Y-80157000D01*
X136398000Y-80137000D01*
X135477250Y-80137000D01*
X135318500Y-80295750D01*
X135318500Y-80390309D01*
X135415173Y-80623698D01*
X135441709Y-80650235D01*
X135357069Y-80774110D01*
X135306060Y-81026000D01*
X135306060Y-81534000D01*
X135350338Y-81769317D01*
X135444666Y-81915907D01*
X135357069Y-82044110D01*
X135306060Y-82296000D01*
X135306060Y-82804000D01*
X135350338Y-83039317D01*
X135444666Y-83185907D01*
X135357069Y-83314110D01*
X135306060Y-83566000D01*
X135306060Y-84074000D01*
X135350338Y-84309317D01*
X135444666Y-84455907D01*
X135357069Y-84584110D01*
X135306060Y-84836000D01*
X135306060Y-85344000D01*
X135350338Y-85579317D01*
X135444666Y-85725907D01*
X135357069Y-85854110D01*
X135306060Y-86106000D01*
X135306060Y-86614000D01*
X135350338Y-86849317D01*
X135444666Y-86995907D01*
X135357069Y-87124110D01*
X135306060Y-87376000D01*
X135306060Y-87884000D01*
X135350338Y-88119317D01*
X135444666Y-88265907D01*
X135357069Y-88394110D01*
X135306060Y-88646000D01*
X135306060Y-89154000D01*
X135350338Y-89389317D01*
X135489410Y-89605441D01*
X135701610Y-89750431D01*
X135953500Y-89801440D01*
X137096500Y-89801440D01*
X137331817Y-89757162D01*
X137482811Y-89660000D01*
X141019666Y-89660000D01*
X140985000Y-89743690D01*
X140985000Y-89884250D01*
X141143750Y-90043000D01*
X142493000Y-90043000D01*
X142493000Y-90023000D01*
X142747000Y-90023000D01*
X142747000Y-90043000D01*
X144096250Y-90043000D01*
X144255000Y-89884250D01*
X144255000Y-89743690D01*
X144165194Y-89526878D01*
X144216431Y-89451890D01*
X144267440Y-89200000D01*
X144267440Y-88600000D01*
X144223162Y-88364683D01*
X144159322Y-88265472D01*
X144216431Y-88181890D01*
X144267440Y-87930000D01*
X144267440Y-87330000D01*
X144223162Y-87094683D01*
X144159322Y-86995472D01*
X144216431Y-86911890D01*
X144267440Y-86660000D01*
X144267440Y-86060000D01*
X144223162Y-85824683D01*
X144159322Y-85725472D01*
X144216431Y-85641890D01*
X144267440Y-85390000D01*
X144267440Y-84790000D01*
X144223162Y-84554683D01*
X144159322Y-84455472D01*
X144216431Y-84371890D01*
X144267440Y-84120000D01*
X144267440Y-83520000D01*
X144223162Y-83284683D01*
X144159322Y-83185472D01*
X144216431Y-83101890D01*
X144267440Y-82850000D01*
X144267440Y-82250000D01*
X144223162Y-82014683D01*
X144159322Y-81915472D01*
X144216431Y-81831890D01*
X144267440Y-81580000D01*
X144267440Y-81207242D01*
X145290000Y-82229802D01*
X145290000Y-93030198D01*
X143830198Y-94490000D01*
X129219802Y-94490000D01*
X127760000Y-93030198D01*
X127760000Y-89849802D01*
X128956060Y-88653742D01*
X128956060Y-89154000D01*
X129000338Y-89389317D01*
X129139410Y-89605441D01*
X129351610Y-89750431D01*
X129603500Y-89801440D01*
X130746500Y-89801440D01*
X130981817Y-89757162D01*
X131132811Y-89660000D01*
X131640000Y-89660000D01*
X131640000Y-90447666D01*
X131564683Y-90461838D01*
X131348559Y-90600910D01*
X131203569Y-90813110D01*
X131152560Y-91065000D01*
X131152560Y-91815000D01*
X131196838Y-92050317D01*
X131335910Y-92266441D01*
X131548110Y-92411431D01*
X131800000Y-92462440D01*
X133000000Y-92462440D01*
X133235317Y-92418162D01*
X133338646Y-92351671D01*
X133340302Y-92353327D01*
X133573691Y-92450000D01*
X134014250Y-92450000D01*
X134173000Y-92291250D01*
X134173000Y-91567000D01*
X134427000Y-91567000D01*
X134427000Y-92291250D01*
X134585750Y-92450000D01*
X135026309Y-92450000D01*
X135259698Y-92353327D01*
X135438327Y-92174699D01*
X135535000Y-91941310D01*
X135535000Y-91725750D01*
X135376250Y-91567000D01*
X134427000Y-91567000D01*
X134173000Y-91567000D01*
X134153000Y-91567000D01*
X134153000Y-91313000D01*
X134173000Y-91313000D01*
X134173000Y-90588750D01*
X134427000Y-90588750D01*
X134427000Y-91313000D01*
X135376250Y-91313000D01*
X135535000Y-91154250D01*
X135535000Y-90938690D01*
X135438327Y-90705301D01*
X135259698Y-90526673D01*
X135088475Y-90455750D01*
X140985000Y-90455750D01*
X140985000Y-90596310D01*
X141081673Y-90829699D01*
X141260302Y-91008327D01*
X141493691Y-91105000D01*
X142334250Y-91105000D01*
X142493000Y-90946250D01*
X142493000Y-90297000D01*
X142747000Y-90297000D01*
X142747000Y-90946250D01*
X142905750Y-91105000D01*
X143746309Y-91105000D01*
X143979698Y-91008327D01*
X144158327Y-90829699D01*
X144255000Y-90596310D01*
X144255000Y-90455750D01*
X144096250Y-90297000D01*
X142747000Y-90297000D01*
X142493000Y-90297000D01*
X141143750Y-90297000D01*
X140985000Y-90455750D01*
X135088475Y-90455750D01*
X135026309Y-90430000D01*
X134585750Y-90430000D01*
X134427000Y-90588750D01*
X134173000Y-90588750D01*
X134014250Y-90430000D01*
X133573691Y-90430000D01*
X133340302Y-90526673D01*
X133338932Y-90528043D01*
X133251890Y-90468569D01*
X133160000Y-90449961D01*
X133160000Y-80004802D01*
X133535111Y-79629691D01*
X135318500Y-79629691D01*
X135318500Y-79724250D01*
X135477250Y-79883000D01*
X136398000Y-79883000D01*
X136398000Y-79279750D01*
X136652000Y-79279750D01*
X136652000Y-79883000D01*
X137572750Y-79883000D01*
X137731500Y-79724250D01*
X137731500Y-79629691D01*
X137634827Y-79396302D01*
X137456199Y-79217673D01*
X137222810Y-79121000D01*
X136810750Y-79121000D01*
X136652000Y-79279750D01*
X136398000Y-79279750D01*
X136239250Y-79121000D01*
X135827190Y-79121000D01*
X135593801Y-79217673D01*
X135415173Y-79396302D01*
X135318500Y-79629691D01*
X133535111Y-79629691D01*
X136204802Y-76960000D01*
X150495000Y-76960000D01*
X150785839Y-76902148D01*
X151032401Y-76737401D01*
X155477401Y-72292401D01*
X155642148Y-72045840D01*
X155700000Y-71755000D01*
X155700000Y-70957440D01*
X155790000Y-70957440D01*
X156025317Y-70913162D01*
X156241441Y-70774090D01*
X156386431Y-70561890D01*
X156437440Y-70310000D01*
X156437440Y-69975000D01*
X157252560Y-69975000D01*
X157252560Y-70310000D01*
X157296838Y-70545317D01*
X157435910Y-70761441D01*
X157648110Y-70906431D01*
X157900000Y-70957440D01*
X159600000Y-70957440D01*
X159835317Y-70913162D01*
X160051441Y-70774090D01*
X160196431Y-70561890D01*
X160247440Y-70310000D01*
X160247440Y-69340000D01*
X163602560Y-69340000D01*
X163602560Y-69430000D01*
X163646838Y-69665317D01*
X163785910Y-69881441D01*
X163998110Y-70026431D01*
X164065541Y-70040086D01*
X164020853Y-70069946D01*
X163698946Y-70551715D01*
X163585907Y-71120000D01*
X163658790Y-71486408D01*
X155895198Y-79250000D01*
X153471563Y-79250000D01*
X153271890Y-79113569D01*
X153020000Y-79062560D01*
X151020000Y-79062560D01*
X150784683Y-79106838D01*
X150568559Y-79245910D01*
X150423569Y-79458110D01*
X150372560Y-79710000D01*
X150372560Y-80310000D01*
X150416838Y-80545317D01*
X150480678Y-80644528D01*
X150423569Y-80728110D01*
X150372560Y-80980000D01*
X150372560Y-81580000D01*
X150416838Y-81815317D01*
X150480678Y-81914528D01*
X150423569Y-81998110D01*
X150372560Y-82250000D01*
X150372560Y-82850000D01*
X150416838Y-83085317D01*
X150480678Y-83184528D01*
X150423569Y-83268110D01*
X150372560Y-83520000D01*
X150372560Y-84120000D01*
X150416838Y-84355317D01*
X150480678Y-84454528D01*
X150423569Y-84538110D01*
X150372560Y-84790000D01*
X150372560Y-85390000D01*
X150416838Y-85625317D01*
X150480678Y-85724528D01*
X150423569Y-85808110D01*
X150372560Y-86060000D01*
X150372560Y-86660000D01*
X150416838Y-86895317D01*
X150480678Y-86994528D01*
X150423569Y-87078110D01*
X150372560Y-87330000D01*
X150372560Y-87930000D01*
X150416838Y-88165317D01*
X150480678Y-88264528D01*
X150423569Y-88348110D01*
X150372560Y-88600000D01*
X150372560Y-89200000D01*
X150416838Y-89435317D01*
X150480678Y-89534528D01*
X150423569Y-89618110D01*
X150372560Y-89870000D01*
X150372560Y-90470000D01*
X150416838Y-90705317D01*
X150555910Y-90921441D01*
X150768110Y-91066431D01*
X151020000Y-91117440D01*
X153020000Y-91117440D01*
X153255317Y-91073162D01*
X153471441Y-90934090D01*
X153616431Y-90721890D01*
X153667440Y-90470000D01*
X153667440Y-89870000D01*
X153627926Y-89660000D01*
X163827046Y-89660000D01*
X164020853Y-89950054D01*
X164350026Y-90170000D01*
X164020853Y-90389946D01*
X163698946Y-90871715D01*
X163585907Y-91440000D01*
X163698946Y-92008285D01*
X164020853Y-92490054D01*
X164502622Y-92811961D01*
X165070907Y-92925000D01*
X165129093Y-92925000D01*
X165697378Y-92811961D01*
X166179147Y-92490054D01*
X166501054Y-92008285D01*
X166614093Y-91440000D01*
X166501054Y-90871715D01*
X166179147Y-90389946D01*
X165849974Y-90170000D01*
X166179147Y-89950054D01*
X166501054Y-89468285D01*
X166614093Y-88900000D01*
X166501054Y-88331715D01*
X166179147Y-87849946D01*
X165849974Y-87630000D01*
X166179147Y-87410054D01*
X166501054Y-86928285D01*
X166614093Y-86360000D01*
X166501054Y-85791715D01*
X166179147Y-85309946D01*
X165849974Y-85090000D01*
X166179147Y-84870054D01*
X166501054Y-84388285D01*
X166614093Y-83820000D01*
X166501054Y-83251715D01*
X166179147Y-82769946D01*
X165849974Y-82550000D01*
X166179147Y-82330054D01*
X166501054Y-81848285D01*
X166614093Y-81280000D01*
X166501054Y-80711715D01*
X166179147Y-80229946D01*
X165849974Y-80010000D01*
X166179147Y-79790054D01*
X166501054Y-79308285D01*
X166614093Y-78740000D01*
X166501054Y-78171715D01*
X166179147Y-77689946D01*
X165849974Y-77470000D01*
X166179147Y-77250054D01*
X166501054Y-76768285D01*
X166614093Y-76200000D01*
X166501054Y-75631715D01*
X166179147Y-75149946D01*
X165849974Y-74930000D01*
X166179147Y-74710054D01*
X166501054Y-74228285D01*
X166614093Y-73660000D01*
X166501054Y-73091715D01*
X166179147Y-72609946D01*
X165849974Y-72390000D01*
X166179147Y-72170054D01*
X166501054Y-71688285D01*
X166614093Y-71120000D01*
X166501054Y-70551715D01*
X166179147Y-70069946D01*
X166137548Y-70042150D01*
X166185317Y-70033162D01*
X166401441Y-69894090D01*
X166546431Y-69681890D01*
X166597440Y-69430000D01*
X166597440Y-67730000D01*
X166553162Y-67494683D01*
X166414090Y-67278559D01*
X166201890Y-67133569D01*
X166134459Y-67119914D01*
X166179147Y-67090054D01*
X166501054Y-66608285D01*
X166614093Y-66040000D01*
X166501054Y-65471715D01*
X166179147Y-64989946D01*
X165849974Y-64770000D01*
X166179147Y-64550054D01*
X166501054Y-64068285D01*
X166614093Y-63500000D01*
X166501054Y-62931715D01*
X166179147Y-62449946D01*
X165849974Y-62230000D01*
X166179147Y-62010054D01*
X166501054Y-61528285D01*
X166614093Y-60960000D01*
X166501054Y-60391715D01*
X166179147Y-59909946D01*
X166137548Y-59882150D01*
X166185317Y-59873162D01*
X166401441Y-59734090D01*
X166546431Y-59521890D01*
X166597440Y-59270000D01*
X166597440Y-57570000D01*
X166553162Y-57334683D01*
X166414090Y-57118559D01*
X166201890Y-56973569D01*
X165950000Y-56922560D01*
X164250000Y-56922560D01*
X164014683Y-56966838D01*
X163798559Y-57105910D01*
X163653569Y-57318110D01*
X163602560Y-57570000D01*
X163602560Y-59270000D01*
X163646838Y-59505317D01*
X163785910Y-59721441D01*
X163998110Y-59866431D01*
X164065541Y-59880086D01*
X164020853Y-59909946D01*
X163698946Y-60391715D01*
X163585907Y-60960000D01*
X163658790Y-61326408D01*
X162880198Y-62105000D01*
X155575000Y-62105000D01*
X155284161Y-62162852D01*
X155037599Y-62327599D01*
X154402599Y-62962599D01*
X154237852Y-63209161D01*
X154180000Y-63500000D01*
X154180000Y-63662560D01*
X154090000Y-63662560D01*
X153854683Y-63706838D01*
X153638559Y-63845910D01*
X153493569Y-64058110D01*
X153442560Y-64310000D01*
X153442560Y-66310000D01*
X153486838Y-66545317D01*
X153625910Y-66761441D01*
X153838110Y-66906431D01*
X154090000Y-66957440D01*
X155790000Y-66957440D01*
X156025317Y-66913162D01*
X156241441Y-66774090D01*
X156386431Y-66561890D01*
X156437440Y-66310000D01*
X156437440Y-64310000D01*
X156393162Y-64074683D01*
X156254090Y-63858559D01*
X156041890Y-63713569D01*
X155841760Y-63673042D01*
X155889802Y-63625000D01*
X158194290Y-63625000D01*
X158169194Y-63662560D01*
X157900000Y-63662560D01*
X157664683Y-63706838D01*
X157448559Y-63845910D01*
X157303569Y-64058110D01*
X157252560Y-64310000D01*
X157252560Y-66310000D01*
X157296838Y-66545317D01*
X157435910Y-66761441D01*
X157648110Y-66906431D01*
X157900000Y-66957440D01*
X159600000Y-66957440D01*
X159835317Y-66913162D01*
X160051441Y-66774090D01*
X160196431Y-66561890D01*
X160247440Y-66310000D01*
X160247440Y-64310000D01*
X160238032Y-64260000D01*
X163827046Y-64260000D01*
X164020853Y-64550054D01*
X164350026Y-64770000D01*
X164020853Y-64989946D01*
X163698946Y-65471715D01*
X163585907Y-66040000D01*
X163698946Y-66608285D01*
X164020853Y-67090054D01*
X164062452Y-67117850D01*
X164014683Y-67126838D01*
X163798559Y-67265910D01*
X163653569Y-67478110D01*
X163602560Y-67730000D01*
X163602560Y-67820000D01*
X160007657Y-67820000D01*
X159851890Y-67713569D01*
X159600000Y-67662560D01*
X157900000Y-67662560D01*
X157664683Y-67706838D01*
X157448559Y-67845910D01*
X157303569Y-68058110D01*
X157252560Y-68310000D01*
X157252560Y-68455000D01*
X156437440Y-68455000D01*
X156437440Y-68310000D01*
X156393162Y-68074683D01*
X156254090Y-67858559D01*
X156041890Y-67713569D01*
X155790000Y-67662560D01*
X154090000Y-67662560D01*
X153854683Y-67706838D01*
X153638559Y-67845910D01*
X153493569Y-68058110D01*
X153442560Y-68310000D01*
X153442560Y-70310000D01*
X153486838Y-70545317D01*
X153625910Y-70761441D01*
X153838110Y-70906431D01*
X154090000Y-70957440D01*
X154180000Y-70957440D01*
X154180000Y-71440198D01*
X150180198Y-75440000D01*
X136650000Y-75440000D01*
X136650000Y-71405750D01*
X138215000Y-71405750D01*
X138215000Y-72096309D01*
X138311673Y-72329698D01*
X138490301Y-72508327D01*
X138723690Y-72605000D01*
X139414250Y-72605000D01*
X139573000Y-72446250D01*
X139573000Y-71247000D01*
X138373750Y-71247000D01*
X138215000Y-71405750D01*
X136650000Y-71405750D01*
X136650000Y-62230000D01*
X136592148Y-61939161D01*
X136427401Y-61692599D01*
X123259185Y-48524383D01*
X130744769Y-48524383D01*
X130947582Y-49015229D01*
X131322796Y-49391098D01*
X131657527Y-49530091D01*
X131324771Y-49667582D01*
X130948902Y-50042796D01*
X130745232Y-50533287D01*
X130744769Y-51064383D01*
X130947582Y-51555229D01*
X131322796Y-51931098D01*
X131813287Y-52134768D01*
X132344383Y-52135231D01*
X132835229Y-51932418D01*
X133211098Y-51557204D01*
X133350091Y-51222473D01*
X133487582Y-51555229D01*
X133860000Y-51928297D01*
X133860000Y-53340000D01*
X133917852Y-53630839D01*
X134082599Y-53877401D01*
X136622599Y-56417401D01*
X136869160Y-56582148D01*
X136917414Y-56591746D01*
X137160000Y-56640000D01*
X138592666Y-56640000D01*
X138606838Y-56715317D01*
X138745910Y-56931441D01*
X138958110Y-57076431D01*
X139210000Y-57127440D01*
X142210000Y-57127440D01*
X142445317Y-57083162D01*
X142661441Y-56944090D01*
X142743780Y-56823582D01*
X144020000Y-58099802D01*
X144020000Y-65725198D01*
X142606408Y-67138790D01*
X142240000Y-67065907D01*
X141671715Y-67178946D01*
X141470000Y-67313727D01*
X141470000Y-59667440D01*
X142210000Y-59667440D01*
X142445317Y-59623162D01*
X142661441Y-59484090D01*
X142806431Y-59271890D01*
X142857440Y-59020000D01*
X142857440Y-57820000D01*
X142813162Y-57584683D01*
X142674090Y-57368559D01*
X142461890Y-57223569D01*
X142210000Y-57172560D01*
X139210000Y-57172560D01*
X138974683Y-57216838D01*
X138758559Y-57355910D01*
X138613569Y-57568110D01*
X138562560Y-57820000D01*
X138562560Y-59020000D01*
X138606838Y-59255317D01*
X138745910Y-59471441D01*
X138958110Y-59616431D01*
X139210000Y-59667440D01*
X139950000Y-59667440D01*
X139950000Y-67115635D01*
X139700000Y-67065907D01*
X139131715Y-67178946D01*
X138649946Y-67500853D01*
X138328039Y-67982622D01*
X138215000Y-68550907D01*
X138215000Y-68609093D01*
X138328039Y-69177378D01*
X138649946Y-69659147D01*
X138655858Y-69663097D01*
X138490301Y-69731673D01*
X138311673Y-69910302D01*
X138215000Y-70143691D01*
X138215000Y-70834250D01*
X138373750Y-70993000D01*
X139573000Y-70993000D01*
X139573000Y-70973000D01*
X139827000Y-70973000D01*
X139827000Y-70993000D01*
X139847000Y-70993000D01*
X139847000Y-71247000D01*
X139827000Y-71247000D01*
X139827000Y-72446250D01*
X139985750Y-72605000D01*
X140676310Y-72605000D01*
X140909699Y-72508327D01*
X141088327Y-72329698D01*
X141160597Y-72155223D01*
X141189946Y-72199147D01*
X141671715Y-72521054D01*
X142240000Y-72634093D01*
X142808285Y-72521054D01*
X143290054Y-72199147D01*
X143510000Y-71869974D01*
X143729946Y-72199147D01*
X144211715Y-72521054D01*
X144780000Y-72634093D01*
X145146408Y-72561210D01*
X146147599Y-73562401D01*
X146394161Y-73727148D01*
X146685000Y-73785000D01*
X148590000Y-73785000D01*
X148880839Y-73727148D01*
X149127401Y-73562401D01*
X152937401Y-69752401D01*
X153102148Y-69505839D01*
X153160000Y-69215000D01*
X153160000Y-59369802D01*
X153824052Y-58705750D01*
X155375000Y-58705750D01*
X155375000Y-59146310D01*
X155471673Y-59379699D01*
X155650302Y-59558327D01*
X155883691Y-59655000D01*
X157224250Y-59655000D01*
X157383000Y-59496250D01*
X157383000Y-58547000D01*
X157637000Y-58547000D01*
X157637000Y-59496250D01*
X157795750Y-59655000D01*
X159136309Y-59655000D01*
X159369698Y-59558327D01*
X159548327Y-59379699D01*
X159645000Y-59146310D01*
X159645000Y-58705750D01*
X159486250Y-58547000D01*
X157637000Y-58547000D01*
X157383000Y-58547000D01*
X155533750Y-58547000D01*
X155375000Y-58705750D01*
X153824052Y-58705750D01*
X154619802Y-57910000D01*
X155375000Y-57910000D01*
X155375000Y-58134250D01*
X155533750Y-58293000D01*
X157383000Y-58293000D01*
X157383000Y-58273000D01*
X157637000Y-58273000D01*
X157637000Y-58293000D01*
X159486250Y-58293000D01*
X159645000Y-58134250D01*
X159645000Y-57858282D01*
X159675839Y-57852148D01*
X159922401Y-57687401D01*
X160557401Y-57052401D01*
X160722148Y-56805839D01*
X160780000Y-56515000D01*
X160780000Y-53975000D01*
X160722148Y-53684161D01*
X160557401Y-53437599D01*
X159922401Y-52802599D01*
X159675839Y-52637852D01*
X159636757Y-52630078D01*
X159613162Y-52504683D01*
X159474090Y-52288559D01*
X159261890Y-52143569D01*
X159010000Y-52092560D01*
X156010000Y-52092560D01*
X155774683Y-52136838D01*
X155558559Y-52275910D01*
X155413569Y-52488110D01*
X155362560Y-52740000D01*
X155362560Y-53940000D01*
X155406838Y-54175317D01*
X155545910Y-54391441D01*
X155758110Y-54536431D01*
X156010000Y-54587440D01*
X159010000Y-54587440D01*
X159245317Y-54543162D01*
X159260000Y-54533714D01*
X159260000Y-54683186D01*
X159010000Y-54632560D01*
X156010000Y-54632560D01*
X155774683Y-54676838D01*
X155558559Y-54815910D01*
X155413569Y-55028110D01*
X155394961Y-55120000D01*
X153035000Y-55120000D01*
X152744161Y-55177852D01*
X152497599Y-55342599D01*
X150592599Y-57247599D01*
X150427852Y-57494161D01*
X150370000Y-57785000D01*
X150370000Y-67630198D01*
X148910198Y-69090000D01*
X148709342Y-69090000D01*
X148805000Y-68609093D01*
X148805000Y-68550907D01*
X148691961Y-67982622D01*
X148370054Y-67500853D01*
X148080000Y-67307046D01*
X148080000Y-53975000D01*
X148022148Y-53684161D01*
X147857401Y-53437599D01*
X144682401Y-50262599D01*
X144435839Y-50097852D01*
X144145000Y-50040000D01*
X142827334Y-50040000D01*
X142813162Y-49964683D01*
X142674090Y-49748559D01*
X142461890Y-49603569D01*
X142210000Y-49552560D01*
X139210000Y-49552560D01*
X138974683Y-49596838D01*
X138758559Y-49735910D01*
X138613569Y-49948110D01*
X138562560Y-50200000D01*
X138562560Y-51400000D01*
X138606838Y-51635317D01*
X138745910Y-51851441D01*
X138958110Y-51996431D01*
X139210000Y-52047440D01*
X142210000Y-52047440D01*
X142445317Y-52003162D01*
X142661441Y-51864090D01*
X142806431Y-51651890D01*
X142825039Y-51560000D01*
X143830198Y-51560000D01*
X146560000Y-54289802D01*
X146560000Y-55315198D01*
X144047401Y-52802599D01*
X143800839Y-52637852D01*
X143510000Y-52580000D01*
X142827334Y-52580000D01*
X142813162Y-52504683D01*
X142674090Y-52288559D01*
X142461890Y-52143569D01*
X142210000Y-52092560D01*
X139210000Y-52092560D01*
X138974683Y-52136838D01*
X138758559Y-52275910D01*
X138613569Y-52488110D01*
X138562560Y-52740000D01*
X138562560Y-53940000D01*
X138606838Y-54175317D01*
X138745910Y-54391441D01*
X138958110Y-54536431D01*
X139210000Y-54587440D01*
X142210000Y-54587440D01*
X142445317Y-54543162D01*
X142661441Y-54404090D01*
X142806431Y-54191890D01*
X142825039Y-54100000D01*
X143195198Y-54100000D01*
X145290000Y-56194802D01*
X145290000Y-57220198D01*
X143412401Y-55342599D01*
X143165839Y-55177852D01*
X142875000Y-55120000D01*
X142827334Y-55120000D01*
X142813162Y-55044683D01*
X142674090Y-54828559D01*
X142461890Y-54683569D01*
X142210000Y-54632560D01*
X139210000Y-54632560D01*
X138974683Y-54676838D01*
X138758559Y-54815910D01*
X138613569Y-55028110D01*
X138594961Y-55120000D01*
X137474802Y-55120000D01*
X135380000Y-53025198D01*
X135380000Y-51927655D01*
X135751098Y-51557204D01*
X135954768Y-51066713D01*
X135955231Y-50535617D01*
X135752418Y-50044771D01*
X135377204Y-49668902D01*
X135042473Y-49529909D01*
X135375229Y-49392418D01*
X135748297Y-49020000D01*
X152472537Y-49020000D01*
X152504673Y-49052192D01*
X152848201Y-49194838D01*
X153220167Y-49195162D01*
X153563943Y-49053117D01*
X153597118Y-49020000D01*
X154655198Y-49020000D01*
X155482469Y-49847271D01*
X155413569Y-49948110D01*
X155362560Y-50200000D01*
X155362560Y-51400000D01*
X155406838Y-51635317D01*
X155545910Y-51851441D01*
X155758110Y-51996431D01*
X156010000Y-52047440D01*
X159010000Y-52047440D01*
X159245317Y-52003162D01*
X159461441Y-51864090D01*
X159606431Y-51651890D01*
X159657440Y-51400000D01*
X159657440Y-50200000D01*
X159613162Y-49964683D01*
X159474090Y-49748559D01*
X159261890Y-49603569D01*
X159010000Y-49552560D01*
X157337362Y-49552560D01*
X156804284Y-49019482D01*
X161264336Y-49019482D01*
X161846950Y-50429515D01*
X162924811Y-51509259D01*
X164333825Y-52094333D01*
X165859482Y-52095664D01*
X167269515Y-51513050D01*
X168349259Y-50435189D01*
X168934333Y-49026175D01*
X168935664Y-47500518D01*
X168353050Y-46090485D01*
X167275189Y-45010741D01*
X165866175Y-44425667D01*
X164340518Y-44424336D01*
X162930485Y-45006950D01*
X161850741Y-46084811D01*
X161265667Y-47493825D01*
X161264336Y-49019482D01*
X156804284Y-49019482D01*
X155507401Y-47722599D01*
X155260839Y-47557852D01*
X154970000Y-47500000D01*
X153597463Y-47500000D01*
X153565327Y-47467808D01*
X153221799Y-47325162D01*
X152849833Y-47324838D01*
X152506057Y-47466883D01*
X152472882Y-47500000D01*
X135747655Y-47500000D01*
X135377204Y-47128902D01*
X134886713Y-46925232D01*
X134355617Y-46924769D01*
X133864771Y-47127582D01*
X133488902Y-47502796D01*
X133349909Y-47837527D01*
X133212418Y-47504771D01*
X132837204Y-47128902D01*
X132346713Y-46925232D01*
X131815617Y-46924769D01*
X131324771Y-47127582D01*
X130948902Y-47502796D01*
X130745232Y-47993287D01*
X130744769Y-48524383D01*
X123259185Y-48524383D01*
X121187401Y-46452599D01*
X120940839Y-46287852D01*
X120650000Y-46230000D01*
X102870000Y-46230000D01*
X102579160Y-46287852D01*
X102332599Y-46452599D01*
X101966408Y-46818790D01*
X101600000Y-46745907D01*
X101031715Y-46858946D01*
X100549946Y-47180853D01*
X100330000Y-47510026D01*
X100110054Y-47180853D01*
X99628285Y-46858946D01*
X99060000Y-46745907D01*
X98491715Y-46858946D01*
X98009946Y-47180853D01*
X97790000Y-47510026D01*
X97570054Y-47180853D01*
X97088285Y-46858946D01*
X96520000Y-46745907D01*
X95951715Y-46858946D01*
X95469946Y-47180853D01*
X95242298Y-47521553D01*
X95175183Y-47378642D01*
X94746924Y-46988355D01*
X94336890Y-46818524D01*
X94107000Y-46939845D01*
X94107000Y-48133000D01*
X94127000Y-48133000D01*
X94127000Y-48387000D01*
X94107000Y-48387000D01*
X94107000Y-49580155D01*
X94336890Y-49701476D01*
X94746924Y-49531645D01*
X95175183Y-49141358D01*
X95242298Y-48998447D01*
X95469946Y-49339147D01*
X95760000Y-49532954D01*
X95760000Y-50165000D01*
X95817852Y-50455839D01*
X95982599Y-50702401D01*
X100400198Y-55120000D01*
X81280000Y-55120000D01*
X80989161Y-55177852D01*
X80742599Y-55342599D01*
X77697440Y-58387758D01*
X77697440Y-57570000D01*
X77653162Y-57334683D01*
X77514090Y-57118559D01*
X77301890Y-56973569D01*
X77050000Y-56922560D01*
X75350000Y-56922560D01*
X75114683Y-56966838D01*
X74898559Y-57105910D01*
X74753569Y-57318110D01*
X74702560Y-57570000D01*
X74702560Y-59270000D01*
X74746838Y-59505317D01*
X74885910Y-59721441D01*
X75098110Y-59866431D01*
X75165541Y-59880086D01*
X75120853Y-59909946D01*
X74798946Y-60391715D01*
X74685907Y-60960000D01*
X74798946Y-61528285D01*
X75120853Y-62010054D01*
X75602622Y-62331961D01*
X76170907Y-62445000D01*
X76229093Y-62445000D01*
X76797378Y-62331961D01*
X77279147Y-62010054D01*
X77601054Y-61528285D01*
X77714093Y-60960000D01*
X77641210Y-60593592D01*
X81594802Y-56640000D01*
X95955198Y-56640000D01*
X95347599Y-57247599D01*
X95182852Y-57494161D01*
X95125000Y-57785000D01*
X95125000Y-66480000D01*
X92355000Y-66480000D01*
X92355000Y-66325750D01*
X92196250Y-66167000D01*
X91247000Y-66167000D01*
X91247000Y-66187000D01*
X90993000Y-66187000D01*
X90993000Y-66167000D01*
X90973000Y-66167000D01*
X90973000Y-65913000D01*
X90993000Y-65913000D01*
X90993000Y-65188750D01*
X91247000Y-65188750D01*
X91247000Y-65913000D01*
X92196250Y-65913000D01*
X92355000Y-65754250D01*
X92355000Y-65538690D01*
X92258327Y-65305301D01*
X92079698Y-65126673D01*
X91846309Y-65030000D01*
X91405750Y-65030000D01*
X91247000Y-65188750D01*
X90993000Y-65188750D01*
X90834250Y-65030000D01*
X90393691Y-65030000D01*
X90160302Y-65126673D01*
X90158932Y-65128043D01*
X90071890Y-65068569D01*
X89980000Y-65049961D01*
X89980000Y-62334409D01*
X90151441Y-62224090D01*
X90296431Y-62011890D01*
X90305370Y-61967745D01*
X90571861Y-61967745D01*
X90645995Y-62213864D01*
X91183223Y-62406965D01*
X91753454Y-62379778D01*
X92154005Y-62213864D01*
X92228139Y-61967745D01*
X91400000Y-61139605D01*
X90571861Y-61967745D01*
X90305370Y-61967745D01*
X90344646Y-61773799D01*
X90392255Y-61788139D01*
X91220395Y-60960000D01*
X91579605Y-60960000D01*
X92407745Y-61788139D01*
X92653864Y-61714005D01*
X92846965Y-61176777D01*
X92819778Y-60606546D01*
X92653864Y-60205995D01*
X92407745Y-60131861D01*
X91579605Y-60960000D01*
X91220395Y-60960000D01*
X90392255Y-60131861D01*
X90344833Y-60146145D01*
X90308351Y-59952255D01*
X90571861Y-59952255D01*
X91400000Y-60780395D01*
X92228139Y-59952255D01*
X92154005Y-59706136D01*
X91616777Y-59513035D01*
X91046546Y-59540222D01*
X90645995Y-59706136D01*
X90571861Y-59952255D01*
X90308351Y-59952255D01*
X90303162Y-59924683D01*
X90164090Y-59708559D01*
X89951890Y-59563569D01*
X89700000Y-59512560D01*
X88100000Y-59512560D01*
X87864683Y-59556838D01*
X87648559Y-59695910D01*
X87503569Y-59908110D01*
X87452560Y-60160000D01*
X87452560Y-61760000D01*
X87496838Y-61995317D01*
X87635910Y-62211441D01*
X87848110Y-62356431D01*
X88100000Y-62407440D01*
X88460000Y-62407440D01*
X88460000Y-65047666D01*
X88384683Y-65061838D01*
X88168559Y-65200910D01*
X88023569Y-65413110D01*
X87972560Y-65665000D01*
X87972560Y-66415000D01*
X88016838Y-66650317D01*
X88155910Y-66866441D01*
X88298399Y-66963799D01*
X84902198Y-70360000D01*
X80012954Y-70360000D01*
X79819147Y-70069946D01*
X79337378Y-69748039D01*
X78769093Y-69635000D01*
X78710907Y-69635000D01*
X78142622Y-69748039D01*
X77660853Y-70069946D01*
X77660029Y-70071179D01*
X77653162Y-70034683D01*
X77514090Y-69818559D01*
X77301890Y-69673569D01*
X77050000Y-69622560D01*
X75350000Y-69622560D01*
X75114683Y-69666838D01*
X74898559Y-69805910D01*
X74753569Y-70018110D01*
X74702560Y-70270000D01*
X74702560Y-71970000D01*
X74746838Y-72205317D01*
X74885910Y-72421441D01*
X75098110Y-72566431D01*
X75165541Y-72580086D01*
X75120853Y-72609946D01*
X74798946Y-73091715D01*
X74685907Y-73660000D01*
X74758790Y-74026408D01*
X74392599Y-74392599D01*
X74227852Y-74639161D01*
X74170000Y-74930000D01*
X71830000Y-74930000D01*
X71830000Y-49019482D01*
X72364336Y-49019482D01*
X72946950Y-50429515D01*
X74024811Y-51509259D01*
X75433825Y-52094333D01*
X76959482Y-52095664D01*
X78369515Y-51513050D01*
X79449259Y-50435189D01*
X80034333Y-49026175D01*
X80034690Y-48616892D01*
X89998514Y-48616892D01*
X90244817Y-49141358D01*
X90673076Y-49531645D01*
X91083110Y-49701476D01*
X91313000Y-49580155D01*
X91313000Y-48387000D01*
X91567000Y-48387000D01*
X91567000Y-49580155D01*
X91796890Y-49701476D01*
X92206924Y-49531645D01*
X92635183Y-49141358D01*
X92710000Y-48982046D01*
X92784817Y-49141358D01*
X93213076Y-49531645D01*
X93623110Y-49701476D01*
X93853000Y-49580155D01*
X93853000Y-48387000D01*
X91567000Y-48387000D01*
X91313000Y-48387000D01*
X90119181Y-48387000D01*
X89998514Y-48616892D01*
X80034690Y-48616892D01*
X80035312Y-47903108D01*
X89998514Y-47903108D01*
X90119181Y-48133000D01*
X91313000Y-48133000D01*
X91313000Y-46939845D01*
X91567000Y-46939845D01*
X91567000Y-48133000D01*
X93853000Y-48133000D01*
X93853000Y-46939845D01*
X93623110Y-46818524D01*
X93213076Y-46988355D01*
X92784817Y-47378642D01*
X92710000Y-47537954D01*
X92635183Y-47378642D01*
X92206924Y-46988355D01*
X91796890Y-46818524D01*
X91567000Y-46939845D01*
X91313000Y-46939845D01*
X91083110Y-46818524D01*
X90673076Y-46988355D01*
X90244817Y-47378642D01*
X89998514Y-47903108D01*
X80035312Y-47903108D01*
X80035664Y-47500518D01*
X79453050Y-46090485D01*
X78375189Y-45010741D01*
X76966175Y-44425667D01*
X75440518Y-44424336D01*
X74030485Y-45006950D01*
X72950741Y-46084811D01*
X72365667Y-47493825D01*
X72364336Y-49019482D01*
X71830000Y-49019482D01*
X71830000Y-43890000D01*
X169470000Y-43890000D01*
X169470000Y-112320000D01*
G36*
X131640000Y-88140000D02*
X131340123Y-88140000D01*
X131342931Y-88135890D01*
X131393940Y-87884000D01*
X131393940Y-87376000D01*
X131349662Y-87140683D01*
X131255334Y-86994093D01*
X131342931Y-86865890D01*
X131393940Y-86614000D01*
X131393940Y-86106000D01*
X131349662Y-85870683D01*
X131258896Y-85729629D01*
X131284827Y-85703698D01*
X131381500Y-85470309D01*
X131381500Y-85375750D01*
X131222750Y-85217000D01*
X130302000Y-85217000D01*
X130302000Y-85237000D01*
X130048000Y-85237000D01*
X130048000Y-85217000D01*
X129127250Y-85217000D01*
X128968500Y-85375750D01*
X128968500Y-85470309D01*
X129022220Y-85600000D01*
X121599802Y-85600000D01*
X120579802Y-84580000D01*
X129022220Y-84580000D01*
X128968500Y-84709691D01*
X128968500Y-84804250D01*
X129127250Y-84963000D01*
X130048000Y-84963000D01*
X130048000Y-84943000D01*
X130302000Y-84943000D01*
X130302000Y-84963000D01*
X131222750Y-84963000D01*
X131381500Y-84804250D01*
X131381500Y-84709691D01*
X131284827Y-84476302D01*
X131258291Y-84449765D01*
X131342931Y-84325890D01*
X131393940Y-84074000D01*
X131393940Y-83566000D01*
X131349662Y-83330683D01*
X131255334Y-83184093D01*
X131342931Y-83055890D01*
X131393940Y-82804000D01*
X131393940Y-82296000D01*
X131349662Y-82060683D01*
X131336353Y-82040000D01*
X131640000Y-82040000D01*
X131640000Y-88140000D01*
X131640000Y-88140000D01*
G37*
X131640000Y-88140000D02*
X131340123Y-88140000D01*
X131342931Y-88135890D01*
X131393940Y-87884000D01*
X131393940Y-87376000D01*
X131349662Y-87140683D01*
X131255334Y-86994093D01*
X131342931Y-86865890D01*
X131393940Y-86614000D01*
X131393940Y-86106000D01*
X131349662Y-85870683D01*
X131258896Y-85729629D01*
X131284827Y-85703698D01*
X131381500Y-85470309D01*
X131381500Y-85375750D01*
X131222750Y-85217000D01*
X130302000Y-85217000D01*
X130302000Y-85237000D01*
X130048000Y-85237000D01*
X130048000Y-85217000D01*
X129127250Y-85217000D01*
X128968500Y-85375750D01*
X128968500Y-85470309D01*
X129022220Y-85600000D01*
X121599802Y-85600000D01*
X120579802Y-84580000D01*
X129022220Y-84580000D01*
X128968500Y-84709691D01*
X128968500Y-84804250D01*
X129127250Y-84963000D01*
X130048000Y-84963000D01*
X130048000Y-84943000D01*
X130302000Y-84943000D01*
X130302000Y-84963000D01*
X131222750Y-84963000D01*
X131381500Y-84804250D01*
X131381500Y-84709691D01*
X131284827Y-84476302D01*
X131258291Y-84449765D01*
X131342931Y-84325890D01*
X131393940Y-84074000D01*
X131393940Y-83566000D01*
X131349662Y-83330683D01*
X131255334Y-83184093D01*
X131342931Y-83055890D01*
X131393940Y-82804000D01*
X131393940Y-82296000D01*
X131349662Y-82060683D01*
X131336353Y-82040000D01*
X131640000Y-82040000D01*
X131640000Y-88140000D01*
G36*
X135130000Y-62544802D02*
X135130000Y-75885198D01*
X131862599Y-79152599D01*
X131697852Y-79399161D01*
X131640000Y-79690000D01*
X131640000Y-80520000D01*
X131340123Y-80520000D01*
X131342931Y-80515890D01*
X131393940Y-80264000D01*
X131393940Y-79756000D01*
X131349662Y-79520683D01*
X131210590Y-79304559D01*
X130998390Y-79159569D01*
X130746500Y-79108560D01*
X129603500Y-79108560D01*
X129368183Y-79152838D01*
X129152059Y-79291910D01*
X129007069Y-79504110D01*
X128956060Y-79756000D01*
X128956060Y-80264000D01*
X129000338Y-80499317D01*
X129094666Y-80645907D01*
X129007069Y-80774110D01*
X128956060Y-81026000D01*
X128956060Y-81534000D01*
X129000338Y-81769317D01*
X129013647Y-81790000D01*
X120329802Y-81790000D01*
X114425000Y-75885198D01*
X114425000Y-72675750D01*
X119395000Y-72675750D01*
X119395000Y-72816310D01*
X119491673Y-73049699D01*
X119670302Y-73228327D01*
X119903691Y-73325000D01*
X120744250Y-73325000D01*
X120903000Y-73166250D01*
X120903000Y-72517000D01*
X121157000Y-72517000D01*
X121157000Y-73166250D01*
X121315750Y-73325000D01*
X122156309Y-73325000D01*
X122389698Y-73228327D01*
X122568327Y-73049699D01*
X122665000Y-72816310D01*
X122665000Y-72675750D01*
X122506250Y-72517000D01*
X121157000Y-72517000D01*
X120903000Y-72517000D01*
X119553750Y-72517000D01*
X119395000Y-72675750D01*
X114425000Y-72675750D01*
X114425000Y-65325710D01*
X114644160Y-65472148D01*
X114935000Y-65530000D01*
X119425086Y-65530000D01*
X119382560Y-65740000D01*
X119382560Y-66340000D01*
X119426838Y-66575317D01*
X119490678Y-66674528D01*
X119433569Y-66758110D01*
X119382560Y-67010000D01*
X119382560Y-67610000D01*
X119426838Y-67845317D01*
X119490678Y-67944528D01*
X119433569Y-68028110D01*
X119382560Y-68280000D01*
X119382560Y-68880000D01*
X119426838Y-69115317D01*
X119490678Y-69214528D01*
X119433569Y-69298110D01*
X119382560Y-69550000D01*
X119382560Y-70150000D01*
X119426838Y-70385317D01*
X119490678Y-70484528D01*
X119433569Y-70568110D01*
X119382560Y-70820000D01*
X119382560Y-71420000D01*
X119426838Y-71655317D01*
X119485178Y-71745980D01*
X119395000Y-71963690D01*
X119395000Y-72104250D01*
X119553750Y-72263000D01*
X120903000Y-72263000D01*
X120903000Y-72243000D01*
X121157000Y-72243000D01*
X121157000Y-72263000D01*
X122506250Y-72263000D01*
X122665000Y-72104250D01*
X122665000Y-71963690D01*
X122575194Y-71746878D01*
X122626431Y-71671890D01*
X122677440Y-71420000D01*
X122677440Y-70820000D01*
X122633162Y-70584683D01*
X122569322Y-70485472D01*
X122626431Y-70401890D01*
X122677440Y-70150000D01*
X122677440Y-69550000D01*
X122633162Y-69314683D01*
X122569322Y-69215472D01*
X122626431Y-69131890D01*
X122677440Y-68880000D01*
X122677440Y-68280000D01*
X122633162Y-68044683D01*
X122569322Y-67945472D01*
X122626431Y-67861890D01*
X122677440Y-67610000D01*
X122677440Y-67010000D01*
X122633162Y-66774683D01*
X122569322Y-66675472D01*
X122626431Y-66591890D01*
X122677440Y-66340000D01*
X122677440Y-65740000D01*
X122633162Y-65504683D01*
X122569322Y-65405472D01*
X122626431Y-65321890D01*
X122677440Y-65070000D01*
X122677440Y-64470000D01*
X122633162Y-64234683D01*
X122569322Y-64135472D01*
X122626431Y-64051890D01*
X122677440Y-63800000D01*
X122677440Y-63200000D01*
X122633162Y-62964683D01*
X122569322Y-62865472D01*
X122626431Y-62781890D01*
X122677440Y-62530000D01*
X122677440Y-61930000D01*
X122633162Y-61694683D01*
X122494090Y-61478559D01*
X122281890Y-61333569D01*
X122030000Y-61282560D01*
X120030000Y-61282560D01*
X119794683Y-61326838D01*
X119578559Y-61465910D01*
X119575764Y-61470000D01*
X115249802Y-61470000D01*
X111662401Y-57882599D01*
X111415839Y-57717852D01*
X111125000Y-57660000D01*
X100330000Y-57660000D01*
X100039160Y-57717852D01*
X99792599Y-57882599D01*
X98082599Y-59592599D01*
X97917852Y-59839161D01*
X97860000Y-60130000D01*
X97860000Y-62317560D01*
X97820000Y-62317560D01*
X97584683Y-62361838D01*
X97368559Y-62500910D01*
X97223569Y-62713110D01*
X97172560Y-62965000D01*
X97172560Y-63515000D01*
X97196944Y-63644589D01*
X97172560Y-63765000D01*
X97172560Y-64315000D01*
X97192450Y-64420705D01*
X97185000Y-64438690D01*
X97185000Y-64554250D01*
X97281401Y-64650651D01*
X97355910Y-64766441D01*
X97463397Y-64839884D01*
X97401054Y-64880000D01*
X96645000Y-64880000D01*
X96645000Y-58099802D01*
X97040680Y-57704122D01*
X97086167Y-57704162D01*
X97429943Y-57562117D01*
X97693192Y-57299327D01*
X97835838Y-56955799D01*
X97836113Y-56640000D01*
X119700198Y-56640000D01*
X128367599Y-65307401D01*
X128614161Y-65472148D01*
X128828180Y-65514720D01*
X128782560Y-65740000D01*
X128782560Y-66340000D01*
X128826838Y-66575317D01*
X128890678Y-66674528D01*
X128833569Y-66758110D01*
X128782560Y-67010000D01*
X128782560Y-67610000D01*
X128826838Y-67845317D01*
X128890678Y-67944528D01*
X128833569Y-68028110D01*
X128782560Y-68280000D01*
X128782560Y-68880000D01*
X128826838Y-69115317D01*
X128890678Y-69214528D01*
X128833569Y-69298110D01*
X128782560Y-69550000D01*
X128782560Y-70150000D01*
X128826838Y-70385317D01*
X128890678Y-70484528D01*
X128833569Y-70568110D01*
X128782560Y-70820000D01*
X128782560Y-71420000D01*
X128826838Y-71655317D01*
X128890678Y-71754528D01*
X128833569Y-71838110D01*
X128782560Y-72090000D01*
X128782560Y-72690000D01*
X128826838Y-72925317D01*
X128965910Y-73141441D01*
X129178110Y-73286431D01*
X129430000Y-73337440D01*
X131430000Y-73337440D01*
X131665317Y-73293162D01*
X131881441Y-73154090D01*
X132026431Y-72941890D01*
X132077440Y-72690000D01*
X132077440Y-72090000D01*
X132033162Y-71854683D01*
X131969322Y-71755472D01*
X132026431Y-71671890D01*
X132077440Y-71420000D01*
X132077440Y-70820000D01*
X132033162Y-70584683D01*
X131969322Y-70485472D01*
X132026431Y-70401890D01*
X132077440Y-70150000D01*
X132077440Y-69550000D01*
X132033162Y-69314683D01*
X131969322Y-69215472D01*
X132026431Y-69131890D01*
X132077440Y-68880000D01*
X132077440Y-68280000D01*
X132033162Y-68044683D01*
X131969322Y-67945472D01*
X132026431Y-67861890D01*
X132077440Y-67610000D01*
X132077440Y-67010000D01*
X132033162Y-66774683D01*
X131969322Y-66675472D01*
X132026431Y-66591890D01*
X132077440Y-66340000D01*
X132077440Y-65740000D01*
X132033162Y-65504683D01*
X131969322Y-65405472D01*
X132026431Y-65321890D01*
X132077440Y-65070000D01*
X132077440Y-64470000D01*
X132033162Y-64234683D01*
X131969322Y-64135472D01*
X132026431Y-64051890D01*
X132077440Y-63800000D01*
X132077440Y-63200000D01*
X132037926Y-62990000D01*
X132152537Y-62990000D01*
X132184673Y-63022192D01*
X132528201Y-63164838D01*
X132900167Y-63165162D01*
X133243943Y-63023117D01*
X133507192Y-62760327D01*
X133649838Y-62416799D01*
X133650162Y-62044833D01*
X133508117Y-61701057D01*
X133245327Y-61437808D01*
X132901799Y-61295162D01*
X132529833Y-61294838D01*
X132186057Y-61436883D01*
X132152882Y-61470000D01*
X131881563Y-61470000D01*
X131681890Y-61333569D01*
X131430000Y-61282560D01*
X129430000Y-61282560D01*
X129194683Y-61326838D01*
X128978559Y-61465910D01*
X128833569Y-61678110D01*
X128782560Y-61930000D01*
X128782560Y-62302758D01*
X121187401Y-54707599D01*
X120940839Y-54542852D01*
X120650000Y-54485000D01*
X101914802Y-54485000D01*
X97280000Y-49850198D01*
X97280000Y-49532954D01*
X97570054Y-49339147D01*
X97790000Y-49009974D01*
X98009946Y-49339147D01*
X98491715Y-49661054D01*
X99060000Y-49774093D01*
X99628285Y-49661054D01*
X100110054Y-49339147D01*
X100330000Y-49009974D01*
X100549946Y-49339147D01*
X101031715Y-49661054D01*
X101600000Y-49774093D01*
X102168285Y-49661054D01*
X102650054Y-49339147D01*
X102677850Y-49297548D01*
X102686838Y-49345317D01*
X102825910Y-49561441D01*
X103038110Y-49706431D01*
X103290000Y-49757440D01*
X104990000Y-49757440D01*
X105225317Y-49713162D01*
X105441441Y-49574090D01*
X105586431Y-49361890D01*
X105637440Y-49110000D01*
X105637440Y-47750000D01*
X120335198Y-47750000D01*
X135130000Y-62544802D01*
X135130000Y-62544802D01*
G37*
X135130000Y-62544802D02*
X135130000Y-75885198D01*
X131862599Y-79152599D01*
X131697852Y-79399161D01*
X131640000Y-79690000D01*
X131640000Y-80520000D01*
X131340123Y-80520000D01*
X131342931Y-80515890D01*
X131393940Y-80264000D01*
X131393940Y-79756000D01*
X131349662Y-79520683D01*
X131210590Y-79304559D01*
X130998390Y-79159569D01*
X130746500Y-79108560D01*
X129603500Y-79108560D01*
X129368183Y-79152838D01*
X129152059Y-79291910D01*
X129007069Y-79504110D01*
X128956060Y-79756000D01*
X128956060Y-80264000D01*
X129000338Y-80499317D01*
X129094666Y-80645907D01*
X129007069Y-80774110D01*
X128956060Y-81026000D01*
X128956060Y-81534000D01*
X129000338Y-81769317D01*
X129013647Y-81790000D01*
X120329802Y-81790000D01*
X114425000Y-75885198D01*
X114425000Y-72675750D01*
X119395000Y-72675750D01*
X119395000Y-72816310D01*
X119491673Y-73049699D01*
X119670302Y-73228327D01*
X119903691Y-73325000D01*
X120744250Y-73325000D01*
X120903000Y-73166250D01*
X120903000Y-72517000D01*
X121157000Y-72517000D01*
X121157000Y-73166250D01*
X121315750Y-73325000D01*
X122156309Y-73325000D01*
X122389698Y-73228327D01*
X122568327Y-73049699D01*
X122665000Y-72816310D01*
X122665000Y-72675750D01*
X122506250Y-72517000D01*
X121157000Y-72517000D01*
X120903000Y-72517000D01*
X119553750Y-72517000D01*
X119395000Y-72675750D01*
X114425000Y-72675750D01*
X114425000Y-65325710D01*
X114644160Y-65472148D01*
X114935000Y-65530000D01*
X119425086Y-65530000D01*
X119382560Y-65740000D01*
X119382560Y-66340000D01*
X119426838Y-66575317D01*
X119490678Y-66674528D01*
X119433569Y-66758110D01*
X119382560Y-67010000D01*
X119382560Y-67610000D01*
X119426838Y-67845317D01*
X119490678Y-67944528D01*
X119433569Y-68028110D01*
X119382560Y-68280000D01*
X119382560Y-68880000D01*
X119426838Y-69115317D01*
X119490678Y-69214528D01*
X119433569Y-69298110D01*
X119382560Y-69550000D01*
X119382560Y-70150000D01*
X119426838Y-70385317D01*
X119490678Y-70484528D01*
X119433569Y-70568110D01*
X119382560Y-70820000D01*
X119382560Y-71420000D01*
X119426838Y-71655317D01*
X119485178Y-71745980D01*
X119395000Y-71963690D01*
X119395000Y-72104250D01*
X119553750Y-72263000D01*
X120903000Y-72263000D01*
X120903000Y-72243000D01*
X121157000Y-72243000D01*
X121157000Y-72263000D01*
X122506250Y-72263000D01*
X122665000Y-72104250D01*
X122665000Y-71963690D01*
X122575194Y-71746878D01*
X122626431Y-71671890D01*
X122677440Y-71420000D01*
X122677440Y-70820000D01*
X122633162Y-70584683D01*
X122569322Y-70485472D01*
X122626431Y-70401890D01*
X122677440Y-70150000D01*
X122677440Y-69550000D01*
X122633162Y-69314683D01*
X122569322Y-69215472D01*
X122626431Y-69131890D01*
X122677440Y-68880000D01*
X122677440Y-68280000D01*
X122633162Y-68044683D01*
X122569322Y-67945472D01*
X122626431Y-67861890D01*
X122677440Y-67610000D01*
X122677440Y-67010000D01*
X122633162Y-66774683D01*
X122569322Y-66675472D01*
X122626431Y-66591890D01*
X122677440Y-66340000D01*
X122677440Y-65740000D01*
X122633162Y-65504683D01*
X122569322Y-65405472D01*
X122626431Y-65321890D01*
X122677440Y-65070000D01*
X122677440Y-64470000D01*
X122633162Y-64234683D01*
X122569322Y-64135472D01*
X122626431Y-64051890D01*
X122677440Y-63800000D01*
X122677440Y-63200000D01*
X122633162Y-62964683D01*
X122569322Y-62865472D01*
X122626431Y-62781890D01*
X122677440Y-62530000D01*
X122677440Y-61930000D01*
X122633162Y-61694683D01*
X122494090Y-61478559D01*
X122281890Y-61333569D01*
X122030000Y-61282560D01*
X120030000Y-61282560D01*
X119794683Y-61326838D01*
X119578559Y-61465910D01*
X119575764Y-61470000D01*
X115249802Y-61470000D01*
X111662401Y-57882599D01*
X111415839Y-57717852D01*
X111125000Y-57660000D01*
X100330000Y-57660000D01*
X100039160Y-57717852D01*
X99792599Y-57882599D01*
X98082599Y-59592599D01*
X97917852Y-59839161D01*
X97860000Y-60130000D01*
X97860000Y-62317560D01*
X97820000Y-62317560D01*
X97584683Y-62361838D01*
X97368559Y-62500910D01*
X97223569Y-62713110D01*
X97172560Y-62965000D01*
X97172560Y-63515000D01*
X97196944Y-63644589D01*
X97172560Y-63765000D01*
X97172560Y-64315000D01*
X97192450Y-64420705D01*
X97185000Y-64438690D01*
X97185000Y-64554250D01*
X97281401Y-64650651D01*
X97355910Y-64766441D01*
X97463397Y-64839884D01*
X97401054Y-64880000D01*
X96645000Y-64880000D01*
X96645000Y-58099802D01*
X97040680Y-57704122D01*
X97086167Y-57704162D01*
X97429943Y-57562117D01*
X97693192Y-57299327D01*
X97835838Y-56955799D01*
X97836113Y-56640000D01*
X119700198Y-56640000D01*
X128367599Y-65307401D01*
X128614161Y-65472148D01*
X128828180Y-65514720D01*
X128782560Y-65740000D01*
X128782560Y-66340000D01*
X128826838Y-66575317D01*
X128890678Y-66674528D01*
X128833569Y-66758110D01*
X128782560Y-67010000D01*
X128782560Y-67610000D01*
X128826838Y-67845317D01*
X128890678Y-67944528D01*
X128833569Y-68028110D01*
X128782560Y-68280000D01*
X128782560Y-68880000D01*
X128826838Y-69115317D01*
X128890678Y-69214528D01*
X128833569Y-69298110D01*
X128782560Y-69550000D01*
X128782560Y-70150000D01*
X128826838Y-70385317D01*
X128890678Y-70484528D01*
X128833569Y-70568110D01*
X128782560Y-70820000D01*
X128782560Y-71420000D01*
X128826838Y-71655317D01*
X128890678Y-71754528D01*
X128833569Y-71838110D01*
X128782560Y-72090000D01*
X128782560Y-72690000D01*
X128826838Y-72925317D01*
X128965910Y-73141441D01*
X129178110Y-73286431D01*
X129430000Y-73337440D01*
X131430000Y-73337440D01*
X131665317Y-73293162D01*
X131881441Y-73154090D01*
X132026431Y-72941890D01*
X132077440Y-72690000D01*
X132077440Y-72090000D01*
X132033162Y-71854683D01*
X131969322Y-71755472D01*
X132026431Y-71671890D01*
X132077440Y-71420000D01*
X132077440Y-70820000D01*
X132033162Y-70584683D01*
X131969322Y-70485472D01*
X132026431Y-70401890D01*
X132077440Y-70150000D01*
X132077440Y-69550000D01*
X132033162Y-69314683D01*
X131969322Y-69215472D01*
X132026431Y-69131890D01*
X132077440Y-68880000D01*
X132077440Y-68280000D01*
X132033162Y-68044683D01*
X131969322Y-67945472D01*
X132026431Y-67861890D01*
X132077440Y-67610000D01*
X132077440Y-67010000D01*
X132033162Y-66774683D01*
X131969322Y-66675472D01*
X132026431Y-66591890D01*
X132077440Y-66340000D01*
X132077440Y-65740000D01*
X132033162Y-65504683D01*
X131969322Y-65405472D01*
X132026431Y-65321890D01*
X132077440Y-65070000D01*
X132077440Y-64470000D01*
X132033162Y-64234683D01*
X131969322Y-64135472D01*
X132026431Y-64051890D01*
X132077440Y-63800000D01*
X132077440Y-63200000D01*
X132037926Y-62990000D01*
X132152537Y-62990000D01*
X132184673Y-63022192D01*
X132528201Y-63164838D01*
X132900167Y-63165162D01*
X133243943Y-63023117D01*
X133507192Y-62760327D01*
X133649838Y-62416799D01*
X133650162Y-62044833D01*
X133508117Y-61701057D01*
X133245327Y-61437808D01*
X132901799Y-61295162D01*
X132529833Y-61294838D01*
X132186057Y-61436883D01*
X132152882Y-61470000D01*
X131881563Y-61470000D01*
X131681890Y-61333569D01*
X131430000Y-61282560D01*
X129430000Y-61282560D01*
X129194683Y-61326838D01*
X128978559Y-61465910D01*
X128833569Y-61678110D01*
X128782560Y-61930000D01*
X128782560Y-62302758D01*
X121187401Y-54707599D01*
X120940839Y-54542852D01*
X120650000Y-54485000D01*
X101914802Y-54485000D01*
X97280000Y-49850198D01*
X97280000Y-49532954D01*
X97570054Y-49339147D01*
X97790000Y-49009974D01*
X98009946Y-49339147D01*
X98491715Y-49661054D01*
X99060000Y-49774093D01*
X99628285Y-49661054D01*
X100110054Y-49339147D01*
X100330000Y-49009974D01*
X100549946Y-49339147D01*
X101031715Y-49661054D01*
X101600000Y-49774093D01*
X102168285Y-49661054D01*
X102650054Y-49339147D01*
X102677850Y-49297548D01*
X102686838Y-49345317D01*
X102825910Y-49561441D01*
X103038110Y-49706431D01*
X103290000Y-49757440D01*
X104990000Y-49757440D01*
X105225317Y-49713162D01*
X105441441Y-49574090D01*
X105586431Y-49361890D01*
X105637440Y-49110000D01*
X105637440Y-47750000D01*
X120335198Y-47750000D01*
X135130000Y-62544802D01*
G36*
X102555198Y-77980000D02*
X76514802Y-77980000D01*
X76219802Y-77685000D01*
X76229093Y-77685000D01*
X76797378Y-77571961D01*
X77279147Y-77250054D01*
X77468345Y-76966899D01*
X77468355Y-76966924D01*
X77858642Y-77395183D01*
X78383108Y-77641486D01*
X78613000Y-77520819D01*
X78613000Y-76327000D01*
X78867000Y-76327000D01*
X78867000Y-77520819D01*
X79096892Y-77641486D01*
X79621358Y-77395183D01*
X80011645Y-76966924D01*
X80181476Y-76556890D01*
X80060155Y-76327000D01*
X78867000Y-76327000D01*
X78613000Y-76327000D01*
X78593000Y-76327000D01*
X78593000Y-76073000D01*
X78613000Y-76073000D01*
X78613000Y-76053000D01*
X78867000Y-76053000D01*
X78867000Y-76073000D01*
X80060155Y-76073000D01*
X80181476Y-75843110D01*
X80118060Y-75690000D01*
X104775000Y-75690000D01*
X104862629Y-75672569D01*
X102555198Y-77980000D01*
X102555198Y-77980000D01*
G37*
X102555198Y-77980000D02*
X76514802Y-77980000D01*
X76219802Y-77685000D01*
X76229093Y-77685000D01*
X76797378Y-77571961D01*
X77279147Y-77250054D01*
X77468345Y-76966899D01*
X77468355Y-76966924D01*
X77858642Y-77395183D01*
X78383108Y-77641486D01*
X78613000Y-77520819D01*
X78613000Y-76327000D01*
X78867000Y-76327000D01*
X78867000Y-77520819D01*
X79096892Y-77641486D01*
X79621358Y-77395183D01*
X80011645Y-76966924D01*
X80181476Y-76556890D01*
X80060155Y-76327000D01*
X78867000Y-76327000D01*
X78613000Y-76327000D01*
X78593000Y-76327000D01*
X78593000Y-76073000D01*
X78613000Y-76073000D01*
X78613000Y-76053000D01*
X78867000Y-76053000D01*
X78867000Y-76073000D01*
X80060155Y-76073000D01*
X80181476Y-75843110D01*
X80118060Y-75690000D01*
X104775000Y-75690000D01*
X104862629Y-75672569D01*
X102555198Y-77980000D01*
G36*
X97172560Y-68315000D02*
X97196944Y-68444589D01*
X97172560Y-68565000D01*
X97172560Y-69115000D01*
X97216838Y-69350317D01*
X97355910Y-69566441D01*
X97568110Y-69711431D01*
X97820000Y-69762440D01*
X99147560Y-69762440D01*
X99147560Y-71090000D01*
X99191838Y-71325317D01*
X99330910Y-71541441D01*
X99543110Y-71686431D01*
X99795000Y-71737440D01*
X100345000Y-71737440D01*
X100474589Y-71713056D01*
X100595000Y-71737440D01*
X101145000Y-71737440D01*
X101274589Y-71713056D01*
X101395000Y-71737440D01*
X101710000Y-71737440D01*
X101710000Y-71846504D01*
X101696808Y-71859673D01*
X101554162Y-72203201D01*
X101553838Y-72575167D01*
X101688056Y-72900000D01*
X80012954Y-72900000D01*
X79819147Y-72609946D01*
X79489974Y-72390000D01*
X79819147Y-72170054D01*
X80012954Y-71880000D01*
X85217000Y-71880000D01*
X85507839Y-71822148D01*
X85754401Y-71657401D01*
X89411802Y-68000000D01*
X97172560Y-68000000D01*
X97172560Y-68315000D01*
X97172560Y-68315000D01*
G37*
X97172560Y-68315000D02*
X97196944Y-68444589D01*
X97172560Y-68565000D01*
X97172560Y-69115000D01*
X97216838Y-69350317D01*
X97355910Y-69566441D01*
X97568110Y-69711431D01*
X97820000Y-69762440D01*
X99147560Y-69762440D01*
X99147560Y-71090000D01*
X99191838Y-71325317D01*
X99330910Y-71541441D01*
X99543110Y-71686431D01*
X99795000Y-71737440D01*
X100345000Y-71737440D01*
X100474589Y-71713056D01*
X100595000Y-71737440D01*
X101145000Y-71737440D01*
X101274589Y-71713056D01*
X101395000Y-71737440D01*
X101710000Y-71737440D01*
X101710000Y-71846504D01*
X101696808Y-71859673D01*
X101554162Y-72203201D01*
X101553838Y-72575167D01*
X101688056Y-72900000D01*
X80012954Y-72900000D01*
X79819147Y-72609946D01*
X79489974Y-72390000D01*
X79819147Y-72170054D01*
X80012954Y-71880000D01*
X85217000Y-71880000D01*
X85507839Y-71822148D01*
X85754401Y-71657401D01*
X89411802Y-68000000D01*
X97172560Y-68000000D01*
X97172560Y-68315000D01*
G36*
X97463397Y-66439884D02*
X97401054Y-66480000D01*
X96645000Y-66480000D01*
X96645000Y-66400000D01*
X97405025Y-66400000D01*
X97463397Y-66439884D01*
X97463397Y-66439884D01*
G37*
X97463397Y-66439884D02*
X97401054Y-66480000D01*
X96645000Y-66480000D01*
X96645000Y-66400000D01*
X97405025Y-66400000D01*
X97463397Y-66439884D01*
M02*
