G04 #@! TF.FileFunction,Legend,Top*
%FSLAX46Y46*%
G04 Gerber Fmt 4.6, Leading zero omitted, Abs format (unit mm)*
G04 Created by KiCad (PCBNEW 4.0.4+e1-6308~48~ubuntu15.10.1-stable) date Tue Feb  7 13:56:33 2017*
%MOMM*%
%LPD*%
G01*
G04 APERTURE LIST*
%ADD10C,0.100000*%
%ADD11C,0.150000*%
%ADD12C,0.120000*%
%ADD13C,0.160000*%
G04 APERTURE END LIST*
D10*
D11*
X108850000Y-109950000D02*
G75*
G03X111750000Y-110050000I1500000J1400000D01*
G01*
X112950000Y-105950000D02*
X112950000Y-109950000D01*
X112950000Y-109950000D02*
X107950000Y-109950000D01*
X107950000Y-109950000D02*
X107950000Y-105950000D01*
X107950000Y-105950000D02*
X112950000Y-105950000D01*
X132588000Y-90043000D02*
X132588000Y-89281000D01*
X132588000Y-89281000D02*
X134112000Y-89281000D01*
X134112000Y-89281000D02*
X134112000Y-90043000D01*
X131064000Y-78867000D02*
X135636000Y-78867000D01*
X135636000Y-78867000D02*
X135636000Y-90043000D01*
X135636000Y-90043000D02*
X131064000Y-90043000D01*
X131064000Y-90043000D02*
X131064000Y-78867000D01*
D12*
X133000000Y-90840000D02*
X133700000Y-90840000D01*
X133700000Y-92040000D02*
X133000000Y-92040000D01*
D11*
X99245000Y-62415000D02*
X99245000Y-62640000D01*
X106495000Y-62415000D02*
X106495000Y-62740000D01*
X106495000Y-69665000D02*
X106495000Y-69340000D01*
X99245000Y-69665000D02*
X99245000Y-69340000D01*
X99245000Y-62415000D02*
X99570000Y-62415000D01*
X99245000Y-69665000D02*
X99570000Y-69665000D01*
X106495000Y-69665000D02*
X106170000Y-69665000D01*
X106495000Y-62415000D02*
X106170000Y-62415000D01*
X99245000Y-62640000D02*
X97820000Y-62640000D01*
X131550000Y-47360000D02*
X135150000Y-47360000D01*
X135150000Y-47360000D02*
X135650000Y-47860000D01*
X135650000Y-47860000D02*
X135650000Y-48660000D01*
X135650000Y-48660000D02*
X135150000Y-49160000D01*
X135150000Y-49160000D02*
X131550000Y-49160000D01*
X131550000Y-49160000D02*
X131050000Y-48660000D01*
X131050000Y-48660000D02*
X131050000Y-47860000D01*
X131050000Y-47860000D02*
X131550000Y-47360000D01*
X135150000Y-51700000D02*
X131550000Y-51700000D01*
X131550000Y-51700000D02*
X131050000Y-51200000D01*
X131050000Y-51200000D02*
X131050000Y-50400000D01*
X131050000Y-50400000D02*
X131550000Y-49900000D01*
X131550000Y-49900000D02*
X135150000Y-49900000D01*
X135150000Y-49900000D02*
X135650000Y-50400000D01*
X135650000Y-50400000D02*
X135650000Y-51200000D01*
X135650000Y-51200000D02*
X135150000Y-51700000D01*
D12*
X74810000Y-59690000D02*
X74810000Y-62350000D01*
X74810000Y-62350000D02*
X77590000Y-62350000D01*
X77590000Y-62350000D02*
X77590000Y-59690000D01*
X77590000Y-59690000D02*
X74810000Y-59690000D01*
X74810000Y-58420000D02*
X74810000Y-57030000D01*
X74810000Y-57030000D02*
X76200000Y-57030000D01*
X151130000Y-102990000D02*
X156330000Y-102990000D01*
X156330000Y-102990000D02*
X156330000Y-100210000D01*
X156330000Y-100210000D02*
X151130000Y-100210000D01*
X151130000Y-100210000D02*
X151130000Y-102990000D01*
X149860000Y-102990000D02*
X148470000Y-102990000D01*
X148470000Y-102990000D02*
X148470000Y-101600000D01*
X163710000Y-69850000D02*
X163710000Y-92830000D01*
X163710000Y-92830000D02*
X166490000Y-92830000D01*
X166490000Y-92830000D02*
X166490000Y-69850000D01*
X166490000Y-69850000D02*
X163710000Y-69850000D01*
X163710000Y-68580000D02*
X163710000Y-67190000D01*
X163710000Y-67190000D02*
X165100000Y-67190000D01*
D11*
X156015000Y-66310000D02*
X156015000Y-68310000D01*
X153865000Y-68310000D02*
X153865000Y-66310000D01*
X159825000Y-66310000D02*
X159825000Y-68310000D01*
X157675000Y-68310000D02*
X157675000Y-66310000D01*
X143445000Y-79140000D02*
X143445000Y-79390000D01*
X151195000Y-79140000D02*
X151195000Y-79485000D01*
X151195000Y-91040000D02*
X151195000Y-90695000D01*
X143445000Y-91040000D02*
X143445000Y-90695000D01*
X143445000Y-79140000D02*
X151195000Y-79140000D01*
X143445000Y-91040000D02*
X151195000Y-91040000D01*
X143445000Y-79390000D02*
X141620000Y-79390000D01*
X121855000Y-61360000D02*
X121855000Y-61610000D01*
X129605000Y-61360000D02*
X129605000Y-61705000D01*
X129605000Y-73260000D02*
X129605000Y-72915000D01*
X121855000Y-73260000D02*
X121855000Y-72915000D01*
X121855000Y-61360000D02*
X129605000Y-61360000D01*
X121855000Y-73260000D02*
X129605000Y-73260000D01*
X121855000Y-61610000D02*
X120030000Y-61610000D01*
D12*
X74810000Y-72390000D02*
X74810000Y-77590000D01*
X74810000Y-77590000D02*
X80130000Y-77590000D01*
X80130000Y-77590000D02*
X80130000Y-69730000D01*
X80130000Y-69730000D02*
X77470000Y-69730000D01*
X77470000Y-69730000D02*
X77470000Y-72390000D01*
X77470000Y-72390000D02*
X74810000Y-72390000D01*
X74810000Y-71120000D02*
X74810000Y-69730000D01*
X74810000Y-69730000D02*
X76200000Y-69730000D01*
X140970000Y-72510000D02*
X148710000Y-72510000D01*
X148710000Y-72510000D02*
X148710000Y-67190000D01*
X148710000Y-67190000D02*
X138310000Y-67190000D01*
X138310000Y-67190000D02*
X138310000Y-69850000D01*
X138310000Y-69850000D02*
X140970000Y-69850000D01*
X140970000Y-69850000D02*
X140970000Y-72510000D01*
X139700000Y-72510000D02*
X138310000Y-72510000D01*
X138310000Y-72510000D02*
X138310000Y-71120000D01*
D11*
X156210000Y-43220000D02*
X156210000Y-59420000D01*
X142010000Y-43220000D02*
X156210000Y-43220000D01*
X142010000Y-59420000D02*
X142010000Y-43220000D01*
X156210000Y-59420000D02*
X142010000Y-59420000D01*
D12*
X163710000Y-59690000D02*
X163710000Y-67430000D01*
X163710000Y-67430000D02*
X166490000Y-67430000D01*
X166490000Y-67430000D02*
X166490000Y-59690000D01*
X166490000Y-59690000D02*
X163710000Y-59690000D01*
X163710000Y-58420000D02*
X163710000Y-57030000D01*
X163710000Y-57030000D02*
X165100000Y-57030000D01*
X89820000Y-65440000D02*
X90520000Y-65440000D01*
X90520000Y-66640000D02*
X89820000Y-66640000D01*
X92546863Y-59978600D02*
G75*
G03X87752564Y-59980000I-2396863J-981400D01*
G01*
X92546863Y-61941400D02*
G75*
G02X87752564Y-61940000I-2396863J981400D01*
G01*
X92546863Y-61941400D02*
G75*
G03X92547436Y-59980000I-2396863J981400D01*
G01*
X90150000Y-58410000D02*
X90150000Y-63510000D01*
X90190000Y-58410000D02*
X90190000Y-63510000D01*
X90230000Y-58411000D02*
X90230000Y-63509000D01*
X90270000Y-58412000D02*
X90270000Y-63508000D01*
X90310000Y-58414000D02*
X90310000Y-63506000D01*
X90350000Y-58417000D02*
X90350000Y-63503000D01*
X90390000Y-58421000D02*
X90390000Y-63499000D01*
X90430000Y-58425000D02*
X90430000Y-59980000D01*
X90430000Y-61940000D02*
X90430000Y-63495000D01*
X90470000Y-58429000D02*
X90470000Y-59980000D01*
X90470000Y-61940000D02*
X90470000Y-63491000D01*
X90510000Y-58435000D02*
X90510000Y-59980000D01*
X90510000Y-61940000D02*
X90510000Y-63485000D01*
X90550000Y-58441000D02*
X90550000Y-59980000D01*
X90550000Y-61940000D02*
X90550000Y-63479000D01*
X90590000Y-58447000D02*
X90590000Y-59980000D01*
X90590000Y-61940000D02*
X90590000Y-63473000D01*
X90630000Y-58454000D02*
X90630000Y-59980000D01*
X90630000Y-61940000D02*
X90630000Y-63466000D01*
X90670000Y-58462000D02*
X90670000Y-59980000D01*
X90670000Y-61940000D02*
X90670000Y-63458000D01*
X90710000Y-58471000D02*
X90710000Y-59980000D01*
X90710000Y-61940000D02*
X90710000Y-63449000D01*
X90750000Y-58480000D02*
X90750000Y-59980000D01*
X90750000Y-61940000D02*
X90750000Y-63440000D01*
X90790000Y-58490000D02*
X90790000Y-59980000D01*
X90790000Y-61940000D02*
X90790000Y-63430000D01*
X90830000Y-58500000D02*
X90830000Y-59980000D01*
X90830000Y-61940000D02*
X90830000Y-63420000D01*
X90871000Y-58512000D02*
X90871000Y-59980000D01*
X90871000Y-61940000D02*
X90871000Y-63408000D01*
X90911000Y-58524000D02*
X90911000Y-59980000D01*
X90911000Y-61940000D02*
X90911000Y-63396000D01*
X90951000Y-58536000D02*
X90951000Y-59980000D01*
X90951000Y-61940000D02*
X90951000Y-63384000D01*
X90991000Y-58550000D02*
X90991000Y-59980000D01*
X90991000Y-61940000D02*
X90991000Y-63370000D01*
X91031000Y-58564000D02*
X91031000Y-59980000D01*
X91031000Y-61940000D02*
X91031000Y-63356000D01*
X91071000Y-58578000D02*
X91071000Y-59980000D01*
X91071000Y-61940000D02*
X91071000Y-63342000D01*
X91111000Y-58594000D02*
X91111000Y-59980000D01*
X91111000Y-61940000D02*
X91111000Y-63326000D01*
X91151000Y-58610000D02*
X91151000Y-59980000D01*
X91151000Y-61940000D02*
X91151000Y-63310000D01*
X91191000Y-58627000D02*
X91191000Y-59980000D01*
X91191000Y-61940000D02*
X91191000Y-63293000D01*
X91231000Y-58645000D02*
X91231000Y-59980000D01*
X91231000Y-61940000D02*
X91231000Y-63275000D01*
X91271000Y-58664000D02*
X91271000Y-59980000D01*
X91271000Y-61940000D02*
X91271000Y-63256000D01*
X91311000Y-58684000D02*
X91311000Y-59980000D01*
X91311000Y-61940000D02*
X91311000Y-63236000D01*
X91351000Y-58704000D02*
X91351000Y-59980000D01*
X91351000Y-61940000D02*
X91351000Y-63216000D01*
X91391000Y-58726000D02*
X91391000Y-59980000D01*
X91391000Y-61940000D02*
X91391000Y-63194000D01*
X91431000Y-58748000D02*
X91431000Y-59980000D01*
X91431000Y-61940000D02*
X91431000Y-63172000D01*
X91471000Y-58771000D02*
X91471000Y-59980000D01*
X91471000Y-61940000D02*
X91471000Y-63149000D01*
X91511000Y-58795000D02*
X91511000Y-59980000D01*
X91511000Y-61940000D02*
X91511000Y-63125000D01*
X91551000Y-58820000D02*
X91551000Y-59980000D01*
X91551000Y-61940000D02*
X91551000Y-63100000D01*
X91591000Y-58847000D02*
X91591000Y-59980000D01*
X91591000Y-61940000D02*
X91591000Y-63073000D01*
X91631000Y-58874000D02*
X91631000Y-59980000D01*
X91631000Y-61940000D02*
X91631000Y-63046000D01*
X91671000Y-58902000D02*
X91671000Y-59980000D01*
X91671000Y-61940000D02*
X91671000Y-63018000D01*
X91711000Y-58932000D02*
X91711000Y-59980000D01*
X91711000Y-61940000D02*
X91711000Y-62988000D01*
X91751000Y-58963000D02*
X91751000Y-59980000D01*
X91751000Y-61940000D02*
X91751000Y-62957000D01*
X91791000Y-58995000D02*
X91791000Y-59980000D01*
X91791000Y-61940000D02*
X91791000Y-62925000D01*
X91831000Y-59028000D02*
X91831000Y-59980000D01*
X91831000Y-61940000D02*
X91831000Y-62892000D01*
X91871000Y-59063000D02*
X91871000Y-59980000D01*
X91871000Y-61940000D02*
X91871000Y-62857000D01*
X91911000Y-59099000D02*
X91911000Y-59980000D01*
X91911000Y-61940000D02*
X91911000Y-62821000D01*
X91951000Y-59137000D02*
X91951000Y-59980000D01*
X91951000Y-61940000D02*
X91951000Y-62783000D01*
X91991000Y-59177000D02*
X91991000Y-59980000D01*
X91991000Y-61940000D02*
X91991000Y-62743000D01*
X92031000Y-59218000D02*
X92031000Y-59980000D01*
X92031000Y-61940000D02*
X92031000Y-62702000D01*
X92071000Y-59261000D02*
X92071000Y-59980000D01*
X92071000Y-61940000D02*
X92071000Y-62659000D01*
X92111000Y-59306000D02*
X92111000Y-59980000D01*
X92111000Y-61940000D02*
X92111000Y-62614000D01*
X92151000Y-59354000D02*
X92151000Y-59980000D01*
X92151000Y-61940000D02*
X92151000Y-62566000D01*
X92191000Y-59404000D02*
X92191000Y-59980000D01*
X92191000Y-61940000D02*
X92191000Y-62516000D01*
X92231000Y-59456000D02*
X92231000Y-59980000D01*
X92231000Y-61940000D02*
X92231000Y-62464000D01*
X92271000Y-59512000D02*
X92271000Y-59980000D01*
X92271000Y-61940000D02*
X92271000Y-62408000D01*
X92311000Y-59570000D02*
X92311000Y-59980000D01*
X92311000Y-61940000D02*
X92311000Y-62350000D01*
X92351000Y-59633000D02*
X92351000Y-59980000D01*
X92351000Y-61940000D02*
X92351000Y-62287000D01*
X92391000Y-59699000D02*
X92391000Y-62221000D01*
X92431000Y-59771000D02*
X92431000Y-62149000D01*
X92471000Y-59848000D02*
X92471000Y-62072000D01*
X92511000Y-59932000D02*
X92511000Y-61988000D01*
X92551000Y-60026000D02*
X92551000Y-61894000D01*
X92591000Y-60131000D02*
X92591000Y-61789000D01*
X92631000Y-60253000D02*
X92631000Y-61667000D01*
X92671000Y-60401000D02*
X92671000Y-61519000D01*
X92711000Y-60606000D02*
X92711000Y-61314000D01*
X86700000Y-60960000D02*
X87900000Y-60960000D01*
X87300000Y-60310000D02*
X87300000Y-61610000D01*
X109383137Y-101311400D02*
G75*
G03X114177436Y-101310000I2396863J981400D01*
G01*
X109383137Y-99348600D02*
G75*
G02X114177436Y-99350000I2396863J-981400D01*
G01*
X109383137Y-99348600D02*
G75*
G03X109382564Y-101310000I2396863J-981400D01*
G01*
X111780000Y-102880000D02*
X111780000Y-97780000D01*
X111740000Y-102880000D02*
X111740000Y-97780000D01*
X111700000Y-102879000D02*
X111700000Y-97781000D01*
X111660000Y-102878000D02*
X111660000Y-97782000D01*
X111620000Y-102876000D02*
X111620000Y-97784000D01*
X111580000Y-102873000D02*
X111580000Y-97787000D01*
X111540000Y-102869000D02*
X111540000Y-97791000D01*
X111500000Y-102865000D02*
X111500000Y-101310000D01*
X111500000Y-99350000D02*
X111500000Y-97795000D01*
X111460000Y-102861000D02*
X111460000Y-101310000D01*
X111460000Y-99350000D02*
X111460000Y-97799000D01*
X111420000Y-102855000D02*
X111420000Y-101310000D01*
X111420000Y-99350000D02*
X111420000Y-97805000D01*
X111380000Y-102849000D02*
X111380000Y-101310000D01*
X111380000Y-99350000D02*
X111380000Y-97811000D01*
X111340000Y-102843000D02*
X111340000Y-101310000D01*
X111340000Y-99350000D02*
X111340000Y-97817000D01*
X111300000Y-102836000D02*
X111300000Y-101310000D01*
X111300000Y-99350000D02*
X111300000Y-97824000D01*
X111260000Y-102828000D02*
X111260000Y-101310000D01*
X111260000Y-99350000D02*
X111260000Y-97832000D01*
X111220000Y-102819000D02*
X111220000Y-101310000D01*
X111220000Y-99350000D02*
X111220000Y-97841000D01*
X111180000Y-102810000D02*
X111180000Y-101310000D01*
X111180000Y-99350000D02*
X111180000Y-97850000D01*
X111140000Y-102800000D02*
X111140000Y-101310000D01*
X111140000Y-99350000D02*
X111140000Y-97860000D01*
X111100000Y-102790000D02*
X111100000Y-101310000D01*
X111100000Y-99350000D02*
X111100000Y-97870000D01*
X111059000Y-102778000D02*
X111059000Y-101310000D01*
X111059000Y-99350000D02*
X111059000Y-97882000D01*
X111019000Y-102766000D02*
X111019000Y-101310000D01*
X111019000Y-99350000D02*
X111019000Y-97894000D01*
X110979000Y-102754000D02*
X110979000Y-101310000D01*
X110979000Y-99350000D02*
X110979000Y-97906000D01*
X110939000Y-102740000D02*
X110939000Y-101310000D01*
X110939000Y-99350000D02*
X110939000Y-97920000D01*
X110899000Y-102726000D02*
X110899000Y-101310000D01*
X110899000Y-99350000D02*
X110899000Y-97934000D01*
X110859000Y-102712000D02*
X110859000Y-101310000D01*
X110859000Y-99350000D02*
X110859000Y-97948000D01*
X110819000Y-102696000D02*
X110819000Y-101310000D01*
X110819000Y-99350000D02*
X110819000Y-97964000D01*
X110779000Y-102680000D02*
X110779000Y-101310000D01*
X110779000Y-99350000D02*
X110779000Y-97980000D01*
X110739000Y-102663000D02*
X110739000Y-101310000D01*
X110739000Y-99350000D02*
X110739000Y-97997000D01*
X110699000Y-102645000D02*
X110699000Y-101310000D01*
X110699000Y-99350000D02*
X110699000Y-98015000D01*
X110659000Y-102626000D02*
X110659000Y-101310000D01*
X110659000Y-99350000D02*
X110659000Y-98034000D01*
X110619000Y-102606000D02*
X110619000Y-101310000D01*
X110619000Y-99350000D02*
X110619000Y-98054000D01*
X110579000Y-102586000D02*
X110579000Y-101310000D01*
X110579000Y-99350000D02*
X110579000Y-98074000D01*
X110539000Y-102564000D02*
X110539000Y-101310000D01*
X110539000Y-99350000D02*
X110539000Y-98096000D01*
X110499000Y-102542000D02*
X110499000Y-101310000D01*
X110499000Y-99350000D02*
X110499000Y-98118000D01*
X110459000Y-102519000D02*
X110459000Y-101310000D01*
X110459000Y-99350000D02*
X110459000Y-98141000D01*
X110419000Y-102495000D02*
X110419000Y-101310000D01*
X110419000Y-99350000D02*
X110419000Y-98165000D01*
X110379000Y-102470000D02*
X110379000Y-101310000D01*
X110379000Y-99350000D02*
X110379000Y-98190000D01*
X110339000Y-102443000D02*
X110339000Y-101310000D01*
X110339000Y-99350000D02*
X110339000Y-98217000D01*
X110299000Y-102416000D02*
X110299000Y-101310000D01*
X110299000Y-99350000D02*
X110299000Y-98244000D01*
X110259000Y-102388000D02*
X110259000Y-101310000D01*
X110259000Y-99350000D02*
X110259000Y-98272000D01*
X110219000Y-102358000D02*
X110219000Y-101310000D01*
X110219000Y-99350000D02*
X110219000Y-98302000D01*
X110179000Y-102327000D02*
X110179000Y-101310000D01*
X110179000Y-99350000D02*
X110179000Y-98333000D01*
X110139000Y-102295000D02*
X110139000Y-101310000D01*
X110139000Y-99350000D02*
X110139000Y-98365000D01*
X110099000Y-102262000D02*
X110099000Y-101310000D01*
X110099000Y-99350000D02*
X110099000Y-98398000D01*
X110059000Y-102227000D02*
X110059000Y-101310000D01*
X110059000Y-99350000D02*
X110059000Y-98433000D01*
X110019000Y-102191000D02*
X110019000Y-101310000D01*
X110019000Y-99350000D02*
X110019000Y-98469000D01*
X109979000Y-102153000D02*
X109979000Y-101310000D01*
X109979000Y-99350000D02*
X109979000Y-98507000D01*
X109939000Y-102113000D02*
X109939000Y-101310000D01*
X109939000Y-99350000D02*
X109939000Y-98547000D01*
X109899000Y-102072000D02*
X109899000Y-101310000D01*
X109899000Y-99350000D02*
X109899000Y-98588000D01*
X109859000Y-102029000D02*
X109859000Y-101310000D01*
X109859000Y-99350000D02*
X109859000Y-98631000D01*
X109819000Y-101984000D02*
X109819000Y-101310000D01*
X109819000Y-99350000D02*
X109819000Y-98676000D01*
X109779000Y-101936000D02*
X109779000Y-101310000D01*
X109779000Y-99350000D02*
X109779000Y-98724000D01*
X109739000Y-101886000D02*
X109739000Y-101310000D01*
X109739000Y-99350000D02*
X109739000Y-98774000D01*
X109699000Y-101834000D02*
X109699000Y-101310000D01*
X109699000Y-99350000D02*
X109699000Y-98826000D01*
X109659000Y-101778000D02*
X109659000Y-101310000D01*
X109659000Y-99350000D02*
X109659000Y-98882000D01*
X109619000Y-101720000D02*
X109619000Y-101310000D01*
X109619000Y-99350000D02*
X109619000Y-98940000D01*
X109579000Y-101657000D02*
X109579000Y-101310000D01*
X109579000Y-99350000D02*
X109579000Y-99003000D01*
X109539000Y-101591000D02*
X109539000Y-99069000D01*
X109499000Y-101519000D02*
X109499000Y-99141000D01*
X109459000Y-101442000D02*
X109459000Y-99218000D01*
X109419000Y-101358000D02*
X109419000Y-99302000D01*
X109379000Y-101264000D02*
X109379000Y-99396000D01*
X109339000Y-101159000D02*
X109339000Y-99501000D01*
X109299000Y-101037000D02*
X109299000Y-99623000D01*
X109259000Y-100889000D02*
X109259000Y-99771000D01*
X109219000Y-100684000D02*
X109219000Y-99976000D01*
X115230000Y-100330000D02*
X114030000Y-100330000D01*
X114630000Y-100980000D02*
X114630000Y-99680000D01*
D11*
X110760000Y-94175000D02*
X112760000Y-94175000D01*
X112760000Y-96325000D02*
X110760000Y-96325000D01*
X109728095Y-104227381D02*
X109728095Y-105036905D01*
X109775714Y-105132143D01*
X109823333Y-105179762D01*
X109918571Y-105227381D01*
X110109048Y-105227381D01*
X110204286Y-105179762D01*
X110251905Y-105132143D01*
X110299524Y-105036905D01*
X110299524Y-104227381D01*
X111204286Y-104560714D02*
X111204286Y-105227381D01*
X110966190Y-104179762D02*
X110728095Y-104894048D01*
X111347143Y-104894048D01*
X132373810Y-77922381D02*
X132373810Y-76922381D01*
X133421429Y-77827143D02*
X133373810Y-77874762D01*
X133230953Y-77922381D01*
X133135715Y-77922381D01*
X132992857Y-77874762D01*
X132897619Y-77779524D01*
X132850000Y-77684286D01*
X132802381Y-77493810D01*
X132802381Y-77350952D01*
X132850000Y-77160476D01*
X132897619Y-77065238D01*
X132992857Y-76970000D01*
X133135715Y-76922381D01*
X133230953Y-76922381D01*
X133373810Y-76970000D01*
X133421429Y-77017619D01*
X133802381Y-77017619D02*
X133850000Y-76970000D01*
X133945238Y-76922381D01*
X134183334Y-76922381D01*
X134278572Y-76970000D01*
X134326191Y-77017619D01*
X134373810Y-77112857D01*
X134373810Y-77208095D01*
X134326191Y-77350952D01*
X133754762Y-77922381D01*
X134373810Y-77922381D01*
X133183334Y-93702143D02*
X133135715Y-93749762D01*
X132992858Y-93797381D01*
X132897620Y-93797381D01*
X132754762Y-93749762D01*
X132659524Y-93654524D01*
X132611905Y-93559286D01*
X132564286Y-93368810D01*
X132564286Y-93225952D01*
X132611905Y-93035476D01*
X132659524Y-92940238D01*
X132754762Y-92845000D01*
X132897620Y-92797381D01*
X132992858Y-92797381D01*
X133135715Y-92845000D01*
X133183334Y-92892619D01*
X134135715Y-93797381D02*
X133564286Y-93797381D01*
X133850000Y-93797381D02*
X133850000Y-92797381D01*
X133754762Y-92940238D01*
X133659524Y-93035476D01*
X133564286Y-93083095D01*
X101893810Y-60142381D02*
X101893810Y-59142381D01*
X102941429Y-60047143D02*
X102893810Y-60094762D01*
X102750953Y-60142381D01*
X102655715Y-60142381D01*
X102512857Y-60094762D01*
X102417619Y-59999524D01*
X102370000Y-59904286D01*
X102322381Y-59713810D01*
X102322381Y-59570952D01*
X102370000Y-59380476D01*
X102417619Y-59285238D01*
X102512857Y-59190000D01*
X102655715Y-59142381D01*
X102750953Y-59142381D01*
X102893810Y-59190000D01*
X102941429Y-59237619D01*
X103893810Y-60142381D02*
X103322381Y-60142381D01*
X103608095Y-60142381D02*
X103608095Y-59142381D01*
X103512857Y-59285238D01*
X103417619Y-59380476D01*
X103322381Y-59428095D01*
X132516667Y-45712381D02*
X132516667Y-46426667D01*
X132469047Y-46569524D01*
X132373809Y-46664762D01*
X132230952Y-46712381D01*
X132135714Y-46712381D01*
X132992857Y-46712381D02*
X132992857Y-45712381D01*
X133373810Y-45712381D01*
X133469048Y-45760000D01*
X133516667Y-45807619D01*
X133564286Y-45902857D01*
X133564286Y-46045714D01*
X133516667Y-46140952D01*
X133469048Y-46188571D01*
X133373810Y-46236190D01*
X132992857Y-46236190D01*
X134516667Y-46712381D02*
X133945238Y-46712381D01*
X134230952Y-46712381D02*
X134230952Y-45712381D01*
X134135714Y-45855238D01*
X134040476Y-45950476D01*
X133945238Y-45998095D01*
X132516667Y-52252381D02*
X132516667Y-52966667D01*
X132469047Y-53109524D01*
X132373809Y-53204762D01*
X132230952Y-53252381D01*
X132135714Y-53252381D01*
X132992857Y-53252381D02*
X132992857Y-52252381D01*
X133373810Y-52252381D01*
X133469048Y-52300000D01*
X133516667Y-52347619D01*
X133564286Y-52442857D01*
X133564286Y-52585714D01*
X133516667Y-52680952D01*
X133469048Y-52728571D01*
X133373810Y-52776190D01*
X132992857Y-52776190D01*
X133945238Y-52347619D02*
X133992857Y-52300000D01*
X134088095Y-52252381D01*
X134326191Y-52252381D01*
X134421429Y-52300000D01*
X134469048Y-52347619D01*
X134516667Y-52442857D01*
X134516667Y-52538095D01*
X134469048Y-52680952D01*
X133897619Y-53252381D01*
X134516667Y-53252381D01*
X79192381Y-60428095D02*
X78192381Y-60428095D01*
X78192381Y-60047142D01*
X78240000Y-59951904D01*
X78287619Y-59904285D01*
X78382857Y-59856666D01*
X78525714Y-59856666D01*
X78620952Y-59904285D01*
X78668571Y-59951904D01*
X78716190Y-60047142D01*
X78716190Y-60428095D01*
X78525714Y-58999523D02*
X79192381Y-58999523D01*
X78144762Y-59237619D02*
X78859048Y-59475714D01*
X78859048Y-58856666D01*
X151661905Y-104592381D02*
X151661905Y-103592381D01*
X152042858Y-103592381D01*
X152138096Y-103640000D01*
X152185715Y-103687619D01*
X152233334Y-103782857D01*
X152233334Y-103925714D01*
X152185715Y-104020952D01*
X152138096Y-104068571D01*
X152042858Y-104116190D01*
X151661905Y-104116190D01*
X153138096Y-103592381D02*
X152661905Y-103592381D01*
X152614286Y-104068571D01*
X152661905Y-104020952D01*
X152757143Y-103973333D01*
X152995239Y-103973333D01*
X153090477Y-104020952D01*
X153138096Y-104068571D01*
X153185715Y-104163810D01*
X153185715Y-104401905D01*
X153138096Y-104497143D01*
X153090477Y-104544762D01*
X152995239Y-104592381D01*
X152757143Y-104592381D01*
X152661905Y-104544762D01*
X152614286Y-104497143D01*
X168092381Y-82018095D02*
X167092381Y-82018095D01*
X167092381Y-81637142D01*
X167140000Y-81541904D01*
X167187619Y-81494285D01*
X167282857Y-81446666D01*
X167425714Y-81446666D01*
X167520952Y-81494285D01*
X167568571Y-81541904D01*
X167616190Y-81637142D01*
X167616190Y-82018095D01*
X167092381Y-81113333D02*
X167092381Y-80446666D01*
X168092381Y-80875238D01*
X154773334Y-63317381D02*
X154440000Y-62841190D01*
X154201905Y-63317381D02*
X154201905Y-62317381D01*
X154582858Y-62317381D01*
X154678096Y-62365000D01*
X154725715Y-62412619D01*
X154773334Y-62507857D01*
X154773334Y-62650714D01*
X154725715Y-62745952D01*
X154678096Y-62793571D01*
X154582858Y-62841190D01*
X154201905Y-62841190D01*
X155725715Y-63317381D02*
X155154286Y-63317381D01*
X155440000Y-63317381D02*
X155440000Y-62317381D01*
X155344762Y-62460238D01*
X155249524Y-62555476D01*
X155154286Y-62603095D01*
X158583334Y-63317381D02*
X158250000Y-62841190D01*
X158011905Y-63317381D02*
X158011905Y-62317381D01*
X158392858Y-62317381D01*
X158488096Y-62365000D01*
X158535715Y-62412619D01*
X158583334Y-62507857D01*
X158583334Y-62650714D01*
X158535715Y-62745952D01*
X158488096Y-62793571D01*
X158392858Y-62841190D01*
X158011905Y-62841190D01*
X158964286Y-62412619D02*
X159011905Y-62365000D01*
X159107143Y-62317381D01*
X159345239Y-62317381D01*
X159440477Y-62365000D01*
X159488096Y-62412619D01*
X159535715Y-62507857D01*
X159535715Y-62603095D01*
X159488096Y-62745952D01*
X158916667Y-63317381D01*
X159535715Y-63317381D01*
X146558095Y-77667381D02*
X146558095Y-78476905D01*
X146605714Y-78572143D01*
X146653333Y-78619762D01*
X146748571Y-78667381D01*
X146939048Y-78667381D01*
X147034286Y-78619762D01*
X147081905Y-78572143D01*
X147129524Y-78476905D01*
X147129524Y-77667381D01*
X147558095Y-77762619D02*
X147605714Y-77715000D01*
X147700952Y-77667381D01*
X147939048Y-77667381D01*
X148034286Y-77715000D01*
X148081905Y-77762619D01*
X148129524Y-77857857D01*
X148129524Y-77953095D01*
X148081905Y-78095952D01*
X147510476Y-78667381D01*
X148129524Y-78667381D01*
X124968095Y-59142381D02*
X124968095Y-59951905D01*
X125015714Y-60047143D01*
X125063333Y-60094762D01*
X125158571Y-60142381D01*
X125349048Y-60142381D01*
X125444286Y-60094762D01*
X125491905Y-60047143D01*
X125539524Y-59951905D01*
X125539524Y-59142381D01*
X125920476Y-59142381D02*
X126539524Y-59142381D01*
X126206190Y-59523333D01*
X126349048Y-59523333D01*
X126444286Y-59570952D01*
X126491905Y-59618571D01*
X126539524Y-59713810D01*
X126539524Y-59951905D01*
X126491905Y-60047143D01*
X126444286Y-60094762D01*
X126349048Y-60142381D01*
X126063333Y-60142381D01*
X125968095Y-60094762D01*
X125920476Y-60047143D01*
X81732381Y-74398095D02*
X80732381Y-74398095D01*
X80732381Y-74017142D01*
X80780000Y-73921904D01*
X80827619Y-73874285D01*
X80922857Y-73826666D01*
X81065714Y-73826666D01*
X81160952Y-73874285D01*
X81208571Y-73921904D01*
X81256190Y-74017142D01*
X81256190Y-74398095D01*
X80827619Y-73445714D02*
X80780000Y-73398095D01*
X80732381Y-73302857D01*
X80732381Y-73064761D01*
X80780000Y-72969523D01*
X80827619Y-72921904D01*
X80922857Y-72874285D01*
X81018095Y-72874285D01*
X81160952Y-72921904D01*
X81732381Y-73493333D01*
X81732381Y-72874285D01*
X142771905Y-66492381D02*
X142771905Y-65492381D01*
X143152858Y-65492381D01*
X143248096Y-65540000D01*
X143295715Y-65587619D01*
X143343334Y-65682857D01*
X143343334Y-65825714D01*
X143295715Y-65920952D01*
X143248096Y-65968571D01*
X143152858Y-66016190D01*
X142771905Y-66016190D01*
X144295715Y-66492381D02*
X143724286Y-66492381D01*
X144010000Y-66492381D02*
X144010000Y-65492381D01*
X143914762Y-65635238D01*
X143819524Y-65730476D01*
X143724286Y-65778095D01*
D13*
X148361476Y-59759905D02*
X148361476Y-60407524D01*
X148399571Y-60483714D01*
X148437667Y-60521810D01*
X148513857Y-60559905D01*
X148666238Y-60559905D01*
X148742429Y-60521810D01*
X148780524Y-60483714D01*
X148818619Y-60407524D01*
X148818619Y-59759905D01*
X149618619Y-60559905D02*
X149161476Y-60559905D01*
X149390047Y-60559905D02*
X149390047Y-59759905D01*
X149313857Y-59874190D01*
X149237666Y-59950381D01*
X149161476Y-59988476D01*
D11*
X168092381Y-62968095D02*
X167092381Y-62968095D01*
X167092381Y-62587142D01*
X167140000Y-62491904D01*
X167187619Y-62444285D01*
X167282857Y-62396666D01*
X167425714Y-62396666D01*
X167520952Y-62444285D01*
X167568571Y-62491904D01*
X167616190Y-62587142D01*
X167616190Y-62968095D01*
X167092381Y-61539523D02*
X167092381Y-61730000D01*
X167140000Y-61825238D01*
X167187619Y-61872857D01*
X167330476Y-61968095D01*
X167520952Y-62015714D01*
X167901905Y-62015714D01*
X167997143Y-61968095D01*
X168044762Y-61920476D01*
X168092381Y-61825238D01*
X168092381Y-61634761D01*
X168044762Y-61539523D01*
X167997143Y-61491904D01*
X167901905Y-61444285D01*
X167663810Y-61444285D01*
X167568571Y-61491904D01*
X167520952Y-61539523D01*
X167473333Y-61634761D01*
X167473333Y-61825238D01*
X167520952Y-61920476D01*
X167568571Y-61968095D01*
X167663810Y-62015714D01*
X90003334Y-68302143D02*
X89955715Y-68349762D01*
X89812858Y-68397381D01*
X89717620Y-68397381D01*
X89574762Y-68349762D01*
X89479524Y-68254524D01*
X89431905Y-68159286D01*
X89384286Y-67968810D01*
X89384286Y-67825952D01*
X89431905Y-67635476D01*
X89479524Y-67540238D01*
X89574762Y-67445000D01*
X89717620Y-67397381D01*
X89812858Y-67397381D01*
X89955715Y-67445000D01*
X90003334Y-67492619D01*
X90336667Y-67397381D02*
X90955715Y-67397381D01*
X90622381Y-67778333D01*
X90765239Y-67778333D01*
X90860477Y-67825952D01*
X90908096Y-67873571D01*
X90955715Y-67968810D01*
X90955715Y-68206905D01*
X90908096Y-68302143D01*
X90860477Y-68349762D01*
X90765239Y-68397381D01*
X90479524Y-68397381D01*
X90384286Y-68349762D01*
X90336667Y-68302143D01*
X89983334Y-57757143D02*
X89935715Y-57804762D01*
X89792858Y-57852381D01*
X89697620Y-57852381D01*
X89554762Y-57804762D01*
X89459524Y-57709524D01*
X89411905Y-57614286D01*
X89364286Y-57423810D01*
X89364286Y-57280952D01*
X89411905Y-57090476D01*
X89459524Y-56995238D01*
X89554762Y-56900000D01*
X89697620Y-56852381D01*
X89792858Y-56852381D01*
X89935715Y-56900000D01*
X89983334Y-56947619D01*
X90840477Y-57185714D02*
X90840477Y-57852381D01*
X90602381Y-56804762D02*
X90364286Y-57519048D01*
X90983334Y-57519048D01*
X110660953Y-104247143D02*
X110613334Y-104294762D01*
X110470477Y-104342381D01*
X110375239Y-104342381D01*
X110232381Y-104294762D01*
X110137143Y-104199524D01*
X110089524Y-104104286D01*
X110041905Y-103913810D01*
X110041905Y-103770952D01*
X110089524Y-103580476D01*
X110137143Y-103485238D01*
X110232381Y-103390000D01*
X110375239Y-103342381D01*
X110470477Y-103342381D01*
X110613334Y-103390000D01*
X110660953Y-103437619D01*
X111613334Y-104342381D02*
X111041905Y-104342381D01*
X111327619Y-104342381D02*
X111327619Y-103342381D01*
X111232381Y-103485238D01*
X111137143Y-103580476D01*
X111041905Y-103628095D01*
X112232381Y-103342381D02*
X112327620Y-103342381D01*
X112422858Y-103390000D01*
X112470477Y-103437619D01*
X112518096Y-103532857D01*
X112565715Y-103723333D01*
X112565715Y-103961429D01*
X112518096Y-104151905D01*
X112470477Y-104247143D01*
X112422858Y-104294762D01*
X112327620Y-104342381D01*
X112232381Y-104342381D01*
X112137143Y-104294762D01*
X112089524Y-104247143D01*
X112041905Y-104151905D01*
X111994286Y-103961429D01*
X111994286Y-103723333D01*
X112041905Y-103532857D01*
X112089524Y-103437619D01*
X112137143Y-103390000D01*
X112232381Y-103342381D01*
X113518096Y-104342381D02*
X112946667Y-104342381D01*
X113232381Y-104342381D02*
X113232381Y-103342381D01*
X113137143Y-103485238D01*
X113041905Y-103580476D01*
X112946667Y-103628095D01*
X110640953Y-98002381D02*
X110307619Y-97526190D01*
X110069524Y-98002381D02*
X110069524Y-97002381D01*
X110450477Y-97002381D01*
X110545715Y-97050000D01*
X110593334Y-97097619D01*
X110640953Y-97192857D01*
X110640953Y-97335714D01*
X110593334Y-97430952D01*
X110545715Y-97478571D01*
X110450477Y-97526190D01*
X110069524Y-97526190D01*
X111593334Y-98002381D02*
X111021905Y-98002381D01*
X111307619Y-98002381D02*
X111307619Y-97002381D01*
X111212381Y-97145238D01*
X111117143Y-97240476D01*
X111021905Y-97288095D01*
X112212381Y-97002381D02*
X112307620Y-97002381D01*
X112402858Y-97050000D01*
X112450477Y-97097619D01*
X112498096Y-97192857D01*
X112545715Y-97383333D01*
X112545715Y-97621429D01*
X112498096Y-97811905D01*
X112450477Y-97907143D01*
X112402858Y-97954762D01*
X112307620Y-98002381D01*
X112212381Y-98002381D01*
X112117143Y-97954762D01*
X112069524Y-97907143D01*
X112021905Y-97811905D01*
X111974286Y-97621429D01*
X111974286Y-97383333D01*
X112021905Y-97192857D01*
X112069524Y-97097619D01*
X112117143Y-97050000D01*
X112212381Y-97002381D01*
X113498096Y-98002381D02*
X112926667Y-98002381D01*
X113212381Y-98002381D02*
X113212381Y-97002381D01*
X113117143Y-97145238D01*
X113021905Y-97240476D01*
X112926667Y-97288095D01*
M02*
