G04 #@! TF.FileFunction,Legend,Top*
%FSLAX46Y46*%
G04 Gerber Fmt 4.6, Leading zero omitted, Abs format (unit mm)*
G04 Created by KiCad (PCBNEW 4.0.4+e1-6308~48~ubuntu15.10.1-stable) date Tue Feb 14 12:35:32 2017*
%MOMM*%
%LPD*%
G01*
G04 APERTURE LIST*
%ADD10C,0.100000*%
%ADD11C,0.150000*%
%ADD12C,0.120000*%
%ADD13C,0.160000*%
G04 APERTURE END LIST*
D10*
D11*
X107580000Y-112490000D02*
G75*
G03X110480000Y-112590000I1500000J1400000D01*
G01*
X111680000Y-108490000D02*
X111680000Y-112490000D01*
X111680000Y-112490000D02*
X106680000Y-112490000D01*
X106680000Y-112490000D02*
X106680000Y-108490000D01*
X106680000Y-108490000D02*
X111680000Y-108490000D01*
X132588000Y-90043000D02*
X132588000Y-89281000D01*
X132588000Y-89281000D02*
X134112000Y-89281000D01*
X134112000Y-89281000D02*
X134112000Y-90043000D01*
X131064000Y-78867000D02*
X135636000Y-78867000D01*
X135636000Y-78867000D02*
X135636000Y-90043000D01*
X135636000Y-90043000D02*
X131064000Y-90043000D01*
X131064000Y-90043000D02*
X131064000Y-78867000D01*
D12*
X133000000Y-90840000D02*
X133700000Y-90840000D01*
X133700000Y-92040000D02*
X133000000Y-92040000D01*
D11*
X99245000Y-62415000D02*
X99245000Y-62640000D01*
X106495000Y-62415000D02*
X106495000Y-62740000D01*
X106495000Y-69665000D02*
X106495000Y-69340000D01*
X99245000Y-69665000D02*
X99245000Y-69340000D01*
X99245000Y-62415000D02*
X99570000Y-62415000D01*
X99245000Y-69665000D02*
X99570000Y-69665000D01*
X106495000Y-69665000D02*
X106170000Y-69665000D01*
X106495000Y-62415000D02*
X106170000Y-62415000D01*
X99245000Y-62640000D02*
X97820000Y-62640000D01*
X131550000Y-49900000D02*
X135150000Y-49900000D01*
X135150000Y-49900000D02*
X135650000Y-50400000D01*
X135650000Y-50400000D02*
X135650000Y-51200000D01*
X135650000Y-51200000D02*
X135150000Y-51700000D01*
X135150000Y-51700000D02*
X131550000Y-51700000D01*
X131550000Y-51700000D02*
X131050000Y-51200000D01*
X131050000Y-51200000D02*
X131050000Y-50400000D01*
X131050000Y-50400000D02*
X131550000Y-49900000D01*
X135150000Y-47890000D02*
X131550000Y-47890000D01*
X131550000Y-47890000D02*
X131050000Y-47390000D01*
X131050000Y-47390000D02*
X131050000Y-46590000D01*
X131050000Y-46590000D02*
X131550000Y-46090000D01*
X131550000Y-46090000D02*
X135150000Y-46090000D01*
X135150000Y-46090000D02*
X135650000Y-46590000D01*
X135650000Y-46590000D02*
X135650000Y-47390000D01*
X135650000Y-47390000D02*
X135150000Y-47890000D01*
D12*
X74810000Y-59690000D02*
X74810000Y-62350000D01*
X74810000Y-62350000D02*
X77590000Y-62350000D01*
X77590000Y-62350000D02*
X77590000Y-59690000D01*
X77590000Y-59690000D02*
X74810000Y-59690000D01*
X74810000Y-58420000D02*
X74810000Y-57030000D01*
X74810000Y-57030000D02*
X76200000Y-57030000D01*
X151130000Y-102990000D02*
X156330000Y-102990000D01*
X156330000Y-102990000D02*
X156330000Y-100210000D01*
X156330000Y-100210000D02*
X151130000Y-100210000D01*
X151130000Y-100210000D02*
X151130000Y-102990000D01*
X149860000Y-102990000D02*
X148470000Y-102990000D01*
X148470000Y-102990000D02*
X148470000Y-101600000D01*
X163710000Y-72390000D02*
X163710000Y-95370000D01*
X163710000Y-95370000D02*
X166490000Y-95370000D01*
X166490000Y-95370000D02*
X166490000Y-72390000D01*
X166490000Y-72390000D02*
X163710000Y-72390000D01*
X163710000Y-71120000D02*
X163710000Y-69730000D01*
X163710000Y-69730000D02*
X165100000Y-69730000D01*
D11*
X156015000Y-68215000D02*
X156015000Y-70215000D01*
X153865000Y-70215000D02*
X153865000Y-68215000D01*
X159825000Y-68215000D02*
X159825000Y-70215000D01*
X157675000Y-70215000D02*
X157675000Y-68215000D01*
X143445000Y-79140000D02*
X143445000Y-79390000D01*
X151195000Y-79140000D02*
X151195000Y-79485000D01*
X151195000Y-91040000D02*
X151195000Y-90695000D01*
X143445000Y-91040000D02*
X143445000Y-90695000D01*
X143445000Y-79140000D02*
X151195000Y-79140000D01*
X143445000Y-91040000D02*
X151195000Y-91040000D01*
X143445000Y-79390000D02*
X141620000Y-79390000D01*
X121855000Y-61360000D02*
X121855000Y-61610000D01*
X129605000Y-61360000D02*
X129605000Y-61705000D01*
X129605000Y-73260000D02*
X129605000Y-72915000D01*
X121855000Y-73260000D02*
X121855000Y-72915000D01*
X121855000Y-61360000D02*
X129605000Y-61360000D01*
X121855000Y-73260000D02*
X129605000Y-73260000D01*
X121855000Y-61610000D02*
X120030000Y-61610000D01*
D12*
X74810000Y-72390000D02*
X74810000Y-77590000D01*
X74810000Y-77590000D02*
X80130000Y-77590000D01*
X80130000Y-77590000D02*
X80130000Y-69730000D01*
X80130000Y-69730000D02*
X77470000Y-69730000D01*
X77470000Y-69730000D02*
X77470000Y-72390000D01*
X77470000Y-72390000D02*
X74810000Y-72390000D01*
X74810000Y-71120000D02*
X74810000Y-69730000D01*
X74810000Y-69730000D02*
X76200000Y-69730000D01*
X142240000Y-72510000D02*
X149980000Y-72510000D01*
X149980000Y-72510000D02*
X149980000Y-67190000D01*
X149980000Y-67190000D02*
X139580000Y-67190000D01*
X139580000Y-67190000D02*
X139580000Y-69850000D01*
X139580000Y-69850000D02*
X142240000Y-69850000D01*
X142240000Y-69850000D02*
X142240000Y-72510000D01*
X140970000Y-72510000D02*
X139580000Y-72510000D01*
X139580000Y-72510000D02*
X139580000Y-71120000D01*
X163710000Y-57150000D02*
X163710000Y-64890000D01*
X163710000Y-64890000D02*
X166490000Y-64890000D01*
X166490000Y-64890000D02*
X166490000Y-57150000D01*
X166490000Y-57150000D02*
X163710000Y-57150000D01*
X163710000Y-55880000D02*
X163710000Y-54490000D01*
X163710000Y-54490000D02*
X165100000Y-54490000D01*
X89820000Y-65440000D02*
X90520000Y-65440000D01*
X90520000Y-66640000D02*
X89820000Y-66640000D01*
X92546863Y-59978600D02*
G75*
G03X87752564Y-59980000I-2396863J-981400D01*
G01*
X92546863Y-61941400D02*
G75*
G02X87752564Y-61940000I-2396863J981400D01*
G01*
X92546863Y-61941400D02*
G75*
G03X92547436Y-59980000I-2396863J981400D01*
G01*
X90150000Y-58410000D02*
X90150000Y-63510000D01*
X90190000Y-58410000D02*
X90190000Y-63510000D01*
X90230000Y-58411000D02*
X90230000Y-63509000D01*
X90270000Y-58412000D02*
X90270000Y-63508000D01*
X90310000Y-58414000D02*
X90310000Y-63506000D01*
X90350000Y-58417000D02*
X90350000Y-63503000D01*
X90390000Y-58421000D02*
X90390000Y-63499000D01*
X90430000Y-58425000D02*
X90430000Y-59980000D01*
X90430000Y-61940000D02*
X90430000Y-63495000D01*
X90470000Y-58429000D02*
X90470000Y-59980000D01*
X90470000Y-61940000D02*
X90470000Y-63491000D01*
X90510000Y-58435000D02*
X90510000Y-59980000D01*
X90510000Y-61940000D02*
X90510000Y-63485000D01*
X90550000Y-58441000D02*
X90550000Y-59980000D01*
X90550000Y-61940000D02*
X90550000Y-63479000D01*
X90590000Y-58447000D02*
X90590000Y-59980000D01*
X90590000Y-61940000D02*
X90590000Y-63473000D01*
X90630000Y-58454000D02*
X90630000Y-59980000D01*
X90630000Y-61940000D02*
X90630000Y-63466000D01*
X90670000Y-58462000D02*
X90670000Y-59980000D01*
X90670000Y-61940000D02*
X90670000Y-63458000D01*
X90710000Y-58471000D02*
X90710000Y-59980000D01*
X90710000Y-61940000D02*
X90710000Y-63449000D01*
X90750000Y-58480000D02*
X90750000Y-59980000D01*
X90750000Y-61940000D02*
X90750000Y-63440000D01*
X90790000Y-58490000D02*
X90790000Y-59980000D01*
X90790000Y-61940000D02*
X90790000Y-63430000D01*
X90830000Y-58500000D02*
X90830000Y-59980000D01*
X90830000Y-61940000D02*
X90830000Y-63420000D01*
X90871000Y-58512000D02*
X90871000Y-59980000D01*
X90871000Y-61940000D02*
X90871000Y-63408000D01*
X90911000Y-58524000D02*
X90911000Y-59980000D01*
X90911000Y-61940000D02*
X90911000Y-63396000D01*
X90951000Y-58536000D02*
X90951000Y-59980000D01*
X90951000Y-61940000D02*
X90951000Y-63384000D01*
X90991000Y-58550000D02*
X90991000Y-59980000D01*
X90991000Y-61940000D02*
X90991000Y-63370000D01*
X91031000Y-58564000D02*
X91031000Y-59980000D01*
X91031000Y-61940000D02*
X91031000Y-63356000D01*
X91071000Y-58578000D02*
X91071000Y-59980000D01*
X91071000Y-61940000D02*
X91071000Y-63342000D01*
X91111000Y-58594000D02*
X91111000Y-59980000D01*
X91111000Y-61940000D02*
X91111000Y-63326000D01*
X91151000Y-58610000D02*
X91151000Y-59980000D01*
X91151000Y-61940000D02*
X91151000Y-63310000D01*
X91191000Y-58627000D02*
X91191000Y-59980000D01*
X91191000Y-61940000D02*
X91191000Y-63293000D01*
X91231000Y-58645000D02*
X91231000Y-59980000D01*
X91231000Y-61940000D02*
X91231000Y-63275000D01*
X91271000Y-58664000D02*
X91271000Y-59980000D01*
X91271000Y-61940000D02*
X91271000Y-63256000D01*
X91311000Y-58684000D02*
X91311000Y-59980000D01*
X91311000Y-61940000D02*
X91311000Y-63236000D01*
X91351000Y-58704000D02*
X91351000Y-59980000D01*
X91351000Y-61940000D02*
X91351000Y-63216000D01*
X91391000Y-58726000D02*
X91391000Y-59980000D01*
X91391000Y-61940000D02*
X91391000Y-63194000D01*
X91431000Y-58748000D02*
X91431000Y-59980000D01*
X91431000Y-61940000D02*
X91431000Y-63172000D01*
X91471000Y-58771000D02*
X91471000Y-59980000D01*
X91471000Y-61940000D02*
X91471000Y-63149000D01*
X91511000Y-58795000D02*
X91511000Y-59980000D01*
X91511000Y-61940000D02*
X91511000Y-63125000D01*
X91551000Y-58820000D02*
X91551000Y-59980000D01*
X91551000Y-61940000D02*
X91551000Y-63100000D01*
X91591000Y-58847000D02*
X91591000Y-59980000D01*
X91591000Y-61940000D02*
X91591000Y-63073000D01*
X91631000Y-58874000D02*
X91631000Y-59980000D01*
X91631000Y-61940000D02*
X91631000Y-63046000D01*
X91671000Y-58902000D02*
X91671000Y-59980000D01*
X91671000Y-61940000D02*
X91671000Y-63018000D01*
X91711000Y-58932000D02*
X91711000Y-59980000D01*
X91711000Y-61940000D02*
X91711000Y-62988000D01*
X91751000Y-58963000D02*
X91751000Y-59980000D01*
X91751000Y-61940000D02*
X91751000Y-62957000D01*
X91791000Y-58995000D02*
X91791000Y-59980000D01*
X91791000Y-61940000D02*
X91791000Y-62925000D01*
X91831000Y-59028000D02*
X91831000Y-59980000D01*
X91831000Y-61940000D02*
X91831000Y-62892000D01*
X91871000Y-59063000D02*
X91871000Y-59980000D01*
X91871000Y-61940000D02*
X91871000Y-62857000D01*
X91911000Y-59099000D02*
X91911000Y-59980000D01*
X91911000Y-61940000D02*
X91911000Y-62821000D01*
X91951000Y-59137000D02*
X91951000Y-59980000D01*
X91951000Y-61940000D02*
X91951000Y-62783000D01*
X91991000Y-59177000D02*
X91991000Y-59980000D01*
X91991000Y-61940000D02*
X91991000Y-62743000D01*
X92031000Y-59218000D02*
X92031000Y-59980000D01*
X92031000Y-61940000D02*
X92031000Y-62702000D01*
X92071000Y-59261000D02*
X92071000Y-59980000D01*
X92071000Y-61940000D02*
X92071000Y-62659000D01*
X92111000Y-59306000D02*
X92111000Y-59980000D01*
X92111000Y-61940000D02*
X92111000Y-62614000D01*
X92151000Y-59354000D02*
X92151000Y-59980000D01*
X92151000Y-61940000D02*
X92151000Y-62566000D01*
X92191000Y-59404000D02*
X92191000Y-59980000D01*
X92191000Y-61940000D02*
X92191000Y-62516000D01*
X92231000Y-59456000D02*
X92231000Y-59980000D01*
X92231000Y-61940000D02*
X92231000Y-62464000D01*
X92271000Y-59512000D02*
X92271000Y-59980000D01*
X92271000Y-61940000D02*
X92271000Y-62408000D01*
X92311000Y-59570000D02*
X92311000Y-59980000D01*
X92311000Y-61940000D02*
X92311000Y-62350000D01*
X92351000Y-59633000D02*
X92351000Y-59980000D01*
X92351000Y-61940000D02*
X92351000Y-62287000D01*
X92391000Y-59699000D02*
X92391000Y-62221000D01*
X92431000Y-59771000D02*
X92431000Y-62149000D01*
X92471000Y-59848000D02*
X92471000Y-62072000D01*
X92511000Y-59932000D02*
X92511000Y-61988000D01*
X92551000Y-60026000D02*
X92551000Y-61894000D01*
X92591000Y-60131000D02*
X92591000Y-61789000D01*
X92631000Y-60253000D02*
X92631000Y-61667000D01*
X92671000Y-60401000D02*
X92671000Y-61519000D01*
X92711000Y-60606000D02*
X92711000Y-61314000D01*
X86700000Y-60960000D02*
X87900000Y-60960000D01*
X87300000Y-60310000D02*
X87300000Y-61610000D01*
X108113137Y-103851400D02*
G75*
G03X112907436Y-103850000I2396863J981400D01*
G01*
X108113137Y-101888600D02*
G75*
G02X112907436Y-101890000I2396863J-981400D01*
G01*
X108113137Y-101888600D02*
G75*
G03X108112564Y-103850000I2396863J-981400D01*
G01*
X110510000Y-105420000D02*
X110510000Y-100320000D01*
X110470000Y-105420000D02*
X110470000Y-100320000D01*
X110430000Y-105419000D02*
X110430000Y-100321000D01*
X110390000Y-105418000D02*
X110390000Y-100322000D01*
X110350000Y-105416000D02*
X110350000Y-100324000D01*
X110310000Y-105413000D02*
X110310000Y-100327000D01*
X110270000Y-105409000D02*
X110270000Y-100331000D01*
X110230000Y-105405000D02*
X110230000Y-103850000D01*
X110230000Y-101890000D02*
X110230000Y-100335000D01*
X110190000Y-105401000D02*
X110190000Y-103850000D01*
X110190000Y-101890000D02*
X110190000Y-100339000D01*
X110150000Y-105395000D02*
X110150000Y-103850000D01*
X110150000Y-101890000D02*
X110150000Y-100345000D01*
X110110000Y-105389000D02*
X110110000Y-103850000D01*
X110110000Y-101890000D02*
X110110000Y-100351000D01*
X110070000Y-105383000D02*
X110070000Y-103850000D01*
X110070000Y-101890000D02*
X110070000Y-100357000D01*
X110030000Y-105376000D02*
X110030000Y-103850000D01*
X110030000Y-101890000D02*
X110030000Y-100364000D01*
X109990000Y-105368000D02*
X109990000Y-103850000D01*
X109990000Y-101890000D02*
X109990000Y-100372000D01*
X109950000Y-105359000D02*
X109950000Y-103850000D01*
X109950000Y-101890000D02*
X109950000Y-100381000D01*
X109910000Y-105350000D02*
X109910000Y-103850000D01*
X109910000Y-101890000D02*
X109910000Y-100390000D01*
X109870000Y-105340000D02*
X109870000Y-103850000D01*
X109870000Y-101890000D02*
X109870000Y-100400000D01*
X109830000Y-105330000D02*
X109830000Y-103850000D01*
X109830000Y-101890000D02*
X109830000Y-100410000D01*
X109789000Y-105318000D02*
X109789000Y-103850000D01*
X109789000Y-101890000D02*
X109789000Y-100422000D01*
X109749000Y-105306000D02*
X109749000Y-103850000D01*
X109749000Y-101890000D02*
X109749000Y-100434000D01*
X109709000Y-105294000D02*
X109709000Y-103850000D01*
X109709000Y-101890000D02*
X109709000Y-100446000D01*
X109669000Y-105280000D02*
X109669000Y-103850000D01*
X109669000Y-101890000D02*
X109669000Y-100460000D01*
X109629000Y-105266000D02*
X109629000Y-103850000D01*
X109629000Y-101890000D02*
X109629000Y-100474000D01*
X109589000Y-105252000D02*
X109589000Y-103850000D01*
X109589000Y-101890000D02*
X109589000Y-100488000D01*
X109549000Y-105236000D02*
X109549000Y-103850000D01*
X109549000Y-101890000D02*
X109549000Y-100504000D01*
X109509000Y-105220000D02*
X109509000Y-103850000D01*
X109509000Y-101890000D02*
X109509000Y-100520000D01*
X109469000Y-105203000D02*
X109469000Y-103850000D01*
X109469000Y-101890000D02*
X109469000Y-100537000D01*
X109429000Y-105185000D02*
X109429000Y-103850000D01*
X109429000Y-101890000D02*
X109429000Y-100555000D01*
X109389000Y-105166000D02*
X109389000Y-103850000D01*
X109389000Y-101890000D02*
X109389000Y-100574000D01*
X109349000Y-105146000D02*
X109349000Y-103850000D01*
X109349000Y-101890000D02*
X109349000Y-100594000D01*
X109309000Y-105126000D02*
X109309000Y-103850000D01*
X109309000Y-101890000D02*
X109309000Y-100614000D01*
X109269000Y-105104000D02*
X109269000Y-103850000D01*
X109269000Y-101890000D02*
X109269000Y-100636000D01*
X109229000Y-105082000D02*
X109229000Y-103850000D01*
X109229000Y-101890000D02*
X109229000Y-100658000D01*
X109189000Y-105059000D02*
X109189000Y-103850000D01*
X109189000Y-101890000D02*
X109189000Y-100681000D01*
X109149000Y-105035000D02*
X109149000Y-103850000D01*
X109149000Y-101890000D02*
X109149000Y-100705000D01*
X109109000Y-105010000D02*
X109109000Y-103850000D01*
X109109000Y-101890000D02*
X109109000Y-100730000D01*
X109069000Y-104983000D02*
X109069000Y-103850000D01*
X109069000Y-101890000D02*
X109069000Y-100757000D01*
X109029000Y-104956000D02*
X109029000Y-103850000D01*
X109029000Y-101890000D02*
X109029000Y-100784000D01*
X108989000Y-104928000D02*
X108989000Y-103850000D01*
X108989000Y-101890000D02*
X108989000Y-100812000D01*
X108949000Y-104898000D02*
X108949000Y-103850000D01*
X108949000Y-101890000D02*
X108949000Y-100842000D01*
X108909000Y-104867000D02*
X108909000Y-103850000D01*
X108909000Y-101890000D02*
X108909000Y-100873000D01*
X108869000Y-104835000D02*
X108869000Y-103850000D01*
X108869000Y-101890000D02*
X108869000Y-100905000D01*
X108829000Y-104802000D02*
X108829000Y-103850000D01*
X108829000Y-101890000D02*
X108829000Y-100938000D01*
X108789000Y-104767000D02*
X108789000Y-103850000D01*
X108789000Y-101890000D02*
X108789000Y-100973000D01*
X108749000Y-104731000D02*
X108749000Y-103850000D01*
X108749000Y-101890000D02*
X108749000Y-101009000D01*
X108709000Y-104693000D02*
X108709000Y-103850000D01*
X108709000Y-101890000D02*
X108709000Y-101047000D01*
X108669000Y-104653000D02*
X108669000Y-103850000D01*
X108669000Y-101890000D02*
X108669000Y-101087000D01*
X108629000Y-104612000D02*
X108629000Y-103850000D01*
X108629000Y-101890000D02*
X108629000Y-101128000D01*
X108589000Y-104569000D02*
X108589000Y-103850000D01*
X108589000Y-101890000D02*
X108589000Y-101171000D01*
X108549000Y-104524000D02*
X108549000Y-103850000D01*
X108549000Y-101890000D02*
X108549000Y-101216000D01*
X108509000Y-104476000D02*
X108509000Y-103850000D01*
X108509000Y-101890000D02*
X108509000Y-101264000D01*
X108469000Y-104426000D02*
X108469000Y-103850000D01*
X108469000Y-101890000D02*
X108469000Y-101314000D01*
X108429000Y-104374000D02*
X108429000Y-103850000D01*
X108429000Y-101890000D02*
X108429000Y-101366000D01*
X108389000Y-104318000D02*
X108389000Y-103850000D01*
X108389000Y-101890000D02*
X108389000Y-101422000D01*
X108349000Y-104260000D02*
X108349000Y-103850000D01*
X108349000Y-101890000D02*
X108349000Y-101480000D01*
X108309000Y-104197000D02*
X108309000Y-103850000D01*
X108309000Y-101890000D02*
X108309000Y-101543000D01*
X108269000Y-104131000D02*
X108269000Y-101609000D01*
X108229000Y-104059000D02*
X108229000Y-101681000D01*
X108189000Y-103982000D02*
X108189000Y-101758000D01*
X108149000Y-103898000D02*
X108149000Y-101842000D01*
X108109000Y-103804000D02*
X108109000Y-101936000D01*
X108069000Y-103699000D02*
X108069000Y-102041000D01*
X108029000Y-103577000D02*
X108029000Y-102163000D01*
X107989000Y-103429000D02*
X107989000Y-102311000D01*
X107949000Y-103224000D02*
X107949000Y-102516000D01*
X113960000Y-102870000D02*
X112760000Y-102870000D01*
X113360000Y-103520000D02*
X113360000Y-102220000D01*
D11*
X112835000Y-94885000D02*
X112835000Y-96885000D01*
X110685000Y-96885000D02*
X110685000Y-94885000D01*
D12*
X163710000Y-67310000D02*
X163710000Y-69970000D01*
X163710000Y-69970000D02*
X166490000Y-69970000D01*
X166490000Y-69970000D02*
X166490000Y-67310000D01*
X166490000Y-67310000D02*
X163710000Y-67310000D01*
X163710000Y-66040000D02*
X163710000Y-64650000D01*
X163710000Y-64650000D02*
X165100000Y-64650000D01*
D11*
X157353000Y-41275000D02*
X157353000Y-57531000D01*
X142875000Y-41275000D02*
X157353000Y-41275000D01*
X142875000Y-57531000D02*
X142875000Y-41275000D01*
X157353000Y-57531000D02*
X142875000Y-57531000D01*
X107505714Y-106767381D02*
X107505714Y-107576905D01*
X107553333Y-107672143D01*
X107600952Y-107719762D01*
X107696190Y-107767381D01*
X107886667Y-107767381D01*
X107981905Y-107719762D01*
X108029524Y-107672143D01*
X108077143Y-107576905D01*
X108077143Y-106767381D01*
X109077143Y-107767381D02*
X108505714Y-107767381D01*
X108791428Y-107767381D02*
X108791428Y-106767381D01*
X108696190Y-106910238D01*
X108600952Y-107005476D01*
X108505714Y-107053095D01*
X109696190Y-106767381D02*
X109791429Y-106767381D01*
X109886667Y-106815000D01*
X109934286Y-106862619D01*
X109981905Y-106957857D01*
X110029524Y-107148333D01*
X110029524Y-107386429D01*
X109981905Y-107576905D01*
X109934286Y-107672143D01*
X109886667Y-107719762D01*
X109791429Y-107767381D01*
X109696190Y-107767381D01*
X109600952Y-107719762D01*
X109553333Y-107672143D01*
X109505714Y-107576905D01*
X109458095Y-107386429D01*
X109458095Y-107148333D01*
X109505714Y-106957857D01*
X109553333Y-106862619D01*
X109600952Y-106815000D01*
X109696190Y-106767381D01*
X110886667Y-107100714D02*
X110886667Y-107767381D01*
X110648571Y-106719762D02*
X110410476Y-107434048D01*
X111029524Y-107434048D01*
X131421429Y-77922381D02*
X131421429Y-76922381D01*
X132469048Y-77827143D02*
X132421429Y-77874762D01*
X132278572Y-77922381D01*
X132183334Y-77922381D01*
X132040476Y-77874762D01*
X131945238Y-77779524D01*
X131897619Y-77684286D01*
X131850000Y-77493810D01*
X131850000Y-77350952D01*
X131897619Y-77160476D01*
X131945238Y-77065238D01*
X132040476Y-76970000D01*
X132183334Y-76922381D01*
X132278572Y-76922381D01*
X132421429Y-76970000D01*
X132469048Y-77017619D01*
X133421429Y-77922381D02*
X132850000Y-77922381D01*
X133135714Y-77922381D02*
X133135714Y-76922381D01*
X133040476Y-77065238D01*
X132945238Y-77160476D01*
X132850000Y-77208095D01*
X134040476Y-76922381D02*
X134135715Y-76922381D01*
X134230953Y-76970000D01*
X134278572Y-77017619D01*
X134326191Y-77112857D01*
X134373810Y-77303333D01*
X134373810Y-77541429D01*
X134326191Y-77731905D01*
X134278572Y-77827143D01*
X134230953Y-77874762D01*
X134135715Y-77922381D01*
X134040476Y-77922381D01*
X133945238Y-77874762D01*
X133897619Y-77827143D01*
X133850000Y-77731905D01*
X133802381Y-77541429D01*
X133802381Y-77303333D01*
X133850000Y-77112857D01*
X133897619Y-77017619D01*
X133945238Y-76970000D01*
X134040476Y-76922381D01*
X134754762Y-77017619D02*
X134802381Y-76970000D01*
X134897619Y-76922381D01*
X135135715Y-76922381D01*
X135230953Y-76970000D01*
X135278572Y-77017619D01*
X135326191Y-77112857D01*
X135326191Y-77208095D01*
X135278572Y-77350952D01*
X134707143Y-77922381D01*
X135326191Y-77922381D01*
X132230953Y-93702143D02*
X132183334Y-93749762D01*
X132040477Y-93797381D01*
X131945239Y-93797381D01*
X131802381Y-93749762D01*
X131707143Y-93654524D01*
X131659524Y-93559286D01*
X131611905Y-93368810D01*
X131611905Y-93225952D01*
X131659524Y-93035476D01*
X131707143Y-92940238D01*
X131802381Y-92845000D01*
X131945239Y-92797381D01*
X132040477Y-92797381D01*
X132183334Y-92845000D01*
X132230953Y-92892619D01*
X133183334Y-93797381D02*
X132611905Y-93797381D01*
X132897619Y-93797381D02*
X132897619Y-92797381D01*
X132802381Y-92940238D01*
X132707143Y-93035476D01*
X132611905Y-93083095D01*
X133802381Y-92797381D02*
X133897620Y-92797381D01*
X133992858Y-92845000D01*
X134040477Y-92892619D01*
X134088096Y-92987857D01*
X134135715Y-93178333D01*
X134135715Y-93416429D01*
X134088096Y-93606905D01*
X134040477Y-93702143D01*
X133992858Y-93749762D01*
X133897620Y-93797381D01*
X133802381Y-93797381D01*
X133707143Y-93749762D01*
X133659524Y-93702143D01*
X133611905Y-93606905D01*
X133564286Y-93416429D01*
X133564286Y-93178333D01*
X133611905Y-92987857D01*
X133659524Y-92892619D01*
X133707143Y-92845000D01*
X133802381Y-92797381D01*
X134469048Y-92797381D02*
X135088096Y-92797381D01*
X134754762Y-93178333D01*
X134897620Y-93178333D01*
X134992858Y-93225952D01*
X135040477Y-93273571D01*
X135088096Y-93368810D01*
X135088096Y-93606905D01*
X135040477Y-93702143D01*
X134992858Y-93749762D01*
X134897620Y-93797381D01*
X134611905Y-93797381D01*
X134516667Y-93749762D01*
X134469048Y-93702143D01*
X100941429Y-60142381D02*
X100941429Y-59142381D01*
X101989048Y-60047143D02*
X101941429Y-60094762D01*
X101798572Y-60142381D01*
X101703334Y-60142381D01*
X101560476Y-60094762D01*
X101465238Y-59999524D01*
X101417619Y-59904286D01*
X101370000Y-59713810D01*
X101370000Y-59570952D01*
X101417619Y-59380476D01*
X101465238Y-59285238D01*
X101560476Y-59190000D01*
X101703334Y-59142381D01*
X101798572Y-59142381D01*
X101941429Y-59190000D01*
X101989048Y-59237619D01*
X102941429Y-60142381D02*
X102370000Y-60142381D01*
X102655714Y-60142381D02*
X102655714Y-59142381D01*
X102560476Y-59285238D01*
X102465238Y-59380476D01*
X102370000Y-59428095D01*
X103560476Y-59142381D02*
X103655715Y-59142381D01*
X103750953Y-59190000D01*
X103798572Y-59237619D01*
X103846191Y-59332857D01*
X103893810Y-59523333D01*
X103893810Y-59761429D01*
X103846191Y-59951905D01*
X103798572Y-60047143D01*
X103750953Y-60094762D01*
X103655715Y-60142381D01*
X103560476Y-60142381D01*
X103465238Y-60094762D01*
X103417619Y-60047143D01*
X103370000Y-59951905D01*
X103322381Y-59761429D01*
X103322381Y-59523333D01*
X103370000Y-59332857D01*
X103417619Y-59237619D01*
X103465238Y-59190000D01*
X103560476Y-59142381D01*
X104846191Y-60142381D02*
X104274762Y-60142381D01*
X104560476Y-60142381D02*
X104560476Y-59142381D01*
X104465238Y-59285238D01*
X104370000Y-59380476D01*
X104274762Y-59428095D01*
X131564286Y-52157381D02*
X131564286Y-52871667D01*
X131516666Y-53014524D01*
X131421428Y-53109762D01*
X131278571Y-53157381D01*
X131183333Y-53157381D01*
X132040476Y-53157381D02*
X132040476Y-52157381D01*
X132421429Y-52157381D01*
X132516667Y-52205000D01*
X132564286Y-52252619D01*
X132611905Y-52347857D01*
X132611905Y-52490714D01*
X132564286Y-52585952D01*
X132516667Y-52633571D01*
X132421429Y-52681190D01*
X132040476Y-52681190D01*
X133564286Y-53157381D02*
X132992857Y-53157381D01*
X133278571Y-53157381D02*
X133278571Y-52157381D01*
X133183333Y-52300238D01*
X133088095Y-52395476D01*
X132992857Y-52443095D01*
X134183333Y-52157381D02*
X134278572Y-52157381D01*
X134373810Y-52205000D01*
X134421429Y-52252619D01*
X134469048Y-52347857D01*
X134516667Y-52538333D01*
X134516667Y-52776429D01*
X134469048Y-52966905D01*
X134421429Y-53062143D01*
X134373810Y-53109762D01*
X134278572Y-53157381D01*
X134183333Y-53157381D01*
X134088095Y-53109762D01*
X134040476Y-53062143D01*
X133992857Y-52966905D01*
X133945238Y-52776429D01*
X133945238Y-52538333D01*
X133992857Y-52347857D01*
X134040476Y-52252619D01*
X134088095Y-52205000D01*
X134183333Y-52157381D01*
X135469048Y-53157381D02*
X134897619Y-53157381D01*
X135183333Y-53157381D02*
X135183333Y-52157381D01*
X135088095Y-52300238D01*
X134992857Y-52395476D01*
X134897619Y-52443095D01*
X131564286Y-48347381D02*
X131564286Y-49061667D01*
X131516666Y-49204524D01*
X131421428Y-49299762D01*
X131278571Y-49347381D01*
X131183333Y-49347381D01*
X132040476Y-49347381D02*
X132040476Y-48347381D01*
X132421429Y-48347381D01*
X132516667Y-48395000D01*
X132564286Y-48442619D01*
X132611905Y-48537857D01*
X132611905Y-48680714D01*
X132564286Y-48775952D01*
X132516667Y-48823571D01*
X132421429Y-48871190D01*
X132040476Y-48871190D01*
X133564286Y-49347381D02*
X132992857Y-49347381D01*
X133278571Y-49347381D02*
X133278571Y-48347381D01*
X133183333Y-48490238D01*
X133088095Y-48585476D01*
X132992857Y-48633095D01*
X134183333Y-48347381D02*
X134278572Y-48347381D01*
X134373810Y-48395000D01*
X134421429Y-48442619D01*
X134469048Y-48537857D01*
X134516667Y-48728333D01*
X134516667Y-48966429D01*
X134469048Y-49156905D01*
X134421429Y-49252143D01*
X134373810Y-49299762D01*
X134278572Y-49347381D01*
X134183333Y-49347381D01*
X134088095Y-49299762D01*
X134040476Y-49252143D01*
X133992857Y-49156905D01*
X133945238Y-48966429D01*
X133945238Y-48728333D01*
X133992857Y-48537857D01*
X134040476Y-48442619D01*
X134088095Y-48395000D01*
X134183333Y-48347381D01*
X134897619Y-48442619D02*
X134945238Y-48395000D01*
X135040476Y-48347381D01*
X135278572Y-48347381D01*
X135373810Y-48395000D01*
X135421429Y-48442619D01*
X135469048Y-48537857D01*
X135469048Y-48633095D01*
X135421429Y-48775952D01*
X134850000Y-49347381D01*
X135469048Y-49347381D01*
X79192381Y-61380476D02*
X78192381Y-61380476D01*
X78192381Y-60999523D01*
X78240000Y-60904285D01*
X78287619Y-60856666D01*
X78382857Y-60809047D01*
X78525714Y-60809047D01*
X78620952Y-60856666D01*
X78668571Y-60904285D01*
X78716190Y-60999523D01*
X78716190Y-61380476D01*
X79192381Y-59856666D02*
X79192381Y-60428095D01*
X79192381Y-60142381D02*
X78192381Y-60142381D01*
X78335238Y-60237619D01*
X78430476Y-60332857D01*
X78478095Y-60428095D01*
X78192381Y-59237619D02*
X78192381Y-59142380D01*
X78240000Y-59047142D01*
X78287619Y-58999523D01*
X78382857Y-58951904D01*
X78573333Y-58904285D01*
X78811429Y-58904285D01*
X79001905Y-58951904D01*
X79097143Y-58999523D01*
X79144762Y-59047142D01*
X79192381Y-59142380D01*
X79192381Y-59237619D01*
X79144762Y-59332857D01*
X79097143Y-59380476D01*
X79001905Y-59428095D01*
X78811429Y-59475714D01*
X78573333Y-59475714D01*
X78382857Y-59428095D01*
X78287619Y-59380476D01*
X78240000Y-59332857D01*
X78192381Y-59237619D01*
X78525714Y-58047142D02*
X79192381Y-58047142D01*
X78144762Y-58285238D02*
X78859048Y-58523333D01*
X78859048Y-57904285D01*
X150709524Y-104592381D02*
X150709524Y-103592381D01*
X151090477Y-103592381D01*
X151185715Y-103640000D01*
X151233334Y-103687619D01*
X151280953Y-103782857D01*
X151280953Y-103925714D01*
X151233334Y-104020952D01*
X151185715Y-104068571D01*
X151090477Y-104116190D01*
X150709524Y-104116190D01*
X152233334Y-104592381D02*
X151661905Y-104592381D01*
X151947619Y-104592381D02*
X151947619Y-103592381D01*
X151852381Y-103735238D01*
X151757143Y-103830476D01*
X151661905Y-103878095D01*
X152852381Y-103592381D02*
X152947620Y-103592381D01*
X153042858Y-103640000D01*
X153090477Y-103687619D01*
X153138096Y-103782857D01*
X153185715Y-103973333D01*
X153185715Y-104211429D01*
X153138096Y-104401905D01*
X153090477Y-104497143D01*
X153042858Y-104544762D01*
X152947620Y-104592381D01*
X152852381Y-104592381D01*
X152757143Y-104544762D01*
X152709524Y-104497143D01*
X152661905Y-104401905D01*
X152614286Y-104211429D01*
X152614286Y-103973333D01*
X152661905Y-103782857D01*
X152709524Y-103687619D01*
X152757143Y-103640000D01*
X152852381Y-103592381D01*
X154090477Y-103592381D02*
X153614286Y-103592381D01*
X153566667Y-104068571D01*
X153614286Y-104020952D01*
X153709524Y-103973333D01*
X153947620Y-103973333D01*
X154042858Y-104020952D01*
X154090477Y-104068571D01*
X154138096Y-104163810D01*
X154138096Y-104401905D01*
X154090477Y-104497143D01*
X154042858Y-104544762D01*
X153947620Y-104592381D01*
X153709524Y-104592381D01*
X153614286Y-104544762D01*
X153566667Y-104497143D01*
X168092381Y-85510476D02*
X167092381Y-85510476D01*
X167092381Y-85129523D01*
X167140000Y-85034285D01*
X167187619Y-84986666D01*
X167282857Y-84939047D01*
X167425714Y-84939047D01*
X167520952Y-84986666D01*
X167568571Y-85034285D01*
X167616190Y-85129523D01*
X167616190Y-85510476D01*
X168092381Y-83986666D02*
X168092381Y-84558095D01*
X168092381Y-84272381D02*
X167092381Y-84272381D01*
X167235238Y-84367619D01*
X167330476Y-84462857D01*
X167378095Y-84558095D01*
X167092381Y-83367619D02*
X167092381Y-83272380D01*
X167140000Y-83177142D01*
X167187619Y-83129523D01*
X167282857Y-83081904D01*
X167473333Y-83034285D01*
X167711429Y-83034285D01*
X167901905Y-83081904D01*
X167997143Y-83129523D01*
X168044762Y-83177142D01*
X168092381Y-83272380D01*
X168092381Y-83367619D01*
X168044762Y-83462857D01*
X167997143Y-83510476D01*
X167901905Y-83558095D01*
X167711429Y-83605714D01*
X167473333Y-83605714D01*
X167282857Y-83558095D01*
X167187619Y-83510476D01*
X167140000Y-83462857D01*
X167092381Y-83367619D01*
X167520952Y-82462857D02*
X167473333Y-82558095D01*
X167425714Y-82605714D01*
X167330476Y-82653333D01*
X167282857Y-82653333D01*
X167187619Y-82605714D01*
X167140000Y-82558095D01*
X167092381Y-82462857D01*
X167092381Y-82272380D01*
X167140000Y-82177142D01*
X167187619Y-82129523D01*
X167282857Y-82081904D01*
X167330476Y-82081904D01*
X167425714Y-82129523D01*
X167473333Y-82177142D01*
X167520952Y-82272380D01*
X167520952Y-82462857D01*
X167568571Y-82558095D01*
X167616190Y-82605714D01*
X167711429Y-82653333D01*
X167901905Y-82653333D01*
X167997143Y-82605714D01*
X168044762Y-82558095D01*
X168092381Y-82462857D01*
X168092381Y-82272380D01*
X168044762Y-82177142D01*
X167997143Y-82129523D01*
X167901905Y-82081904D01*
X167711429Y-82081904D01*
X167616190Y-82129523D01*
X167568571Y-82177142D01*
X167520952Y-82272380D01*
X153820953Y-65222381D02*
X153487619Y-64746190D01*
X153249524Y-65222381D02*
X153249524Y-64222381D01*
X153630477Y-64222381D01*
X153725715Y-64270000D01*
X153773334Y-64317619D01*
X153820953Y-64412857D01*
X153820953Y-64555714D01*
X153773334Y-64650952D01*
X153725715Y-64698571D01*
X153630477Y-64746190D01*
X153249524Y-64746190D01*
X154773334Y-65222381D02*
X154201905Y-65222381D01*
X154487619Y-65222381D02*
X154487619Y-64222381D01*
X154392381Y-64365238D01*
X154297143Y-64460476D01*
X154201905Y-64508095D01*
X155392381Y-64222381D02*
X155487620Y-64222381D01*
X155582858Y-64270000D01*
X155630477Y-64317619D01*
X155678096Y-64412857D01*
X155725715Y-64603333D01*
X155725715Y-64841429D01*
X155678096Y-65031905D01*
X155630477Y-65127143D01*
X155582858Y-65174762D01*
X155487620Y-65222381D01*
X155392381Y-65222381D01*
X155297143Y-65174762D01*
X155249524Y-65127143D01*
X155201905Y-65031905D01*
X155154286Y-64841429D01*
X155154286Y-64603333D01*
X155201905Y-64412857D01*
X155249524Y-64317619D01*
X155297143Y-64270000D01*
X155392381Y-64222381D01*
X156678096Y-65222381D02*
X156106667Y-65222381D01*
X156392381Y-65222381D02*
X156392381Y-64222381D01*
X156297143Y-64365238D01*
X156201905Y-64460476D01*
X156106667Y-64508095D01*
X157630953Y-65222381D02*
X157297619Y-64746190D01*
X157059524Y-65222381D02*
X157059524Y-64222381D01*
X157440477Y-64222381D01*
X157535715Y-64270000D01*
X157583334Y-64317619D01*
X157630953Y-64412857D01*
X157630953Y-64555714D01*
X157583334Y-64650952D01*
X157535715Y-64698571D01*
X157440477Y-64746190D01*
X157059524Y-64746190D01*
X158583334Y-65222381D02*
X158011905Y-65222381D01*
X158297619Y-65222381D02*
X158297619Y-64222381D01*
X158202381Y-64365238D01*
X158107143Y-64460476D01*
X158011905Y-64508095D01*
X159202381Y-64222381D02*
X159297620Y-64222381D01*
X159392858Y-64270000D01*
X159440477Y-64317619D01*
X159488096Y-64412857D01*
X159535715Y-64603333D01*
X159535715Y-64841429D01*
X159488096Y-65031905D01*
X159440477Y-65127143D01*
X159392858Y-65174762D01*
X159297620Y-65222381D01*
X159202381Y-65222381D01*
X159107143Y-65174762D01*
X159059524Y-65127143D01*
X159011905Y-65031905D01*
X158964286Y-64841429D01*
X158964286Y-64603333D01*
X159011905Y-64412857D01*
X159059524Y-64317619D01*
X159107143Y-64270000D01*
X159202381Y-64222381D01*
X159916667Y-64317619D02*
X159964286Y-64270000D01*
X160059524Y-64222381D01*
X160297620Y-64222381D01*
X160392858Y-64270000D01*
X160440477Y-64317619D01*
X160488096Y-64412857D01*
X160488096Y-64508095D01*
X160440477Y-64650952D01*
X159869048Y-65222381D01*
X160488096Y-65222381D01*
X145605714Y-77667381D02*
X145605714Y-78476905D01*
X145653333Y-78572143D01*
X145700952Y-78619762D01*
X145796190Y-78667381D01*
X145986667Y-78667381D01*
X146081905Y-78619762D01*
X146129524Y-78572143D01*
X146177143Y-78476905D01*
X146177143Y-77667381D01*
X147177143Y-78667381D02*
X146605714Y-78667381D01*
X146891428Y-78667381D02*
X146891428Y-77667381D01*
X146796190Y-77810238D01*
X146700952Y-77905476D01*
X146605714Y-77953095D01*
X147796190Y-77667381D02*
X147891429Y-77667381D01*
X147986667Y-77715000D01*
X148034286Y-77762619D01*
X148081905Y-77857857D01*
X148129524Y-78048333D01*
X148129524Y-78286429D01*
X148081905Y-78476905D01*
X148034286Y-78572143D01*
X147986667Y-78619762D01*
X147891429Y-78667381D01*
X147796190Y-78667381D01*
X147700952Y-78619762D01*
X147653333Y-78572143D01*
X147605714Y-78476905D01*
X147558095Y-78286429D01*
X147558095Y-78048333D01*
X147605714Y-77857857D01*
X147653333Y-77762619D01*
X147700952Y-77715000D01*
X147796190Y-77667381D01*
X148510476Y-77762619D02*
X148558095Y-77715000D01*
X148653333Y-77667381D01*
X148891429Y-77667381D01*
X148986667Y-77715000D01*
X149034286Y-77762619D01*
X149081905Y-77857857D01*
X149081905Y-77953095D01*
X149034286Y-78095952D01*
X148462857Y-78667381D01*
X149081905Y-78667381D01*
X124015714Y-59142381D02*
X124015714Y-59951905D01*
X124063333Y-60047143D01*
X124110952Y-60094762D01*
X124206190Y-60142381D01*
X124396667Y-60142381D01*
X124491905Y-60094762D01*
X124539524Y-60047143D01*
X124587143Y-59951905D01*
X124587143Y-59142381D01*
X125587143Y-60142381D02*
X125015714Y-60142381D01*
X125301428Y-60142381D02*
X125301428Y-59142381D01*
X125206190Y-59285238D01*
X125110952Y-59380476D01*
X125015714Y-59428095D01*
X126206190Y-59142381D02*
X126301429Y-59142381D01*
X126396667Y-59190000D01*
X126444286Y-59237619D01*
X126491905Y-59332857D01*
X126539524Y-59523333D01*
X126539524Y-59761429D01*
X126491905Y-59951905D01*
X126444286Y-60047143D01*
X126396667Y-60094762D01*
X126301429Y-60142381D01*
X126206190Y-60142381D01*
X126110952Y-60094762D01*
X126063333Y-60047143D01*
X126015714Y-59951905D01*
X125968095Y-59761429D01*
X125968095Y-59523333D01*
X126015714Y-59332857D01*
X126063333Y-59237619D01*
X126110952Y-59190000D01*
X126206190Y-59142381D01*
X126872857Y-59142381D02*
X127491905Y-59142381D01*
X127158571Y-59523333D01*
X127301429Y-59523333D01*
X127396667Y-59570952D01*
X127444286Y-59618571D01*
X127491905Y-59713810D01*
X127491905Y-59951905D01*
X127444286Y-60047143D01*
X127396667Y-60094762D01*
X127301429Y-60142381D01*
X127015714Y-60142381D01*
X126920476Y-60094762D01*
X126872857Y-60047143D01*
X81732381Y-75350476D02*
X80732381Y-75350476D01*
X80732381Y-74969523D01*
X80780000Y-74874285D01*
X80827619Y-74826666D01*
X80922857Y-74779047D01*
X81065714Y-74779047D01*
X81160952Y-74826666D01*
X81208571Y-74874285D01*
X81256190Y-74969523D01*
X81256190Y-75350476D01*
X81732381Y-73826666D02*
X81732381Y-74398095D01*
X81732381Y-74112381D02*
X80732381Y-74112381D01*
X80875238Y-74207619D01*
X80970476Y-74302857D01*
X81018095Y-74398095D01*
X80732381Y-73207619D02*
X80732381Y-73112380D01*
X80780000Y-73017142D01*
X80827619Y-72969523D01*
X80922857Y-72921904D01*
X81113333Y-72874285D01*
X81351429Y-72874285D01*
X81541905Y-72921904D01*
X81637143Y-72969523D01*
X81684762Y-73017142D01*
X81732381Y-73112380D01*
X81732381Y-73207619D01*
X81684762Y-73302857D01*
X81637143Y-73350476D01*
X81541905Y-73398095D01*
X81351429Y-73445714D01*
X81113333Y-73445714D01*
X80922857Y-73398095D01*
X80827619Y-73350476D01*
X80780000Y-73302857D01*
X80732381Y-73207619D01*
X80827619Y-72493333D02*
X80780000Y-72445714D01*
X80732381Y-72350476D01*
X80732381Y-72112380D01*
X80780000Y-72017142D01*
X80827619Y-71969523D01*
X80922857Y-71921904D01*
X81018095Y-71921904D01*
X81160952Y-71969523D01*
X81732381Y-72540952D01*
X81732381Y-71921904D01*
X143089524Y-66492381D02*
X143089524Y-65492381D01*
X143470477Y-65492381D01*
X143565715Y-65540000D01*
X143613334Y-65587619D01*
X143660953Y-65682857D01*
X143660953Y-65825714D01*
X143613334Y-65920952D01*
X143565715Y-65968571D01*
X143470477Y-66016190D01*
X143089524Y-66016190D01*
X144613334Y-66492381D02*
X144041905Y-66492381D01*
X144327619Y-66492381D02*
X144327619Y-65492381D01*
X144232381Y-65635238D01*
X144137143Y-65730476D01*
X144041905Y-65778095D01*
X145232381Y-65492381D02*
X145327620Y-65492381D01*
X145422858Y-65540000D01*
X145470477Y-65587619D01*
X145518096Y-65682857D01*
X145565715Y-65873333D01*
X145565715Y-66111429D01*
X145518096Y-66301905D01*
X145470477Y-66397143D01*
X145422858Y-66444762D01*
X145327620Y-66492381D01*
X145232381Y-66492381D01*
X145137143Y-66444762D01*
X145089524Y-66397143D01*
X145041905Y-66301905D01*
X144994286Y-66111429D01*
X144994286Y-65873333D01*
X145041905Y-65682857D01*
X145089524Y-65587619D01*
X145137143Y-65540000D01*
X145232381Y-65492381D01*
X146518096Y-66492381D02*
X145946667Y-66492381D01*
X146232381Y-66492381D02*
X146232381Y-65492381D01*
X146137143Y-65635238D01*
X146041905Y-65730476D01*
X145946667Y-65778095D01*
X168092381Y-61380476D02*
X167092381Y-61380476D01*
X167092381Y-60999523D01*
X167140000Y-60904285D01*
X167187619Y-60856666D01*
X167282857Y-60809047D01*
X167425714Y-60809047D01*
X167520952Y-60856666D01*
X167568571Y-60904285D01*
X167616190Y-60999523D01*
X167616190Y-61380476D01*
X168092381Y-59856666D02*
X168092381Y-60428095D01*
X168092381Y-60142381D02*
X167092381Y-60142381D01*
X167235238Y-60237619D01*
X167330476Y-60332857D01*
X167378095Y-60428095D01*
X167092381Y-59237619D02*
X167092381Y-59142380D01*
X167140000Y-59047142D01*
X167187619Y-58999523D01*
X167282857Y-58951904D01*
X167473333Y-58904285D01*
X167711429Y-58904285D01*
X167901905Y-58951904D01*
X167997143Y-58999523D01*
X168044762Y-59047142D01*
X168092381Y-59142380D01*
X168092381Y-59237619D01*
X168044762Y-59332857D01*
X167997143Y-59380476D01*
X167901905Y-59428095D01*
X167711429Y-59475714D01*
X167473333Y-59475714D01*
X167282857Y-59428095D01*
X167187619Y-59380476D01*
X167140000Y-59332857D01*
X167092381Y-59237619D01*
X167092381Y-58570952D02*
X167092381Y-57904285D01*
X168092381Y-58332857D01*
X89050953Y-68302143D02*
X89003334Y-68349762D01*
X88860477Y-68397381D01*
X88765239Y-68397381D01*
X88622381Y-68349762D01*
X88527143Y-68254524D01*
X88479524Y-68159286D01*
X88431905Y-67968810D01*
X88431905Y-67825952D01*
X88479524Y-67635476D01*
X88527143Y-67540238D01*
X88622381Y-67445000D01*
X88765239Y-67397381D01*
X88860477Y-67397381D01*
X89003334Y-67445000D01*
X89050953Y-67492619D01*
X90003334Y-68397381D02*
X89431905Y-68397381D01*
X89717619Y-68397381D02*
X89717619Y-67397381D01*
X89622381Y-67540238D01*
X89527143Y-67635476D01*
X89431905Y-67683095D01*
X90622381Y-67397381D02*
X90717620Y-67397381D01*
X90812858Y-67445000D01*
X90860477Y-67492619D01*
X90908096Y-67587857D01*
X90955715Y-67778333D01*
X90955715Y-68016429D01*
X90908096Y-68206905D01*
X90860477Y-68302143D01*
X90812858Y-68349762D01*
X90717620Y-68397381D01*
X90622381Y-68397381D01*
X90527143Y-68349762D01*
X90479524Y-68302143D01*
X90431905Y-68206905D01*
X90384286Y-68016429D01*
X90384286Y-67778333D01*
X90431905Y-67587857D01*
X90479524Y-67492619D01*
X90527143Y-67445000D01*
X90622381Y-67397381D01*
X91908096Y-68397381D02*
X91336667Y-68397381D01*
X91622381Y-68397381D02*
X91622381Y-67397381D01*
X91527143Y-67540238D01*
X91431905Y-67635476D01*
X91336667Y-67683095D01*
X89030953Y-57757143D02*
X88983334Y-57804762D01*
X88840477Y-57852381D01*
X88745239Y-57852381D01*
X88602381Y-57804762D01*
X88507143Y-57709524D01*
X88459524Y-57614286D01*
X88411905Y-57423810D01*
X88411905Y-57280952D01*
X88459524Y-57090476D01*
X88507143Y-56995238D01*
X88602381Y-56900000D01*
X88745239Y-56852381D01*
X88840477Y-56852381D01*
X88983334Y-56900000D01*
X89030953Y-56947619D01*
X89983334Y-57852381D02*
X89411905Y-57852381D01*
X89697619Y-57852381D02*
X89697619Y-56852381D01*
X89602381Y-56995238D01*
X89507143Y-57090476D01*
X89411905Y-57138095D01*
X90602381Y-56852381D02*
X90697620Y-56852381D01*
X90792858Y-56900000D01*
X90840477Y-56947619D01*
X90888096Y-57042857D01*
X90935715Y-57233333D01*
X90935715Y-57471429D01*
X90888096Y-57661905D01*
X90840477Y-57757143D01*
X90792858Y-57804762D01*
X90697620Y-57852381D01*
X90602381Y-57852381D01*
X90507143Y-57804762D01*
X90459524Y-57757143D01*
X90411905Y-57661905D01*
X90364286Y-57471429D01*
X90364286Y-57233333D01*
X90411905Y-57042857D01*
X90459524Y-56947619D01*
X90507143Y-56900000D01*
X90602381Y-56852381D01*
X91316667Y-56947619D02*
X91364286Y-56900000D01*
X91459524Y-56852381D01*
X91697620Y-56852381D01*
X91792858Y-56900000D01*
X91840477Y-56947619D01*
X91888096Y-57042857D01*
X91888096Y-57138095D01*
X91840477Y-57280952D01*
X91269048Y-57852381D01*
X91888096Y-57852381D01*
X114450953Y-103227143D02*
X114403334Y-103274762D01*
X114260477Y-103322381D01*
X114165239Y-103322381D01*
X114022381Y-103274762D01*
X113927143Y-103179524D01*
X113879524Y-103084286D01*
X113831905Y-102893810D01*
X113831905Y-102750952D01*
X113879524Y-102560476D01*
X113927143Y-102465238D01*
X114022381Y-102370000D01*
X114165239Y-102322381D01*
X114260477Y-102322381D01*
X114403334Y-102370000D01*
X114450953Y-102417619D01*
X115403334Y-103322381D02*
X114831905Y-103322381D01*
X115117619Y-103322381D02*
X115117619Y-102322381D01*
X115022381Y-102465238D01*
X114927143Y-102560476D01*
X114831905Y-102608095D01*
X116022381Y-102322381D02*
X116117620Y-102322381D01*
X116212858Y-102370000D01*
X116260477Y-102417619D01*
X116308096Y-102512857D01*
X116355715Y-102703333D01*
X116355715Y-102941429D01*
X116308096Y-103131905D01*
X116260477Y-103227143D01*
X116212858Y-103274762D01*
X116117620Y-103322381D01*
X116022381Y-103322381D01*
X115927143Y-103274762D01*
X115879524Y-103227143D01*
X115831905Y-103131905D01*
X115784286Y-102941429D01*
X115784286Y-102703333D01*
X115831905Y-102512857D01*
X115879524Y-102417619D01*
X115927143Y-102370000D01*
X116022381Y-102322381D01*
X117212858Y-102655714D02*
X117212858Y-103322381D01*
X116974762Y-102274762D02*
X116736667Y-102989048D01*
X117355715Y-102989048D01*
X114752381Y-97004047D02*
X114276190Y-97337381D01*
X114752381Y-97575476D02*
X113752381Y-97575476D01*
X113752381Y-97194523D01*
X113800000Y-97099285D01*
X113847619Y-97051666D01*
X113942857Y-97004047D01*
X114085714Y-97004047D01*
X114180952Y-97051666D01*
X114228571Y-97099285D01*
X114276190Y-97194523D01*
X114276190Y-97575476D01*
X114752381Y-96051666D02*
X114752381Y-96623095D01*
X114752381Y-96337381D02*
X113752381Y-96337381D01*
X113895238Y-96432619D01*
X113990476Y-96527857D01*
X114038095Y-96623095D01*
X113752381Y-95432619D02*
X113752381Y-95337380D01*
X113800000Y-95242142D01*
X113847619Y-95194523D01*
X113942857Y-95146904D01*
X114133333Y-95099285D01*
X114371429Y-95099285D01*
X114561905Y-95146904D01*
X114657143Y-95194523D01*
X114704762Y-95242142D01*
X114752381Y-95337380D01*
X114752381Y-95432619D01*
X114704762Y-95527857D01*
X114657143Y-95575476D01*
X114561905Y-95623095D01*
X114371429Y-95670714D01*
X114133333Y-95670714D01*
X113942857Y-95623095D01*
X113847619Y-95575476D01*
X113800000Y-95527857D01*
X113752381Y-95432619D01*
X113752381Y-94765952D02*
X113752381Y-94146904D01*
X114133333Y-94480238D01*
X114133333Y-94337380D01*
X114180952Y-94242142D01*
X114228571Y-94194523D01*
X114323810Y-94146904D01*
X114561905Y-94146904D01*
X114657143Y-94194523D01*
X114704762Y-94242142D01*
X114752381Y-94337380D01*
X114752381Y-94623095D01*
X114704762Y-94718333D01*
X114657143Y-94765952D01*
X168092381Y-69000476D02*
X167092381Y-69000476D01*
X167092381Y-68619523D01*
X167140000Y-68524285D01*
X167187619Y-68476666D01*
X167282857Y-68429047D01*
X167425714Y-68429047D01*
X167520952Y-68476666D01*
X167568571Y-68524285D01*
X167616190Y-68619523D01*
X167616190Y-69000476D01*
X168092381Y-67476666D02*
X168092381Y-68048095D01*
X168092381Y-67762381D02*
X167092381Y-67762381D01*
X167235238Y-67857619D01*
X167330476Y-67952857D01*
X167378095Y-68048095D01*
X167092381Y-66857619D02*
X167092381Y-66762380D01*
X167140000Y-66667142D01*
X167187619Y-66619523D01*
X167282857Y-66571904D01*
X167473333Y-66524285D01*
X167711429Y-66524285D01*
X167901905Y-66571904D01*
X167997143Y-66619523D01*
X168044762Y-66667142D01*
X168092381Y-66762380D01*
X168092381Y-66857619D01*
X168044762Y-66952857D01*
X167997143Y-67000476D01*
X167901905Y-67048095D01*
X167711429Y-67095714D01*
X167473333Y-67095714D01*
X167282857Y-67048095D01*
X167187619Y-67000476D01*
X167140000Y-66952857D01*
X167092381Y-66857619D01*
X167092381Y-65667142D02*
X167092381Y-65857619D01*
X167140000Y-65952857D01*
X167187619Y-66000476D01*
X167330476Y-66095714D01*
X167520952Y-66143333D01*
X167901905Y-66143333D01*
X167997143Y-66095714D01*
X168044762Y-66048095D01*
X168092381Y-65952857D01*
X168092381Y-65762380D01*
X168044762Y-65667142D01*
X167997143Y-65619523D01*
X167901905Y-65571904D01*
X167663810Y-65571904D01*
X167568571Y-65619523D01*
X167520952Y-65667142D01*
X167473333Y-65762380D01*
X167473333Y-65952857D01*
X167520952Y-66048095D01*
X167568571Y-66095714D01*
X167663810Y-66143333D01*
D13*
X148615571Y-57981905D02*
X148615571Y-58629524D01*
X148653666Y-58705714D01*
X148691762Y-58743810D01*
X148767952Y-58781905D01*
X148920333Y-58781905D01*
X148996524Y-58743810D01*
X149034619Y-58705714D01*
X149072714Y-58629524D01*
X149072714Y-57981905D01*
X149872714Y-58781905D02*
X149415571Y-58781905D01*
X149644142Y-58781905D02*
X149644142Y-57981905D01*
X149567952Y-58096190D01*
X149491761Y-58172381D01*
X149415571Y-58210476D01*
X150367952Y-57981905D02*
X150444143Y-57981905D01*
X150520333Y-58020000D01*
X150558428Y-58058095D01*
X150596524Y-58134286D01*
X150634619Y-58286667D01*
X150634619Y-58477143D01*
X150596524Y-58629524D01*
X150558428Y-58705714D01*
X150520333Y-58743810D01*
X150444143Y-58781905D01*
X150367952Y-58781905D01*
X150291762Y-58743810D01*
X150253666Y-58705714D01*
X150215571Y-58629524D01*
X150177476Y-58477143D01*
X150177476Y-58286667D01*
X150215571Y-58134286D01*
X150253666Y-58058095D01*
X150291762Y-58020000D01*
X150367952Y-57981905D01*
X151396524Y-58781905D02*
X150939381Y-58781905D01*
X151167952Y-58781905D02*
X151167952Y-57981905D01*
X151091762Y-58096190D01*
X151015571Y-58172381D01*
X150939381Y-58210476D01*
M02*
