G04 #@! TF.FileFunction,Soldermask,Top*
%FSLAX46Y46*%
G04 Gerber Fmt 4.6, Leading zero omitted, Abs format (unit mm)*
G04 Created by KiCad (PCBNEW 4.0.4+e1-6308~48~ubuntu15.10.1-stable) date Tue Feb  7 13:56:33 2017*
%MOMM*%
%LPD*%
G01*
G04 APERTURE LIST*
%ADD10C,0.100000*%
%ADD11C,2.200000*%
%ADD12R,1.343000X0.708000*%
%ADD13R,1.400000X0.950000*%
%ADD14R,1.800000X0.750000*%
%ADD15R,0.750000X1.800000*%
%ADD16C,1.600000*%
%ADD17R,1.900000X1.900000*%
%ADD18O,1.900000X1.900000*%
%ADD19R,1.900000X2.200000*%
%ADD20R,2.200000X0.800000*%
%ADD21R,3.200000X1.400000*%
%ADD22R,1.800000X1.800000*%
%ADD23C,1.800000*%
%ADD24R,2.200000X1.900000*%
%ADD25C,6.600000*%
G04 APERTURE END LIST*
D10*
D11*
X107950000Y-107950000D03*
X110490000Y-107950000D03*
X113030000Y-107950000D03*
D12*
X130175000Y-88900000D03*
X130175000Y-86360000D03*
X130175000Y-85090000D03*
X130175000Y-83820000D03*
X130175000Y-82550000D03*
X130175000Y-81280000D03*
X130175000Y-80010000D03*
X136525000Y-80010000D03*
X136525000Y-81280000D03*
X136525000Y-82550000D03*
X136525000Y-83820000D03*
X136525000Y-85090000D03*
X136525000Y-86360000D03*
X136525000Y-87630000D03*
X136525000Y-88900000D03*
X130175000Y-87630000D03*
D13*
X132400000Y-91440000D03*
X134300000Y-91440000D03*
D14*
X98620000Y-63240000D03*
X98620000Y-64040000D03*
X98620000Y-64840000D03*
X98620000Y-65640000D03*
X98620000Y-66440000D03*
X98620000Y-67240000D03*
X98620000Y-68040000D03*
X98620000Y-68840000D03*
D15*
X100070000Y-70290000D03*
X100870000Y-70290000D03*
X101670000Y-70290000D03*
X102470000Y-70290000D03*
X103270000Y-70290000D03*
X104070000Y-70290000D03*
X104870000Y-70290000D03*
X105670000Y-70290000D03*
D14*
X107120000Y-68840000D03*
X107120000Y-68040000D03*
X107120000Y-67240000D03*
X107120000Y-66440000D03*
X107120000Y-65640000D03*
X107120000Y-64840000D03*
X107120000Y-64040000D03*
X107120000Y-63240000D03*
D15*
X105670000Y-61790000D03*
X104870000Y-61790000D03*
X104070000Y-61790000D03*
X103270000Y-61790000D03*
X102470000Y-61790000D03*
X101670000Y-61790000D03*
X100870000Y-61790000D03*
X100070000Y-61790000D03*
D16*
X132080000Y-48260000D03*
X134620000Y-48260000D03*
X134620000Y-50800000D03*
X132080000Y-50800000D03*
D17*
X76200000Y-58420000D03*
D18*
X76200000Y-60960000D03*
D17*
X149860000Y-101600000D03*
D18*
X152400000Y-101600000D03*
X154940000Y-101600000D03*
D17*
X165100000Y-68580000D03*
D18*
X165100000Y-71120000D03*
X165100000Y-73660000D03*
X165100000Y-76200000D03*
X165100000Y-78740000D03*
X165100000Y-81280000D03*
X165100000Y-83820000D03*
X165100000Y-86360000D03*
X165100000Y-88900000D03*
X165100000Y-91440000D03*
D19*
X154940000Y-69310000D03*
X154940000Y-65310000D03*
X158750000Y-69310000D03*
X158750000Y-65310000D03*
D20*
X142620000Y-80010000D03*
X142620000Y-81280000D03*
X142620000Y-82550000D03*
X142620000Y-83820000D03*
X142620000Y-85090000D03*
X142620000Y-86360000D03*
X142620000Y-87630000D03*
X142620000Y-88900000D03*
X142620000Y-90170000D03*
X152020000Y-90170000D03*
X152020000Y-88900000D03*
X152020000Y-87630000D03*
X152020000Y-86360000D03*
X152020000Y-85090000D03*
X152020000Y-83820000D03*
X152020000Y-82550000D03*
X152020000Y-81280000D03*
X152020000Y-80010000D03*
X121030000Y-62230000D03*
X121030000Y-63500000D03*
X121030000Y-64770000D03*
X121030000Y-66040000D03*
X121030000Y-67310000D03*
X121030000Y-68580000D03*
X121030000Y-69850000D03*
X121030000Y-71120000D03*
X121030000Y-72390000D03*
X130430000Y-72390000D03*
X130430000Y-71120000D03*
X130430000Y-69850000D03*
X130430000Y-68580000D03*
X130430000Y-67310000D03*
X130430000Y-66040000D03*
X130430000Y-64770000D03*
X130430000Y-63500000D03*
X130430000Y-62230000D03*
D17*
X76200000Y-71120000D03*
D18*
X78740000Y-71120000D03*
X76200000Y-73660000D03*
X78740000Y-73660000D03*
X76200000Y-76200000D03*
X78740000Y-76200000D03*
D17*
X139700000Y-71120000D03*
D18*
X139700000Y-68580000D03*
X142240000Y-71120000D03*
X142240000Y-68580000D03*
X144780000Y-71120000D03*
X144780000Y-68580000D03*
X147320000Y-71120000D03*
X147320000Y-68580000D03*
D21*
X157510000Y-58420000D03*
X157510000Y-55880000D03*
X157510000Y-53340000D03*
X157510000Y-50800000D03*
X140710000Y-53340000D03*
X140710000Y-50800000D03*
X140710000Y-55880000D03*
X140710000Y-58420000D03*
D17*
X104140000Y-48260000D03*
D18*
X101600000Y-48260000D03*
X99060000Y-48260000D03*
X96520000Y-48260000D03*
X93980000Y-48260000D03*
X91440000Y-48260000D03*
D17*
X165100000Y-58420000D03*
D18*
X165100000Y-60960000D03*
X165100000Y-63500000D03*
X165100000Y-66040000D03*
D13*
X89220000Y-66040000D03*
X91120000Y-66040000D03*
D22*
X88900000Y-60960000D03*
D23*
X91400000Y-60960000D03*
D22*
X113030000Y-100330000D03*
D23*
X110530000Y-100330000D03*
D24*
X113760000Y-95250000D03*
X109760000Y-95250000D03*
D25*
X76200000Y-48260000D03*
X165100000Y-48260000D03*
X165100000Y-107950000D03*
X76200000Y-107950000D03*
M02*
