G04 #@! TF.FileFunction,Copper,L2,Bot,Signal*
%FSLAX46Y46*%
G04 Gerber Fmt 4.6, Leading zero omitted, Abs format (unit mm)*
G04 Created by KiCad (PCBNEW 4.0.4+e1-6308~48~ubuntu15.10.1-stable) date Tue Feb  7 13:56:33 2017*
%MOMM*%
%LPD*%
G01*
G04 APERTURE LIST*
%ADD10C,0.100000*%
%ADD11C,2.000000*%
%ADD12C,1.400000*%
%ADD13R,1.700000X1.700000*%
%ADD14O,1.700000X1.700000*%
%ADD15R,1.600000X1.600000*%
%ADD16C,1.600000*%
%ADD17C,6.400000*%
%ADD18C,0.600000*%
%ADD19C,0.250000*%
%ADD20C,0.254000*%
G04 APERTURE END LIST*
D10*
D11*
X107950000Y-107950000D03*
X110490000Y-107950000D03*
X113030000Y-107950000D03*
D12*
X132080000Y-48260000D03*
X134620000Y-48260000D03*
X134620000Y-50800000D03*
X132080000Y-50800000D03*
D13*
X76200000Y-58420000D03*
D14*
X76200000Y-60960000D03*
D13*
X149860000Y-101600000D03*
D14*
X152400000Y-101600000D03*
X154940000Y-101600000D03*
D13*
X165100000Y-68580000D03*
D14*
X165100000Y-71120000D03*
X165100000Y-73660000D03*
X165100000Y-76200000D03*
X165100000Y-78740000D03*
X165100000Y-81280000D03*
X165100000Y-83820000D03*
X165100000Y-86360000D03*
X165100000Y-88900000D03*
X165100000Y-91440000D03*
D13*
X76200000Y-71120000D03*
D14*
X78740000Y-71120000D03*
X76200000Y-73660000D03*
X78740000Y-73660000D03*
X76200000Y-76200000D03*
X78740000Y-76200000D03*
D13*
X139700000Y-71120000D03*
D14*
X139700000Y-68580000D03*
X142240000Y-71120000D03*
X142240000Y-68580000D03*
X144780000Y-71120000D03*
X144780000Y-68580000D03*
X147320000Y-71120000D03*
X147320000Y-68580000D03*
D13*
X104140000Y-48260000D03*
D14*
X101600000Y-48260000D03*
X99060000Y-48260000D03*
X96520000Y-48260000D03*
X93980000Y-48260000D03*
X91440000Y-48260000D03*
D13*
X165100000Y-58420000D03*
D14*
X165100000Y-60960000D03*
X165100000Y-63500000D03*
X165100000Y-66040000D03*
D15*
X88900000Y-60960000D03*
D16*
X91400000Y-60960000D03*
D15*
X113030000Y-100330000D03*
D16*
X110530000Y-100330000D03*
D17*
X76200000Y-48260000D03*
X165100000Y-48260000D03*
X165100000Y-107950000D03*
X76200000Y-107950000D03*
D18*
X128270000Y-85090000D03*
X127000000Y-97790000D03*
X134620000Y-97790000D03*
X134620000Y-93345000D03*
X114935000Y-67945000D03*
X111125000Y-67945000D03*
X93345000Y-68580000D03*
X132080000Y-77470000D03*
X136525000Y-77470000D03*
X93345000Y-66040000D03*
X96774000Y-66421000D03*
X96901000Y-56769000D03*
X104089200Y-72390000D03*
X102489000Y-72390000D03*
X104076500Y-60325000D03*
X103251000Y-59690000D03*
X102489000Y-64770000D03*
X102489000Y-60325000D03*
X101600000Y-63500000D03*
X100838000Y-64135000D03*
X132715000Y-62230000D03*
X153035000Y-48260000D03*
X153035000Y-57150000D03*
D19*
X134620000Y-95250000D02*
X130810000Y-95250000D01*
X128270000Y-92710000D02*
X128270000Y-85090000D01*
X130810000Y-95250000D02*
X128270000Y-92710000D01*
X110530000Y-99020000D02*
X111760000Y-97790000D01*
X111760000Y-97790000D02*
X127000000Y-97790000D01*
X134620000Y-97790000D02*
X134620000Y-95250000D01*
X134620000Y-95250000D02*
X134620000Y-93345000D01*
X110530000Y-100330000D02*
X110530000Y-99020000D01*
X111125000Y-67945000D02*
X114935000Y-67945000D01*
X110530000Y-100330000D02*
X110530000Y-107910000D01*
X110530000Y-107910000D02*
X110490000Y-107950000D01*
X132080000Y-77470000D02*
X136525000Y-77470000D01*
X139700000Y-74295000D02*
X139700000Y-71120000D01*
X136525000Y-77470000D02*
X139700000Y-74295000D01*
X93345000Y-66040000D02*
X93345000Y-68580000D01*
X96774000Y-66421000D02*
X96393000Y-66040000D01*
X96393000Y-66040000D02*
X93345000Y-66040000D01*
X93345000Y-68580000D02*
X85725000Y-76200000D01*
X85725000Y-76200000D02*
X78740000Y-76200000D01*
X91400000Y-60960000D02*
X91440000Y-60960000D01*
X152400000Y-101600000D02*
X152400000Y-103505000D01*
X104140000Y-52070000D02*
X104140000Y-48260000D01*
X97155000Y-59055000D02*
X104140000Y-52070000D01*
X85725000Y-59055000D02*
X97155000Y-59055000D01*
X74930000Y-69850000D02*
X85725000Y-59055000D01*
X74930000Y-77470000D02*
X74930000Y-69850000D01*
X107315000Y-109855000D02*
X74930000Y-77470000D01*
X111760000Y-109855000D02*
X107315000Y-109855000D01*
X152400000Y-103505000D02*
X146050000Y-109855000D01*
X146050000Y-109855000D02*
X113030000Y-109855000D01*
X113030000Y-109855000D02*
X111760000Y-109855000D01*
X99060000Y-48260000D02*
X100330000Y-46990000D01*
X130810000Y-46990000D02*
X132080000Y-48260000D01*
X100330000Y-46990000D02*
X130810000Y-46990000D01*
X99060000Y-48260000D02*
X99060000Y-54610000D01*
X99060000Y-54610000D02*
X96901000Y-56769000D01*
X76200000Y-58420000D02*
X80010000Y-58420000D01*
X80010000Y-58420000D02*
X80010000Y-58420000D01*
X80010000Y-58420000D02*
X96520000Y-58420000D01*
X96520000Y-58420000D02*
X101600000Y-53340000D01*
X101600000Y-53340000D02*
X101600000Y-48260000D01*
X135255000Y-101600000D02*
X149860000Y-101600000D01*
X127000000Y-93345000D02*
X135255000Y-101600000D01*
X127000000Y-83820000D02*
X127000000Y-93345000D01*
X115570000Y-72390000D02*
X127000000Y-83820000D01*
X104089200Y-72390000D02*
X115570000Y-72390000D01*
X102489000Y-72390000D02*
X102489000Y-102489000D01*
X102489000Y-102489000D02*
X107950000Y-107950000D01*
X161925000Y-60325000D02*
X104076500Y-60325000D01*
X165100000Y-63500000D02*
X161925000Y-60325000D01*
X165100000Y-63500000D02*
X165100000Y-66040000D01*
X165100000Y-58420000D02*
X165100000Y-59690000D01*
X165100000Y-59690000D02*
X165100000Y-60960000D01*
X103251000Y-59690000D02*
X165100000Y-59690000D01*
X78740000Y-78740000D02*
X76200000Y-76200000D01*
X88519000Y-78740000D02*
X78740000Y-78740000D01*
X102489000Y-64770000D02*
X88519000Y-78740000D01*
X111125000Y-50800000D02*
X132080000Y-50800000D01*
X109728000Y-50800000D02*
X111125000Y-50800000D01*
X102489000Y-58039000D02*
X109728000Y-50800000D01*
X102489000Y-60325000D02*
X102489000Y-58039000D01*
X101600000Y-63500000D02*
X102235000Y-63500000D01*
X102235000Y-63500000D02*
X113665000Y-63500000D01*
X113665000Y-63500000D02*
X125095000Y-63500000D01*
X125095000Y-63500000D02*
X142875000Y-63500000D01*
X142875000Y-63500000D02*
X146050000Y-66675000D01*
X146050000Y-66675000D02*
X146050000Y-69850000D01*
X146050000Y-69850000D02*
X144780000Y-71120000D01*
X143510000Y-69850000D02*
X142240000Y-71120000D01*
X143510000Y-66040000D02*
X143510000Y-69850000D01*
X141605000Y-64135000D02*
X143510000Y-66040000D01*
X118237000Y-64135000D02*
X141605000Y-64135000D01*
X115062000Y-64135000D02*
X118237000Y-64135000D01*
X100838000Y-64135000D02*
X115062000Y-64135000D01*
X154940000Y-101600000D02*
X154940000Y-73660000D01*
X143510000Y-62230000D02*
X132715000Y-62230000D01*
X154940000Y-73660000D02*
X143510000Y-62230000D01*
X153035000Y-57150000D02*
X153035000Y-48260000D01*
X113030000Y-107950000D02*
X113030000Y-100330000D01*
D20*
G36*
X169470000Y-112320000D02*
X71830000Y-112320000D01*
X71830000Y-108709482D01*
X72364336Y-108709482D01*
X72946950Y-110119515D01*
X74024811Y-111199259D01*
X75433825Y-111784333D01*
X76959482Y-111785664D01*
X78369515Y-111203050D01*
X79449259Y-110125189D01*
X80034333Y-108716175D01*
X80035664Y-107190518D01*
X79453050Y-105780485D01*
X78375189Y-104700741D01*
X76966175Y-104115667D01*
X75440518Y-104114336D01*
X74030485Y-104696950D01*
X72950741Y-105774811D01*
X72365667Y-107183825D01*
X72364336Y-108709482D01*
X71830000Y-108709482D01*
X71830000Y-69850000D01*
X74170000Y-69850000D01*
X74170000Y-77470000D01*
X74227852Y-77760839D01*
X74392599Y-78007401D01*
X106777599Y-110392401D01*
X107024160Y-110557148D01*
X107315000Y-110615000D01*
X146050000Y-110615000D01*
X146340839Y-110557148D01*
X146587401Y-110392401D01*
X148270320Y-108709482D01*
X161264336Y-108709482D01*
X161846950Y-110119515D01*
X162924811Y-111199259D01*
X164333825Y-111784333D01*
X165859482Y-111785664D01*
X167269515Y-111203050D01*
X168349259Y-110125189D01*
X168934333Y-108716175D01*
X168935664Y-107190518D01*
X168353050Y-105780485D01*
X167275189Y-104700741D01*
X165866175Y-104115667D01*
X164340518Y-104114336D01*
X162930485Y-104696950D01*
X161850741Y-105774811D01*
X161265667Y-107183825D01*
X161264336Y-108709482D01*
X148270320Y-108709482D01*
X152937401Y-104042401D01*
X153102148Y-103795839D01*
X153160000Y-103505000D01*
X153160000Y-102872954D01*
X153450054Y-102679147D01*
X153670000Y-102349974D01*
X153889946Y-102679147D01*
X154371715Y-103001054D01*
X154940000Y-103114093D01*
X155508285Y-103001054D01*
X155990054Y-102679147D01*
X156311961Y-102197378D01*
X156425000Y-101629093D01*
X156425000Y-101570907D01*
X156311961Y-101002622D01*
X155990054Y-100520853D01*
X155700000Y-100327046D01*
X155700000Y-73660000D01*
X155642148Y-73369161D01*
X155477401Y-73122599D01*
X144047401Y-61692599D01*
X143800839Y-61527852D01*
X143510000Y-61470000D01*
X133277463Y-61470000D01*
X133245327Y-61437808D01*
X132901799Y-61295162D01*
X132529833Y-61294838D01*
X132186057Y-61436883D01*
X131922808Y-61699673D01*
X131780162Y-62043201D01*
X131779838Y-62415167D01*
X131914056Y-62740000D01*
X102162463Y-62740000D01*
X102130327Y-62707808D01*
X101786799Y-62565162D01*
X101414833Y-62564838D01*
X101071057Y-62706883D01*
X100807808Y-62969673D01*
X100712213Y-63199890D01*
X100652833Y-63199838D01*
X100309057Y-63341883D01*
X100045808Y-63604673D01*
X99903162Y-63948201D01*
X99902838Y-64320167D01*
X100044883Y-64663943D01*
X100307673Y-64927192D01*
X100651201Y-65069838D01*
X101023167Y-65070162D01*
X101178020Y-65006178D01*
X88204198Y-77980000D01*
X79054802Y-77980000D01*
X78759802Y-77685000D01*
X78867002Y-77685000D01*
X78867002Y-77520820D01*
X79096892Y-77641486D01*
X79621358Y-77395183D01*
X80011645Y-76966924D01*
X80181476Y-76556890D01*
X80060155Y-76327000D01*
X78867000Y-76327000D01*
X78867000Y-76347000D01*
X78613000Y-76347000D01*
X78613000Y-76327000D01*
X78593000Y-76327000D01*
X78593000Y-76073000D01*
X78613000Y-76073000D01*
X78613000Y-76053000D01*
X78867000Y-76053000D01*
X78867000Y-76073000D01*
X80060155Y-76073000D01*
X80181476Y-75843110D01*
X80011645Y-75433076D01*
X79621358Y-75004817D01*
X79478447Y-74937702D01*
X79819147Y-74710054D01*
X80141054Y-74228285D01*
X80254093Y-73660000D01*
X80141054Y-73091715D01*
X79819147Y-72609946D01*
X79489974Y-72390000D01*
X79819147Y-72170054D01*
X80141054Y-71688285D01*
X80254093Y-71120000D01*
X80141054Y-70551715D01*
X79819147Y-70069946D01*
X79337378Y-69748039D01*
X78769093Y-69635000D01*
X78710907Y-69635000D01*
X78142622Y-69748039D01*
X77660853Y-70069946D01*
X77660029Y-70071179D01*
X77653162Y-70034683D01*
X77514090Y-69818559D01*
X77301890Y-69673569D01*
X77050000Y-69622560D01*
X76232242Y-69622560D01*
X86039802Y-59815000D01*
X87567188Y-59815000D01*
X87503569Y-59908110D01*
X87452560Y-60160000D01*
X87452560Y-61760000D01*
X87496838Y-61995317D01*
X87635910Y-62211441D01*
X87848110Y-62356431D01*
X88100000Y-62407440D01*
X89700000Y-62407440D01*
X89935317Y-62363162D01*
X90151441Y-62224090D01*
X90296431Y-62011890D01*
X90305370Y-61967745D01*
X90571861Y-61967745D01*
X90645995Y-62213864D01*
X91183223Y-62406965D01*
X91753454Y-62379778D01*
X92154005Y-62213864D01*
X92228139Y-61967745D01*
X91400000Y-61139605D01*
X90571861Y-61967745D01*
X90305370Y-61967745D01*
X90344646Y-61773799D01*
X90392255Y-61788139D01*
X91220395Y-60960000D01*
X91579605Y-60960000D01*
X92407745Y-61788139D01*
X92653864Y-61714005D01*
X92846965Y-61176777D01*
X92819778Y-60606546D01*
X92653864Y-60205995D01*
X92407745Y-60131861D01*
X91579605Y-60960000D01*
X91220395Y-60960000D01*
X90392255Y-60131861D01*
X90344833Y-60146145D01*
X90303162Y-59924683D01*
X90232583Y-59815000D01*
X90613204Y-59815000D01*
X90571861Y-59952255D01*
X91400000Y-60780395D01*
X92228139Y-59952255D01*
X92186796Y-59815000D01*
X97155000Y-59815000D01*
X97445839Y-59757148D01*
X97692401Y-59592401D01*
X104677401Y-52607401D01*
X104842148Y-52360839D01*
X104900000Y-52070000D01*
X104900000Y-49757440D01*
X104990000Y-49757440D01*
X105225317Y-49713162D01*
X105441441Y-49574090D01*
X105586431Y-49361890D01*
X105637440Y-49110000D01*
X105637440Y-47750000D01*
X130495198Y-47750000D01*
X130745226Y-48000028D01*
X130744769Y-48524383D01*
X130947582Y-49015229D01*
X131322796Y-49391098D01*
X131657527Y-49530091D01*
X131324771Y-49667582D01*
X130951703Y-50040000D01*
X109728000Y-50040000D01*
X109437161Y-50097852D01*
X109190599Y-50262599D01*
X101951599Y-57501599D01*
X101786852Y-57748161D01*
X101729000Y-58039000D01*
X101729000Y-59762537D01*
X101696808Y-59794673D01*
X101554162Y-60138201D01*
X101553838Y-60510167D01*
X101695883Y-60853943D01*
X101958673Y-61117192D01*
X102302201Y-61259838D01*
X102674167Y-61260162D01*
X103017943Y-61118117D01*
X103281192Y-60855327D01*
X103282577Y-60851992D01*
X103283383Y-60853943D01*
X103546173Y-61117192D01*
X103889701Y-61259838D01*
X104261667Y-61260162D01*
X104605443Y-61118117D01*
X104638618Y-61085000D01*
X161610198Y-61085000D01*
X163658790Y-63133592D01*
X163585907Y-63500000D01*
X163698946Y-64068285D01*
X164020853Y-64550054D01*
X164340000Y-64763301D01*
X164340000Y-64776699D01*
X164020853Y-64989946D01*
X163698946Y-65471715D01*
X163585907Y-66040000D01*
X163698946Y-66608285D01*
X164020853Y-67090054D01*
X164062452Y-67117850D01*
X164014683Y-67126838D01*
X163798559Y-67265910D01*
X163653569Y-67478110D01*
X163602560Y-67730000D01*
X163602560Y-69430000D01*
X163646838Y-69665317D01*
X163785910Y-69881441D01*
X163998110Y-70026431D01*
X164065541Y-70040086D01*
X164020853Y-70069946D01*
X163698946Y-70551715D01*
X163585907Y-71120000D01*
X163698946Y-71688285D01*
X164020853Y-72170054D01*
X164350026Y-72390000D01*
X164020853Y-72609946D01*
X163698946Y-73091715D01*
X163585907Y-73660000D01*
X163698946Y-74228285D01*
X164020853Y-74710054D01*
X164350026Y-74930000D01*
X164020853Y-75149946D01*
X163698946Y-75631715D01*
X163585907Y-76200000D01*
X163698946Y-76768285D01*
X164020853Y-77250054D01*
X164350026Y-77470000D01*
X164020853Y-77689946D01*
X163698946Y-78171715D01*
X163585907Y-78740000D01*
X163698946Y-79308285D01*
X164020853Y-79790054D01*
X164350026Y-80010000D01*
X164020853Y-80229946D01*
X163698946Y-80711715D01*
X163585907Y-81280000D01*
X163698946Y-81848285D01*
X164020853Y-82330054D01*
X164350026Y-82550000D01*
X164020853Y-82769946D01*
X163698946Y-83251715D01*
X163585907Y-83820000D01*
X163698946Y-84388285D01*
X164020853Y-84870054D01*
X164350026Y-85090000D01*
X164020853Y-85309946D01*
X163698946Y-85791715D01*
X163585907Y-86360000D01*
X163698946Y-86928285D01*
X164020853Y-87410054D01*
X164350026Y-87630000D01*
X164020853Y-87849946D01*
X163698946Y-88331715D01*
X163585907Y-88900000D01*
X163698946Y-89468285D01*
X164020853Y-89950054D01*
X164350026Y-90170000D01*
X164020853Y-90389946D01*
X163698946Y-90871715D01*
X163585907Y-91440000D01*
X163698946Y-92008285D01*
X164020853Y-92490054D01*
X164502622Y-92811961D01*
X165070907Y-92925000D01*
X165129093Y-92925000D01*
X165697378Y-92811961D01*
X166179147Y-92490054D01*
X166501054Y-92008285D01*
X166614093Y-91440000D01*
X166501054Y-90871715D01*
X166179147Y-90389946D01*
X165849974Y-90170000D01*
X166179147Y-89950054D01*
X166501054Y-89468285D01*
X166614093Y-88900000D01*
X166501054Y-88331715D01*
X166179147Y-87849946D01*
X165849974Y-87630000D01*
X166179147Y-87410054D01*
X166501054Y-86928285D01*
X166614093Y-86360000D01*
X166501054Y-85791715D01*
X166179147Y-85309946D01*
X165849974Y-85090000D01*
X166179147Y-84870054D01*
X166501054Y-84388285D01*
X166614093Y-83820000D01*
X166501054Y-83251715D01*
X166179147Y-82769946D01*
X165849974Y-82550000D01*
X166179147Y-82330054D01*
X166501054Y-81848285D01*
X166614093Y-81280000D01*
X166501054Y-80711715D01*
X166179147Y-80229946D01*
X165849974Y-80010000D01*
X166179147Y-79790054D01*
X166501054Y-79308285D01*
X166614093Y-78740000D01*
X166501054Y-78171715D01*
X166179147Y-77689946D01*
X165849974Y-77470000D01*
X166179147Y-77250054D01*
X166501054Y-76768285D01*
X166614093Y-76200000D01*
X166501054Y-75631715D01*
X166179147Y-75149946D01*
X165849974Y-74930000D01*
X166179147Y-74710054D01*
X166501054Y-74228285D01*
X166614093Y-73660000D01*
X166501054Y-73091715D01*
X166179147Y-72609946D01*
X165849974Y-72390000D01*
X166179147Y-72170054D01*
X166501054Y-71688285D01*
X166614093Y-71120000D01*
X166501054Y-70551715D01*
X166179147Y-70069946D01*
X166137548Y-70042150D01*
X166185317Y-70033162D01*
X166401441Y-69894090D01*
X166546431Y-69681890D01*
X166597440Y-69430000D01*
X166597440Y-67730000D01*
X166553162Y-67494683D01*
X166414090Y-67278559D01*
X166201890Y-67133569D01*
X166134459Y-67119914D01*
X166179147Y-67090054D01*
X166501054Y-66608285D01*
X166614093Y-66040000D01*
X166501054Y-65471715D01*
X166179147Y-64989946D01*
X165860000Y-64776699D01*
X165860000Y-64763301D01*
X166179147Y-64550054D01*
X166501054Y-64068285D01*
X166614093Y-63500000D01*
X166501054Y-62931715D01*
X166179147Y-62449946D01*
X165849974Y-62230000D01*
X166179147Y-62010054D01*
X166501054Y-61528285D01*
X166614093Y-60960000D01*
X166501054Y-60391715D01*
X166179147Y-59909946D01*
X166137548Y-59882150D01*
X166185317Y-59873162D01*
X166401441Y-59734090D01*
X166546431Y-59521890D01*
X166597440Y-59270000D01*
X166597440Y-57570000D01*
X166553162Y-57334683D01*
X166414090Y-57118559D01*
X166201890Y-56973569D01*
X165950000Y-56922560D01*
X164250000Y-56922560D01*
X164014683Y-56966838D01*
X163798559Y-57105910D01*
X163653569Y-57318110D01*
X163602560Y-57570000D01*
X163602560Y-58930000D01*
X103813463Y-58930000D01*
X103781327Y-58897808D01*
X103437799Y-58755162D01*
X103249000Y-58754998D01*
X103249000Y-58353802D01*
X110042802Y-51560000D01*
X130952345Y-51560000D01*
X131322796Y-51931098D01*
X131813287Y-52134768D01*
X132344383Y-52135231D01*
X132835229Y-51932418D01*
X133211098Y-51557204D01*
X133350091Y-51222473D01*
X133487582Y-51555229D01*
X133862796Y-51931098D01*
X134353287Y-52134768D01*
X134884383Y-52135231D01*
X135375229Y-51932418D01*
X135751098Y-51557204D01*
X135954768Y-51066713D01*
X135955231Y-50535617D01*
X135752418Y-50044771D01*
X135377204Y-49668902D01*
X135042473Y-49529909D01*
X135375229Y-49392418D01*
X135751098Y-49017204D01*
X135954768Y-48526713D01*
X135954839Y-48445167D01*
X152099838Y-48445167D01*
X152241883Y-48788943D01*
X152275000Y-48822118D01*
X152275000Y-56587537D01*
X152242808Y-56619673D01*
X152100162Y-56963201D01*
X152099838Y-57335167D01*
X152241883Y-57678943D01*
X152504673Y-57942192D01*
X152848201Y-58084838D01*
X153220167Y-58085162D01*
X153563943Y-57943117D01*
X153827192Y-57680327D01*
X153969838Y-57336799D01*
X153970162Y-56964833D01*
X153828117Y-56621057D01*
X153795000Y-56587882D01*
X153795000Y-49019482D01*
X161264336Y-49019482D01*
X161846950Y-50429515D01*
X162924811Y-51509259D01*
X164333825Y-52094333D01*
X165859482Y-52095664D01*
X167269515Y-51513050D01*
X168349259Y-50435189D01*
X168934333Y-49026175D01*
X168935664Y-47500518D01*
X168353050Y-46090485D01*
X167275189Y-45010741D01*
X165866175Y-44425667D01*
X164340518Y-44424336D01*
X162930485Y-45006950D01*
X161850741Y-46084811D01*
X161265667Y-47493825D01*
X161264336Y-49019482D01*
X153795000Y-49019482D01*
X153795000Y-48822463D01*
X153827192Y-48790327D01*
X153969838Y-48446799D01*
X153970162Y-48074833D01*
X153828117Y-47731057D01*
X153565327Y-47467808D01*
X153221799Y-47325162D01*
X152849833Y-47324838D01*
X152506057Y-47466883D01*
X152242808Y-47729673D01*
X152100162Y-48073201D01*
X152099838Y-48445167D01*
X135954839Y-48445167D01*
X135955231Y-47995617D01*
X135752418Y-47504771D01*
X135377204Y-47128902D01*
X134886713Y-46925232D01*
X134355617Y-46924769D01*
X133864771Y-47127582D01*
X133488902Y-47502796D01*
X133349909Y-47837527D01*
X133212418Y-47504771D01*
X132837204Y-47128902D01*
X132346713Y-46925232D01*
X131819574Y-46924772D01*
X131347401Y-46452599D01*
X131100839Y-46287852D01*
X130810000Y-46230000D01*
X100330000Y-46230000D01*
X100039160Y-46287852D01*
X99792599Y-46452599D01*
X99426408Y-46818790D01*
X99060000Y-46745907D01*
X98491715Y-46858946D01*
X98009946Y-47180853D01*
X97790000Y-47510026D01*
X97570054Y-47180853D01*
X97088285Y-46858946D01*
X96520000Y-46745907D01*
X95951715Y-46858946D01*
X95469946Y-47180853D01*
X95242298Y-47521553D01*
X95175183Y-47378642D01*
X94746924Y-46988355D01*
X94336890Y-46818524D01*
X94107000Y-46939845D01*
X94107000Y-48133000D01*
X94127000Y-48133000D01*
X94127000Y-48387000D01*
X94107000Y-48387000D01*
X94107000Y-49580155D01*
X94336890Y-49701476D01*
X94746924Y-49531645D01*
X95175183Y-49141358D01*
X95242298Y-48998447D01*
X95469946Y-49339147D01*
X95951715Y-49661054D01*
X96520000Y-49774093D01*
X97088285Y-49661054D01*
X97570054Y-49339147D01*
X97790000Y-49009974D01*
X98009946Y-49339147D01*
X98300000Y-49532954D01*
X98300000Y-54295198D01*
X96761320Y-55833878D01*
X96715833Y-55833838D01*
X96372057Y-55975883D01*
X96108808Y-56238673D01*
X95966162Y-56582201D01*
X95965838Y-56954167D01*
X96107883Y-57297943D01*
X96337369Y-57527829D01*
X96205198Y-57660000D01*
X77697440Y-57660000D01*
X77697440Y-57570000D01*
X77653162Y-57334683D01*
X77514090Y-57118559D01*
X77301890Y-56973569D01*
X77050000Y-56922560D01*
X75350000Y-56922560D01*
X75114683Y-56966838D01*
X74898559Y-57105910D01*
X74753569Y-57318110D01*
X74702560Y-57570000D01*
X74702560Y-59270000D01*
X74746838Y-59505317D01*
X74885910Y-59721441D01*
X75098110Y-59866431D01*
X75165541Y-59880086D01*
X75120853Y-59909946D01*
X74798946Y-60391715D01*
X74685907Y-60960000D01*
X74798946Y-61528285D01*
X75120853Y-62010054D01*
X75602622Y-62331961D01*
X76170907Y-62445000D01*
X76229093Y-62445000D01*
X76797378Y-62331961D01*
X77279147Y-62010054D01*
X77601054Y-61528285D01*
X77714093Y-60960000D01*
X77601054Y-60391715D01*
X77279147Y-59909946D01*
X77237548Y-59882150D01*
X77285317Y-59873162D01*
X77501441Y-59734090D01*
X77646431Y-59521890D01*
X77697440Y-59270000D01*
X77697440Y-59180000D01*
X84525198Y-59180000D01*
X74392599Y-69312599D01*
X74227852Y-69559161D01*
X74170000Y-69850000D01*
X71830000Y-69850000D01*
X71830000Y-49019482D01*
X72364336Y-49019482D01*
X72946950Y-50429515D01*
X74024811Y-51509259D01*
X75433825Y-52094333D01*
X76959482Y-52095664D01*
X78369515Y-51513050D01*
X79449259Y-50435189D01*
X80034333Y-49026175D01*
X80034690Y-48616892D01*
X89998514Y-48616892D01*
X90244817Y-49141358D01*
X90673076Y-49531645D01*
X91083110Y-49701476D01*
X91313000Y-49580155D01*
X91313000Y-48387000D01*
X91567000Y-48387000D01*
X91567000Y-49580155D01*
X91796890Y-49701476D01*
X92206924Y-49531645D01*
X92635183Y-49141358D01*
X92710000Y-48982046D01*
X92784817Y-49141358D01*
X93213076Y-49531645D01*
X93623110Y-49701476D01*
X93853000Y-49580155D01*
X93853000Y-48387000D01*
X91567000Y-48387000D01*
X91313000Y-48387000D01*
X90119181Y-48387000D01*
X89998514Y-48616892D01*
X80034690Y-48616892D01*
X80035312Y-47903108D01*
X89998514Y-47903108D01*
X90119181Y-48133000D01*
X91313000Y-48133000D01*
X91313000Y-46939845D01*
X91567000Y-46939845D01*
X91567000Y-48133000D01*
X93853000Y-48133000D01*
X93853000Y-46939845D01*
X93623110Y-46818524D01*
X93213076Y-46988355D01*
X92784817Y-47378642D01*
X92710000Y-47537954D01*
X92635183Y-47378642D01*
X92206924Y-46988355D01*
X91796890Y-46818524D01*
X91567000Y-46939845D01*
X91313000Y-46939845D01*
X91083110Y-46818524D01*
X90673076Y-46988355D01*
X90244817Y-47378642D01*
X89998514Y-47903108D01*
X80035312Y-47903108D01*
X80035664Y-47500518D01*
X79453050Y-46090485D01*
X78375189Y-45010741D01*
X76966175Y-44425667D01*
X75440518Y-44424336D01*
X74030485Y-45006950D01*
X72950741Y-46084811D01*
X72365667Y-47493825D01*
X72364336Y-49019482D01*
X71830000Y-49019482D01*
X71830000Y-43890000D01*
X169470000Y-43890000D01*
X169470000Y-112320000D01*
X169470000Y-112320000D01*
G37*
X169470000Y-112320000D02*
X71830000Y-112320000D01*
X71830000Y-108709482D01*
X72364336Y-108709482D01*
X72946950Y-110119515D01*
X74024811Y-111199259D01*
X75433825Y-111784333D01*
X76959482Y-111785664D01*
X78369515Y-111203050D01*
X79449259Y-110125189D01*
X80034333Y-108716175D01*
X80035664Y-107190518D01*
X79453050Y-105780485D01*
X78375189Y-104700741D01*
X76966175Y-104115667D01*
X75440518Y-104114336D01*
X74030485Y-104696950D01*
X72950741Y-105774811D01*
X72365667Y-107183825D01*
X72364336Y-108709482D01*
X71830000Y-108709482D01*
X71830000Y-69850000D01*
X74170000Y-69850000D01*
X74170000Y-77470000D01*
X74227852Y-77760839D01*
X74392599Y-78007401D01*
X106777599Y-110392401D01*
X107024160Y-110557148D01*
X107315000Y-110615000D01*
X146050000Y-110615000D01*
X146340839Y-110557148D01*
X146587401Y-110392401D01*
X148270320Y-108709482D01*
X161264336Y-108709482D01*
X161846950Y-110119515D01*
X162924811Y-111199259D01*
X164333825Y-111784333D01*
X165859482Y-111785664D01*
X167269515Y-111203050D01*
X168349259Y-110125189D01*
X168934333Y-108716175D01*
X168935664Y-107190518D01*
X168353050Y-105780485D01*
X167275189Y-104700741D01*
X165866175Y-104115667D01*
X164340518Y-104114336D01*
X162930485Y-104696950D01*
X161850741Y-105774811D01*
X161265667Y-107183825D01*
X161264336Y-108709482D01*
X148270320Y-108709482D01*
X152937401Y-104042401D01*
X153102148Y-103795839D01*
X153160000Y-103505000D01*
X153160000Y-102872954D01*
X153450054Y-102679147D01*
X153670000Y-102349974D01*
X153889946Y-102679147D01*
X154371715Y-103001054D01*
X154940000Y-103114093D01*
X155508285Y-103001054D01*
X155990054Y-102679147D01*
X156311961Y-102197378D01*
X156425000Y-101629093D01*
X156425000Y-101570907D01*
X156311961Y-101002622D01*
X155990054Y-100520853D01*
X155700000Y-100327046D01*
X155700000Y-73660000D01*
X155642148Y-73369161D01*
X155477401Y-73122599D01*
X144047401Y-61692599D01*
X143800839Y-61527852D01*
X143510000Y-61470000D01*
X133277463Y-61470000D01*
X133245327Y-61437808D01*
X132901799Y-61295162D01*
X132529833Y-61294838D01*
X132186057Y-61436883D01*
X131922808Y-61699673D01*
X131780162Y-62043201D01*
X131779838Y-62415167D01*
X131914056Y-62740000D01*
X102162463Y-62740000D01*
X102130327Y-62707808D01*
X101786799Y-62565162D01*
X101414833Y-62564838D01*
X101071057Y-62706883D01*
X100807808Y-62969673D01*
X100712213Y-63199890D01*
X100652833Y-63199838D01*
X100309057Y-63341883D01*
X100045808Y-63604673D01*
X99903162Y-63948201D01*
X99902838Y-64320167D01*
X100044883Y-64663943D01*
X100307673Y-64927192D01*
X100651201Y-65069838D01*
X101023167Y-65070162D01*
X101178020Y-65006178D01*
X88204198Y-77980000D01*
X79054802Y-77980000D01*
X78759802Y-77685000D01*
X78867002Y-77685000D01*
X78867002Y-77520820D01*
X79096892Y-77641486D01*
X79621358Y-77395183D01*
X80011645Y-76966924D01*
X80181476Y-76556890D01*
X80060155Y-76327000D01*
X78867000Y-76327000D01*
X78867000Y-76347000D01*
X78613000Y-76347000D01*
X78613000Y-76327000D01*
X78593000Y-76327000D01*
X78593000Y-76073000D01*
X78613000Y-76073000D01*
X78613000Y-76053000D01*
X78867000Y-76053000D01*
X78867000Y-76073000D01*
X80060155Y-76073000D01*
X80181476Y-75843110D01*
X80011645Y-75433076D01*
X79621358Y-75004817D01*
X79478447Y-74937702D01*
X79819147Y-74710054D01*
X80141054Y-74228285D01*
X80254093Y-73660000D01*
X80141054Y-73091715D01*
X79819147Y-72609946D01*
X79489974Y-72390000D01*
X79819147Y-72170054D01*
X80141054Y-71688285D01*
X80254093Y-71120000D01*
X80141054Y-70551715D01*
X79819147Y-70069946D01*
X79337378Y-69748039D01*
X78769093Y-69635000D01*
X78710907Y-69635000D01*
X78142622Y-69748039D01*
X77660853Y-70069946D01*
X77660029Y-70071179D01*
X77653162Y-70034683D01*
X77514090Y-69818559D01*
X77301890Y-69673569D01*
X77050000Y-69622560D01*
X76232242Y-69622560D01*
X86039802Y-59815000D01*
X87567188Y-59815000D01*
X87503569Y-59908110D01*
X87452560Y-60160000D01*
X87452560Y-61760000D01*
X87496838Y-61995317D01*
X87635910Y-62211441D01*
X87848110Y-62356431D01*
X88100000Y-62407440D01*
X89700000Y-62407440D01*
X89935317Y-62363162D01*
X90151441Y-62224090D01*
X90296431Y-62011890D01*
X90305370Y-61967745D01*
X90571861Y-61967745D01*
X90645995Y-62213864D01*
X91183223Y-62406965D01*
X91753454Y-62379778D01*
X92154005Y-62213864D01*
X92228139Y-61967745D01*
X91400000Y-61139605D01*
X90571861Y-61967745D01*
X90305370Y-61967745D01*
X90344646Y-61773799D01*
X90392255Y-61788139D01*
X91220395Y-60960000D01*
X91579605Y-60960000D01*
X92407745Y-61788139D01*
X92653864Y-61714005D01*
X92846965Y-61176777D01*
X92819778Y-60606546D01*
X92653864Y-60205995D01*
X92407745Y-60131861D01*
X91579605Y-60960000D01*
X91220395Y-60960000D01*
X90392255Y-60131861D01*
X90344833Y-60146145D01*
X90303162Y-59924683D01*
X90232583Y-59815000D01*
X90613204Y-59815000D01*
X90571861Y-59952255D01*
X91400000Y-60780395D01*
X92228139Y-59952255D01*
X92186796Y-59815000D01*
X97155000Y-59815000D01*
X97445839Y-59757148D01*
X97692401Y-59592401D01*
X104677401Y-52607401D01*
X104842148Y-52360839D01*
X104900000Y-52070000D01*
X104900000Y-49757440D01*
X104990000Y-49757440D01*
X105225317Y-49713162D01*
X105441441Y-49574090D01*
X105586431Y-49361890D01*
X105637440Y-49110000D01*
X105637440Y-47750000D01*
X130495198Y-47750000D01*
X130745226Y-48000028D01*
X130744769Y-48524383D01*
X130947582Y-49015229D01*
X131322796Y-49391098D01*
X131657527Y-49530091D01*
X131324771Y-49667582D01*
X130951703Y-50040000D01*
X109728000Y-50040000D01*
X109437161Y-50097852D01*
X109190599Y-50262599D01*
X101951599Y-57501599D01*
X101786852Y-57748161D01*
X101729000Y-58039000D01*
X101729000Y-59762537D01*
X101696808Y-59794673D01*
X101554162Y-60138201D01*
X101553838Y-60510167D01*
X101695883Y-60853943D01*
X101958673Y-61117192D01*
X102302201Y-61259838D01*
X102674167Y-61260162D01*
X103017943Y-61118117D01*
X103281192Y-60855327D01*
X103282577Y-60851992D01*
X103283383Y-60853943D01*
X103546173Y-61117192D01*
X103889701Y-61259838D01*
X104261667Y-61260162D01*
X104605443Y-61118117D01*
X104638618Y-61085000D01*
X161610198Y-61085000D01*
X163658790Y-63133592D01*
X163585907Y-63500000D01*
X163698946Y-64068285D01*
X164020853Y-64550054D01*
X164340000Y-64763301D01*
X164340000Y-64776699D01*
X164020853Y-64989946D01*
X163698946Y-65471715D01*
X163585907Y-66040000D01*
X163698946Y-66608285D01*
X164020853Y-67090054D01*
X164062452Y-67117850D01*
X164014683Y-67126838D01*
X163798559Y-67265910D01*
X163653569Y-67478110D01*
X163602560Y-67730000D01*
X163602560Y-69430000D01*
X163646838Y-69665317D01*
X163785910Y-69881441D01*
X163998110Y-70026431D01*
X164065541Y-70040086D01*
X164020853Y-70069946D01*
X163698946Y-70551715D01*
X163585907Y-71120000D01*
X163698946Y-71688285D01*
X164020853Y-72170054D01*
X164350026Y-72390000D01*
X164020853Y-72609946D01*
X163698946Y-73091715D01*
X163585907Y-73660000D01*
X163698946Y-74228285D01*
X164020853Y-74710054D01*
X164350026Y-74930000D01*
X164020853Y-75149946D01*
X163698946Y-75631715D01*
X163585907Y-76200000D01*
X163698946Y-76768285D01*
X164020853Y-77250054D01*
X164350026Y-77470000D01*
X164020853Y-77689946D01*
X163698946Y-78171715D01*
X163585907Y-78740000D01*
X163698946Y-79308285D01*
X164020853Y-79790054D01*
X164350026Y-80010000D01*
X164020853Y-80229946D01*
X163698946Y-80711715D01*
X163585907Y-81280000D01*
X163698946Y-81848285D01*
X164020853Y-82330054D01*
X164350026Y-82550000D01*
X164020853Y-82769946D01*
X163698946Y-83251715D01*
X163585907Y-83820000D01*
X163698946Y-84388285D01*
X164020853Y-84870054D01*
X164350026Y-85090000D01*
X164020853Y-85309946D01*
X163698946Y-85791715D01*
X163585907Y-86360000D01*
X163698946Y-86928285D01*
X164020853Y-87410054D01*
X164350026Y-87630000D01*
X164020853Y-87849946D01*
X163698946Y-88331715D01*
X163585907Y-88900000D01*
X163698946Y-89468285D01*
X164020853Y-89950054D01*
X164350026Y-90170000D01*
X164020853Y-90389946D01*
X163698946Y-90871715D01*
X163585907Y-91440000D01*
X163698946Y-92008285D01*
X164020853Y-92490054D01*
X164502622Y-92811961D01*
X165070907Y-92925000D01*
X165129093Y-92925000D01*
X165697378Y-92811961D01*
X166179147Y-92490054D01*
X166501054Y-92008285D01*
X166614093Y-91440000D01*
X166501054Y-90871715D01*
X166179147Y-90389946D01*
X165849974Y-90170000D01*
X166179147Y-89950054D01*
X166501054Y-89468285D01*
X166614093Y-88900000D01*
X166501054Y-88331715D01*
X166179147Y-87849946D01*
X165849974Y-87630000D01*
X166179147Y-87410054D01*
X166501054Y-86928285D01*
X166614093Y-86360000D01*
X166501054Y-85791715D01*
X166179147Y-85309946D01*
X165849974Y-85090000D01*
X166179147Y-84870054D01*
X166501054Y-84388285D01*
X166614093Y-83820000D01*
X166501054Y-83251715D01*
X166179147Y-82769946D01*
X165849974Y-82550000D01*
X166179147Y-82330054D01*
X166501054Y-81848285D01*
X166614093Y-81280000D01*
X166501054Y-80711715D01*
X166179147Y-80229946D01*
X165849974Y-80010000D01*
X166179147Y-79790054D01*
X166501054Y-79308285D01*
X166614093Y-78740000D01*
X166501054Y-78171715D01*
X166179147Y-77689946D01*
X165849974Y-77470000D01*
X166179147Y-77250054D01*
X166501054Y-76768285D01*
X166614093Y-76200000D01*
X166501054Y-75631715D01*
X166179147Y-75149946D01*
X165849974Y-74930000D01*
X166179147Y-74710054D01*
X166501054Y-74228285D01*
X166614093Y-73660000D01*
X166501054Y-73091715D01*
X166179147Y-72609946D01*
X165849974Y-72390000D01*
X166179147Y-72170054D01*
X166501054Y-71688285D01*
X166614093Y-71120000D01*
X166501054Y-70551715D01*
X166179147Y-70069946D01*
X166137548Y-70042150D01*
X166185317Y-70033162D01*
X166401441Y-69894090D01*
X166546431Y-69681890D01*
X166597440Y-69430000D01*
X166597440Y-67730000D01*
X166553162Y-67494683D01*
X166414090Y-67278559D01*
X166201890Y-67133569D01*
X166134459Y-67119914D01*
X166179147Y-67090054D01*
X166501054Y-66608285D01*
X166614093Y-66040000D01*
X166501054Y-65471715D01*
X166179147Y-64989946D01*
X165860000Y-64776699D01*
X165860000Y-64763301D01*
X166179147Y-64550054D01*
X166501054Y-64068285D01*
X166614093Y-63500000D01*
X166501054Y-62931715D01*
X166179147Y-62449946D01*
X165849974Y-62230000D01*
X166179147Y-62010054D01*
X166501054Y-61528285D01*
X166614093Y-60960000D01*
X166501054Y-60391715D01*
X166179147Y-59909946D01*
X166137548Y-59882150D01*
X166185317Y-59873162D01*
X166401441Y-59734090D01*
X166546431Y-59521890D01*
X166597440Y-59270000D01*
X166597440Y-57570000D01*
X166553162Y-57334683D01*
X166414090Y-57118559D01*
X166201890Y-56973569D01*
X165950000Y-56922560D01*
X164250000Y-56922560D01*
X164014683Y-56966838D01*
X163798559Y-57105910D01*
X163653569Y-57318110D01*
X163602560Y-57570000D01*
X163602560Y-58930000D01*
X103813463Y-58930000D01*
X103781327Y-58897808D01*
X103437799Y-58755162D01*
X103249000Y-58754998D01*
X103249000Y-58353802D01*
X110042802Y-51560000D01*
X130952345Y-51560000D01*
X131322796Y-51931098D01*
X131813287Y-52134768D01*
X132344383Y-52135231D01*
X132835229Y-51932418D01*
X133211098Y-51557204D01*
X133350091Y-51222473D01*
X133487582Y-51555229D01*
X133862796Y-51931098D01*
X134353287Y-52134768D01*
X134884383Y-52135231D01*
X135375229Y-51932418D01*
X135751098Y-51557204D01*
X135954768Y-51066713D01*
X135955231Y-50535617D01*
X135752418Y-50044771D01*
X135377204Y-49668902D01*
X135042473Y-49529909D01*
X135375229Y-49392418D01*
X135751098Y-49017204D01*
X135954768Y-48526713D01*
X135954839Y-48445167D01*
X152099838Y-48445167D01*
X152241883Y-48788943D01*
X152275000Y-48822118D01*
X152275000Y-56587537D01*
X152242808Y-56619673D01*
X152100162Y-56963201D01*
X152099838Y-57335167D01*
X152241883Y-57678943D01*
X152504673Y-57942192D01*
X152848201Y-58084838D01*
X153220167Y-58085162D01*
X153563943Y-57943117D01*
X153827192Y-57680327D01*
X153969838Y-57336799D01*
X153970162Y-56964833D01*
X153828117Y-56621057D01*
X153795000Y-56587882D01*
X153795000Y-49019482D01*
X161264336Y-49019482D01*
X161846950Y-50429515D01*
X162924811Y-51509259D01*
X164333825Y-52094333D01*
X165859482Y-52095664D01*
X167269515Y-51513050D01*
X168349259Y-50435189D01*
X168934333Y-49026175D01*
X168935664Y-47500518D01*
X168353050Y-46090485D01*
X167275189Y-45010741D01*
X165866175Y-44425667D01*
X164340518Y-44424336D01*
X162930485Y-45006950D01*
X161850741Y-46084811D01*
X161265667Y-47493825D01*
X161264336Y-49019482D01*
X153795000Y-49019482D01*
X153795000Y-48822463D01*
X153827192Y-48790327D01*
X153969838Y-48446799D01*
X153970162Y-48074833D01*
X153828117Y-47731057D01*
X153565327Y-47467808D01*
X153221799Y-47325162D01*
X152849833Y-47324838D01*
X152506057Y-47466883D01*
X152242808Y-47729673D01*
X152100162Y-48073201D01*
X152099838Y-48445167D01*
X135954839Y-48445167D01*
X135955231Y-47995617D01*
X135752418Y-47504771D01*
X135377204Y-47128902D01*
X134886713Y-46925232D01*
X134355617Y-46924769D01*
X133864771Y-47127582D01*
X133488902Y-47502796D01*
X133349909Y-47837527D01*
X133212418Y-47504771D01*
X132837204Y-47128902D01*
X132346713Y-46925232D01*
X131819574Y-46924772D01*
X131347401Y-46452599D01*
X131100839Y-46287852D01*
X130810000Y-46230000D01*
X100330000Y-46230000D01*
X100039160Y-46287852D01*
X99792599Y-46452599D01*
X99426408Y-46818790D01*
X99060000Y-46745907D01*
X98491715Y-46858946D01*
X98009946Y-47180853D01*
X97790000Y-47510026D01*
X97570054Y-47180853D01*
X97088285Y-46858946D01*
X96520000Y-46745907D01*
X95951715Y-46858946D01*
X95469946Y-47180853D01*
X95242298Y-47521553D01*
X95175183Y-47378642D01*
X94746924Y-46988355D01*
X94336890Y-46818524D01*
X94107000Y-46939845D01*
X94107000Y-48133000D01*
X94127000Y-48133000D01*
X94127000Y-48387000D01*
X94107000Y-48387000D01*
X94107000Y-49580155D01*
X94336890Y-49701476D01*
X94746924Y-49531645D01*
X95175183Y-49141358D01*
X95242298Y-48998447D01*
X95469946Y-49339147D01*
X95951715Y-49661054D01*
X96520000Y-49774093D01*
X97088285Y-49661054D01*
X97570054Y-49339147D01*
X97790000Y-49009974D01*
X98009946Y-49339147D01*
X98300000Y-49532954D01*
X98300000Y-54295198D01*
X96761320Y-55833878D01*
X96715833Y-55833838D01*
X96372057Y-55975883D01*
X96108808Y-56238673D01*
X95966162Y-56582201D01*
X95965838Y-56954167D01*
X96107883Y-57297943D01*
X96337369Y-57527829D01*
X96205198Y-57660000D01*
X77697440Y-57660000D01*
X77697440Y-57570000D01*
X77653162Y-57334683D01*
X77514090Y-57118559D01*
X77301890Y-56973569D01*
X77050000Y-56922560D01*
X75350000Y-56922560D01*
X75114683Y-56966838D01*
X74898559Y-57105910D01*
X74753569Y-57318110D01*
X74702560Y-57570000D01*
X74702560Y-59270000D01*
X74746838Y-59505317D01*
X74885910Y-59721441D01*
X75098110Y-59866431D01*
X75165541Y-59880086D01*
X75120853Y-59909946D01*
X74798946Y-60391715D01*
X74685907Y-60960000D01*
X74798946Y-61528285D01*
X75120853Y-62010054D01*
X75602622Y-62331961D01*
X76170907Y-62445000D01*
X76229093Y-62445000D01*
X76797378Y-62331961D01*
X77279147Y-62010054D01*
X77601054Y-61528285D01*
X77714093Y-60960000D01*
X77601054Y-60391715D01*
X77279147Y-59909946D01*
X77237548Y-59882150D01*
X77285317Y-59873162D01*
X77501441Y-59734090D01*
X77646431Y-59521890D01*
X77697440Y-59270000D01*
X77697440Y-59180000D01*
X84525198Y-59180000D01*
X74392599Y-69312599D01*
X74227852Y-69559161D01*
X74170000Y-69850000D01*
X71830000Y-69850000D01*
X71830000Y-49019482D01*
X72364336Y-49019482D01*
X72946950Y-50429515D01*
X74024811Y-51509259D01*
X75433825Y-52094333D01*
X76959482Y-52095664D01*
X78369515Y-51513050D01*
X79449259Y-50435189D01*
X80034333Y-49026175D01*
X80034690Y-48616892D01*
X89998514Y-48616892D01*
X90244817Y-49141358D01*
X90673076Y-49531645D01*
X91083110Y-49701476D01*
X91313000Y-49580155D01*
X91313000Y-48387000D01*
X91567000Y-48387000D01*
X91567000Y-49580155D01*
X91796890Y-49701476D01*
X92206924Y-49531645D01*
X92635183Y-49141358D01*
X92710000Y-48982046D01*
X92784817Y-49141358D01*
X93213076Y-49531645D01*
X93623110Y-49701476D01*
X93853000Y-49580155D01*
X93853000Y-48387000D01*
X91567000Y-48387000D01*
X91313000Y-48387000D01*
X90119181Y-48387000D01*
X89998514Y-48616892D01*
X80034690Y-48616892D01*
X80035312Y-47903108D01*
X89998514Y-47903108D01*
X90119181Y-48133000D01*
X91313000Y-48133000D01*
X91313000Y-46939845D01*
X91567000Y-46939845D01*
X91567000Y-48133000D01*
X93853000Y-48133000D01*
X93853000Y-46939845D01*
X93623110Y-46818524D01*
X93213076Y-46988355D01*
X92784817Y-47378642D01*
X92710000Y-47537954D01*
X92635183Y-47378642D01*
X92206924Y-46988355D01*
X91796890Y-46818524D01*
X91567000Y-46939845D01*
X91313000Y-46939845D01*
X91083110Y-46818524D01*
X90673076Y-46988355D01*
X90244817Y-47378642D01*
X89998514Y-47903108D01*
X80035312Y-47903108D01*
X80035664Y-47500518D01*
X79453050Y-46090485D01*
X78375189Y-45010741D01*
X76966175Y-44425667D01*
X75440518Y-44424336D01*
X74030485Y-45006950D01*
X72950741Y-46084811D01*
X72365667Y-47493825D01*
X72364336Y-49019482D01*
X71830000Y-49019482D01*
X71830000Y-43890000D01*
X169470000Y-43890000D01*
X169470000Y-112320000D01*
G36*
X103296083Y-72918943D02*
X103558873Y-73182192D01*
X103902401Y-73324838D01*
X104274367Y-73325162D01*
X104618143Y-73183117D01*
X104651318Y-73150000D01*
X115255198Y-73150000D01*
X126240000Y-84134802D01*
X126240000Y-93345000D01*
X126297852Y-93635839D01*
X126462599Y-93882401D01*
X134717599Y-102137401D01*
X134964161Y-102302148D01*
X135255000Y-102360000D01*
X148362560Y-102360000D01*
X148362560Y-102450000D01*
X148406838Y-102685317D01*
X148545910Y-102901441D01*
X148758110Y-103046431D01*
X149010000Y-103097440D01*
X150710000Y-103097440D01*
X150945317Y-103053162D01*
X151161441Y-102914090D01*
X151306431Y-102701890D01*
X151320086Y-102634459D01*
X151349946Y-102679147D01*
X151640000Y-102872954D01*
X151640000Y-103190198D01*
X145735198Y-109095000D01*
X114197260Y-109095000D01*
X114415278Y-108877363D01*
X114664716Y-108276648D01*
X114665284Y-107626205D01*
X114416894Y-107025057D01*
X113957363Y-106564722D01*
X113790000Y-106495227D01*
X113790000Y-101777440D01*
X113830000Y-101777440D01*
X114065317Y-101733162D01*
X114281441Y-101594090D01*
X114426431Y-101381890D01*
X114477440Y-101130000D01*
X114477440Y-99530000D01*
X114433162Y-99294683D01*
X114294090Y-99078559D01*
X114081890Y-98933569D01*
X113830000Y-98882560D01*
X112230000Y-98882560D01*
X111994683Y-98926838D01*
X111778559Y-99065910D01*
X111633569Y-99278110D01*
X111585354Y-99516201D01*
X111537745Y-99501861D01*
X110709605Y-100330000D01*
X111537745Y-101158139D01*
X111585167Y-101143855D01*
X111626838Y-101365317D01*
X111765910Y-101581441D01*
X111978110Y-101726431D01*
X112230000Y-101777440D01*
X112270000Y-101777440D01*
X112270000Y-106494953D01*
X112105057Y-106563106D01*
X111677438Y-106989978D01*
X111642532Y-106977073D01*
X110669605Y-107950000D01*
X110683748Y-107964143D01*
X110504143Y-108143748D01*
X110490000Y-108129605D01*
X110475858Y-108143748D01*
X110296253Y-107964143D01*
X110310395Y-107950000D01*
X109337468Y-106977073D01*
X109302062Y-106990164D01*
X109109703Y-106797468D01*
X109517073Y-106797468D01*
X110490000Y-107770395D01*
X111462927Y-106797468D01*
X111364264Y-106530613D01*
X110754539Y-106304092D01*
X110104540Y-106328144D01*
X109615736Y-106530613D01*
X109517073Y-106797468D01*
X109109703Y-106797468D01*
X108877363Y-106564722D01*
X108276648Y-106315284D01*
X107626205Y-106314716D01*
X107458721Y-106383919D01*
X103249000Y-102174198D01*
X103249000Y-101337745D01*
X109701861Y-101337745D01*
X109775995Y-101583864D01*
X110313223Y-101776965D01*
X110883454Y-101749778D01*
X111284005Y-101583864D01*
X111358139Y-101337745D01*
X110530000Y-100509605D01*
X109701861Y-101337745D01*
X103249000Y-101337745D01*
X103249000Y-100113223D01*
X109083035Y-100113223D01*
X109110222Y-100683454D01*
X109276136Y-101084005D01*
X109522255Y-101158139D01*
X110350395Y-100330000D01*
X109522255Y-99501861D01*
X109276136Y-99575995D01*
X109083035Y-100113223D01*
X103249000Y-100113223D01*
X103249000Y-99322255D01*
X109701861Y-99322255D01*
X110530000Y-100150395D01*
X111358139Y-99322255D01*
X111284005Y-99076136D01*
X110746777Y-98883035D01*
X110176546Y-98910222D01*
X109775995Y-99076136D01*
X109701861Y-99322255D01*
X103249000Y-99322255D01*
X103249000Y-72952463D01*
X103281192Y-72920327D01*
X103288943Y-72901662D01*
X103296083Y-72918943D01*
X103296083Y-72918943D01*
G37*
X103296083Y-72918943D02*
X103558873Y-73182192D01*
X103902401Y-73324838D01*
X104274367Y-73325162D01*
X104618143Y-73183117D01*
X104651318Y-73150000D01*
X115255198Y-73150000D01*
X126240000Y-84134802D01*
X126240000Y-93345000D01*
X126297852Y-93635839D01*
X126462599Y-93882401D01*
X134717599Y-102137401D01*
X134964161Y-102302148D01*
X135255000Y-102360000D01*
X148362560Y-102360000D01*
X148362560Y-102450000D01*
X148406838Y-102685317D01*
X148545910Y-102901441D01*
X148758110Y-103046431D01*
X149010000Y-103097440D01*
X150710000Y-103097440D01*
X150945317Y-103053162D01*
X151161441Y-102914090D01*
X151306431Y-102701890D01*
X151320086Y-102634459D01*
X151349946Y-102679147D01*
X151640000Y-102872954D01*
X151640000Y-103190198D01*
X145735198Y-109095000D01*
X114197260Y-109095000D01*
X114415278Y-108877363D01*
X114664716Y-108276648D01*
X114665284Y-107626205D01*
X114416894Y-107025057D01*
X113957363Y-106564722D01*
X113790000Y-106495227D01*
X113790000Y-101777440D01*
X113830000Y-101777440D01*
X114065317Y-101733162D01*
X114281441Y-101594090D01*
X114426431Y-101381890D01*
X114477440Y-101130000D01*
X114477440Y-99530000D01*
X114433162Y-99294683D01*
X114294090Y-99078559D01*
X114081890Y-98933569D01*
X113830000Y-98882560D01*
X112230000Y-98882560D01*
X111994683Y-98926838D01*
X111778559Y-99065910D01*
X111633569Y-99278110D01*
X111585354Y-99516201D01*
X111537745Y-99501861D01*
X110709605Y-100330000D01*
X111537745Y-101158139D01*
X111585167Y-101143855D01*
X111626838Y-101365317D01*
X111765910Y-101581441D01*
X111978110Y-101726431D01*
X112230000Y-101777440D01*
X112270000Y-101777440D01*
X112270000Y-106494953D01*
X112105057Y-106563106D01*
X111677438Y-106989978D01*
X111642532Y-106977073D01*
X110669605Y-107950000D01*
X110683748Y-107964143D01*
X110504143Y-108143748D01*
X110490000Y-108129605D01*
X110475858Y-108143748D01*
X110296253Y-107964143D01*
X110310395Y-107950000D01*
X109337468Y-106977073D01*
X109302062Y-106990164D01*
X109109703Y-106797468D01*
X109517073Y-106797468D01*
X110490000Y-107770395D01*
X111462927Y-106797468D01*
X111364264Y-106530613D01*
X110754539Y-106304092D01*
X110104540Y-106328144D01*
X109615736Y-106530613D01*
X109517073Y-106797468D01*
X109109703Y-106797468D01*
X108877363Y-106564722D01*
X108276648Y-106315284D01*
X107626205Y-106314716D01*
X107458721Y-106383919D01*
X103249000Y-102174198D01*
X103249000Y-101337745D01*
X109701861Y-101337745D01*
X109775995Y-101583864D01*
X110313223Y-101776965D01*
X110883454Y-101749778D01*
X111284005Y-101583864D01*
X111358139Y-101337745D01*
X110530000Y-100509605D01*
X109701861Y-101337745D01*
X103249000Y-101337745D01*
X103249000Y-100113223D01*
X109083035Y-100113223D01*
X109110222Y-100683454D01*
X109276136Y-101084005D01*
X109522255Y-101158139D01*
X110350395Y-100330000D01*
X109522255Y-99501861D01*
X109276136Y-99575995D01*
X109083035Y-100113223D01*
X103249000Y-100113223D01*
X103249000Y-99322255D01*
X109701861Y-99322255D01*
X110530000Y-100150395D01*
X111358139Y-99322255D01*
X111284005Y-99076136D01*
X110746777Y-98883035D01*
X110176546Y-98910222D01*
X109775995Y-99076136D01*
X109701861Y-99322255D01*
X103249000Y-99322255D01*
X103249000Y-72952463D01*
X103281192Y-72920327D01*
X103288943Y-72901662D01*
X103296083Y-72918943D01*
G36*
X142750000Y-66354802D02*
X142750000Y-67167352D01*
X142240000Y-67065907D01*
X141671715Y-67178946D01*
X141189946Y-67500853D01*
X140970000Y-67830026D01*
X140750054Y-67500853D01*
X140268285Y-67178946D01*
X139700000Y-67065907D01*
X139131715Y-67178946D01*
X138649946Y-67500853D01*
X138328039Y-67982622D01*
X138215000Y-68550907D01*
X138215000Y-68609093D01*
X138328039Y-69177378D01*
X138649946Y-69659147D01*
X138655858Y-69663097D01*
X138490301Y-69731673D01*
X138311673Y-69910302D01*
X138215000Y-70143691D01*
X138215000Y-70834250D01*
X138373750Y-70993000D01*
X139573000Y-70993000D01*
X139573000Y-70973000D01*
X139827000Y-70973000D01*
X139827000Y-70993000D01*
X139847000Y-70993000D01*
X139847000Y-71247000D01*
X139827000Y-71247000D01*
X139827000Y-72446250D01*
X139985750Y-72605000D01*
X140676310Y-72605000D01*
X140909699Y-72508327D01*
X141088327Y-72329698D01*
X141160597Y-72155223D01*
X141189946Y-72199147D01*
X141671715Y-72521054D01*
X142240000Y-72634093D01*
X142808285Y-72521054D01*
X143290054Y-72199147D01*
X143510000Y-71869974D01*
X143729946Y-72199147D01*
X144211715Y-72521054D01*
X144780000Y-72634093D01*
X145348285Y-72521054D01*
X145830054Y-72199147D01*
X146050000Y-71869974D01*
X146269946Y-72199147D01*
X146751715Y-72521054D01*
X147320000Y-72634093D01*
X147888285Y-72521054D01*
X148370054Y-72199147D01*
X148691961Y-71717378D01*
X148805000Y-71149093D01*
X148805000Y-71090907D01*
X148691961Y-70522622D01*
X148370054Y-70040853D01*
X148084422Y-69850000D01*
X148370054Y-69659147D01*
X148691961Y-69177378D01*
X148805000Y-68609093D01*
X148805000Y-68599802D01*
X154180000Y-73974802D01*
X154180000Y-100327046D01*
X153889946Y-100520853D01*
X153670000Y-100850026D01*
X153450054Y-100520853D01*
X152968285Y-100198946D01*
X152400000Y-100085907D01*
X151831715Y-100198946D01*
X151349946Y-100520853D01*
X151322150Y-100562452D01*
X151313162Y-100514683D01*
X151174090Y-100298559D01*
X150961890Y-100153569D01*
X150710000Y-100102560D01*
X149010000Y-100102560D01*
X148774683Y-100146838D01*
X148558559Y-100285910D01*
X148413569Y-100498110D01*
X148362560Y-100750000D01*
X148362560Y-100840000D01*
X135569802Y-100840000D01*
X127760000Y-93030198D01*
X127760000Y-83820000D01*
X127702148Y-83529161D01*
X127537401Y-83282599D01*
X116107401Y-71852599D01*
X115860839Y-71687852D01*
X115570000Y-71630000D01*
X104651663Y-71630000D01*
X104619527Y-71597808D01*
X104275999Y-71455162D01*
X103904033Y-71454838D01*
X103560257Y-71596883D01*
X103297008Y-71859673D01*
X103289257Y-71878338D01*
X103282117Y-71861057D01*
X103019327Y-71597808D01*
X102675799Y-71455162D01*
X102303833Y-71454838D01*
X101960057Y-71596883D01*
X101696808Y-71859673D01*
X101554162Y-72203201D01*
X101553838Y-72575167D01*
X101695883Y-72918943D01*
X101729000Y-72952118D01*
X101729000Y-102489000D01*
X101786852Y-102779839D01*
X101951599Y-103026401D01*
X106383725Y-107458527D01*
X106315284Y-107623352D01*
X106315147Y-107780345D01*
X76219802Y-77685000D01*
X76229093Y-77685000D01*
X76546969Y-77621771D01*
X78202599Y-79277401D01*
X78449160Y-79442148D01*
X78497414Y-79451746D01*
X78740000Y-79500000D01*
X88519000Y-79500000D01*
X88809839Y-79442148D01*
X89056401Y-79277401D01*
X96928052Y-71405750D01*
X138215000Y-71405750D01*
X138215000Y-72096309D01*
X138311673Y-72329698D01*
X138490301Y-72508327D01*
X138723690Y-72605000D01*
X139414250Y-72605000D01*
X139573000Y-72446250D01*
X139573000Y-71247000D01*
X138373750Y-71247000D01*
X138215000Y-71405750D01*
X96928052Y-71405750D01*
X102628680Y-65705122D01*
X102674167Y-65705162D01*
X103017943Y-65563117D01*
X103281192Y-65300327D01*
X103423838Y-64956799D01*
X103423892Y-64895000D01*
X141290198Y-64895000D01*
X142750000Y-66354802D01*
X142750000Y-66354802D01*
G37*
X142750000Y-66354802D02*
X142750000Y-67167352D01*
X142240000Y-67065907D01*
X141671715Y-67178946D01*
X141189946Y-67500853D01*
X140970000Y-67830026D01*
X140750054Y-67500853D01*
X140268285Y-67178946D01*
X139700000Y-67065907D01*
X139131715Y-67178946D01*
X138649946Y-67500853D01*
X138328039Y-67982622D01*
X138215000Y-68550907D01*
X138215000Y-68609093D01*
X138328039Y-69177378D01*
X138649946Y-69659147D01*
X138655858Y-69663097D01*
X138490301Y-69731673D01*
X138311673Y-69910302D01*
X138215000Y-70143691D01*
X138215000Y-70834250D01*
X138373750Y-70993000D01*
X139573000Y-70993000D01*
X139573000Y-70973000D01*
X139827000Y-70973000D01*
X139827000Y-70993000D01*
X139847000Y-70993000D01*
X139847000Y-71247000D01*
X139827000Y-71247000D01*
X139827000Y-72446250D01*
X139985750Y-72605000D01*
X140676310Y-72605000D01*
X140909699Y-72508327D01*
X141088327Y-72329698D01*
X141160597Y-72155223D01*
X141189946Y-72199147D01*
X141671715Y-72521054D01*
X142240000Y-72634093D01*
X142808285Y-72521054D01*
X143290054Y-72199147D01*
X143510000Y-71869974D01*
X143729946Y-72199147D01*
X144211715Y-72521054D01*
X144780000Y-72634093D01*
X145348285Y-72521054D01*
X145830054Y-72199147D01*
X146050000Y-71869974D01*
X146269946Y-72199147D01*
X146751715Y-72521054D01*
X147320000Y-72634093D01*
X147888285Y-72521054D01*
X148370054Y-72199147D01*
X148691961Y-71717378D01*
X148805000Y-71149093D01*
X148805000Y-71090907D01*
X148691961Y-70522622D01*
X148370054Y-70040853D01*
X148084422Y-69850000D01*
X148370054Y-69659147D01*
X148691961Y-69177378D01*
X148805000Y-68609093D01*
X148805000Y-68599802D01*
X154180000Y-73974802D01*
X154180000Y-100327046D01*
X153889946Y-100520853D01*
X153670000Y-100850026D01*
X153450054Y-100520853D01*
X152968285Y-100198946D01*
X152400000Y-100085907D01*
X151831715Y-100198946D01*
X151349946Y-100520853D01*
X151322150Y-100562452D01*
X151313162Y-100514683D01*
X151174090Y-100298559D01*
X150961890Y-100153569D01*
X150710000Y-100102560D01*
X149010000Y-100102560D01*
X148774683Y-100146838D01*
X148558559Y-100285910D01*
X148413569Y-100498110D01*
X148362560Y-100750000D01*
X148362560Y-100840000D01*
X135569802Y-100840000D01*
X127760000Y-93030198D01*
X127760000Y-83820000D01*
X127702148Y-83529161D01*
X127537401Y-83282599D01*
X116107401Y-71852599D01*
X115860839Y-71687852D01*
X115570000Y-71630000D01*
X104651663Y-71630000D01*
X104619527Y-71597808D01*
X104275999Y-71455162D01*
X103904033Y-71454838D01*
X103560257Y-71596883D01*
X103297008Y-71859673D01*
X103289257Y-71878338D01*
X103282117Y-71861057D01*
X103019327Y-71597808D01*
X102675799Y-71455162D01*
X102303833Y-71454838D01*
X101960057Y-71596883D01*
X101696808Y-71859673D01*
X101554162Y-72203201D01*
X101553838Y-72575167D01*
X101695883Y-72918943D01*
X101729000Y-72952118D01*
X101729000Y-102489000D01*
X101786852Y-102779839D01*
X101951599Y-103026401D01*
X106383725Y-107458527D01*
X106315284Y-107623352D01*
X106315147Y-107780345D01*
X76219802Y-77685000D01*
X76229093Y-77685000D01*
X76546969Y-77621771D01*
X78202599Y-79277401D01*
X78449160Y-79442148D01*
X78497414Y-79451746D01*
X78740000Y-79500000D01*
X88519000Y-79500000D01*
X88809839Y-79442148D01*
X89056401Y-79277401D01*
X96928052Y-71405750D01*
X138215000Y-71405750D01*
X138215000Y-72096309D01*
X138311673Y-72329698D01*
X138490301Y-72508327D01*
X138723690Y-72605000D01*
X139414250Y-72605000D01*
X139573000Y-72446250D01*
X139573000Y-71247000D01*
X138373750Y-71247000D01*
X138215000Y-71405750D01*
X96928052Y-71405750D01*
X102628680Y-65705122D01*
X102674167Y-65705162D01*
X103017943Y-65563117D01*
X103281192Y-65300327D01*
X103423838Y-64956799D01*
X103423892Y-64895000D01*
X141290198Y-64895000D01*
X142750000Y-66354802D01*
M02*
