M48
;DRILL file {KiCad 4.0.4+e1-6308~48~ubuntu15.10.1-stable} date Tue Feb  7 13:56:46 2017
;FORMAT={-:-/ absolute / metric / decimal}
FMAT,2
METRIC,TZ
T1C0.400
T2C0.800
T3C0.813
T4C0.900
T5C1.000
T6C3.200
%
G90
G05
M71
T1
X93.345Y-66.04
X93.345Y-68.58
X96.774Y-66.421
X96.901Y-56.769
X100.838Y-64.135
X101.6Y-63.5
X102.489Y-60.325
X102.489Y-64.77
X102.489Y-72.39
X103.251Y-59.69
X104.076Y-60.325
X104.089Y-72.39
X111.125Y-67.945
X114.935Y-67.945
X127.Y-97.79
X128.27Y-85.09
X132.08Y-77.47
X132.715Y-62.23
X134.62Y-93.345
X134.62Y-97.79
X136.525Y-77.47
X153.035Y-48.26
X153.035Y-57.15
T2
X88.9Y-60.96
X91.4Y-60.96
X110.53Y-100.33
X113.03Y-100.33
T3
X132.08Y-48.26
X132.08Y-50.8
X134.62Y-48.26
X134.62Y-50.8
T4
X107.95Y-107.95
X110.49Y-107.95
X113.03Y-107.95
T5
X76.2Y-58.42
X76.2Y-60.96
X76.2Y-71.12
X76.2Y-73.66
X76.2Y-76.2
X78.74Y-71.12
X78.74Y-73.66
X78.74Y-76.2
X91.44Y-48.26
X93.98Y-48.26
X96.52Y-48.26
X99.06Y-48.26
X101.6Y-48.26
X104.14Y-48.26
X139.7Y-68.58
X139.7Y-71.12
X142.24Y-68.58
X142.24Y-71.12
X144.78Y-68.58
X144.78Y-71.12
X147.32Y-68.58
X147.32Y-71.12
X149.86Y-101.6
X152.4Y-101.6
X154.94Y-101.6
X165.1Y-58.42
X165.1Y-60.96
X165.1Y-63.5
X165.1Y-66.04
X165.1Y-68.58
X165.1Y-71.12
X165.1Y-73.66
X165.1Y-76.2
X165.1Y-78.74
X165.1Y-81.28
X165.1Y-83.82
X165.1Y-86.36
X165.1Y-88.9
X165.1Y-91.44
T6
X76.2Y-48.26
X76.2Y-107.95
X165.1Y-48.26
X165.1Y-107.95
T0
M30
