G04 #@! TF.FileFunction,Soldermask,Bot*
%FSLAX46Y46*%
G04 Gerber Fmt 4.6, Leading zero omitted, Abs format (unit mm)*
G04 Created by KiCad (PCBNEW 4.0.4+e1-6308~48~ubuntu15.10.1-stable) date Tue Feb  7 13:56:33 2017*
%MOMM*%
%LPD*%
G01*
G04 APERTURE LIST*
%ADD10C,0.100000*%
%ADD11C,2.200000*%
%ADD12C,1.600000*%
%ADD13R,1.900000X1.900000*%
%ADD14O,1.900000X1.900000*%
%ADD15R,1.800000X1.800000*%
%ADD16C,1.800000*%
%ADD17C,6.600000*%
G04 APERTURE END LIST*
D10*
D11*
X107950000Y-107950000D03*
X110490000Y-107950000D03*
X113030000Y-107950000D03*
D12*
X132080000Y-48260000D03*
X134620000Y-48260000D03*
X134620000Y-50800000D03*
X132080000Y-50800000D03*
D13*
X76200000Y-58420000D03*
D14*
X76200000Y-60960000D03*
D13*
X149860000Y-101600000D03*
D14*
X152400000Y-101600000D03*
X154940000Y-101600000D03*
D13*
X165100000Y-68580000D03*
D14*
X165100000Y-71120000D03*
X165100000Y-73660000D03*
X165100000Y-76200000D03*
X165100000Y-78740000D03*
X165100000Y-81280000D03*
X165100000Y-83820000D03*
X165100000Y-86360000D03*
X165100000Y-88900000D03*
X165100000Y-91440000D03*
D13*
X76200000Y-71120000D03*
D14*
X78740000Y-71120000D03*
X76200000Y-73660000D03*
X78740000Y-73660000D03*
X76200000Y-76200000D03*
X78740000Y-76200000D03*
D13*
X139700000Y-71120000D03*
D14*
X139700000Y-68580000D03*
X142240000Y-71120000D03*
X142240000Y-68580000D03*
X144780000Y-71120000D03*
X144780000Y-68580000D03*
X147320000Y-71120000D03*
X147320000Y-68580000D03*
D13*
X104140000Y-48260000D03*
D14*
X101600000Y-48260000D03*
X99060000Y-48260000D03*
X96520000Y-48260000D03*
X93980000Y-48260000D03*
X91440000Y-48260000D03*
D13*
X165100000Y-58420000D03*
D14*
X165100000Y-60960000D03*
X165100000Y-63500000D03*
X165100000Y-66040000D03*
D15*
X88900000Y-60960000D03*
D16*
X91400000Y-60960000D03*
D15*
X113030000Y-100330000D03*
D16*
X110530000Y-100330000D03*
D17*
X76200000Y-48260000D03*
X165100000Y-48260000D03*
X165100000Y-107950000D03*
X76200000Y-107950000D03*
M02*
