M48
;DRILL file {KiCad 4.0.4+e1-6308~48~ubuntu15.10.1-stable} date Tue Feb 14 12:35:47 2017
;FORMAT={-:-/ absolute / metric / decimal}
FMAT,2
METRIC,TZ
T1C0.400
T2C0.800
T3C0.813
T4C0.900
T5C1.000
T6C3.200
%
G90
G05
M71
T1
X95.885Y-55.245
X97.79Y-57.15
X100.076Y-68.326
X100.838Y-64.135
X100.838Y-68.961
X101.6Y-57.15
X101.663Y-63.5
X102.489Y-60.325
X102.489Y-72.39
X103.251Y-59.69
X104.076Y-60.325
X104.089Y-72.39
X118.11Y-66.04
X118.11Y-67.31
X128.27Y-85.09
X132.715Y-66.04
X132.715Y-67.31
X133.985Y-76.2
X136.398Y-91.44
X137.16Y-69.215
X138.43Y-69.215
X147.32Y-60.96
T2
X88.9Y-60.96
X91.4Y-60.96
X109.26Y-102.87
X111.76Y-102.87
T3
X132.08Y-46.99
X132.08Y-50.8
X134.62Y-46.99
X134.62Y-50.8
T4
X106.68Y-110.49
X109.22Y-110.49
X111.76Y-110.49
T5
X76.2Y-58.42
X76.2Y-60.96
X76.2Y-71.12
X76.2Y-73.66
X76.2Y-76.2
X78.74Y-71.12
X78.74Y-73.66
X78.74Y-76.2
X91.44Y-48.26
X93.98Y-48.26
X96.52Y-48.26
X99.06Y-48.26
X101.6Y-48.26
X104.14Y-48.26
X140.97Y-68.58
X140.97Y-71.12
X143.51Y-68.58
X143.51Y-71.12
X146.05Y-68.58
X146.05Y-71.12
X148.59Y-68.58
X148.59Y-71.12
X149.86Y-101.6
X152.4Y-101.6
X154.94Y-101.6
X165.1Y-55.88
X165.1Y-58.42
X165.1Y-60.96
X165.1Y-63.5
X165.1Y-66.04
X165.1Y-68.58
X165.1Y-71.12
X165.1Y-73.66
X165.1Y-76.2
X165.1Y-78.74
X165.1Y-81.28
X165.1Y-83.82
X165.1Y-86.36
X165.1Y-88.9
X165.1Y-91.44
X165.1Y-93.98
T6
X74.93Y-48.26
X74.93Y-101.6
X166.37Y-48.26
X166.37Y-101.6
T0
M30
