G04 #@! TF.FileFunction,Legend,Top*
%FSLAX46Y46*%
G04 Gerber Fmt 4.6, Leading zero omitted, Abs format (unit mm)*
G04 Created by KiCad (PCBNEW 4.0.4+e1-6308~48~ubuntu15.10.1-stable) date Fri Oct 20 15:41:00 2017*
%MOMM*%
%LPD*%
G01*
G04 APERTURE LIST*
%ADD10C,0.100000*%
%ADD11C,0.400000*%
%ADD12C,0.150000*%
%ADD13C,0.120000*%
%ADD14C,0.160000*%
G04 APERTURE END LIST*
D10*
D11*
X215765000Y-116125000D02*
X215765000Y-113125000D01*
D12*
X206465000Y-117875000D02*
X206465000Y-111375000D01*
X216465000Y-117875000D02*
X206465000Y-117875000D01*
X216465000Y-111375000D02*
X216465000Y-117875000D01*
X206465000Y-111375000D02*
X216465000Y-111375000D01*
D11*
X195445000Y-116125000D02*
X195445000Y-113125000D01*
D12*
X186145000Y-117875000D02*
X186145000Y-111375000D01*
X196145000Y-117875000D02*
X186145000Y-117875000D01*
X196145000Y-111375000D02*
X196145000Y-117875000D01*
X186145000Y-111375000D02*
X196145000Y-111375000D01*
D11*
X175125000Y-116125000D02*
X175125000Y-113125000D01*
D12*
X165825000Y-117875000D02*
X165825000Y-111375000D01*
X175825000Y-117875000D02*
X165825000Y-117875000D01*
X175825000Y-111375000D02*
X175825000Y-117875000D01*
X165825000Y-111375000D02*
X175825000Y-111375000D01*
D11*
X154805000Y-116125000D02*
X154805000Y-113125000D01*
D12*
X145505000Y-117875000D02*
X145505000Y-111375000D01*
X155505000Y-117875000D02*
X145505000Y-117875000D01*
X155505000Y-111375000D02*
X155505000Y-117875000D01*
X145505000Y-111375000D02*
X155505000Y-111375000D01*
D11*
X134485000Y-116125000D02*
X134485000Y-113125000D01*
D12*
X125185000Y-117875000D02*
X125185000Y-111375000D01*
X135185000Y-117875000D02*
X125185000Y-117875000D01*
X135185000Y-111375000D02*
X135185000Y-117875000D01*
X125185000Y-111375000D02*
X135185000Y-111375000D01*
D11*
X109720000Y-116125000D02*
X109720000Y-113125000D01*
D12*
X100420000Y-117875000D02*
X100420000Y-111375000D01*
X110420000Y-117875000D02*
X100420000Y-117875000D01*
X110420000Y-111375000D02*
X110420000Y-117875000D01*
X100420000Y-111375000D02*
X110420000Y-111375000D01*
D13*
X207915000Y-103070000D02*
X209915000Y-103070000D01*
X209915000Y-105210000D02*
X207915000Y-105210000D01*
X209185000Y-124025000D02*
X211185000Y-124025000D01*
X211185000Y-126165000D02*
X209185000Y-126165000D01*
X188865000Y-124025000D02*
X190865000Y-124025000D01*
X190865000Y-126165000D02*
X188865000Y-126165000D01*
X167275000Y-103070000D02*
X169275000Y-103070000D01*
X169275000Y-105210000D02*
X167275000Y-105210000D01*
X168545000Y-124025000D02*
X170545000Y-124025000D01*
X170545000Y-126165000D02*
X168545000Y-126165000D01*
X146955000Y-103070000D02*
X148955000Y-103070000D01*
X148955000Y-105210000D02*
X146955000Y-105210000D01*
X148225000Y-124025000D02*
X150225000Y-124025000D01*
X150225000Y-126165000D02*
X148225000Y-126165000D01*
X126635000Y-103070000D02*
X128635000Y-103070000D01*
X128635000Y-105210000D02*
X126635000Y-105210000D01*
X127905000Y-124025000D02*
X129905000Y-124025000D01*
X129905000Y-126165000D02*
X127905000Y-126165000D01*
X187595000Y-103070000D02*
X189595000Y-103070000D01*
X189595000Y-105210000D02*
X187595000Y-105210000D01*
X117415000Y-120075000D02*
X120075000Y-120075000D01*
X117415000Y-104775000D02*
X117415000Y-120075000D01*
X120075000Y-104775000D02*
X120075000Y-120075000D01*
X117415000Y-104775000D02*
X120075000Y-104775000D01*
X117415000Y-103505000D02*
X117415000Y-102175000D01*
X117415000Y-102175000D02*
X118745000Y-102175000D01*
X220135000Y-112875000D02*
X218015000Y-112875000D01*
X218015000Y-112875000D02*
X218015000Y-116995000D01*
X218015000Y-116995000D02*
X220135000Y-116995000D01*
X220135000Y-116995000D02*
X220135000Y-112875000D01*
X219075000Y-112105000D02*
X219075000Y-112875000D01*
X219075000Y-117765000D02*
X219075000Y-116995000D01*
X220135000Y-113535000D02*
X218015000Y-113535000D01*
X199815000Y-112875000D02*
X197695000Y-112875000D01*
X197695000Y-112875000D02*
X197695000Y-116995000D01*
X197695000Y-116995000D02*
X199815000Y-116995000D01*
X199815000Y-116995000D02*
X199815000Y-112875000D01*
X198755000Y-112105000D02*
X198755000Y-112875000D01*
X198755000Y-117765000D02*
X198755000Y-116995000D01*
X199815000Y-113535000D02*
X197695000Y-113535000D01*
X179495000Y-112875000D02*
X177375000Y-112875000D01*
X177375000Y-112875000D02*
X177375000Y-116995000D01*
X177375000Y-116995000D02*
X179495000Y-116995000D01*
X179495000Y-116995000D02*
X179495000Y-112875000D01*
X178435000Y-112105000D02*
X178435000Y-112875000D01*
X178435000Y-117765000D02*
X178435000Y-116995000D01*
X179495000Y-113535000D02*
X177375000Y-113535000D01*
X159175000Y-112875000D02*
X157055000Y-112875000D01*
X157055000Y-112875000D02*
X157055000Y-116995000D01*
X157055000Y-116995000D02*
X159175000Y-116995000D01*
X159175000Y-116995000D02*
X159175000Y-112875000D01*
X158115000Y-112105000D02*
X158115000Y-112875000D01*
X158115000Y-117765000D02*
X158115000Y-116995000D01*
X159175000Y-113535000D02*
X157055000Y-113535000D01*
X114090000Y-112875000D02*
X111970000Y-112875000D01*
X111970000Y-112875000D02*
X111970000Y-116995000D01*
X111970000Y-116995000D02*
X114090000Y-116995000D01*
X114090000Y-116995000D02*
X114090000Y-112875000D01*
X113030000Y-112105000D02*
X113030000Y-112875000D01*
X113030000Y-117765000D02*
X113030000Y-116995000D01*
X114090000Y-113535000D02*
X111970000Y-113535000D01*
X138855000Y-112875000D02*
X136735000Y-112875000D01*
X136735000Y-112875000D02*
X136735000Y-116995000D01*
X136735000Y-116995000D02*
X138855000Y-116995000D01*
X138855000Y-116995000D02*
X138855000Y-112875000D01*
X137795000Y-112105000D02*
X137795000Y-112875000D01*
X137795000Y-117765000D02*
X137795000Y-116995000D01*
X138855000Y-113535000D02*
X136735000Y-113535000D01*
D14*
X203752619Y-110851905D02*
X203752619Y-110051905D01*
X204209762Y-110851905D02*
X203866905Y-110394762D01*
X204209762Y-110051905D02*
X203752619Y-110509048D01*
X204971667Y-110851905D02*
X204514524Y-110851905D01*
X204743095Y-110851905D02*
X204743095Y-110051905D01*
X204666905Y-110166190D01*
X204590714Y-110242381D01*
X204514524Y-110280476D01*
X205466905Y-110051905D02*
X205543096Y-110051905D01*
X205619286Y-110090000D01*
X205657381Y-110128095D01*
X205695477Y-110204286D01*
X205733572Y-110356667D01*
X205733572Y-110547143D01*
X205695477Y-110699524D01*
X205657381Y-110775714D01*
X205619286Y-110813810D01*
X205543096Y-110851905D01*
X205466905Y-110851905D01*
X205390715Y-110813810D01*
X205352619Y-110775714D01*
X205314524Y-110699524D01*
X205276429Y-110547143D01*
X205276429Y-110356667D01*
X205314524Y-110204286D01*
X205352619Y-110128095D01*
X205390715Y-110090000D01*
X205466905Y-110051905D01*
X206495477Y-110851905D02*
X206038334Y-110851905D01*
X206266905Y-110851905D02*
X206266905Y-110051905D01*
X206190715Y-110166190D01*
X206114524Y-110242381D01*
X206038334Y-110280476D01*
X183432619Y-110851905D02*
X183432619Y-110051905D01*
X183889762Y-110851905D02*
X183546905Y-110394762D01*
X183889762Y-110051905D02*
X183432619Y-110509048D01*
X184651667Y-110851905D02*
X184194524Y-110851905D01*
X184423095Y-110851905D02*
X184423095Y-110051905D01*
X184346905Y-110166190D01*
X184270714Y-110242381D01*
X184194524Y-110280476D01*
X185146905Y-110051905D02*
X185223096Y-110051905D01*
X185299286Y-110090000D01*
X185337381Y-110128095D01*
X185375477Y-110204286D01*
X185413572Y-110356667D01*
X185413572Y-110547143D01*
X185375477Y-110699524D01*
X185337381Y-110775714D01*
X185299286Y-110813810D01*
X185223096Y-110851905D01*
X185146905Y-110851905D01*
X185070715Y-110813810D01*
X185032619Y-110775714D01*
X184994524Y-110699524D01*
X184956429Y-110547143D01*
X184956429Y-110356667D01*
X184994524Y-110204286D01*
X185032619Y-110128095D01*
X185070715Y-110090000D01*
X185146905Y-110051905D01*
X185718334Y-110128095D02*
X185756429Y-110090000D01*
X185832620Y-110051905D01*
X186023096Y-110051905D01*
X186099286Y-110090000D01*
X186137382Y-110128095D01*
X186175477Y-110204286D01*
X186175477Y-110280476D01*
X186137382Y-110394762D01*
X185680239Y-110851905D01*
X186175477Y-110851905D01*
X163112619Y-110851905D02*
X163112619Y-110051905D01*
X163569762Y-110851905D02*
X163226905Y-110394762D01*
X163569762Y-110051905D02*
X163112619Y-110509048D01*
X164331667Y-110851905D02*
X163874524Y-110851905D01*
X164103095Y-110851905D02*
X164103095Y-110051905D01*
X164026905Y-110166190D01*
X163950714Y-110242381D01*
X163874524Y-110280476D01*
X164826905Y-110051905D02*
X164903096Y-110051905D01*
X164979286Y-110090000D01*
X165017381Y-110128095D01*
X165055477Y-110204286D01*
X165093572Y-110356667D01*
X165093572Y-110547143D01*
X165055477Y-110699524D01*
X165017381Y-110775714D01*
X164979286Y-110813810D01*
X164903096Y-110851905D01*
X164826905Y-110851905D01*
X164750715Y-110813810D01*
X164712619Y-110775714D01*
X164674524Y-110699524D01*
X164636429Y-110547143D01*
X164636429Y-110356667D01*
X164674524Y-110204286D01*
X164712619Y-110128095D01*
X164750715Y-110090000D01*
X164826905Y-110051905D01*
X165360239Y-110051905D02*
X165855477Y-110051905D01*
X165588810Y-110356667D01*
X165703096Y-110356667D01*
X165779286Y-110394762D01*
X165817382Y-110432857D01*
X165855477Y-110509048D01*
X165855477Y-110699524D01*
X165817382Y-110775714D01*
X165779286Y-110813810D01*
X165703096Y-110851905D01*
X165474524Y-110851905D01*
X165398334Y-110813810D01*
X165360239Y-110775714D01*
X142792619Y-110851905D02*
X142792619Y-110051905D01*
X143249762Y-110851905D02*
X142906905Y-110394762D01*
X143249762Y-110051905D02*
X142792619Y-110509048D01*
X144011667Y-110851905D02*
X143554524Y-110851905D01*
X143783095Y-110851905D02*
X143783095Y-110051905D01*
X143706905Y-110166190D01*
X143630714Y-110242381D01*
X143554524Y-110280476D01*
X144506905Y-110051905D02*
X144583096Y-110051905D01*
X144659286Y-110090000D01*
X144697381Y-110128095D01*
X144735477Y-110204286D01*
X144773572Y-110356667D01*
X144773572Y-110547143D01*
X144735477Y-110699524D01*
X144697381Y-110775714D01*
X144659286Y-110813810D01*
X144583096Y-110851905D01*
X144506905Y-110851905D01*
X144430715Y-110813810D01*
X144392619Y-110775714D01*
X144354524Y-110699524D01*
X144316429Y-110547143D01*
X144316429Y-110356667D01*
X144354524Y-110204286D01*
X144392619Y-110128095D01*
X144430715Y-110090000D01*
X144506905Y-110051905D01*
X145459286Y-110318571D02*
X145459286Y-110851905D01*
X145268810Y-110013810D02*
X145078334Y-110585238D01*
X145573572Y-110585238D01*
X122472619Y-110851905D02*
X122472619Y-110051905D01*
X122929762Y-110851905D02*
X122586905Y-110394762D01*
X122929762Y-110051905D02*
X122472619Y-110509048D01*
X123691667Y-110851905D02*
X123234524Y-110851905D01*
X123463095Y-110851905D02*
X123463095Y-110051905D01*
X123386905Y-110166190D01*
X123310714Y-110242381D01*
X123234524Y-110280476D01*
X124186905Y-110051905D02*
X124263096Y-110051905D01*
X124339286Y-110090000D01*
X124377381Y-110128095D01*
X124415477Y-110204286D01*
X124453572Y-110356667D01*
X124453572Y-110547143D01*
X124415477Y-110699524D01*
X124377381Y-110775714D01*
X124339286Y-110813810D01*
X124263096Y-110851905D01*
X124186905Y-110851905D01*
X124110715Y-110813810D01*
X124072619Y-110775714D01*
X124034524Y-110699524D01*
X123996429Y-110547143D01*
X123996429Y-110356667D01*
X124034524Y-110204286D01*
X124072619Y-110128095D01*
X124110715Y-110090000D01*
X124186905Y-110051905D01*
X125177382Y-110051905D02*
X124796429Y-110051905D01*
X124758334Y-110432857D01*
X124796429Y-110394762D01*
X124872620Y-110356667D01*
X125063096Y-110356667D01*
X125139286Y-110394762D01*
X125177382Y-110432857D01*
X125215477Y-110509048D01*
X125215477Y-110699524D01*
X125177382Y-110775714D01*
X125139286Y-110813810D01*
X125063096Y-110851905D01*
X124872620Y-110851905D01*
X124796429Y-110813810D01*
X124758334Y-110775714D01*
X97707619Y-110851905D02*
X97707619Y-110051905D01*
X98164762Y-110851905D02*
X97821905Y-110394762D01*
X98164762Y-110051905D02*
X97707619Y-110509048D01*
X98926667Y-110851905D02*
X98469524Y-110851905D01*
X98698095Y-110851905D02*
X98698095Y-110051905D01*
X98621905Y-110166190D01*
X98545714Y-110242381D01*
X98469524Y-110280476D01*
X99421905Y-110051905D02*
X99498096Y-110051905D01*
X99574286Y-110090000D01*
X99612381Y-110128095D01*
X99650477Y-110204286D01*
X99688572Y-110356667D01*
X99688572Y-110547143D01*
X99650477Y-110699524D01*
X99612381Y-110775714D01*
X99574286Y-110813810D01*
X99498096Y-110851905D01*
X99421905Y-110851905D01*
X99345715Y-110813810D01*
X99307619Y-110775714D01*
X99269524Y-110699524D01*
X99231429Y-110547143D01*
X99231429Y-110356667D01*
X99269524Y-110204286D01*
X99307619Y-110128095D01*
X99345715Y-110090000D01*
X99421905Y-110051905D01*
X100374286Y-110051905D02*
X100221905Y-110051905D01*
X100145715Y-110090000D01*
X100107620Y-110128095D01*
X100031429Y-110242381D01*
X99993334Y-110394762D01*
X99993334Y-110699524D01*
X100031429Y-110775714D01*
X100069524Y-110813810D01*
X100145715Y-110851905D01*
X100298096Y-110851905D01*
X100374286Y-110813810D01*
X100412382Y-110775714D01*
X100450477Y-110699524D01*
X100450477Y-110509048D01*
X100412382Y-110432857D01*
X100374286Y-110394762D01*
X100298096Y-110356667D01*
X100145715Y-110356667D01*
X100069524Y-110394762D01*
X100031429Y-110432857D01*
X99993334Y-110509048D01*
D12*
X220130952Y-106497381D02*
X220130952Y-105497381D01*
X220511905Y-105497381D01*
X220607143Y-105545000D01*
X220654762Y-105592619D01*
X220702381Y-105687857D01*
X220702381Y-105830714D01*
X220654762Y-105925952D01*
X220607143Y-105973571D01*
X220511905Y-106021190D01*
X220130952Y-106021190D01*
X221083333Y-106211667D02*
X221559524Y-106211667D01*
X220988095Y-106497381D02*
X221321428Y-105497381D01*
X221654762Y-106497381D01*
X222511905Y-106497381D02*
X221940476Y-106497381D01*
X222226190Y-106497381D02*
X222226190Y-105497381D01*
X222130952Y-105640238D01*
X222035714Y-105735476D01*
X221940476Y-105783095D01*
X223130952Y-105497381D02*
X223226191Y-105497381D01*
X223321429Y-105545000D01*
X223369048Y-105592619D01*
X223416667Y-105687857D01*
X223464286Y-105878333D01*
X223464286Y-106116429D01*
X223416667Y-106306905D01*
X223369048Y-106402143D01*
X223321429Y-106449762D01*
X223226191Y-106497381D01*
X223130952Y-106497381D01*
X223035714Y-106449762D01*
X222988095Y-106402143D01*
X222940476Y-106306905D01*
X222892857Y-106116429D01*
X222892857Y-105878333D01*
X222940476Y-105687857D01*
X222988095Y-105592619D01*
X223035714Y-105545000D01*
X223130952Y-105497381D01*
X224416667Y-106497381D02*
X223845238Y-106497381D01*
X224130952Y-106497381D02*
X224130952Y-105497381D01*
X224035714Y-105640238D01*
X223940476Y-105735476D01*
X223845238Y-105783095D01*
X220130952Y-118562381D02*
X220130952Y-117562381D01*
X220511905Y-117562381D01*
X220607143Y-117610000D01*
X220654762Y-117657619D01*
X220702381Y-117752857D01*
X220702381Y-117895714D01*
X220654762Y-117990952D01*
X220607143Y-118038571D01*
X220511905Y-118086190D01*
X220130952Y-118086190D01*
X221083333Y-118276667D02*
X221559524Y-118276667D01*
X220988095Y-118562381D02*
X221321428Y-117562381D01*
X221654762Y-118562381D01*
X222511905Y-118562381D02*
X221940476Y-118562381D01*
X222226190Y-118562381D02*
X222226190Y-117562381D01*
X222130952Y-117705238D01*
X222035714Y-117800476D01*
X221940476Y-117848095D01*
X223130952Y-117562381D02*
X223226191Y-117562381D01*
X223321429Y-117610000D01*
X223369048Y-117657619D01*
X223416667Y-117752857D01*
X223464286Y-117943333D01*
X223464286Y-118181429D01*
X223416667Y-118371905D01*
X223369048Y-118467143D01*
X223321429Y-118514762D01*
X223226191Y-118562381D01*
X223130952Y-118562381D01*
X223035714Y-118514762D01*
X222988095Y-118467143D01*
X222940476Y-118371905D01*
X222892857Y-118181429D01*
X222892857Y-117943333D01*
X222940476Y-117752857D01*
X222988095Y-117657619D01*
X223035714Y-117610000D01*
X223130952Y-117562381D01*
X223845238Y-117657619D02*
X223892857Y-117610000D01*
X223988095Y-117562381D01*
X224226191Y-117562381D01*
X224321429Y-117610000D01*
X224369048Y-117657619D01*
X224416667Y-117752857D01*
X224416667Y-117848095D01*
X224369048Y-117990952D01*
X223797619Y-118562381D01*
X224416667Y-118562381D01*
X91225952Y-109037381D02*
X91225952Y-108037381D01*
X91606905Y-108037381D01*
X91702143Y-108085000D01*
X91749762Y-108132619D01*
X91797381Y-108227857D01*
X91797381Y-108370714D01*
X91749762Y-108465952D01*
X91702143Y-108513571D01*
X91606905Y-108561190D01*
X91225952Y-108561190D01*
X92178333Y-108751667D02*
X92654524Y-108751667D01*
X92083095Y-109037381D02*
X92416428Y-108037381D01*
X92749762Y-109037381D01*
X93606905Y-109037381D02*
X93035476Y-109037381D01*
X93321190Y-109037381D02*
X93321190Y-108037381D01*
X93225952Y-108180238D01*
X93130714Y-108275476D01*
X93035476Y-108323095D01*
X94225952Y-108037381D02*
X94321191Y-108037381D01*
X94416429Y-108085000D01*
X94464048Y-108132619D01*
X94511667Y-108227857D01*
X94559286Y-108418333D01*
X94559286Y-108656429D01*
X94511667Y-108846905D01*
X94464048Y-108942143D01*
X94416429Y-108989762D01*
X94321191Y-109037381D01*
X94225952Y-109037381D01*
X94130714Y-108989762D01*
X94083095Y-108942143D01*
X94035476Y-108846905D01*
X93987857Y-108656429D01*
X93987857Y-108418333D01*
X94035476Y-108227857D01*
X94083095Y-108132619D01*
X94130714Y-108085000D01*
X94225952Y-108037381D01*
X94892619Y-108037381D02*
X95511667Y-108037381D01*
X95178333Y-108418333D01*
X95321191Y-108418333D01*
X95416429Y-108465952D01*
X95464048Y-108513571D01*
X95511667Y-108608810D01*
X95511667Y-108846905D01*
X95464048Y-108942143D01*
X95416429Y-108989762D01*
X95321191Y-109037381D01*
X95035476Y-109037381D01*
X94940238Y-108989762D01*
X94892619Y-108942143D01*
X91225952Y-116022381D02*
X91225952Y-115022381D01*
X91606905Y-115022381D01*
X91702143Y-115070000D01*
X91749762Y-115117619D01*
X91797381Y-115212857D01*
X91797381Y-115355714D01*
X91749762Y-115450952D01*
X91702143Y-115498571D01*
X91606905Y-115546190D01*
X91225952Y-115546190D01*
X92178333Y-115736667D02*
X92654524Y-115736667D01*
X92083095Y-116022381D02*
X92416428Y-115022381D01*
X92749762Y-116022381D01*
X93606905Y-116022381D02*
X93035476Y-116022381D01*
X93321190Y-116022381D02*
X93321190Y-115022381D01*
X93225952Y-115165238D01*
X93130714Y-115260476D01*
X93035476Y-115308095D01*
X94225952Y-115022381D02*
X94321191Y-115022381D01*
X94416429Y-115070000D01*
X94464048Y-115117619D01*
X94511667Y-115212857D01*
X94559286Y-115403333D01*
X94559286Y-115641429D01*
X94511667Y-115831905D01*
X94464048Y-115927143D01*
X94416429Y-115974762D01*
X94321191Y-116022381D01*
X94225952Y-116022381D01*
X94130714Y-115974762D01*
X94083095Y-115927143D01*
X94035476Y-115831905D01*
X93987857Y-115641429D01*
X93987857Y-115403333D01*
X94035476Y-115212857D01*
X94083095Y-115117619D01*
X94130714Y-115070000D01*
X94225952Y-115022381D01*
X95416429Y-115355714D02*
X95416429Y-116022381D01*
X95178333Y-114974762D02*
X94940238Y-115689048D01*
X95559286Y-115689048D01*
X220059524Y-101417381D02*
X220059524Y-100417381D01*
X220440477Y-100417381D01*
X220535715Y-100465000D01*
X220583334Y-100512619D01*
X220630953Y-100607857D01*
X220630953Y-100750714D01*
X220583334Y-100845952D01*
X220535715Y-100893571D01*
X220440477Y-100941190D01*
X220059524Y-100941190D01*
X221392858Y-100893571D02*
X221535715Y-100941190D01*
X221583334Y-100988810D01*
X221630953Y-101084048D01*
X221630953Y-101226905D01*
X221583334Y-101322143D01*
X221535715Y-101369762D01*
X221440477Y-101417381D01*
X221059524Y-101417381D01*
X221059524Y-100417381D01*
X221392858Y-100417381D01*
X221488096Y-100465000D01*
X221535715Y-100512619D01*
X221583334Y-100607857D01*
X221583334Y-100703095D01*
X221535715Y-100798333D01*
X221488096Y-100845952D01*
X221392858Y-100893571D01*
X221059524Y-100893571D01*
X222583334Y-101417381D02*
X222011905Y-101417381D01*
X222297619Y-101417381D02*
X222297619Y-100417381D01*
X222202381Y-100560238D01*
X222107143Y-100655476D01*
X222011905Y-100703095D01*
X223202381Y-100417381D02*
X223297620Y-100417381D01*
X223392858Y-100465000D01*
X223440477Y-100512619D01*
X223488096Y-100607857D01*
X223535715Y-100798333D01*
X223535715Y-101036429D01*
X223488096Y-101226905D01*
X223440477Y-101322143D01*
X223392858Y-101369762D01*
X223297620Y-101417381D01*
X223202381Y-101417381D01*
X223107143Y-101369762D01*
X223059524Y-101322143D01*
X223011905Y-101226905D01*
X222964286Y-101036429D01*
X222964286Y-100798333D01*
X223011905Y-100607857D01*
X223059524Y-100512619D01*
X223107143Y-100465000D01*
X223202381Y-100417381D01*
X224488096Y-101417381D02*
X223916667Y-101417381D01*
X224202381Y-101417381D02*
X224202381Y-100417381D01*
X224107143Y-100560238D01*
X224011905Y-100655476D01*
X223916667Y-100703095D01*
X220059524Y-123642381D02*
X220059524Y-122642381D01*
X220440477Y-122642381D01*
X220535715Y-122690000D01*
X220583334Y-122737619D01*
X220630953Y-122832857D01*
X220630953Y-122975714D01*
X220583334Y-123070952D01*
X220535715Y-123118571D01*
X220440477Y-123166190D01*
X220059524Y-123166190D01*
X221392858Y-123118571D02*
X221535715Y-123166190D01*
X221583334Y-123213810D01*
X221630953Y-123309048D01*
X221630953Y-123451905D01*
X221583334Y-123547143D01*
X221535715Y-123594762D01*
X221440477Y-123642381D01*
X221059524Y-123642381D01*
X221059524Y-122642381D01*
X221392858Y-122642381D01*
X221488096Y-122690000D01*
X221535715Y-122737619D01*
X221583334Y-122832857D01*
X221583334Y-122928095D01*
X221535715Y-123023333D01*
X221488096Y-123070952D01*
X221392858Y-123118571D01*
X221059524Y-123118571D01*
X222583334Y-123642381D02*
X222011905Y-123642381D01*
X222297619Y-123642381D02*
X222297619Y-122642381D01*
X222202381Y-122785238D01*
X222107143Y-122880476D01*
X222011905Y-122928095D01*
X223202381Y-122642381D02*
X223297620Y-122642381D01*
X223392858Y-122690000D01*
X223440477Y-122737619D01*
X223488096Y-122832857D01*
X223535715Y-123023333D01*
X223535715Y-123261429D01*
X223488096Y-123451905D01*
X223440477Y-123547143D01*
X223392858Y-123594762D01*
X223297620Y-123642381D01*
X223202381Y-123642381D01*
X223107143Y-123594762D01*
X223059524Y-123547143D01*
X223011905Y-123451905D01*
X222964286Y-123261429D01*
X222964286Y-123023333D01*
X223011905Y-122832857D01*
X223059524Y-122737619D01*
X223107143Y-122690000D01*
X223202381Y-122642381D01*
X223916667Y-122737619D02*
X223964286Y-122690000D01*
X224059524Y-122642381D01*
X224297620Y-122642381D01*
X224392858Y-122690000D01*
X224440477Y-122737619D01*
X224488096Y-122832857D01*
X224488096Y-122928095D01*
X224440477Y-123070952D01*
X223869048Y-123642381D01*
X224488096Y-123642381D01*
X84804524Y-109037381D02*
X84804524Y-108037381D01*
X85185477Y-108037381D01*
X85280715Y-108085000D01*
X85328334Y-108132619D01*
X85375953Y-108227857D01*
X85375953Y-108370714D01*
X85328334Y-108465952D01*
X85280715Y-108513571D01*
X85185477Y-108561190D01*
X84804524Y-108561190D01*
X86137858Y-108513571D02*
X86280715Y-108561190D01*
X86328334Y-108608810D01*
X86375953Y-108704048D01*
X86375953Y-108846905D01*
X86328334Y-108942143D01*
X86280715Y-108989762D01*
X86185477Y-109037381D01*
X85804524Y-109037381D01*
X85804524Y-108037381D01*
X86137858Y-108037381D01*
X86233096Y-108085000D01*
X86280715Y-108132619D01*
X86328334Y-108227857D01*
X86328334Y-108323095D01*
X86280715Y-108418333D01*
X86233096Y-108465952D01*
X86137858Y-108513571D01*
X85804524Y-108513571D01*
X87328334Y-109037381D02*
X86756905Y-109037381D01*
X87042619Y-109037381D02*
X87042619Y-108037381D01*
X86947381Y-108180238D01*
X86852143Y-108275476D01*
X86756905Y-108323095D01*
X87947381Y-108037381D02*
X88042620Y-108037381D01*
X88137858Y-108085000D01*
X88185477Y-108132619D01*
X88233096Y-108227857D01*
X88280715Y-108418333D01*
X88280715Y-108656429D01*
X88233096Y-108846905D01*
X88185477Y-108942143D01*
X88137858Y-108989762D01*
X88042620Y-109037381D01*
X87947381Y-109037381D01*
X87852143Y-108989762D01*
X87804524Y-108942143D01*
X87756905Y-108846905D01*
X87709286Y-108656429D01*
X87709286Y-108418333D01*
X87756905Y-108227857D01*
X87804524Y-108132619D01*
X87852143Y-108085000D01*
X87947381Y-108037381D01*
X88614048Y-108037381D02*
X89233096Y-108037381D01*
X88899762Y-108418333D01*
X89042620Y-108418333D01*
X89137858Y-108465952D01*
X89185477Y-108513571D01*
X89233096Y-108608810D01*
X89233096Y-108846905D01*
X89185477Y-108942143D01*
X89137858Y-108989762D01*
X89042620Y-109037381D01*
X88756905Y-109037381D01*
X88661667Y-108989762D01*
X88614048Y-108942143D01*
X84804524Y-116022381D02*
X84804524Y-115022381D01*
X85185477Y-115022381D01*
X85280715Y-115070000D01*
X85328334Y-115117619D01*
X85375953Y-115212857D01*
X85375953Y-115355714D01*
X85328334Y-115450952D01*
X85280715Y-115498571D01*
X85185477Y-115546190D01*
X84804524Y-115546190D01*
X86137858Y-115498571D02*
X86280715Y-115546190D01*
X86328334Y-115593810D01*
X86375953Y-115689048D01*
X86375953Y-115831905D01*
X86328334Y-115927143D01*
X86280715Y-115974762D01*
X86185477Y-116022381D01*
X85804524Y-116022381D01*
X85804524Y-115022381D01*
X86137858Y-115022381D01*
X86233096Y-115070000D01*
X86280715Y-115117619D01*
X86328334Y-115212857D01*
X86328334Y-115308095D01*
X86280715Y-115403333D01*
X86233096Y-115450952D01*
X86137858Y-115498571D01*
X85804524Y-115498571D01*
X87328334Y-116022381D02*
X86756905Y-116022381D01*
X87042619Y-116022381D02*
X87042619Y-115022381D01*
X86947381Y-115165238D01*
X86852143Y-115260476D01*
X86756905Y-115308095D01*
X87947381Y-115022381D02*
X88042620Y-115022381D01*
X88137858Y-115070000D01*
X88185477Y-115117619D01*
X88233096Y-115212857D01*
X88280715Y-115403333D01*
X88280715Y-115641429D01*
X88233096Y-115831905D01*
X88185477Y-115927143D01*
X88137858Y-115974762D01*
X88042620Y-116022381D01*
X87947381Y-116022381D01*
X87852143Y-115974762D01*
X87804524Y-115927143D01*
X87756905Y-115831905D01*
X87709286Y-115641429D01*
X87709286Y-115403333D01*
X87756905Y-115212857D01*
X87804524Y-115117619D01*
X87852143Y-115070000D01*
X87947381Y-115022381D01*
X89137858Y-115355714D02*
X89137858Y-116022381D01*
X88899762Y-114974762D02*
X88661667Y-115689048D01*
X89280715Y-115689048D01*
X207795953Y-106442381D02*
X207462619Y-105966190D01*
X207224524Y-106442381D02*
X207224524Y-105442381D01*
X207605477Y-105442381D01*
X207700715Y-105490000D01*
X207748334Y-105537619D01*
X207795953Y-105632857D01*
X207795953Y-105775714D01*
X207748334Y-105870952D01*
X207700715Y-105918571D01*
X207605477Y-105966190D01*
X207224524Y-105966190D01*
X208748334Y-106442381D02*
X208176905Y-106442381D01*
X208462619Y-106442381D02*
X208462619Y-105442381D01*
X208367381Y-105585238D01*
X208272143Y-105680476D01*
X208176905Y-105728095D01*
X209367381Y-105442381D02*
X209462620Y-105442381D01*
X209557858Y-105490000D01*
X209605477Y-105537619D01*
X209653096Y-105632857D01*
X209700715Y-105823333D01*
X209700715Y-106061429D01*
X209653096Y-106251905D01*
X209605477Y-106347143D01*
X209557858Y-106394762D01*
X209462620Y-106442381D01*
X209367381Y-106442381D01*
X209272143Y-106394762D01*
X209224524Y-106347143D01*
X209176905Y-106251905D01*
X209129286Y-106061429D01*
X209129286Y-105823333D01*
X209176905Y-105632857D01*
X209224524Y-105537619D01*
X209272143Y-105490000D01*
X209367381Y-105442381D01*
X210653096Y-106442381D02*
X210081667Y-106442381D01*
X210367381Y-106442381D02*
X210367381Y-105442381D01*
X210272143Y-105585238D01*
X210176905Y-105680476D01*
X210081667Y-105728095D01*
X209065953Y-127397381D02*
X208732619Y-126921190D01*
X208494524Y-127397381D02*
X208494524Y-126397381D01*
X208875477Y-126397381D01*
X208970715Y-126445000D01*
X209018334Y-126492619D01*
X209065953Y-126587857D01*
X209065953Y-126730714D01*
X209018334Y-126825952D01*
X208970715Y-126873571D01*
X208875477Y-126921190D01*
X208494524Y-126921190D01*
X210018334Y-127397381D02*
X209446905Y-127397381D01*
X209732619Y-127397381D02*
X209732619Y-126397381D01*
X209637381Y-126540238D01*
X209542143Y-126635476D01*
X209446905Y-126683095D01*
X210637381Y-126397381D02*
X210732620Y-126397381D01*
X210827858Y-126445000D01*
X210875477Y-126492619D01*
X210923096Y-126587857D01*
X210970715Y-126778333D01*
X210970715Y-127016429D01*
X210923096Y-127206905D01*
X210875477Y-127302143D01*
X210827858Y-127349762D01*
X210732620Y-127397381D01*
X210637381Y-127397381D01*
X210542143Y-127349762D01*
X210494524Y-127302143D01*
X210446905Y-127206905D01*
X210399286Y-127016429D01*
X210399286Y-126778333D01*
X210446905Y-126587857D01*
X210494524Y-126492619D01*
X210542143Y-126445000D01*
X210637381Y-126397381D01*
X211351667Y-126492619D02*
X211399286Y-126445000D01*
X211494524Y-126397381D01*
X211732620Y-126397381D01*
X211827858Y-126445000D01*
X211875477Y-126492619D01*
X211923096Y-126587857D01*
X211923096Y-126683095D01*
X211875477Y-126825952D01*
X211304048Y-127397381D01*
X211923096Y-127397381D01*
X188745953Y-127397381D02*
X188412619Y-126921190D01*
X188174524Y-127397381D02*
X188174524Y-126397381D01*
X188555477Y-126397381D01*
X188650715Y-126445000D01*
X188698334Y-126492619D01*
X188745953Y-126587857D01*
X188745953Y-126730714D01*
X188698334Y-126825952D01*
X188650715Y-126873571D01*
X188555477Y-126921190D01*
X188174524Y-126921190D01*
X189698334Y-127397381D02*
X189126905Y-127397381D01*
X189412619Y-127397381D02*
X189412619Y-126397381D01*
X189317381Y-126540238D01*
X189222143Y-126635476D01*
X189126905Y-126683095D01*
X190317381Y-126397381D02*
X190412620Y-126397381D01*
X190507858Y-126445000D01*
X190555477Y-126492619D01*
X190603096Y-126587857D01*
X190650715Y-126778333D01*
X190650715Y-127016429D01*
X190603096Y-127206905D01*
X190555477Y-127302143D01*
X190507858Y-127349762D01*
X190412620Y-127397381D01*
X190317381Y-127397381D01*
X190222143Y-127349762D01*
X190174524Y-127302143D01*
X190126905Y-127206905D01*
X190079286Y-127016429D01*
X190079286Y-126778333D01*
X190126905Y-126587857D01*
X190174524Y-126492619D01*
X190222143Y-126445000D01*
X190317381Y-126397381D01*
X191507858Y-126730714D02*
X191507858Y-127397381D01*
X191269762Y-126349762D02*
X191031667Y-127064048D01*
X191650715Y-127064048D01*
X167155953Y-106442381D02*
X166822619Y-105966190D01*
X166584524Y-106442381D02*
X166584524Y-105442381D01*
X166965477Y-105442381D01*
X167060715Y-105490000D01*
X167108334Y-105537619D01*
X167155953Y-105632857D01*
X167155953Y-105775714D01*
X167108334Y-105870952D01*
X167060715Y-105918571D01*
X166965477Y-105966190D01*
X166584524Y-105966190D01*
X168108334Y-106442381D02*
X167536905Y-106442381D01*
X167822619Y-106442381D02*
X167822619Y-105442381D01*
X167727381Y-105585238D01*
X167632143Y-105680476D01*
X167536905Y-105728095D01*
X168727381Y-105442381D02*
X168822620Y-105442381D01*
X168917858Y-105490000D01*
X168965477Y-105537619D01*
X169013096Y-105632857D01*
X169060715Y-105823333D01*
X169060715Y-106061429D01*
X169013096Y-106251905D01*
X168965477Y-106347143D01*
X168917858Y-106394762D01*
X168822620Y-106442381D01*
X168727381Y-106442381D01*
X168632143Y-106394762D01*
X168584524Y-106347143D01*
X168536905Y-106251905D01*
X168489286Y-106061429D01*
X168489286Y-105823333D01*
X168536905Y-105632857D01*
X168584524Y-105537619D01*
X168632143Y-105490000D01*
X168727381Y-105442381D01*
X169965477Y-105442381D02*
X169489286Y-105442381D01*
X169441667Y-105918571D01*
X169489286Y-105870952D01*
X169584524Y-105823333D01*
X169822620Y-105823333D01*
X169917858Y-105870952D01*
X169965477Y-105918571D01*
X170013096Y-106013810D01*
X170013096Y-106251905D01*
X169965477Y-106347143D01*
X169917858Y-106394762D01*
X169822620Y-106442381D01*
X169584524Y-106442381D01*
X169489286Y-106394762D01*
X169441667Y-106347143D01*
X168425953Y-127397381D02*
X168092619Y-126921190D01*
X167854524Y-127397381D02*
X167854524Y-126397381D01*
X168235477Y-126397381D01*
X168330715Y-126445000D01*
X168378334Y-126492619D01*
X168425953Y-126587857D01*
X168425953Y-126730714D01*
X168378334Y-126825952D01*
X168330715Y-126873571D01*
X168235477Y-126921190D01*
X167854524Y-126921190D01*
X169378334Y-127397381D02*
X168806905Y-127397381D01*
X169092619Y-127397381D02*
X169092619Y-126397381D01*
X168997381Y-126540238D01*
X168902143Y-126635476D01*
X168806905Y-126683095D01*
X169997381Y-126397381D02*
X170092620Y-126397381D01*
X170187858Y-126445000D01*
X170235477Y-126492619D01*
X170283096Y-126587857D01*
X170330715Y-126778333D01*
X170330715Y-127016429D01*
X170283096Y-127206905D01*
X170235477Y-127302143D01*
X170187858Y-127349762D01*
X170092620Y-127397381D01*
X169997381Y-127397381D01*
X169902143Y-127349762D01*
X169854524Y-127302143D01*
X169806905Y-127206905D01*
X169759286Y-127016429D01*
X169759286Y-126778333D01*
X169806905Y-126587857D01*
X169854524Y-126492619D01*
X169902143Y-126445000D01*
X169997381Y-126397381D01*
X171187858Y-126397381D02*
X170997381Y-126397381D01*
X170902143Y-126445000D01*
X170854524Y-126492619D01*
X170759286Y-126635476D01*
X170711667Y-126825952D01*
X170711667Y-127206905D01*
X170759286Y-127302143D01*
X170806905Y-127349762D01*
X170902143Y-127397381D01*
X171092620Y-127397381D01*
X171187858Y-127349762D01*
X171235477Y-127302143D01*
X171283096Y-127206905D01*
X171283096Y-126968810D01*
X171235477Y-126873571D01*
X171187858Y-126825952D01*
X171092620Y-126778333D01*
X170902143Y-126778333D01*
X170806905Y-126825952D01*
X170759286Y-126873571D01*
X170711667Y-126968810D01*
X146835953Y-106442381D02*
X146502619Y-105966190D01*
X146264524Y-106442381D02*
X146264524Y-105442381D01*
X146645477Y-105442381D01*
X146740715Y-105490000D01*
X146788334Y-105537619D01*
X146835953Y-105632857D01*
X146835953Y-105775714D01*
X146788334Y-105870952D01*
X146740715Y-105918571D01*
X146645477Y-105966190D01*
X146264524Y-105966190D01*
X147788334Y-106442381D02*
X147216905Y-106442381D01*
X147502619Y-106442381D02*
X147502619Y-105442381D01*
X147407381Y-105585238D01*
X147312143Y-105680476D01*
X147216905Y-105728095D01*
X148407381Y-105442381D02*
X148502620Y-105442381D01*
X148597858Y-105490000D01*
X148645477Y-105537619D01*
X148693096Y-105632857D01*
X148740715Y-105823333D01*
X148740715Y-106061429D01*
X148693096Y-106251905D01*
X148645477Y-106347143D01*
X148597858Y-106394762D01*
X148502620Y-106442381D01*
X148407381Y-106442381D01*
X148312143Y-106394762D01*
X148264524Y-106347143D01*
X148216905Y-106251905D01*
X148169286Y-106061429D01*
X148169286Y-105823333D01*
X148216905Y-105632857D01*
X148264524Y-105537619D01*
X148312143Y-105490000D01*
X148407381Y-105442381D01*
X149074048Y-105442381D02*
X149740715Y-105442381D01*
X149312143Y-106442381D01*
X148105953Y-127397381D02*
X147772619Y-126921190D01*
X147534524Y-127397381D02*
X147534524Y-126397381D01*
X147915477Y-126397381D01*
X148010715Y-126445000D01*
X148058334Y-126492619D01*
X148105953Y-126587857D01*
X148105953Y-126730714D01*
X148058334Y-126825952D01*
X148010715Y-126873571D01*
X147915477Y-126921190D01*
X147534524Y-126921190D01*
X149058334Y-127397381D02*
X148486905Y-127397381D01*
X148772619Y-127397381D02*
X148772619Y-126397381D01*
X148677381Y-126540238D01*
X148582143Y-126635476D01*
X148486905Y-126683095D01*
X149677381Y-126397381D02*
X149772620Y-126397381D01*
X149867858Y-126445000D01*
X149915477Y-126492619D01*
X149963096Y-126587857D01*
X150010715Y-126778333D01*
X150010715Y-127016429D01*
X149963096Y-127206905D01*
X149915477Y-127302143D01*
X149867858Y-127349762D01*
X149772620Y-127397381D01*
X149677381Y-127397381D01*
X149582143Y-127349762D01*
X149534524Y-127302143D01*
X149486905Y-127206905D01*
X149439286Y-127016429D01*
X149439286Y-126778333D01*
X149486905Y-126587857D01*
X149534524Y-126492619D01*
X149582143Y-126445000D01*
X149677381Y-126397381D01*
X150582143Y-126825952D02*
X150486905Y-126778333D01*
X150439286Y-126730714D01*
X150391667Y-126635476D01*
X150391667Y-126587857D01*
X150439286Y-126492619D01*
X150486905Y-126445000D01*
X150582143Y-126397381D01*
X150772620Y-126397381D01*
X150867858Y-126445000D01*
X150915477Y-126492619D01*
X150963096Y-126587857D01*
X150963096Y-126635476D01*
X150915477Y-126730714D01*
X150867858Y-126778333D01*
X150772620Y-126825952D01*
X150582143Y-126825952D01*
X150486905Y-126873571D01*
X150439286Y-126921190D01*
X150391667Y-127016429D01*
X150391667Y-127206905D01*
X150439286Y-127302143D01*
X150486905Y-127349762D01*
X150582143Y-127397381D01*
X150772620Y-127397381D01*
X150867858Y-127349762D01*
X150915477Y-127302143D01*
X150963096Y-127206905D01*
X150963096Y-127016429D01*
X150915477Y-126921190D01*
X150867858Y-126873571D01*
X150772620Y-126825952D01*
X126515953Y-106442381D02*
X126182619Y-105966190D01*
X125944524Y-106442381D02*
X125944524Y-105442381D01*
X126325477Y-105442381D01*
X126420715Y-105490000D01*
X126468334Y-105537619D01*
X126515953Y-105632857D01*
X126515953Y-105775714D01*
X126468334Y-105870952D01*
X126420715Y-105918571D01*
X126325477Y-105966190D01*
X125944524Y-105966190D01*
X127468334Y-106442381D02*
X126896905Y-106442381D01*
X127182619Y-106442381D02*
X127182619Y-105442381D01*
X127087381Y-105585238D01*
X126992143Y-105680476D01*
X126896905Y-105728095D01*
X128087381Y-105442381D02*
X128182620Y-105442381D01*
X128277858Y-105490000D01*
X128325477Y-105537619D01*
X128373096Y-105632857D01*
X128420715Y-105823333D01*
X128420715Y-106061429D01*
X128373096Y-106251905D01*
X128325477Y-106347143D01*
X128277858Y-106394762D01*
X128182620Y-106442381D01*
X128087381Y-106442381D01*
X127992143Y-106394762D01*
X127944524Y-106347143D01*
X127896905Y-106251905D01*
X127849286Y-106061429D01*
X127849286Y-105823333D01*
X127896905Y-105632857D01*
X127944524Y-105537619D01*
X127992143Y-105490000D01*
X128087381Y-105442381D01*
X128896905Y-106442381D02*
X129087381Y-106442381D01*
X129182620Y-106394762D01*
X129230239Y-106347143D01*
X129325477Y-106204286D01*
X129373096Y-106013810D01*
X129373096Y-105632857D01*
X129325477Y-105537619D01*
X129277858Y-105490000D01*
X129182620Y-105442381D01*
X128992143Y-105442381D01*
X128896905Y-105490000D01*
X128849286Y-105537619D01*
X128801667Y-105632857D01*
X128801667Y-105870952D01*
X128849286Y-105966190D01*
X128896905Y-106013810D01*
X128992143Y-106061429D01*
X129182620Y-106061429D01*
X129277858Y-106013810D01*
X129325477Y-105966190D01*
X129373096Y-105870952D01*
X127785953Y-127397381D02*
X127452619Y-126921190D01*
X127214524Y-127397381D02*
X127214524Y-126397381D01*
X127595477Y-126397381D01*
X127690715Y-126445000D01*
X127738334Y-126492619D01*
X127785953Y-126587857D01*
X127785953Y-126730714D01*
X127738334Y-126825952D01*
X127690715Y-126873571D01*
X127595477Y-126921190D01*
X127214524Y-126921190D01*
X128738334Y-127397381D02*
X128166905Y-127397381D01*
X128452619Y-127397381D02*
X128452619Y-126397381D01*
X128357381Y-126540238D01*
X128262143Y-126635476D01*
X128166905Y-126683095D01*
X129690715Y-127397381D02*
X129119286Y-127397381D01*
X129405000Y-127397381D02*
X129405000Y-126397381D01*
X129309762Y-126540238D01*
X129214524Y-126635476D01*
X129119286Y-126683095D01*
X130309762Y-126397381D02*
X130405001Y-126397381D01*
X130500239Y-126445000D01*
X130547858Y-126492619D01*
X130595477Y-126587857D01*
X130643096Y-126778333D01*
X130643096Y-127016429D01*
X130595477Y-127206905D01*
X130547858Y-127302143D01*
X130500239Y-127349762D01*
X130405001Y-127397381D01*
X130309762Y-127397381D01*
X130214524Y-127349762D01*
X130166905Y-127302143D01*
X130119286Y-127206905D01*
X130071667Y-127016429D01*
X130071667Y-126778333D01*
X130119286Y-126587857D01*
X130166905Y-126492619D01*
X130214524Y-126445000D01*
X130309762Y-126397381D01*
X187475953Y-106442381D02*
X187142619Y-105966190D01*
X186904524Y-106442381D02*
X186904524Y-105442381D01*
X187285477Y-105442381D01*
X187380715Y-105490000D01*
X187428334Y-105537619D01*
X187475953Y-105632857D01*
X187475953Y-105775714D01*
X187428334Y-105870952D01*
X187380715Y-105918571D01*
X187285477Y-105966190D01*
X186904524Y-105966190D01*
X188428334Y-106442381D02*
X187856905Y-106442381D01*
X188142619Y-106442381D02*
X188142619Y-105442381D01*
X188047381Y-105585238D01*
X187952143Y-105680476D01*
X187856905Y-105728095D01*
X189047381Y-105442381D02*
X189142620Y-105442381D01*
X189237858Y-105490000D01*
X189285477Y-105537619D01*
X189333096Y-105632857D01*
X189380715Y-105823333D01*
X189380715Y-106061429D01*
X189333096Y-106251905D01*
X189285477Y-106347143D01*
X189237858Y-106394762D01*
X189142620Y-106442381D01*
X189047381Y-106442381D01*
X188952143Y-106394762D01*
X188904524Y-106347143D01*
X188856905Y-106251905D01*
X188809286Y-106061429D01*
X188809286Y-105823333D01*
X188856905Y-105632857D01*
X188904524Y-105537619D01*
X188952143Y-105490000D01*
X189047381Y-105442381D01*
X189714048Y-105442381D02*
X190333096Y-105442381D01*
X189999762Y-105823333D01*
X190142620Y-105823333D01*
X190237858Y-105870952D01*
X190285477Y-105918571D01*
X190333096Y-106013810D01*
X190333096Y-106251905D01*
X190285477Y-106347143D01*
X190237858Y-106394762D01*
X190142620Y-106442381D01*
X189856905Y-106442381D01*
X189761667Y-106394762D01*
X189714048Y-106347143D01*
X117054524Y-101627381D02*
X117054524Y-100627381D01*
X117435477Y-100627381D01*
X117530715Y-100675000D01*
X117578334Y-100722619D01*
X117625953Y-100817857D01*
X117625953Y-100960714D01*
X117578334Y-101055952D01*
X117530715Y-101103571D01*
X117435477Y-101151190D01*
X117054524Y-101151190D01*
X118578334Y-101627381D02*
X118006905Y-101627381D01*
X118292619Y-101627381D02*
X118292619Y-100627381D01*
X118197381Y-100770238D01*
X118102143Y-100865476D01*
X118006905Y-100913095D01*
X119197381Y-100627381D02*
X119292620Y-100627381D01*
X119387858Y-100675000D01*
X119435477Y-100722619D01*
X119483096Y-100817857D01*
X119530715Y-101008333D01*
X119530715Y-101246429D01*
X119483096Y-101436905D01*
X119435477Y-101532143D01*
X119387858Y-101579762D01*
X119292620Y-101627381D01*
X119197381Y-101627381D01*
X119102143Y-101579762D01*
X119054524Y-101532143D01*
X119006905Y-101436905D01*
X118959286Y-101246429D01*
X118959286Y-101008333D01*
X119006905Y-100817857D01*
X119054524Y-100722619D01*
X119102143Y-100675000D01*
X119197381Y-100627381D01*
X120435477Y-100627381D02*
X119959286Y-100627381D01*
X119911667Y-101103571D01*
X119959286Y-101055952D01*
X120054524Y-101008333D01*
X120292620Y-101008333D01*
X120387858Y-101055952D01*
X120435477Y-101103571D01*
X120483096Y-101198810D01*
X120483096Y-101436905D01*
X120435477Y-101532143D01*
X120387858Y-101579762D01*
X120292620Y-101627381D01*
X120054524Y-101627381D01*
X119959286Y-101579762D01*
X119911667Y-101532143D01*
X221587381Y-116625476D02*
X220587381Y-116625476D01*
X220587381Y-116387381D01*
X220635000Y-116244523D01*
X220730238Y-116149285D01*
X220825476Y-116101666D01*
X221015952Y-116054047D01*
X221158810Y-116054047D01*
X221349286Y-116101666D01*
X221444524Y-116149285D01*
X221539762Y-116244523D01*
X221587381Y-116387381D01*
X221587381Y-116625476D01*
X221587381Y-115101666D02*
X221587381Y-115673095D01*
X221587381Y-115387381D02*
X220587381Y-115387381D01*
X220730238Y-115482619D01*
X220825476Y-115577857D01*
X220873095Y-115673095D01*
X220587381Y-114482619D02*
X220587381Y-114387380D01*
X220635000Y-114292142D01*
X220682619Y-114244523D01*
X220777857Y-114196904D01*
X220968333Y-114149285D01*
X221206429Y-114149285D01*
X221396905Y-114196904D01*
X221492143Y-114244523D01*
X221539762Y-114292142D01*
X221587381Y-114387380D01*
X221587381Y-114482619D01*
X221539762Y-114577857D01*
X221492143Y-114625476D01*
X221396905Y-114673095D01*
X221206429Y-114720714D01*
X220968333Y-114720714D01*
X220777857Y-114673095D01*
X220682619Y-114625476D01*
X220635000Y-114577857D01*
X220587381Y-114482619D01*
X221587381Y-113196904D02*
X221587381Y-113768333D01*
X221587381Y-113482619D02*
X220587381Y-113482619D01*
X220730238Y-113577857D01*
X220825476Y-113673095D01*
X220873095Y-113768333D01*
X201267381Y-116625476D02*
X200267381Y-116625476D01*
X200267381Y-116387381D01*
X200315000Y-116244523D01*
X200410238Y-116149285D01*
X200505476Y-116101666D01*
X200695952Y-116054047D01*
X200838810Y-116054047D01*
X201029286Y-116101666D01*
X201124524Y-116149285D01*
X201219762Y-116244523D01*
X201267381Y-116387381D01*
X201267381Y-116625476D01*
X201267381Y-115101666D02*
X201267381Y-115673095D01*
X201267381Y-115387381D02*
X200267381Y-115387381D01*
X200410238Y-115482619D01*
X200505476Y-115577857D01*
X200553095Y-115673095D01*
X200267381Y-114482619D02*
X200267381Y-114387380D01*
X200315000Y-114292142D01*
X200362619Y-114244523D01*
X200457857Y-114196904D01*
X200648333Y-114149285D01*
X200886429Y-114149285D01*
X201076905Y-114196904D01*
X201172143Y-114244523D01*
X201219762Y-114292142D01*
X201267381Y-114387380D01*
X201267381Y-114482619D01*
X201219762Y-114577857D01*
X201172143Y-114625476D01*
X201076905Y-114673095D01*
X200886429Y-114720714D01*
X200648333Y-114720714D01*
X200457857Y-114673095D01*
X200362619Y-114625476D01*
X200315000Y-114577857D01*
X200267381Y-114482619D01*
X200362619Y-113768333D02*
X200315000Y-113720714D01*
X200267381Y-113625476D01*
X200267381Y-113387380D01*
X200315000Y-113292142D01*
X200362619Y-113244523D01*
X200457857Y-113196904D01*
X200553095Y-113196904D01*
X200695952Y-113244523D01*
X201267381Y-113815952D01*
X201267381Y-113196904D01*
X180947381Y-116625476D02*
X179947381Y-116625476D01*
X179947381Y-116387381D01*
X179995000Y-116244523D01*
X180090238Y-116149285D01*
X180185476Y-116101666D01*
X180375952Y-116054047D01*
X180518810Y-116054047D01*
X180709286Y-116101666D01*
X180804524Y-116149285D01*
X180899762Y-116244523D01*
X180947381Y-116387381D01*
X180947381Y-116625476D01*
X180947381Y-115101666D02*
X180947381Y-115673095D01*
X180947381Y-115387381D02*
X179947381Y-115387381D01*
X180090238Y-115482619D01*
X180185476Y-115577857D01*
X180233095Y-115673095D01*
X179947381Y-114482619D02*
X179947381Y-114387380D01*
X179995000Y-114292142D01*
X180042619Y-114244523D01*
X180137857Y-114196904D01*
X180328333Y-114149285D01*
X180566429Y-114149285D01*
X180756905Y-114196904D01*
X180852143Y-114244523D01*
X180899762Y-114292142D01*
X180947381Y-114387380D01*
X180947381Y-114482619D01*
X180899762Y-114577857D01*
X180852143Y-114625476D01*
X180756905Y-114673095D01*
X180566429Y-114720714D01*
X180328333Y-114720714D01*
X180137857Y-114673095D01*
X180042619Y-114625476D01*
X179995000Y-114577857D01*
X179947381Y-114482619D01*
X179947381Y-113815952D02*
X179947381Y-113196904D01*
X180328333Y-113530238D01*
X180328333Y-113387380D01*
X180375952Y-113292142D01*
X180423571Y-113244523D01*
X180518810Y-113196904D01*
X180756905Y-113196904D01*
X180852143Y-113244523D01*
X180899762Y-113292142D01*
X180947381Y-113387380D01*
X180947381Y-113673095D01*
X180899762Y-113768333D01*
X180852143Y-113815952D01*
X160627381Y-116625476D02*
X159627381Y-116625476D01*
X159627381Y-116387381D01*
X159675000Y-116244523D01*
X159770238Y-116149285D01*
X159865476Y-116101666D01*
X160055952Y-116054047D01*
X160198810Y-116054047D01*
X160389286Y-116101666D01*
X160484524Y-116149285D01*
X160579762Y-116244523D01*
X160627381Y-116387381D01*
X160627381Y-116625476D01*
X160627381Y-115101666D02*
X160627381Y-115673095D01*
X160627381Y-115387381D02*
X159627381Y-115387381D01*
X159770238Y-115482619D01*
X159865476Y-115577857D01*
X159913095Y-115673095D01*
X159627381Y-114482619D02*
X159627381Y-114387380D01*
X159675000Y-114292142D01*
X159722619Y-114244523D01*
X159817857Y-114196904D01*
X160008333Y-114149285D01*
X160246429Y-114149285D01*
X160436905Y-114196904D01*
X160532143Y-114244523D01*
X160579762Y-114292142D01*
X160627381Y-114387380D01*
X160627381Y-114482619D01*
X160579762Y-114577857D01*
X160532143Y-114625476D01*
X160436905Y-114673095D01*
X160246429Y-114720714D01*
X160008333Y-114720714D01*
X159817857Y-114673095D01*
X159722619Y-114625476D01*
X159675000Y-114577857D01*
X159627381Y-114482619D01*
X159960714Y-113292142D02*
X160627381Y-113292142D01*
X159579762Y-113530238D02*
X160294048Y-113768333D01*
X160294048Y-113149285D01*
X115542381Y-116625476D02*
X114542381Y-116625476D01*
X114542381Y-116387381D01*
X114590000Y-116244523D01*
X114685238Y-116149285D01*
X114780476Y-116101666D01*
X114970952Y-116054047D01*
X115113810Y-116054047D01*
X115304286Y-116101666D01*
X115399524Y-116149285D01*
X115494762Y-116244523D01*
X115542381Y-116387381D01*
X115542381Y-116625476D01*
X115542381Y-115101666D02*
X115542381Y-115673095D01*
X115542381Y-115387381D02*
X114542381Y-115387381D01*
X114685238Y-115482619D01*
X114780476Y-115577857D01*
X114828095Y-115673095D01*
X114542381Y-114482619D02*
X114542381Y-114387380D01*
X114590000Y-114292142D01*
X114637619Y-114244523D01*
X114732857Y-114196904D01*
X114923333Y-114149285D01*
X115161429Y-114149285D01*
X115351905Y-114196904D01*
X115447143Y-114244523D01*
X115494762Y-114292142D01*
X115542381Y-114387380D01*
X115542381Y-114482619D01*
X115494762Y-114577857D01*
X115447143Y-114625476D01*
X115351905Y-114673095D01*
X115161429Y-114720714D01*
X114923333Y-114720714D01*
X114732857Y-114673095D01*
X114637619Y-114625476D01*
X114590000Y-114577857D01*
X114542381Y-114482619D01*
X114542381Y-113292142D02*
X114542381Y-113482619D01*
X114590000Y-113577857D01*
X114637619Y-113625476D01*
X114780476Y-113720714D01*
X114970952Y-113768333D01*
X115351905Y-113768333D01*
X115447143Y-113720714D01*
X115494762Y-113673095D01*
X115542381Y-113577857D01*
X115542381Y-113387380D01*
X115494762Y-113292142D01*
X115447143Y-113244523D01*
X115351905Y-113196904D01*
X115113810Y-113196904D01*
X115018571Y-113244523D01*
X114970952Y-113292142D01*
X114923333Y-113387380D01*
X114923333Y-113577857D01*
X114970952Y-113673095D01*
X115018571Y-113720714D01*
X115113810Y-113768333D01*
X140307381Y-116625476D02*
X139307381Y-116625476D01*
X139307381Y-116387381D01*
X139355000Y-116244523D01*
X139450238Y-116149285D01*
X139545476Y-116101666D01*
X139735952Y-116054047D01*
X139878810Y-116054047D01*
X140069286Y-116101666D01*
X140164524Y-116149285D01*
X140259762Y-116244523D01*
X140307381Y-116387381D01*
X140307381Y-116625476D01*
X140307381Y-115101666D02*
X140307381Y-115673095D01*
X140307381Y-115387381D02*
X139307381Y-115387381D01*
X139450238Y-115482619D01*
X139545476Y-115577857D01*
X139593095Y-115673095D01*
X139307381Y-114482619D02*
X139307381Y-114387380D01*
X139355000Y-114292142D01*
X139402619Y-114244523D01*
X139497857Y-114196904D01*
X139688333Y-114149285D01*
X139926429Y-114149285D01*
X140116905Y-114196904D01*
X140212143Y-114244523D01*
X140259762Y-114292142D01*
X140307381Y-114387380D01*
X140307381Y-114482619D01*
X140259762Y-114577857D01*
X140212143Y-114625476D01*
X140116905Y-114673095D01*
X139926429Y-114720714D01*
X139688333Y-114720714D01*
X139497857Y-114673095D01*
X139402619Y-114625476D01*
X139355000Y-114577857D01*
X139307381Y-114482619D01*
X139307381Y-113244523D02*
X139307381Y-113720714D01*
X139783571Y-113768333D01*
X139735952Y-113720714D01*
X139688333Y-113625476D01*
X139688333Y-113387380D01*
X139735952Y-113292142D01*
X139783571Y-113244523D01*
X139878810Y-113196904D01*
X140116905Y-113196904D01*
X140212143Y-113244523D01*
X140259762Y-113292142D01*
X140307381Y-113387380D01*
X140307381Y-113625476D01*
X140259762Y-113720714D01*
X140212143Y-113768333D01*
M02*
