M48
;DRILL file {KiCad 4.0.4+e1-6308~48~ubuntu15.10.1-stable} date Fri Oct 20 15:41:10 2017
;FORMAT={-:-/ absolute / metric / decimal}
FMAT,2
METRIC,TZ
T1C0.400
T2C0.800
T3C1.000
T4C1.200
T5C1.800
T6C2.200
%
G90
G05
M71
T1
X137.795Y-101.6
X137.795Y-127.635
X140.335Y-101.6
X140.335Y-127.635
X158.115Y-101.6
X158.115Y-127.635
X160.655Y-101.6
X160.655Y-127.635
X178.435Y-101.6
X178.435Y-127.635
X180.975Y-101.6
X180.975Y-127.635
X198.755Y-101.6
X198.755Y-127.635
T2
X113.03Y-111.125
X113.03Y-118.745
X137.795Y-111.125
X137.795Y-118.745
X158.115Y-111.125
X158.115Y-118.745
X178.435Y-111.125
X178.435Y-118.745
X198.755Y-111.125
X198.755Y-118.745
X219.075Y-111.125
X219.075Y-118.745
T3
X118.745Y-103.505
X118.745Y-106.045
X118.745Y-108.585
X118.745Y-111.125
X118.745Y-113.665
X118.745Y-116.205
X118.745Y-118.745
T4
X85.885Y-99.695
X85.885Y-129.785
X88.385Y-99.695
X88.385Y-129.785
X106.185Y-99.695
X106.185Y-129.785
X108.685Y-99.695
X108.685Y-129.785
X126.485Y-99.695
X126.485Y-129.785
X128.985Y-99.695
X128.985Y-129.785
X146.785Y-99.695
X146.785Y-129.785
X149.285Y-99.695
X149.285Y-129.785
X167.085Y-99.695
X167.085Y-129.785
X169.585Y-99.695
X169.585Y-129.785
X187.385Y-99.695
X187.385Y-129.785
X189.885Y-99.695
X189.885Y-129.785
X207.685Y-99.695
X207.685Y-129.785
X210.185Y-99.695
X210.185Y-129.785
T5
X87.63Y-111.125
X87.63Y-118.11
X92.71Y-111.125
X92.71Y-118.11
X222.25Y-103.505
X222.25Y-108.585
X222.25Y-120.65
X222.25Y-125.73
T6
X83.335Y-94.645
X83.335Y-124.735
X93.435Y-104.745
X93.435Y-134.835
X103.635Y-94.645
X103.635Y-124.735
X113.735Y-104.745
X113.735Y-134.835
X123.935Y-94.645
X123.935Y-124.735
X134.035Y-104.745
X134.035Y-134.835
X144.235Y-94.645
X144.235Y-124.735
X154.335Y-104.745
X154.335Y-134.835
X164.535Y-94.645
X164.535Y-124.735
X174.635Y-104.745
X174.635Y-134.835
X184.835Y-94.645
X184.835Y-124.735
X194.935Y-104.745
X194.935Y-134.835
X205.135Y-94.645
X205.135Y-124.735
X215.235Y-104.745
X215.235Y-134.835
T0
M30
