G04 #@! TF.FileFunction,Soldermask,Bot*
%FSLAX46Y46*%
G04 Gerber Fmt 4.6, Leading zero omitted, Abs format (unit mm)*
G04 Created by KiCad (PCBNEW 4.0.4+e1-6308~48~ubuntu15.10.1-stable) date Fri Oct 20 15:41:00 2017*
%MOMM*%
%LPD*%
G01*
G04 APERTURE LIST*
%ADD10C,0.100000*%
%ADD11C,4.010000*%
%ADD12C,2.400000*%
%ADD13C,3.600000*%
%ADD14R,1.900000X1.900000*%
%ADD15O,1.900000X1.900000*%
%ADD16R,1.800000X1.800000*%
%ADD17O,1.800000X1.800000*%
G04 APERTURE END LIST*
D10*
D11*
X205135000Y-94645000D03*
D12*
X210185000Y-99695000D03*
X207685000Y-99695000D03*
D11*
X215235000Y-104745000D03*
X205135000Y-124735000D03*
D12*
X210185000Y-129785000D03*
X207685000Y-129785000D03*
D11*
X215235000Y-134835000D03*
X184835000Y-94645000D03*
D12*
X189885000Y-99695000D03*
X187385000Y-99695000D03*
D11*
X194935000Y-104745000D03*
X184835000Y-124735000D03*
D12*
X189885000Y-129785000D03*
X187385000Y-129785000D03*
D11*
X194935000Y-134835000D03*
X164535000Y-94645000D03*
D12*
X169585000Y-99695000D03*
X167085000Y-99695000D03*
D11*
X174635000Y-104745000D03*
X164535000Y-124735000D03*
D12*
X169585000Y-129785000D03*
X167085000Y-129785000D03*
D11*
X174635000Y-134835000D03*
X144235000Y-94645000D03*
D12*
X149285000Y-99695000D03*
X146785000Y-99695000D03*
D11*
X154335000Y-104745000D03*
X144235000Y-124735000D03*
D12*
X149285000Y-129785000D03*
X146785000Y-129785000D03*
D11*
X154335000Y-134835000D03*
X123935000Y-94645000D03*
D12*
X128985000Y-99695000D03*
X126485000Y-99695000D03*
D11*
X134035000Y-104745000D03*
X123935000Y-124735000D03*
D12*
X128985000Y-129785000D03*
X126485000Y-129785000D03*
D11*
X134035000Y-134835000D03*
X83335000Y-94645000D03*
D12*
X88385000Y-99695000D03*
X85885000Y-99695000D03*
D11*
X93435000Y-104745000D03*
X103635000Y-94645000D03*
D12*
X108685000Y-99695000D03*
X106185000Y-99695000D03*
D11*
X113735000Y-104745000D03*
X83335000Y-124735000D03*
D12*
X88385000Y-129785000D03*
X85885000Y-129785000D03*
D11*
X93435000Y-134835000D03*
X103635000Y-124735000D03*
D12*
X108685000Y-129785000D03*
X106185000Y-129785000D03*
D11*
X113735000Y-134835000D03*
D13*
X222250000Y-108585000D03*
X222250000Y-120650000D03*
X92710000Y-111125000D03*
X92710000Y-118110000D03*
X222250000Y-103505000D03*
X222250000Y-125730000D03*
X87630000Y-111125000D03*
X87630000Y-118110000D03*
D14*
X118745000Y-103505000D03*
D15*
X118745000Y-106045000D03*
X118745000Y-108585000D03*
X118745000Y-111125000D03*
X118745000Y-113665000D03*
X118745000Y-116205000D03*
X118745000Y-118745000D03*
D16*
X219075000Y-111125000D03*
D17*
X219075000Y-118745000D03*
D16*
X198755000Y-111125000D03*
D17*
X198755000Y-118745000D03*
D16*
X178435000Y-111125000D03*
D17*
X178435000Y-118745000D03*
D16*
X158115000Y-111125000D03*
D17*
X158115000Y-118745000D03*
D16*
X113030000Y-111125000D03*
D17*
X113030000Y-118745000D03*
D16*
X137795000Y-111125000D03*
D17*
X137795000Y-118745000D03*
M02*
