G04 #@! TF.FileFunction,Legend,Bot*
%FSLAX46Y46*%
G04 Gerber Fmt 4.6, Leading zero omitted, Abs format (unit mm)*
G04 Created by KiCad (PCBNEW 4.0.4+e1-6308~48~ubuntu15.10.1-stable) date Fri Oct 20 15:41:00 2017*
%MOMM*%
%LPD*%
G01*
G04 APERTURE LIST*
%ADD10C,0.100000*%
%ADD11C,0.150000*%
G04 APERTURE END LIST*
D10*
D11*
X215185000Y-99695000D02*
G75*
G03X215185000Y-99695000I-5000000J0D01*
G01*
X202835000Y-92745000D02*
X202835000Y-106645000D01*
X217535000Y-106645000D02*
X202835000Y-106645000D01*
X217535000Y-92745000D02*
X217535000Y-106645000D01*
X217535000Y-92745000D02*
X202835000Y-92745000D01*
X215185000Y-129785000D02*
G75*
G03X215185000Y-129785000I-5000000J0D01*
G01*
X202835000Y-122835000D02*
X202835000Y-136735000D01*
X217535000Y-136735000D02*
X202835000Y-136735000D01*
X217535000Y-122835000D02*
X217535000Y-136735000D01*
X217535000Y-122835000D02*
X202835000Y-122835000D01*
X194885000Y-99695000D02*
G75*
G03X194885000Y-99695000I-5000000J0D01*
G01*
X182535000Y-92745000D02*
X182535000Y-106645000D01*
X197235000Y-106645000D02*
X182535000Y-106645000D01*
X197235000Y-92745000D02*
X197235000Y-106645000D01*
X197235000Y-92745000D02*
X182535000Y-92745000D01*
X194885000Y-129785000D02*
G75*
G03X194885000Y-129785000I-5000000J0D01*
G01*
X182535000Y-122835000D02*
X182535000Y-136735000D01*
X197235000Y-136735000D02*
X182535000Y-136735000D01*
X197235000Y-122835000D02*
X197235000Y-136735000D01*
X197235000Y-122835000D02*
X182535000Y-122835000D01*
X174585000Y-99695000D02*
G75*
G03X174585000Y-99695000I-5000000J0D01*
G01*
X162235000Y-92745000D02*
X162235000Y-106645000D01*
X176935000Y-106645000D02*
X162235000Y-106645000D01*
X176935000Y-92745000D02*
X176935000Y-106645000D01*
X176935000Y-92745000D02*
X162235000Y-92745000D01*
X174585000Y-129785000D02*
G75*
G03X174585000Y-129785000I-5000000J0D01*
G01*
X162235000Y-122835000D02*
X162235000Y-136735000D01*
X176935000Y-136735000D02*
X162235000Y-136735000D01*
X176935000Y-122835000D02*
X176935000Y-136735000D01*
X176935000Y-122835000D02*
X162235000Y-122835000D01*
X154285000Y-99695000D02*
G75*
G03X154285000Y-99695000I-5000000J0D01*
G01*
X141935000Y-92745000D02*
X141935000Y-106645000D01*
X156635000Y-106645000D02*
X141935000Y-106645000D01*
X156635000Y-92745000D02*
X156635000Y-106645000D01*
X156635000Y-92745000D02*
X141935000Y-92745000D01*
X154285000Y-129785000D02*
G75*
G03X154285000Y-129785000I-5000000J0D01*
G01*
X141935000Y-122835000D02*
X141935000Y-136735000D01*
X156635000Y-136735000D02*
X141935000Y-136735000D01*
X156635000Y-122835000D02*
X156635000Y-136735000D01*
X156635000Y-122835000D02*
X141935000Y-122835000D01*
X133985000Y-99695000D02*
G75*
G03X133985000Y-99695000I-5000000J0D01*
G01*
X121635000Y-92745000D02*
X121635000Y-106645000D01*
X136335000Y-106645000D02*
X121635000Y-106645000D01*
X136335000Y-92745000D02*
X136335000Y-106645000D01*
X136335000Y-92745000D02*
X121635000Y-92745000D01*
X133985000Y-129785000D02*
G75*
G03X133985000Y-129785000I-5000000J0D01*
G01*
X121635000Y-122835000D02*
X121635000Y-136735000D01*
X136335000Y-136735000D02*
X121635000Y-136735000D01*
X136335000Y-122835000D02*
X136335000Y-136735000D01*
X136335000Y-122835000D02*
X121635000Y-122835000D01*
X93385000Y-99695000D02*
G75*
G03X93385000Y-99695000I-5000000J0D01*
G01*
X81035000Y-92745000D02*
X81035000Y-106645000D01*
X95735000Y-106645000D02*
X81035000Y-106645000D01*
X95735000Y-92745000D02*
X95735000Y-106645000D01*
X95735000Y-92745000D02*
X81035000Y-92745000D01*
X113685000Y-99695000D02*
G75*
G03X113685000Y-99695000I-5000000J0D01*
G01*
X101335000Y-92745000D02*
X101335000Y-106645000D01*
X116035000Y-106645000D02*
X101335000Y-106645000D01*
X116035000Y-92745000D02*
X116035000Y-106645000D01*
X116035000Y-92745000D02*
X101335000Y-92745000D01*
X93385000Y-129785000D02*
G75*
G03X93385000Y-129785000I-5000000J0D01*
G01*
X81035000Y-122835000D02*
X81035000Y-136735000D01*
X95735000Y-136735000D02*
X81035000Y-136735000D01*
X95735000Y-122835000D02*
X95735000Y-136735000D01*
X95735000Y-122835000D02*
X81035000Y-122835000D01*
X113685000Y-129785000D02*
G75*
G03X113685000Y-129785000I-5000000J0D01*
G01*
X101335000Y-122835000D02*
X101335000Y-136735000D01*
X116035000Y-136735000D02*
X101335000Y-136735000D01*
X116035000Y-122835000D02*
X116035000Y-136735000D01*
X116035000Y-122835000D02*
X101335000Y-122835000D01*
X220995714Y-93432381D02*
X220995714Y-94146667D01*
X221043334Y-94289524D01*
X221138572Y-94384762D01*
X221281429Y-94432381D01*
X221376667Y-94432381D01*
X219995714Y-94432381D02*
X220567143Y-94432381D01*
X220281429Y-94432381D02*
X220281429Y-93432381D01*
X220376667Y-93575238D01*
X220471905Y-93670476D01*
X220567143Y-93718095D01*
X219376667Y-93432381D02*
X219281428Y-93432381D01*
X219186190Y-93480000D01*
X219138571Y-93527619D01*
X219090952Y-93622857D01*
X219043333Y-93813333D01*
X219043333Y-94051429D01*
X219090952Y-94241905D01*
X219138571Y-94337143D01*
X219186190Y-94384762D01*
X219281428Y-94432381D01*
X219376667Y-94432381D01*
X219471905Y-94384762D01*
X219519524Y-94337143D01*
X219567143Y-94241905D01*
X219614762Y-94051429D01*
X219614762Y-93813333D01*
X219567143Y-93622857D01*
X219519524Y-93527619D01*
X219471905Y-93480000D01*
X219376667Y-93432381D01*
X218090952Y-94432381D02*
X218662381Y-94432381D01*
X218376667Y-94432381D02*
X218376667Y-93432381D01*
X218471905Y-93575238D01*
X218567143Y-93670476D01*
X218662381Y-93718095D01*
X220995714Y-134707381D02*
X220995714Y-135421667D01*
X221043334Y-135564524D01*
X221138572Y-135659762D01*
X221281429Y-135707381D01*
X221376667Y-135707381D01*
X219995714Y-135707381D02*
X220567143Y-135707381D01*
X220281429Y-135707381D02*
X220281429Y-134707381D01*
X220376667Y-134850238D01*
X220471905Y-134945476D01*
X220567143Y-134993095D01*
X219376667Y-134707381D02*
X219281428Y-134707381D01*
X219186190Y-134755000D01*
X219138571Y-134802619D01*
X219090952Y-134897857D01*
X219043333Y-135088333D01*
X219043333Y-135326429D01*
X219090952Y-135516905D01*
X219138571Y-135612143D01*
X219186190Y-135659762D01*
X219281428Y-135707381D01*
X219376667Y-135707381D01*
X219471905Y-135659762D01*
X219519524Y-135612143D01*
X219567143Y-135516905D01*
X219614762Y-135326429D01*
X219614762Y-135088333D01*
X219567143Y-134897857D01*
X219519524Y-134802619D01*
X219471905Y-134755000D01*
X219376667Y-134707381D01*
X218662381Y-134802619D02*
X218614762Y-134755000D01*
X218519524Y-134707381D01*
X218281428Y-134707381D01*
X218186190Y-134755000D01*
X218138571Y-134802619D01*
X218090952Y-134897857D01*
X218090952Y-134993095D01*
X218138571Y-135135952D01*
X218710000Y-135707381D01*
X218090952Y-135707381D01*
X200675714Y-93432381D02*
X200675714Y-94146667D01*
X200723334Y-94289524D01*
X200818572Y-94384762D01*
X200961429Y-94432381D01*
X201056667Y-94432381D01*
X199675714Y-94432381D02*
X200247143Y-94432381D01*
X199961429Y-94432381D02*
X199961429Y-93432381D01*
X200056667Y-93575238D01*
X200151905Y-93670476D01*
X200247143Y-93718095D01*
X199056667Y-93432381D02*
X198961428Y-93432381D01*
X198866190Y-93480000D01*
X198818571Y-93527619D01*
X198770952Y-93622857D01*
X198723333Y-93813333D01*
X198723333Y-94051429D01*
X198770952Y-94241905D01*
X198818571Y-94337143D01*
X198866190Y-94384762D01*
X198961428Y-94432381D01*
X199056667Y-94432381D01*
X199151905Y-94384762D01*
X199199524Y-94337143D01*
X199247143Y-94241905D01*
X199294762Y-94051429D01*
X199294762Y-93813333D01*
X199247143Y-93622857D01*
X199199524Y-93527619D01*
X199151905Y-93480000D01*
X199056667Y-93432381D01*
X198390000Y-93432381D02*
X197770952Y-93432381D01*
X198104286Y-93813333D01*
X197961428Y-93813333D01*
X197866190Y-93860952D01*
X197818571Y-93908571D01*
X197770952Y-94003810D01*
X197770952Y-94241905D01*
X197818571Y-94337143D01*
X197866190Y-94384762D01*
X197961428Y-94432381D01*
X198247143Y-94432381D01*
X198342381Y-94384762D01*
X198390000Y-94337143D01*
X200675714Y-134707381D02*
X200675714Y-135421667D01*
X200723334Y-135564524D01*
X200818572Y-135659762D01*
X200961429Y-135707381D01*
X201056667Y-135707381D01*
X199675714Y-135707381D02*
X200247143Y-135707381D01*
X199961429Y-135707381D02*
X199961429Y-134707381D01*
X200056667Y-134850238D01*
X200151905Y-134945476D01*
X200247143Y-134993095D01*
X199056667Y-134707381D02*
X198961428Y-134707381D01*
X198866190Y-134755000D01*
X198818571Y-134802619D01*
X198770952Y-134897857D01*
X198723333Y-135088333D01*
X198723333Y-135326429D01*
X198770952Y-135516905D01*
X198818571Y-135612143D01*
X198866190Y-135659762D01*
X198961428Y-135707381D01*
X199056667Y-135707381D01*
X199151905Y-135659762D01*
X199199524Y-135612143D01*
X199247143Y-135516905D01*
X199294762Y-135326429D01*
X199294762Y-135088333D01*
X199247143Y-134897857D01*
X199199524Y-134802619D01*
X199151905Y-134755000D01*
X199056667Y-134707381D01*
X197866190Y-135040714D02*
X197866190Y-135707381D01*
X198104286Y-134659762D02*
X198342381Y-135374048D01*
X197723333Y-135374048D01*
X180355714Y-93432381D02*
X180355714Y-94146667D01*
X180403334Y-94289524D01*
X180498572Y-94384762D01*
X180641429Y-94432381D01*
X180736667Y-94432381D01*
X179355714Y-94432381D02*
X179927143Y-94432381D01*
X179641429Y-94432381D02*
X179641429Y-93432381D01*
X179736667Y-93575238D01*
X179831905Y-93670476D01*
X179927143Y-93718095D01*
X178736667Y-93432381D02*
X178641428Y-93432381D01*
X178546190Y-93480000D01*
X178498571Y-93527619D01*
X178450952Y-93622857D01*
X178403333Y-93813333D01*
X178403333Y-94051429D01*
X178450952Y-94241905D01*
X178498571Y-94337143D01*
X178546190Y-94384762D01*
X178641428Y-94432381D01*
X178736667Y-94432381D01*
X178831905Y-94384762D01*
X178879524Y-94337143D01*
X178927143Y-94241905D01*
X178974762Y-94051429D01*
X178974762Y-93813333D01*
X178927143Y-93622857D01*
X178879524Y-93527619D01*
X178831905Y-93480000D01*
X178736667Y-93432381D01*
X177498571Y-93432381D02*
X177974762Y-93432381D01*
X178022381Y-93908571D01*
X177974762Y-93860952D01*
X177879524Y-93813333D01*
X177641428Y-93813333D01*
X177546190Y-93860952D01*
X177498571Y-93908571D01*
X177450952Y-94003810D01*
X177450952Y-94241905D01*
X177498571Y-94337143D01*
X177546190Y-94384762D01*
X177641428Y-94432381D01*
X177879524Y-94432381D01*
X177974762Y-94384762D01*
X178022381Y-94337143D01*
X180355714Y-134707381D02*
X180355714Y-135421667D01*
X180403334Y-135564524D01*
X180498572Y-135659762D01*
X180641429Y-135707381D01*
X180736667Y-135707381D01*
X179355714Y-135707381D02*
X179927143Y-135707381D01*
X179641429Y-135707381D02*
X179641429Y-134707381D01*
X179736667Y-134850238D01*
X179831905Y-134945476D01*
X179927143Y-134993095D01*
X178736667Y-134707381D02*
X178641428Y-134707381D01*
X178546190Y-134755000D01*
X178498571Y-134802619D01*
X178450952Y-134897857D01*
X178403333Y-135088333D01*
X178403333Y-135326429D01*
X178450952Y-135516905D01*
X178498571Y-135612143D01*
X178546190Y-135659762D01*
X178641428Y-135707381D01*
X178736667Y-135707381D01*
X178831905Y-135659762D01*
X178879524Y-135612143D01*
X178927143Y-135516905D01*
X178974762Y-135326429D01*
X178974762Y-135088333D01*
X178927143Y-134897857D01*
X178879524Y-134802619D01*
X178831905Y-134755000D01*
X178736667Y-134707381D01*
X177546190Y-134707381D02*
X177736667Y-134707381D01*
X177831905Y-134755000D01*
X177879524Y-134802619D01*
X177974762Y-134945476D01*
X178022381Y-135135952D01*
X178022381Y-135516905D01*
X177974762Y-135612143D01*
X177927143Y-135659762D01*
X177831905Y-135707381D01*
X177641428Y-135707381D01*
X177546190Y-135659762D01*
X177498571Y-135612143D01*
X177450952Y-135516905D01*
X177450952Y-135278810D01*
X177498571Y-135183571D01*
X177546190Y-135135952D01*
X177641428Y-135088333D01*
X177831905Y-135088333D01*
X177927143Y-135135952D01*
X177974762Y-135183571D01*
X178022381Y-135278810D01*
X160035714Y-93432381D02*
X160035714Y-94146667D01*
X160083334Y-94289524D01*
X160178572Y-94384762D01*
X160321429Y-94432381D01*
X160416667Y-94432381D01*
X159035714Y-94432381D02*
X159607143Y-94432381D01*
X159321429Y-94432381D02*
X159321429Y-93432381D01*
X159416667Y-93575238D01*
X159511905Y-93670476D01*
X159607143Y-93718095D01*
X158416667Y-93432381D02*
X158321428Y-93432381D01*
X158226190Y-93480000D01*
X158178571Y-93527619D01*
X158130952Y-93622857D01*
X158083333Y-93813333D01*
X158083333Y-94051429D01*
X158130952Y-94241905D01*
X158178571Y-94337143D01*
X158226190Y-94384762D01*
X158321428Y-94432381D01*
X158416667Y-94432381D01*
X158511905Y-94384762D01*
X158559524Y-94337143D01*
X158607143Y-94241905D01*
X158654762Y-94051429D01*
X158654762Y-93813333D01*
X158607143Y-93622857D01*
X158559524Y-93527619D01*
X158511905Y-93480000D01*
X158416667Y-93432381D01*
X157750000Y-93432381D02*
X157083333Y-93432381D01*
X157511905Y-94432381D01*
X160035714Y-134707381D02*
X160035714Y-135421667D01*
X160083334Y-135564524D01*
X160178572Y-135659762D01*
X160321429Y-135707381D01*
X160416667Y-135707381D01*
X159035714Y-135707381D02*
X159607143Y-135707381D01*
X159321429Y-135707381D02*
X159321429Y-134707381D01*
X159416667Y-134850238D01*
X159511905Y-134945476D01*
X159607143Y-134993095D01*
X158416667Y-134707381D02*
X158321428Y-134707381D01*
X158226190Y-134755000D01*
X158178571Y-134802619D01*
X158130952Y-134897857D01*
X158083333Y-135088333D01*
X158083333Y-135326429D01*
X158130952Y-135516905D01*
X158178571Y-135612143D01*
X158226190Y-135659762D01*
X158321428Y-135707381D01*
X158416667Y-135707381D01*
X158511905Y-135659762D01*
X158559524Y-135612143D01*
X158607143Y-135516905D01*
X158654762Y-135326429D01*
X158654762Y-135088333D01*
X158607143Y-134897857D01*
X158559524Y-134802619D01*
X158511905Y-134755000D01*
X158416667Y-134707381D01*
X157511905Y-135135952D02*
X157607143Y-135088333D01*
X157654762Y-135040714D01*
X157702381Y-134945476D01*
X157702381Y-134897857D01*
X157654762Y-134802619D01*
X157607143Y-134755000D01*
X157511905Y-134707381D01*
X157321428Y-134707381D01*
X157226190Y-134755000D01*
X157178571Y-134802619D01*
X157130952Y-134897857D01*
X157130952Y-134945476D01*
X157178571Y-135040714D01*
X157226190Y-135088333D01*
X157321428Y-135135952D01*
X157511905Y-135135952D01*
X157607143Y-135183571D01*
X157654762Y-135231190D01*
X157702381Y-135326429D01*
X157702381Y-135516905D01*
X157654762Y-135612143D01*
X157607143Y-135659762D01*
X157511905Y-135707381D01*
X157321428Y-135707381D01*
X157226190Y-135659762D01*
X157178571Y-135612143D01*
X157130952Y-135516905D01*
X157130952Y-135326429D01*
X157178571Y-135231190D01*
X157226190Y-135183571D01*
X157321428Y-135135952D01*
X139715714Y-93432381D02*
X139715714Y-94146667D01*
X139763334Y-94289524D01*
X139858572Y-94384762D01*
X140001429Y-94432381D01*
X140096667Y-94432381D01*
X138715714Y-94432381D02*
X139287143Y-94432381D01*
X139001429Y-94432381D02*
X139001429Y-93432381D01*
X139096667Y-93575238D01*
X139191905Y-93670476D01*
X139287143Y-93718095D01*
X138096667Y-93432381D02*
X138001428Y-93432381D01*
X137906190Y-93480000D01*
X137858571Y-93527619D01*
X137810952Y-93622857D01*
X137763333Y-93813333D01*
X137763333Y-94051429D01*
X137810952Y-94241905D01*
X137858571Y-94337143D01*
X137906190Y-94384762D01*
X138001428Y-94432381D01*
X138096667Y-94432381D01*
X138191905Y-94384762D01*
X138239524Y-94337143D01*
X138287143Y-94241905D01*
X138334762Y-94051429D01*
X138334762Y-93813333D01*
X138287143Y-93622857D01*
X138239524Y-93527619D01*
X138191905Y-93480000D01*
X138096667Y-93432381D01*
X137287143Y-94432381D02*
X137096667Y-94432381D01*
X137001428Y-94384762D01*
X136953809Y-94337143D01*
X136858571Y-94194286D01*
X136810952Y-94003810D01*
X136810952Y-93622857D01*
X136858571Y-93527619D01*
X136906190Y-93480000D01*
X137001428Y-93432381D01*
X137191905Y-93432381D01*
X137287143Y-93480000D01*
X137334762Y-93527619D01*
X137382381Y-93622857D01*
X137382381Y-93860952D01*
X137334762Y-93956190D01*
X137287143Y-94003810D01*
X137191905Y-94051429D01*
X137001428Y-94051429D01*
X136906190Y-94003810D01*
X136858571Y-93956190D01*
X136810952Y-93860952D01*
X139715714Y-134707381D02*
X139715714Y-135421667D01*
X139763334Y-135564524D01*
X139858572Y-135659762D01*
X140001429Y-135707381D01*
X140096667Y-135707381D01*
X138715714Y-135707381D02*
X139287143Y-135707381D01*
X139001429Y-135707381D02*
X139001429Y-134707381D01*
X139096667Y-134850238D01*
X139191905Y-134945476D01*
X139287143Y-134993095D01*
X137763333Y-135707381D02*
X138334762Y-135707381D01*
X138049048Y-135707381D02*
X138049048Y-134707381D01*
X138144286Y-134850238D01*
X138239524Y-134945476D01*
X138334762Y-134993095D01*
X137144286Y-134707381D02*
X137049047Y-134707381D01*
X136953809Y-134755000D01*
X136906190Y-134802619D01*
X136858571Y-134897857D01*
X136810952Y-135088333D01*
X136810952Y-135326429D01*
X136858571Y-135516905D01*
X136906190Y-135612143D01*
X136953809Y-135659762D01*
X137049047Y-135707381D01*
X137144286Y-135707381D01*
X137239524Y-135659762D01*
X137287143Y-135612143D01*
X137334762Y-135516905D01*
X137382381Y-135326429D01*
X137382381Y-135088333D01*
X137334762Y-134897857D01*
X137287143Y-134802619D01*
X137239524Y-134755000D01*
X137144286Y-134707381D01*
X99075714Y-93432381D02*
X99075714Y-94146667D01*
X99123334Y-94289524D01*
X99218572Y-94384762D01*
X99361429Y-94432381D01*
X99456667Y-94432381D01*
X98075714Y-94432381D02*
X98647143Y-94432381D01*
X98361429Y-94432381D02*
X98361429Y-93432381D01*
X98456667Y-93575238D01*
X98551905Y-93670476D01*
X98647143Y-93718095D01*
X97123333Y-94432381D02*
X97694762Y-94432381D01*
X97409048Y-94432381D02*
X97409048Y-93432381D01*
X97504286Y-93575238D01*
X97599524Y-93670476D01*
X97694762Y-93718095D01*
X96170952Y-94432381D02*
X96742381Y-94432381D01*
X96456667Y-94432381D02*
X96456667Y-93432381D01*
X96551905Y-93575238D01*
X96647143Y-93670476D01*
X96742381Y-93718095D01*
X119395714Y-93432381D02*
X119395714Y-94146667D01*
X119443334Y-94289524D01*
X119538572Y-94384762D01*
X119681429Y-94432381D01*
X119776667Y-94432381D01*
X118395714Y-94432381D02*
X118967143Y-94432381D01*
X118681429Y-94432381D02*
X118681429Y-93432381D01*
X118776667Y-93575238D01*
X118871905Y-93670476D01*
X118967143Y-93718095D01*
X117443333Y-94432381D02*
X118014762Y-94432381D01*
X117729048Y-94432381D02*
X117729048Y-93432381D01*
X117824286Y-93575238D01*
X117919524Y-93670476D01*
X118014762Y-93718095D01*
X117062381Y-93527619D02*
X117014762Y-93480000D01*
X116919524Y-93432381D01*
X116681428Y-93432381D01*
X116586190Y-93480000D01*
X116538571Y-93527619D01*
X116490952Y-93622857D01*
X116490952Y-93718095D01*
X116538571Y-93860952D01*
X117110000Y-94432381D01*
X116490952Y-94432381D01*
X99075714Y-134707381D02*
X99075714Y-135421667D01*
X99123334Y-135564524D01*
X99218572Y-135659762D01*
X99361429Y-135707381D01*
X99456667Y-135707381D01*
X98075714Y-135707381D02*
X98647143Y-135707381D01*
X98361429Y-135707381D02*
X98361429Y-134707381D01*
X98456667Y-134850238D01*
X98551905Y-134945476D01*
X98647143Y-134993095D01*
X97123333Y-135707381D02*
X97694762Y-135707381D01*
X97409048Y-135707381D02*
X97409048Y-134707381D01*
X97504286Y-134850238D01*
X97599524Y-134945476D01*
X97694762Y-134993095D01*
X96790000Y-134707381D02*
X96170952Y-134707381D01*
X96504286Y-135088333D01*
X96361428Y-135088333D01*
X96266190Y-135135952D01*
X96218571Y-135183571D01*
X96170952Y-135278810D01*
X96170952Y-135516905D01*
X96218571Y-135612143D01*
X96266190Y-135659762D01*
X96361428Y-135707381D01*
X96647143Y-135707381D01*
X96742381Y-135659762D01*
X96790000Y-135612143D01*
X119395714Y-134707381D02*
X119395714Y-135421667D01*
X119443334Y-135564524D01*
X119538572Y-135659762D01*
X119681429Y-135707381D01*
X119776667Y-135707381D01*
X118395714Y-135707381D02*
X118967143Y-135707381D01*
X118681429Y-135707381D02*
X118681429Y-134707381D01*
X118776667Y-134850238D01*
X118871905Y-134945476D01*
X118967143Y-134993095D01*
X117443333Y-135707381D02*
X118014762Y-135707381D01*
X117729048Y-135707381D02*
X117729048Y-134707381D01*
X117824286Y-134850238D01*
X117919524Y-134945476D01*
X118014762Y-134993095D01*
X116586190Y-135040714D02*
X116586190Y-135707381D01*
X116824286Y-134659762D02*
X117062381Y-135374048D01*
X116443333Y-135374048D01*
M02*
