G04 #@! TF.FileFunction,Copper,L2,Bot,Signal*
%FSLAX46Y46*%
G04 Gerber Fmt 4.6, Leading zero omitted, Abs format (unit mm)*
G04 Created by KiCad (PCBNEW 4.0.4+e1-6308~48~ubuntu15.10.1-stable) date Mon Jul 31 18:12:38 2017*
%MOMM*%
%LPD*%
G01*
G04 APERTURE LIST*
%ADD10C,0.100000*%
%ADD11R,1.700000X1.700000*%
%ADD12O,1.700000X1.700000*%
%ADD13C,6.400000*%
%ADD14R,1.600000X1.600000*%
%ADD15C,1.600000*%
%ADD16C,1.400000*%
%ADD17C,0.600000*%
%ADD18C,0.250000*%
%ADD19C,0.254000*%
G04 APERTURE END LIST*
D10*
D11*
X147320000Y-105410000D03*
D12*
X147320000Y-107950000D03*
X147320000Y-110490000D03*
X147320000Y-113030000D03*
X147320000Y-115570000D03*
X147320000Y-118110000D03*
D11*
X185420000Y-97790000D03*
D12*
X187960000Y-97790000D03*
X190500000Y-97790000D03*
X193040000Y-97790000D03*
X195580000Y-97790000D03*
X198120000Y-97790000D03*
D11*
X147320000Y-97790000D03*
D12*
X149860000Y-97790000D03*
X152400000Y-97790000D03*
X154940000Y-97790000D03*
X157480000Y-97790000D03*
X160020000Y-97790000D03*
D13*
X205740000Y-109220000D03*
D14*
X153670000Y-105410000D03*
D15*
X153670000Y-107910000D03*
D14*
X160020000Y-105410000D03*
D15*
X160020000Y-107910000D03*
D14*
X153670000Y-111760000D03*
D15*
X153670000Y-114260000D03*
D16*
X170815000Y-99060000D03*
X170815000Y-101600000D03*
X174625000Y-101600000D03*
X174625000Y-99060000D03*
D17*
X178104800Y-115570000D03*
X183184800Y-111633000D03*
D18*
X147320000Y-107950000D02*
X153630000Y-107950000D01*
X153630000Y-107950000D02*
X153670000Y-107910000D01*
X147320000Y-113030000D02*
X152440000Y-113030000D01*
X152440000Y-113030000D02*
X153670000Y-114260000D01*
X178104800Y-115570000D02*
X154980000Y-115570000D01*
X154980000Y-115570000D02*
X153670000Y-114260000D01*
X147320000Y-105410000D02*
X153670000Y-105410000D01*
X147320000Y-110490000D02*
X154940000Y-110490000D01*
X154940000Y-110490000D02*
X160020000Y-105410000D01*
X183184800Y-111633000D02*
X183184800Y-101904800D01*
X156210000Y-96520000D02*
X154940000Y-97790000D01*
X177800000Y-96520000D02*
X156210000Y-96520000D01*
X183184800Y-101904800D02*
X177800000Y-96520000D01*
D19*
G36*
X208840000Y-106897168D02*
X207915189Y-105970741D01*
X206506175Y-105385667D01*
X204980518Y-105384336D01*
X203570485Y-105966950D01*
X202490741Y-107044811D01*
X201905667Y-108453825D01*
X201904336Y-109979482D01*
X202486950Y-111389515D01*
X203564811Y-112469259D01*
X204973825Y-113054333D01*
X206499482Y-113055664D01*
X207909515Y-112473050D01*
X208840000Y-111544188D01*
X208840000Y-120575000D01*
X144855000Y-120575000D01*
X144855000Y-110490000D01*
X145805907Y-110490000D01*
X145918946Y-111058285D01*
X146240853Y-111540054D01*
X146570026Y-111760000D01*
X146240853Y-111979946D01*
X145918946Y-112461715D01*
X145805907Y-113030000D01*
X145918946Y-113598285D01*
X146240853Y-114080054D01*
X146570026Y-114300000D01*
X146240853Y-114519946D01*
X145918946Y-115001715D01*
X145805907Y-115570000D01*
X145918946Y-116138285D01*
X146240853Y-116620054D01*
X146570026Y-116840000D01*
X146240853Y-117059946D01*
X145918946Y-117541715D01*
X145805907Y-118110000D01*
X145918946Y-118678285D01*
X146240853Y-119160054D01*
X146722622Y-119481961D01*
X147290907Y-119595000D01*
X147349093Y-119595000D01*
X147917378Y-119481961D01*
X148399147Y-119160054D01*
X148721054Y-118678285D01*
X148834093Y-118110000D01*
X148721054Y-117541715D01*
X148399147Y-117059946D01*
X148069974Y-116840000D01*
X148399147Y-116620054D01*
X148721054Y-116138285D01*
X148834093Y-115570000D01*
X148721054Y-115001715D01*
X148399147Y-114519946D01*
X148069974Y-114300000D01*
X148399147Y-114080054D01*
X148592954Y-113790000D01*
X152125198Y-113790000D01*
X152256744Y-113921546D01*
X152235250Y-113973309D01*
X152234752Y-114544187D01*
X152452757Y-115071800D01*
X152856077Y-115475824D01*
X153383309Y-115694750D01*
X153954187Y-115695248D01*
X154008149Y-115672951D01*
X154442599Y-116107401D01*
X154689161Y-116272148D01*
X154980000Y-116330000D01*
X177542337Y-116330000D01*
X177574473Y-116362192D01*
X177918001Y-116504838D01*
X178289967Y-116505162D01*
X178633743Y-116363117D01*
X178896992Y-116100327D01*
X179039638Y-115756799D01*
X179039962Y-115384833D01*
X178897917Y-115041057D01*
X178635127Y-114777808D01*
X178291599Y-114635162D01*
X177919633Y-114634838D01*
X177575857Y-114776883D01*
X177542682Y-114810000D01*
X155294802Y-114810000D01*
X155083256Y-114598454D01*
X155104750Y-114546691D01*
X155105248Y-113975813D01*
X154887243Y-113448200D01*
X154623317Y-113183813D01*
X154829699Y-113098327D01*
X155008327Y-112919698D01*
X155105000Y-112686309D01*
X155105000Y-112045750D01*
X154946250Y-111887000D01*
X153797000Y-111887000D01*
X153797000Y-111907000D01*
X153543000Y-111907000D01*
X153543000Y-111887000D01*
X152393750Y-111887000D01*
X152235000Y-112045750D01*
X152235000Y-112270000D01*
X148592954Y-112270000D01*
X148399147Y-111979946D01*
X148069974Y-111760000D01*
X148399147Y-111540054D01*
X148592954Y-111250000D01*
X152235000Y-111250000D01*
X152235000Y-111474250D01*
X152393750Y-111633000D01*
X153543000Y-111633000D01*
X153543000Y-111613000D01*
X153797000Y-111613000D01*
X153797000Y-111633000D01*
X154946250Y-111633000D01*
X155105000Y-111474250D01*
X155105000Y-111217179D01*
X155230839Y-111192148D01*
X155477401Y-111027401D01*
X157587057Y-108917745D01*
X159191861Y-108917745D01*
X159265995Y-109163864D01*
X159803223Y-109356965D01*
X160373454Y-109329778D01*
X160774005Y-109163864D01*
X160848139Y-108917745D01*
X160020000Y-108089605D01*
X159191861Y-108917745D01*
X157587057Y-108917745D01*
X158583891Y-107920911D01*
X158600222Y-108263454D01*
X158766136Y-108664005D01*
X159012255Y-108738139D01*
X159840395Y-107910000D01*
X160199605Y-107910000D01*
X161027745Y-108738139D01*
X161273864Y-108664005D01*
X161466965Y-108126777D01*
X161439778Y-107556546D01*
X161273864Y-107155995D01*
X161027745Y-107081861D01*
X160199605Y-107910000D01*
X159840395Y-107910000D01*
X159826252Y-107895858D01*
X160005858Y-107716252D01*
X160020000Y-107730395D01*
X160848139Y-106902255D01*
X160833855Y-106854833D01*
X161055317Y-106813162D01*
X161271441Y-106674090D01*
X161416431Y-106461890D01*
X161467440Y-106210000D01*
X161467440Y-104610000D01*
X161423162Y-104374683D01*
X161284090Y-104158559D01*
X161071890Y-104013569D01*
X160820000Y-103962560D01*
X159220000Y-103962560D01*
X158984683Y-104006838D01*
X158768559Y-104145910D01*
X158623569Y-104358110D01*
X158572560Y-104610000D01*
X158572560Y-105782638D01*
X154625198Y-109730000D01*
X148592954Y-109730000D01*
X148399147Y-109439946D01*
X148058447Y-109212298D01*
X148201358Y-109145183D01*
X148408629Y-108917745D01*
X152841861Y-108917745D01*
X152915995Y-109163864D01*
X153453223Y-109356965D01*
X154023454Y-109329778D01*
X154424005Y-109163864D01*
X154498139Y-108917745D01*
X153670000Y-108089605D01*
X152841861Y-108917745D01*
X148408629Y-108917745D01*
X148591645Y-108716924D01*
X148761476Y-108306890D01*
X148640155Y-108077000D01*
X147447000Y-108077000D01*
X147447000Y-108097000D01*
X147193000Y-108097000D01*
X147193000Y-108077000D01*
X145999845Y-108077000D01*
X145878524Y-108306890D01*
X146048355Y-108716924D01*
X146438642Y-109145183D01*
X146581553Y-109212298D01*
X146240853Y-109439946D01*
X145918946Y-109921715D01*
X145805907Y-110490000D01*
X144855000Y-110490000D01*
X144855000Y-104560000D01*
X145822560Y-104560000D01*
X145822560Y-106260000D01*
X145866838Y-106495317D01*
X146005910Y-106711441D01*
X146218110Y-106856431D01*
X146326107Y-106878301D01*
X146048355Y-107183076D01*
X145878524Y-107593110D01*
X145999845Y-107823000D01*
X147193000Y-107823000D01*
X147193000Y-107803000D01*
X147447000Y-107803000D01*
X147447000Y-107823000D01*
X148640155Y-107823000D01*
X148708642Y-107693223D01*
X152223035Y-107693223D01*
X152250222Y-108263454D01*
X152416136Y-108664005D01*
X152662255Y-108738139D01*
X153490395Y-107910000D01*
X153849605Y-107910000D01*
X154677745Y-108738139D01*
X154923864Y-108664005D01*
X155116965Y-108126777D01*
X155089778Y-107556546D01*
X154923864Y-107155995D01*
X154677745Y-107081861D01*
X153849605Y-107910000D01*
X153490395Y-107910000D01*
X152662255Y-107081861D01*
X152416136Y-107155995D01*
X152223035Y-107693223D01*
X148708642Y-107693223D01*
X148761476Y-107593110D01*
X148591645Y-107183076D01*
X148315499Y-106880063D01*
X148405317Y-106863162D01*
X148621441Y-106724090D01*
X148766431Y-106511890D01*
X148817440Y-106260000D01*
X148817440Y-106170000D01*
X152222560Y-106170000D01*
X152222560Y-106210000D01*
X152266838Y-106445317D01*
X152405910Y-106661441D01*
X152618110Y-106806431D01*
X152856201Y-106854646D01*
X152841861Y-106902255D01*
X153670000Y-107730395D01*
X154498139Y-106902255D01*
X154483855Y-106854833D01*
X154705317Y-106813162D01*
X154921441Y-106674090D01*
X155066431Y-106461890D01*
X155117440Y-106210000D01*
X155117440Y-104610000D01*
X155073162Y-104374683D01*
X154934090Y-104158559D01*
X154721890Y-104013569D01*
X154470000Y-103962560D01*
X152870000Y-103962560D01*
X152634683Y-104006838D01*
X152418559Y-104145910D01*
X152273569Y-104358110D01*
X152222560Y-104610000D01*
X152222560Y-104650000D01*
X148817440Y-104650000D01*
X148817440Y-104560000D01*
X148773162Y-104324683D01*
X148634090Y-104108559D01*
X148421890Y-103963569D01*
X148170000Y-103912560D01*
X146470000Y-103912560D01*
X146234683Y-103956838D01*
X146018559Y-104095910D01*
X145873569Y-104308110D01*
X145822560Y-104560000D01*
X144855000Y-104560000D01*
X144855000Y-99324383D01*
X169479769Y-99324383D01*
X169682582Y-99815229D01*
X170057796Y-100191098D01*
X170392527Y-100330091D01*
X170059771Y-100467582D01*
X169683902Y-100842796D01*
X169480232Y-101333287D01*
X169479769Y-101864383D01*
X169682582Y-102355229D01*
X170057796Y-102731098D01*
X170548287Y-102934768D01*
X171079383Y-102935231D01*
X171570229Y-102732418D01*
X171767716Y-102535275D01*
X173869331Y-102535275D01*
X173931169Y-102771042D01*
X174432122Y-102947419D01*
X174962440Y-102918664D01*
X175318831Y-102771042D01*
X175380669Y-102535275D01*
X174625000Y-101779605D01*
X173869331Y-102535275D01*
X171767716Y-102535275D01*
X171946098Y-102357204D01*
X172149768Y-101866713D01*
X172150168Y-101407122D01*
X173277581Y-101407122D01*
X173306336Y-101937440D01*
X173453958Y-102293831D01*
X173689725Y-102355669D01*
X174445395Y-101600000D01*
X174804605Y-101600000D01*
X175560275Y-102355669D01*
X175796042Y-102293831D01*
X175972419Y-101792878D01*
X175943664Y-101262560D01*
X175796042Y-100906169D01*
X175560275Y-100844331D01*
X174804605Y-101600000D01*
X174445395Y-101600000D01*
X173689725Y-100844331D01*
X173453958Y-100906169D01*
X173277581Y-101407122D01*
X172150168Y-101407122D01*
X172150231Y-101335617D01*
X171947418Y-100844771D01*
X171572204Y-100468902D01*
X171237473Y-100329909D01*
X171570229Y-100192418D01*
X171946098Y-99817204D01*
X172149768Y-99326713D01*
X172149770Y-99324383D01*
X173289769Y-99324383D01*
X173492582Y-99815229D01*
X173867796Y-100191098D01*
X174186212Y-100323316D01*
X173931169Y-100428958D01*
X173869331Y-100664725D01*
X174625000Y-101420395D01*
X175380669Y-100664725D01*
X175318831Y-100428958D01*
X175042889Y-100331804D01*
X175380229Y-100192418D01*
X175756098Y-99817204D01*
X175959768Y-99326713D01*
X175960231Y-98795617D01*
X175757418Y-98304771D01*
X175382204Y-97928902D01*
X174891713Y-97725232D01*
X174360617Y-97724769D01*
X173869771Y-97927582D01*
X173493902Y-98302796D01*
X173290232Y-98793287D01*
X173289769Y-99324383D01*
X172149770Y-99324383D01*
X172150231Y-98795617D01*
X171947418Y-98304771D01*
X171572204Y-97928902D01*
X171081713Y-97725232D01*
X170550617Y-97724769D01*
X170059771Y-97927582D01*
X169683902Y-98302796D01*
X169480232Y-98793287D01*
X169479769Y-99324383D01*
X144855000Y-99324383D01*
X144855000Y-96940000D01*
X145822560Y-96940000D01*
X145822560Y-98640000D01*
X145866838Y-98875317D01*
X146005910Y-99091441D01*
X146218110Y-99236431D01*
X146470000Y-99287440D01*
X148170000Y-99287440D01*
X148405317Y-99243162D01*
X148621441Y-99104090D01*
X148766431Y-98891890D01*
X148788301Y-98783893D01*
X149093076Y-99061645D01*
X149503110Y-99231476D01*
X149733000Y-99110155D01*
X149733000Y-97917000D01*
X149713000Y-97917000D01*
X149713000Y-97663000D01*
X149733000Y-97663000D01*
X149733000Y-96469845D01*
X149987000Y-96469845D01*
X149987000Y-97663000D01*
X150007000Y-97663000D01*
X150007000Y-97917000D01*
X149987000Y-97917000D01*
X149987000Y-99110155D01*
X150216890Y-99231476D01*
X150626924Y-99061645D01*
X151055183Y-98671358D01*
X151122298Y-98528447D01*
X151349946Y-98869147D01*
X151831715Y-99191054D01*
X152400000Y-99304093D01*
X152968285Y-99191054D01*
X153450054Y-98869147D01*
X153670000Y-98539974D01*
X153889946Y-98869147D01*
X154371715Y-99191054D01*
X154940000Y-99304093D01*
X155508285Y-99191054D01*
X155990054Y-98869147D01*
X156210000Y-98539974D01*
X156429946Y-98869147D01*
X156911715Y-99191054D01*
X157480000Y-99304093D01*
X158048285Y-99191054D01*
X158530054Y-98869147D01*
X158750000Y-98539974D01*
X158969946Y-98869147D01*
X159451715Y-99191054D01*
X160020000Y-99304093D01*
X160588285Y-99191054D01*
X161070054Y-98869147D01*
X161391961Y-98387378D01*
X161505000Y-97819093D01*
X161505000Y-97760907D01*
X161409342Y-97280000D01*
X177485198Y-97280000D01*
X182424800Y-102219602D01*
X182424800Y-111070537D01*
X182392608Y-111102673D01*
X182249962Y-111446201D01*
X182249638Y-111818167D01*
X182391683Y-112161943D01*
X182654473Y-112425192D01*
X182998001Y-112567838D01*
X183369967Y-112568162D01*
X183713743Y-112426117D01*
X183976992Y-112163327D01*
X184119638Y-111819799D01*
X184119962Y-111447833D01*
X183977917Y-111104057D01*
X183944800Y-111070882D01*
X183944800Y-101904800D01*
X183937224Y-101866713D01*
X183886948Y-101613960D01*
X183722201Y-101367399D01*
X179294802Y-96940000D01*
X183922560Y-96940000D01*
X183922560Y-98640000D01*
X183966838Y-98875317D01*
X184105910Y-99091441D01*
X184318110Y-99236431D01*
X184570000Y-99287440D01*
X186270000Y-99287440D01*
X186505317Y-99243162D01*
X186721441Y-99104090D01*
X186866431Y-98891890D01*
X186880086Y-98824459D01*
X186909946Y-98869147D01*
X187391715Y-99191054D01*
X187960000Y-99304093D01*
X188528285Y-99191054D01*
X189010054Y-98869147D01*
X189230000Y-98539974D01*
X189449946Y-98869147D01*
X189931715Y-99191054D01*
X190500000Y-99304093D01*
X191068285Y-99191054D01*
X191550054Y-98869147D01*
X191770000Y-98539974D01*
X191989946Y-98869147D01*
X192471715Y-99191054D01*
X193040000Y-99304093D01*
X193608285Y-99191054D01*
X194090054Y-98869147D01*
X194310000Y-98539974D01*
X194529946Y-98869147D01*
X195011715Y-99191054D01*
X195580000Y-99304093D01*
X196148285Y-99191054D01*
X196630054Y-98869147D01*
X196850000Y-98539974D01*
X197069946Y-98869147D01*
X197551715Y-99191054D01*
X198120000Y-99304093D01*
X198688285Y-99191054D01*
X199170054Y-98869147D01*
X199491961Y-98387378D01*
X199605000Y-97819093D01*
X199605000Y-97760907D01*
X199491961Y-97192622D01*
X199170054Y-96710853D01*
X198688285Y-96388946D01*
X198120000Y-96275907D01*
X197551715Y-96388946D01*
X197069946Y-96710853D01*
X196850000Y-97040026D01*
X196630054Y-96710853D01*
X196148285Y-96388946D01*
X195580000Y-96275907D01*
X195011715Y-96388946D01*
X194529946Y-96710853D01*
X194310000Y-97040026D01*
X194090054Y-96710853D01*
X193608285Y-96388946D01*
X193040000Y-96275907D01*
X192471715Y-96388946D01*
X191989946Y-96710853D01*
X191770000Y-97040026D01*
X191550054Y-96710853D01*
X191068285Y-96388946D01*
X190500000Y-96275907D01*
X189931715Y-96388946D01*
X189449946Y-96710853D01*
X189230000Y-97040026D01*
X189010054Y-96710853D01*
X188528285Y-96388946D01*
X187960000Y-96275907D01*
X187391715Y-96388946D01*
X186909946Y-96710853D01*
X186882150Y-96752452D01*
X186873162Y-96704683D01*
X186734090Y-96488559D01*
X186521890Y-96343569D01*
X186270000Y-96292560D01*
X184570000Y-96292560D01*
X184334683Y-96336838D01*
X184118559Y-96475910D01*
X183973569Y-96688110D01*
X183922560Y-96940000D01*
X179294802Y-96940000D01*
X178337401Y-95982599D01*
X178090839Y-95817852D01*
X177800000Y-95760000D01*
X156210000Y-95760000D01*
X155919160Y-95817852D01*
X155672599Y-95982599D01*
X155306408Y-96348790D01*
X154940000Y-96275907D01*
X154371715Y-96388946D01*
X153889946Y-96710853D01*
X153670000Y-97040026D01*
X153450054Y-96710853D01*
X152968285Y-96388946D01*
X152400000Y-96275907D01*
X151831715Y-96388946D01*
X151349946Y-96710853D01*
X151122298Y-97051553D01*
X151055183Y-96908642D01*
X150626924Y-96518355D01*
X150216890Y-96348524D01*
X149987000Y-96469845D01*
X149733000Y-96469845D01*
X149503110Y-96348524D01*
X149093076Y-96518355D01*
X148790063Y-96794501D01*
X148773162Y-96704683D01*
X148634090Y-96488559D01*
X148421890Y-96343569D01*
X148170000Y-96292560D01*
X146470000Y-96292560D01*
X146234683Y-96336838D01*
X146018559Y-96475910D01*
X145873569Y-96688110D01*
X145822560Y-96940000D01*
X144855000Y-96940000D01*
X144855000Y-95325000D01*
X208840000Y-95325000D01*
X208840000Y-106897168D01*
X208840000Y-106897168D01*
G37*
X208840000Y-106897168D02*
X207915189Y-105970741D01*
X206506175Y-105385667D01*
X204980518Y-105384336D01*
X203570485Y-105966950D01*
X202490741Y-107044811D01*
X201905667Y-108453825D01*
X201904336Y-109979482D01*
X202486950Y-111389515D01*
X203564811Y-112469259D01*
X204973825Y-113054333D01*
X206499482Y-113055664D01*
X207909515Y-112473050D01*
X208840000Y-111544188D01*
X208840000Y-120575000D01*
X144855000Y-120575000D01*
X144855000Y-110490000D01*
X145805907Y-110490000D01*
X145918946Y-111058285D01*
X146240853Y-111540054D01*
X146570026Y-111760000D01*
X146240853Y-111979946D01*
X145918946Y-112461715D01*
X145805907Y-113030000D01*
X145918946Y-113598285D01*
X146240853Y-114080054D01*
X146570026Y-114300000D01*
X146240853Y-114519946D01*
X145918946Y-115001715D01*
X145805907Y-115570000D01*
X145918946Y-116138285D01*
X146240853Y-116620054D01*
X146570026Y-116840000D01*
X146240853Y-117059946D01*
X145918946Y-117541715D01*
X145805907Y-118110000D01*
X145918946Y-118678285D01*
X146240853Y-119160054D01*
X146722622Y-119481961D01*
X147290907Y-119595000D01*
X147349093Y-119595000D01*
X147917378Y-119481961D01*
X148399147Y-119160054D01*
X148721054Y-118678285D01*
X148834093Y-118110000D01*
X148721054Y-117541715D01*
X148399147Y-117059946D01*
X148069974Y-116840000D01*
X148399147Y-116620054D01*
X148721054Y-116138285D01*
X148834093Y-115570000D01*
X148721054Y-115001715D01*
X148399147Y-114519946D01*
X148069974Y-114300000D01*
X148399147Y-114080054D01*
X148592954Y-113790000D01*
X152125198Y-113790000D01*
X152256744Y-113921546D01*
X152235250Y-113973309D01*
X152234752Y-114544187D01*
X152452757Y-115071800D01*
X152856077Y-115475824D01*
X153383309Y-115694750D01*
X153954187Y-115695248D01*
X154008149Y-115672951D01*
X154442599Y-116107401D01*
X154689161Y-116272148D01*
X154980000Y-116330000D01*
X177542337Y-116330000D01*
X177574473Y-116362192D01*
X177918001Y-116504838D01*
X178289967Y-116505162D01*
X178633743Y-116363117D01*
X178896992Y-116100327D01*
X179039638Y-115756799D01*
X179039962Y-115384833D01*
X178897917Y-115041057D01*
X178635127Y-114777808D01*
X178291599Y-114635162D01*
X177919633Y-114634838D01*
X177575857Y-114776883D01*
X177542682Y-114810000D01*
X155294802Y-114810000D01*
X155083256Y-114598454D01*
X155104750Y-114546691D01*
X155105248Y-113975813D01*
X154887243Y-113448200D01*
X154623317Y-113183813D01*
X154829699Y-113098327D01*
X155008327Y-112919698D01*
X155105000Y-112686309D01*
X155105000Y-112045750D01*
X154946250Y-111887000D01*
X153797000Y-111887000D01*
X153797000Y-111907000D01*
X153543000Y-111907000D01*
X153543000Y-111887000D01*
X152393750Y-111887000D01*
X152235000Y-112045750D01*
X152235000Y-112270000D01*
X148592954Y-112270000D01*
X148399147Y-111979946D01*
X148069974Y-111760000D01*
X148399147Y-111540054D01*
X148592954Y-111250000D01*
X152235000Y-111250000D01*
X152235000Y-111474250D01*
X152393750Y-111633000D01*
X153543000Y-111633000D01*
X153543000Y-111613000D01*
X153797000Y-111613000D01*
X153797000Y-111633000D01*
X154946250Y-111633000D01*
X155105000Y-111474250D01*
X155105000Y-111217179D01*
X155230839Y-111192148D01*
X155477401Y-111027401D01*
X157587057Y-108917745D01*
X159191861Y-108917745D01*
X159265995Y-109163864D01*
X159803223Y-109356965D01*
X160373454Y-109329778D01*
X160774005Y-109163864D01*
X160848139Y-108917745D01*
X160020000Y-108089605D01*
X159191861Y-108917745D01*
X157587057Y-108917745D01*
X158583891Y-107920911D01*
X158600222Y-108263454D01*
X158766136Y-108664005D01*
X159012255Y-108738139D01*
X159840395Y-107910000D01*
X160199605Y-107910000D01*
X161027745Y-108738139D01*
X161273864Y-108664005D01*
X161466965Y-108126777D01*
X161439778Y-107556546D01*
X161273864Y-107155995D01*
X161027745Y-107081861D01*
X160199605Y-107910000D01*
X159840395Y-107910000D01*
X159826252Y-107895858D01*
X160005858Y-107716252D01*
X160020000Y-107730395D01*
X160848139Y-106902255D01*
X160833855Y-106854833D01*
X161055317Y-106813162D01*
X161271441Y-106674090D01*
X161416431Y-106461890D01*
X161467440Y-106210000D01*
X161467440Y-104610000D01*
X161423162Y-104374683D01*
X161284090Y-104158559D01*
X161071890Y-104013569D01*
X160820000Y-103962560D01*
X159220000Y-103962560D01*
X158984683Y-104006838D01*
X158768559Y-104145910D01*
X158623569Y-104358110D01*
X158572560Y-104610000D01*
X158572560Y-105782638D01*
X154625198Y-109730000D01*
X148592954Y-109730000D01*
X148399147Y-109439946D01*
X148058447Y-109212298D01*
X148201358Y-109145183D01*
X148408629Y-108917745D01*
X152841861Y-108917745D01*
X152915995Y-109163864D01*
X153453223Y-109356965D01*
X154023454Y-109329778D01*
X154424005Y-109163864D01*
X154498139Y-108917745D01*
X153670000Y-108089605D01*
X152841861Y-108917745D01*
X148408629Y-108917745D01*
X148591645Y-108716924D01*
X148761476Y-108306890D01*
X148640155Y-108077000D01*
X147447000Y-108077000D01*
X147447000Y-108097000D01*
X147193000Y-108097000D01*
X147193000Y-108077000D01*
X145999845Y-108077000D01*
X145878524Y-108306890D01*
X146048355Y-108716924D01*
X146438642Y-109145183D01*
X146581553Y-109212298D01*
X146240853Y-109439946D01*
X145918946Y-109921715D01*
X145805907Y-110490000D01*
X144855000Y-110490000D01*
X144855000Y-104560000D01*
X145822560Y-104560000D01*
X145822560Y-106260000D01*
X145866838Y-106495317D01*
X146005910Y-106711441D01*
X146218110Y-106856431D01*
X146326107Y-106878301D01*
X146048355Y-107183076D01*
X145878524Y-107593110D01*
X145999845Y-107823000D01*
X147193000Y-107823000D01*
X147193000Y-107803000D01*
X147447000Y-107803000D01*
X147447000Y-107823000D01*
X148640155Y-107823000D01*
X148708642Y-107693223D01*
X152223035Y-107693223D01*
X152250222Y-108263454D01*
X152416136Y-108664005D01*
X152662255Y-108738139D01*
X153490395Y-107910000D01*
X153849605Y-107910000D01*
X154677745Y-108738139D01*
X154923864Y-108664005D01*
X155116965Y-108126777D01*
X155089778Y-107556546D01*
X154923864Y-107155995D01*
X154677745Y-107081861D01*
X153849605Y-107910000D01*
X153490395Y-107910000D01*
X152662255Y-107081861D01*
X152416136Y-107155995D01*
X152223035Y-107693223D01*
X148708642Y-107693223D01*
X148761476Y-107593110D01*
X148591645Y-107183076D01*
X148315499Y-106880063D01*
X148405317Y-106863162D01*
X148621441Y-106724090D01*
X148766431Y-106511890D01*
X148817440Y-106260000D01*
X148817440Y-106170000D01*
X152222560Y-106170000D01*
X152222560Y-106210000D01*
X152266838Y-106445317D01*
X152405910Y-106661441D01*
X152618110Y-106806431D01*
X152856201Y-106854646D01*
X152841861Y-106902255D01*
X153670000Y-107730395D01*
X154498139Y-106902255D01*
X154483855Y-106854833D01*
X154705317Y-106813162D01*
X154921441Y-106674090D01*
X155066431Y-106461890D01*
X155117440Y-106210000D01*
X155117440Y-104610000D01*
X155073162Y-104374683D01*
X154934090Y-104158559D01*
X154721890Y-104013569D01*
X154470000Y-103962560D01*
X152870000Y-103962560D01*
X152634683Y-104006838D01*
X152418559Y-104145910D01*
X152273569Y-104358110D01*
X152222560Y-104610000D01*
X152222560Y-104650000D01*
X148817440Y-104650000D01*
X148817440Y-104560000D01*
X148773162Y-104324683D01*
X148634090Y-104108559D01*
X148421890Y-103963569D01*
X148170000Y-103912560D01*
X146470000Y-103912560D01*
X146234683Y-103956838D01*
X146018559Y-104095910D01*
X145873569Y-104308110D01*
X145822560Y-104560000D01*
X144855000Y-104560000D01*
X144855000Y-99324383D01*
X169479769Y-99324383D01*
X169682582Y-99815229D01*
X170057796Y-100191098D01*
X170392527Y-100330091D01*
X170059771Y-100467582D01*
X169683902Y-100842796D01*
X169480232Y-101333287D01*
X169479769Y-101864383D01*
X169682582Y-102355229D01*
X170057796Y-102731098D01*
X170548287Y-102934768D01*
X171079383Y-102935231D01*
X171570229Y-102732418D01*
X171767716Y-102535275D01*
X173869331Y-102535275D01*
X173931169Y-102771042D01*
X174432122Y-102947419D01*
X174962440Y-102918664D01*
X175318831Y-102771042D01*
X175380669Y-102535275D01*
X174625000Y-101779605D01*
X173869331Y-102535275D01*
X171767716Y-102535275D01*
X171946098Y-102357204D01*
X172149768Y-101866713D01*
X172150168Y-101407122D01*
X173277581Y-101407122D01*
X173306336Y-101937440D01*
X173453958Y-102293831D01*
X173689725Y-102355669D01*
X174445395Y-101600000D01*
X174804605Y-101600000D01*
X175560275Y-102355669D01*
X175796042Y-102293831D01*
X175972419Y-101792878D01*
X175943664Y-101262560D01*
X175796042Y-100906169D01*
X175560275Y-100844331D01*
X174804605Y-101600000D01*
X174445395Y-101600000D01*
X173689725Y-100844331D01*
X173453958Y-100906169D01*
X173277581Y-101407122D01*
X172150168Y-101407122D01*
X172150231Y-101335617D01*
X171947418Y-100844771D01*
X171572204Y-100468902D01*
X171237473Y-100329909D01*
X171570229Y-100192418D01*
X171946098Y-99817204D01*
X172149768Y-99326713D01*
X172149770Y-99324383D01*
X173289769Y-99324383D01*
X173492582Y-99815229D01*
X173867796Y-100191098D01*
X174186212Y-100323316D01*
X173931169Y-100428958D01*
X173869331Y-100664725D01*
X174625000Y-101420395D01*
X175380669Y-100664725D01*
X175318831Y-100428958D01*
X175042889Y-100331804D01*
X175380229Y-100192418D01*
X175756098Y-99817204D01*
X175959768Y-99326713D01*
X175960231Y-98795617D01*
X175757418Y-98304771D01*
X175382204Y-97928902D01*
X174891713Y-97725232D01*
X174360617Y-97724769D01*
X173869771Y-97927582D01*
X173493902Y-98302796D01*
X173290232Y-98793287D01*
X173289769Y-99324383D01*
X172149770Y-99324383D01*
X172150231Y-98795617D01*
X171947418Y-98304771D01*
X171572204Y-97928902D01*
X171081713Y-97725232D01*
X170550617Y-97724769D01*
X170059771Y-97927582D01*
X169683902Y-98302796D01*
X169480232Y-98793287D01*
X169479769Y-99324383D01*
X144855000Y-99324383D01*
X144855000Y-96940000D01*
X145822560Y-96940000D01*
X145822560Y-98640000D01*
X145866838Y-98875317D01*
X146005910Y-99091441D01*
X146218110Y-99236431D01*
X146470000Y-99287440D01*
X148170000Y-99287440D01*
X148405317Y-99243162D01*
X148621441Y-99104090D01*
X148766431Y-98891890D01*
X148788301Y-98783893D01*
X149093076Y-99061645D01*
X149503110Y-99231476D01*
X149733000Y-99110155D01*
X149733000Y-97917000D01*
X149713000Y-97917000D01*
X149713000Y-97663000D01*
X149733000Y-97663000D01*
X149733000Y-96469845D01*
X149987000Y-96469845D01*
X149987000Y-97663000D01*
X150007000Y-97663000D01*
X150007000Y-97917000D01*
X149987000Y-97917000D01*
X149987000Y-99110155D01*
X150216890Y-99231476D01*
X150626924Y-99061645D01*
X151055183Y-98671358D01*
X151122298Y-98528447D01*
X151349946Y-98869147D01*
X151831715Y-99191054D01*
X152400000Y-99304093D01*
X152968285Y-99191054D01*
X153450054Y-98869147D01*
X153670000Y-98539974D01*
X153889946Y-98869147D01*
X154371715Y-99191054D01*
X154940000Y-99304093D01*
X155508285Y-99191054D01*
X155990054Y-98869147D01*
X156210000Y-98539974D01*
X156429946Y-98869147D01*
X156911715Y-99191054D01*
X157480000Y-99304093D01*
X158048285Y-99191054D01*
X158530054Y-98869147D01*
X158750000Y-98539974D01*
X158969946Y-98869147D01*
X159451715Y-99191054D01*
X160020000Y-99304093D01*
X160588285Y-99191054D01*
X161070054Y-98869147D01*
X161391961Y-98387378D01*
X161505000Y-97819093D01*
X161505000Y-97760907D01*
X161409342Y-97280000D01*
X177485198Y-97280000D01*
X182424800Y-102219602D01*
X182424800Y-111070537D01*
X182392608Y-111102673D01*
X182249962Y-111446201D01*
X182249638Y-111818167D01*
X182391683Y-112161943D01*
X182654473Y-112425192D01*
X182998001Y-112567838D01*
X183369967Y-112568162D01*
X183713743Y-112426117D01*
X183976992Y-112163327D01*
X184119638Y-111819799D01*
X184119962Y-111447833D01*
X183977917Y-111104057D01*
X183944800Y-111070882D01*
X183944800Y-101904800D01*
X183937224Y-101866713D01*
X183886948Y-101613960D01*
X183722201Y-101367399D01*
X179294802Y-96940000D01*
X183922560Y-96940000D01*
X183922560Y-98640000D01*
X183966838Y-98875317D01*
X184105910Y-99091441D01*
X184318110Y-99236431D01*
X184570000Y-99287440D01*
X186270000Y-99287440D01*
X186505317Y-99243162D01*
X186721441Y-99104090D01*
X186866431Y-98891890D01*
X186880086Y-98824459D01*
X186909946Y-98869147D01*
X187391715Y-99191054D01*
X187960000Y-99304093D01*
X188528285Y-99191054D01*
X189010054Y-98869147D01*
X189230000Y-98539974D01*
X189449946Y-98869147D01*
X189931715Y-99191054D01*
X190500000Y-99304093D01*
X191068285Y-99191054D01*
X191550054Y-98869147D01*
X191770000Y-98539974D01*
X191989946Y-98869147D01*
X192471715Y-99191054D01*
X193040000Y-99304093D01*
X193608285Y-99191054D01*
X194090054Y-98869147D01*
X194310000Y-98539974D01*
X194529946Y-98869147D01*
X195011715Y-99191054D01*
X195580000Y-99304093D01*
X196148285Y-99191054D01*
X196630054Y-98869147D01*
X196850000Y-98539974D01*
X197069946Y-98869147D01*
X197551715Y-99191054D01*
X198120000Y-99304093D01*
X198688285Y-99191054D01*
X199170054Y-98869147D01*
X199491961Y-98387378D01*
X199605000Y-97819093D01*
X199605000Y-97760907D01*
X199491961Y-97192622D01*
X199170054Y-96710853D01*
X198688285Y-96388946D01*
X198120000Y-96275907D01*
X197551715Y-96388946D01*
X197069946Y-96710853D01*
X196850000Y-97040026D01*
X196630054Y-96710853D01*
X196148285Y-96388946D01*
X195580000Y-96275907D01*
X195011715Y-96388946D01*
X194529946Y-96710853D01*
X194310000Y-97040026D01*
X194090054Y-96710853D01*
X193608285Y-96388946D01*
X193040000Y-96275907D01*
X192471715Y-96388946D01*
X191989946Y-96710853D01*
X191770000Y-97040026D01*
X191550054Y-96710853D01*
X191068285Y-96388946D01*
X190500000Y-96275907D01*
X189931715Y-96388946D01*
X189449946Y-96710853D01*
X189230000Y-97040026D01*
X189010054Y-96710853D01*
X188528285Y-96388946D01*
X187960000Y-96275907D01*
X187391715Y-96388946D01*
X186909946Y-96710853D01*
X186882150Y-96752452D01*
X186873162Y-96704683D01*
X186734090Y-96488559D01*
X186521890Y-96343569D01*
X186270000Y-96292560D01*
X184570000Y-96292560D01*
X184334683Y-96336838D01*
X184118559Y-96475910D01*
X183973569Y-96688110D01*
X183922560Y-96940000D01*
X179294802Y-96940000D01*
X178337401Y-95982599D01*
X178090839Y-95817852D01*
X177800000Y-95760000D01*
X156210000Y-95760000D01*
X155919160Y-95817852D01*
X155672599Y-95982599D01*
X155306408Y-96348790D01*
X154940000Y-96275907D01*
X154371715Y-96388946D01*
X153889946Y-96710853D01*
X153670000Y-97040026D01*
X153450054Y-96710853D01*
X152968285Y-96388946D01*
X152400000Y-96275907D01*
X151831715Y-96388946D01*
X151349946Y-96710853D01*
X151122298Y-97051553D01*
X151055183Y-96908642D01*
X150626924Y-96518355D01*
X150216890Y-96348524D01*
X149987000Y-96469845D01*
X149733000Y-96469845D01*
X149503110Y-96348524D01*
X149093076Y-96518355D01*
X148790063Y-96794501D01*
X148773162Y-96704683D01*
X148634090Y-96488559D01*
X148421890Y-96343569D01*
X148170000Y-96292560D01*
X146470000Y-96292560D01*
X146234683Y-96336838D01*
X146018559Y-96475910D01*
X145873569Y-96688110D01*
X145822560Y-96940000D01*
X144855000Y-96940000D01*
X144855000Y-95325000D01*
X208840000Y-95325000D01*
X208840000Y-106897168D01*
M02*
