G04 #@! TF.FileFunction,Legend,Top*
%FSLAX46Y46*%
G04 Gerber Fmt 4.6, Leading zero omitted, Abs format (unit mm)*
G04 Created by KiCad (PCBNEW 4.0.4+e1-6308~48~ubuntu15.10.1-stable) date Mon Jul 31 18:12:38 2017*
%MOMM*%
%LPD*%
G01*
G04 APERTURE LIST*
%ADD10C,0.100000*%
%ADD11C,0.120000*%
%ADD12C,0.150000*%
G04 APERTURE END LIST*
D10*
D11*
X145930000Y-106680000D02*
X145930000Y-119500000D01*
X145930000Y-119500000D02*
X148710000Y-119500000D01*
X148710000Y-119500000D02*
X148710000Y-106680000D01*
X148710000Y-106680000D02*
X145930000Y-106680000D01*
X145930000Y-105410000D02*
X145930000Y-104020000D01*
X145930000Y-104020000D02*
X147320000Y-104020000D01*
X154849723Y-108965722D02*
G75*
G03X154850000Y-104354420I-1179723J2305722D01*
G01*
X152490277Y-108965722D02*
G75*
G02X152490000Y-104354420I1179723J2305722D01*
G01*
X152490277Y-108965722D02*
G75*
G03X154850000Y-108965580I1179723J2305722D01*
G01*
X156220000Y-106660000D02*
X151120000Y-106660000D01*
X156220000Y-106700000D02*
X151120000Y-106700000D01*
X156219000Y-106740000D02*
X151121000Y-106740000D01*
X156218000Y-106780000D02*
X151122000Y-106780000D01*
X156216000Y-106820000D02*
X151124000Y-106820000D01*
X156213000Y-106860000D02*
X151127000Y-106860000D01*
X156209000Y-106900000D02*
X151131000Y-106900000D01*
X156205000Y-106940000D02*
X154650000Y-106940000D01*
X152690000Y-106940000D02*
X151135000Y-106940000D01*
X156201000Y-106980000D02*
X154650000Y-106980000D01*
X152690000Y-106980000D02*
X151139000Y-106980000D01*
X156195000Y-107020000D02*
X154650000Y-107020000D01*
X152690000Y-107020000D02*
X151145000Y-107020000D01*
X156189000Y-107060000D02*
X154650000Y-107060000D01*
X152690000Y-107060000D02*
X151151000Y-107060000D01*
X156183000Y-107100000D02*
X154650000Y-107100000D01*
X152690000Y-107100000D02*
X151157000Y-107100000D01*
X156176000Y-107140000D02*
X154650000Y-107140000D01*
X152690000Y-107140000D02*
X151164000Y-107140000D01*
X156168000Y-107180000D02*
X154650000Y-107180000D01*
X152690000Y-107180000D02*
X151172000Y-107180000D01*
X156159000Y-107220000D02*
X154650000Y-107220000D01*
X152690000Y-107220000D02*
X151181000Y-107220000D01*
X156150000Y-107260000D02*
X154650000Y-107260000D01*
X152690000Y-107260000D02*
X151190000Y-107260000D01*
X156140000Y-107300000D02*
X154650000Y-107300000D01*
X152690000Y-107300000D02*
X151200000Y-107300000D01*
X156130000Y-107340000D02*
X154650000Y-107340000D01*
X152690000Y-107340000D02*
X151210000Y-107340000D01*
X156118000Y-107381000D02*
X154650000Y-107381000D01*
X152690000Y-107381000D02*
X151222000Y-107381000D01*
X156106000Y-107421000D02*
X154650000Y-107421000D01*
X152690000Y-107421000D02*
X151234000Y-107421000D01*
X156094000Y-107461000D02*
X154650000Y-107461000D01*
X152690000Y-107461000D02*
X151246000Y-107461000D01*
X156080000Y-107501000D02*
X154650000Y-107501000D01*
X152690000Y-107501000D02*
X151260000Y-107501000D01*
X156066000Y-107541000D02*
X154650000Y-107541000D01*
X152690000Y-107541000D02*
X151274000Y-107541000D01*
X156052000Y-107581000D02*
X154650000Y-107581000D01*
X152690000Y-107581000D02*
X151288000Y-107581000D01*
X156036000Y-107621000D02*
X154650000Y-107621000D01*
X152690000Y-107621000D02*
X151304000Y-107621000D01*
X156020000Y-107661000D02*
X154650000Y-107661000D01*
X152690000Y-107661000D02*
X151320000Y-107661000D01*
X156003000Y-107701000D02*
X154650000Y-107701000D01*
X152690000Y-107701000D02*
X151337000Y-107701000D01*
X155985000Y-107741000D02*
X154650000Y-107741000D01*
X152690000Y-107741000D02*
X151355000Y-107741000D01*
X155966000Y-107781000D02*
X154650000Y-107781000D01*
X152690000Y-107781000D02*
X151374000Y-107781000D01*
X155946000Y-107821000D02*
X154650000Y-107821000D01*
X152690000Y-107821000D02*
X151394000Y-107821000D01*
X155926000Y-107861000D02*
X154650000Y-107861000D01*
X152690000Y-107861000D02*
X151414000Y-107861000D01*
X155904000Y-107901000D02*
X154650000Y-107901000D01*
X152690000Y-107901000D02*
X151436000Y-107901000D01*
X155882000Y-107941000D02*
X154650000Y-107941000D01*
X152690000Y-107941000D02*
X151458000Y-107941000D01*
X155859000Y-107981000D02*
X154650000Y-107981000D01*
X152690000Y-107981000D02*
X151481000Y-107981000D01*
X155835000Y-108021000D02*
X154650000Y-108021000D01*
X152690000Y-108021000D02*
X151505000Y-108021000D01*
X155810000Y-108061000D02*
X154650000Y-108061000D01*
X152690000Y-108061000D02*
X151530000Y-108061000D01*
X155783000Y-108101000D02*
X154650000Y-108101000D01*
X152690000Y-108101000D02*
X151557000Y-108101000D01*
X155756000Y-108141000D02*
X154650000Y-108141000D01*
X152690000Y-108141000D02*
X151584000Y-108141000D01*
X155728000Y-108181000D02*
X154650000Y-108181000D01*
X152690000Y-108181000D02*
X151612000Y-108181000D01*
X155698000Y-108221000D02*
X154650000Y-108221000D01*
X152690000Y-108221000D02*
X151642000Y-108221000D01*
X155667000Y-108261000D02*
X154650000Y-108261000D01*
X152690000Y-108261000D02*
X151673000Y-108261000D01*
X155635000Y-108301000D02*
X154650000Y-108301000D01*
X152690000Y-108301000D02*
X151705000Y-108301000D01*
X155602000Y-108341000D02*
X154650000Y-108341000D01*
X152690000Y-108341000D02*
X151738000Y-108341000D01*
X155567000Y-108381000D02*
X154650000Y-108381000D01*
X152690000Y-108381000D02*
X151773000Y-108381000D01*
X155531000Y-108421000D02*
X154650000Y-108421000D01*
X152690000Y-108421000D02*
X151809000Y-108421000D01*
X155493000Y-108461000D02*
X154650000Y-108461000D01*
X152690000Y-108461000D02*
X151847000Y-108461000D01*
X155453000Y-108501000D02*
X154650000Y-108501000D01*
X152690000Y-108501000D02*
X151887000Y-108501000D01*
X155412000Y-108541000D02*
X154650000Y-108541000D01*
X152690000Y-108541000D02*
X151928000Y-108541000D01*
X155369000Y-108581000D02*
X154650000Y-108581000D01*
X152690000Y-108581000D02*
X151971000Y-108581000D01*
X155324000Y-108621000D02*
X154650000Y-108621000D01*
X152690000Y-108621000D02*
X152016000Y-108621000D01*
X155276000Y-108661000D02*
X154650000Y-108661000D01*
X152690000Y-108661000D02*
X152064000Y-108661000D01*
X155226000Y-108701000D02*
X154650000Y-108701000D01*
X152690000Y-108701000D02*
X152114000Y-108701000D01*
X155174000Y-108741000D02*
X154650000Y-108741000D01*
X152690000Y-108741000D02*
X152166000Y-108741000D01*
X155118000Y-108781000D02*
X154650000Y-108781000D01*
X152690000Y-108781000D02*
X152222000Y-108781000D01*
X155060000Y-108821000D02*
X154650000Y-108821000D01*
X152690000Y-108821000D02*
X152280000Y-108821000D01*
X154997000Y-108861000D02*
X154650000Y-108861000D01*
X152690000Y-108861000D02*
X152343000Y-108861000D01*
X154931000Y-108901000D02*
X152409000Y-108901000D01*
X154859000Y-108941000D02*
X152481000Y-108941000D01*
X154782000Y-108981000D02*
X152558000Y-108981000D01*
X154698000Y-109021000D02*
X152642000Y-109021000D01*
X154604000Y-109061000D02*
X152736000Y-109061000D01*
X154499000Y-109101000D02*
X152841000Y-109101000D01*
X154377000Y-109141000D02*
X152963000Y-109141000D01*
X154229000Y-109181000D02*
X153111000Y-109181000D01*
X154024000Y-109221000D02*
X153316000Y-109221000D01*
X153670000Y-103210000D02*
X153670000Y-104410000D01*
X154320000Y-103810000D02*
X153020000Y-103810000D01*
X161199723Y-108965722D02*
G75*
G03X161200000Y-104354420I-1179723J2305722D01*
G01*
X158840277Y-108965722D02*
G75*
G02X158840000Y-104354420I1179723J2305722D01*
G01*
X158840277Y-108965722D02*
G75*
G03X161200000Y-108965580I1179723J2305722D01*
G01*
X162570000Y-106660000D02*
X157470000Y-106660000D01*
X162570000Y-106700000D02*
X157470000Y-106700000D01*
X162569000Y-106740000D02*
X157471000Y-106740000D01*
X162568000Y-106780000D02*
X157472000Y-106780000D01*
X162566000Y-106820000D02*
X157474000Y-106820000D01*
X162563000Y-106860000D02*
X157477000Y-106860000D01*
X162559000Y-106900000D02*
X157481000Y-106900000D01*
X162555000Y-106940000D02*
X161000000Y-106940000D01*
X159040000Y-106940000D02*
X157485000Y-106940000D01*
X162551000Y-106980000D02*
X161000000Y-106980000D01*
X159040000Y-106980000D02*
X157489000Y-106980000D01*
X162545000Y-107020000D02*
X161000000Y-107020000D01*
X159040000Y-107020000D02*
X157495000Y-107020000D01*
X162539000Y-107060000D02*
X161000000Y-107060000D01*
X159040000Y-107060000D02*
X157501000Y-107060000D01*
X162533000Y-107100000D02*
X161000000Y-107100000D01*
X159040000Y-107100000D02*
X157507000Y-107100000D01*
X162526000Y-107140000D02*
X161000000Y-107140000D01*
X159040000Y-107140000D02*
X157514000Y-107140000D01*
X162518000Y-107180000D02*
X161000000Y-107180000D01*
X159040000Y-107180000D02*
X157522000Y-107180000D01*
X162509000Y-107220000D02*
X161000000Y-107220000D01*
X159040000Y-107220000D02*
X157531000Y-107220000D01*
X162500000Y-107260000D02*
X161000000Y-107260000D01*
X159040000Y-107260000D02*
X157540000Y-107260000D01*
X162490000Y-107300000D02*
X161000000Y-107300000D01*
X159040000Y-107300000D02*
X157550000Y-107300000D01*
X162480000Y-107340000D02*
X161000000Y-107340000D01*
X159040000Y-107340000D02*
X157560000Y-107340000D01*
X162468000Y-107381000D02*
X161000000Y-107381000D01*
X159040000Y-107381000D02*
X157572000Y-107381000D01*
X162456000Y-107421000D02*
X161000000Y-107421000D01*
X159040000Y-107421000D02*
X157584000Y-107421000D01*
X162444000Y-107461000D02*
X161000000Y-107461000D01*
X159040000Y-107461000D02*
X157596000Y-107461000D01*
X162430000Y-107501000D02*
X161000000Y-107501000D01*
X159040000Y-107501000D02*
X157610000Y-107501000D01*
X162416000Y-107541000D02*
X161000000Y-107541000D01*
X159040000Y-107541000D02*
X157624000Y-107541000D01*
X162402000Y-107581000D02*
X161000000Y-107581000D01*
X159040000Y-107581000D02*
X157638000Y-107581000D01*
X162386000Y-107621000D02*
X161000000Y-107621000D01*
X159040000Y-107621000D02*
X157654000Y-107621000D01*
X162370000Y-107661000D02*
X161000000Y-107661000D01*
X159040000Y-107661000D02*
X157670000Y-107661000D01*
X162353000Y-107701000D02*
X161000000Y-107701000D01*
X159040000Y-107701000D02*
X157687000Y-107701000D01*
X162335000Y-107741000D02*
X161000000Y-107741000D01*
X159040000Y-107741000D02*
X157705000Y-107741000D01*
X162316000Y-107781000D02*
X161000000Y-107781000D01*
X159040000Y-107781000D02*
X157724000Y-107781000D01*
X162296000Y-107821000D02*
X161000000Y-107821000D01*
X159040000Y-107821000D02*
X157744000Y-107821000D01*
X162276000Y-107861000D02*
X161000000Y-107861000D01*
X159040000Y-107861000D02*
X157764000Y-107861000D01*
X162254000Y-107901000D02*
X161000000Y-107901000D01*
X159040000Y-107901000D02*
X157786000Y-107901000D01*
X162232000Y-107941000D02*
X161000000Y-107941000D01*
X159040000Y-107941000D02*
X157808000Y-107941000D01*
X162209000Y-107981000D02*
X161000000Y-107981000D01*
X159040000Y-107981000D02*
X157831000Y-107981000D01*
X162185000Y-108021000D02*
X161000000Y-108021000D01*
X159040000Y-108021000D02*
X157855000Y-108021000D01*
X162160000Y-108061000D02*
X161000000Y-108061000D01*
X159040000Y-108061000D02*
X157880000Y-108061000D01*
X162133000Y-108101000D02*
X161000000Y-108101000D01*
X159040000Y-108101000D02*
X157907000Y-108101000D01*
X162106000Y-108141000D02*
X161000000Y-108141000D01*
X159040000Y-108141000D02*
X157934000Y-108141000D01*
X162078000Y-108181000D02*
X161000000Y-108181000D01*
X159040000Y-108181000D02*
X157962000Y-108181000D01*
X162048000Y-108221000D02*
X161000000Y-108221000D01*
X159040000Y-108221000D02*
X157992000Y-108221000D01*
X162017000Y-108261000D02*
X161000000Y-108261000D01*
X159040000Y-108261000D02*
X158023000Y-108261000D01*
X161985000Y-108301000D02*
X161000000Y-108301000D01*
X159040000Y-108301000D02*
X158055000Y-108301000D01*
X161952000Y-108341000D02*
X161000000Y-108341000D01*
X159040000Y-108341000D02*
X158088000Y-108341000D01*
X161917000Y-108381000D02*
X161000000Y-108381000D01*
X159040000Y-108381000D02*
X158123000Y-108381000D01*
X161881000Y-108421000D02*
X161000000Y-108421000D01*
X159040000Y-108421000D02*
X158159000Y-108421000D01*
X161843000Y-108461000D02*
X161000000Y-108461000D01*
X159040000Y-108461000D02*
X158197000Y-108461000D01*
X161803000Y-108501000D02*
X161000000Y-108501000D01*
X159040000Y-108501000D02*
X158237000Y-108501000D01*
X161762000Y-108541000D02*
X161000000Y-108541000D01*
X159040000Y-108541000D02*
X158278000Y-108541000D01*
X161719000Y-108581000D02*
X161000000Y-108581000D01*
X159040000Y-108581000D02*
X158321000Y-108581000D01*
X161674000Y-108621000D02*
X161000000Y-108621000D01*
X159040000Y-108621000D02*
X158366000Y-108621000D01*
X161626000Y-108661000D02*
X161000000Y-108661000D01*
X159040000Y-108661000D02*
X158414000Y-108661000D01*
X161576000Y-108701000D02*
X161000000Y-108701000D01*
X159040000Y-108701000D02*
X158464000Y-108701000D01*
X161524000Y-108741000D02*
X161000000Y-108741000D01*
X159040000Y-108741000D02*
X158516000Y-108741000D01*
X161468000Y-108781000D02*
X161000000Y-108781000D01*
X159040000Y-108781000D02*
X158572000Y-108781000D01*
X161410000Y-108821000D02*
X161000000Y-108821000D01*
X159040000Y-108821000D02*
X158630000Y-108821000D01*
X161347000Y-108861000D02*
X161000000Y-108861000D01*
X159040000Y-108861000D02*
X158693000Y-108861000D01*
X161281000Y-108901000D02*
X158759000Y-108901000D01*
X161209000Y-108941000D02*
X158831000Y-108941000D01*
X161132000Y-108981000D02*
X158908000Y-108981000D01*
X161048000Y-109021000D02*
X158992000Y-109021000D01*
X160954000Y-109061000D02*
X159086000Y-109061000D01*
X160849000Y-109101000D02*
X159191000Y-109101000D01*
X160727000Y-109141000D02*
X159313000Y-109141000D01*
X160579000Y-109181000D02*
X159461000Y-109181000D01*
X160374000Y-109221000D02*
X159666000Y-109221000D01*
X160020000Y-103210000D02*
X160020000Y-104410000D01*
X160670000Y-103810000D02*
X159370000Y-103810000D01*
X154849723Y-115315722D02*
G75*
G03X154850000Y-110704420I-1179723J2305722D01*
G01*
X152490277Y-115315722D02*
G75*
G02X152490000Y-110704420I1179723J2305722D01*
G01*
X152490277Y-115315722D02*
G75*
G03X154850000Y-115315580I1179723J2305722D01*
G01*
X156220000Y-113010000D02*
X151120000Y-113010000D01*
X156220000Y-113050000D02*
X151120000Y-113050000D01*
X156219000Y-113090000D02*
X151121000Y-113090000D01*
X156218000Y-113130000D02*
X151122000Y-113130000D01*
X156216000Y-113170000D02*
X151124000Y-113170000D01*
X156213000Y-113210000D02*
X151127000Y-113210000D01*
X156209000Y-113250000D02*
X151131000Y-113250000D01*
X156205000Y-113290000D02*
X154650000Y-113290000D01*
X152690000Y-113290000D02*
X151135000Y-113290000D01*
X156201000Y-113330000D02*
X154650000Y-113330000D01*
X152690000Y-113330000D02*
X151139000Y-113330000D01*
X156195000Y-113370000D02*
X154650000Y-113370000D01*
X152690000Y-113370000D02*
X151145000Y-113370000D01*
X156189000Y-113410000D02*
X154650000Y-113410000D01*
X152690000Y-113410000D02*
X151151000Y-113410000D01*
X156183000Y-113450000D02*
X154650000Y-113450000D01*
X152690000Y-113450000D02*
X151157000Y-113450000D01*
X156176000Y-113490000D02*
X154650000Y-113490000D01*
X152690000Y-113490000D02*
X151164000Y-113490000D01*
X156168000Y-113530000D02*
X154650000Y-113530000D01*
X152690000Y-113530000D02*
X151172000Y-113530000D01*
X156159000Y-113570000D02*
X154650000Y-113570000D01*
X152690000Y-113570000D02*
X151181000Y-113570000D01*
X156150000Y-113610000D02*
X154650000Y-113610000D01*
X152690000Y-113610000D02*
X151190000Y-113610000D01*
X156140000Y-113650000D02*
X154650000Y-113650000D01*
X152690000Y-113650000D02*
X151200000Y-113650000D01*
X156130000Y-113690000D02*
X154650000Y-113690000D01*
X152690000Y-113690000D02*
X151210000Y-113690000D01*
X156118000Y-113731000D02*
X154650000Y-113731000D01*
X152690000Y-113731000D02*
X151222000Y-113731000D01*
X156106000Y-113771000D02*
X154650000Y-113771000D01*
X152690000Y-113771000D02*
X151234000Y-113771000D01*
X156094000Y-113811000D02*
X154650000Y-113811000D01*
X152690000Y-113811000D02*
X151246000Y-113811000D01*
X156080000Y-113851000D02*
X154650000Y-113851000D01*
X152690000Y-113851000D02*
X151260000Y-113851000D01*
X156066000Y-113891000D02*
X154650000Y-113891000D01*
X152690000Y-113891000D02*
X151274000Y-113891000D01*
X156052000Y-113931000D02*
X154650000Y-113931000D01*
X152690000Y-113931000D02*
X151288000Y-113931000D01*
X156036000Y-113971000D02*
X154650000Y-113971000D01*
X152690000Y-113971000D02*
X151304000Y-113971000D01*
X156020000Y-114011000D02*
X154650000Y-114011000D01*
X152690000Y-114011000D02*
X151320000Y-114011000D01*
X156003000Y-114051000D02*
X154650000Y-114051000D01*
X152690000Y-114051000D02*
X151337000Y-114051000D01*
X155985000Y-114091000D02*
X154650000Y-114091000D01*
X152690000Y-114091000D02*
X151355000Y-114091000D01*
X155966000Y-114131000D02*
X154650000Y-114131000D01*
X152690000Y-114131000D02*
X151374000Y-114131000D01*
X155946000Y-114171000D02*
X154650000Y-114171000D01*
X152690000Y-114171000D02*
X151394000Y-114171000D01*
X155926000Y-114211000D02*
X154650000Y-114211000D01*
X152690000Y-114211000D02*
X151414000Y-114211000D01*
X155904000Y-114251000D02*
X154650000Y-114251000D01*
X152690000Y-114251000D02*
X151436000Y-114251000D01*
X155882000Y-114291000D02*
X154650000Y-114291000D01*
X152690000Y-114291000D02*
X151458000Y-114291000D01*
X155859000Y-114331000D02*
X154650000Y-114331000D01*
X152690000Y-114331000D02*
X151481000Y-114331000D01*
X155835000Y-114371000D02*
X154650000Y-114371000D01*
X152690000Y-114371000D02*
X151505000Y-114371000D01*
X155810000Y-114411000D02*
X154650000Y-114411000D01*
X152690000Y-114411000D02*
X151530000Y-114411000D01*
X155783000Y-114451000D02*
X154650000Y-114451000D01*
X152690000Y-114451000D02*
X151557000Y-114451000D01*
X155756000Y-114491000D02*
X154650000Y-114491000D01*
X152690000Y-114491000D02*
X151584000Y-114491000D01*
X155728000Y-114531000D02*
X154650000Y-114531000D01*
X152690000Y-114531000D02*
X151612000Y-114531000D01*
X155698000Y-114571000D02*
X154650000Y-114571000D01*
X152690000Y-114571000D02*
X151642000Y-114571000D01*
X155667000Y-114611000D02*
X154650000Y-114611000D01*
X152690000Y-114611000D02*
X151673000Y-114611000D01*
X155635000Y-114651000D02*
X154650000Y-114651000D01*
X152690000Y-114651000D02*
X151705000Y-114651000D01*
X155602000Y-114691000D02*
X154650000Y-114691000D01*
X152690000Y-114691000D02*
X151738000Y-114691000D01*
X155567000Y-114731000D02*
X154650000Y-114731000D01*
X152690000Y-114731000D02*
X151773000Y-114731000D01*
X155531000Y-114771000D02*
X154650000Y-114771000D01*
X152690000Y-114771000D02*
X151809000Y-114771000D01*
X155493000Y-114811000D02*
X154650000Y-114811000D01*
X152690000Y-114811000D02*
X151847000Y-114811000D01*
X155453000Y-114851000D02*
X154650000Y-114851000D01*
X152690000Y-114851000D02*
X151887000Y-114851000D01*
X155412000Y-114891000D02*
X154650000Y-114891000D01*
X152690000Y-114891000D02*
X151928000Y-114891000D01*
X155369000Y-114931000D02*
X154650000Y-114931000D01*
X152690000Y-114931000D02*
X151971000Y-114931000D01*
X155324000Y-114971000D02*
X154650000Y-114971000D01*
X152690000Y-114971000D02*
X152016000Y-114971000D01*
X155276000Y-115011000D02*
X154650000Y-115011000D01*
X152690000Y-115011000D02*
X152064000Y-115011000D01*
X155226000Y-115051000D02*
X154650000Y-115051000D01*
X152690000Y-115051000D02*
X152114000Y-115051000D01*
X155174000Y-115091000D02*
X154650000Y-115091000D01*
X152690000Y-115091000D02*
X152166000Y-115091000D01*
X155118000Y-115131000D02*
X154650000Y-115131000D01*
X152690000Y-115131000D02*
X152222000Y-115131000D01*
X155060000Y-115171000D02*
X154650000Y-115171000D01*
X152690000Y-115171000D02*
X152280000Y-115171000D01*
X154997000Y-115211000D02*
X154650000Y-115211000D01*
X152690000Y-115211000D02*
X152343000Y-115211000D01*
X154931000Y-115251000D02*
X152409000Y-115251000D01*
X154859000Y-115291000D02*
X152481000Y-115291000D01*
X154782000Y-115331000D02*
X152558000Y-115331000D01*
X154698000Y-115371000D02*
X152642000Y-115371000D01*
X154604000Y-115411000D02*
X152736000Y-115411000D01*
X154499000Y-115451000D02*
X152841000Y-115451000D01*
X154377000Y-115491000D02*
X152963000Y-115491000D01*
X154229000Y-115531000D02*
X153111000Y-115531000D01*
X154024000Y-115571000D02*
X153316000Y-115571000D01*
X153670000Y-109560000D02*
X153670000Y-110760000D01*
X154320000Y-110160000D02*
X153020000Y-110160000D01*
X172050000Y-106330000D02*
X172050000Y-107030000D01*
X170850000Y-107030000D02*
X170850000Y-106330000D01*
X174275000Y-104175000D02*
X174975000Y-104175000D01*
X174975000Y-105375000D02*
X174275000Y-105375000D01*
X179420000Y-117770200D02*
X178720000Y-117770200D01*
X178720000Y-116570200D02*
X179420000Y-116570200D01*
D12*
X173164500Y-110045500D02*
X173926500Y-110045500D01*
X173926500Y-110045500D02*
X173926500Y-111569500D01*
X173926500Y-111569500D02*
X173164500Y-111569500D01*
X184340500Y-108521500D02*
X184340500Y-113093500D01*
X184340500Y-113093500D02*
X173164500Y-113093500D01*
X173164500Y-113093500D02*
X173164500Y-108521500D01*
X173164500Y-108521500D02*
X184340500Y-108521500D01*
X171715000Y-98530000D02*
X171715000Y-102130000D01*
X171715000Y-102130000D02*
X171215000Y-102630000D01*
X171215000Y-102630000D02*
X170415000Y-102630000D01*
X170415000Y-102630000D02*
X169915000Y-102130000D01*
X169915000Y-102130000D02*
X169915000Y-98530000D01*
X169915000Y-98530000D02*
X170415000Y-98030000D01*
X170415000Y-98030000D02*
X171215000Y-98030000D01*
X171215000Y-98030000D02*
X171715000Y-98530000D01*
X173725000Y-102130000D02*
X173725000Y-98530000D01*
X173725000Y-98530000D02*
X174225000Y-98030000D01*
X174225000Y-98030000D02*
X175025000Y-98030000D01*
X175025000Y-98030000D02*
X175525000Y-98530000D01*
X175525000Y-98530000D02*
X175525000Y-102130000D01*
X175525000Y-102130000D02*
X175025000Y-102630000D01*
X175025000Y-102630000D02*
X174225000Y-102630000D01*
X174225000Y-102630000D02*
X173725000Y-102130000D01*
X145629524Y-103472381D02*
X145629524Y-102472381D01*
X146010477Y-102472381D01*
X146105715Y-102520000D01*
X146153334Y-102567619D01*
X146200953Y-102662857D01*
X146200953Y-102805714D01*
X146153334Y-102900952D01*
X146105715Y-102948571D01*
X146010477Y-102996190D01*
X145629524Y-102996190D01*
X147153334Y-103472381D02*
X146581905Y-103472381D01*
X146867619Y-103472381D02*
X146867619Y-102472381D01*
X146772381Y-102615238D01*
X146677143Y-102710476D01*
X146581905Y-102758095D01*
X147772381Y-102472381D02*
X147867620Y-102472381D01*
X147962858Y-102520000D01*
X148010477Y-102567619D01*
X148058096Y-102662857D01*
X148105715Y-102853333D01*
X148105715Y-103091429D01*
X148058096Y-103281905D01*
X148010477Y-103377143D01*
X147962858Y-103424762D01*
X147867620Y-103472381D01*
X147772381Y-103472381D01*
X147677143Y-103424762D01*
X147629524Y-103377143D01*
X147581905Y-103281905D01*
X147534286Y-103091429D01*
X147534286Y-102853333D01*
X147581905Y-102662857D01*
X147629524Y-102567619D01*
X147677143Y-102520000D01*
X147772381Y-102472381D01*
X149058096Y-103472381D02*
X148486667Y-103472381D01*
X148772381Y-103472381D02*
X148772381Y-102472381D01*
X148677143Y-102615238D01*
X148581905Y-102710476D01*
X148486667Y-102758095D01*
X152550953Y-103227143D02*
X152503334Y-103274762D01*
X152360477Y-103322381D01*
X152265239Y-103322381D01*
X152122381Y-103274762D01*
X152027143Y-103179524D01*
X151979524Y-103084286D01*
X151931905Y-102893810D01*
X151931905Y-102750952D01*
X151979524Y-102560476D01*
X152027143Y-102465238D01*
X152122381Y-102370000D01*
X152265239Y-102322381D01*
X152360477Y-102322381D01*
X152503334Y-102370000D01*
X152550953Y-102417619D01*
X153503334Y-103322381D02*
X152931905Y-103322381D01*
X153217619Y-103322381D02*
X153217619Y-102322381D01*
X153122381Y-102465238D01*
X153027143Y-102560476D01*
X152931905Y-102608095D01*
X154122381Y-102322381D02*
X154217620Y-102322381D01*
X154312858Y-102370000D01*
X154360477Y-102417619D01*
X154408096Y-102512857D01*
X154455715Y-102703333D01*
X154455715Y-102941429D01*
X154408096Y-103131905D01*
X154360477Y-103227143D01*
X154312858Y-103274762D01*
X154217620Y-103322381D01*
X154122381Y-103322381D01*
X154027143Y-103274762D01*
X153979524Y-103227143D01*
X153931905Y-103131905D01*
X153884286Y-102941429D01*
X153884286Y-102703333D01*
X153931905Y-102512857D01*
X153979524Y-102417619D01*
X154027143Y-102370000D01*
X154122381Y-102322381D01*
X155408096Y-103322381D02*
X154836667Y-103322381D01*
X155122381Y-103322381D02*
X155122381Y-102322381D01*
X155027143Y-102465238D01*
X154931905Y-102560476D01*
X154836667Y-102608095D01*
X158900953Y-103227143D02*
X158853334Y-103274762D01*
X158710477Y-103322381D01*
X158615239Y-103322381D01*
X158472381Y-103274762D01*
X158377143Y-103179524D01*
X158329524Y-103084286D01*
X158281905Y-102893810D01*
X158281905Y-102750952D01*
X158329524Y-102560476D01*
X158377143Y-102465238D01*
X158472381Y-102370000D01*
X158615239Y-102322381D01*
X158710477Y-102322381D01*
X158853334Y-102370000D01*
X158900953Y-102417619D01*
X159853334Y-103322381D02*
X159281905Y-103322381D01*
X159567619Y-103322381D02*
X159567619Y-102322381D01*
X159472381Y-102465238D01*
X159377143Y-102560476D01*
X159281905Y-102608095D01*
X160472381Y-102322381D02*
X160567620Y-102322381D01*
X160662858Y-102370000D01*
X160710477Y-102417619D01*
X160758096Y-102512857D01*
X160805715Y-102703333D01*
X160805715Y-102941429D01*
X160758096Y-103131905D01*
X160710477Y-103227143D01*
X160662858Y-103274762D01*
X160567620Y-103322381D01*
X160472381Y-103322381D01*
X160377143Y-103274762D01*
X160329524Y-103227143D01*
X160281905Y-103131905D01*
X160234286Y-102941429D01*
X160234286Y-102703333D01*
X160281905Y-102512857D01*
X160329524Y-102417619D01*
X160377143Y-102370000D01*
X160472381Y-102322381D01*
X161186667Y-102417619D02*
X161234286Y-102370000D01*
X161329524Y-102322381D01*
X161567620Y-102322381D01*
X161662858Y-102370000D01*
X161710477Y-102417619D01*
X161758096Y-102512857D01*
X161758096Y-102608095D01*
X161710477Y-102750952D01*
X161139048Y-103322381D01*
X161758096Y-103322381D01*
X152550953Y-117197143D02*
X152503334Y-117244762D01*
X152360477Y-117292381D01*
X152265239Y-117292381D01*
X152122381Y-117244762D01*
X152027143Y-117149524D01*
X151979524Y-117054286D01*
X151931905Y-116863810D01*
X151931905Y-116720952D01*
X151979524Y-116530476D01*
X152027143Y-116435238D01*
X152122381Y-116340000D01*
X152265239Y-116292381D01*
X152360477Y-116292381D01*
X152503334Y-116340000D01*
X152550953Y-116387619D01*
X153503334Y-117292381D02*
X152931905Y-117292381D01*
X153217619Y-117292381D02*
X153217619Y-116292381D01*
X153122381Y-116435238D01*
X153027143Y-116530476D01*
X152931905Y-116578095D01*
X154122381Y-116292381D02*
X154217620Y-116292381D01*
X154312858Y-116340000D01*
X154360477Y-116387619D01*
X154408096Y-116482857D01*
X154455715Y-116673333D01*
X154455715Y-116911429D01*
X154408096Y-117101905D01*
X154360477Y-117197143D01*
X154312858Y-117244762D01*
X154217620Y-117292381D01*
X154122381Y-117292381D01*
X154027143Y-117244762D01*
X153979524Y-117197143D01*
X153931905Y-117101905D01*
X153884286Y-116911429D01*
X153884286Y-116673333D01*
X153931905Y-116482857D01*
X153979524Y-116387619D01*
X154027143Y-116340000D01*
X154122381Y-116292381D01*
X154789048Y-116292381D02*
X155408096Y-116292381D01*
X155074762Y-116673333D01*
X155217620Y-116673333D01*
X155312858Y-116720952D01*
X155360477Y-116768571D01*
X155408096Y-116863810D01*
X155408096Y-117101905D01*
X155360477Y-117197143D01*
X155312858Y-117244762D01*
X155217620Y-117292381D01*
X154931905Y-117292381D01*
X154836667Y-117244762D01*
X154789048Y-117197143D01*
X170537143Y-107799047D02*
X170584762Y-107846666D01*
X170632381Y-107989523D01*
X170632381Y-108084761D01*
X170584762Y-108227619D01*
X170489524Y-108322857D01*
X170394286Y-108370476D01*
X170203810Y-108418095D01*
X170060952Y-108418095D01*
X169870476Y-108370476D01*
X169775238Y-108322857D01*
X169680000Y-108227619D01*
X169632381Y-108084761D01*
X169632381Y-107989523D01*
X169680000Y-107846666D01*
X169727619Y-107799047D01*
X170632381Y-106846666D02*
X170632381Y-107418095D01*
X170632381Y-107132381D02*
X169632381Y-107132381D01*
X169775238Y-107227619D01*
X169870476Y-107322857D01*
X169918095Y-107418095D01*
X169632381Y-106227619D02*
X169632381Y-106132380D01*
X169680000Y-106037142D01*
X169727619Y-105989523D01*
X169822857Y-105941904D01*
X170013333Y-105894285D01*
X170251429Y-105894285D01*
X170441905Y-105941904D01*
X170537143Y-105989523D01*
X170584762Y-106037142D01*
X170632381Y-106132380D01*
X170632381Y-106227619D01*
X170584762Y-106322857D01*
X170537143Y-106370476D01*
X170441905Y-106418095D01*
X170251429Y-106465714D01*
X170013333Y-106465714D01*
X169822857Y-106418095D01*
X169727619Y-106370476D01*
X169680000Y-106322857D01*
X169632381Y-106227619D01*
X169965714Y-105037142D02*
X170632381Y-105037142D01*
X169584762Y-105275238D02*
X170299048Y-105513333D01*
X170299048Y-104894285D01*
X173505953Y-103882143D02*
X173458334Y-103929762D01*
X173315477Y-103977381D01*
X173220239Y-103977381D01*
X173077381Y-103929762D01*
X172982143Y-103834524D01*
X172934524Y-103739286D01*
X172886905Y-103548810D01*
X172886905Y-103405952D01*
X172934524Y-103215476D01*
X172982143Y-103120238D01*
X173077381Y-103025000D01*
X173220239Y-102977381D01*
X173315477Y-102977381D01*
X173458334Y-103025000D01*
X173505953Y-103072619D01*
X174458334Y-103977381D02*
X173886905Y-103977381D01*
X174172619Y-103977381D02*
X174172619Y-102977381D01*
X174077381Y-103120238D01*
X173982143Y-103215476D01*
X173886905Y-103263095D01*
X175077381Y-102977381D02*
X175172620Y-102977381D01*
X175267858Y-103025000D01*
X175315477Y-103072619D01*
X175363096Y-103167857D01*
X175410715Y-103358333D01*
X175410715Y-103596429D01*
X175363096Y-103786905D01*
X175315477Y-103882143D01*
X175267858Y-103929762D01*
X175172620Y-103977381D01*
X175077381Y-103977381D01*
X174982143Y-103929762D01*
X174934524Y-103882143D01*
X174886905Y-103786905D01*
X174839286Y-103596429D01*
X174839286Y-103358333D01*
X174886905Y-103167857D01*
X174934524Y-103072619D01*
X174982143Y-103025000D01*
X175077381Y-102977381D01*
X176315477Y-102977381D02*
X175839286Y-102977381D01*
X175791667Y-103453571D01*
X175839286Y-103405952D01*
X175934524Y-103358333D01*
X176172620Y-103358333D01*
X176267858Y-103405952D01*
X176315477Y-103453571D01*
X176363096Y-103548810D01*
X176363096Y-103786905D01*
X176315477Y-103882143D01*
X176267858Y-103929762D01*
X176172620Y-103977381D01*
X175934524Y-103977381D01*
X175839286Y-103929762D01*
X175791667Y-103882143D01*
X177950953Y-118777343D02*
X177903334Y-118824962D01*
X177760477Y-118872581D01*
X177665239Y-118872581D01*
X177522381Y-118824962D01*
X177427143Y-118729724D01*
X177379524Y-118634486D01*
X177331905Y-118444010D01*
X177331905Y-118301152D01*
X177379524Y-118110676D01*
X177427143Y-118015438D01*
X177522381Y-117920200D01*
X177665239Y-117872581D01*
X177760477Y-117872581D01*
X177903334Y-117920200D01*
X177950953Y-117967819D01*
X178903334Y-118872581D02*
X178331905Y-118872581D01*
X178617619Y-118872581D02*
X178617619Y-117872581D01*
X178522381Y-118015438D01*
X178427143Y-118110676D01*
X178331905Y-118158295D01*
X179522381Y-117872581D02*
X179617620Y-117872581D01*
X179712858Y-117920200D01*
X179760477Y-117967819D01*
X179808096Y-118063057D01*
X179855715Y-118253533D01*
X179855715Y-118491629D01*
X179808096Y-118682105D01*
X179760477Y-118777343D01*
X179712858Y-118824962D01*
X179617620Y-118872581D01*
X179522381Y-118872581D01*
X179427143Y-118824962D01*
X179379524Y-118777343D01*
X179331905Y-118682105D01*
X179284286Y-118491629D01*
X179284286Y-118253533D01*
X179331905Y-118063057D01*
X179379524Y-117967819D01*
X179427143Y-117920200D01*
X179522381Y-117872581D01*
X180712858Y-117872581D02*
X180522381Y-117872581D01*
X180427143Y-117920200D01*
X180379524Y-117967819D01*
X180284286Y-118110676D01*
X180236667Y-118301152D01*
X180236667Y-118682105D01*
X180284286Y-118777343D01*
X180331905Y-118824962D01*
X180427143Y-118872581D01*
X180617620Y-118872581D01*
X180712858Y-118824962D01*
X180760477Y-118777343D01*
X180808096Y-118682105D01*
X180808096Y-118444010D01*
X180760477Y-118348771D01*
X180712858Y-118301152D01*
X180617620Y-118253533D01*
X180427143Y-118253533D01*
X180331905Y-118301152D01*
X180284286Y-118348771D01*
X180236667Y-118444010D01*
X177165214Y-108989881D02*
X177165214Y-109799405D01*
X177212833Y-109894643D01*
X177260452Y-109942262D01*
X177355690Y-109989881D01*
X177546167Y-109989881D01*
X177641405Y-109942262D01*
X177689024Y-109894643D01*
X177736643Y-109799405D01*
X177736643Y-108989881D01*
X178736643Y-109989881D02*
X178165214Y-109989881D01*
X178450928Y-109989881D02*
X178450928Y-108989881D01*
X178355690Y-109132738D01*
X178260452Y-109227976D01*
X178165214Y-109275595D01*
X179355690Y-108989881D02*
X179450929Y-108989881D01*
X179546167Y-109037500D01*
X179593786Y-109085119D01*
X179641405Y-109180357D01*
X179689024Y-109370833D01*
X179689024Y-109608929D01*
X179641405Y-109799405D01*
X179593786Y-109894643D01*
X179546167Y-109942262D01*
X179450929Y-109989881D01*
X179355690Y-109989881D01*
X179260452Y-109942262D01*
X179212833Y-109894643D01*
X179165214Y-109799405D01*
X179117595Y-109608929D01*
X179117595Y-109370833D01*
X179165214Y-109180357D01*
X179212833Y-109085119D01*
X179260452Y-109037500D01*
X179355690Y-108989881D01*
X180641405Y-109989881D02*
X180069976Y-109989881D01*
X180355690Y-109989881D02*
X180355690Y-108989881D01*
X180260452Y-109132738D01*
X180165214Y-109227976D01*
X180069976Y-109275595D01*
X167759286Y-96607381D02*
X167759286Y-97321667D01*
X167711666Y-97464524D01*
X167616428Y-97559762D01*
X167473571Y-97607381D01*
X167378333Y-97607381D01*
X168235476Y-97607381D02*
X168235476Y-96607381D01*
X168616429Y-96607381D01*
X168711667Y-96655000D01*
X168759286Y-96702619D01*
X168806905Y-96797857D01*
X168806905Y-96940714D01*
X168759286Y-97035952D01*
X168711667Y-97083571D01*
X168616429Y-97131190D01*
X168235476Y-97131190D01*
X169759286Y-97607381D02*
X169187857Y-97607381D01*
X169473571Y-97607381D02*
X169473571Y-96607381D01*
X169378333Y-96750238D01*
X169283095Y-96845476D01*
X169187857Y-96893095D01*
X170378333Y-96607381D02*
X170473572Y-96607381D01*
X170568810Y-96655000D01*
X170616429Y-96702619D01*
X170664048Y-96797857D01*
X170711667Y-96988333D01*
X170711667Y-97226429D01*
X170664048Y-97416905D01*
X170616429Y-97512143D01*
X170568810Y-97559762D01*
X170473572Y-97607381D01*
X170378333Y-97607381D01*
X170283095Y-97559762D01*
X170235476Y-97512143D01*
X170187857Y-97416905D01*
X170140238Y-97226429D01*
X170140238Y-96988333D01*
X170187857Y-96797857D01*
X170235476Y-96702619D01*
X170283095Y-96655000D01*
X170378333Y-96607381D01*
X171664048Y-97607381D02*
X171092619Y-97607381D01*
X171378333Y-97607381D02*
X171378333Y-96607381D01*
X171283095Y-96750238D01*
X171187857Y-96845476D01*
X171092619Y-96893095D01*
X174109286Y-96607381D02*
X174109286Y-97321667D01*
X174061666Y-97464524D01*
X173966428Y-97559762D01*
X173823571Y-97607381D01*
X173728333Y-97607381D01*
X174585476Y-97607381D02*
X174585476Y-96607381D01*
X174966429Y-96607381D01*
X175061667Y-96655000D01*
X175109286Y-96702619D01*
X175156905Y-96797857D01*
X175156905Y-96940714D01*
X175109286Y-97035952D01*
X175061667Y-97083571D01*
X174966429Y-97131190D01*
X174585476Y-97131190D01*
X176109286Y-97607381D02*
X175537857Y-97607381D01*
X175823571Y-97607381D02*
X175823571Y-96607381D01*
X175728333Y-96750238D01*
X175633095Y-96845476D01*
X175537857Y-96893095D01*
X176728333Y-96607381D02*
X176823572Y-96607381D01*
X176918810Y-96655000D01*
X176966429Y-96702619D01*
X177014048Y-96797857D01*
X177061667Y-96988333D01*
X177061667Y-97226429D01*
X177014048Y-97416905D01*
X176966429Y-97512143D01*
X176918810Y-97559762D01*
X176823572Y-97607381D01*
X176728333Y-97607381D01*
X176633095Y-97559762D01*
X176585476Y-97512143D01*
X176537857Y-97416905D01*
X176490238Y-97226429D01*
X176490238Y-96988333D01*
X176537857Y-96797857D01*
X176585476Y-96702619D01*
X176633095Y-96655000D01*
X176728333Y-96607381D01*
X177442619Y-96702619D02*
X177490238Y-96655000D01*
X177585476Y-96607381D01*
X177823572Y-96607381D01*
X177918810Y-96655000D01*
X177966429Y-96702619D01*
X178014048Y-96797857D01*
X178014048Y-96893095D01*
X177966429Y-97035952D01*
X177395000Y-97607381D01*
X178014048Y-97607381D01*
M02*
