M48
;DRILL file {KiCad 4.0.4+e1-6308~48~ubuntu15.10.1-stable} date Mon Jul 31 18:12:36 2017
;FORMAT={-:-/ absolute / metric / decimal}
FMAT,2
METRIC,TZ
T1C0.400
T2C0.800
T3C0.813
T4C1.000
T5C3.200
%
G90
G05
M71
T1
X178.105Y-115.57
X183.185Y-111.633
T2
X153.67Y-105.41
X153.67Y-107.91
X153.67Y-111.76
X153.67Y-114.26
X160.02Y-105.41
X160.02Y-107.91
T3
X170.815Y-99.06
X170.815Y-101.6
X174.625Y-99.06
X174.625Y-101.6
T4
X147.32Y-97.79
X147.32Y-105.41
X147.32Y-107.95
X147.32Y-110.49
X147.32Y-113.03
X147.32Y-115.57
X147.32Y-118.11
X149.86Y-97.79
X152.4Y-97.79
X154.94Y-97.79
X157.48Y-97.79
X160.02Y-97.79
X185.42Y-97.79
X187.96Y-97.79
X190.5Y-97.79
X193.04Y-97.79
X195.58Y-97.79
X198.12Y-97.79
T5
X205.74Y-109.22
T0
M30
