M48
;DRILL file {KiCad 4.0.4+e1-6308~48~ubuntu15.10.1-stable} date Tue Feb  7 13:59:05 2017
;FORMAT={-:-/ absolute / metric / decimal}
FMAT,2
METRIC,TZ
T1C0.400
T2C1.000
T3C3.200
%
G90
G05
M71
T1
X145.542Y-114.3
X154.94Y-114.3
X160.655Y-112.395
X163.703Y-104.775
X166.751Y-108.585
X166.751Y-109.855
X166.751Y-111.125
X166.751Y-113.03
X169.672Y-116.205
X170.434Y-114.173
X173.99Y-99.06
X174.371Y-114.173
X177.673Y-111.125
X178.562Y-113.03
X178.562Y-115.57
X179.324Y-108.458
X179.451Y-114.935
X180.213Y-111.506
X183.261Y-105.664
X184.15Y-109.982
X185.674Y-104.775
X185.674Y-107.315
X185.674Y-113.665
X185.674Y-114.935
X188.849Y-114.3
X189.103Y-106.68
X191.5Y-103.46
X191.516Y-112.014
X193.04Y-115.57
X195.707Y-119.126
X198.12Y-114.3
T2
X147.32Y-97.79
X147.32Y-105.41
X147.32Y-107.95
X147.32Y-110.49
X147.32Y-113.03
X147.32Y-115.57
X147.32Y-118.11
X149.86Y-97.79
X152.4Y-97.79
X154.94Y-97.79
X157.48Y-97.79
X160.02Y-97.79
X185.42Y-97.79
X187.96Y-97.79
X190.5Y-97.79
X193.04Y-97.79
X195.58Y-97.79
X198.12Y-97.79
T3
X139.7Y-109.22
T0
M30
