G04 #@! TF.FileFunction,Soldermask,Top*
%FSLAX46Y46*%
G04 Gerber Fmt 4.6, Leading zero omitted, Abs format (unit mm)*
G04 Created by KiCad (PCBNEW 4.0.4+e1-6308~48~ubuntu15.10.1-stable) date Mon Jul 31 18:12:38 2017*
%MOMM*%
%LPD*%
G01*
G04 APERTURE LIST*
%ADD10C,0.100000*%
%ADD11R,1.900000X1.900000*%
%ADD12O,1.900000X1.900000*%
%ADD13C,6.600000*%
%ADD14R,1.800000X1.800000*%
%ADD15C,1.800000*%
%ADD16R,0.950000X1.400000*%
%ADD17R,1.400000X0.950000*%
%ADD18R,0.708000X1.343000*%
%ADD19C,1.600000*%
G04 APERTURE END LIST*
D10*
D11*
X147320000Y-105410000D03*
D12*
X147320000Y-107950000D03*
X147320000Y-110490000D03*
X147320000Y-113030000D03*
X147320000Y-115570000D03*
X147320000Y-118110000D03*
D11*
X185420000Y-97790000D03*
D12*
X187960000Y-97790000D03*
X190500000Y-97790000D03*
X193040000Y-97790000D03*
X195580000Y-97790000D03*
X198120000Y-97790000D03*
D11*
X147320000Y-97790000D03*
D12*
X149860000Y-97790000D03*
X152400000Y-97790000D03*
X154940000Y-97790000D03*
X157480000Y-97790000D03*
X160020000Y-97790000D03*
D13*
X205740000Y-109220000D03*
D14*
X153670000Y-105410000D03*
D15*
X153670000Y-107910000D03*
D14*
X160020000Y-105410000D03*
D15*
X160020000Y-107910000D03*
D14*
X153670000Y-111760000D03*
D15*
X153670000Y-114260000D03*
D16*
X171450000Y-105730000D03*
X171450000Y-107630000D03*
D17*
X173675000Y-104775000D03*
X175575000Y-104775000D03*
X180020000Y-117170200D03*
X178120000Y-117170200D03*
D18*
X174307500Y-107632500D03*
X176847500Y-107632500D03*
X178117500Y-107632500D03*
X179387500Y-107632500D03*
X180657500Y-107632500D03*
X181927500Y-107632500D03*
X183197500Y-107632500D03*
X183197500Y-113982500D03*
X181927500Y-113982500D03*
X180657500Y-113982500D03*
X179387500Y-113982500D03*
X178117500Y-113982500D03*
X176847500Y-113982500D03*
X175577500Y-113982500D03*
X174307500Y-113982500D03*
X175577500Y-107632500D03*
D19*
X170815000Y-99060000D03*
X170815000Y-101600000D03*
X174625000Y-101600000D03*
X174625000Y-99060000D03*
M02*
