G04 #@! TF.FileFunction,Legend,Bot*
%FSLAX46Y46*%
G04 Gerber Fmt 4.6, Leading zero omitted, Abs format (unit mm)*
G04 Created by KiCad (PCBNEW 4.0.4+e1-6308~48~ubuntu15.10.1-stable) date Tue Feb  7 13:59:00 2017*
%MOMM*%
%LPD*%
G01*
G04 APERTURE LIST*
%ADD10C,0.100000*%
%ADD11C,0.120000*%
%ADD12C,0.150000*%
G04 APERTURE END LIST*
D10*
D11*
X186690000Y-96400000D02*
X199510000Y-96400000D01*
X199510000Y-96400000D02*
X199510000Y-99180000D01*
X199510000Y-99180000D02*
X186690000Y-99180000D01*
X186690000Y-99180000D02*
X186690000Y-96400000D01*
X185420000Y-96400000D02*
X184030000Y-96400000D01*
X184030000Y-96400000D02*
X184030000Y-97790000D01*
X148590000Y-96400000D02*
X161410000Y-96400000D01*
X161410000Y-96400000D02*
X161410000Y-99180000D01*
X161410000Y-99180000D02*
X148590000Y-99180000D01*
X148590000Y-99180000D02*
X148590000Y-96400000D01*
X147320000Y-96400000D02*
X145930000Y-96400000D01*
X145930000Y-96400000D02*
X145930000Y-97790000D01*
D12*
X183482381Y-96099524D02*
X182482381Y-96099524D01*
X182482381Y-96480477D01*
X182530000Y-96575715D01*
X182577619Y-96623334D01*
X182672857Y-96670953D01*
X182815714Y-96670953D01*
X182910952Y-96623334D01*
X182958571Y-96575715D01*
X183006190Y-96480477D01*
X183006190Y-96099524D01*
X183482381Y-97623334D02*
X183482381Y-97051905D01*
X183482381Y-97337619D02*
X182482381Y-97337619D01*
X182625238Y-97242381D01*
X182720476Y-97147143D01*
X182768095Y-97051905D01*
X182482381Y-98242381D02*
X182482381Y-98337620D01*
X182530000Y-98432858D01*
X182577619Y-98480477D01*
X182672857Y-98528096D01*
X182863333Y-98575715D01*
X183101429Y-98575715D01*
X183291905Y-98528096D01*
X183387143Y-98480477D01*
X183434762Y-98432858D01*
X183482381Y-98337620D01*
X183482381Y-98242381D01*
X183434762Y-98147143D01*
X183387143Y-98099524D01*
X183291905Y-98051905D01*
X183101429Y-98004286D01*
X182863333Y-98004286D01*
X182672857Y-98051905D01*
X182577619Y-98099524D01*
X182530000Y-98147143D01*
X182482381Y-98242381D01*
X182577619Y-98956667D02*
X182530000Y-99004286D01*
X182482381Y-99099524D01*
X182482381Y-99337620D01*
X182530000Y-99432858D01*
X182577619Y-99480477D01*
X182672857Y-99528096D01*
X182768095Y-99528096D01*
X182910952Y-99480477D01*
X183482381Y-98909048D01*
X183482381Y-99528096D01*
X145382381Y-96099524D02*
X144382381Y-96099524D01*
X144382381Y-96480477D01*
X144430000Y-96575715D01*
X144477619Y-96623334D01*
X144572857Y-96670953D01*
X144715714Y-96670953D01*
X144810952Y-96623334D01*
X144858571Y-96575715D01*
X144906190Y-96480477D01*
X144906190Y-96099524D01*
X145382381Y-97623334D02*
X145382381Y-97051905D01*
X145382381Y-97337619D02*
X144382381Y-97337619D01*
X144525238Y-97242381D01*
X144620476Y-97147143D01*
X144668095Y-97051905D01*
X144382381Y-98242381D02*
X144382381Y-98337620D01*
X144430000Y-98432858D01*
X144477619Y-98480477D01*
X144572857Y-98528096D01*
X144763333Y-98575715D01*
X145001429Y-98575715D01*
X145191905Y-98528096D01*
X145287143Y-98480477D01*
X145334762Y-98432858D01*
X145382381Y-98337620D01*
X145382381Y-98242381D01*
X145334762Y-98147143D01*
X145287143Y-98099524D01*
X145191905Y-98051905D01*
X145001429Y-98004286D01*
X144763333Y-98004286D01*
X144572857Y-98051905D01*
X144477619Y-98099524D01*
X144430000Y-98147143D01*
X144382381Y-98242381D01*
X144382381Y-98909048D02*
X144382381Y-99528096D01*
X144763333Y-99194762D01*
X144763333Y-99337620D01*
X144810952Y-99432858D01*
X144858571Y-99480477D01*
X144953810Y-99528096D01*
X145191905Y-99528096D01*
X145287143Y-99480477D01*
X145334762Y-99432858D01*
X145382381Y-99337620D01*
X145382381Y-99051905D01*
X145334762Y-98956667D01*
X145287143Y-98909048D01*
M02*
