G04 #@! TF.FileFunction,Legend,Top*
%FSLAX46Y46*%
G04 Gerber Fmt 4.6, Leading zero omitted, Abs format (unit mm)*
G04 Created by KiCad (PCBNEW 4.0.4+e1-6308~48~ubuntu15.10.1-stable) date Tue Feb  7 13:59:00 2017*
%MOMM*%
%LPD*%
G01*
G04 APERTURE LIST*
%ADD10C,0.100000*%
%ADD11C,0.150000*%
%ADD12C,0.120000*%
G04 APERTURE END LIST*
D10*
D11*
X165862000Y-107442000D02*
X165862000Y-108204000D01*
X165862000Y-108204000D02*
X164338000Y-108204000D01*
X164338000Y-108204000D02*
X164338000Y-107442000D01*
X167386000Y-118618000D02*
X162814000Y-118618000D01*
X162814000Y-118618000D02*
X162814000Y-107442000D01*
X162814000Y-107442000D02*
X167386000Y-107442000D01*
X167386000Y-107442000D02*
X167386000Y-118618000D01*
D12*
X197520000Y-108300000D02*
X197520000Y-107600000D01*
X198720000Y-107600000D02*
X198720000Y-108300000D01*
X197520000Y-118460000D02*
X197520000Y-117760000D01*
X198720000Y-117760000D02*
X198720000Y-118460000D01*
X193640000Y-107600000D02*
X193640000Y-108300000D01*
X192440000Y-108300000D02*
X192440000Y-107600000D01*
X192440000Y-103220000D02*
X192440000Y-102520000D01*
X193640000Y-102520000D02*
X193640000Y-103220000D01*
X193640000Y-117760000D02*
X193640000Y-118460000D01*
X192440000Y-118460000D02*
X192440000Y-117760000D01*
X192440000Y-113380000D02*
X192440000Y-112680000D01*
X193640000Y-112680000D02*
X193640000Y-113380000D01*
X172120000Y-109570000D02*
X172120000Y-108870000D01*
X173320000Y-108870000D02*
X173320000Y-109570000D01*
X173320000Y-113950000D02*
X173320000Y-114650000D01*
X172120000Y-114650000D02*
X172120000Y-113950000D01*
X156810000Y-108870000D02*
X156810000Y-109570000D01*
X155610000Y-109570000D02*
X155610000Y-108870000D01*
X145930000Y-106680000D02*
X145930000Y-119500000D01*
X145930000Y-119500000D02*
X148710000Y-119500000D01*
X148710000Y-119500000D02*
X148710000Y-106680000D01*
X148710000Y-106680000D02*
X145930000Y-106680000D01*
X145930000Y-105410000D02*
X145930000Y-104020000D01*
X145930000Y-104020000D02*
X147320000Y-104020000D01*
D11*
X181825000Y-102785000D02*
X181825000Y-102910000D01*
X186475000Y-102785000D02*
X186475000Y-103010000D01*
X186475000Y-108035000D02*
X186475000Y-107810000D01*
X181825000Y-108035000D02*
X181825000Y-107810000D01*
X181825000Y-102785000D02*
X186475000Y-102785000D01*
X181825000Y-108035000D02*
X186475000Y-108035000D01*
X181825000Y-102910000D02*
X180475000Y-102910000D01*
X181825000Y-112945000D02*
X181825000Y-113070000D01*
X186475000Y-112945000D02*
X186475000Y-113170000D01*
X186475000Y-118195000D02*
X186475000Y-117970000D01*
X181825000Y-118195000D02*
X181825000Y-117970000D01*
X181825000Y-112945000D02*
X186475000Y-112945000D01*
X181825000Y-118195000D02*
X186475000Y-118195000D01*
X181825000Y-113070000D02*
X180475000Y-113070000D01*
X163512714Y-105878381D02*
X163512714Y-106687905D01*
X163560333Y-106783143D01*
X163607952Y-106830762D01*
X163703190Y-106878381D01*
X163893667Y-106878381D01*
X163988905Y-106830762D01*
X164036524Y-106783143D01*
X164084143Y-106687905D01*
X164084143Y-105878381D01*
X165084143Y-106878381D02*
X164512714Y-106878381D01*
X164798428Y-106878381D02*
X164798428Y-105878381D01*
X164703190Y-106021238D01*
X164607952Y-106116476D01*
X164512714Y-106164095D01*
X165703190Y-105878381D02*
X165798429Y-105878381D01*
X165893667Y-105926000D01*
X165941286Y-105973619D01*
X165988905Y-106068857D01*
X166036524Y-106259333D01*
X166036524Y-106497429D01*
X165988905Y-106687905D01*
X165941286Y-106783143D01*
X165893667Y-106830762D01*
X165798429Y-106878381D01*
X165703190Y-106878381D01*
X165607952Y-106830762D01*
X165560333Y-106783143D01*
X165512714Y-106687905D01*
X165465095Y-106497429D01*
X165465095Y-106259333D01*
X165512714Y-106068857D01*
X165560333Y-105973619D01*
X165607952Y-105926000D01*
X165703190Y-105878381D01*
X166369857Y-105878381D02*
X166988905Y-105878381D01*
X166655571Y-106259333D01*
X166798429Y-106259333D01*
X166893667Y-106306952D01*
X166941286Y-106354571D01*
X166988905Y-106449810D01*
X166988905Y-106687905D01*
X166941286Y-106783143D01*
X166893667Y-106830762D01*
X166798429Y-106878381D01*
X166512714Y-106878381D01*
X166417476Y-106830762D01*
X166369857Y-106783143D01*
X196577143Y-109069047D02*
X196624762Y-109116666D01*
X196672381Y-109259523D01*
X196672381Y-109354761D01*
X196624762Y-109497619D01*
X196529524Y-109592857D01*
X196434286Y-109640476D01*
X196243810Y-109688095D01*
X196100952Y-109688095D01*
X195910476Y-109640476D01*
X195815238Y-109592857D01*
X195720000Y-109497619D01*
X195672381Y-109354761D01*
X195672381Y-109259523D01*
X195720000Y-109116666D01*
X195767619Y-109069047D01*
X196672381Y-108116666D02*
X196672381Y-108688095D01*
X196672381Y-108402381D02*
X195672381Y-108402381D01*
X195815238Y-108497619D01*
X195910476Y-108592857D01*
X195958095Y-108688095D01*
X195672381Y-107497619D02*
X195672381Y-107402380D01*
X195720000Y-107307142D01*
X195767619Y-107259523D01*
X195862857Y-107211904D01*
X196053333Y-107164285D01*
X196291429Y-107164285D01*
X196481905Y-107211904D01*
X196577143Y-107259523D01*
X196624762Y-107307142D01*
X196672381Y-107402380D01*
X196672381Y-107497619D01*
X196624762Y-107592857D01*
X196577143Y-107640476D01*
X196481905Y-107688095D01*
X196291429Y-107735714D01*
X196053333Y-107735714D01*
X195862857Y-107688095D01*
X195767619Y-107640476D01*
X195720000Y-107592857D01*
X195672381Y-107497619D01*
X196672381Y-106211904D02*
X196672381Y-106783333D01*
X196672381Y-106497619D02*
X195672381Y-106497619D01*
X195815238Y-106592857D01*
X195910476Y-106688095D01*
X195958095Y-106783333D01*
X196577143Y-119229047D02*
X196624762Y-119276666D01*
X196672381Y-119419523D01*
X196672381Y-119514761D01*
X196624762Y-119657619D01*
X196529524Y-119752857D01*
X196434286Y-119800476D01*
X196243810Y-119848095D01*
X196100952Y-119848095D01*
X195910476Y-119800476D01*
X195815238Y-119752857D01*
X195720000Y-119657619D01*
X195672381Y-119514761D01*
X195672381Y-119419523D01*
X195720000Y-119276666D01*
X195767619Y-119229047D01*
X196672381Y-118276666D02*
X196672381Y-118848095D01*
X196672381Y-118562381D02*
X195672381Y-118562381D01*
X195815238Y-118657619D01*
X195910476Y-118752857D01*
X195958095Y-118848095D01*
X195672381Y-117657619D02*
X195672381Y-117562380D01*
X195720000Y-117467142D01*
X195767619Y-117419523D01*
X195862857Y-117371904D01*
X196053333Y-117324285D01*
X196291429Y-117324285D01*
X196481905Y-117371904D01*
X196577143Y-117419523D01*
X196624762Y-117467142D01*
X196672381Y-117562380D01*
X196672381Y-117657619D01*
X196624762Y-117752857D01*
X196577143Y-117800476D01*
X196481905Y-117848095D01*
X196291429Y-117895714D01*
X196053333Y-117895714D01*
X195862857Y-117848095D01*
X195767619Y-117800476D01*
X195720000Y-117752857D01*
X195672381Y-117657619D01*
X195767619Y-116943333D02*
X195720000Y-116895714D01*
X195672381Y-116800476D01*
X195672381Y-116562380D01*
X195720000Y-116467142D01*
X195767619Y-116419523D01*
X195862857Y-116371904D01*
X195958095Y-116371904D01*
X196100952Y-116419523D01*
X196672381Y-116990952D01*
X196672381Y-116371904D01*
X191492143Y-109069047D02*
X191539762Y-109116666D01*
X191587381Y-109259523D01*
X191587381Y-109354761D01*
X191539762Y-109497619D01*
X191444524Y-109592857D01*
X191349286Y-109640476D01*
X191158810Y-109688095D01*
X191015952Y-109688095D01*
X190825476Y-109640476D01*
X190730238Y-109592857D01*
X190635000Y-109497619D01*
X190587381Y-109354761D01*
X190587381Y-109259523D01*
X190635000Y-109116666D01*
X190682619Y-109069047D01*
X191587381Y-108116666D02*
X191587381Y-108688095D01*
X191587381Y-108402381D02*
X190587381Y-108402381D01*
X190730238Y-108497619D01*
X190825476Y-108592857D01*
X190873095Y-108688095D01*
X190587381Y-107497619D02*
X190587381Y-107402380D01*
X190635000Y-107307142D01*
X190682619Y-107259523D01*
X190777857Y-107211904D01*
X190968333Y-107164285D01*
X191206429Y-107164285D01*
X191396905Y-107211904D01*
X191492143Y-107259523D01*
X191539762Y-107307142D01*
X191587381Y-107402380D01*
X191587381Y-107497619D01*
X191539762Y-107592857D01*
X191492143Y-107640476D01*
X191396905Y-107688095D01*
X191206429Y-107735714D01*
X190968333Y-107735714D01*
X190777857Y-107688095D01*
X190682619Y-107640476D01*
X190635000Y-107592857D01*
X190587381Y-107497619D01*
X190587381Y-106830952D02*
X190587381Y-106211904D01*
X190968333Y-106545238D01*
X190968333Y-106402380D01*
X191015952Y-106307142D01*
X191063571Y-106259523D01*
X191158810Y-106211904D01*
X191396905Y-106211904D01*
X191492143Y-106259523D01*
X191539762Y-106307142D01*
X191587381Y-106402380D01*
X191587381Y-106688095D01*
X191539762Y-106783333D01*
X191492143Y-106830952D01*
X191497143Y-103989047D02*
X191544762Y-104036666D01*
X191592381Y-104179523D01*
X191592381Y-104274761D01*
X191544762Y-104417619D01*
X191449524Y-104512857D01*
X191354286Y-104560476D01*
X191163810Y-104608095D01*
X191020952Y-104608095D01*
X190830476Y-104560476D01*
X190735238Y-104512857D01*
X190640000Y-104417619D01*
X190592381Y-104274761D01*
X190592381Y-104179523D01*
X190640000Y-104036666D01*
X190687619Y-103989047D01*
X191592381Y-103036666D02*
X191592381Y-103608095D01*
X191592381Y-103322381D02*
X190592381Y-103322381D01*
X190735238Y-103417619D01*
X190830476Y-103512857D01*
X190878095Y-103608095D01*
X190592381Y-102417619D02*
X190592381Y-102322380D01*
X190640000Y-102227142D01*
X190687619Y-102179523D01*
X190782857Y-102131904D01*
X190973333Y-102084285D01*
X191211429Y-102084285D01*
X191401905Y-102131904D01*
X191497143Y-102179523D01*
X191544762Y-102227142D01*
X191592381Y-102322380D01*
X191592381Y-102417619D01*
X191544762Y-102512857D01*
X191497143Y-102560476D01*
X191401905Y-102608095D01*
X191211429Y-102655714D01*
X190973333Y-102655714D01*
X190782857Y-102608095D01*
X190687619Y-102560476D01*
X190640000Y-102512857D01*
X190592381Y-102417619D01*
X190925714Y-101227142D02*
X191592381Y-101227142D01*
X190544762Y-101465238D02*
X191259048Y-101703333D01*
X191259048Y-101084285D01*
X191492143Y-119229047D02*
X191539762Y-119276666D01*
X191587381Y-119419523D01*
X191587381Y-119514761D01*
X191539762Y-119657619D01*
X191444524Y-119752857D01*
X191349286Y-119800476D01*
X191158810Y-119848095D01*
X191015952Y-119848095D01*
X190825476Y-119800476D01*
X190730238Y-119752857D01*
X190635000Y-119657619D01*
X190587381Y-119514761D01*
X190587381Y-119419523D01*
X190635000Y-119276666D01*
X190682619Y-119229047D01*
X191587381Y-118276666D02*
X191587381Y-118848095D01*
X191587381Y-118562381D02*
X190587381Y-118562381D01*
X190730238Y-118657619D01*
X190825476Y-118752857D01*
X190873095Y-118848095D01*
X190587381Y-117657619D02*
X190587381Y-117562380D01*
X190635000Y-117467142D01*
X190682619Y-117419523D01*
X190777857Y-117371904D01*
X190968333Y-117324285D01*
X191206429Y-117324285D01*
X191396905Y-117371904D01*
X191492143Y-117419523D01*
X191539762Y-117467142D01*
X191587381Y-117562380D01*
X191587381Y-117657619D01*
X191539762Y-117752857D01*
X191492143Y-117800476D01*
X191396905Y-117848095D01*
X191206429Y-117895714D01*
X190968333Y-117895714D01*
X190777857Y-117848095D01*
X190682619Y-117800476D01*
X190635000Y-117752857D01*
X190587381Y-117657619D01*
X190587381Y-116419523D02*
X190587381Y-116895714D01*
X191063571Y-116943333D01*
X191015952Y-116895714D01*
X190968333Y-116800476D01*
X190968333Y-116562380D01*
X191015952Y-116467142D01*
X191063571Y-116419523D01*
X191158810Y-116371904D01*
X191396905Y-116371904D01*
X191492143Y-116419523D01*
X191539762Y-116467142D01*
X191587381Y-116562380D01*
X191587381Y-116800476D01*
X191539762Y-116895714D01*
X191492143Y-116943333D01*
X191497143Y-114149047D02*
X191544762Y-114196666D01*
X191592381Y-114339523D01*
X191592381Y-114434761D01*
X191544762Y-114577619D01*
X191449524Y-114672857D01*
X191354286Y-114720476D01*
X191163810Y-114768095D01*
X191020952Y-114768095D01*
X190830476Y-114720476D01*
X190735238Y-114672857D01*
X190640000Y-114577619D01*
X190592381Y-114434761D01*
X190592381Y-114339523D01*
X190640000Y-114196666D01*
X190687619Y-114149047D01*
X191592381Y-113196666D02*
X191592381Y-113768095D01*
X191592381Y-113482381D02*
X190592381Y-113482381D01*
X190735238Y-113577619D01*
X190830476Y-113672857D01*
X190878095Y-113768095D01*
X190592381Y-112577619D02*
X190592381Y-112482380D01*
X190640000Y-112387142D01*
X190687619Y-112339523D01*
X190782857Y-112291904D01*
X190973333Y-112244285D01*
X191211429Y-112244285D01*
X191401905Y-112291904D01*
X191497143Y-112339523D01*
X191544762Y-112387142D01*
X191592381Y-112482380D01*
X191592381Y-112577619D01*
X191544762Y-112672857D01*
X191497143Y-112720476D01*
X191401905Y-112768095D01*
X191211429Y-112815714D01*
X190973333Y-112815714D01*
X190782857Y-112768095D01*
X190687619Y-112720476D01*
X190640000Y-112672857D01*
X190592381Y-112577619D01*
X190592381Y-111387142D02*
X190592381Y-111577619D01*
X190640000Y-111672857D01*
X190687619Y-111720476D01*
X190830476Y-111815714D01*
X191020952Y-111863333D01*
X191401905Y-111863333D01*
X191497143Y-111815714D01*
X191544762Y-111768095D01*
X191592381Y-111672857D01*
X191592381Y-111482380D01*
X191544762Y-111387142D01*
X191497143Y-111339523D01*
X191401905Y-111291904D01*
X191163810Y-111291904D01*
X191068571Y-111339523D01*
X191020952Y-111387142D01*
X190973333Y-111482380D01*
X190973333Y-111672857D01*
X191020952Y-111768095D01*
X191068571Y-111815714D01*
X191163810Y-111863333D01*
X174982143Y-110339047D02*
X175029762Y-110386666D01*
X175077381Y-110529523D01*
X175077381Y-110624761D01*
X175029762Y-110767619D01*
X174934524Y-110862857D01*
X174839286Y-110910476D01*
X174648810Y-110958095D01*
X174505952Y-110958095D01*
X174315476Y-110910476D01*
X174220238Y-110862857D01*
X174125000Y-110767619D01*
X174077381Y-110624761D01*
X174077381Y-110529523D01*
X174125000Y-110386666D01*
X174172619Y-110339047D01*
X175077381Y-109386666D02*
X175077381Y-109958095D01*
X175077381Y-109672381D02*
X174077381Y-109672381D01*
X174220238Y-109767619D01*
X174315476Y-109862857D01*
X174363095Y-109958095D01*
X174077381Y-108767619D02*
X174077381Y-108672380D01*
X174125000Y-108577142D01*
X174172619Y-108529523D01*
X174267857Y-108481904D01*
X174458333Y-108434285D01*
X174696429Y-108434285D01*
X174886905Y-108481904D01*
X174982143Y-108529523D01*
X175029762Y-108577142D01*
X175077381Y-108672380D01*
X175077381Y-108767619D01*
X175029762Y-108862857D01*
X174982143Y-108910476D01*
X174886905Y-108958095D01*
X174696429Y-109005714D01*
X174458333Y-109005714D01*
X174267857Y-108958095D01*
X174172619Y-108910476D01*
X174125000Y-108862857D01*
X174077381Y-108767619D01*
X174077381Y-108100952D02*
X174077381Y-107434285D01*
X175077381Y-107862857D01*
X174977143Y-115419047D02*
X175024762Y-115466666D01*
X175072381Y-115609523D01*
X175072381Y-115704761D01*
X175024762Y-115847619D01*
X174929524Y-115942857D01*
X174834286Y-115990476D01*
X174643810Y-116038095D01*
X174500952Y-116038095D01*
X174310476Y-115990476D01*
X174215238Y-115942857D01*
X174120000Y-115847619D01*
X174072381Y-115704761D01*
X174072381Y-115609523D01*
X174120000Y-115466666D01*
X174167619Y-115419047D01*
X175072381Y-114466666D02*
X175072381Y-115038095D01*
X175072381Y-114752381D02*
X174072381Y-114752381D01*
X174215238Y-114847619D01*
X174310476Y-114942857D01*
X174358095Y-115038095D01*
X174072381Y-113847619D02*
X174072381Y-113752380D01*
X174120000Y-113657142D01*
X174167619Y-113609523D01*
X174262857Y-113561904D01*
X174453333Y-113514285D01*
X174691429Y-113514285D01*
X174881905Y-113561904D01*
X174977143Y-113609523D01*
X175024762Y-113657142D01*
X175072381Y-113752380D01*
X175072381Y-113847619D01*
X175024762Y-113942857D01*
X174977143Y-113990476D01*
X174881905Y-114038095D01*
X174691429Y-114085714D01*
X174453333Y-114085714D01*
X174262857Y-114038095D01*
X174167619Y-113990476D01*
X174120000Y-113942857D01*
X174072381Y-113847619D01*
X174500952Y-112942857D02*
X174453333Y-113038095D01*
X174405714Y-113085714D01*
X174310476Y-113133333D01*
X174262857Y-113133333D01*
X174167619Y-113085714D01*
X174120000Y-113038095D01*
X174072381Y-112942857D01*
X174072381Y-112752380D01*
X174120000Y-112657142D01*
X174167619Y-112609523D01*
X174262857Y-112561904D01*
X174310476Y-112561904D01*
X174405714Y-112609523D01*
X174453333Y-112657142D01*
X174500952Y-112752380D01*
X174500952Y-112942857D01*
X174548571Y-113038095D01*
X174596190Y-113085714D01*
X174691429Y-113133333D01*
X174881905Y-113133333D01*
X174977143Y-113085714D01*
X175024762Y-113038095D01*
X175072381Y-112942857D01*
X175072381Y-112752380D01*
X175024762Y-112657142D01*
X174977143Y-112609523D01*
X174881905Y-112561904D01*
X174691429Y-112561904D01*
X174596190Y-112609523D01*
X174548571Y-112657142D01*
X174500952Y-112752380D01*
X158467143Y-110339047D02*
X158514762Y-110386666D01*
X158562381Y-110529523D01*
X158562381Y-110624761D01*
X158514762Y-110767619D01*
X158419524Y-110862857D01*
X158324286Y-110910476D01*
X158133810Y-110958095D01*
X157990952Y-110958095D01*
X157800476Y-110910476D01*
X157705238Y-110862857D01*
X157610000Y-110767619D01*
X157562381Y-110624761D01*
X157562381Y-110529523D01*
X157610000Y-110386666D01*
X157657619Y-110339047D01*
X158562381Y-109386666D02*
X158562381Y-109958095D01*
X158562381Y-109672381D02*
X157562381Y-109672381D01*
X157705238Y-109767619D01*
X157800476Y-109862857D01*
X157848095Y-109958095D01*
X157562381Y-108767619D02*
X157562381Y-108672380D01*
X157610000Y-108577142D01*
X157657619Y-108529523D01*
X157752857Y-108481904D01*
X157943333Y-108434285D01*
X158181429Y-108434285D01*
X158371905Y-108481904D01*
X158467143Y-108529523D01*
X158514762Y-108577142D01*
X158562381Y-108672380D01*
X158562381Y-108767619D01*
X158514762Y-108862857D01*
X158467143Y-108910476D01*
X158371905Y-108958095D01*
X158181429Y-109005714D01*
X157943333Y-109005714D01*
X157752857Y-108958095D01*
X157657619Y-108910476D01*
X157610000Y-108862857D01*
X157562381Y-108767619D01*
X158562381Y-107958095D02*
X158562381Y-107767619D01*
X158514762Y-107672380D01*
X158467143Y-107624761D01*
X158324286Y-107529523D01*
X158133810Y-107481904D01*
X157752857Y-107481904D01*
X157657619Y-107529523D01*
X157610000Y-107577142D01*
X157562381Y-107672380D01*
X157562381Y-107862857D01*
X157610000Y-107958095D01*
X157657619Y-108005714D01*
X157752857Y-108053333D01*
X157990952Y-108053333D01*
X158086190Y-108005714D01*
X158133810Y-107958095D01*
X158181429Y-107862857D01*
X158181429Y-107672380D01*
X158133810Y-107577142D01*
X158086190Y-107529523D01*
X157990952Y-107481904D01*
X145629524Y-103472381D02*
X145629524Y-102472381D01*
X146010477Y-102472381D01*
X146105715Y-102520000D01*
X146153334Y-102567619D01*
X146200953Y-102662857D01*
X146200953Y-102805714D01*
X146153334Y-102900952D01*
X146105715Y-102948571D01*
X146010477Y-102996190D01*
X145629524Y-102996190D01*
X147153334Y-103472381D02*
X146581905Y-103472381D01*
X146867619Y-103472381D02*
X146867619Y-102472381D01*
X146772381Y-102615238D01*
X146677143Y-102710476D01*
X146581905Y-102758095D01*
X147772381Y-102472381D02*
X147867620Y-102472381D01*
X147962858Y-102520000D01*
X148010477Y-102567619D01*
X148058096Y-102662857D01*
X148105715Y-102853333D01*
X148105715Y-103091429D01*
X148058096Y-103281905D01*
X148010477Y-103377143D01*
X147962858Y-103424762D01*
X147867620Y-103472381D01*
X147772381Y-103472381D01*
X147677143Y-103424762D01*
X147629524Y-103377143D01*
X147581905Y-103281905D01*
X147534286Y-103091429D01*
X147534286Y-102853333D01*
X147581905Y-102662857D01*
X147629524Y-102567619D01*
X147677143Y-102520000D01*
X147772381Y-102472381D01*
X149058096Y-103472381D02*
X148486667Y-103472381D01*
X148772381Y-103472381D02*
X148772381Y-102472381D01*
X148677143Y-102615238D01*
X148581905Y-102710476D01*
X148486667Y-102758095D01*
X182435714Y-101312381D02*
X182435714Y-102121905D01*
X182483333Y-102217143D01*
X182530952Y-102264762D01*
X182626190Y-102312381D01*
X182816667Y-102312381D01*
X182911905Y-102264762D01*
X182959524Y-102217143D01*
X183007143Y-102121905D01*
X183007143Y-101312381D01*
X184007143Y-102312381D02*
X183435714Y-102312381D01*
X183721428Y-102312381D02*
X183721428Y-101312381D01*
X183626190Y-101455238D01*
X183530952Y-101550476D01*
X183435714Y-101598095D01*
X184626190Y-101312381D02*
X184721429Y-101312381D01*
X184816667Y-101360000D01*
X184864286Y-101407619D01*
X184911905Y-101502857D01*
X184959524Y-101693333D01*
X184959524Y-101931429D01*
X184911905Y-102121905D01*
X184864286Y-102217143D01*
X184816667Y-102264762D01*
X184721429Y-102312381D01*
X184626190Y-102312381D01*
X184530952Y-102264762D01*
X184483333Y-102217143D01*
X184435714Y-102121905D01*
X184388095Y-101931429D01*
X184388095Y-101693333D01*
X184435714Y-101502857D01*
X184483333Y-101407619D01*
X184530952Y-101360000D01*
X184626190Y-101312381D01*
X185911905Y-102312381D02*
X185340476Y-102312381D01*
X185626190Y-102312381D02*
X185626190Y-101312381D01*
X185530952Y-101455238D01*
X185435714Y-101550476D01*
X185340476Y-101598095D01*
X182435714Y-111472381D02*
X182435714Y-112281905D01*
X182483333Y-112377143D01*
X182530952Y-112424762D01*
X182626190Y-112472381D01*
X182816667Y-112472381D01*
X182911905Y-112424762D01*
X182959524Y-112377143D01*
X183007143Y-112281905D01*
X183007143Y-111472381D01*
X184007143Y-112472381D02*
X183435714Y-112472381D01*
X183721428Y-112472381D02*
X183721428Y-111472381D01*
X183626190Y-111615238D01*
X183530952Y-111710476D01*
X183435714Y-111758095D01*
X184626190Y-111472381D02*
X184721429Y-111472381D01*
X184816667Y-111520000D01*
X184864286Y-111567619D01*
X184911905Y-111662857D01*
X184959524Y-111853333D01*
X184959524Y-112091429D01*
X184911905Y-112281905D01*
X184864286Y-112377143D01*
X184816667Y-112424762D01*
X184721429Y-112472381D01*
X184626190Y-112472381D01*
X184530952Y-112424762D01*
X184483333Y-112377143D01*
X184435714Y-112281905D01*
X184388095Y-112091429D01*
X184388095Y-111853333D01*
X184435714Y-111662857D01*
X184483333Y-111567619D01*
X184530952Y-111520000D01*
X184626190Y-111472381D01*
X185340476Y-111567619D02*
X185388095Y-111520000D01*
X185483333Y-111472381D01*
X185721429Y-111472381D01*
X185816667Y-111520000D01*
X185864286Y-111567619D01*
X185911905Y-111662857D01*
X185911905Y-111758095D01*
X185864286Y-111900952D01*
X185292857Y-112472381D01*
X185911905Y-112472381D01*
M02*
