M48
;DRILL file {KiCad 4.0.4+e1-6308~48~ubuntu15.10.1-stable} date Tue Jan 24 12:24:04 2017
;FORMAT={-:-/ absolute / metric / decimal}
FMAT,2
METRIC,TZ
T1C0.813
T2C0.998
T3C1.000
T4C1.100
T5C1.199
T6C3.200
%
G90
G05
M71
T1
X116.84Y-100.33
X116.84Y-102.87
X116.84Y-105.41
T2
X146.05Y-114.3
X161.29Y-114.3
T3
X116.84Y-85.09
X116.84Y-87.63
X125.73Y-107.95
X125.73Y-110.49
X138.43Y-114.3
X153.67Y-114.3
T4
X123.19Y-74.93
X123.19Y-85.09
X123.19Y-92.71
X123.19Y-102.87
T5
X128.27Y-76.2
X128.27Y-83.82
X128.27Y-93.98
X128.27Y-101.6
X144.78Y-83.82
X144.78Y-101.6
X148.59Y-76.2
X148.59Y-93.98
X152.4Y-83.82
X152.4Y-101.6
T6
X115.57Y-74.93
X115.57Y-116.84
X170.18Y-74.93
X170.18Y-116.84
T0
M30
