G04 #@! TF.FileFunction,Copper,L1,Top,Signal*
%FSLAX46Y46*%
G04 Gerber Fmt 4.6, Leading zero omitted, Abs format (unit mm)*
G04 Created by KiCad (PCBNEW 4.0.4+e1-6308~48~ubuntu15.10.1-stable) date Tue Jan 24 12:24:32 2017*
%MOMM*%
%LPD*%
G01*
G04 APERTURE LIST*
%ADD10C,0.100000*%
%ADD11R,2.200000X2.200000*%
%ADD12O,2.200000X2.200000*%
%ADD13C,2.999740*%
%ADD14R,1.700000X1.700000*%
%ADD15O,1.700000X1.700000*%
%ADD16C,3.175000*%
%ADD17C,1.524000*%
%ADD18C,6.400000*%
%ADD19C,0.381000*%
%ADD20C,0.254000*%
G04 APERTURE END LIST*
D10*
D11*
X123190000Y-74930000D03*
D12*
X123190000Y-85090000D03*
D13*
X144780000Y-83820000D03*
X128270000Y-76200000D03*
X128270000Y-83820000D03*
X148590000Y-76200000D03*
X152400000Y-83820000D03*
X144780000Y-101600000D03*
X128270000Y-93980000D03*
X128270000Y-101600000D03*
X148590000Y-93980000D03*
X152400000Y-101600000D03*
D14*
X116840000Y-85090000D03*
D15*
X116840000Y-87630000D03*
D16*
X153670000Y-114300000D03*
X161290000Y-114300000D03*
X138430000Y-114300000D03*
X146050000Y-114300000D03*
D17*
X116840000Y-102870000D03*
X116840000Y-105410000D03*
X116840000Y-100330000D03*
D11*
X123190000Y-102870000D03*
D12*
X123190000Y-92710000D03*
D14*
X125730000Y-107950000D03*
D15*
X125730000Y-110490000D03*
D18*
X170180000Y-74930000D03*
X115570000Y-74930000D03*
X115570000Y-116840000D03*
X170180000Y-116840000D03*
D19*
X123190000Y-92710000D02*
X116840000Y-99060000D01*
X116840000Y-99060000D02*
X116840000Y-100330000D01*
X123190000Y-92710000D02*
X124460000Y-93980000D01*
X124460000Y-93980000D02*
X128270000Y-93980000D01*
X120650000Y-87630000D02*
X123190000Y-90170000D01*
X123190000Y-90170000D02*
X123190000Y-92710000D01*
X123190000Y-85090000D02*
X120650000Y-87630000D01*
X120650000Y-87630000D02*
X116840000Y-87630000D01*
X128270000Y-76200000D02*
X123190000Y-81280000D01*
X123190000Y-81280000D02*
X123190000Y-85090000D01*
X116840000Y-105410000D02*
X121920000Y-110490000D01*
X121920000Y-110490000D02*
X125730000Y-110490000D01*
X116840000Y-102870000D02*
X116840000Y-105410000D01*
D20*
G36*
X138303000Y-86307394D02*
X131990197Y-92620197D01*
X131962334Y-92662211D01*
X131953000Y-92710000D01*
X131953000Y-119940000D01*
X117892832Y-119940000D01*
X118819259Y-119015189D01*
X119404333Y-117606175D01*
X119405664Y-116080518D01*
X118823050Y-114670485D01*
X117745189Y-113590741D01*
X116336175Y-113005667D01*
X114810518Y-113004336D01*
X113400485Y-113586950D01*
X112470000Y-114515812D01*
X112470000Y-87630000D01*
X115325907Y-87630000D01*
X115438946Y-88198285D01*
X115760853Y-88680054D01*
X116242622Y-89001961D01*
X116810907Y-89115000D01*
X116869093Y-89115000D01*
X117437378Y-89001961D01*
X117919147Y-88680054D01*
X118069189Y-88455500D01*
X120308066Y-88455500D01*
X122364500Y-90511933D01*
X122364500Y-91181018D01*
X121963170Y-91449179D01*
X121587069Y-92012053D01*
X121455000Y-92676009D01*
X121455000Y-92743991D01*
X121543526Y-93189040D01*
X116256283Y-98476283D01*
X116077337Y-98744094D01*
X116077337Y-98744095D01*
X116014500Y-99060000D01*
X116014500Y-99180126D01*
X115656371Y-99537630D01*
X115443243Y-100050900D01*
X115442758Y-100606661D01*
X115654990Y-101120303D01*
X116047630Y-101513629D01*
X116255512Y-101599949D01*
X116049697Y-101684990D01*
X115656371Y-102077630D01*
X115443243Y-102590900D01*
X115442758Y-103146661D01*
X115654990Y-103660303D01*
X116014500Y-104020441D01*
X116014500Y-104260126D01*
X115656371Y-104617630D01*
X115443243Y-105130900D01*
X115442758Y-105686661D01*
X115654990Y-106200303D01*
X116047630Y-106593629D01*
X116560900Y-106806757D01*
X117069767Y-106807201D01*
X121336283Y-111073717D01*
X121604094Y-111252663D01*
X121920000Y-111315501D01*
X121920005Y-111315500D01*
X124500811Y-111315500D01*
X124650853Y-111540054D01*
X125132622Y-111861961D01*
X125700907Y-111975000D01*
X125759093Y-111975000D01*
X126327378Y-111861961D01*
X126809147Y-111540054D01*
X127131054Y-111058285D01*
X127244093Y-110490000D01*
X127131054Y-109921715D01*
X126809147Y-109439946D01*
X126765223Y-109410597D01*
X126939698Y-109338327D01*
X127118327Y-109159699D01*
X127215000Y-108926310D01*
X127215000Y-108235750D01*
X127056250Y-108077000D01*
X125857000Y-108077000D01*
X125857000Y-108097000D01*
X125603000Y-108097000D01*
X125603000Y-108077000D01*
X124403750Y-108077000D01*
X124245000Y-108235750D01*
X124245000Y-108926310D01*
X124341673Y-109159699D01*
X124520302Y-109338327D01*
X124694777Y-109410597D01*
X124650853Y-109439946D01*
X124500811Y-109664500D01*
X122261934Y-109664500D01*
X119571124Y-106973690D01*
X124245000Y-106973690D01*
X124245000Y-107664250D01*
X124403750Y-107823000D01*
X125603000Y-107823000D01*
X125603000Y-106623750D01*
X125857000Y-106623750D01*
X125857000Y-107823000D01*
X127056250Y-107823000D01*
X127215000Y-107664250D01*
X127215000Y-106973690D01*
X127118327Y-106740301D01*
X126939698Y-106561673D01*
X126706309Y-106465000D01*
X126015750Y-106465000D01*
X125857000Y-106623750D01*
X125603000Y-106623750D01*
X125444250Y-106465000D01*
X124753691Y-106465000D01*
X124520302Y-106561673D01*
X124341673Y-106740301D01*
X124245000Y-106973690D01*
X119571124Y-106973690D01*
X118236800Y-105639366D01*
X118237242Y-105133339D01*
X118025010Y-104619697D01*
X117665500Y-104259559D01*
X117665500Y-104019874D01*
X118023629Y-103662370D01*
X118233995Y-103155750D01*
X121455000Y-103155750D01*
X121455000Y-104096309D01*
X121551673Y-104329698D01*
X121730301Y-104508327D01*
X121963690Y-104605000D01*
X122904250Y-104605000D01*
X123063000Y-104446250D01*
X123063000Y-102997000D01*
X123317000Y-102997000D01*
X123317000Y-104446250D01*
X123475750Y-104605000D01*
X124416310Y-104605000D01*
X124649699Y-104508327D01*
X124828327Y-104329698D01*
X124925000Y-104096309D01*
X124925000Y-103155750D01*
X124883127Y-103113877D01*
X126935728Y-103113877D01*
X127095495Y-103432632D01*
X127886217Y-103742595D01*
X128735366Y-103726367D01*
X129444505Y-103432632D01*
X129604272Y-103113877D01*
X128270000Y-101779605D01*
X126935728Y-103113877D01*
X124883127Y-103113877D01*
X124766250Y-102997000D01*
X123317000Y-102997000D01*
X123063000Y-102997000D01*
X121613750Y-102997000D01*
X121455000Y-103155750D01*
X118233995Y-103155750D01*
X118236757Y-103149100D01*
X118237242Y-102593339D01*
X118025010Y-102079697D01*
X117632370Y-101686371D01*
X117529585Y-101643691D01*
X121455000Y-101643691D01*
X121455000Y-102584250D01*
X121613750Y-102743000D01*
X123063000Y-102743000D01*
X123063000Y-101293750D01*
X123317000Y-101293750D01*
X123317000Y-102743000D01*
X124766250Y-102743000D01*
X124925000Y-102584250D01*
X124925000Y-101643691D01*
X124828327Y-101410302D01*
X124649699Y-101231673D01*
X124612385Y-101216217D01*
X126127405Y-101216217D01*
X126143633Y-102065366D01*
X126437368Y-102774505D01*
X126756123Y-102934272D01*
X128090395Y-101600000D01*
X128449605Y-101600000D01*
X129783877Y-102934272D01*
X130102632Y-102774505D01*
X130412595Y-101983783D01*
X130396367Y-101134634D01*
X130102632Y-100425495D01*
X129783877Y-100265728D01*
X128449605Y-101600000D01*
X128090395Y-101600000D01*
X126756123Y-100265728D01*
X126437368Y-100425495D01*
X126127405Y-101216217D01*
X124612385Y-101216217D01*
X124416310Y-101135000D01*
X123475750Y-101135000D01*
X123317000Y-101293750D01*
X123063000Y-101293750D01*
X122904250Y-101135000D01*
X121963690Y-101135000D01*
X121730301Y-101231673D01*
X121551673Y-101410302D01*
X121455000Y-101643691D01*
X117529585Y-101643691D01*
X117424488Y-101600051D01*
X117630303Y-101515010D01*
X118023629Y-101122370D01*
X118236757Y-100609100D01*
X118237213Y-100086123D01*
X126935728Y-100086123D01*
X128270000Y-101420395D01*
X129604272Y-100086123D01*
X129444505Y-99767368D01*
X128653783Y-99457405D01*
X127804634Y-99473633D01*
X127095495Y-99767368D01*
X126935728Y-100086123D01*
X118237213Y-100086123D01*
X118237242Y-100053339D01*
X118025010Y-99539697D01*
X117776591Y-99290843D01*
X122688248Y-94379186D01*
X123190000Y-94478991D01*
X123691753Y-94379186D01*
X123876281Y-94563714D01*
X123876283Y-94563717D01*
X124036824Y-94670987D01*
X124144094Y-94742663D01*
X124460000Y-94805500D01*
X126301157Y-94805500D01*
X126459090Y-95187727D01*
X127059114Y-95788800D01*
X127843485Y-96114499D01*
X128692789Y-96115240D01*
X129477727Y-95790910D01*
X130078800Y-95190886D01*
X130404499Y-94406515D01*
X130405240Y-93557211D01*
X130080910Y-92772273D01*
X129480886Y-92171200D01*
X128696515Y-91845501D01*
X127847211Y-91844760D01*
X127062273Y-92169090D01*
X126461200Y-92769114D01*
X126301174Y-93154500D01*
X124843345Y-93154500D01*
X124925000Y-92743991D01*
X124925000Y-92676009D01*
X124792931Y-92012053D01*
X124416830Y-91449179D01*
X124015500Y-91181018D01*
X124015500Y-90170000D01*
X123952663Y-89854095D01*
X123773717Y-89586283D01*
X123773714Y-89586281D01*
X121817434Y-87630000D01*
X122688247Y-86759186D01*
X123190000Y-86858991D01*
X123853956Y-86726922D01*
X124416830Y-86350821D01*
X124792931Y-85787947D01*
X124883251Y-85333877D01*
X126935728Y-85333877D01*
X127095495Y-85652632D01*
X127886217Y-85962595D01*
X128735366Y-85946367D01*
X129444505Y-85652632D01*
X129604272Y-85333877D01*
X128270000Y-83999605D01*
X126935728Y-85333877D01*
X124883251Y-85333877D01*
X124925000Y-85123991D01*
X124925000Y-85056009D01*
X124792931Y-84392053D01*
X124416830Y-83829179D01*
X124015500Y-83561018D01*
X124015500Y-83436217D01*
X126127405Y-83436217D01*
X126143633Y-84285366D01*
X126437368Y-84994505D01*
X126756123Y-85154272D01*
X128090395Y-83820000D01*
X128449605Y-83820000D01*
X129783877Y-85154272D01*
X130102632Y-84994505D01*
X130412595Y-84203783D01*
X130396367Y-83354634D01*
X130102632Y-82645495D01*
X129783877Y-82485728D01*
X128449605Y-83820000D01*
X128090395Y-83820000D01*
X126756123Y-82485728D01*
X126437368Y-82645495D01*
X126127405Y-83436217D01*
X124015500Y-83436217D01*
X124015500Y-82306123D01*
X126935728Y-82306123D01*
X128270000Y-83640395D01*
X129604272Y-82306123D01*
X129444505Y-81987368D01*
X128653783Y-81677405D01*
X127804634Y-81693633D01*
X127095495Y-81987368D01*
X126935728Y-82306123D01*
X124015500Y-82306123D01*
X124015500Y-81621934D01*
X127461535Y-78175899D01*
X127843485Y-78334499D01*
X128692789Y-78335240D01*
X129477727Y-78010910D01*
X130078800Y-77410886D01*
X130404499Y-76626515D01*
X130405240Y-75777211D01*
X130080910Y-74992273D01*
X129480886Y-74391200D01*
X128696515Y-74065501D01*
X127847211Y-74064760D01*
X127062273Y-74389090D01*
X126461200Y-74989114D01*
X126135501Y-75773485D01*
X126134760Y-76622789D01*
X126294113Y-77008453D01*
X122606283Y-80696283D01*
X122427337Y-80964094D01*
X122427337Y-80964095D01*
X122364500Y-81280000D01*
X122364500Y-83561018D01*
X121963170Y-83829179D01*
X121587069Y-84392053D01*
X121455000Y-85056009D01*
X121455000Y-85123991D01*
X121543526Y-85569041D01*
X120308066Y-86804500D01*
X118069189Y-86804500D01*
X117919147Y-86579946D01*
X117875223Y-86550597D01*
X118049698Y-86478327D01*
X118228327Y-86299699D01*
X118325000Y-86066310D01*
X118325000Y-85375750D01*
X118166250Y-85217000D01*
X116967000Y-85217000D01*
X116967000Y-85237000D01*
X116713000Y-85237000D01*
X116713000Y-85217000D01*
X115513750Y-85217000D01*
X115355000Y-85375750D01*
X115355000Y-86066310D01*
X115451673Y-86299699D01*
X115630302Y-86478327D01*
X115804777Y-86550597D01*
X115760853Y-86579946D01*
X115438946Y-87061715D01*
X115325907Y-87630000D01*
X112470000Y-87630000D01*
X112470000Y-84113690D01*
X115355000Y-84113690D01*
X115355000Y-84804250D01*
X115513750Y-84963000D01*
X116713000Y-84963000D01*
X116713000Y-83763750D01*
X116967000Y-83763750D01*
X116967000Y-84963000D01*
X118166250Y-84963000D01*
X118325000Y-84804250D01*
X118325000Y-84113690D01*
X118228327Y-83880301D01*
X118049698Y-83701673D01*
X117816309Y-83605000D01*
X117125750Y-83605000D01*
X116967000Y-83763750D01*
X116713000Y-83763750D01*
X116554250Y-83605000D01*
X115863691Y-83605000D01*
X115630302Y-83701673D01*
X115451673Y-83880301D01*
X115355000Y-84113690D01*
X112470000Y-84113690D01*
X112470000Y-77252832D01*
X113394811Y-78179259D01*
X114803825Y-78764333D01*
X116329482Y-78765664D01*
X117739515Y-78183050D01*
X118819259Y-77105189D01*
X119404333Y-75696175D01*
X119404752Y-75215750D01*
X121455000Y-75215750D01*
X121455000Y-76156309D01*
X121551673Y-76389698D01*
X121730301Y-76568327D01*
X121963690Y-76665000D01*
X122904250Y-76665000D01*
X123063000Y-76506250D01*
X123063000Y-75057000D01*
X123317000Y-75057000D01*
X123317000Y-76506250D01*
X123475750Y-76665000D01*
X124416310Y-76665000D01*
X124649699Y-76568327D01*
X124828327Y-76389698D01*
X124925000Y-76156309D01*
X124925000Y-75215750D01*
X124766250Y-75057000D01*
X123317000Y-75057000D01*
X123063000Y-75057000D01*
X121613750Y-75057000D01*
X121455000Y-75215750D01*
X119404752Y-75215750D01*
X119405664Y-74170518D01*
X119212775Y-73703691D01*
X121455000Y-73703691D01*
X121455000Y-74644250D01*
X121613750Y-74803000D01*
X123063000Y-74803000D01*
X123063000Y-73353750D01*
X123317000Y-73353750D01*
X123317000Y-74803000D01*
X124766250Y-74803000D01*
X124925000Y-74644250D01*
X124925000Y-73703691D01*
X124828327Y-73470302D01*
X124649699Y-73291673D01*
X124416310Y-73195000D01*
X123475750Y-73195000D01*
X123317000Y-73353750D01*
X123063000Y-73353750D01*
X122904250Y-73195000D01*
X121963690Y-73195000D01*
X121730301Y-73291673D01*
X121551673Y-73470302D01*
X121455000Y-73703691D01*
X119212775Y-73703691D01*
X118823050Y-72760485D01*
X117894188Y-71830000D01*
X138303000Y-71830000D01*
X138303000Y-86307394D01*
X138303000Y-86307394D01*
G37*
X138303000Y-86307394D02*
X131990197Y-92620197D01*
X131962334Y-92662211D01*
X131953000Y-92710000D01*
X131953000Y-119940000D01*
X117892832Y-119940000D01*
X118819259Y-119015189D01*
X119404333Y-117606175D01*
X119405664Y-116080518D01*
X118823050Y-114670485D01*
X117745189Y-113590741D01*
X116336175Y-113005667D01*
X114810518Y-113004336D01*
X113400485Y-113586950D01*
X112470000Y-114515812D01*
X112470000Y-87630000D01*
X115325907Y-87630000D01*
X115438946Y-88198285D01*
X115760853Y-88680054D01*
X116242622Y-89001961D01*
X116810907Y-89115000D01*
X116869093Y-89115000D01*
X117437378Y-89001961D01*
X117919147Y-88680054D01*
X118069189Y-88455500D01*
X120308066Y-88455500D01*
X122364500Y-90511933D01*
X122364500Y-91181018D01*
X121963170Y-91449179D01*
X121587069Y-92012053D01*
X121455000Y-92676009D01*
X121455000Y-92743991D01*
X121543526Y-93189040D01*
X116256283Y-98476283D01*
X116077337Y-98744094D01*
X116077337Y-98744095D01*
X116014500Y-99060000D01*
X116014500Y-99180126D01*
X115656371Y-99537630D01*
X115443243Y-100050900D01*
X115442758Y-100606661D01*
X115654990Y-101120303D01*
X116047630Y-101513629D01*
X116255512Y-101599949D01*
X116049697Y-101684990D01*
X115656371Y-102077630D01*
X115443243Y-102590900D01*
X115442758Y-103146661D01*
X115654990Y-103660303D01*
X116014500Y-104020441D01*
X116014500Y-104260126D01*
X115656371Y-104617630D01*
X115443243Y-105130900D01*
X115442758Y-105686661D01*
X115654990Y-106200303D01*
X116047630Y-106593629D01*
X116560900Y-106806757D01*
X117069767Y-106807201D01*
X121336283Y-111073717D01*
X121604094Y-111252663D01*
X121920000Y-111315501D01*
X121920005Y-111315500D01*
X124500811Y-111315500D01*
X124650853Y-111540054D01*
X125132622Y-111861961D01*
X125700907Y-111975000D01*
X125759093Y-111975000D01*
X126327378Y-111861961D01*
X126809147Y-111540054D01*
X127131054Y-111058285D01*
X127244093Y-110490000D01*
X127131054Y-109921715D01*
X126809147Y-109439946D01*
X126765223Y-109410597D01*
X126939698Y-109338327D01*
X127118327Y-109159699D01*
X127215000Y-108926310D01*
X127215000Y-108235750D01*
X127056250Y-108077000D01*
X125857000Y-108077000D01*
X125857000Y-108097000D01*
X125603000Y-108097000D01*
X125603000Y-108077000D01*
X124403750Y-108077000D01*
X124245000Y-108235750D01*
X124245000Y-108926310D01*
X124341673Y-109159699D01*
X124520302Y-109338327D01*
X124694777Y-109410597D01*
X124650853Y-109439946D01*
X124500811Y-109664500D01*
X122261934Y-109664500D01*
X119571124Y-106973690D01*
X124245000Y-106973690D01*
X124245000Y-107664250D01*
X124403750Y-107823000D01*
X125603000Y-107823000D01*
X125603000Y-106623750D01*
X125857000Y-106623750D01*
X125857000Y-107823000D01*
X127056250Y-107823000D01*
X127215000Y-107664250D01*
X127215000Y-106973690D01*
X127118327Y-106740301D01*
X126939698Y-106561673D01*
X126706309Y-106465000D01*
X126015750Y-106465000D01*
X125857000Y-106623750D01*
X125603000Y-106623750D01*
X125444250Y-106465000D01*
X124753691Y-106465000D01*
X124520302Y-106561673D01*
X124341673Y-106740301D01*
X124245000Y-106973690D01*
X119571124Y-106973690D01*
X118236800Y-105639366D01*
X118237242Y-105133339D01*
X118025010Y-104619697D01*
X117665500Y-104259559D01*
X117665500Y-104019874D01*
X118023629Y-103662370D01*
X118233995Y-103155750D01*
X121455000Y-103155750D01*
X121455000Y-104096309D01*
X121551673Y-104329698D01*
X121730301Y-104508327D01*
X121963690Y-104605000D01*
X122904250Y-104605000D01*
X123063000Y-104446250D01*
X123063000Y-102997000D01*
X123317000Y-102997000D01*
X123317000Y-104446250D01*
X123475750Y-104605000D01*
X124416310Y-104605000D01*
X124649699Y-104508327D01*
X124828327Y-104329698D01*
X124925000Y-104096309D01*
X124925000Y-103155750D01*
X124883127Y-103113877D01*
X126935728Y-103113877D01*
X127095495Y-103432632D01*
X127886217Y-103742595D01*
X128735366Y-103726367D01*
X129444505Y-103432632D01*
X129604272Y-103113877D01*
X128270000Y-101779605D01*
X126935728Y-103113877D01*
X124883127Y-103113877D01*
X124766250Y-102997000D01*
X123317000Y-102997000D01*
X123063000Y-102997000D01*
X121613750Y-102997000D01*
X121455000Y-103155750D01*
X118233995Y-103155750D01*
X118236757Y-103149100D01*
X118237242Y-102593339D01*
X118025010Y-102079697D01*
X117632370Y-101686371D01*
X117529585Y-101643691D01*
X121455000Y-101643691D01*
X121455000Y-102584250D01*
X121613750Y-102743000D01*
X123063000Y-102743000D01*
X123063000Y-101293750D01*
X123317000Y-101293750D01*
X123317000Y-102743000D01*
X124766250Y-102743000D01*
X124925000Y-102584250D01*
X124925000Y-101643691D01*
X124828327Y-101410302D01*
X124649699Y-101231673D01*
X124612385Y-101216217D01*
X126127405Y-101216217D01*
X126143633Y-102065366D01*
X126437368Y-102774505D01*
X126756123Y-102934272D01*
X128090395Y-101600000D01*
X128449605Y-101600000D01*
X129783877Y-102934272D01*
X130102632Y-102774505D01*
X130412595Y-101983783D01*
X130396367Y-101134634D01*
X130102632Y-100425495D01*
X129783877Y-100265728D01*
X128449605Y-101600000D01*
X128090395Y-101600000D01*
X126756123Y-100265728D01*
X126437368Y-100425495D01*
X126127405Y-101216217D01*
X124612385Y-101216217D01*
X124416310Y-101135000D01*
X123475750Y-101135000D01*
X123317000Y-101293750D01*
X123063000Y-101293750D01*
X122904250Y-101135000D01*
X121963690Y-101135000D01*
X121730301Y-101231673D01*
X121551673Y-101410302D01*
X121455000Y-101643691D01*
X117529585Y-101643691D01*
X117424488Y-101600051D01*
X117630303Y-101515010D01*
X118023629Y-101122370D01*
X118236757Y-100609100D01*
X118237213Y-100086123D01*
X126935728Y-100086123D01*
X128270000Y-101420395D01*
X129604272Y-100086123D01*
X129444505Y-99767368D01*
X128653783Y-99457405D01*
X127804634Y-99473633D01*
X127095495Y-99767368D01*
X126935728Y-100086123D01*
X118237213Y-100086123D01*
X118237242Y-100053339D01*
X118025010Y-99539697D01*
X117776591Y-99290843D01*
X122688248Y-94379186D01*
X123190000Y-94478991D01*
X123691753Y-94379186D01*
X123876281Y-94563714D01*
X123876283Y-94563717D01*
X124036824Y-94670987D01*
X124144094Y-94742663D01*
X124460000Y-94805500D01*
X126301157Y-94805500D01*
X126459090Y-95187727D01*
X127059114Y-95788800D01*
X127843485Y-96114499D01*
X128692789Y-96115240D01*
X129477727Y-95790910D01*
X130078800Y-95190886D01*
X130404499Y-94406515D01*
X130405240Y-93557211D01*
X130080910Y-92772273D01*
X129480886Y-92171200D01*
X128696515Y-91845501D01*
X127847211Y-91844760D01*
X127062273Y-92169090D01*
X126461200Y-92769114D01*
X126301174Y-93154500D01*
X124843345Y-93154500D01*
X124925000Y-92743991D01*
X124925000Y-92676009D01*
X124792931Y-92012053D01*
X124416830Y-91449179D01*
X124015500Y-91181018D01*
X124015500Y-90170000D01*
X123952663Y-89854095D01*
X123773717Y-89586283D01*
X123773714Y-89586281D01*
X121817434Y-87630000D01*
X122688247Y-86759186D01*
X123190000Y-86858991D01*
X123853956Y-86726922D01*
X124416830Y-86350821D01*
X124792931Y-85787947D01*
X124883251Y-85333877D01*
X126935728Y-85333877D01*
X127095495Y-85652632D01*
X127886217Y-85962595D01*
X128735366Y-85946367D01*
X129444505Y-85652632D01*
X129604272Y-85333877D01*
X128270000Y-83999605D01*
X126935728Y-85333877D01*
X124883251Y-85333877D01*
X124925000Y-85123991D01*
X124925000Y-85056009D01*
X124792931Y-84392053D01*
X124416830Y-83829179D01*
X124015500Y-83561018D01*
X124015500Y-83436217D01*
X126127405Y-83436217D01*
X126143633Y-84285366D01*
X126437368Y-84994505D01*
X126756123Y-85154272D01*
X128090395Y-83820000D01*
X128449605Y-83820000D01*
X129783877Y-85154272D01*
X130102632Y-84994505D01*
X130412595Y-84203783D01*
X130396367Y-83354634D01*
X130102632Y-82645495D01*
X129783877Y-82485728D01*
X128449605Y-83820000D01*
X128090395Y-83820000D01*
X126756123Y-82485728D01*
X126437368Y-82645495D01*
X126127405Y-83436217D01*
X124015500Y-83436217D01*
X124015500Y-82306123D01*
X126935728Y-82306123D01*
X128270000Y-83640395D01*
X129604272Y-82306123D01*
X129444505Y-81987368D01*
X128653783Y-81677405D01*
X127804634Y-81693633D01*
X127095495Y-81987368D01*
X126935728Y-82306123D01*
X124015500Y-82306123D01*
X124015500Y-81621934D01*
X127461535Y-78175899D01*
X127843485Y-78334499D01*
X128692789Y-78335240D01*
X129477727Y-78010910D01*
X130078800Y-77410886D01*
X130404499Y-76626515D01*
X130405240Y-75777211D01*
X130080910Y-74992273D01*
X129480886Y-74391200D01*
X128696515Y-74065501D01*
X127847211Y-74064760D01*
X127062273Y-74389090D01*
X126461200Y-74989114D01*
X126135501Y-75773485D01*
X126134760Y-76622789D01*
X126294113Y-77008453D01*
X122606283Y-80696283D01*
X122427337Y-80964094D01*
X122427337Y-80964095D01*
X122364500Y-81280000D01*
X122364500Y-83561018D01*
X121963170Y-83829179D01*
X121587069Y-84392053D01*
X121455000Y-85056009D01*
X121455000Y-85123991D01*
X121543526Y-85569041D01*
X120308066Y-86804500D01*
X118069189Y-86804500D01*
X117919147Y-86579946D01*
X117875223Y-86550597D01*
X118049698Y-86478327D01*
X118228327Y-86299699D01*
X118325000Y-86066310D01*
X118325000Y-85375750D01*
X118166250Y-85217000D01*
X116967000Y-85217000D01*
X116967000Y-85237000D01*
X116713000Y-85237000D01*
X116713000Y-85217000D01*
X115513750Y-85217000D01*
X115355000Y-85375750D01*
X115355000Y-86066310D01*
X115451673Y-86299699D01*
X115630302Y-86478327D01*
X115804777Y-86550597D01*
X115760853Y-86579946D01*
X115438946Y-87061715D01*
X115325907Y-87630000D01*
X112470000Y-87630000D01*
X112470000Y-84113690D01*
X115355000Y-84113690D01*
X115355000Y-84804250D01*
X115513750Y-84963000D01*
X116713000Y-84963000D01*
X116713000Y-83763750D01*
X116967000Y-83763750D01*
X116967000Y-84963000D01*
X118166250Y-84963000D01*
X118325000Y-84804250D01*
X118325000Y-84113690D01*
X118228327Y-83880301D01*
X118049698Y-83701673D01*
X117816309Y-83605000D01*
X117125750Y-83605000D01*
X116967000Y-83763750D01*
X116713000Y-83763750D01*
X116554250Y-83605000D01*
X115863691Y-83605000D01*
X115630302Y-83701673D01*
X115451673Y-83880301D01*
X115355000Y-84113690D01*
X112470000Y-84113690D01*
X112470000Y-77252832D01*
X113394811Y-78179259D01*
X114803825Y-78764333D01*
X116329482Y-78765664D01*
X117739515Y-78183050D01*
X118819259Y-77105189D01*
X119404333Y-75696175D01*
X119404752Y-75215750D01*
X121455000Y-75215750D01*
X121455000Y-76156309D01*
X121551673Y-76389698D01*
X121730301Y-76568327D01*
X121963690Y-76665000D01*
X122904250Y-76665000D01*
X123063000Y-76506250D01*
X123063000Y-75057000D01*
X123317000Y-75057000D01*
X123317000Y-76506250D01*
X123475750Y-76665000D01*
X124416310Y-76665000D01*
X124649699Y-76568327D01*
X124828327Y-76389698D01*
X124925000Y-76156309D01*
X124925000Y-75215750D01*
X124766250Y-75057000D01*
X123317000Y-75057000D01*
X123063000Y-75057000D01*
X121613750Y-75057000D01*
X121455000Y-75215750D01*
X119404752Y-75215750D01*
X119405664Y-74170518D01*
X119212775Y-73703691D01*
X121455000Y-73703691D01*
X121455000Y-74644250D01*
X121613750Y-74803000D01*
X123063000Y-74803000D01*
X123063000Y-73353750D01*
X123317000Y-73353750D01*
X123317000Y-74803000D01*
X124766250Y-74803000D01*
X124925000Y-74644250D01*
X124925000Y-73703691D01*
X124828327Y-73470302D01*
X124649699Y-73291673D01*
X124416310Y-73195000D01*
X123475750Y-73195000D01*
X123317000Y-73353750D01*
X123063000Y-73353750D01*
X122904250Y-73195000D01*
X121963690Y-73195000D01*
X121730301Y-73291673D01*
X121551673Y-73470302D01*
X121455000Y-73703691D01*
X119212775Y-73703691D01*
X118823050Y-72760485D01*
X117894188Y-71830000D01*
X138303000Y-71830000D01*
X138303000Y-86307394D01*
M02*
