G04 #@! TF.FileFunction,Legend,Top*
%FSLAX46Y46*%
G04 Gerber Fmt 4.6, Leading zero omitted, Abs format (unit mm)*
G04 Created by KiCad (PCBNEW 4.0.4+e1-6308~48~ubuntu15.10.1-stable) date Tue Jan 24 12:24:32 2017*
%MOMM*%
%LPD*%
G01*
G04 APERTURE LIST*
%ADD10C,0.100000*%
%ADD11C,0.250000*%
%ADD12C,0.120000*%
%ADD13C,0.381000*%
%ADD14C,0.150000*%
%ADD15C,0.304800*%
G04 APERTURE END LIST*
D10*
D11*
X144097619Y-108402381D02*
X144097619Y-107402381D01*
X144669048Y-108402381D01*
X144669048Y-107402381D01*
X145145238Y-108307143D02*
X145192857Y-108354762D01*
X145145238Y-108402381D01*
X145097619Y-108354762D01*
X145145238Y-108307143D01*
X145145238Y-108402381D01*
X145811904Y-107402381D02*
X146002381Y-107402381D01*
X146097619Y-107450000D01*
X146192857Y-107545238D01*
X146240476Y-107735714D01*
X146240476Y-108069048D01*
X146192857Y-108259524D01*
X146097619Y-108354762D01*
X146002381Y-108402381D01*
X145811904Y-108402381D01*
X145716666Y-108354762D01*
X145621428Y-108259524D01*
X145573809Y-108069048D01*
X145573809Y-107735714D01*
X145621428Y-107545238D01*
X145716666Y-107450000D01*
X145811904Y-107402381D01*
X146669047Y-107402381D02*
X146669047Y-108211905D01*
X146716666Y-108307143D01*
X146764285Y-108354762D01*
X146859523Y-108402381D01*
X147050000Y-108402381D01*
X147145238Y-108354762D01*
X147192857Y-108307143D01*
X147240476Y-108211905D01*
X147240476Y-107402381D01*
X147573809Y-107402381D02*
X148145238Y-107402381D01*
X147859523Y-108402381D02*
X147859523Y-107402381D01*
X152384286Y-108402381D02*
X152384286Y-107402381D01*
X152955715Y-108402381D01*
X152955715Y-107402381D01*
X153431905Y-108307143D02*
X153479524Y-108354762D01*
X153431905Y-108402381D01*
X153384286Y-108354762D01*
X153431905Y-108307143D01*
X153431905Y-108402381D01*
X153908095Y-108402381D02*
X153908095Y-107402381D01*
X154384285Y-108402381D02*
X154384285Y-107402381D01*
X154955714Y-108402381D01*
X154955714Y-107402381D01*
X136501429Y-108402381D02*
X136501429Y-107402381D01*
X136882382Y-107402381D01*
X136977620Y-107450000D01*
X137025239Y-107497619D01*
X137072858Y-107592857D01*
X137072858Y-107735714D01*
X137025239Y-107830952D01*
X136977620Y-107878571D01*
X136882382Y-107926190D01*
X136501429Y-107926190D01*
X137501429Y-108307143D02*
X137549048Y-108354762D01*
X137501429Y-108402381D01*
X137453810Y-108354762D01*
X137501429Y-108307143D01*
X137501429Y-108402381D01*
X138168095Y-107402381D02*
X138358572Y-107402381D01*
X138453810Y-107450000D01*
X138549048Y-107545238D01*
X138596667Y-107735714D01*
X138596667Y-108069048D01*
X138549048Y-108259524D01*
X138453810Y-108354762D01*
X138358572Y-108402381D01*
X138168095Y-108402381D01*
X138072857Y-108354762D01*
X137977619Y-108259524D01*
X137930000Y-108069048D01*
X137930000Y-107735714D01*
X137977619Y-107545238D01*
X138072857Y-107450000D01*
X138168095Y-107402381D01*
X139025238Y-107402381D02*
X139025238Y-108211905D01*
X139072857Y-108307143D01*
X139120476Y-108354762D01*
X139215714Y-108402381D01*
X139406191Y-108402381D01*
X139501429Y-108354762D01*
X139549048Y-108307143D01*
X139596667Y-108211905D01*
X139596667Y-107402381D01*
X139930000Y-107402381D02*
X140501429Y-107402381D01*
X140215714Y-108402381D02*
X140215714Y-107402381D01*
X160028096Y-108402381D02*
X160028096Y-107402381D01*
X160409049Y-107402381D01*
X160504287Y-107450000D01*
X160551906Y-107497619D01*
X160599525Y-107592857D01*
X160599525Y-107735714D01*
X160551906Y-107830952D01*
X160504287Y-107878571D01*
X160409049Y-107926190D01*
X160028096Y-107926190D01*
X161028096Y-108307143D02*
X161075715Y-108354762D01*
X161028096Y-108402381D01*
X160980477Y-108354762D01*
X161028096Y-108307143D01*
X161028096Y-108402381D01*
X161504286Y-108402381D02*
X161504286Y-107402381D01*
X161980476Y-108402381D02*
X161980476Y-107402381D01*
X162551905Y-108402381D01*
X162551905Y-107402381D01*
D12*
X124600000Y-77350000D02*
X121780000Y-77350000D01*
X121780000Y-77350000D02*
X121780000Y-82670000D01*
X121780000Y-82670000D02*
X124600000Y-82670000D01*
X124600000Y-82670000D02*
X124600000Y-77350000D01*
X123190000Y-76210000D02*
X123190000Y-77350000D01*
X123190000Y-83810000D02*
X123190000Y-82670000D01*
X124600000Y-78190000D02*
X121780000Y-78190000D01*
D13*
X130810000Y-78740000D02*
X133350000Y-80010000D01*
X132080000Y-82550000D02*
X132080000Y-83820000D01*
X132080000Y-83820000D02*
X130810000Y-83820000D01*
X130810000Y-76200000D02*
X132080000Y-76200000D01*
X132080000Y-76200000D02*
X132080000Y-77470000D01*
X132080000Y-77470000D02*
X133350000Y-77470000D01*
X133350000Y-77470000D02*
X133350000Y-82550000D01*
X133350000Y-82550000D02*
X130810000Y-82550000D01*
X130810000Y-82550000D02*
X130810000Y-77470000D01*
X130810000Y-77470000D02*
X132080000Y-77470000D01*
X125730000Y-73660000D02*
X156210000Y-73660000D01*
X156210000Y-73660000D02*
X156210000Y-86360000D01*
X156210000Y-86360000D02*
X125730000Y-86360000D01*
X125730000Y-86360000D02*
X125730000Y-73660000D01*
X130810000Y-96520000D02*
X133350000Y-97790000D01*
X132080000Y-100330000D02*
X132080000Y-101600000D01*
X132080000Y-101600000D02*
X130810000Y-101600000D01*
X130810000Y-93980000D02*
X132080000Y-93980000D01*
X132080000Y-93980000D02*
X132080000Y-95250000D01*
X132080000Y-95250000D02*
X133350000Y-95250000D01*
X133350000Y-95250000D02*
X133350000Y-100330000D01*
X133350000Y-100330000D02*
X130810000Y-100330000D01*
X130810000Y-100330000D02*
X130810000Y-95250000D01*
X130810000Y-95250000D02*
X132080000Y-95250000D01*
X125730000Y-91440000D02*
X156210000Y-91440000D01*
X156210000Y-91440000D02*
X156210000Y-104140000D01*
X156210000Y-104140000D02*
X125730000Y-104140000D01*
X125730000Y-104140000D02*
X125730000Y-91440000D01*
D12*
X115450000Y-86360000D02*
X115450000Y-89020000D01*
X115450000Y-89020000D02*
X118230000Y-89020000D01*
X118230000Y-89020000D02*
X118230000Y-86360000D01*
X118230000Y-86360000D02*
X115450000Y-86360000D01*
X115450000Y-85090000D02*
X115450000Y-83700000D01*
X115450000Y-83700000D02*
X116840000Y-83700000D01*
D14*
X159385000Y-118110000D02*
X163195000Y-118110000D01*
X159385000Y-119380000D02*
X159385000Y-113030000D01*
X159385000Y-113030000D02*
X163195000Y-113030000D01*
X163195000Y-113030000D02*
X163195000Y-119380000D01*
X151765000Y-118110000D02*
X155575000Y-118110000D01*
X151765000Y-119380000D02*
X151765000Y-113030000D01*
X151765000Y-113030000D02*
X155575000Y-113030000D01*
X155575000Y-113030000D02*
X155575000Y-119380000D01*
X149860000Y-109220000D02*
X149860000Y-119380000D01*
X165100000Y-109220000D02*
X165100000Y-119380000D01*
X165100000Y-111760000D02*
X149860000Y-111760000D01*
X149860000Y-109220000D02*
X165100000Y-109220000D01*
X165100000Y-119380000D02*
X149860000Y-119380000D01*
X144145000Y-118110000D02*
X147955000Y-118110000D01*
X144145000Y-119380000D02*
X144145000Y-113030000D01*
X144145000Y-113030000D02*
X147955000Y-113030000D01*
X147955000Y-113030000D02*
X147955000Y-119380000D01*
X136525000Y-118110000D02*
X140335000Y-118110000D01*
X136525000Y-119380000D02*
X136525000Y-113030000D01*
X136525000Y-113030000D02*
X140335000Y-113030000D01*
X140335000Y-113030000D02*
X140335000Y-119380000D01*
X134620000Y-109220000D02*
X134620000Y-119380000D01*
X149860000Y-109220000D02*
X149860000Y-119380000D01*
X149860000Y-111760000D02*
X134620000Y-111760000D01*
X134620000Y-109220000D02*
X149860000Y-109220000D01*
X149860000Y-119380000D02*
X134620000Y-119380000D01*
X118872000Y-99314000D02*
X117602000Y-99314000D01*
X118122700Y-100101400D02*
X118376700Y-100063300D01*
X118376700Y-100063300D02*
X118656100Y-99885500D01*
X118656100Y-99885500D02*
X118872000Y-99568000D01*
X118872000Y-99568000D02*
X118884700Y-99123500D01*
X118884700Y-99123500D02*
X118681500Y-98767900D01*
X118681500Y-98767900D02*
X118389400Y-98590100D01*
X118389400Y-98590100D02*
X118071900Y-98539300D01*
X118071900Y-98539300D02*
X117665500Y-98640900D01*
X117665500Y-98640900D02*
X117411500Y-98983800D01*
X117411500Y-98983800D02*
X117322600Y-99161600D01*
X115062000Y-107696000D02*
X115062000Y-98044000D01*
X118110000Y-98044000D02*
X119380000Y-98044000D01*
X119380000Y-98044000D02*
X119380000Y-107696000D01*
X119380000Y-107696000D02*
X114300000Y-107696000D01*
X114300000Y-98044000D02*
X116840000Y-98044000D01*
X116840000Y-98044000D02*
X118110000Y-98044000D01*
D12*
X121780000Y-100450000D02*
X124600000Y-100450000D01*
X124600000Y-100450000D02*
X124600000Y-95130000D01*
X124600000Y-95130000D02*
X121780000Y-95130000D01*
X121780000Y-95130000D02*
X121780000Y-100450000D01*
X123190000Y-101590000D02*
X123190000Y-100450000D01*
X123190000Y-93990000D02*
X123190000Y-95130000D01*
X121780000Y-99610000D02*
X124600000Y-99610000D01*
X124340000Y-109220000D02*
X124340000Y-111880000D01*
X124340000Y-111880000D02*
X127120000Y-111880000D01*
X127120000Y-111880000D02*
X127120000Y-109220000D01*
X127120000Y-109220000D02*
X124340000Y-109220000D01*
X124340000Y-107950000D02*
X124340000Y-106560000D01*
X124340000Y-106560000D02*
X125730000Y-106560000D01*
D14*
X121102381Y-81700476D02*
X120102381Y-81700476D01*
X120102381Y-81462381D01*
X120150000Y-81319523D01*
X120245238Y-81224285D01*
X120340476Y-81176666D01*
X120530952Y-81129047D01*
X120673810Y-81129047D01*
X120864286Y-81176666D01*
X120959524Y-81224285D01*
X121054762Y-81319523D01*
X121102381Y-81462381D01*
X121102381Y-81700476D01*
X121102381Y-80176666D02*
X121102381Y-80748095D01*
X121102381Y-80462381D02*
X120102381Y-80462381D01*
X120245238Y-80557619D01*
X120340476Y-80652857D01*
X120388095Y-80748095D01*
X120102381Y-79557619D02*
X120102381Y-79462380D01*
X120150000Y-79367142D01*
X120197619Y-79319523D01*
X120292857Y-79271904D01*
X120483333Y-79224285D01*
X120721429Y-79224285D01*
X120911905Y-79271904D01*
X121007143Y-79319523D01*
X121054762Y-79367142D01*
X121102381Y-79462380D01*
X121102381Y-79557619D01*
X121054762Y-79652857D01*
X121007143Y-79700476D01*
X120911905Y-79748095D01*
X120721429Y-79795714D01*
X120483333Y-79795714D01*
X120292857Y-79748095D01*
X120197619Y-79700476D01*
X120150000Y-79652857D01*
X120102381Y-79557619D01*
X120197619Y-78843333D02*
X120150000Y-78795714D01*
X120102381Y-78700476D01*
X120102381Y-78462380D01*
X120150000Y-78367142D01*
X120197619Y-78319523D01*
X120292857Y-78271904D01*
X120388095Y-78271904D01*
X120530952Y-78319523D01*
X121102381Y-78890952D01*
X121102381Y-78271904D01*
D15*
X157443714Y-80699429D02*
X157443714Y-79175429D01*
X158314571Y-80699429D02*
X157661428Y-79828571D01*
X158314571Y-79175429D02*
X157443714Y-80046286D01*
X159766000Y-80699429D02*
X158895143Y-80699429D01*
X159330571Y-80699429D02*
X159330571Y-79175429D01*
X159185428Y-79393143D01*
X159040286Y-79538286D01*
X158895143Y-79610857D01*
X160709429Y-79175429D02*
X160854572Y-79175429D01*
X160999715Y-79248000D01*
X161072286Y-79320571D01*
X161144857Y-79465714D01*
X161217429Y-79756000D01*
X161217429Y-80118857D01*
X161144857Y-80409143D01*
X161072286Y-80554286D01*
X160999715Y-80626857D01*
X160854572Y-80699429D01*
X160709429Y-80699429D01*
X160564286Y-80626857D01*
X160491715Y-80554286D01*
X160419143Y-80409143D01*
X160346572Y-80118857D01*
X160346572Y-79756000D01*
X160419143Y-79465714D01*
X160491715Y-79320571D01*
X160564286Y-79248000D01*
X160709429Y-79175429D01*
X162668858Y-80699429D02*
X161798001Y-80699429D01*
X162233429Y-80699429D02*
X162233429Y-79175429D01*
X162088286Y-79393143D01*
X161943144Y-79538286D01*
X161798001Y-79610857D01*
X137014856Y-79901143D02*
X136506856Y-79901143D01*
X136506856Y-80699429D02*
X136506856Y-79175429D01*
X137232570Y-79175429D01*
X137813142Y-80699429D02*
X137813142Y-79683429D01*
X137813142Y-79175429D02*
X137740571Y-79248000D01*
X137813142Y-79320571D01*
X137885714Y-79248000D01*
X137813142Y-79175429D01*
X137813142Y-79320571D01*
X138538856Y-79683429D02*
X138538856Y-80699429D01*
X138538856Y-79828571D02*
X138611428Y-79756000D01*
X138756570Y-79683429D01*
X138974285Y-79683429D01*
X139119428Y-79756000D01*
X139191999Y-79901143D01*
X139191999Y-80699429D01*
X140570856Y-80699429D02*
X140570856Y-79175429D01*
X140570856Y-80626857D02*
X140425713Y-80699429D01*
X140135427Y-80699429D01*
X139990285Y-80626857D01*
X139917713Y-80554286D01*
X139845142Y-80409143D01*
X139845142Y-79973714D01*
X139917713Y-79828571D01*
X139990285Y-79756000D01*
X140135427Y-79683429D01*
X140425713Y-79683429D01*
X140570856Y-79756000D01*
X141877142Y-80626857D02*
X141731999Y-80699429D01*
X141441713Y-80699429D01*
X141296570Y-80626857D01*
X141223999Y-80481714D01*
X141223999Y-79901143D01*
X141296570Y-79756000D01*
X141441713Y-79683429D01*
X141731999Y-79683429D01*
X141877142Y-79756000D01*
X141949713Y-79901143D01*
X141949713Y-80046286D01*
X141223999Y-80191429D01*
X142602856Y-80699429D02*
X142602856Y-79683429D01*
X142602856Y-79973714D02*
X142675428Y-79828571D01*
X142747999Y-79756000D01*
X142893142Y-79683429D01*
X143038285Y-79683429D01*
X145360571Y-79683429D02*
X145360571Y-80699429D01*
X144997714Y-79102857D02*
X144634857Y-80191429D01*
X145578285Y-80191429D01*
X146449143Y-79175429D02*
X146594286Y-79175429D01*
X146739429Y-79248000D01*
X146812000Y-79320571D01*
X146884571Y-79465714D01*
X146957143Y-79756000D01*
X146957143Y-80118857D01*
X146884571Y-80409143D01*
X146812000Y-80554286D01*
X146739429Y-80626857D01*
X146594286Y-80699429D01*
X146449143Y-80699429D01*
X146304000Y-80626857D01*
X146231429Y-80554286D01*
X146158857Y-80409143D01*
X146086286Y-80118857D01*
X146086286Y-79756000D01*
X146158857Y-79465714D01*
X146231429Y-79320571D01*
X146304000Y-79248000D01*
X146449143Y-79175429D01*
X147610286Y-80554286D02*
X147682858Y-80626857D01*
X147610286Y-80699429D01*
X147537715Y-80626857D01*
X147610286Y-80554286D01*
X147610286Y-80699429D01*
X148190857Y-79175429D02*
X149134286Y-79175429D01*
X148626286Y-79756000D01*
X148844000Y-79756000D01*
X148989143Y-79828571D01*
X149061714Y-79901143D01*
X149134286Y-80046286D01*
X149134286Y-80409143D01*
X149061714Y-80554286D01*
X148989143Y-80626857D01*
X148844000Y-80699429D01*
X148408572Y-80699429D01*
X148263429Y-80626857D01*
X148190857Y-80554286D01*
X150585715Y-80699429D02*
X149714858Y-80699429D01*
X150150286Y-80699429D02*
X150150286Y-79175429D01*
X150005143Y-79393143D01*
X149860001Y-79538286D01*
X149714858Y-79610857D01*
X157443714Y-98479429D02*
X157443714Y-96955429D01*
X158314571Y-98479429D02*
X157661428Y-97608571D01*
X158314571Y-96955429D02*
X157443714Y-97826286D01*
X159766000Y-98479429D02*
X158895143Y-98479429D01*
X159330571Y-98479429D02*
X159330571Y-96955429D01*
X159185428Y-97173143D01*
X159040286Y-97318286D01*
X158895143Y-97390857D01*
X160709429Y-96955429D02*
X160854572Y-96955429D01*
X160999715Y-97028000D01*
X161072286Y-97100571D01*
X161144857Y-97245714D01*
X161217429Y-97536000D01*
X161217429Y-97898857D01*
X161144857Y-98189143D01*
X161072286Y-98334286D01*
X160999715Y-98406857D01*
X160854572Y-98479429D01*
X160709429Y-98479429D01*
X160564286Y-98406857D01*
X160491715Y-98334286D01*
X160419143Y-98189143D01*
X160346572Y-97898857D01*
X160346572Y-97536000D01*
X160419143Y-97245714D01*
X160491715Y-97100571D01*
X160564286Y-97028000D01*
X160709429Y-96955429D01*
X161798001Y-97100571D02*
X161870572Y-97028000D01*
X162015715Y-96955429D01*
X162378572Y-96955429D01*
X162523715Y-97028000D01*
X162596286Y-97100571D01*
X162668858Y-97245714D01*
X162668858Y-97390857D01*
X162596286Y-97608571D01*
X161725429Y-98479429D01*
X162668858Y-98479429D01*
X137014856Y-97681143D02*
X136506856Y-97681143D01*
X136506856Y-98479429D02*
X136506856Y-96955429D01*
X137232570Y-96955429D01*
X137813142Y-98479429D02*
X137813142Y-97463429D01*
X137813142Y-96955429D02*
X137740571Y-97028000D01*
X137813142Y-97100571D01*
X137885714Y-97028000D01*
X137813142Y-96955429D01*
X137813142Y-97100571D01*
X138538856Y-97463429D02*
X138538856Y-98479429D01*
X138538856Y-97608571D02*
X138611428Y-97536000D01*
X138756570Y-97463429D01*
X138974285Y-97463429D01*
X139119428Y-97536000D01*
X139191999Y-97681143D01*
X139191999Y-98479429D01*
X140570856Y-98479429D02*
X140570856Y-96955429D01*
X140570856Y-98406857D02*
X140425713Y-98479429D01*
X140135427Y-98479429D01*
X139990285Y-98406857D01*
X139917713Y-98334286D01*
X139845142Y-98189143D01*
X139845142Y-97753714D01*
X139917713Y-97608571D01*
X139990285Y-97536000D01*
X140135427Y-97463429D01*
X140425713Y-97463429D01*
X140570856Y-97536000D01*
X141877142Y-98406857D02*
X141731999Y-98479429D01*
X141441713Y-98479429D01*
X141296570Y-98406857D01*
X141223999Y-98261714D01*
X141223999Y-97681143D01*
X141296570Y-97536000D01*
X141441713Y-97463429D01*
X141731999Y-97463429D01*
X141877142Y-97536000D01*
X141949713Y-97681143D01*
X141949713Y-97826286D01*
X141223999Y-97971429D01*
X142602856Y-98479429D02*
X142602856Y-97463429D01*
X142602856Y-97753714D02*
X142675428Y-97608571D01*
X142747999Y-97536000D01*
X142893142Y-97463429D01*
X143038285Y-97463429D01*
X145360571Y-97463429D02*
X145360571Y-98479429D01*
X144997714Y-96882857D02*
X144634857Y-97971429D01*
X145578285Y-97971429D01*
X146449143Y-96955429D02*
X146594286Y-96955429D01*
X146739429Y-97028000D01*
X146812000Y-97100571D01*
X146884571Y-97245714D01*
X146957143Y-97536000D01*
X146957143Y-97898857D01*
X146884571Y-98189143D01*
X146812000Y-98334286D01*
X146739429Y-98406857D01*
X146594286Y-98479429D01*
X146449143Y-98479429D01*
X146304000Y-98406857D01*
X146231429Y-98334286D01*
X146158857Y-98189143D01*
X146086286Y-97898857D01*
X146086286Y-97536000D01*
X146158857Y-97245714D01*
X146231429Y-97100571D01*
X146304000Y-97028000D01*
X146449143Y-96955429D01*
X147610286Y-98334286D02*
X147682858Y-98406857D01*
X147610286Y-98479429D01*
X147537715Y-98406857D01*
X147610286Y-98334286D01*
X147610286Y-98479429D01*
X148190857Y-96955429D02*
X149134286Y-96955429D01*
X148626286Y-97536000D01*
X148844000Y-97536000D01*
X148989143Y-97608571D01*
X149061714Y-97681143D01*
X149134286Y-97826286D01*
X149134286Y-98189143D01*
X149061714Y-98334286D01*
X148989143Y-98406857D01*
X148844000Y-98479429D01*
X148408572Y-98479429D01*
X148263429Y-98406857D01*
X148190857Y-98334286D01*
X150585715Y-98479429D02*
X149714858Y-98479429D01*
X150150286Y-98479429D02*
X150150286Y-96955429D01*
X150005143Y-97173143D01*
X149860001Y-97318286D01*
X149714858Y-97390857D01*
D14*
X115149524Y-83152381D02*
X115149524Y-82152381D01*
X115530477Y-82152381D01*
X115625715Y-82200000D01*
X115673334Y-82247619D01*
X115720953Y-82342857D01*
X115720953Y-82485714D01*
X115673334Y-82580952D01*
X115625715Y-82628571D01*
X115530477Y-82676190D01*
X115149524Y-82676190D01*
X116673334Y-83152381D02*
X116101905Y-83152381D01*
X116387619Y-83152381D02*
X116387619Y-82152381D01*
X116292381Y-82295238D01*
X116197143Y-82390476D01*
X116101905Y-82438095D01*
X117292381Y-82152381D02*
X117387620Y-82152381D01*
X117482858Y-82200000D01*
X117530477Y-82247619D01*
X117578096Y-82342857D01*
X117625715Y-82533333D01*
X117625715Y-82771429D01*
X117578096Y-82961905D01*
X117530477Y-83057143D01*
X117482858Y-83104762D01*
X117387620Y-83152381D01*
X117292381Y-83152381D01*
X117197143Y-83104762D01*
X117149524Y-83057143D01*
X117101905Y-82961905D01*
X117054286Y-82771429D01*
X117054286Y-82533333D01*
X117101905Y-82342857D01*
X117149524Y-82247619D01*
X117197143Y-82200000D01*
X117292381Y-82152381D01*
X118578096Y-83152381D02*
X118006667Y-83152381D01*
X118292381Y-83152381D02*
X118292381Y-82152381D01*
X118197143Y-82295238D01*
X118101905Y-82390476D01*
X118006667Y-82438095D01*
X155789524Y-107132381D02*
X155789524Y-106132381D01*
X156170477Y-106132381D01*
X156265715Y-106180000D01*
X156313334Y-106227619D01*
X156360953Y-106322857D01*
X156360953Y-106465714D01*
X156313334Y-106560952D01*
X156265715Y-106608571D01*
X156170477Y-106656190D01*
X155789524Y-106656190D01*
X157313334Y-107132381D02*
X156741905Y-107132381D01*
X157027619Y-107132381D02*
X157027619Y-106132381D01*
X156932381Y-106275238D01*
X156837143Y-106370476D01*
X156741905Y-106418095D01*
X157932381Y-106132381D02*
X158027620Y-106132381D01*
X158122858Y-106180000D01*
X158170477Y-106227619D01*
X158218096Y-106322857D01*
X158265715Y-106513333D01*
X158265715Y-106751429D01*
X158218096Y-106941905D01*
X158170477Y-107037143D01*
X158122858Y-107084762D01*
X158027620Y-107132381D01*
X157932381Y-107132381D01*
X157837143Y-107084762D01*
X157789524Y-107037143D01*
X157741905Y-106941905D01*
X157694286Y-106751429D01*
X157694286Y-106513333D01*
X157741905Y-106322857D01*
X157789524Y-106227619D01*
X157837143Y-106180000D01*
X157932381Y-106132381D01*
X158646667Y-106227619D02*
X158694286Y-106180000D01*
X158789524Y-106132381D01*
X159027620Y-106132381D01*
X159122858Y-106180000D01*
X159170477Y-106227619D01*
X159218096Y-106322857D01*
X159218096Y-106418095D01*
X159170477Y-106560952D01*
X158599048Y-107132381D01*
X159218096Y-107132381D01*
X155360953Y-110847143D02*
X155313334Y-110894762D01*
X155170477Y-110942381D01*
X155075239Y-110942381D01*
X154932381Y-110894762D01*
X154837143Y-110799524D01*
X154789524Y-110704286D01*
X154741905Y-110513810D01*
X154741905Y-110370952D01*
X154789524Y-110180476D01*
X154837143Y-110085238D01*
X154932381Y-109990000D01*
X155075239Y-109942381D01*
X155170477Y-109942381D01*
X155313334Y-109990000D01*
X155360953Y-110037619D01*
X155980000Y-109942381D02*
X156170477Y-109942381D01*
X156265715Y-109990000D01*
X156360953Y-110085238D01*
X156408572Y-110275714D01*
X156408572Y-110609048D01*
X156360953Y-110799524D01*
X156265715Y-110894762D01*
X156170477Y-110942381D01*
X155980000Y-110942381D01*
X155884762Y-110894762D01*
X155789524Y-110799524D01*
X155741905Y-110609048D01*
X155741905Y-110275714D01*
X155789524Y-110085238D01*
X155884762Y-109990000D01*
X155980000Y-109942381D01*
X156837143Y-110942381D02*
X156837143Y-109942381D01*
X157408572Y-110942381D01*
X157408572Y-109942381D01*
X157884762Y-110942381D02*
X157884762Y-109942381D01*
X158456191Y-110942381D01*
X158456191Y-109942381D01*
X158694286Y-111037619D02*
X159456191Y-111037619D01*
X159646667Y-110037619D02*
X159694286Y-109990000D01*
X159789524Y-109942381D01*
X160027620Y-109942381D01*
X160122858Y-109990000D01*
X160170477Y-110037619D01*
X160218096Y-110132857D01*
X160218096Y-110228095D01*
X160170477Y-110370952D01*
X159599048Y-110942381D01*
X160218096Y-110942381D01*
X140549524Y-107132381D02*
X140549524Y-106132381D01*
X140930477Y-106132381D01*
X141025715Y-106180000D01*
X141073334Y-106227619D01*
X141120953Y-106322857D01*
X141120953Y-106465714D01*
X141073334Y-106560952D01*
X141025715Y-106608571D01*
X140930477Y-106656190D01*
X140549524Y-106656190D01*
X142073334Y-107132381D02*
X141501905Y-107132381D01*
X141787619Y-107132381D02*
X141787619Y-106132381D01*
X141692381Y-106275238D01*
X141597143Y-106370476D01*
X141501905Y-106418095D01*
X142692381Y-106132381D02*
X142787620Y-106132381D01*
X142882858Y-106180000D01*
X142930477Y-106227619D01*
X142978096Y-106322857D01*
X143025715Y-106513333D01*
X143025715Y-106751429D01*
X142978096Y-106941905D01*
X142930477Y-107037143D01*
X142882858Y-107084762D01*
X142787620Y-107132381D01*
X142692381Y-107132381D01*
X142597143Y-107084762D01*
X142549524Y-107037143D01*
X142501905Y-106941905D01*
X142454286Y-106751429D01*
X142454286Y-106513333D01*
X142501905Y-106322857D01*
X142549524Y-106227619D01*
X142597143Y-106180000D01*
X142692381Y-106132381D01*
X143359048Y-106132381D02*
X143978096Y-106132381D01*
X143644762Y-106513333D01*
X143787620Y-106513333D01*
X143882858Y-106560952D01*
X143930477Y-106608571D01*
X143978096Y-106703810D01*
X143978096Y-106941905D01*
X143930477Y-107037143D01*
X143882858Y-107084762D01*
X143787620Y-107132381D01*
X143501905Y-107132381D01*
X143406667Y-107084762D01*
X143359048Y-107037143D01*
X140120953Y-110847143D02*
X140073334Y-110894762D01*
X139930477Y-110942381D01*
X139835239Y-110942381D01*
X139692381Y-110894762D01*
X139597143Y-110799524D01*
X139549524Y-110704286D01*
X139501905Y-110513810D01*
X139501905Y-110370952D01*
X139549524Y-110180476D01*
X139597143Y-110085238D01*
X139692381Y-109990000D01*
X139835239Y-109942381D01*
X139930477Y-109942381D01*
X140073334Y-109990000D01*
X140120953Y-110037619D01*
X140740000Y-109942381D02*
X140930477Y-109942381D01*
X141025715Y-109990000D01*
X141120953Y-110085238D01*
X141168572Y-110275714D01*
X141168572Y-110609048D01*
X141120953Y-110799524D01*
X141025715Y-110894762D01*
X140930477Y-110942381D01*
X140740000Y-110942381D01*
X140644762Y-110894762D01*
X140549524Y-110799524D01*
X140501905Y-110609048D01*
X140501905Y-110275714D01*
X140549524Y-110085238D01*
X140644762Y-109990000D01*
X140740000Y-109942381D01*
X141597143Y-110942381D02*
X141597143Y-109942381D01*
X142168572Y-110942381D01*
X142168572Y-109942381D01*
X142644762Y-110942381D02*
X142644762Y-109942381D01*
X143216191Y-110942381D01*
X143216191Y-109942381D01*
X143454286Y-111037619D02*
X144216191Y-111037619D01*
X144406667Y-110037619D02*
X144454286Y-109990000D01*
X144549524Y-109942381D01*
X144787620Y-109942381D01*
X144882858Y-109990000D01*
X144930477Y-110037619D01*
X144978096Y-110132857D01*
X144978096Y-110228095D01*
X144930477Y-110370952D01*
X144359048Y-110942381D01*
X144978096Y-110942381D01*
X115292381Y-96972381D02*
X114959047Y-96496190D01*
X114720952Y-96972381D02*
X114720952Y-95972381D01*
X115101905Y-95972381D01*
X115197143Y-96020000D01*
X115244762Y-96067619D01*
X115292381Y-96162857D01*
X115292381Y-96305714D01*
X115244762Y-96400952D01*
X115197143Y-96448571D01*
X115101905Y-96496190D01*
X114720952Y-96496190D01*
X115578095Y-95972381D02*
X115911428Y-96972381D01*
X116244762Y-95972381D01*
X117101905Y-96972381D02*
X116530476Y-96972381D01*
X116816190Y-96972381D02*
X116816190Y-95972381D01*
X116720952Y-96115238D01*
X116625714Y-96210476D01*
X116530476Y-96258095D01*
X117720952Y-95972381D02*
X117816191Y-95972381D01*
X117911429Y-96020000D01*
X117959048Y-96067619D01*
X118006667Y-96162857D01*
X118054286Y-96353333D01*
X118054286Y-96591429D01*
X118006667Y-96781905D01*
X117959048Y-96877143D01*
X117911429Y-96924762D01*
X117816191Y-96972381D01*
X117720952Y-96972381D01*
X117625714Y-96924762D01*
X117578095Y-96877143D01*
X117530476Y-96781905D01*
X117482857Y-96591429D01*
X117482857Y-96353333D01*
X117530476Y-96162857D01*
X117578095Y-96067619D01*
X117625714Y-96020000D01*
X117720952Y-95972381D01*
X119006667Y-96972381D02*
X118435238Y-96972381D01*
X118720952Y-96972381D02*
X118720952Y-95972381D01*
X118625714Y-96115238D01*
X118530476Y-96210476D01*
X118435238Y-96258095D01*
X121232381Y-99480476D02*
X120232381Y-99480476D01*
X120232381Y-99242381D01*
X120280000Y-99099523D01*
X120375238Y-99004285D01*
X120470476Y-98956666D01*
X120660952Y-98909047D01*
X120803810Y-98909047D01*
X120994286Y-98956666D01*
X121089524Y-99004285D01*
X121184762Y-99099523D01*
X121232381Y-99242381D01*
X121232381Y-99480476D01*
X121232381Y-97956666D02*
X121232381Y-98528095D01*
X121232381Y-98242381D02*
X120232381Y-98242381D01*
X120375238Y-98337619D01*
X120470476Y-98432857D01*
X120518095Y-98528095D01*
X120232381Y-97337619D02*
X120232381Y-97242380D01*
X120280000Y-97147142D01*
X120327619Y-97099523D01*
X120422857Y-97051904D01*
X120613333Y-97004285D01*
X120851429Y-97004285D01*
X121041905Y-97051904D01*
X121137143Y-97099523D01*
X121184762Y-97147142D01*
X121232381Y-97242380D01*
X121232381Y-97337619D01*
X121184762Y-97432857D01*
X121137143Y-97480476D01*
X121041905Y-97528095D01*
X120851429Y-97575714D01*
X120613333Y-97575714D01*
X120422857Y-97528095D01*
X120327619Y-97480476D01*
X120280000Y-97432857D01*
X120232381Y-97337619D01*
X121232381Y-96051904D02*
X121232381Y-96623333D01*
X121232381Y-96337619D02*
X120232381Y-96337619D01*
X120375238Y-96432857D01*
X120470476Y-96528095D01*
X120518095Y-96623333D01*
X124039524Y-106012381D02*
X124039524Y-105012381D01*
X124420477Y-105012381D01*
X124515715Y-105060000D01*
X124563334Y-105107619D01*
X124610953Y-105202857D01*
X124610953Y-105345714D01*
X124563334Y-105440952D01*
X124515715Y-105488571D01*
X124420477Y-105536190D01*
X124039524Y-105536190D01*
X125563334Y-106012381D02*
X124991905Y-106012381D01*
X125277619Y-106012381D02*
X125277619Y-105012381D01*
X125182381Y-105155238D01*
X125087143Y-105250476D01*
X124991905Y-105298095D01*
X126182381Y-105012381D02*
X126277620Y-105012381D01*
X126372858Y-105060000D01*
X126420477Y-105107619D01*
X126468096Y-105202857D01*
X126515715Y-105393333D01*
X126515715Y-105631429D01*
X126468096Y-105821905D01*
X126420477Y-105917143D01*
X126372858Y-105964762D01*
X126277620Y-106012381D01*
X126182381Y-106012381D01*
X126087143Y-105964762D01*
X126039524Y-105917143D01*
X125991905Y-105821905D01*
X125944286Y-105631429D01*
X125944286Y-105393333D01*
X125991905Y-105202857D01*
X126039524Y-105107619D01*
X126087143Y-105060000D01*
X126182381Y-105012381D01*
X127372858Y-105345714D02*
X127372858Y-106012381D01*
X127134762Y-104964762D02*
X126896667Y-105679048D01*
X127515715Y-105679048D01*
M02*
