G04 #@! TF.FileFunction,Legend,Top*
%FSLAX46Y46*%
G04 Gerber Fmt 4.6, Leading zero omitted, Abs format (unit mm)*
G04 Created by KiCad (PCBNEW 4.0.4+e1-6308~48~ubuntu15.10.1-stable) date Tue Feb  7 13:57:11 2017*
%MOMM*%
%LPD*%
G01*
G04 APERTURE LIST*
%ADD10C,0.100000*%
%ADD11C,0.250000*%
%ADD12C,0.120000*%
%ADD13C,0.150000*%
%ADD14C,0.381000*%
%ADD15C,0.304800*%
G04 APERTURE END LIST*
D10*
D11*
X144097619Y-108402381D02*
X144097619Y-107402381D01*
X144669048Y-108402381D01*
X144669048Y-107402381D01*
X145145238Y-108307143D02*
X145192857Y-108354762D01*
X145145238Y-108402381D01*
X145097619Y-108354762D01*
X145145238Y-108307143D01*
X145145238Y-108402381D01*
X145811904Y-107402381D02*
X146002381Y-107402381D01*
X146097619Y-107450000D01*
X146192857Y-107545238D01*
X146240476Y-107735714D01*
X146240476Y-108069048D01*
X146192857Y-108259524D01*
X146097619Y-108354762D01*
X146002381Y-108402381D01*
X145811904Y-108402381D01*
X145716666Y-108354762D01*
X145621428Y-108259524D01*
X145573809Y-108069048D01*
X145573809Y-107735714D01*
X145621428Y-107545238D01*
X145716666Y-107450000D01*
X145811904Y-107402381D01*
X146669047Y-107402381D02*
X146669047Y-108211905D01*
X146716666Y-108307143D01*
X146764285Y-108354762D01*
X146859523Y-108402381D01*
X147050000Y-108402381D01*
X147145238Y-108354762D01*
X147192857Y-108307143D01*
X147240476Y-108211905D01*
X147240476Y-107402381D01*
X147573809Y-107402381D02*
X148145238Y-107402381D01*
X147859523Y-108402381D02*
X147859523Y-107402381D01*
X152384286Y-108402381D02*
X152384286Y-107402381D01*
X152955715Y-108402381D01*
X152955715Y-107402381D01*
X153431905Y-108307143D02*
X153479524Y-108354762D01*
X153431905Y-108402381D01*
X153384286Y-108354762D01*
X153431905Y-108307143D01*
X153431905Y-108402381D01*
X153908095Y-108402381D02*
X153908095Y-107402381D01*
X154384285Y-108402381D02*
X154384285Y-107402381D01*
X154955714Y-108402381D01*
X154955714Y-107402381D01*
X136501429Y-108402381D02*
X136501429Y-107402381D01*
X136882382Y-107402381D01*
X136977620Y-107450000D01*
X137025239Y-107497619D01*
X137072858Y-107592857D01*
X137072858Y-107735714D01*
X137025239Y-107830952D01*
X136977620Y-107878571D01*
X136882382Y-107926190D01*
X136501429Y-107926190D01*
X137501429Y-108307143D02*
X137549048Y-108354762D01*
X137501429Y-108402381D01*
X137453810Y-108354762D01*
X137501429Y-108307143D01*
X137501429Y-108402381D01*
X138168095Y-107402381D02*
X138358572Y-107402381D01*
X138453810Y-107450000D01*
X138549048Y-107545238D01*
X138596667Y-107735714D01*
X138596667Y-108069048D01*
X138549048Y-108259524D01*
X138453810Y-108354762D01*
X138358572Y-108402381D01*
X138168095Y-108402381D01*
X138072857Y-108354762D01*
X137977619Y-108259524D01*
X137930000Y-108069048D01*
X137930000Y-107735714D01*
X137977619Y-107545238D01*
X138072857Y-107450000D01*
X138168095Y-107402381D01*
X139025238Y-107402381D02*
X139025238Y-108211905D01*
X139072857Y-108307143D01*
X139120476Y-108354762D01*
X139215714Y-108402381D01*
X139406191Y-108402381D01*
X139501429Y-108354762D01*
X139549048Y-108307143D01*
X139596667Y-108211905D01*
X139596667Y-107402381D01*
X139930000Y-107402381D02*
X140501429Y-107402381D01*
X140215714Y-108402381D02*
X140215714Y-107402381D01*
X160028096Y-108402381D02*
X160028096Y-107402381D01*
X160409049Y-107402381D01*
X160504287Y-107450000D01*
X160551906Y-107497619D01*
X160599525Y-107592857D01*
X160599525Y-107735714D01*
X160551906Y-107830952D01*
X160504287Y-107878571D01*
X160409049Y-107926190D01*
X160028096Y-107926190D01*
X161028096Y-108307143D02*
X161075715Y-108354762D01*
X161028096Y-108402381D01*
X160980477Y-108354762D01*
X161028096Y-108307143D01*
X161028096Y-108402381D01*
X161504286Y-108402381D02*
X161504286Y-107402381D01*
X161980476Y-108402381D02*
X161980476Y-107402381D01*
X162551905Y-108402381D01*
X162551905Y-107402381D01*
D12*
X115450000Y-86360000D02*
X115450000Y-89020000D01*
X115450000Y-89020000D02*
X118230000Y-89020000D01*
X118230000Y-89020000D02*
X118230000Y-86360000D01*
X118230000Y-86360000D02*
X115450000Y-86360000D01*
X115450000Y-85090000D02*
X115450000Y-83700000D01*
X115450000Y-83700000D02*
X116840000Y-83700000D01*
D13*
X118872000Y-99314000D02*
X117602000Y-99314000D01*
X118122700Y-100101400D02*
X118376700Y-100063300D01*
X118376700Y-100063300D02*
X118656100Y-99885500D01*
X118656100Y-99885500D02*
X118872000Y-99568000D01*
X118872000Y-99568000D02*
X118884700Y-99123500D01*
X118884700Y-99123500D02*
X118681500Y-98767900D01*
X118681500Y-98767900D02*
X118389400Y-98590100D01*
X118389400Y-98590100D02*
X118071900Y-98539300D01*
X118071900Y-98539300D02*
X117665500Y-98640900D01*
X117665500Y-98640900D02*
X117411500Y-98983800D01*
X117411500Y-98983800D02*
X117322600Y-99161600D01*
X115062000Y-107696000D02*
X115062000Y-98044000D01*
X118110000Y-98044000D02*
X119380000Y-98044000D01*
X119380000Y-98044000D02*
X119380000Y-107696000D01*
X119380000Y-107696000D02*
X114300000Y-107696000D01*
X114300000Y-98044000D02*
X116840000Y-98044000D01*
X116840000Y-98044000D02*
X118110000Y-98044000D01*
D12*
X124340000Y-109220000D02*
X124340000Y-111880000D01*
X124340000Y-111880000D02*
X127120000Y-111880000D01*
X127120000Y-111880000D02*
X127120000Y-109220000D01*
X127120000Y-109220000D02*
X124340000Y-109220000D01*
X124340000Y-107950000D02*
X124340000Y-106560000D01*
X124340000Y-106560000D02*
X125730000Y-106560000D01*
X122130000Y-99850000D02*
X124250000Y-99850000D01*
X124250000Y-99850000D02*
X124250000Y-95730000D01*
X124250000Y-95730000D02*
X122130000Y-95730000D01*
X122130000Y-95730000D02*
X122130000Y-99850000D01*
X123190000Y-101890000D02*
X123190000Y-99850000D01*
X123190000Y-93690000D02*
X123190000Y-95730000D01*
X122130000Y-99190000D02*
X124250000Y-99190000D01*
X124250000Y-77950000D02*
X122130000Y-77950000D01*
X122130000Y-77950000D02*
X122130000Y-82070000D01*
X122130000Y-82070000D02*
X124250000Y-82070000D01*
X124250000Y-82070000D02*
X124250000Y-77950000D01*
X123190000Y-75910000D02*
X123190000Y-77950000D01*
X123190000Y-84110000D02*
X123190000Y-82070000D01*
X124250000Y-78610000D02*
X122130000Y-78610000D01*
D14*
X130810000Y-78740000D02*
X133350000Y-80010000D01*
X132080000Y-82550000D02*
X132080000Y-83820000D01*
X132080000Y-83820000D02*
X130810000Y-83820000D01*
X130810000Y-76200000D02*
X132080000Y-76200000D01*
X132080000Y-76200000D02*
X132080000Y-77470000D01*
X132080000Y-77470000D02*
X133350000Y-77470000D01*
X133350000Y-77470000D02*
X133350000Y-82550000D01*
X133350000Y-82550000D02*
X130810000Y-82550000D01*
X130810000Y-82550000D02*
X130810000Y-77470000D01*
X130810000Y-77470000D02*
X132080000Y-77470000D01*
X125730000Y-73660000D02*
X156210000Y-73660000D01*
X156210000Y-73660000D02*
X156210000Y-86360000D01*
X156210000Y-86360000D02*
X125730000Y-86360000D01*
X125730000Y-86360000D02*
X125730000Y-73660000D01*
X130810000Y-96520000D02*
X133350000Y-97790000D01*
X132080000Y-100330000D02*
X132080000Y-101600000D01*
X132080000Y-101600000D02*
X130810000Y-101600000D01*
X130810000Y-93980000D02*
X132080000Y-93980000D01*
X132080000Y-93980000D02*
X132080000Y-95250000D01*
X132080000Y-95250000D02*
X133350000Y-95250000D01*
X133350000Y-95250000D02*
X133350000Y-100330000D01*
X133350000Y-100330000D02*
X130810000Y-100330000D01*
X130810000Y-100330000D02*
X130810000Y-95250000D01*
X130810000Y-95250000D02*
X132080000Y-95250000D01*
X125730000Y-91440000D02*
X156210000Y-91440000D01*
X156210000Y-91440000D02*
X156210000Y-104140000D01*
X156210000Y-104140000D02*
X125730000Y-104140000D01*
X125730000Y-104140000D02*
X125730000Y-91440000D01*
D13*
X159385000Y-118110000D02*
X163195000Y-118110000D01*
X159385000Y-119380000D02*
X159385000Y-113030000D01*
X159385000Y-113030000D02*
X163195000Y-113030000D01*
X163195000Y-113030000D02*
X163195000Y-119380000D01*
X151765000Y-118110000D02*
X155575000Y-118110000D01*
X151765000Y-119380000D02*
X151765000Y-113030000D01*
X151765000Y-113030000D02*
X155575000Y-113030000D01*
X155575000Y-113030000D02*
X155575000Y-119380000D01*
X149860000Y-109220000D02*
X149860000Y-119380000D01*
X165100000Y-109220000D02*
X165100000Y-119380000D01*
X165100000Y-111760000D02*
X149860000Y-111760000D01*
X149860000Y-109220000D02*
X165100000Y-109220000D01*
X165100000Y-119380000D02*
X149860000Y-119380000D01*
X144145000Y-118110000D02*
X147955000Y-118110000D01*
X144145000Y-119380000D02*
X144145000Y-113030000D01*
X144145000Y-113030000D02*
X147955000Y-113030000D01*
X147955000Y-113030000D02*
X147955000Y-119380000D01*
X136525000Y-118110000D02*
X140335000Y-118110000D01*
X136525000Y-119380000D02*
X136525000Y-113030000D01*
X136525000Y-113030000D02*
X140335000Y-113030000D01*
X140335000Y-113030000D02*
X140335000Y-119380000D01*
X134620000Y-109220000D02*
X134620000Y-119380000D01*
X149860000Y-109220000D02*
X149860000Y-119380000D01*
X149860000Y-111760000D02*
X134620000Y-111760000D01*
X134620000Y-109220000D02*
X149860000Y-109220000D01*
X149860000Y-119380000D02*
X134620000Y-119380000D01*
X115149524Y-83152381D02*
X115149524Y-82152381D01*
X115530477Y-82152381D01*
X115625715Y-82200000D01*
X115673334Y-82247619D01*
X115720953Y-82342857D01*
X115720953Y-82485714D01*
X115673334Y-82580952D01*
X115625715Y-82628571D01*
X115530477Y-82676190D01*
X115149524Y-82676190D01*
X116673334Y-83152381D02*
X116101905Y-83152381D01*
X116387619Y-83152381D02*
X116387619Y-82152381D01*
X116292381Y-82295238D01*
X116197143Y-82390476D01*
X116101905Y-82438095D01*
X117292381Y-82152381D02*
X117387620Y-82152381D01*
X117482858Y-82200000D01*
X117530477Y-82247619D01*
X117578096Y-82342857D01*
X117625715Y-82533333D01*
X117625715Y-82771429D01*
X117578096Y-82961905D01*
X117530477Y-83057143D01*
X117482858Y-83104762D01*
X117387620Y-83152381D01*
X117292381Y-83152381D01*
X117197143Y-83104762D01*
X117149524Y-83057143D01*
X117101905Y-82961905D01*
X117054286Y-82771429D01*
X117054286Y-82533333D01*
X117101905Y-82342857D01*
X117149524Y-82247619D01*
X117197143Y-82200000D01*
X117292381Y-82152381D01*
X118578096Y-83152381D02*
X118006667Y-83152381D01*
X118292381Y-83152381D02*
X118292381Y-82152381D01*
X118197143Y-82295238D01*
X118101905Y-82390476D01*
X118006667Y-82438095D01*
X115292381Y-96972381D02*
X114959047Y-96496190D01*
X114720952Y-96972381D02*
X114720952Y-95972381D01*
X115101905Y-95972381D01*
X115197143Y-96020000D01*
X115244762Y-96067619D01*
X115292381Y-96162857D01*
X115292381Y-96305714D01*
X115244762Y-96400952D01*
X115197143Y-96448571D01*
X115101905Y-96496190D01*
X114720952Y-96496190D01*
X115578095Y-95972381D02*
X115911428Y-96972381D01*
X116244762Y-95972381D01*
X117101905Y-96972381D02*
X116530476Y-96972381D01*
X116816190Y-96972381D02*
X116816190Y-95972381D01*
X116720952Y-96115238D01*
X116625714Y-96210476D01*
X116530476Y-96258095D01*
X117720952Y-95972381D02*
X117816191Y-95972381D01*
X117911429Y-96020000D01*
X117959048Y-96067619D01*
X118006667Y-96162857D01*
X118054286Y-96353333D01*
X118054286Y-96591429D01*
X118006667Y-96781905D01*
X117959048Y-96877143D01*
X117911429Y-96924762D01*
X117816191Y-96972381D01*
X117720952Y-96972381D01*
X117625714Y-96924762D01*
X117578095Y-96877143D01*
X117530476Y-96781905D01*
X117482857Y-96591429D01*
X117482857Y-96353333D01*
X117530476Y-96162857D01*
X117578095Y-96067619D01*
X117625714Y-96020000D01*
X117720952Y-95972381D01*
X119006667Y-96972381D02*
X118435238Y-96972381D01*
X118720952Y-96972381D02*
X118720952Y-95972381D01*
X118625714Y-96115238D01*
X118530476Y-96210476D01*
X118435238Y-96258095D01*
X124039524Y-106012381D02*
X124039524Y-105012381D01*
X124420477Y-105012381D01*
X124515715Y-105060000D01*
X124563334Y-105107619D01*
X124610953Y-105202857D01*
X124610953Y-105345714D01*
X124563334Y-105440952D01*
X124515715Y-105488571D01*
X124420477Y-105536190D01*
X124039524Y-105536190D01*
X125563334Y-106012381D02*
X124991905Y-106012381D01*
X125277619Y-106012381D02*
X125277619Y-105012381D01*
X125182381Y-105155238D01*
X125087143Y-105250476D01*
X124991905Y-105298095D01*
X126182381Y-105012381D02*
X126277620Y-105012381D01*
X126372858Y-105060000D01*
X126420477Y-105107619D01*
X126468096Y-105202857D01*
X126515715Y-105393333D01*
X126515715Y-105631429D01*
X126468096Y-105821905D01*
X126420477Y-105917143D01*
X126372858Y-105964762D01*
X126277620Y-106012381D01*
X126182381Y-106012381D01*
X126087143Y-105964762D01*
X126039524Y-105917143D01*
X125991905Y-105821905D01*
X125944286Y-105631429D01*
X125944286Y-105393333D01*
X125991905Y-105202857D01*
X126039524Y-105107619D01*
X126087143Y-105060000D01*
X126182381Y-105012381D01*
X127372858Y-105345714D02*
X127372858Y-106012381D01*
X127134762Y-104964762D02*
X126896667Y-105679048D01*
X127515715Y-105679048D01*
X121582381Y-99480476D02*
X120582381Y-99480476D01*
X120582381Y-99242381D01*
X120630000Y-99099523D01*
X120725238Y-99004285D01*
X120820476Y-98956666D01*
X121010952Y-98909047D01*
X121153810Y-98909047D01*
X121344286Y-98956666D01*
X121439524Y-99004285D01*
X121534762Y-99099523D01*
X121582381Y-99242381D01*
X121582381Y-99480476D01*
X121582381Y-97956666D02*
X121582381Y-98528095D01*
X121582381Y-98242381D02*
X120582381Y-98242381D01*
X120725238Y-98337619D01*
X120820476Y-98432857D01*
X120868095Y-98528095D01*
X120582381Y-97337619D02*
X120582381Y-97242380D01*
X120630000Y-97147142D01*
X120677619Y-97099523D01*
X120772857Y-97051904D01*
X120963333Y-97004285D01*
X121201429Y-97004285D01*
X121391905Y-97051904D01*
X121487143Y-97099523D01*
X121534762Y-97147142D01*
X121582381Y-97242380D01*
X121582381Y-97337619D01*
X121534762Y-97432857D01*
X121487143Y-97480476D01*
X121391905Y-97528095D01*
X121201429Y-97575714D01*
X120963333Y-97575714D01*
X120772857Y-97528095D01*
X120677619Y-97480476D01*
X120630000Y-97432857D01*
X120582381Y-97337619D01*
X121582381Y-96051904D02*
X121582381Y-96623333D01*
X121582381Y-96337619D02*
X120582381Y-96337619D01*
X120725238Y-96432857D01*
X120820476Y-96528095D01*
X120868095Y-96623333D01*
X125702381Y-81700476D02*
X124702381Y-81700476D01*
X124702381Y-81462381D01*
X124750000Y-81319523D01*
X124845238Y-81224285D01*
X124940476Y-81176666D01*
X125130952Y-81129047D01*
X125273810Y-81129047D01*
X125464286Y-81176666D01*
X125559524Y-81224285D01*
X125654762Y-81319523D01*
X125702381Y-81462381D01*
X125702381Y-81700476D01*
X125702381Y-80176666D02*
X125702381Y-80748095D01*
X125702381Y-80462381D02*
X124702381Y-80462381D01*
X124845238Y-80557619D01*
X124940476Y-80652857D01*
X124988095Y-80748095D01*
X124702381Y-79557619D02*
X124702381Y-79462380D01*
X124750000Y-79367142D01*
X124797619Y-79319523D01*
X124892857Y-79271904D01*
X125083333Y-79224285D01*
X125321429Y-79224285D01*
X125511905Y-79271904D01*
X125607143Y-79319523D01*
X125654762Y-79367142D01*
X125702381Y-79462380D01*
X125702381Y-79557619D01*
X125654762Y-79652857D01*
X125607143Y-79700476D01*
X125511905Y-79748095D01*
X125321429Y-79795714D01*
X125083333Y-79795714D01*
X124892857Y-79748095D01*
X124797619Y-79700476D01*
X124750000Y-79652857D01*
X124702381Y-79557619D01*
X124797619Y-78843333D02*
X124750000Y-78795714D01*
X124702381Y-78700476D01*
X124702381Y-78462380D01*
X124750000Y-78367142D01*
X124797619Y-78319523D01*
X124892857Y-78271904D01*
X124988095Y-78271904D01*
X125130952Y-78319523D01*
X125702381Y-78890952D01*
X125702381Y-78271904D01*
D15*
X157443714Y-75619429D02*
X157443714Y-74095429D01*
X158314571Y-75619429D02*
X157661428Y-74748571D01*
X158314571Y-74095429D02*
X157443714Y-74966286D01*
X159766000Y-75619429D02*
X158895143Y-75619429D01*
X159330571Y-75619429D02*
X159330571Y-74095429D01*
X159185428Y-74313143D01*
X159040286Y-74458286D01*
X158895143Y-74530857D01*
X160709429Y-74095429D02*
X160854572Y-74095429D01*
X160999715Y-74168000D01*
X161072286Y-74240571D01*
X161144857Y-74385714D01*
X161217429Y-74676000D01*
X161217429Y-75038857D01*
X161144857Y-75329143D01*
X161072286Y-75474286D01*
X160999715Y-75546857D01*
X160854572Y-75619429D01*
X160709429Y-75619429D01*
X160564286Y-75546857D01*
X160491715Y-75474286D01*
X160419143Y-75329143D01*
X160346572Y-75038857D01*
X160346572Y-74676000D01*
X160419143Y-74385714D01*
X160491715Y-74240571D01*
X160564286Y-74168000D01*
X160709429Y-74095429D01*
X162668858Y-75619429D02*
X161798001Y-75619429D01*
X162233429Y-75619429D02*
X162233429Y-74095429D01*
X162088286Y-74313143D01*
X161943144Y-74458286D01*
X161798001Y-74530857D01*
X135744856Y-79901143D02*
X135236856Y-79901143D01*
X135236856Y-80699429D02*
X135236856Y-79175429D01*
X135962570Y-79175429D01*
X136543142Y-80699429D02*
X136543142Y-79683429D01*
X136543142Y-79175429D02*
X136470571Y-79248000D01*
X136543142Y-79320571D01*
X136615714Y-79248000D01*
X136543142Y-79175429D01*
X136543142Y-79320571D01*
X137268856Y-79683429D02*
X137268856Y-80699429D01*
X137268856Y-79828571D02*
X137341428Y-79756000D01*
X137486570Y-79683429D01*
X137704285Y-79683429D01*
X137849428Y-79756000D01*
X137921999Y-79901143D01*
X137921999Y-80699429D01*
X139300856Y-80699429D02*
X139300856Y-79175429D01*
X139300856Y-80626857D02*
X139155713Y-80699429D01*
X138865427Y-80699429D01*
X138720285Y-80626857D01*
X138647713Y-80554286D01*
X138575142Y-80409143D01*
X138575142Y-79973714D01*
X138647713Y-79828571D01*
X138720285Y-79756000D01*
X138865427Y-79683429D01*
X139155713Y-79683429D01*
X139300856Y-79756000D01*
X140607142Y-80626857D02*
X140461999Y-80699429D01*
X140171713Y-80699429D01*
X140026570Y-80626857D01*
X139953999Y-80481714D01*
X139953999Y-79901143D01*
X140026570Y-79756000D01*
X140171713Y-79683429D01*
X140461999Y-79683429D01*
X140607142Y-79756000D01*
X140679713Y-79901143D01*
X140679713Y-80046286D01*
X139953999Y-80191429D01*
X141332856Y-80699429D02*
X141332856Y-79683429D01*
X141332856Y-79973714D02*
X141405428Y-79828571D01*
X141477999Y-79756000D01*
X141623142Y-79683429D01*
X141768285Y-79683429D01*
X144090571Y-79683429D02*
X144090571Y-80699429D01*
X143727714Y-79102857D02*
X143364857Y-80191429D01*
X144308285Y-80191429D01*
X145179143Y-79175429D02*
X145324286Y-79175429D01*
X145469429Y-79248000D01*
X145542000Y-79320571D01*
X145614571Y-79465714D01*
X145687143Y-79756000D01*
X145687143Y-80118857D01*
X145614571Y-80409143D01*
X145542000Y-80554286D01*
X145469429Y-80626857D01*
X145324286Y-80699429D01*
X145179143Y-80699429D01*
X145034000Y-80626857D01*
X144961429Y-80554286D01*
X144888857Y-80409143D01*
X144816286Y-80118857D01*
X144816286Y-79756000D01*
X144888857Y-79465714D01*
X144961429Y-79320571D01*
X145034000Y-79248000D01*
X145179143Y-79175429D01*
X146340286Y-80554286D02*
X146412858Y-80626857D01*
X146340286Y-80699429D01*
X146267715Y-80626857D01*
X146340286Y-80554286D01*
X146340286Y-80699429D01*
X146920857Y-79175429D02*
X147864286Y-79175429D01*
X147356286Y-79756000D01*
X147574000Y-79756000D01*
X147719143Y-79828571D01*
X147791714Y-79901143D01*
X147864286Y-80046286D01*
X147864286Y-80409143D01*
X147791714Y-80554286D01*
X147719143Y-80626857D01*
X147574000Y-80699429D01*
X147138572Y-80699429D01*
X146993429Y-80626857D01*
X146920857Y-80554286D01*
X149315715Y-80699429D02*
X148444858Y-80699429D01*
X148880286Y-80699429D02*
X148880286Y-79175429D01*
X148735143Y-79393143D01*
X148590001Y-79538286D01*
X148444858Y-79610857D01*
X157443714Y-93399429D02*
X157443714Y-91875429D01*
X158314571Y-93399429D02*
X157661428Y-92528571D01*
X158314571Y-91875429D02*
X157443714Y-92746286D01*
X159766000Y-93399429D02*
X158895143Y-93399429D01*
X159330571Y-93399429D02*
X159330571Y-91875429D01*
X159185428Y-92093143D01*
X159040286Y-92238286D01*
X158895143Y-92310857D01*
X160709429Y-91875429D02*
X160854572Y-91875429D01*
X160999715Y-91948000D01*
X161072286Y-92020571D01*
X161144857Y-92165714D01*
X161217429Y-92456000D01*
X161217429Y-92818857D01*
X161144857Y-93109143D01*
X161072286Y-93254286D01*
X160999715Y-93326857D01*
X160854572Y-93399429D01*
X160709429Y-93399429D01*
X160564286Y-93326857D01*
X160491715Y-93254286D01*
X160419143Y-93109143D01*
X160346572Y-92818857D01*
X160346572Y-92456000D01*
X160419143Y-92165714D01*
X160491715Y-92020571D01*
X160564286Y-91948000D01*
X160709429Y-91875429D01*
X161798001Y-92020571D02*
X161870572Y-91948000D01*
X162015715Y-91875429D01*
X162378572Y-91875429D01*
X162523715Y-91948000D01*
X162596286Y-92020571D01*
X162668858Y-92165714D01*
X162668858Y-92310857D01*
X162596286Y-92528571D01*
X161725429Y-93399429D01*
X162668858Y-93399429D01*
X135744856Y-97681143D02*
X135236856Y-97681143D01*
X135236856Y-98479429D02*
X135236856Y-96955429D01*
X135962570Y-96955429D01*
X136543142Y-98479429D02*
X136543142Y-97463429D01*
X136543142Y-96955429D02*
X136470571Y-97028000D01*
X136543142Y-97100571D01*
X136615714Y-97028000D01*
X136543142Y-96955429D01*
X136543142Y-97100571D01*
X137268856Y-97463429D02*
X137268856Y-98479429D01*
X137268856Y-97608571D02*
X137341428Y-97536000D01*
X137486570Y-97463429D01*
X137704285Y-97463429D01*
X137849428Y-97536000D01*
X137921999Y-97681143D01*
X137921999Y-98479429D01*
X139300856Y-98479429D02*
X139300856Y-96955429D01*
X139300856Y-98406857D02*
X139155713Y-98479429D01*
X138865427Y-98479429D01*
X138720285Y-98406857D01*
X138647713Y-98334286D01*
X138575142Y-98189143D01*
X138575142Y-97753714D01*
X138647713Y-97608571D01*
X138720285Y-97536000D01*
X138865427Y-97463429D01*
X139155713Y-97463429D01*
X139300856Y-97536000D01*
X140607142Y-98406857D02*
X140461999Y-98479429D01*
X140171713Y-98479429D01*
X140026570Y-98406857D01*
X139953999Y-98261714D01*
X139953999Y-97681143D01*
X140026570Y-97536000D01*
X140171713Y-97463429D01*
X140461999Y-97463429D01*
X140607142Y-97536000D01*
X140679713Y-97681143D01*
X140679713Y-97826286D01*
X139953999Y-97971429D01*
X141332856Y-98479429D02*
X141332856Y-97463429D01*
X141332856Y-97753714D02*
X141405428Y-97608571D01*
X141477999Y-97536000D01*
X141623142Y-97463429D01*
X141768285Y-97463429D01*
X144090571Y-97463429D02*
X144090571Y-98479429D01*
X143727714Y-96882857D02*
X143364857Y-97971429D01*
X144308285Y-97971429D01*
X145179143Y-96955429D02*
X145324286Y-96955429D01*
X145469429Y-97028000D01*
X145542000Y-97100571D01*
X145614571Y-97245714D01*
X145687143Y-97536000D01*
X145687143Y-97898857D01*
X145614571Y-98189143D01*
X145542000Y-98334286D01*
X145469429Y-98406857D01*
X145324286Y-98479429D01*
X145179143Y-98479429D01*
X145034000Y-98406857D01*
X144961429Y-98334286D01*
X144888857Y-98189143D01*
X144816286Y-97898857D01*
X144816286Y-97536000D01*
X144888857Y-97245714D01*
X144961429Y-97100571D01*
X145034000Y-97028000D01*
X145179143Y-96955429D01*
X146340286Y-98334286D02*
X146412858Y-98406857D01*
X146340286Y-98479429D01*
X146267715Y-98406857D01*
X146340286Y-98334286D01*
X146340286Y-98479429D01*
X146920857Y-96955429D02*
X147864286Y-96955429D01*
X147356286Y-97536000D01*
X147574000Y-97536000D01*
X147719143Y-97608571D01*
X147791714Y-97681143D01*
X147864286Y-97826286D01*
X147864286Y-98189143D01*
X147791714Y-98334286D01*
X147719143Y-98406857D01*
X147574000Y-98479429D01*
X147138572Y-98479429D01*
X146993429Y-98406857D01*
X146920857Y-98334286D01*
X149315715Y-98479429D02*
X148444858Y-98479429D01*
X148880286Y-98479429D02*
X148880286Y-96955429D01*
X148735143Y-97173143D01*
X148590001Y-97318286D01*
X148444858Y-97390857D01*
D13*
X155789524Y-110942381D02*
X155789524Y-109942381D01*
X156170477Y-109942381D01*
X156265715Y-109990000D01*
X156313334Y-110037619D01*
X156360953Y-110132857D01*
X156360953Y-110275714D01*
X156313334Y-110370952D01*
X156265715Y-110418571D01*
X156170477Y-110466190D01*
X155789524Y-110466190D01*
X157313334Y-110942381D02*
X156741905Y-110942381D01*
X157027619Y-110942381D02*
X157027619Y-109942381D01*
X156932381Y-110085238D01*
X156837143Y-110180476D01*
X156741905Y-110228095D01*
X157932381Y-109942381D02*
X158027620Y-109942381D01*
X158122858Y-109990000D01*
X158170477Y-110037619D01*
X158218096Y-110132857D01*
X158265715Y-110323333D01*
X158265715Y-110561429D01*
X158218096Y-110751905D01*
X158170477Y-110847143D01*
X158122858Y-110894762D01*
X158027620Y-110942381D01*
X157932381Y-110942381D01*
X157837143Y-110894762D01*
X157789524Y-110847143D01*
X157741905Y-110751905D01*
X157694286Y-110561429D01*
X157694286Y-110323333D01*
X157741905Y-110132857D01*
X157789524Y-110037619D01*
X157837143Y-109990000D01*
X157932381Y-109942381D01*
X158646667Y-110037619D02*
X158694286Y-109990000D01*
X158789524Y-109942381D01*
X159027620Y-109942381D01*
X159122858Y-109990000D01*
X159170477Y-110037619D01*
X159218096Y-110132857D01*
X159218096Y-110228095D01*
X159170477Y-110370952D01*
X158599048Y-110942381D01*
X159218096Y-110942381D01*
X155360953Y-121007143D02*
X155313334Y-121054762D01*
X155170477Y-121102381D01*
X155075239Y-121102381D01*
X154932381Y-121054762D01*
X154837143Y-120959524D01*
X154789524Y-120864286D01*
X154741905Y-120673810D01*
X154741905Y-120530952D01*
X154789524Y-120340476D01*
X154837143Y-120245238D01*
X154932381Y-120150000D01*
X155075239Y-120102381D01*
X155170477Y-120102381D01*
X155313334Y-120150000D01*
X155360953Y-120197619D01*
X155980000Y-120102381D02*
X156170477Y-120102381D01*
X156265715Y-120150000D01*
X156360953Y-120245238D01*
X156408572Y-120435714D01*
X156408572Y-120769048D01*
X156360953Y-120959524D01*
X156265715Y-121054762D01*
X156170477Y-121102381D01*
X155980000Y-121102381D01*
X155884762Y-121054762D01*
X155789524Y-120959524D01*
X155741905Y-120769048D01*
X155741905Y-120435714D01*
X155789524Y-120245238D01*
X155884762Y-120150000D01*
X155980000Y-120102381D01*
X156837143Y-121102381D02*
X156837143Y-120102381D01*
X157408572Y-121102381D01*
X157408572Y-120102381D01*
X157884762Y-121102381D02*
X157884762Y-120102381D01*
X158456191Y-121102381D01*
X158456191Y-120102381D01*
X158694286Y-121197619D02*
X159456191Y-121197619D01*
X159646667Y-120197619D02*
X159694286Y-120150000D01*
X159789524Y-120102381D01*
X160027620Y-120102381D01*
X160122858Y-120150000D01*
X160170477Y-120197619D01*
X160218096Y-120292857D01*
X160218096Y-120388095D01*
X160170477Y-120530952D01*
X159599048Y-121102381D01*
X160218096Y-121102381D01*
X140549524Y-110942381D02*
X140549524Y-109942381D01*
X140930477Y-109942381D01*
X141025715Y-109990000D01*
X141073334Y-110037619D01*
X141120953Y-110132857D01*
X141120953Y-110275714D01*
X141073334Y-110370952D01*
X141025715Y-110418571D01*
X140930477Y-110466190D01*
X140549524Y-110466190D01*
X142073334Y-110942381D02*
X141501905Y-110942381D01*
X141787619Y-110942381D02*
X141787619Y-109942381D01*
X141692381Y-110085238D01*
X141597143Y-110180476D01*
X141501905Y-110228095D01*
X142692381Y-109942381D02*
X142787620Y-109942381D01*
X142882858Y-109990000D01*
X142930477Y-110037619D01*
X142978096Y-110132857D01*
X143025715Y-110323333D01*
X143025715Y-110561429D01*
X142978096Y-110751905D01*
X142930477Y-110847143D01*
X142882858Y-110894762D01*
X142787620Y-110942381D01*
X142692381Y-110942381D01*
X142597143Y-110894762D01*
X142549524Y-110847143D01*
X142501905Y-110751905D01*
X142454286Y-110561429D01*
X142454286Y-110323333D01*
X142501905Y-110132857D01*
X142549524Y-110037619D01*
X142597143Y-109990000D01*
X142692381Y-109942381D01*
X143359048Y-109942381D02*
X143978096Y-109942381D01*
X143644762Y-110323333D01*
X143787620Y-110323333D01*
X143882858Y-110370952D01*
X143930477Y-110418571D01*
X143978096Y-110513810D01*
X143978096Y-110751905D01*
X143930477Y-110847143D01*
X143882858Y-110894762D01*
X143787620Y-110942381D01*
X143501905Y-110942381D01*
X143406667Y-110894762D01*
X143359048Y-110847143D01*
X140120953Y-121007143D02*
X140073334Y-121054762D01*
X139930477Y-121102381D01*
X139835239Y-121102381D01*
X139692381Y-121054762D01*
X139597143Y-120959524D01*
X139549524Y-120864286D01*
X139501905Y-120673810D01*
X139501905Y-120530952D01*
X139549524Y-120340476D01*
X139597143Y-120245238D01*
X139692381Y-120150000D01*
X139835239Y-120102381D01*
X139930477Y-120102381D01*
X140073334Y-120150000D01*
X140120953Y-120197619D01*
X140740000Y-120102381D02*
X140930477Y-120102381D01*
X141025715Y-120150000D01*
X141120953Y-120245238D01*
X141168572Y-120435714D01*
X141168572Y-120769048D01*
X141120953Y-120959524D01*
X141025715Y-121054762D01*
X140930477Y-121102381D01*
X140740000Y-121102381D01*
X140644762Y-121054762D01*
X140549524Y-120959524D01*
X140501905Y-120769048D01*
X140501905Y-120435714D01*
X140549524Y-120245238D01*
X140644762Y-120150000D01*
X140740000Y-120102381D01*
X141597143Y-121102381D02*
X141597143Y-120102381D01*
X142168572Y-121102381D01*
X142168572Y-120102381D01*
X142644762Y-121102381D02*
X142644762Y-120102381D01*
X143216191Y-121102381D01*
X143216191Y-120102381D01*
X143454286Y-121197619D02*
X144216191Y-121197619D01*
X144406667Y-120197619D02*
X144454286Y-120150000D01*
X144549524Y-120102381D01*
X144787620Y-120102381D01*
X144882858Y-120150000D01*
X144930477Y-120197619D01*
X144978096Y-120292857D01*
X144978096Y-120388095D01*
X144930477Y-120530952D01*
X144359048Y-121102381D01*
X144978096Y-121102381D01*
M02*
