G04 #@! TF.FileFunction,Copper,L1,Top,Signal*
%FSLAX46Y46*%
G04 Gerber Fmt 4.6, Leading zero omitted, Abs format (unit mm)*
G04 Created by KiCad (PCBNEW 4.0.4+e1-6308~48~ubuntu15.10.1-stable) date Tue Feb  7 13:57:11 2017*
%MOMM*%
%LPD*%
G01*
G04 APERTURE LIST*
%ADD10C,0.100000*%
%ADD11R,1.700000X1.700000*%
%ADD12O,1.700000X1.700000*%
%ADD13C,1.524000*%
%ADD14R,1.600000X1.600000*%
%ADD15O,1.600000X1.600000*%
%ADD16C,3.600000*%
%ADD17C,3.400000*%
%ADD18C,6.400000*%
%ADD19C,0.381000*%
%ADD20C,0.254000*%
G04 APERTURE END LIST*
D10*
D11*
X116840000Y-85090000D03*
D12*
X116840000Y-87630000D03*
D13*
X116840000Y-102870000D03*
X116840000Y-105410000D03*
X116840000Y-100330000D03*
D11*
X125730000Y-107950000D03*
D12*
X125730000Y-110490000D03*
D14*
X123190000Y-102870000D03*
D15*
X123190000Y-92710000D03*
D14*
X123190000Y-74930000D03*
D15*
X123190000Y-85090000D03*
D16*
X144780000Y-83820000D03*
D17*
X128270000Y-76200000D03*
X128270000Y-83820000D03*
D16*
X148590000Y-76200000D03*
X152400000Y-83820000D03*
X144780000Y-101600000D03*
D17*
X128270000Y-93980000D03*
X128270000Y-101600000D03*
D16*
X148590000Y-93980000D03*
X152400000Y-101600000D03*
X153670000Y-114300000D03*
X161290000Y-114300000D03*
X138430000Y-114300000D03*
X146050000Y-114300000D03*
D18*
X170180000Y-74930000D03*
X115570000Y-74930000D03*
X115570000Y-116840000D03*
X170180000Y-116840000D03*
D19*
X123190000Y-92710000D02*
X116840000Y-99060000D01*
X116840000Y-99060000D02*
X116840000Y-100330000D01*
X123190000Y-92710000D02*
X124460000Y-93980000D01*
X124460000Y-93980000D02*
X128270000Y-93980000D01*
X120650000Y-87630000D02*
X123190000Y-90170000D01*
X123190000Y-90170000D02*
X123190000Y-92710000D01*
X123190000Y-85090000D02*
X120650000Y-87630000D01*
X120650000Y-87630000D02*
X116840000Y-87630000D01*
X128270000Y-76200000D02*
X123190000Y-81280000D01*
X123190000Y-81280000D02*
X123190000Y-85090000D01*
X116840000Y-105410000D02*
X121920000Y-110490000D01*
X121920000Y-110490000D02*
X125730000Y-110490000D01*
X116840000Y-102870000D02*
X116840000Y-105410000D01*
D20*
G36*
X138303000Y-86307394D02*
X131990197Y-92620197D01*
X131962334Y-92662211D01*
X131953000Y-92710000D01*
X131953000Y-119940000D01*
X117892832Y-119940000D01*
X118819259Y-119015189D01*
X119404333Y-117606175D01*
X119405664Y-116080518D01*
X118823050Y-114670485D01*
X117745189Y-113590741D01*
X116336175Y-113005667D01*
X114810518Y-113004336D01*
X113400485Y-113586950D01*
X112470000Y-114515812D01*
X112470000Y-87630000D01*
X115325907Y-87630000D01*
X115438946Y-88198285D01*
X115760853Y-88680054D01*
X116242622Y-89001961D01*
X116810907Y-89115000D01*
X116869093Y-89115000D01*
X117437378Y-89001961D01*
X117919147Y-88680054D01*
X118069189Y-88455500D01*
X120308066Y-88455500D01*
X122364500Y-90511933D01*
X122364500Y-91540771D01*
X122175302Y-91667189D01*
X121864233Y-92132736D01*
X121755000Y-92681887D01*
X121755000Y-92738113D01*
X121794728Y-92937838D01*
X116256283Y-98476283D01*
X116077337Y-98744094D01*
X116077337Y-98744095D01*
X116014500Y-99060000D01*
X116014500Y-99180126D01*
X115656371Y-99537630D01*
X115443243Y-100050900D01*
X115442758Y-100606661D01*
X115654990Y-101120303D01*
X116047630Y-101513629D01*
X116255512Y-101599949D01*
X116049697Y-101684990D01*
X115656371Y-102077630D01*
X115443243Y-102590900D01*
X115442758Y-103146661D01*
X115654990Y-103660303D01*
X116014500Y-104020441D01*
X116014500Y-104260126D01*
X115656371Y-104617630D01*
X115443243Y-105130900D01*
X115442758Y-105686661D01*
X115654990Y-106200303D01*
X116047630Y-106593629D01*
X116560900Y-106806757D01*
X117069767Y-106807201D01*
X121336283Y-111073717D01*
X121604094Y-111252663D01*
X121920000Y-111315501D01*
X121920005Y-111315500D01*
X124500811Y-111315500D01*
X124650853Y-111540054D01*
X125132622Y-111861961D01*
X125700907Y-111975000D01*
X125759093Y-111975000D01*
X126327378Y-111861961D01*
X126809147Y-111540054D01*
X127131054Y-111058285D01*
X127244093Y-110490000D01*
X127131054Y-109921715D01*
X126809147Y-109439946D01*
X126765223Y-109410597D01*
X126939698Y-109338327D01*
X127118327Y-109159699D01*
X127215000Y-108926310D01*
X127215000Y-108235750D01*
X127056250Y-108077000D01*
X125857000Y-108077000D01*
X125857000Y-108097000D01*
X125603000Y-108097000D01*
X125603000Y-108077000D01*
X124403750Y-108077000D01*
X124245000Y-108235750D01*
X124245000Y-108926310D01*
X124341673Y-109159699D01*
X124520302Y-109338327D01*
X124694777Y-109410597D01*
X124650853Y-109439946D01*
X124500811Y-109664500D01*
X122261934Y-109664500D01*
X119571124Y-106973690D01*
X124245000Y-106973690D01*
X124245000Y-107664250D01*
X124403750Y-107823000D01*
X125603000Y-107823000D01*
X125603000Y-106623750D01*
X125857000Y-106623750D01*
X125857000Y-107823000D01*
X127056250Y-107823000D01*
X127215000Y-107664250D01*
X127215000Y-106973690D01*
X127118327Y-106740301D01*
X126939698Y-106561673D01*
X126706309Y-106465000D01*
X126015750Y-106465000D01*
X125857000Y-106623750D01*
X125603000Y-106623750D01*
X125444250Y-106465000D01*
X124753691Y-106465000D01*
X124520302Y-106561673D01*
X124341673Y-106740301D01*
X124245000Y-106973690D01*
X119571124Y-106973690D01*
X118236800Y-105639366D01*
X118237242Y-105133339D01*
X118025010Y-104619697D01*
X117665500Y-104259559D01*
X117665500Y-104019874D01*
X118023629Y-103662370D01*
X118233995Y-103155750D01*
X121755000Y-103155750D01*
X121755000Y-103796309D01*
X121851673Y-104029698D01*
X122030301Y-104208327D01*
X122263690Y-104305000D01*
X122904250Y-104305000D01*
X123063000Y-104146250D01*
X123063000Y-102997000D01*
X123317000Y-102997000D01*
X123317000Y-104146250D01*
X123475750Y-104305000D01*
X124116310Y-104305000D01*
X124349699Y-104208327D01*
X124528327Y-104029698D01*
X124625000Y-103796309D01*
X124625000Y-103258422D01*
X126791183Y-103258422D01*
X126975371Y-103597970D01*
X127838509Y-103941316D01*
X128767336Y-103928218D01*
X129564629Y-103597970D01*
X129748817Y-103258422D01*
X128270000Y-101779605D01*
X126791183Y-103258422D01*
X124625000Y-103258422D01*
X124625000Y-103155750D01*
X124466250Y-102997000D01*
X123317000Y-102997000D01*
X123063000Y-102997000D01*
X121913750Y-102997000D01*
X121755000Y-103155750D01*
X118233995Y-103155750D01*
X118236757Y-103149100D01*
X118237242Y-102593339D01*
X118025010Y-102079697D01*
X117889242Y-101943691D01*
X121755000Y-101943691D01*
X121755000Y-102584250D01*
X121913750Y-102743000D01*
X123063000Y-102743000D01*
X123063000Y-101593750D01*
X123317000Y-101593750D01*
X123317000Y-102743000D01*
X124466250Y-102743000D01*
X124625000Y-102584250D01*
X124625000Y-101943691D01*
X124528327Y-101710302D01*
X124349699Y-101531673D01*
X124116310Y-101435000D01*
X123475750Y-101435000D01*
X123317000Y-101593750D01*
X123063000Y-101593750D01*
X122904250Y-101435000D01*
X122263690Y-101435000D01*
X122030301Y-101531673D01*
X121851673Y-101710302D01*
X121755000Y-101943691D01*
X117889242Y-101943691D01*
X117632370Y-101686371D01*
X117424488Y-101600051D01*
X117630303Y-101515010D01*
X117977409Y-101168509D01*
X125928684Y-101168509D01*
X125941782Y-102097336D01*
X126272030Y-102894629D01*
X126611578Y-103078817D01*
X128090395Y-101600000D01*
X128449605Y-101600000D01*
X129928422Y-103078817D01*
X130267970Y-102894629D01*
X130611316Y-102031491D01*
X130598218Y-101102664D01*
X130267970Y-100305371D01*
X129928422Y-100121183D01*
X128449605Y-101600000D01*
X128090395Y-101600000D01*
X126611578Y-100121183D01*
X126272030Y-100305371D01*
X125928684Y-101168509D01*
X117977409Y-101168509D01*
X118023629Y-101122370D01*
X118236757Y-100609100D01*
X118237242Y-100053339D01*
X118191064Y-99941578D01*
X126791183Y-99941578D01*
X128270000Y-101420395D01*
X129748817Y-99941578D01*
X129564629Y-99602030D01*
X128701491Y-99258684D01*
X127772664Y-99271782D01*
X126975371Y-99602030D01*
X126791183Y-99941578D01*
X118191064Y-99941578D01*
X118025010Y-99539697D01*
X117776591Y-99290843D01*
X122943377Y-94124057D01*
X123190000Y-94173113D01*
X123436623Y-94124057D01*
X123876281Y-94563714D01*
X123876283Y-94563717D01*
X124036824Y-94670987D01*
X124144094Y-94742663D01*
X124460000Y-94805500D01*
X126084616Y-94805500D01*
X126289329Y-95300943D01*
X126945602Y-95958362D01*
X127803502Y-96314593D01*
X128732422Y-96315404D01*
X129590943Y-95960671D01*
X130248362Y-95304398D01*
X130604593Y-94446498D01*
X130605404Y-93517578D01*
X130250671Y-92659057D01*
X129594398Y-92001638D01*
X128736498Y-91645407D01*
X127807578Y-91644596D01*
X126949057Y-91999329D01*
X126291638Y-92655602D01*
X126084478Y-93154500D01*
X124801933Y-93154500D01*
X124585272Y-92937839D01*
X124625000Y-92738113D01*
X124625000Y-92681887D01*
X124515767Y-92132736D01*
X124204698Y-91667189D01*
X124015500Y-91540771D01*
X124015500Y-90170000D01*
X123952663Y-89854095D01*
X123773717Y-89586283D01*
X123773714Y-89586281D01*
X121817434Y-87630000D01*
X122943377Y-86504057D01*
X123190000Y-86553113D01*
X123739151Y-86443880D01*
X124204698Y-86132811D01*
X124515767Y-85667264D01*
X124553330Y-85478422D01*
X126791183Y-85478422D01*
X126975371Y-85817970D01*
X127838509Y-86161316D01*
X128767336Y-86148218D01*
X129564629Y-85817970D01*
X129748817Y-85478422D01*
X128270000Y-83999605D01*
X126791183Y-85478422D01*
X124553330Y-85478422D01*
X124625000Y-85118113D01*
X124625000Y-85061887D01*
X124515767Y-84512736D01*
X124204698Y-84047189D01*
X124015500Y-83920771D01*
X124015500Y-83388509D01*
X125928684Y-83388509D01*
X125941782Y-84317336D01*
X126272030Y-85114629D01*
X126611578Y-85298817D01*
X128090395Y-83820000D01*
X128449605Y-83820000D01*
X129928422Y-85298817D01*
X130267970Y-85114629D01*
X130611316Y-84251491D01*
X130598218Y-83322664D01*
X130267970Y-82525371D01*
X129928422Y-82341183D01*
X128449605Y-83820000D01*
X128090395Y-83820000D01*
X126611578Y-82341183D01*
X126272030Y-82525371D01*
X125928684Y-83388509D01*
X124015500Y-83388509D01*
X124015500Y-82161578D01*
X126791183Y-82161578D01*
X128270000Y-83640395D01*
X129748817Y-82161578D01*
X129564629Y-81822030D01*
X128701491Y-81478684D01*
X127772664Y-81491782D01*
X126975371Y-81822030D01*
X126791183Y-82161578D01*
X124015500Y-82161578D01*
X124015500Y-81621934D01*
X127308418Y-78329016D01*
X127803502Y-78534593D01*
X128732422Y-78535404D01*
X129590943Y-78180671D01*
X130248362Y-77524398D01*
X130604593Y-76666498D01*
X130605404Y-75737578D01*
X130250671Y-74879057D01*
X129594398Y-74221638D01*
X128736498Y-73865407D01*
X127807578Y-73864596D01*
X126949057Y-74219329D01*
X126291638Y-74875602D01*
X125935407Y-75733502D01*
X125934596Y-76662422D01*
X126140885Y-77161681D01*
X122606283Y-80696283D01*
X122427337Y-80964094D01*
X122427337Y-80964095D01*
X122364500Y-81280000D01*
X122364500Y-83920771D01*
X122175302Y-84047189D01*
X121864233Y-84512736D01*
X121755000Y-85061887D01*
X121755000Y-85118113D01*
X121794728Y-85317839D01*
X120308066Y-86804500D01*
X118069189Y-86804500D01*
X117919147Y-86579946D01*
X117875223Y-86550597D01*
X118049698Y-86478327D01*
X118228327Y-86299699D01*
X118325000Y-86066310D01*
X118325000Y-85375750D01*
X118166250Y-85217000D01*
X116967000Y-85217000D01*
X116967000Y-85237000D01*
X116713000Y-85237000D01*
X116713000Y-85217000D01*
X115513750Y-85217000D01*
X115355000Y-85375750D01*
X115355000Y-86066310D01*
X115451673Y-86299699D01*
X115630302Y-86478327D01*
X115804777Y-86550597D01*
X115760853Y-86579946D01*
X115438946Y-87061715D01*
X115325907Y-87630000D01*
X112470000Y-87630000D01*
X112470000Y-84113690D01*
X115355000Y-84113690D01*
X115355000Y-84804250D01*
X115513750Y-84963000D01*
X116713000Y-84963000D01*
X116713000Y-83763750D01*
X116967000Y-83763750D01*
X116967000Y-84963000D01*
X118166250Y-84963000D01*
X118325000Y-84804250D01*
X118325000Y-84113690D01*
X118228327Y-83880301D01*
X118049698Y-83701673D01*
X117816309Y-83605000D01*
X117125750Y-83605000D01*
X116967000Y-83763750D01*
X116713000Y-83763750D01*
X116554250Y-83605000D01*
X115863691Y-83605000D01*
X115630302Y-83701673D01*
X115451673Y-83880301D01*
X115355000Y-84113690D01*
X112470000Y-84113690D01*
X112470000Y-77252832D01*
X113394811Y-78179259D01*
X114803825Y-78764333D01*
X116329482Y-78765664D01*
X117739515Y-78183050D01*
X118819259Y-77105189D01*
X119404333Y-75696175D01*
X119404752Y-75215750D01*
X121755000Y-75215750D01*
X121755000Y-75856309D01*
X121851673Y-76089698D01*
X122030301Y-76268327D01*
X122263690Y-76365000D01*
X122904250Y-76365000D01*
X123063000Y-76206250D01*
X123063000Y-75057000D01*
X123317000Y-75057000D01*
X123317000Y-76206250D01*
X123475750Y-76365000D01*
X124116310Y-76365000D01*
X124349699Y-76268327D01*
X124528327Y-76089698D01*
X124625000Y-75856309D01*
X124625000Y-75215750D01*
X124466250Y-75057000D01*
X123317000Y-75057000D01*
X123063000Y-75057000D01*
X121913750Y-75057000D01*
X121755000Y-75215750D01*
X119404752Y-75215750D01*
X119405664Y-74170518D01*
X119336733Y-74003691D01*
X121755000Y-74003691D01*
X121755000Y-74644250D01*
X121913750Y-74803000D01*
X123063000Y-74803000D01*
X123063000Y-73653750D01*
X123317000Y-73653750D01*
X123317000Y-74803000D01*
X124466250Y-74803000D01*
X124625000Y-74644250D01*
X124625000Y-74003691D01*
X124528327Y-73770302D01*
X124349699Y-73591673D01*
X124116310Y-73495000D01*
X123475750Y-73495000D01*
X123317000Y-73653750D01*
X123063000Y-73653750D01*
X122904250Y-73495000D01*
X122263690Y-73495000D01*
X122030301Y-73591673D01*
X121851673Y-73770302D01*
X121755000Y-74003691D01*
X119336733Y-74003691D01*
X118823050Y-72760485D01*
X117894188Y-71830000D01*
X138303000Y-71830000D01*
X138303000Y-86307394D01*
X138303000Y-86307394D01*
G37*
X138303000Y-86307394D02*
X131990197Y-92620197D01*
X131962334Y-92662211D01*
X131953000Y-92710000D01*
X131953000Y-119940000D01*
X117892832Y-119940000D01*
X118819259Y-119015189D01*
X119404333Y-117606175D01*
X119405664Y-116080518D01*
X118823050Y-114670485D01*
X117745189Y-113590741D01*
X116336175Y-113005667D01*
X114810518Y-113004336D01*
X113400485Y-113586950D01*
X112470000Y-114515812D01*
X112470000Y-87630000D01*
X115325907Y-87630000D01*
X115438946Y-88198285D01*
X115760853Y-88680054D01*
X116242622Y-89001961D01*
X116810907Y-89115000D01*
X116869093Y-89115000D01*
X117437378Y-89001961D01*
X117919147Y-88680054D01*
X118069189Y-88455500D01*
X120308066Y-88455500D01*
X122364500Y-90511933D01*
X122364500Y-91540771D01*
X122175302Y-91667189D01*
X121864233Y-92132736D01*
X121755000Y-92681887D01*
X121755000Y-92738113D01*
X121794728Y-92937838D01*
X116256283Y-98476283D01*
X116077337Y-98744094D01*
X116077337Y-98744095D01*
X116014500Y-99060000D01*
X116014500Y-99180126D01*
X115656371Y-99537630D01*
X115443243Y-100050900D01*
X115442758Y-100606661D01*
X115654990Y-101120303D01*
X116047630Y-101513629D01*
X116255512Y-101599949D01*
X116049697Y-101684990D01*
X115656371Y-102077630D01*
X115443243Y-102590900D01*
X115442758Y-103146661D01*
X115654990Y-103660303D01*
X116014500Y-104020441D01*
X116014500Y-104260126D01*
X115656371Y-104617630D01*
X115443243Y-105130900D01*
X115442758Y-105686661D01*
X115654990Y-106200303D01*
X116047630Y-106593629D01*
X116560900Y-106806757D01*
X117069767Y-106807201D01*
X121336283Y-111073717D01*
X121604094Y-111252663D01*
X121920000Y-111315501D01*
X121920005Y-111315500D01*
X124500811Y-111315500D01*
X124650853Y-111540054D01*
X125132622Y-111861961D01*
X125700907Y-111975000D01*
X125759093Y-111975000D01*
X126327378Y-111861961D01*
X126809147Y-111540054D01*
X127131054Y-111058285D01*
X127244093Y-110490000D01*
X127131054Y-109921715D01*
X126809147Y-109439946D01*
X126765223Y-109410597D01*
X126939698Y-109338327D01*
X127118327Y-109159699D01*
X127215000Y-108926310D01*
X127215000Y-108235750D01*
X127056250Y-108077000D01*
X125857000Y-108077000D01*
X125857000Y-108097000D01*
X125603000Y-108097000D01*
X125603000Y-108077000D01*
X124403750Y-108077000D01*
X124245000Y-108235750D01*
X124245000Y-108926310D01*
X124341673Y-109159699D01*
X124520302Y-109338327D01*
X124694777Y-109410597D01*
X124650853Y-109439946D01*
X124500811Y-109664500D01*
X122261934Y-109664500D01*
X119571124Y-106973690D01*
X124245000Y-106973690D01*
X124245000Y-107664250D01*
X124403750Y-107823000D01*
X125603000Y-107823000D01*
X125603000Y-106623750D01*
X125857000Y-106623750D01*
X125857000Y-107823000D01*
X127056250Y-107823000D01*
X127215000Y-107664250D01*
X127215000Y-106973690D01*
X127118327Y-106740301D01*
X126939698Y-106561673D01*
X126706309Y-106465000D01*
X126015750Y-106465000D01*
X125857000Y-106623750D01*
X125603000Y-106623750D01*
X125444250Y-106465000D01*
X124753691Y-106465000D01*
X124520302Y-106561673D01*
X124341673Y-106740301D01*
X124245000Y-106973690D01*
X119571124Y-106973690D01*
X118236800Y-105639366D01*
X118237242Y-105133339D01*
X118025010Y-104619697D01*
X117665500Y-104259559D01*
X117665500Y-104019874D01*
X118023629Y-103662370D01*
X118233995Y-103155750D01*
X121755000Y-103155750D01*
X121755000Y-103796309D01*
X121851673Y-104029698D01*
X122030301Y-104208327D01*
X122263690Y-104305000D01*
X122904250Y-104305000D01*
X123063000Y-104146250D01*
X123063000Y-102997000D01*
X123317000Y-102997000D01*
X123317000Y-104146250D01*
X123475750Y-104305000D01*
X124116310Y-104305000D01*
X124349699Y-104208327D01*
X124528327Y-104029698D01*
X124625000Y-103796309D01*
X124625000Y-103258422D01*
X126791183Y-103258422D01*
X126975371Y-103597970D01*
X127838509Y-103941316D01*
X128767336Y-103928218D01*
X129564629Y-103597970D01*
X129748817Y-103258422D01*
X128270000Y-101779605D01*
X126791183Y-103258422D01*
X124625000Y-103258422D01*
X124625000Y-103155750D01*
X124466250Y-102997000D01*
X123317000Y-102997000D01*
X123063000Y-102997000D01*
X121913750Y-102997000D01*
X121755000Y-103155750D01*
X118233995Y-103155750D01*
X118236757Y-103149100D01*
X118237242Y-102593339D01*
X118025010Y-102079697D01*
X117889242Y-101943691D01*
X121755000Y-101943691D01*
X121755000Y-102584250D01*
X121913750Y-102743000D01*
X123063000Y-102743000D01*
X123063000Y-101593750D01*
X123317000Y-101593750D01*
X123317000Y-102743000D01*
X124466250Y-102743000D01*
X124625000Y-102584250D01*
X124625000Y-101943691D01*
X124528327Y-101710302D01*
X124349699Y-101531673D01*
X124116310Y-101435000D01*
X123475750Y-101435000D01*
X123317000Y-101593750D01*
X123063000Y-101593750D01*
X122904250Y-101435000D01*
X122263690Y-101435000D01*
X122030301Y-101531673D01*
X121851673Y-101710302D01*
X121755000Y-101943691D01*
X117889242Y-101943691D01*
X117632370Y-101686371D01*
X117424488Y-101600051D01*
X117630303Y-101515010D01*
X117977409Y-101168509D01*
X125928684Y-101168509D01*
X125941782Y-102097336D01*
X126272030Y-102894629D01*
X126611578Y-103078817D01*
X128090395Y-101600000D01*
X128449605Y-101600000D01*
X129928422Y-103078817D01*
X130267970Y-102894629D01*
X130611316Y-102031491D01*
X130598218Y-101102664D01*
X130267970Y-100305371D01*
X129928422Y-100121183D01*
X128449605Y-101600000D01*
X128090395Y-101600000D01*
X126611578Y-100121183D01*
X126272030Y-100305371D01*
X125928684Y-101168509D01*
X117977409Y-101168509D01*
X118023629Y-101122370D01*
X118236757Y-100609100D01*
X118237242Y-100053339D01*
X118191064Y-99941578D01*
X126791183Y-99941578D01*
X128270000Y-101420395D01*
X129748817Y-99941578D01*
X129564629Y-99602030D01*
X128701491Y-99258684D01*
X127772664Y-99271782D01*
X126975371Y-99602030D01*
X126791183Y-99941578D01*
X118191064Y-99941578D01*
X118025010Y-99539697D01*
X117776591Y-99290843D01*
X122943377Y-94124057D01*
X123190000Y-94173113D01*
X123436623Y-94124057D01*
X123876281Y-94563714D01*
X123876283Y-94563717D01*
X124036824Y-94670987D01*
X124144094Y-94742663D01*
X124460000Y-94805500D01*
X126084616Y-94805500D01*
X126289329Y-95300943D01*
X126945602Y-95958362D01*
X127803502Y-96314593D01*
X128732422Y-96315404D01*
X129590943Y-95960671D01*
X130248362Y-95304398D01*
X130604593Y-94446498D01*
X130605404Y-93517578D01*
X130250671Y-92659057D01*
X129594398Y-92001638D01*
X128736498Y-91645407D01*
X127807578Y-91644596D01*
X126949057Y-91999329D01*
X126291638Y-92655602D01*
X126084478Y-93154500D01*
X124801933Y-93154500D01*
X124585272Y-92937839D01*
X124625000Y-92738113D01*
X124625000Y-92681887D01*
X124515767Y-92132736D01*
X124204698Y-91667189D01*
X124015500Y-91540771D01*
X124015500Y-90170000D01*
X123952663Y-89854095D01*
X123773717Y-89586283D01*
X123773714Y-89586281D01*
X121817434Y-87630000D01*
X122943377Y-86504057D01*
X123190000Y-86553113D01*
X123739151Y-86443880D01*
X124204698Y-86132811D01*
X124515767Y-85667264D01*
X124553330Y-85478422D01*
X126791183Y-85478422D01*
X126975371Y-85817970D01*
X127838509Y-86161316D01*
X128767336Y-86148218D01*
X129564629Y-85817970D01*
X129748817Y-85478422D01*
X128270000Y-83999605D01*
X126791183Y-85478422D01*
X124553330Y-85478422D01*
X124625000Y-85118113D01*
X124625000Y-85061887D01*
X124515767Y-84512736D01*
X124204698Y-84047189D01*
X124015500Y-83920771D01*
X124015500Y-83388509D01*
X125928684Y-83388509D01*
X125941782Y-84317336D01*
X126272030Y-85114629D01*
X126611578Y-85298817D01*
X128090395Y-83820000D01*
X128449605Y-83820000D01*
X129928422Y-85298817D01*
X130267970Y-85114629D01*
X130611316Y-84251491D01*
X130598218Y-83322664D01*
X130267970Y-82525371D01*
X129928422Y-82341183D01*
X128449605Y-83820000D01*
X128090395Y-83820000D01*
X126611578Y-82341183D01*
X126272030Y-82525371D01*
X125928684Y-83388509D01*
X124015500Y-83388509D01*
X124015500Y-82161578D01*
X126791183Y-82161578D01*
X128270000Y-83640395D01*
X129748817Y-82161578D01*
X129564629Y-81822030D01*
X128701491Y-81478684D01*
X127772664Y-81491782D01*
X126975371Y-81822030D01*
X126791183Y-82161578D01*
X124015500Y-82161578D01*
X124015500Y-81621934D01*
X127308418Y-78329016D01*
X127803502Y-78534593D01*
X128732422Y-78535404D01*
X129590943Y-78180671D01*
X130248362Y-77524398D01*
X130604593Y-76666498D01*
X130605404Y-75737578D01*
X130250671Y-74879057D01*
X129594398Y-74221638D01*
X128736498Y-73865407D01*
X127807578Y-73864596D01*
X126949057Y-74219329D01*
X126291638Y-74875602D01*
X125935407Y-75733502D01*
X125934596Y-76662422D01*
X126140885Y-77161681D01*
X122606283Y-80696283D01*
X122427337Y-80964094D01*
X122427337Y-80964095D01*
X122364500Y-81280000D01*
X122364500Y-83920771D01*
X122175302Y-84047189D01*
X121864233Y-84512736D01*
X121755000Y-85061887D01*
X121755000Y-85118113D01*
X121794728Y-85317839D01*
X120308066Y-86804500D01*
X118069189Y-86804500D01*
X117919147Y-86579946D01*
X117875223Y-86550597D01*
X118049698Y-86478327D01*
X118228327Y-86299699D01*
X118325000Y-86066310D01*
X118325000Y-85375750D01*
X118166250Y-85217000D01*
X116967000Y-85217000D01*
X116967000Y-85237000D01*
X116713000Y-85237000D01*
X116713000Y-85217000D01*
X115513750Y-85217000D01*
X115355000Y-85375750D01*
X115355000Y-86066310D01*
X115451673Y-86299699D01*
X115630302Y-86478327D01*
X115804777Y-86550597D01*
X115760853Y-86579946D01*
X115438946Y-87061715D01*
X115325907Y-87630000D01*
X112470000Y-87630000D01*
X112470000Y-84113690D01*
X115355000Y-84113690D01*
X115355000Y-84804250D01*
X115513750Y-84963000D01*
X116713000Y-84963000D01*
X116713000Y-83763750D01*
X116967000Y-83763750D01*
X116967000Y-84963000D01*
X118166250Y-84963000D01*
X118325000Y-84804250D01*
X118325000Y-84113690D01*
X118228327Y-83880301D01*
X118049698Y-83701673D01*
X117816309Y-83605000D01*
X117125750Y-83605000D01*
X116967000Y-83763750D01*
X116713000Y-83763750D01*
X116554250Y-83605000D01*
X115863691Y-83605000D01*
X115630302Y-83701673D01*
X115451673Y-83880301D01*
X115355000Y-84113690D01*
X112470000Y-84113690D01*
X112470000Y-77252832D01*
X113394811Y-78179259D01*
X114803825Y-78764333D01*
X116329482Y-78765664D01*
X117739515Y-78183050D01*
X118819259Y-77105189D01*
X119404333Y-75696175D01*
X119404752Y-75215750D01*
X121755000Y-75215750D01*
X121755000Y-75856309D01*
X121851673Y-76089698D01*
X122030301Y-76268327D01*
X122263690Y-76365000D01*
X122904250Y-76365000D01*
X123063000Y-76206250D01*
X123063000Y-75057000D01*
X123317000Y-75057000D01*
X123317000Y-76206250D01*
X123475750Y-76365000D01*
X124116310Y-76365000D01*
X124349699Y-76268327D01*
X124528327Y-76089698D01*
X124625000Y-75856309D01*
X124625000Y-75215750D01*
X124466250Y-75057000D01*
X123317000Y-75057000D01*
X123063000Y-75057000D01*
X121913750Y-75057000D01*
X121755000Y-75215750D01*
X119404752Y-75215750D01*
X119405664Y-74170518D01*
X119336733Y-74003691D01*
X121755000Y-74003691D01*
X121755000Y-74644250D01*
X121913750Y-74803000D01*
X123063000Y-74803000D01*
X123063000Y-73653750D01*
X123317000Y-73653750D01*
X123317000Y-74803000D01*
X124466250Y-74803000D01*
X124625000Y-74644250D01*
X124625000Y-74003691D01*
X124528327Y-73770302D01*
X124349699Y-73591673D01*
X124116310Y-73495000D01*
X123475750Y-73495000D01*
X123317000Y-73653750D01*
X123063000Y-73653750D01*
X122904250Y-73495000D01*
X122263690Y-73495000D01*
X122030301Y-73591673D01*
X121851673Y-73770302D01*
X121755000Y-74003691D01*
X119336733Y-74003691D01*
X118823050Y-72760485D01*
X117894188Y-71830000D01*
X138303000Y-71830000D01*
X138303000Y-86307394D01*
M02*
